<?xml version="1.0" encoding="UTF-8"?>
<svg id="Layer_2" data-name="Layer 2" xmlns="http://www.w3.org/2000/svg" viewBox="0 0 200 200">
  <defs>
    <style>
      .cls-1 {
        fill: #000;
        stroke-width: 0px;
      }
    </style>
  </defs>
  <path class="cls-1" d="M91.16,145.07c-19.25-5.31-35.91-20.3-40.88-39.96-5.18-20.49,3.05-43.18,20.28-55.48,8.15-5.82,17.81-9.49,27.89-9.59,9.49-.1,18.74,2.78,26.84,7.65,16.11,9.68,27.37,27.35,25.91,46.5-1.67,22.04-20.24,38.61-38.02,49.19-2.16,1.28-3.34,4.57-1.78,6.78,3.84,5.44,6.29,11.75,10.13,17.18l4.28-7.46c-13.92.2-27.84-.12-41.73-.94l4.28,7.46c2.24-4.57,3.53-9.5,5.77-14.05,1.18-2.4.65-5.36-1.78-6.78-2.18-1.28-5.6-.64-6.78,1.78-2.24,4.57-3.53,9.5-5.77,14.05-1.7,3.46.38,7.23,4.28,7.46,13.9.82,27.81,1.14,41.73.94,3.49-.05,6.53-4.27,4.28-7.46-3.84-5.44-6.29-11.75-10.13-17.18-.59,2.26-1.19,4.52-1.78,6.78,18.84-11.2,37.32-28,41.91-50.39,4.65-22.67-6.01-44.77-23.99-58.47-8.93-6.8-19.51-11.16-30.64-12.55-11.74-1.46-23.68,1.2-34.03,6.85-21.75,11.87-34.97,36.67-32.26,61.38,2.96,26.98,23.52,48.74,49.36,55.87,6.16,1.7,8.79-7.86,2.64-9.56h0Z"/>
  <path class="cls-1" d="M109.14,66.07c.66.18,1.32.38,1.97.6.32.11.64.24.96.36,1.11.41-1-.47.08.03,1.24.57,2.45,1.21,3.61,1.94.58.37,1.13.76,1.7,1.16.82.57-.74-.63.08.06.22.18.44.36.66.55,1.04.89,2.03,1.85,2.95,2.87.38.42.98.93,1.22,1.44-.49-1.06-.17-.22.05.09.2.28.4.56.59.84.76,1.14,1.45,2.32,2.06,3.55.15.31.29.62.44.93.42.91-.34-.95.03.08.23.64.48,1.28.68,1.94.41,1.31.71,2.65.92,4,.41,2.57,3.75,4.22,6.1,3.46,2.79-.9,3.9-3.34,3.46-6.1-2.05-12.9-12.39-23.96-24.92-27.35-2.5-.68-5.5.84-6.1,3.46s.78,5.37,3.46,6.1h0Z"/>
  <path class="cls-1" d="M129.47,99.46c-.68.78-1.37,1.57-2.05,2.35-.48.45-.82.98-1.02,1.6-.31.59-.45,1.23-.43,1.91-.03.68.12,1.32.43,1.91.2.61.54,1.15,1.02,1.6l1,.78c.77.45,1.61.67,2.5.68l1.32-.18c.84-.24,1.57-.66,2.19-1.27.68-.78,1.37-1.57,2.05-2.35.48-.45.82-.98,1.02-1.6.31-.59.45-1.23.43-1.91.03-.68-.12-1.32-.43-1.91-.2-.61-.54-1.15-1.02-1.6l-1-.78c-.77-.45-1.61-.67-2.5-.68l-1.32.18c-.84.24-1.57.66-2.19,1.27h0Z"/>
</svg>