<?xml version="1.0" encoding="UTF-8"?>
<svg id="Layer_2" data-name="Layer 2" xmlns="http://www.w3.org/2000/svg" viewBox="0 0 200 200">
  <defs>
    <style>
      .cls-1 {
        fill: #000;
        stroke-width: 0px;
      }
    </style>
  </defs>
  <path class="cls-1" d="M128.97,153.53c.05-.11.15-.32.19-.38.73-1.28,1.54-2.51,2.44-3.62,2.46-3.03,5.47-4.06,9.05-5.31,4.24-1.49,8.18-3.33,11.39-6.57,5.85-5.9,7.63-14.18,9.07-22.06,1.01-5.51,1.77-11.2,1.07-16.79-.8-6.37-3.95-12.64-10.8-14-3.97-.79-8.05-.03-11.04,2.82-2.68,2.56-4.08,6.34-4.93,9.86-.78,3.24-1.02,6.67-1.59,9.85-.15.84-.31,1.68-.57,2.49-.16.5-.45,1.11-.51,1.17-.6.57-2.09.75-2.63.58-.29-.09-.33-.17-.51-.31-.67-.53-.34-.23-.73-.95-.24-.44-.29-.45-.29-.44,0-.02,0-.1-.06-.46-.04-.2-.07-.33-.09-.43-.06-2.32-.19-4.64-.21-6.96-.07-7.67-.01-15.35-.31-23.02-.3-7.61-.93-15.23-3.75-22.37-2.79-7.06-7.11-13.71-13.72-17.74-2.67-1.63-5.58-2.63-8.58-3.11.29-.47.62-.92.89-1.4,1.27-2.24,2.31-4.62,3.21-7.03.42-1.14.1-2.8-.5-3.82-.6-1.03-1.78-2.01-2.96-2.28-1.27-.29-2.69-.23-3.82.5-1.14.73-1.81,1.69-2.28,2.96-.13.34-.26.67-.4,1.01-.48,1.08-1.01,2.14-1.57,3.18-.93-1.14-1.87-2.29-2.8-3.43-.76-.93-2.36-1.45-3.5-1.45-1.22,0-2.67.54-3.5,1.45-.87.94-1.51,2.18-1.45,3.5.06,1.39.58,2.43,1.45,3.5,1.2,1.47,2.41,2.95,3.61,4.42-.32.1-.65.17-.96.28-8.52,2.85-15.54,8.65-18.63,17.23-2.92,8.12-2.49,17.45-1.66,25.89.39,3.95,1.18,7.86,1.55,11.8.1,1.02.34,2.96-.13,3.72-.36.6-1.12.87-1.64,1.29-.4.33-.59.25-.7.17-.34-.25-1.05-.98-1.4-1.73-.27-.58-.5-1.72-.68-2.58-.52-2.51-1.24-4.98-2.48-7.24-3.49-6.36-12.22-9.36-18.5-5.07-5.47,3.74-5.91,11.09-5.2,17.08.8,6.67,1.92,13.82,4.45,20.05,3.17,7.81,9.66,12.91,18.01,14.28,3.01.49,5.97.55,8.93.38,1.8,10.37,4.62,20.73,5.97,30.89,0,.07.03.14.04.22-7.53,1.26-14.91,3.07-22.01,5.48-6.01,2.04-3.43,11.61,2.64,9.56,14.92-5.05,30.64-7.17,46.37-6.99,7.83.09,15.66.72,23.38,2.07,3.76.66,7.5,1.47,11.19,2.44,1.81.48,3.6.99,5.39,1.55,2.14.67,4.09,1.63,6.38,1.24,2.64-.45,4.12-3.7,3.46-6.1-.56-2.02-2.12-3.15-3.94-3.46h.48c-6.45-2.24-13.14-3.97-19.97-5.25-.11-1.44-.22-2.87-.27-4.31-.03-.76-.05-1.53-.03-2.29,0-.26.17-1.84.13-1.81.1-.53.23-1.04.38-1.56.05-.18.13-.36.2-.55ZM118.47,155.44c-.24,2.34-.12,4.7.05,7.05-11.12-1.32-22.46-1.39-33.61-.26-1.67-11.78-5.1-23.58-6.63-35.13-.46-3.48-2.78-5.28-6.27-4.78-6.14.88-14.45.68-18.57-4.5-3.9-4.92-4.38-12.71-5.47-18.68-.09-.5-.17-1-.25-1.5-.03-.16-.04-.22-.05-.25,0-.08-.01-.18-.03-.36-.12-1.34-.23-2.68-.2-4.03.01-.55.05-1.11.11-1.67.04-.15.17-.82.22-.99.08-.29.16-.57.26-.86.14-.41.06-.14,0,.05,0-.02,0-.03.02-.06.04-.11.13-.27.22-.4.1-.1.21-.21.3-.3-.05.02-.09.05-.13.07-.11.06-.17.08-.05.02.02-.01.07-.04.16-.09-.02.01-.03.02-.05.03.02,0,.05-.02.08-.04,0,0,.01-.01.02-.02.02,0,.04-.01.07-.02.02,0,.03-.01.05-.02,0,0-.03.01-.04.02.11-.03.26-.07.39-.1.22,0,.69-.05.75-.05.83.01.75-.08,1.45.26-.14-.07.64.46.61.41.17.15.35.33.48.5.34.5.63,1.02.9,1.56.01.03.02.03.03.05h0c.08.21.16.42.22.63.21.66.41,1.33.57,2,1.37,5.64,3.6,11.6,10.05,12.94,4.53.94,9.39-1.52,12.07-5.14,2.72-3.67,2.51-8.19,1.9-12.49-1.1-7.75-2.14-15.52-1.63-23.37.45-7.08,2.61-13.39,8.97-17.17,5.31-3.15,12.79-4.77,18.17-2.34,5.39,2.44,9.1,7.87,11.22,13.42,2.49,6.49,2.94,12.94,3.19,19.83.26,7.25.22,14.5.28,21.75.04,4.86-.36,10.22,2.4,14.48,4.65,7.18,15.82,7.59,20.54.17,3.78-5.95,2.12-12.84,4.7-19.18.13-.31.4-.85.73-1.41.33-.57.47-.69.58-.8.16-.17-.04-.13.52-.27-.55.14.85.05,1.14,0,.18.07.81.22,1.02.24.14.08.35.2.54.3.03.06.32.33.54.55-.02.06.48.85.62,1.12,0,.03.01.05.03.09.09.29.19.57.27.86.15.52.26,1.06.37,1.59.03.13.05.23.06.3.03.26.06.53.08.79.06.75.1,1.51.11,2.26.02,1.27-.03,2.55-.12,3.82-.05.66-.11,1.33-.18,1.99-.03.32-.07.65-.11.97-.01.09-.02.15-.02.2,0,.02,0,.05-.02.11-.9,6.16-1.79,13.16-5.11,18.53-4.06,6.56-11.94,6.41-17.9,10.29-5.61,3.65-9.95,10.33-10.62,17.01Z"/>
  <path class="cls-1" d="M48.67,88.73s-.06.03-.09.04c0,0,0,0,0,0,.04-.02.07-.03.1-.05,0,0,0,0,0,0Z"/>
  <path class="cls-1" d="M48.39,88.87s-.01.01.05-.02c.02-.01.04-.02.06-.04-.05.02-.08.04-.11.05Z"/>
  <path class="cls-1" d="M48.04,89.54c-.07.22-.04.14,0,0h0Z"/>
</svg>