<?xml version="1.0" encoding="UTF-8"?>
<svg width="32" height="32" viewBox="0 0 200 200" xmlns="http://www.w3.org/2000/svg">
  <defs>
    <style>
      .cls-1 {
        fill: #000;
        stroke-width: 0px;
      }
    </style>
  </defs>
  <path class="cls-1" d="M64.51,85.3c-11.25-2.46-23.32,1.52-31.07,10.04-7.63,8.38-10.11,20.21-6.19,30.91s12.13,18.74,23,21.02,21.14,2.75,31.68,2.3c11.58-.5,23.03-2.45,34.61-2.95,10.96-.47,22.72,1.57,33.43-1.34,23.75-6.47,29.29-38.62,21.03-58.51-5.33-12.84-15.45-22.41-28.94-26.05-10.61-2.86-24.88-.19-32,8.71,2.59.33,5.19.67,7.78,1-7.75-10.31-17.46-20.39-31.36-20.14-13.1.23-22.98,9.27-27.29,21.21-2.28,6.31-2.68,13.45-.78,19.89,1.81,6.1,11.38,3.51,9.56-2.64-2.88-9.75,2-23.11,11.99-27.35,12.07-5.12,22.53,4.99,29.31,14.01,1.7,2.26,5.58,3.76,7.78,1,2.65-3.31,6.25-5.09,10.32-6.08,1.92-.47,3.58-.69,5.59-.76.88-.03,1.76-.02,2.64.03,1.3.07,1.03.02,2.11.24,9.51,1.91,16.86,7.62,21.75,15.9,8.72,14.74,7.51,41.08-9.95,49.17-3.53,1.63-7.87,1.74-11.82,1.81-4.67.09-9.33-.16-13.99-.2-10.5-.07-20.9,1.29-31.32,2.33-9.82.98-19.68,1.29-29.51.27-3.8-.4-7.69-.8-11.4-1.76-3.98-1.03-7.39-3.33-10.14-6.36-6.21-6.84-8.14-17.3-3.33-25.39,4.73-7.94,14.73-12.78,23.85-10.79,6.22,1.36,8.87-8.19,2.64-9.56h0Z"/>
</svg>