<?xml version="1.0" encoding="UTF-8"?>
<svg id="Layer_2" data-name="Layer 2" xmlns="http://www.w3.org/2000/svg" viewBox="0 0 200 200">
  <defs>
    <style>
      .cls-1 {
        fill: #000;
        stroke-width: 0px;
      }
    </style>
  </defs>
  <path class="cls-1" d="M157.34,70.32c-2.63-2.79-6.18-4.36-9.94-5.12,2.14-3.83,3.3-8.12,2.54-12.57-1.47-8.62-10.62-14.19-18.95-12.17-7.35,1.78-13.77,8.18-18.52,13.74-1.61,1.89-3.12,3.85-4.61,5.83-.02-1.77-.09-3.55-.24-5.32-.53-6.26-1.1-13.13-3.59-18.98-2.21-5.18-6.35-9.81-12.3-10.18-5.72-.35-10.67,3.61-13.1,8.51-1.49,3.01-2.38,6.2-3.07,9.44-2.21-1.5-4.6-2.73-7.08-3.52-6.88-2.22-13.97.76-17.87,6.73-3.67,5.61-3.34,12.95-.83,18.92,2.43,5.78,6.96,10.17,11.72,14.1,3.03,2.5,6.2,4.83,9.45,7.06-2.17.15-4.34.34-6.51.62-6.98.88-14.72,1.72-20.03,6.82-4.58,4.4-7.07,11.35-4.77,17.49,1.99,5.31,6.31,9.19,11.98,10.1,2.34.38,4.7.34,7.02,0-1.14,4.03-1.35,8.17.62,11.95,3.11,5.99,9.99,8.08,15.97,5.35,4.05-1.85,7.32-5.21,10.21-8.68-1.48,4.13-3.1,7.69-5.74,11.88-2.81,4.46-6.13,8.23-10.43,11.82-5.64,4.7-12.55,8.11-19.52,10.53-2.53.88-4.2,3.39-3.46,6.1.67,2.45,3.56,4.34,6.1,3.46,13.43-4.67,25.37-12.23,33.79-23.83,3.71-5.1,6.43-10.78,8.57-16.68,1.93,5.79,5.58,11.28,9.96,15.36,5.43,5.05,12.89,7.87,19.91,4.22,5.55-2.89,8.09-9.42,7.87-15.43-.11-3.13-.99-5.95-2.1-8.84.44.16.88.32,1.32.46,5.71,1.82,12.59,2.02,16.89-2.84,4.33-4.89,4.42-11.41.51-16.51-3.08-4.01-7.46-6.91-11.96-9.27,7.38-1.67,15.22-4.38,20.14-10.42,4.88-5.99,5.56-14.29.03-20.14ZM151.38,81.01c-.42,2.21-2.35,4.14-4.1,5.42-4.55,3.34-10.95,4.77-16.44,5.62-5.85.91-11.88.49-17.74,0-5.6-.47-6.68,8.41-1.32,9.74,4.84,1.19,9.61,2.78,14.2,4.7,2.26.95,4.6,2.07,6.79,3.26,1.14.62,2.26,1.28,3.35,1.98.99.63,2.08,1.4,2.57,1.82.82.69,1.58,1.44,2.31,2.22.1.11.19.22.29.34.02.03.01.02.04.06.2.3.37.62.55.93.03.1.22.53.29.77,0,.02.01.03.02.02,0,.04,0,.07-.01.13,0,.09-.01.15-.02.21-.18.5-.18.56-.47,1.16-.32.66-.31.48-.4.61-.1.13-.24.25-.38.37-.06.03-.12.07-.21.11-.1.05-.16.09-.2.12-.05.01-.12.03-.22.05-.21.06-.41.1-.62.15-.02,0-.02,0-.05,0-.55.02-1.09.01-1.64-.01-.17,0-.25,0-.3,0-.04-.01-.13-.04-.33-.08-1.18-.24-2.33-.55-3.47-.94-2.33-.78-3.52-1.37-5.94-2.54-1.82-.88-3.68-1.91-5.64-2.45-4.43-1.24-7.39,3.53-5.6,7.28,1.56,3.27,3.02,6.6,4.31,9.99.48,1.26.99,2.53,1.31,3.84.04.14.18,1.1.22,1.26.05.58.08,1.16.06,1.74-.04,1.51,0,1.28-.44,2.73-.29.97-.68,1.65-1.21,2.2-.4.42-1.22.94-1.99,1.13-1.23.29-2.18.25-3.49-.3-5.18-2.15-9.49-8.61-11.21-13.74-2.47-7.34-1.68-15.59-1.93-23.21-.14-4.14-5.41-6.74-8.46-3.5-7.3,7.73-12.47,17.54-20.57,24.51-.2.17-.41.34-.62.51.25-.2.25-.21-.02-.01-.4.27-.8.54-1.22.77-.09.05-.59.28-.83.39-.17.04-.44.12-.63.17-.1,0-.2,0-.3,0-.09-.02-.19-.05-.28-.08-.13-.07-.27-.14-.4-.23-.32-.28.1.32-.57-.45-.57-.66-.65-1.16-.7-1.67-.12-1.15.13-2.24.43-3.34.86-3.21,2.38-6.16,3.9-9.1,2.18-4.22-2.36-9.51-6.78-6.78-2.19,1.35-4.28,2.32-6.79,2.93-1.79.44-4.16.6-5.54.2-1.21-.35-1.23-.21-2.37-1.08.44.33-.25-.31-.49-.53-.05-.09-.55-.76-.61-.87-.94-1.66-1.1-3.32-.25-5.25,2.52-5.72,9.77-6.23,15.18-6.94,7.7-1.01,15.51-1.04,23.26-1.29,4.68-.15,7.05-6.87,2.5-9.24-7.39-3.86-14.59-8.33-21.07-13.6-2.55-2.08-5.05-4.27-7.25-6.74-.09-.11-.85-1.04-.93-1.11-.37-.51-.71-1.03-1.03-1.57-.73-1.23-1.23-2.37-1.61-3.74-1.1-3.95-.42-10.19,4.82-10.96-.06.04,1,.02,1.12.03-.11-.01,1.28.31,1.64.43,1.35.45,2.69,1.23,3.93,2.04,1.09.71,1.83,1.31,2.78,2.18.5.46.98.93,1.44,1.43.19.21,1.3,1.66.47.51.09.13.2.24.3.36.6.89,1.49,1.6,2.66,1.92.38.1.77.14,1.17.14.87.05,1.78-.13,2.64-.64.11-.07.21-.16.32-.24.97-.63,1.73-1.56,1.96-2.73.06-.29.11-.6.17-.9,0-.05.02-.1.03-.15.88-4.81,1.49-10.35,3.47-14.39.46-.94.95-1.76,1.33-2.18.68-.76.94-1.02,1.69-1.26.71-.23,1.11-.24,1.56-.09-.14,0,.8.58.81.52.35.31.69.65.98,1.01.89,1.11,1.65,2.82,2.11,4.53.88,3.22,1.33,6.65,1.73,9.96.98,8.11.76,16.17-1.2,24.12-1.12,4.55,4.86,8.71,8.28,4.82,4.52-5.13,8.34-10.76,12.49-16.18,3.46-4.51,7.94-9.33,12.26-12.2,1.84-1.22,4.17-2.64,6.49-2.2,2.1.41,3.94,2.34,4.45,4.16,1.16,4.12-3.05,9.22-6.25,12.24-2.89,2.72-.86,9,3.5,8.46,4.23-.52,10.07-.62,12.93,2.55.74.83,1.34,2.1,1.05,3.68Z"/>
</svg>