<?xml version="1.0" encoding="UTF-8"?>
<svg width="32" height="32" viewBox="0 0 200 200" xmlns="http://www.w3.org/2000/svg">
  <defs>
    <style>
      .cls-1 {
        fill: #000;
        stroke-width: 0px;
      }
    </style>
  </defs>
  <path class="cls-1" d="M83.69,113.87c-7.14,9.39-19.38,16.9-31.55,15.15-10.55-1.51-20.76-10.38-20.36-21.62.35-9.72,9.35-17.57,18.46-20.58,11.84-3.91,23.79,0,33.87,6.73,11.23,7.48,19.24,18.16,28.29,27.93,8.85,9.56,20.25,18.57,34.07,16.69,12-1.64,22.38-10.32,27.61-21.05,5.44-11.16,5.56-24.08-1.12-34.77-6.64-10.61-18.87-18.37-31.08-20.79-12.23-2.42-24.88,2.17-33.36,11.19-2.31,2.46-4.33,5.23-6.01,8.15-3.2,5.54,5.37,10.53,8.56,5,5.5-9.53,15.77-16.32,26.97-14.98,10.56,1.26,22.17,8.6,27.35,18.13,5.08,9.35,2.96,20.54-3.36,28.82-6.49,8.49-17.75,13.66-27.91,8.61-11.52-5.72-18.89-17.37-27.51-26.45-9.52-10.03-20.88-19.14-34.38-23-11.93-3.41-24.87-1.68-35.21,5.34-10.07,6.84-16.63,17.85-14.78,30.25s13.31,22.84,25.52,25.62c13.59,3.1,27.5-2.42,37.54-11.55,2.6-2.36,4.83-5.02,6.95-7.81,1.62-2.13.34-5.55-1.78-6.78-2.55-1.49-5.16-.36-6.78,1.78h0Z"/>
</svg>