<svg width="32" height="32" viewBox="0 0 32 32" fill="none" xmlns="http://www.w3.org/2000/svg">
<path d="M16 25.0003C18 25.0003 21.3125 24.9753 25.1125 22.7753C28.9125 20.5753 30.15 17.8378 30.5375 16.4253C30.5732 16.2981 30.583 16.165 30.5663 16.0339C30.5496 15.9028 30.5067 15.7764 30.4403 15.6621C30.3739 15.5479 30.2852 15.4482 30.1795 15.3688C30.0738 15.2895 29.9532 15.2322 29.825 15.2003C28.9125 14.9628 27.3125 14.7503 25.2625 15.2378" stroke="black" stroke-width="2" stroke-linecap="round" stroke-linejoin="round"/>
<path d="M6.73747 15.2246C4.68747 14.7496 3.08747 14.9621 2.17497 15.1996C2.04673 15.2315 1.92619 15.2888 1.8205 15.3681C1.7148 15.4474 1.62611 15.5472 1.55967 15.6614C1.49323 15.7756 1.45039 15.902 1.43369 16.0331C1.417 16.1642 1.42678 16.2973 1.46247 16.4246C1.84997 17.8371 3.08747 20.5871 6.88747 22.7746C10.6875 24.9621 14 24.9996 16 24.9996" stroke="black" stroke-width="2" stroke-linecap="round" stroke-linejoin="round"/>
<path d="M16 25.0001C16 25.0001 21 22.2751 21 15.0001C21 9.30005 17.925 6.40005 16.6 5.40005C16.4261 5.27213 16.2159 5.20313 16 5.20312C15.7841 5.20313 15.5739 5.27213 15.4 5.40005C14.075 6.40005 11 9.30005 11 15.0001C11 22.2751 16 25.0001 16 25.0001Z" stroke="black" stroke-width="2" stroke-linecap="round" stroke-linejoin="round"/>
<path d="M16 25C17.5 24.675 21.5375 22.4 23.9625 18.2C26.3875 14 25.7875 10.6625 25.3125 9.19998C25.2399 8.96477 25.0809 8.76574 24.8676 8.64286C24.6543 8.51998 24.4024 8.48233 24.1625 8.53748C22.7273 8.85891 21.3847 9.50456 20.2375 10.425" stroke="black" stroke-width="2" stroke-linecap="round" stroke-linejoin="round"/>
<path d="M11.7645 10.425C10.6173 9.50456 9.27467 8.85891 7.83945 8.53748C7.59954 8.48233 7.34764 8.51998 7.13433 8.64286C6.92103 8.76574 6.7621 8.96477 6.68945 9.19998C6.21445 10.6625 5.61445 14.0125 8.03945 18.2C10.4645 22.3875 14.502 24.675 16.002 25" stroke="black" stroke-width="2" stroke-linecap="round" stroke-linejoin="round"/>
</svg>
