<?xml version="1.0" encoding="UTF-8"?>
<svg id="Layer_2" data-name="Layer 2" xmlns="http://www.w3.org/2000/svg" viewBox="0 0 200 200">
  <defs>
    <style>
      .cls-1 {
        fill: #000;
        stroke-width: 0px;
      }
    </style>
  </defs>
  <path class="cls-1" d="M151.5,152.79c-.65-20.1-2.01-40.22-4.4-60.18-2.11-17.6-4.95-36.66-14.7-51.89-8.14-12.72-21.88-21.27-37.32-19.45-7.97.94-15.75,4.16-22.91,7.69-5.3,2.61-10.59,5.91-14.55,10.36-6.37,7.17-7.87,15.99-7.3,25.3.27,4.43.79,8.83.95,13.27.08,2.37.07,4.75-.09,7.11-.04.64-.1,1.27-.16,1.9-.03.32-.07.64-.11.96,0,.05-.01.08-.02.14-.36,2.63-.74,5.26-1.04,7.9-2.29,20.2-1.49,40.61-.14,60.85.33,4.96.7,9.91,1.07,14.86.14,1.87,1.14,3.53,2.69,4.37.06.04.12.07.19.11.08.04.17.08.26.12,1.25.59,2.76.63,4.32-.31,3.14-1.9,6.32-3.51,9.81-4.63,3.2-1.03,7.35-3.05,10.56-1.53,5.2,2.46,9.78,6.01,14.9,8.55,4.15,2.06,9.17-.97,13.08-2.5,4.59-1.79,9.16-3.6,13.79-5.28.02,0,.12-.03.24-.06.13.01.3.03.52.05,2.37.21,4.75.38,7.13.49,3.2.15,6.47.45,9.68.44,4.45,0,8.57-2.17,11.16-5.75,2.82-3.89,2.54-8.31,2.39-12.88ZM50.92,87.85c.03-.21.1-.76,0,0h0ZM95.51,169.33s.04-.07.11-.09c-.07.04-.11.07-.11.09ZM98.24,169.53c.25.04.17.05,0,0h0ZM120.87,170.38c.14-.04.27-.08.28-.1-.02.05-.14.08-.28.1ZM139.29,161.29c-1.15.42-2.44.14-3.63.07-1.63-.1-3.26-.14-4.9-.2-3.55-.13-7.21-.74-10.74-.67-1.71.04-3.42.83-4.99,1.42-2.34.88-4.66,1.8-6.99,2.71-.73.29-8.17,2.87-11.22,4.09-.43-.26-.85-.53-1.28-.8-2.62-1.66-5.29-3.26-8.02-4.73-4.02-2.17-7.99-4.41-12.71-3.89-3.76.42-7.7,1.75-11.26,3.04-1.16.42-2.3.9-3.42,1.4-1.2-16.56-2.18-33.17-1.63-49.78.3-8.94,1.42-17.7,2.4-26.58.5-4.54.39-9.11.07-13.66-.3-4.14-.79-8.28-.86-12.44-.02-.89-.01-1.78.02-2.67.02-.44.04-.88.07-1.31.01-.17.09-.88.11-1.19.04-.25.1-.66.13-.79.08-.42.17-.84.27-1.26.23-.96.54-1.89.86-2.82.03-.09.05-.15.07-.21.02-.04.05-.08.09-.17.2-.4.39-.8.61-1.2.22-.4.45-.8.7-1.18.13-.2.62-.92.77-1.15.14-.17.56-.69.69-.84.34-.39.7-.77,1.06-1.14.89-.91,1.85-1.77,2.85-2.57,1.36-1.09,4.49-3.03,6.7-4.2,3.1-1.65,6.32-3.06,9.61-4.3,6.04-2.28,12.19-4.06,18.34-3.12,6.08.93,11.45,3.91,15.79,8.28,11.27,11.36,14.77,29.13,17.14,44.33,2.91,18.62,4.18,37.61,5.1,56.42.24,4.85.43,9.69.57,14.54.08,2.54.54,5.5-2.36,6.56Z"/>
  <path class="cls-1" d="M110.95,46.52c-.31-.58-.74-1.04-1.28-1.39-.48-.44-1.04-.73-1.69-.89-.66-.21-1.32-.24-1.98-.09-.66.03-1.27.23-1.84.59-1.06.68-1.99,1.7-2.28,2.96-.06.44-.12.88-.18,1.32,0,.89.23,1.73.68,2.5,1.66,2.18,3.31,4.36,4.97,6.54.31.58.74,1.04,1.28,1.39.48.44,1.04.73,1.69.89.66.21,1.32.24,1.98.09.66-.03,1.27-.23,1.84-.59,1.06-.68,1.99-1.7,2.28-2.96.06-.44.12-.88.18-1.32,0-.89-.23-1.73-.68-2.5-1.66-2.18-3.31-4.36-4.97-6.54Z"/>
  <path class="cls-1" d="M87.25,57.59c.58-.31,1.04-.74,1.39-1.28.44-.48.73-1.04.89-1.69.21-.66.24-1.32.09-1.98-.03-.66-.23-1.27-.59-1.84-.68-1.06-1.7-1.99-2.96-2.28-.44-.06-.88-.12-1.32-.18-.89,0-1.73.23-2.5.68-2.9,1.46-5.54,3.27-8.09,5.27-.48.45-.83.98-1.02,1.6-.31.59-.45,1.23-.43,1.91,0,1.22.54,2.67,1.45,3.5.94.87,2.18,1.51,3.5,1.45.44-.06.88-.12,1.32-.18.56-.16,1.05-.43,1.5-.75,2.12-1.63,4.38-3.05,6.77-4.25Z"/>
  <path class="cls-1" d="M90.94,79.32c-.03.14-.05.28-.08.41,0,0,0,0,0,0,.09-.43.1-.49.08-.41Z"/>
  <path class="cls-1" d="M102.6,69.02c-1.59-2.81-4.37-4.6-7.53-5.1-.02,0-.03,0-.05,0-.4-.11-.82-.18-1.27-.17-3.88.07-7.02,1.79-9.22,4.96-2.06,2.98-3.02,6.61-3.47,10.16-.45,3.53-.6,7.6.59,11,1.42,4.05,4.28,7.24,8.39,8.66,3.97,1.38,8.19.67,11.39-2.02,1.04-.88,1.96-1.94,2.67-3.1,2.62-4.23,2.16-9.58,1.44-14.26-.53-3.38-1.23-7.11-2.94-10.12ZM90.79,85.65c.2.78.02.28,0,0h0ZM91.1,86.89c-.04-.11-.05-.14,0,0h0ZM92.21,88.67c-.21-.12-.14-.08,0,0h0ZM94.57,89.35s0,0,0,0c-.14.05-.27.08-.31.03-.02-.02.17-.02.31-.03,0,0,0,0,0,0,0,0,0,0,0,0ZM94.41,89.49s-.06.05-.08.08c.02-.02.05-.05.08-.08ZM94.71,89.29c.08-.05.14-.09.18-.11.26-.13.07,0-.18.11ZM96.13,86.72c-.01.27-.1.36-.1.17-.07.36-.14.72-.24,1.06-.05.11-.11.21-.17.32-.05.08-.1.16-.16.24.11-.14.21-.26.26-.3,0,0,0,.01,0,.02-.03.04-.1.12-.24.27,0,0-.01.01-.02.02-.07.1-.15.2-.2.3.05-.1.12-.2.2-.3-.23.25-.48.48-.73.71-.03.03-.07.05-.1.08-.05,0-.11,0-.2-.01-.12,0-.25,0-.37-.01-.13,0-.4-.03-.56-.07-.13-.03-.44-.14-.57-.17-.14-.08-.29-.15-.43-.23-.05-.03-.08-.04-.12-.06-.13-.13-.27-.28-.41-.39-.06-.05-.09-.07-.13-.1-.01-.03-.02-.04-.04-.07-.17-.28-.35-.55-.5-.84-.04-.07-.08-.18-.12-.28-.14-.48-.25-.96-.38-1.44,0,0,0-.01,0-.02-.02-.36-.05-.72-.07-1.08-.03-.76-.04-1.52-.02-2.27.02-.84.08-1.67.16-2.5,0,0,0-.02,0-.03,0,0,0,0,0,0,0,0,0,0,0,0,.01-.12.06-.33.08-.41.05-.3.11-.6.17-.9.16-.71.38-1.4.59-2.1.02-.07.08-.21.12-.32.1-.21.19-.43.3-.63.21-.43.46-.83.7-1.24.11-.11.25-.28.35-.41.07-.02.14-.03.21-.06.09.02.19.03.28.06.05.01.13.05.21.08.02.03.05.07.07.09.04.08.08.17.12.25,0-.09.09-.02.16.22.02.06.04.12.06.17.04.06.07.14.11.19-.05-.06-.06-.09-.09-.14.04.13.09.26.13.39.42,1.3.73,2.64,1.01,3.98.13.59.24,1.18.35,1.78.06.34.12.69.17,1.03.01.09.05.38.07.52.01.12.02.22.02.24.02.23.04.46.06.69.04.53.07,1.06.07,1.58,0,.42,0,.84-.02,1.26,0,.09-.01.18-.02.27.02-.08.03-.13.07-.23-.03.09-.04.19-.07.29,0,.11-.02.21-.02.32Z"/>
  <path class="cls-1" d="M95.45,88.52s0,0,0-.01c0,0,0,0,0,.01h0Z"/>
  <path class="cls-1" d="M94.29,74.56c-.08-.13-.16-.25-.22-.4,0,.06.08.22.24.45,0-.02-.01-.03-.02-.05Z"/>
  <path class="cls-1" d="M96.03,86.89c.03-.17.08-.33.12-.49,0-.02,0-.04,0-.06-.08.27-.12.45-.12.55Z"/>
</svg>