<?xml version="1.0" encoding="UTF-8"?>
<svg id="Layer_2" data-name="Layer 2" xmlns="http://www.w3.org/2000/svg" viewBox="0 0 200 200">
  <defs>
    <style>
      .cls-1 {
        fill: #000;
        stroke-width: 0px;
      }
    </style>
  </defs>
  <path class="cls-1" d="M113.41,24.47c-18.52,24.95-37.05,49.89-55.57,74.84-2.02,2.72.23,6.38,2.96,7.28,8.83,2.92,17.66,5.84,26.5,8.75-1.15-2.03-2.31-4.06-3.46-6.1-1.58,3.99-3.82,8.78-5.96,13.33-2.67,5.69-5.39,11.35-8.04,17.06-4.76,10.27-10.01,20.88-12.5,31.99-1.02,4.52,4.81,8.75,8.28,4.82,20.7-23.37,41.28-46.85,61.23-70.86,4.97-5.98,9.9-12.01,14.72-18.11,2.46-3.11,1.48-6.8-2.19-8.28-10.41-4.23-20.84-8.39-31.31-12.46,1.15,2.03,2.31,4.06,3.46,6.1,4.47-15.13,9.31-30.11,11.1-45.85.3-2.66-2.5-4.96-4.96-4.96-2.93,0-4.65,2.29-4.96,4.96-1.69,14.79-6.55,29.01-10.75,43.22-.82,2.76,1,5.14,3.46,6.1,10.47,4.07,20.9,8.23,31.31,12.46-.73-2.76-1.46-5.52-2.19-8.28-18.99,24.03-39.18,47.13-59.37,70.16-5.51,6.29-11.04,12.56-16.58,18.81,2.76,1.61,5.52,3.22,8.28,4.82,2.41-10.75,7.48-20.98,12.11-30.92,4.86-10.44,10.13-20.74,14.39-31.46,1.02-2.58-1.15-5.33-3.46-6.1-8.83-2.92-17.66-5.84-26.5-8.75.99,2.43,1.97,4.85,2.96,7.28,18.52-24.95,37.05-49.89,55.57-74.84,1.6-2.15.35-5.53-1.78-6.78-2.52-1.48-5.18-.38-6.78,1.78h0Z"/>
</svg>