<?xml version="1.0" encoding="UTF-8"?>
<svg width="32" height="32" viewBox="0 0 200 200" xmlns="http://www.w3.org/2000/svg">
  <defs>
    <style>
      .cls-1 {
        fill: #000;
        opacity: .94;
        stroke-width: 0px;
      }
    </style>
  </defs>
  <path class="cls-1" d="M171.29,93.59c-7.05-.46-14.52-.65-21.66.39,0-.06,0-.12.01-.18.45-9.24-.96-18.6-3.48-27.48-.67-2.37-3.58-4.46-6.1-3.46-7.41,2.94-13.32,8.19-17.94,14.5-.31-.79-.61-1.57-.93-2.35-4.07-9.71-9.76-18.8-17.25-26.24-.91-.91-1.93-1.33-2.93-1.41-1.08-.18-2.18-.03-3.08.64-9.26,6.94-16.38,16.79-21.03,27.6-4.34-5.71-9.87-9.96-16.97-12.73-2.51-.98-5.43,1.09-6.1,3.46-2.52,8.87-3.92,18.34-3.47,27.65-7.13-1.04-14.61-.85-21.66-.39-2.63.17-5.01,2.13-4.96,4.96.13,6.63,3.12,13.06,6.16,18.82,2.45,4.64,5.2,9.24,8.56,13.28,8.52,10.22,20.96,16.34,33.76,19.26,9.09,2.07,18.47,2.77,27.77,2.8,15.3-.04,31.12-1.87,44.91-8.94,10.62-5.44,18.21-13.91,23.97-24.17,3.57-6.35,7.23-13.61,7.37-21.05.05-2.81-2.32-4.79-4.96-4.96ZM126.01,89.86c2.89-5.49,6.88-11.2,12.09-14.87,2.49,11.69,2.68,24.12-1.87,35.3-3.61,8.89-9.47,18.23-16.95,24.49,1.24-2.58,2.32-5.24,3.3-7.9,2.69-7.33,4.56-15.21,4.75-23.04.11-4.65-.42-9.31-1.39-13.88.02-.04.05-.06.06-.1ZM97.65,142.31c-.45-.15-.21-.08,0,0h0ZM102.55,141.58c.15-.11.38-.27.03-.02-.01,0-.02.01-.03.02ZM99.98,59.06c9.18,10.46,15.55,24.31,17.11,38,1.46,12.84-2.42,26.68-9.11,37.76-1.55,2.57-2.68,4.14-4.85,6.22-.21.2-.43.39-.65.57-.43.3-.87.56-1.31.83-.11.07-.18.12-.23.16-.04,0-.08.01-.16.03-.15.04-.31.08-.47.13-.08,0-.17.02-.25.03-.05,0-.1,0-.15,0-.32-.03-.63-.08-.95-.11-.37-.09-.74-.18-1.1-.3-.05-.02-.09-.03-.13-.04-.26-.12-.53-.25-.78-.4-.53-.3-1.04-.62-1.54-.98-.03-.05-.85-.71-1.05-.9-.53-.49-1.03-1-1.52-1.53-1.04-1.14-1.59-1.87-2.42-3.1-7.2-10.68-10.9-24.55-9.55-37.24.85-7.98,3.61-15.93,7.3-23.02,3.05-5.84,6.9-11.58,11.81-16.1ZM72.53,87.19c.09.17.2.3.3.46-.34,1.35-.65,2.7-.91,4.05-2.54,13.16-.59,27.01,4.84,39.27-1.31-1.4-2.54-2.89-3.69-4.47-7.22-9.96-12.39-21.1-12.84-33.54-.22-6.13.42-12.19,1.7-18.15,4.53,2.96,7.89,7.24,10.59,12.37ZM47.42,125.82c-.75-.8-1.45-1.63-2.16-2.47.38.42-.79-1.05-1.07-1.47-1.44-2.1-2.78-4.27-4.05-6.48-1.59-2.77-3.11-5.63-4.33-8.59-.48-1.18-.9-2.39-1.26-3.61,5.73-.22,11.6-.09,17.13,1.09.71,3.33,1.68,6.61,3,9.79,3.82,9.22,9.39,18.32,16.63,25.43-3.68-1.02-7.27-2.31-10.67-4.01-5.12-2.55-9.34-5.56-13.22-9.67ZM161.08,113.21c-1.32,2.44-2.74,4.84-4.26,7.16-.54.83-1.1,1.64-1.67,2.45-.09.12-.18.25-.27.37.4-.55-.5.62-.74.89-6.7,7.8-15.56,12.57-25.38,15.34,2.06-2.07,3.99-4.28,5.77-6.63,6.47-8.55,11.35-18.15,13.68-28.49,5.57-1.2,11.48-1.33,17.26-1.11-.25.82-.52,1.63-.82,2.44-.97,2.62-2.24,5.13-3.57,7.58Z"/>
</svg>