<?xml version="1.0" encoding="UTF-8"?>
<svg width="32" height="32" viewBox="0 0 200 200" xmlns="http://www.w3.org/2000/svg">
  <defs>
    <style>
      .cls-1 {
        fill: #000;
        stroke-width: 0px;
      }
    </style>
  </defs>
  <path class="cls-1" d="M153.32,67.96c-4.33-4.75-9.59-9.24-15.73-11.37-3.5-1.21-7.37-1.96-11.19-1.94,2.05-2.74,5.05-4.75,8.16-4.99,5.62-.44,12.06,2.09,15.63,6.43,3.55,4.32,10.94-1.36,7.78-6.01-8.61-12.66-23.79-28.44-40.79-22.66-7.83,2.66-14.24,8.82-17.91,16.17-2.59,5.19-4.02,10.7-4.99,16.33-1.93-1.91-4.02-3.64-6.47-4.92-6.35-3.32-13.64-3.71-20.46-1.62-14.85,4.55-23.49,17.7-31.04,30.34-2.99,5.02,3.66,9.61,7.78,6.01,8.52-7.45,19.25-10.56,29.96-9.06-4.24,4.44-7.94,9.52-10.32,15.01-3.79,8.75-3.73,18.32-2.92,27.64.39,4.55,6.75,7.19,9.24,2.5,3.96-7.46,9.03-16.01,15.78-22.01-4.59,12.16-6.89,25.23-7.91,38.1-.51,6.43-.68,12.91-.38,19.36.16,3.28-.2,8.44,2.34,10.98,1.95,1.95,4.99,1.5,7.5,1.51,2.78.01,5.57,0,8.35-.03,5.43-.04,10.86-.11,16.29-.01,3.37.06,5.44-3.2,4.78-6.27-2.54-11.78-5.36-23.7-5.6-35.81-.17-8.75,1.18-17.36,3.05-25.86,1.51,2.98,2.57,5.73,3.71,9.14,1.34,3.99,2.46,8.08,3.25,12.21.18.94.34,1.88.47,2.83,0,.16.14,1.35.16,1.61.06.8.1,1.6.08,2.39,0,.35-.06.7-.05,1.05,0,.02,0,.02,0,.04-.69,4.53,4.64,8.47,8.3,4.68,13.68-14.17,9.8-35.17,2.43-52.33,2.81,1.36,5.5,2.97,8.03,4.8,2.62,1.9,5.16,4.23,7.1,6.82,1.68,2.24,3.18,5.2,3.47,7.46.61,4.68,6.39,7,9.24,2.5,8.3-13.12,2.64-30.32-7.11-41.02ZM88.04,167.19s-.09-.31-.09-.34c0-.03-.01-.07-.01-.11.1.21.16.38.11.45ZM124.16,74.02c-4.2-.87-7.78,3.36-5.6,7.28,4.78,8.62,8.65,17.92,10.22,27.7.46,2.85.65,5.79.47,8.68-.61-2.05-1.27-4.06-1.92-5.96-1.55-4.55-3.36-9.11-5.75-13.28-1.71-2.98-4.02-6.53-7.28-7.99-.97-.43-2-.62-2.99-.55-1.89.06-3.68,1.12-4.29,3.51-3.16,12.48-5.98,25.29-5.72,38.23.21,10.82,2.32,21.54,4.59,32.13-2.72,0-5.44.02-8.16.04-2.47.02-4.95.04-7.42.04-.89,0-1.79,0-2.68,0-.02-.26-.04-.52-.06-.78-.27-4.15-.3-8.32-.18-12.47.32-11.93,1.87-23.85,5.13-35.35,1.99-7.03,4.68-13.78,8.35-20.1.24-.35.43-.73.56-1.13.85-1.98.25-3.82-1.01-5.08-1.03-1.26-2.63-2.01-4.64-1.59-.03,0-.05,0-.08.01-.06.01-.11.01-.17.03-10.22,2.61-18.26,9.89-24.65,18.4.37-1.97.92-3.9,1.72-5.76,3.1-7.22,8.97-13.49,15.01-18.37,3.2-2.59.9-7.09-2.19-8.28-9.65-3.72-19.79-3.9-29.2-1.17,3.61-3.98,7.83-7.27,13.04-9.01,4.94-1.66,10.03-1.74,14.61.96,3.57,2.11,6.68,6.28,9.64,9.83.14.2.3.38.47.56.08.1.16.2.25.29.79.92,1.93,1.35,3.12,1.41.13.01.26.04.39.04,1.09,0,2-.32,2.75-.85,0,0,.01,0,.02,0,.01-.01.03-.02.04-.03.25-.17.49-.35.7-.56.91-.91,1.34-2.02,1.39-3.15.02-.12.05-.23.06-.36,1.35-12.15,3.48-29.7,17.15-34.35,5.37-1.83,10.56-.28,15.2,2.78-1.02.04-2.02.13-2.99.29-10.2,1.68-17.3,11.23-18.15,21.11-.35,4.01,4.4,5.83,7.46,4.28,3.99-2.02,9.96-.67,13.93.82,3.83,1.44,8.02,5.38,11.05,8.71,3.91,4.29,7.14,10.31,7.98,16.43-7.39-9.06-19.4-15.16-30.14-17.39Z"/>
</svg>