<svg width="32" height="32" viewBox="0 0 32 32" fill="none" xmlns="http://www.w3.org/2000/svg">
<path d="M11.8359 3.38779C13.4471 2.83265 15.2118 2.93241 16.7501 3.66559C18.2884 4.39878 19.4772 5.70675 20.0607 7.30786C20.6441 8.90898 20.5754 10.6752 19.8694 12.2261C19.1634 13.7771 17.8765 14.9888 16.2859 15.6003L11.8359 3.38779Z" stroke="black" stroke-width="2" stroke-linecap="round" stroke-linejoin="round"/>
<path d="M3.38584 18.1624C2.83069 16.5513 2.93045 14.7866 3.66364 13.2483C4.39683 11.71 5.7048 10.5211 7.30591 9.93773C8.90702 9.35431 10.6732 9.423 12.2242 10.129C13.7752 10.835 14.9868 12.1218 15.5983 13.7124L3.38584 18.1624Z" stroke="black" stroke-width="2" stroke-linecap="round" stroke-linejoin="round"/>
<path d="M18.1644 26.6129C16.5533 27.168 14.7886 27.0683 13.2503 26.3351C11.7119 25.6019 10.5231 24.2939 9.93968 22.6928C9.35627 21.0917 9.42495 19.3255 10.131 17.7745C10.837 16.2236 12.1238 15.0119 13.7144 14.4004L18.1644 26.6129Z" stroke="black" stroke-width="2" stroke-linecap="round" stroke-linejoin="round"/>
<path d="M26.6109 11.8379C27.1661 13.449 27.0663 15.2137 26.3331 16.752C25.6 18.2903 24.292 19.4792 22.6909 20.0626C21.0898 20.646 19.3236 20.5773 17.7726 19.8713C16.2216 19.1653 15.0099 17.8785 14.3984 16.2879L26.6109 11.8379Z" stroke="black" stroke-width="2" stroke-linecap="round" stroke-linejoin="round"/>
<path d="M20.5625 20.5625L28 28" stroke="black" stroke-width="2" stroke-linecap="round" stroke-linejoin="round"/>
</svg>
