<?xml version="1.0" encoding="UTF-8"?>
<svg width="32" height="32" viewBox="0 0 200 200" xmlns="http://www.w3.org/2000/svg">
  <defs>
    <style>
      .cls-1 {
        fill: #000;
        stroke-width: 0px;
      }
    </style>
  </defs>
  <path class="cls-1" d="M170.48,64.12c-.84-4.54-3.81-8.39-7.72-10.76-8.09-4.91-18.47-2.76-26.79.3-.34.13-.66.28-.97.46-1.79-1.33-3.64-2.58-5.66-3.64-12.12-6.38-25.91-7.49-39.29-5.63-21.08,4.42-40.58,18.44-45.54,40.32-1.72,7.58-1.75,15.38-.36,22.9-5.26,5.05-9.68,11.4-12.82,17.92-4.37,9.07-2.17,20.02,7.92,23.83,7.68,2.89,17.39,1.08,25.19-.46,2.26-.45,4.5-.97,6.73-1.55,9.03,5.42,19.73,8.29,30.22,8.16,11.9-.14,22.89-4.35,32.34-11.48,9.69-7.31,18.19-17.24,21.29-29.22,1.56-6.05,2-12.49,1.52-18.87,4.72-5.28,8.78-11.06,11.55-17.44,2.07-4.76,3.35-9.64,2.39-14.84ZM53.2,93.33c.82-9.87,5.28-18.97,12.46-25.75,7.45-7.04,17.11-11.09,27.03-13.17,9.67-1.35,20.15-.59,29.16,3.41,8.82,3.92,15.17,10.62,19.44,19.2,2.49,5.01,4.08,10.43,4.88,15.98-4.06,4.1-8.48,7.85-12.74,11.31-12.04,9.75-25.47,17.98-39.47,24.58-6.71,3.16-13.76,6.03-20.99,8.22-13.57-9.92-21.16-26.86-19.76-43.77ZM41.16,139.82c-2.77-1.87-2.59-5.67-1.44-8.47,1.75-4.26,4.45-8.45,7.58-12.15,3.06,7.78,7.74,14.9,13.74,20.77-2.98.53-5.97.95-8.97,1.16-3.41.24-7.91.72-10.91-1.31ZM133.09,132.15c-7.2,6.82-16.06,12.03-25.96,13.49-7.36,1.08-15.11.21-22.19-2.27,1.49-.56,2.98-1.12,4.46-1.73,17.02-6.98,32.99-16.3,47.53-27.56,3.2-2.48,6.44-5.1,9.6-7.87,0,.07,0,.15-.01.22-.93,10.17-6.11,18.78-13.43,25.72ZM159.37,74.32c-1.34,3.21-3.09,6.25-5.12,9.14-.36-1.28-.75-2.54-1.18-3.78-2.31-6.55-5.66-12.69-10.04-17.94,2.22-.66,4.47-1.17,6.76-1.32,1.2-.07,3.23-.03,3.78.06.61.09,1.22.24,1.81.41.25.07,1.2.44,1.28.45.51.25,1,.53,1.48.83.02.01.14.09.24.16.14.11.32.26.36.3,1.04,1,1.74,2.03,2.04,3.46.58,2.79-.33,5.64-1.41,8.24Z"/>
</svg>