<svg width="32" height="32" viewBox="0 0 32 32" fill="none" xmlns="http://www.w3.org/2000/svg">
<path d="M11.7625 23.0748C10.3375 27.3123 4.6875 27.3123 4.6875 27.3123C4.6875 27.3123 4.6875 21.6623 8.925 20.2373" stroke="black" stroke-width="2" stroke-linecap="round" stroke-linejoin="round"/>
<path d="M24.4859 13.1753L15.9984 21.6628L10.3359 16.0003L18.8234 7.51284C22.0359 4.30034 25.2484 4.33784 26.6234 4.53784C26.8356 4.56615 27.0326 4.66349 27.1839 4.81485C27.3353 4.96621 27.4326 5.16317 27.4609 5.37534C27.6609 6.75034 27.6984 9.96284 24.4859 13.1753Z" stroke="black" stroke-width="2" stroke-linecap="round" stroke-linejoin="round"/>
<path d="M23.075 14.5879V22.6629C23.0712 22.9267 22.9634 23.1783 22.775 23.3629L18.7375 27.4129C18.6094 27.5408 18.449 27.6316 18.2733 27.6755C18.0977 27.7194 17.9134 27.7148 17.7402 27.6622C17.567 27.6096 17.4113 27.511 17.2897 27.3768C17.1682 27.2426 17.0853 27.078 17.05 26.9004L16 21.6629" stroke="black" stroke-width="2" stroke-linecap="round" stroke-linejoin="round"/>
<path d="M17.4144 8.9248H9.33936C9.07559 8.92856 8.82399 9.03639 8.63936 9.2248L4.58936 13.2623C4.46142 13.3904 4.37065 13.5508 4.32673 13.7265C4.28282 13.9021 4.28742 14.0864 4.34003 14.2596C4.39264 14.4328 4.49129 14.5885 4.62547 14.7101C4.75964 14.8316 4.92429 14.9145 5.10186 14.9498L10.3394 15.9998" stroke="black" stroke-width="2" stroke-linecap="round" stroke-linejoin="round"/>
</svg>
