<?xml version="1.0" encoding="UTF-8"?>
<svg width="32" height="32" viewBox="0 0 200 200" xmlns="http://www.w3.org/2000/svg">
  <defs>
    <style>
      .cls-1 {
        fill: #000;
        stroke-width: 0px;
      }
    </style>
  </defs>
  <path class="cls-1" d="M97.25,44.07c-.07.19-.53,1.31-.25.65-.19.46-.4.91-.6,1.36-.45.98-.92,1.94-1.41,2.89-.99,1.91-2.09,3.77-3.29,5.56-1.35,2.01-1.87,2.69-3.36,4.39s-2.93,3.16-4.53,4.6c-6.87,6.16-16.13,10.37-25.51,12.74-7.17,1.82-14.49,2.68-21.86,3.02-3.64.17-6.32,4.12-4.28,7.46,5.28,8.63,15.42,13.59,24.25,17.76,8.87,4.18,18.51,7.4,26.78,12.75l-1.78-6.78c-4.1,8.12-5.42,16.55-4.13,25.53.89,6.22,3.49,12.93,3.99,18.7.38,4.33,5.12,6.47,8.46,3.5,11.07-9.81,22.06-19.8,33.61-29.06.5-.4,1-.8,1.5-1.19-1.09.85.23-.17.49-.36.11-.08,1.65-1,1.64-1.07.05.55-2.56.44-1.22.49.73.03-1.35-.07.08.1-.54-.07-.58-.38.22.18.25.18.52.35.77.52-.62-.44-.44-.39.03.07,4.21,4.04,7.55,8.87,11.72,12.95,6.17,6.03,14.06,10.26,22.91,9.27,3.25-.36,5.58-2.87,4.78-6.27-2.46-10.52-8.35-20.53-13.67-29.82-3.48-6.08-7.1-12.1-10.93-17.96-.59,2.26-1.19,4.52-1.78,6.78,8.75-6.62,17.49-13.24,26.27-19.82,1.62-1.22,2.69-2.8,2.37-4.94-.27-1.83-1.62-3.73-3.55-4.12-8.29-1.69-16.57-3.38-24.8-5.3-4.87-1.13-9.72-2.32-14.52-3.73-1.97-.58-3.93-1.19-5.86-1.91-.35-.13-.7-.27-1.05-.41s.83.42-.05-.03c-.63-.33-1.24-.63-1.84-1.02-5.42-3.51-9.49-9.67-9.85-16.18-.36-6.34-10.27-6.38-9.91,0,.72,12.81,9.47,23.54,21.41,27.68,9.91,3.43,20.34,5.54,30.59,7.72,4.41.94,8.83,1.83,13.25,2.73-.39-3.02-.79-6.04-1.18-9.06-8.78,6.58-17.52,13.2-26.27,19.82-2.05,1.55-3.38,4.33-1.78,6.78,3.73,5.7,7.25,11.54,10.64,17.45,5.18,9.03,10.66,18.14,12.96,27.97,1.59-2.09,3.19-4.18,4.78-6.27-6.97.78-11.76-2.14-16.61-7.08-4.35-4.42-7.76-9.97-12.79-13.67-2.06-1.52-4.49-2.48-7.09-2.31-2.27.16-3.87,1.29-5.62,2.61-5.81,4.4-11.3,9.23-16.8,13.99-6.66,5.77-13.25,11.6-19.84,17.44,2.82,1.17,5.64,2.34,8.46,3.5-.56-6.34-2.69-12.33-3.88-18.55-1.37-7.14-.62-14.16,2.67-20.68,1.25-2.48.59-5.25-1.78-6.78-7.9-5.11-17.08-8.24-25.58-12.19-4.64-2.15-9.26-4.43-13.57-7.19-1.96-1.26-3.34-2.23-4.87-3.6-1.79-1.61-2.45-2.31-3.46-3.97-1.43,2.49-2.85,4.97-4.28,7.46,23.86-1.1,48.29-7.99,62.83-28.22,3.17-4.4,5.55-9.24,7.55-14.27.99-2.49-1.08-5.44-3.46-6.1-2.82-.78-5.1.97-6.1,3.46h0Z"/>
</svg>