<?xml version="1.0" encoding="UTF-8"?>
<svg id="Layer_2" data-name="Layer 2" xmlns="http://www.w3.org/2000/svg" viewBox="0 0 200 200">
  <defs>
    <style>
      .cls-1 {
        fill: #000;
        stroke-width: 0px;
      }
    </style>
  </defs>
  <path class="cls-1" d="M130.95,44.42c-10.89-6.04-23.66-7.54-35.95-6.73-7.26.47-14.1,2.17-20.49,4.97-.35.11-.7.22-1.04.34-.58.2-1.07.49-1.49.81-4.46,2.21-8.68,4.97-12.63,8.32-2.73,2.31-5.26,4.84-7.67,7.48-.23.25-.42.52-.58.78-.06.08-.13.14-.19.22-9.09,12.05-13.73,26.98-12.53,42.07.93,11.72,4.73,23.33,11,33.3,13.56,21.57,42.99,30.13,67.11,25.19,13.3-2.72,25.37-10.2,33.53-21.03,6.56-8.71,10.11-19.27,11.33-30.02,2.88-25.27-7.41-52.93-30.39-65.68ZM105.03,52.61c-.18-.13-.18-.15,0,0h0ZM60.47,134.68c-.09-.12-.19-.25-.27-.35-.3-.41-.59-.82-.88-1.24-.57-.83-1.13-1.68-1.66-2.54-1.19-1.93-2.28-3.92-3.27-5.96-2.14-4.4-3.81-9.26-4.94-14.3-2.63-11.76-1.52-24.31,3.96-35.12,1.56-3.08,3.41-5.98,5.45-8.76,5.46-5.95,11.61-10.97,18.7-14.34,5.9-1.92,11.87-3.3,18.13-2.97,1.13.06,4.28.79,5.51,1.29.03.02.74.35.89.43.45.23.89.47,1.32.73.36.22.71.45,1.06.69.2.13.4.28.59.42.02.02.03.03.06.05,3.29,2.75,6.19,6.15,8.17,9.89,3.18,6,3.11,12.99.76,19.26-4.54,12.12-17.54,18.26-26.67,26.42-10.53,9.41-18.18,25.56-9.07,38.6.23.33.48.62.72.94-7.12-2.93-13.83-7.22-18.59-13.13ZM146.05,127.83c-5.02,9.68-13.32,17.28-23.62,21.25-2.41.93-4.89,1.64-7.39,2.19-10.94.89-22.78-.66-28.79-10.41-7.44-12.07,5.57-23.95,14.29-30.58,5.24-3.98,10.73-7.83,15.17-12.73,4.87-5.36,8.38-12.03,9.52-19.22,1.71-10.84-2.18-21.56-9.58-29.39,1.36.33,2.75.73,4.21,1.24,8.74,3.07,16.82,9.61,22.21,17.61,6.6,9.79,9.69,21.4,9.81,33.14.09,9.35-1.44,18.42-5.83,26.87Z"/>
  <circle class="cls-1" cx="88.29" cy="73.92" r="6.35"/>
  <circle class="cls-1" cx="111.25" cy="129.97" r="6.35"/>
</svg>