<svg width="299" height="30" viewBox="0 0 299 30" fill="none" xmlns="http://www.w3.org/2000/svg">
<path d="M9.84031 13.6166C7.45045 13.2056 -0.257493 16.7274 2.95882 19.3094C4.62738 20.6489 13.0758 22.7444 11.0549 26.2796C10.0902 27.9672 7.3422 28.5053 5.62382 28.3092C2.94636 28.0036 2.97754 26.4188 1.28207 24.9297" stroke="black" stroke-width="2" stroke-linecap="round"/>
<path d="M21.1316 14.2903C17.4708 15.453 16.3132 24.5709 20.875 25.0042C24.7198 25.3695 23.0982 18.5142 21.896 17.073C21.2692 16.3215 19.9609 15.6061 18.9033 15.8542C17.4078 16.2051 19.0848 16.4851 18.5011 17.0892" stroke="black" stroke-width="2" stroke-linecap="round"/>
<path d="M27.5431 14.1805C28.5461 17.0604 28.9156 20.2071 29.3577 23.2117C29.4212 23.6429 29.4872 24.0742 29.5266 24.5082C29.63 25.6446 29.3866 24.6493 29.2991 24.1936C28.9099 22.1659 27.3885 16.6428 28.9511 14.8941C29.8388 13.9008 33.0809 18.1033 33.6857 18.5708C35.4391 19.9262 38.6307 13.6802 39.3562 12.532C41.4808 9.16908 37.0396 13.2038 39.3696 10.0147C40.293 8.75087 40.0983 15.7394 40.1104 15.9436C40.2981 19.1167 40.7527 22.2561 41.2155 25.3977C41.7091 28.7483 41.6024 26.2529 41.6845 24.8783" stroke="black" stroke-width="2" stroke-linecap="round"/>
<path d="M45.8242 13.3016C49.1677 13.2443 52.4657 12.3808 55.7598 11.9241" stroke="black" stroke-width="2" stroke-linecap="round"/>
<path d="M48.7116 14.4594C47.8699 15.805 48.9329 26.0705 50.8433 25.9729C52.5856 25.8839 58.0715 23.71 58.5813 22.4388" stroke="black" stroke-width="2" stroke-linecap="round"/>
<path d="M47.8685 20.3212C50.3972 18.8697 52.7059 18.2096 55.4376 17.3244" stroke="black" stroke-width="2" stroke-linecap="round"/>
<path d="M63.1504 12.4854C63.3598 15.9839 64.4889 19.7328 65.4724 23.0785C66.7393 27.3878 67.3966 22.7612 68.4748 21.3259C70.5867 18.5144 75.0266 25.3227 76.5945 21.413C77.4981 19.1598 77.0314 16.1885 76.8776 13.8163" stroke="black" stroke-width="2" stroke-linecap="round"/>
<path d="M83.5781 9.41185C82.2026 12.3326 83.2781 20.6928 84.7948 23.2912" stroke="black" stroke-width="2" stroke-linecap="round"/>
<path d="M82.5826 17.5338C85.0132 16.6295 87.4534 15.7645 89.8987 14.9025" stroke="black" stroke-width="2" stroke-linecap="round"/>
<path d="M89.123 10.7656C89.0446 12.7061 88.714 24.5479 90.3398 24.645" stroke="black" stroke-width="2" stroke-linecap="round"/>
<path d="M91.5481 12.9559C93.7741 10.8763 96.5831 11.0234 99.3434 10.8646" stroke="black" stroke-width="2" stroke-linecap="round"/>
<path d="M95.7464 11.1609C93.6639 14.0551 92.5734 19.9196 95.388 22.8724C96.9917 24.5547 100.238 22.0071 101.792 21.2377" stroke="black" stroke-width="2" stroke-linecap="round"/>
<path d="M92.5607 21.7093C92.8044 19.9336 99.0927 17.0117 100.569 16.0511" stroke="black" stroke-width="2" stroke-linecap="round"/>
<path d="M104.927 9.16113C105.2 13.1342 104.961 17.1628 105.311 21.1177C105.541 23.7223 105.625 19.3839 105.623 19.0838" stroke="black" stroke-width="2" stroke-linecap="round"/>
<path d="M105.047 14.3235C105.484 13.3298 110.402 8.33239 110.565 11.4547C110.649 13.0693 109.173 14.7945 108.155 15.8456C107.328 16.6987 106.833 17.0273 105.899 17.6441C105.665 17.799 105.045 17.9827 105.247 18.178C105.648 18.5657 107.177 18.7845 107.634 18.965C109.259 19.6066 110.754 20.4552 112.241 21.3642C114.377 22.6701 115.34 23.299 113.226 21.2559" stroke="black" stroke-width="2" stroke-linecap="round"/>
<path d="M114.268 11.0075C117.283 11.0757 120.301 10.8417 123.309 10.6881" stroke="black" stroke-width="2" stroke-linecap="round"/>
<path d="M118.12 11.2378C116.54 12.4979 115.913 22.3403 118.228 22.6289C119.747 22.8184 125.407 19.9065 125.34 19.8315" stroke="black" stroke-width="2" stroke-linecap="round"/>
<path d="M115.973 18.4132C116.308 18.6667 122.949 16.51 123.832 16.3048" stroke="black" stroke-width="2" stroke-linecap="round"/>
<path d="M144.495 5.66309C144.797 10.0171 145.197 14.3418 145.272 18.706C145.329 21.9949 145.355 23.5441 146.827 19.8203" stroke="black" stroke-width="2" stroke-linecap="round"/>
<path d="M152.493 6.8291C152.493 11.2918 152.318 15.8066 152.523 20.2645C152.648 22.9626 152.103 14.9855 151.973 14.1575C151.64 12.039 150.602 7.70911 153.227 11.0866C154.825 13.1429 156.279 15.6251 158.274 17.2285C160.362 18.9069 159.294 15.91 159.65 14.9951" stroke="black" stroke-width="2" stroke-linecap="round"/>
<path d="M158.485 4.9936C159.762 2.38467 159.313 10.7664 159.651 13.6628C159.735 14.3822 160.146 20.9275 160.817 17.501" stroke="black" stroke-width="2" stroke-linecap="round"/>
<path d="M180.495 4.66855C179.805 9.93091 178.503 15.3771 179.48 20.6927C179.531 20.9709 179.589 20.1265 179.548 19.8466C179.23 17.7118 179.062 15.6398 178.882 13.4968" stroke="black" stroke-width="2" stroke-linecap="round"/>
<path d="M178.444 10.0472C180.093 6.46126 185.441 13.928 186.943 15.2078C190.817 18.5085 188.969 9.60938 188.424 7.9077C188.364 7.7215 188.316 7.50051 188.158 7.38438C187.785 7.10854 188.083 8.31627 188.137 8.77764C188.38 10.8669 188.771 12.9421 189.078 15.0225C189.128 15.3659 189.507 20.8716 190.115 18.591" stroke="black" stroke-width="2" stroke-linecap="round"/>
<path d="M193.37 8.67503C195.465 7.5147 197.536 6.54294 199.809 5.82444" stroke="black" stroke-width="2" stroke-linecap="round"/>
<path d="M194.868 7.22274C194.879 9.39198 194.113 16.1784 196.128 17.5441C197.76 18.6505 201.106 16.0158 202.114 15.6974" stroke="black" stroke-width="2" stroke-linecap="round"/>
<path d="M192.294 14.5608C195.156 14.0703 198.054 12.8673 200.699 11.7409" stroke="black" stroke-width="2" stroke-linecap="round"/>
<path d="M203.735 6.37745C204.252 9.35504 204.798 16.0413 207.186 18.1266C207.462 18.3679 209.612 9.44839 210.329 9.34959C210.928 9.26698 214.138 19.7734 215.298 14.8649C216.004 11.8787 216.024 8.68637 216.426 5.64658C216.583 4.45417 216.463 4.51913 217.035 5.10959" stroke="black" stroke-width="2" stroke-linecap="round"/>
<path d="M231.962 3.04492C231.748 7.35444 232.128 11.5193 232.77 15.7821C233.426 20.1369 232.675 13.6551 232.598 12.9705" stroke="black" stroke-width="2" stroke-linecap="round"/>
<path d="M232.119 7.00687C231.474 4.52658 234.792 7.40692 235.28 7.87926C237.425 9.95047 238.107 10.3053 240.814 9.22783" stroke="black" stroke-width="2" stroke-linecap="round"/>
<path d="M242.253 3.92103C240.093 5.17398 238.897 7.54376 237.446 9.48959C237.321 9.65718 236.222 11.1323 237.276 9.55735C238.172 8.21829 239.657 4.30259 241.198 3.74898C242.005 3.45922 242.607 13.6966 242.805 14.8267C243.336 17.8582 243.422 15.8685 243.337 14.3784" stroke="black" stroke-width="2" stroke-linecap="round"/>
<path d="M247.476 6.33998C250.493 6.44034 253.133 5.99842 255.973 5.08906" stroke="black" stroke-width="2" stroke-linecap="round"/>
<path d="M250.009 5.56888C249.516 7.94158 247.928 17.0533 251.53 17.9829C253.476 18.4851 257.637 15.913 258.611 14.6919" stroke="black" stroke-width="2" stroke-linecap="round"/>
<path d="M250.198 14.9622C249.414 12.8266 255.898 10.6107 257.517 10.156" stroke="black" stroke-width="2" stroke-linecap="round"/>
<path d="M260.383 5.46484C262.478 7.46487 264.468 9.63007 266.669 11.5115C268.324 12.9265 268.64 12.8325 269.277 11.1577" stroke="black" stroke-width="2" stroke-linecap="round"/>
<path d="M267.369 4.57845C266.06 4.1985 264.224 10.8633 263.908 11.7422C263.171 13.7878 262.105 16.2943 264.575 14.2121" stroke="black" stroke-width="2" stroke-linecap="round"/>
<path d="M273.249 5.07936C273.725 4.13259 273.874 2.81763 274.066 5.14889C274.352 8.62008 274.563 12.106 274.823 15.5784" stroke="black" stroke-width="2" stroke-linecap="round"/>
<path d="M285.417 7.10216C285.256 5.52451 284.102 -1.65603 281.45 2.4868C280.183 4.46489 279.63 7.35201 280.044 9.66105C280.997 14.9793 284.515 11.7182 287.533 11.2309" stroke="black" stroke-width="2" stroke-linecap="round"/>
<path d="M291.756 2.21296C287.639 5.96042 292.148 15.8059 296.072 10.7792C297.725 8.66181 299.226 3.82917 295.333 3.03845C292.823 2.52885 291.6 3.87845 291.954 5.68485" stroke="black" stroke-width="2" stroke-linecap="round"/>
</svg>
