<svg width="165" height="24" viewBox="0 0 165 24" fill="none" xmlns="http://www.w3.org/2000/svg">
<path d="M77.188 9.40898C79.1248 9.00826 80.9667 8.37324 82.8365 7.73734C83.9328 7.36448 84.9459 7.04884 86.0863 6.97497" stroke="black" stroke-width="2" stroke-linecap="round"/>
<path d="M82.6613 8.3335C82.4557 11.0736 82.515 13.7988 82.622 16.5425C82.6301 16.7497 82.6557 18.7308 82.7786 18.7375" stroke="black" stroke-width="2" stroke-linecap="round"/>
<path d="M88.9996 7.13442C89.0316 7.12053 89.0175 7.12279 89.034 7.20314C89.0841 7.44705 89.1389 7.87528 89.1579 8.07878C89.3603 10.2424 89.3505 12.4284 89.3066 14.5986C89.2723 16.2989 89.0817 18.0149 89.1217 19.7156C89.1342 20.2462 89.1884 19.9852 89.2519 19.78" stroke="black" stroke-width="2" stroke-linecap="round"/>
<path d="M89.124 14.2731C91.6453 13.7317 93.8865 12.3121 96.4661 12.0116" stroke="black" stroke-width="2" stroke-linecap="round"/>
<path d="M96.1291 7.18072C96.023 5.96693 96.3185 9.61016 96.4163 10.8246C96.5847 12.9164 96.7594 19.1989 96.8742 17.1036" stroke="black" stroke-width="2" stroke-linecap="round"/>
<path d="M100.274 6.80687C102.342 6.36088 104.268 5.79058 106.217 4.98429" stroke="black" stroke-width="2" stroke-linecap="round"/>
<path d="M101.184 7.45842C100.988 10.0006 101.131 12.5212 101.159 15.0666C101.169 16.0171 101.138 16.9651 101.132 17.9152C101.131 17.9939 101.058 18.6825 101.291 18.7498C101.527 18.8177 102.084 18.4766 102.25 18.4109C103.059 18.091 103.869 17.9233 104.732 17.8117C106.169 17.6259 107.6 17.5867 108.988 17.1665" stroke="black" stroke-width="2" stroke-linecap="round"/>
<path d="M100.707 13.0175C102.411 12.7357 104.08 12.2049 105.75 11.7757C106.347 11.6223 106.963 11.4427 107.577 11.3603C107.803 11.33 107.623 11.3824 107.584 11.4179" stroke="black" stroke-width="2" stroke-linecap="round"/>
<path d="M120.821 5.44531C121.118 7.65298 121.219 9.86464 121.264 12.091C121.296 13.6635 121.284 13.8501 121.303 15.3776C121.309 15.8354 121.142 17.3569 121.488 17.8463C121.709 18.1592 123.695 15.8304 123.82 15.7065C124.332 15.2011 124.986 14.4861 125.659 14.3894" stroke="black" stroke-width="2" stroke-linecap="round"/>
<path d="M129.198 5.29633C129.142 5.55901 129.262 5.82032 129.339 6.06825C129.645 7.04736 129.79 8.03251 129.927 9.04994C130.348 12.1718 130.593 15.3105 130.751 18.455" stroke="black" stroke-width="2" stroke-linecap="round"/>
<path d="M135.576 5.07715C136.199 8.0011 136.256 11.0622 136.26 14.0387C136.261 15.2129 136.203 16.395 136.256 17.569C136.289 18.299 136.327 16.2718 136.328 16.2593" stroke="black" stroke-width="2" stroke-linecap="round"/>
<path d="M135.867 6.00217C135.837 5.99452 136.182 6.13923 136.259 6.21316C137.098 7.01792 137.586 8.11877 138.238 9.06261C138.587 9.5679 139.211 10.4957 139.944 9.97713C140.956 9.26035 141.71 7.82023 142.488 6.8829C143.306 5.89583 144.199 4.59831 145.281 3.86543C145.818 3.50156 144.652 5.00215 144.292 5.54177C144.008 5.96698 143.231 7.28033 143.427 6.80803C143.607 6.37339 143.846 5.95141 144.053 5.52865C144.146 5.33804 145.044 3.92554 145.087 4.17061C145.535 6.70267 145.857 9.25697 146.235 11.7998C146.373 12.7285 146.886 14.4462 146.842 15.2436" stroke="black" stroke-width="2" stroke-linecap="round"/>
<path d="M150.542 3.7373C151.025 6.42941 151.421 9.06674 151.616 11.8045C151.697 12.9353 151.735 14.0833 151.91 15.2058C152.032 15.9926 151.981 14.9134 151.98 14.8434" stroke="black" stroke-width="2" stroke-linecap="round"/>
<path d="M154.175 3.82276C156.48 3.37374 158.634 2.41082 160.914 1.86784C161.674 1.68683 162.615 1.45714 163.134 2.15371" stroke="black" stroke-width="2" stroke-linecap="round"/>
<path d="M158.646 3.15834C158.356 3.81976 158.647 4.78402 158.697 5.46005C158.869 7.78913 158.838 10.1277 158.957 12.4595C159.031 13.9103 159.248 15.3334 159.365 16.7766C159.384 17.0148 159.289 16.5423 159.279 16.494" stroke="black" stroke-width="2" stroke-linecap="round"/>
<path d="M8.65237 9.92826C8.58391 9.06095 6.96183 10.4112 6.59972 10.6284C4.62789 11.811 1.67398 14.1241 4.84276 16.0725C6.68296 17.204 16.4335 19.9228 9.57918 22.168C6.71681 23.1055 3.86979 22.4787 1.14277 21.484" stroke="black" stroke-width="2" stroke-linecap="round"/>
<path d="M17.1993 10.1233C17.0195 11.8222 17.1185 13.5275 17.1691 15.2302C17.2409 17.6457 17.2982 20.0446 17.2724 22.4576" stroke="black" stroke-width="2" stroke-linecap="round"/>
<path d="M24.2542 8.969C22.835 10.8091 21.5404 12.7506 19.9366 14.4499C19.2015 15.2287 18.4499 16.0671 17.6217 16.758C17.4656 16.8882 17.8243 16.448 18.0547 16.4356C18.6701 16.4024 19.4183 16.9623 19.8822 17.2519C21.4999 18.2617 23.0642 19.3446 24.6978 20.3328C25.2932 20.6929 25.9723 21.0097 26.5487 21.401C26.6983 21.5026 26.2087 21.271 26.0386 21.206" stroke="black" stroke-width="2" stroke-linecap="round"/>
<path d="M28.019 9.1748C29.2984 10.174 30.6149 12.0899 32.5086 11.6265" stroke="black" stroke-width="2" stroke-linecap="round"/>
<path d="M35.829 7.2906C34.4375 8.78946 33.2103 10.5535 31.7685 11.9756C31.4869 12.2534 32.4678 10.6255 32.5338 11.0434C32.8313 12.9277 33.108 14.8721 33.3358 16.7778C33.4696 17.897 33.5479 19.0241 33.6751 20.1441C33.7215 20.5531 33.7523 20.8243 33.9318 21.0583" stroke="black" stroke-width="2" stroke-linecap="round"/>
<path d="M52.0753 8.42108C52.0174 8.3511 51.9012 8.04342 52.0059 8.23899C52.6257 9.39609 52.6196 11.0441 52.7414 12.2968C52.9734 14.6834 53.293 17.0512 53.5644 19.4321C53.5943 19.694 53.6599 20.1716 53.5806 20.473C53.4888 20.822 53.3137 20.2771 53.2936 20.2552" stroke="black" stroke-width="2" stroke-linecap="round"/>
<path d="M62.4714 6.60562C62.4336 6.02679 61.3915 7.0405 61.0041 7.46138C60.0001 8.5521 58.8381 10.055 59.0702 11.6897C59.3858 13.9136 62.0076 13.5368 63.5167 13.9881C66.3878 14.8467 63.1613 18.1041 61.9805 18.9921C61.155 19.6128 58.614 21.0485 58.2899 19.2883" stroke="black" stroke-width="2" stroke-linecap="round"/>
</svg>
