<svg width="275" height="22" viewBox="0 0 275 22" fill="none" xmlns="http://www.w3.org/2000/svg">
<path d="M1.09566 8.14288C5.91904 7.33988 10.6618 6.17058 15.4961 5.4636" stroke="black" stroke-width="2" stroke-linecap="round"/>
<path d="M10.8388 4.68214C10.4278 8.11594 11.0219 11.3232 11.2621 14.7429C11.3943 16.6246 11.6111 18.888 10.6264 20.4802" stroke="black" stroke-width="2" stroke-linecap="round"/>
<path d="M18.0049 5.85547C17.942 10.5302 18.5518 15.2152 18.8938 19.8727" stroke="black" stroke-width="2" stroke-linecap="round"/>
<path d="M18.2528 14.1188C18.5576 12.8295 23.1652 12.1145 24.3904 11.6875" stroke="black" stroke-width="2" stroke-linecap="round"/>
<path d="M25.1855 5.95215C25.4116 10.3824 25.4685 14.8186 25.725 19.2465" stroke="black" stroke-width="2" stroke-linecap="round"/>
<path d="M29.8628 5.29688C29.9392 10.0854 29.8544 14.8917 30.0287 19.6635" stroke="black" stroke-width="2" stroke-linecap="round"/>
<path d="M38.8105 7.57181C36.4688 4.68378 32.4535 6.48415 35.4479 9.86082C36.848 11.4396 39.1427 13.0524 38.9436 15.474C38.6938 18.5128 34.5916 17.8083 32.5715 17.543" stroke="black" stroke-width="2" stroke-linecap="round"/>
<path d="M53.5454 6.69336C53.9314 9.52537 54.0687 12.3446 54.1493 15.2004C54.1717 15.9962 54.1793 17.4009 54.3276 18.2553C54.5805 19.7118 54.6324 18.5586 55.1813 18.566" stroke="black" stroke-width="2" stroke-linecap="round"/>
<path d="M64.3168 6.83784C62.9585 6.28516 60.2116 5.95319 59.6347 7.85222C58.9942 9.96084 63.2531 11.3186 64.3619 12.3847C66.1321 14.0866 65.2083 16.333 63.2177 17.357C60.9695 18.5135 59.428 17.8466 57.7236 16.4452" stroke="black" stroke-width="2" stroke-linecap="round"/>
<path d="M79.0426 6.67616C77.2735 9.09105 76.7338 11.1932 77.9058 14.0626C78.6848 15.9697 80.1742 17.0407 81.5662 14.8499C82.6779 13.1002 83.5595 8.9197 81.6872 7.33019C80.9611 6.71374 80.0335 6.68383 79.1591 6.91713C76.9607 7.50364 78.2016 8.50176 77.563 9.88827" stroke="black" stroke-width="2" stroke-linecap="round"/>
<path d="M86.6021 5.3418C87.7371 8.09182 88.048 11.07 88.2011 14.0219C88.3551 16.9913 88.2242 16.5002 87.9224 13.9782" stroke="black" stroke-width="2" stroke-linecap="round"/>
<path d="M86.8886 10.7319C86.8321 9.43838 87.4616 8.59087 88.8611 9.44173C89.707 9.95608 90.6484 11.0881 91.3842 11.7101C96.7521 16.248 88.9782 9.59054 93.6815 12.9779" stroke="black" stroke-width="2" stroke-linecap="round"/>
<path d="M93.0649 5.42871C93.1504 8.84597 93.5865 11.9688 94.7298 15.1471" stroke="black" stroke-width="2" stroke-linecap="round"/>
<path d="M95.9371 5.46744C97.1492 5.26873 98.3111 5.22161 99.5324 5.15667" stroke="black" stroke-width="2" stroke-linecap="round"/>
<path d="M95.9272 6.18555C95.9559 8.41203 95.3886 16.1542 98.4591 16.7136C99.7764 16.9536 101.346 15.4191 102.628 15.2534" stroke="black" stroke-width="2" stroke-linecap="round"/>
<path d="M95.491 11.9251C97.1684 11.3276 98.8536 10.763 100.542 10.1975" stroke="black" stroke-width="2" stroke-linecap="round"/>
<path d="M117.858 4.32617C114.731 5.83747 114.006 13.0291 117.421 14.5949C119.582 15.5857 121.016 12.3469 121.243 10.7958C121.428 9.52975 121.347 8.29987 120.492 7.27437C119.033 5.52548 118.167 7.30305 116.738 7.54311" stroke="black" stroke-width="2" stroke-linecap="round"/>
<path d="M123.593 5.12075C125.761 4.70263 127.917 4.22074 130.076 3.77146" stroke="black" stroke-width="2" stroke-linecap="round"/>
<path d="M125.733 6.22656C126.06 9.77326 126.712 13.5191 126.665 17.0124" stroke="black" stroke-width="2" stroke-linecap="round"/>
<path d="M126.407 9.46841C128.128 9.28704 129.858 8.55504 131.453 8.09981" stroke="black" stroke-width="2" stroke-linecap="round"/>
<path d="M142.293 3.21779C142.371 7.38211 143.308 11.4552 143.503 15.6034C143.63 18.3042 142.516 10.2694 142.394 7.56839C142.333 6.20221 142.473 5.4157 143.889 6.17199C145.736 7.15777 147.663 8.99212 149.662 7.14738C150.699 6.18971 153.127 0.648828 151.251 4.69487C150.999 5.23745 149.521 7.68705 150.557 5.82274C151.184 4.69501 152.294 4.04667 152.989 3.0025C153.142 2.77428 153.055 2.77418 153.105 3.34321C153.361 6.30524 153.775 9.25176 154.183 12.1958C154.207 12.3691 154.995 20.0119 155.045 16.3172" stroke="black" stroke-width="2" stroke-linecap="round"/>
<path d="M157.368 3.7793C157.986 6.11632 158.779 6.15868 160.924 6.34089" stroke="black" stroke-width="2" stroke-linecap="round"/>
<path d="M165.655 1.73627C164.114 3.41688 161.91 6.50688 159.519 6.98059C159.349 7.01441 159.015 6.6843 159.165 6.59677C160.031 6.09293 161.194 7.54761 161.5 8.0646C163.01 10.6163 162.973 14.0576 163.456 16.9091C163.848 19.2236 163.737 17.401 163.662 16.433" stroke="black" stroke-width="2" stroke-linecap="round"/>
<path d="M177.484 3.33185C177.106 7.26972 177.355 11.084 177.966 14.9895C178.201 16.4936 178.371 17.5279 178.397 15.5539" stroke="black" stroke-width="2" stroke-linecap="round"/>
<path d="M176.373 5.83008C177.909 6.01444 182.279 6.78534 180.298 9.19465C179.722 9.89522 177.196 10.763 178.102 10.8011C179.235 10.8487 180.336 10.5534 181.495 10.6671C183.113 10.8258 185.963 11.7437 184.246 13.7965C183.241 14.9988 181.645 16.0681 180.101 16.3942C178.327 16.7691 178.274 15.8121 176.966 15.1749" stroke="black" stroke-width="2" stroke-linecap="round"/>
<path d="M186.416 6.68357C188.097 5.70569 189.967 5.10728 191.831 4.60171" stroke="black" stroke-width="2" stroke-linecap="round"/>
<path d="M187.503 5.98047C187.579 8.62125 187.451 16.2296 191.85 15.0965C192.774 14.8584 194.217 14.1263 194.229 13.2531" stroke="black" stroke-width="2" stroke-linecap="round"/>
<path d="M188.145 11.7344C187.439 11.6071 189.415 11.0681 190.073 10.7828C191.621 10.1111 193.139 9.32083 194.651 8.5899" stroke="black" stroke-width="2" stroke-linecap="round"/>
<path d="M200.084 5.07173C198.275 6.08127 195.205 7.57702 197.465 9.94436C198.453 10.9787 200.853 11.3545 201.377 12.79C202.19 15.0159 198.477 16.0253 197.067 15.8045" stroke="black" stroke-width="2" stroke-linecap="round"/>
<path d="M202.215 6.89612C204.001 5.30736 205.773 4.02069 208.008 3.3829" stroke="black" stroke-width="2" stroke-linecap="round"/>
<path d="M204.378 6.20703C204.333 9.56667 204.916 19.6296 204.961 16.27" stroke="black" stroke-width="2" stroke-linecap="round"/>
<path d="M217.707 3.15428C220.339 2.97927 222.803 1.96296 225.276 1.10138" stroke="black" stroke-width="2" stroke-linecap="round"/>
<path d="M220.58 3.19326C219.05 7.11109 220.449 12.1262 220.765 16.1237" stroke="black" stroke-width="2" stroke-linecap="round"/>
<path d="M219.75 11.4417C219.353 10.0216 224.721 8.78825 225.897 8.29234" stroke="black" stroke-width="2" stroke-linecap="round"/>
<path d="M229.546 4.03131C229.267 6.57978 229.33 9.07358 229.444 11.6311C229.474 12.3065 229.367 14.9618 229.784 13.0123" stroke="black" stroke-width="2" stroke-linecap="round"/>
<path d="M228.415 7.96688C228.786 6.9888 231.886 3.49967 233.043 5.03651C234.101 6.44167 229.177 10.7817 229.492 10.954C230.376 11.4372 234.982 11.4226 235.562 10.5767" stroke="black" stroke-width="2" stroke-linecap="round"/>
<path d="M238.173 3.42984C237.442 1.58539 238.587 3.97867 238.748 5.11343C239.144 7.90477 239.411 10.7114 239.593 13.524C239.679 14.8597 239.784 13.4433 239.837 13.1482" stroke="black" stroke-width="2" stroke-linecap="round"/>
<path d="M242.131 2.76503C243.525 3.08038 247.182 2.49295 247.517 2.83744" stroke="black" stroke-width="2" stroke-linecap="round"/>
<path d="M243.185 4.57422C243.425 5.69159 243.818 14.3892 244.906 14.5128C245.934 14.6296 247.949 13.2569 248.813 13.2686" stroke="black" stroke-width="2" stroke-linecap="round"/>
<path d="M243.83 9.97002C245.325 8.46287 247.295 7.84013 249.254 7.17007" stroke="black" stroke-width="2" stroke-linecap="round"/>
<path d="M251.831 2.53613C251.797 5.06005 251.79 7.57595 251.908 10.0985C251.951 11.0159 252.379 13.9803 251.71 11.5123" stroke="black" stroke-width="2" stroke-linecap="round"/>
<path d="M251.423 6.12179C251.767 2.91616 255.028 8.35573 255.572 9.13027C256.001 9.73992 257.796 13.0376 257.11 10.5076" stroke="black" stroke-width="2" stroke-linecap="round"/>
<path d="M257.231 1.53125C257.484 4.1243 257.599 6.72718 257.844 9.32024C257.938 10.3116 257.886 11.3201 258.192 10.1628" stroke="black" stroke-width="2" stroke-linecap="round"/>
<path d="M260.467 1.21582C260.736 4.08715 260.884 6.95973 260.99 9.84151C261.031 10.9591 261.038 12.2024 261.06 10.5607" stroke="black" stroke-width="2" stroke-linecap="round"/>
<path d="M260.807 2.65677C260.994 1.15192 265.984 5.46461 266.384 6.32286C267.79 9.3463 264.003 12.0933 261.744 13.0836" stroke="black" stroke-width="2" stroke-linecap="round"/>
<path d="M273.033 1.38399C272.164 1.69292 271.341 2.04668 270.701 2.74917C268.475 5.19027 271.239 6.59131 272.902 8.22528C276.273 11.5377 270.658 14.0974 267.857 12.4468" stroke="black" stroke-width="2" stroke-linecap="round"/>
</svg>
