<svg width="247" height="22" viewBox="0 0 247 22" fill="none" xmlns="http://www.w3.org/2000/svg">
<path d="M6.04865 5.33838C6.26058 3.7041 5.00284 4.47894 3.91939 5.276C-1.53823 9.29102 3.77922 13.2037 8.00027 14.9958C15.0143 17.9737 -0.0224588 21.9168 1.19097 18.6033" stroke="black" stroke-width="2" stroke-linecap="round"/>
<path d="M12.7466 5.53516C12.7405 9.51495 13.3467 13.4686 13.598 17.4362C13.7633 20.0471 13.2591 17.2335 13.1747 16.348" stroke="black" stroke-width="2" stroke-linecap="round"/>
<path d="M12.8676 14.1038L20.4186 10.6008" stroke="black" stroke-width="2" stroke-linecap="round"/>
<path d="M19.1157 4.23242C19.7905 6.23221 21.1992 18.4455 20.9341 18.4378" stroke="black" stroke-width="2" stroke-linecap="round"/>
<path d="M28.8235 3.39943C26.9937 6.07034 26.4967 10.7009 25.6229 13.7749C25.152 15.4314 23.5245 20.5975 25.1039 15.9528" stroke="black" stroke-width="2" stroke-linecap="round"/>
<path d="M28.4731 2.64355C29.1214 8.37543 36.6329 24.0709 33.575 19.1796" stroke="black" stroke-width="2" stroke-linecap="round"/>
<path d="M25.202 12.6036C27.768 12.5537 30.1945 11.8111 32.6877 11.3333" stroke="black" stroke-width="2" stroke-linecap="round"/>
<path d="M37.3701 4.02148C37.7362 7.5541 38.2007 11.0732 38.5497 14.608C38.5991 15.1091 38.7544 18.8093 39.2321 16.7384" stroke="black" stroke-width="2" stroke-linecap="round"/>
<path d="M36.6157 4.37207C39.3349 6.45974 46.085 8.95821 43.8399 13.4391C42.5935 15.9268 39.5805 17.1232 36.9784 17.4175" stroke="black" stroke-width="2" stroke-linecap="round"/>
<path d="M48.862 5.84845C46.2548 7.05796 48.7888 17.3628 50.7863 16.4361C55.0267 14.469 50.866 6.10911 46.947 7.65446" stroke="black" stroke-width="2" stroke-linecap="round"/>
<path d="M55.5708 5.67233C55.0888 6.12683 55.8492 8.01218 55.9456 8.41441C56.5626 10.9878 56.7569 14.3747 57.9986 16.7299C58.2023 17.1164 59.0077 13.9362 59.0805 13.6995C59.8839 11.088 60.902 12.2659 62.1127 14.0159C62.3041 14.2926 64.228 18.0385 64.8551 16.4549C65.8284 13.997 65.1477 10.6267 65.0177 8.08017C64.9995 7.72338 64.8089 1.63785 65.2891 4.46735" stroke="black" stroke-width="2" stroke-linecap="round"/>
<path d="M82.0958 3.26794C85.5389 3.23383 88.8414 2.48598 92.0994 1.42893" stroke="black" stroke-width="2" stroke-linecap="round"/>
<path d="M84.2358 2.97559C84.2993 8.29378 85.2166 13.5381 85.4687 18.8443C85.5483 20.5197 85.3374 20.0871 85.188 18.994" stroke="black" stroke-width="2" stroke-linecap="round"/>
<path d="M83.3181 10.0548C85.8782 10.5695 88.2667 9.99219 90.7947 9.56315" stroke="black" stroke-width="2" stroke-linecap="round"/>
<path d="M94.1779 3.26656C93.343 7.12251 93.6408 11.2048 93.2975 15.1251C93.2134 16.0853 93.1587 17.0807 93.0345 18.0391C92.9318 18.8307 92.8384 16.4549 92.7488 15.6618" stroke="black" stroke-width="2" stroke-linecap="round"/>
<path d="M94.042 7.88135C93.3273 6.73807 96.8059 5.43542 97.5086 5.456C100.716 5.54995 98.4577 9.41602 97.4373 10.5867C96.5605 11.5925 93.13 12.8538 94.856 13.7881C96.6345 14.7508 98.4747 15.6064 100.263 16.5524C102.37 17.6668 99.8621 16.2392 99.8385 16.2241" stroke="black" stroke-width="2" stroke-linecap="round"/>
<path d="M104.746 6.41912C101.905 7.41107 101.138 13.9858 103.969 15.3985C107.102 16.9614 109.423 4.51179 103.253 8.8628" stroke="black" stroke-width="2" stroke-linecap="round"/>
<path d="M110.154 3.73444C110.05 7.27238 109.724 10.924 110.275 14.4378C110.746 17.445 110.42 14.4585 110.228 13.331" stroke="black" stroke-width="2" stroke-linecap="round"/>
<path d="M110.52 3.38965C112.687 4.18308 115.656 10.9224 117.558 5.72792" stroke="black" stroke-width="2" stroke-linecap="round"/>
<path d="M119.051 3.28462C119.021 3.01665 117.241 5.99783 116.982 6.54055C116.494 7.56035 118.386 2.52001 118.686 3.60953C119.406 6.21639 118.885 9.43674 118.99 12.1073C119.008 12.5691 119.37 18.6958 119.053 15.3664" stroke="black" stroke-width="2" stroke-linecap="round"/>
<path d="M134.921 2.75391C133.436 6.1151 131.69 9.45364 130.713 13.0099C129.921 15.8923 131.47 11.6721 131.655 10.9784" stroke="black" stroke-width="2" stroke-linecap="round"/>
<path d="M133.788 2.7207C135.841 6.90394 137.664 11.0671 139.044 15.5231C139.084 15.6523 139.716 17.578 139.78 17.6457" stroke="black" stroke-width="2" stroke-linecap="round"/>
<path d="M132.055 10.233C134.31 9.66767 136.514 8.86525 138.557 7.77608" stroke="black" stroke-width="2" stroke-linecap="round"/>
<path d="M157.66 1.1507C154.908 2.64994 152.952 8.56989 152.403 11.3339C152.18 12.4595 151.555 16.2287 153.775 16.1645C156 16.1002 157.772 13.4746 159.228 12.1642" stroke="black" stroke-width="2" stroke-linecap="round"/>
<path d="M155.116 10.5306C155.89 9.80074 161.689 7.91624 161.518 8.61711C160.987 10.7832 160.518 12.8825 160.319 15.1163C160.191 16.5493 160.229 16.7391 160.263 15.5979" stroke="black" stroke-width="2" stroke-linecap="round"/>
<path d="M165.94 2.52767C165.322 6.5194 165.701 10.6719 165.583 14.7034C165.518 16.9115 165.368 17.0811 165.197 14.9862" stroke="black" stroke-width="2" stroke-linecap="round"/>
<path d="M172.742 2.72691C170.557 5.91583 168.529 17.4381 168.642 13.5743" stroke="black" stroke-width="2" stroke-linecap="round"/>
<path d="M171.963 3.46026C172.782 1.69526 173.727 6.96055 174.222 8.84211C174.293 9.1107 175.853 14.5417 175.421 14.5291" stroke="black" stroke-width="2" stroke-linecap="round"/>
<path d="M167.564 11.6518C169.964 10.4828 172.241 9.12291 174.843 8.4613" stroke="black" stroke-width="2" stroke-linecap="round"/>
<path d="M178.021 3.25977C177.991 7.04318 178.152 10.8222 178.067 14.6068C177.991 17.9713 178.043 15.4169 178.089 13.8511" stroke="black" stroke-width="2" stroke-linecap="round"/>
<path d="M178.766 3.66016C180.493 6.11009 182.135 8.69068 184.099 10.96C185.726 12.8403 185.366 10.7277 185.401 9.52741" stroke="black" stroke-width="2" stroke-linecap="round"/>
<path d="M184.1 2.3038C184.167 0.024799 184.896 6.79655 184.909 6.94985C184.947 7.40123 185.604 15.5295 185.69 12.5615" stroke="black" stroke-width="2" stroke-linecap="round"/>
<path d="M187.089 3.52599C187.578 1.22558 191.457 1.63322 193.202 1.43591" stroke="black" stroke-width="2" stroke-linecap="round"/>
<path d="M189.79 1.71387C190.667 5.16501 190.703 8.95873 190.902 12.5039C190.997 14.1804 190.724 13.1368 190.613 12.3273" stroke="black" stroke-width="2" stroke-linecap="round"/>
<path d="M209.417 3.0453C212.359 2.86452 209.714 -0.942996 207.55 3.66295C206.495 5.90738 202.65 16.3239 208.239 15.9954C211.124 15.8258 212.289 13.1282 213.719 11.1133" stroke="black" stroke-width="2" stroke-linecap="round"/>
<path d="M215.829 3.61076C215.477 -0.0886768 215.648 11.0709 216.133 14.7553C216.729 19.2731 220.937 15.1804 221.976 13.2456" stroke="black" stroke-width="2" stroke-linecap="round"/>
<path d="M224.52 3.86606C222.053 4.94011 222.604 15.9966 225.35 14.2696C228.853 12.0664 228.681 3.73706 224.487 4.99966" stroke="black" stroke-width="2" stroke-linecap="round"/>
<path d="M231.3 4.82087C231.258 6.27574 231.217 16.1865 234.031 14.8809C237.326 13.3523 236.341 0.578276 236.235 4.20905" stroke="black" stroke-width="2" stroke-linecap="round"/>
<path d="M239.701 2.04102C239.641 5.55263 239.905 9.01213 240.067 12.515C240.115 13.5748 239.989 14.3714 239.758 13.0102" stroke="black" stroke-width="2" stroke-linecap="round"/>
<path d="M238.568 2.00818C242.309 1.02597 246.517 4.92678 245.009 8.7522C244.332 10.4723 242.613 12.3106 240.932 13.108C239.623 13.7289 240.226 12.8224 239.78 12.2549" stroke="black" stroke-width="2" stroke-linecap="round"/>
</svg>
