<svg width="137" height="23" viewBox="0 0 137 23" fill="none" xmlns="http://www.w3.org/2000/svg">
<path d="M1.28076 3.65137C1.69989 7.4222 2.28401 11.1356 2.42989 14.9248C2.50203 16.7986 2.47991 18.6976 2.73689 20.5662C2.93681 22.0198 3.04604 19.9457 3.047 19.9425" stroke="black" stroke-width="2" stroke-linecap="round"/>
<path d="M20.7758 6.91712C19.2955 9.4627 20.6685 15.2017 20.8844 18.0139C20.8905 18.0938 20.873 20.7798 21.6882 20.4061C24.356 19.1834 26.9464 16.9389 29.3471 15.3422" stroke="black" stroke-width="2" stroke-linecap="round"/>
<path d="M32.5799 8.69101C32.3656 9.5139 30.8709 20.5336 34.3972 17.9937C35.822 16.9675 36.3358 14.3571 36.1752 12.7505C35.8356 9.35411 33.7371 10.8885 31.5885 10.7408" stroke="black" stroke-width="2" stroke-linecap="round"/>
<path d="M40.4917 7.21847C40.6549 10.5997 42.3999 14.6264 43.646 17.6938C44.2809 19.2567 44.8297 16.2104 44.9112 15.942C45.828 12.924 46.5136 9.8779 47.256 6.81251" stroke="black" stroke-width="2" stroke-linecap="round"/>
<path d="M50.1295 7.01036C52.3506 6.42518 54.6594 5.93999 56.9659 5.55567" stroke="black" stroke-width="2" stroke-linecap="round"/>
<path d="M49.2893 6.95241C49.1901 8.61983 47.5568 19.5224 50.4737 18.4852C53.1471 17.5345 56.2337 17.1618 59.0629 17.0495" stroke="black" stroke-width="2" stroke-linecap="round"/>
<path d="M49.6898 13.7157C49.2816 13.1072 56.2575 11.3831 56.5709 11.3018" stroke="black" stroke-width="2" stroke-linecap="round"/>
<path d="M77.9265 5.67897C73.7286 5.23958 71.3948 8.77031 75.7384 11.2374C76.5714 11.7106 81.0387 13.5343 80.2867 15.1747C79.0739 17.8205 73.0825 14.5896 71.731 14.0167" stroke="black" stroke-width="2" stroke-linecap="round"/>
<path d="M83.4923 7.13904C83.0919 4.15989 82.9133 14.2982 85.2693 15.9675C86.9361 17.1485 88.3236 13.5505 88.6305 12.4634C89.3871 9.78302 88.9143 7.22471 88.1167 4.68164" stroke="black" stroke-width="2" stroke-linecap="round"/>
<path d="M94.7726 5.6416C94.3318 8.55385 94.4703 11.5217 94.4526 14.476C94.4316 17.9635 94.086 15.3637 93.8125 13.6772" stroke="black" stroke-width="2" stroke-linecap="round"/>
<path d="M92.8525 6.60254C95.1822 9.33369 97.4363 12.1991 99.9804 14.7347C102.923 17.667 101.039 15.2776 102.453 15.4205" stroke="black" stroke-width="2" stroke-linecap="round"/>
<path d="M100.899 2.76172C100.639 7.39005 99.986 13.054 101.493 17.1628" stroke="black" stroke-width="2" stroke-linecap="round"/>
<path d="M111.084 1.85822C109.389 1.30293 104.362 4.98035 105.499 6.89016C106.613 8.75937 109.444 8.71649 110.619 10.5243C111.18 11.3879 111.242 12.3207 110.815 13.269C109.726 15.6819 108.699 13.0591 107.557 12.837" stroke="black" stroke-width="2" stroke-linecap="round"/>
<path d="M113.014 4.68187C115.532 3.74764 118.074 3.07298 120.695 2.76172" stroke="black" stroke-width="2" stroke-linecap="round"/>
<path d="M114.461 4.68164C113.662 5.77191 114.075 8.12266 114.124 9.32412C114.194 11.0648 113.691 15.5236 114.992 16.9579C115.962 18.0285 122.186 14.5717 123.575 14.158" stroke="black" stroke-width="2" stroke-linecap="round"/>
<path d="M115.911 9.48276C115.535 8.32772 121.558 6.92669 122.615 6.60254" stroke="black" stroke-width="2" stroke-linecap="round"/>
<path d="M125.511 4.68187C125.229 4.54167 128.769 3.41123 128.875 3.3836C131.24 2.77084 132.854 2.57972 135.096 2.95084" stroke="black" stroke-width="2" stroke-linecap="round"/>
<path d="M131.255 3.72168C131.406 6.88767 131.666 10.0946 132.109 13.226C132.251 14.2329 132.748 19.3794 133.176 16.0631" stroke="black" stroke-width="2" stroke-linecap="round"/>
</svg>
