<svg width="176" height="19" viewBox="0 0 176 19" fill="none" xmlns="http://www.w3.org/2000/svg">
<path d="M2.29065 2.17378C0.876022 5.09594 1.65735 9.708 1.90406 12.8243C1.93384 13.2004 2.02493 19.2105 2.12032 16.4542" stroke="black" stroke-width="2" stroke-linecap="round"/>
<path d="M17.0361 3.43138C16.2797 5.53343 15.3246 15.6777 20.2577 14.7147C24.608 13.8654 23.2354 5.4401 23.1122 2.89412" stroke="black" stroke-width="2" stroke-linecap="round"/>
<path d="M31.1177 3.30498C30.2759 2.63358 28.4264 4.43346 27.7893 4.94571C23.3589 8.50799 31.4565 8.14464 32.1875 11.1182C32.8696 13.8928 30.0977 15.1175 28.0301 15.0715C25.7573 15.0209 25.9684 14.3301 27.5776 13.3417" stroke="black" stroke-width="2" stroke-linecap="round"/>
<path d="M34.5607 4.29177C36.3173 3.8097 37.9769 3.25263 39.6269 2.46591" stroke="black" stroke-width="2" stroke-linecap="round"/>
<path d="M34.5605 4.29102C34.5083 7.26139 34.6121 10.2239 34.8307 13.1889C34.8928 14.0311 34.5464 15.926 35.8529 15.1349C37.4994 14.1379 41.8309 13.5637 42.2973 12.0351" stroke="black" stroke-width="2" stroke-linecap="round"/>
<path d="M36.4634 8.35904C36.1109 8.34684 38.1019 7.5425 38.4196 7.31497C39.1851 6.76661 39.7216 5.83559 40.5225 5.49772" stroke="black" stroke-width="2" stroke-linecap="round"/>
<path d="M44.5894 3.6377C45.3313 6.98701 45.8605 10.2642 45.8425 13.6883C45.8286 16.3302 46.2056 12.9933 46.2923 12.2565" stroke="black" stroke-width="2" stroke-linecap="round"/>
<path d="M44.5738 4.08613C44.799 2.73076 49.4911 5.03683 49.9816 5.39417C54.686 8.82181 46.8253 12.506 44.2435 13.6317" stroke="black" stroke-width="2" stroke-linecap="round"/>
<path d="M63.5763 4.39882C66.3385 4.27553 68.9372 4.00336 71.6061 3.67611" stroke="black" stroke-width="2" stroke-linecap="round"/>
<path d="M68.2328 3.55872C66.9444 4.79909 67.4631 15.1556 68.1928 15.5645" stroke="black" stroke-width="2" stroke-linecap="round"/>
<path d="M73.9471 6.49073C71.7853 6.65866 72.4036 11.7936 72.7751 12.9243C73.4265 14.9071 75.2604 15.4961 76.9037 13.8001C77.8651 12.8079 78.721 11.1616 78.2184 9.77381C76.9636 6.30888 75.9006 8.69548 73.566 5.74463" stroke="black" stroke-width="2" stroke-linecap="round"/>
<path d="M91.6621 2.43848C92.1251 3.98086 92.4363 5.47812 92.6237 7.08517C92.8255 8.81639 92.2148 14.052 93.5449 15.3447C94.7075 16.4746 98.5254 12.0197 99.3531 11.5063" stroke="black" stroke-width="2" stroke-linecap="round"/>
<path d="M101.762 2.78786C101.396 6.12673 101.484 9.2261 101.968 12.5212C102.072 13.2272 102.569 14.823 101.957 14.8018" stroke="black" stroke-width="2" stroke-linecap="round"/>
<path d="M106.618 3.95605C107.345 7.46957 106.243 12.1718 108.237 15.0186" stroke="black" stroke-width="2" stroke-linecap="round"/>
<path d="M114.458 5.22817C113.249 5.75726 105.005 9.57879 108.096 10.8297C110.461 11.787 112.999 12.1701 115.302 13.2621" stroke="black" stroke-width="2" stroke-linecap="round"/>
<path d="M116.647 3.30311C118.052 3.10638 119.326 2.76612 120.679 2.44206" stroke="black" stroke-width="2" stroke-linecap="round"/>
<path d="M116.647 3.30273C116.737 6.10097 116.887 9.3319 117.388 12.0487C118.118 15.9995 122.114 13.6766 124.268 14.3779" stroke="black" stroke-width="2" stroke-linecap="round"/>
<path d="M117.404 10.3332C119.699 9.16929 122.254 8.78319 124.504 7.57707" stroke="black" stroke-width="2" stroke-linecap="round"/>
<path d="M139.699 2.27246C139.676 5.51084 140.091 8.74864 140.252 11.9867C140.284 12.6141 139.755 15.1065 141.292 14.0595" stroke="black" stroke-width="2" stroke-linecap="round"/>
<path d="M139.772 4.36574C142.967 3.963 144.777 5.7684 142.575 8.54782C142.192 9.03073 138.187 11.5571 139.724 12.0465C141.127 12.4928 146.129 13.9115 147.319 13.4068" stroke="black" stroke-width="2" stroke-linecap="round"/>
<path d="M148.659 3.58339C149.765 2.55875 152.182 2.43027 153.679 3.10177" stroke="black" stroke-width="2" stroke-linecap="round"/>
<path d="M148.955 3.59323C148.385 5.83264 148.129 10.7392 150.07 12.2875C151.645 13.5445 157.854 11.3997 156.042 12.2602" stroke="black" stroke-width="2" stroke-linecap="round"/>
<path d="M147.522 7.54628C150.195 7.31991 152.853 6.96588 155.551 6.82357" stroke="black" stroke-width="2" stroke-linecap="round"/>
<path d="M160.876 1.00417C160.309 4.33378 161.084 7.56915 162.056 10.8704C162.492 12.3504 162.43 12.4917 162.171 11.0733" stroke="black" stroke-width="2" stroke-linecap="round"/>
<path d="M160.753 1.07775C162.038 0.747188 164.188 1.89719 165.265 2.429C167.811 3.68671 169.691 5.70717 167.812 8.55451C167.16 9.54264 160.269 15.0792 160.369 12.1913" stroke="black" stroke-width="2" stroke-linecap="round"/>
<path d="M174.411 11.2089C174.394 11.6993 174.399 11.555 174.437 10.4785" stroke="black" stroke-width="2" stroke-linecap="round"/>
</svg>
