<svg width="398" height="26" viewBox="0 0 398 26" fill="none" xmlns="http://www.w3.org/2000/svg">
<path d="M5.80441 7.91121C3.60743 12.576 2.66794 17.3586 1.4306 22.359C0.582488 25.7865 1.58768 21.4366 1.80837 20.4892" stroke="black" stroke-width="2" stroke-linecap="round"/>
<path d="M5.74042 10.0538C6.38446 9.47684 9.72353 19.2266 10.1093 20.4902C10.4518 21.6124 10.6185 23.9406 10.6185 23.9406" stroke="black" stroke-width="2" stroke-linecap="round"/>
<path d="M1.77514 16.3208C-0.553551 16.2509 6.6527 16.0433 8.69285 17.5284" stroke="black" stroke-width="2" stroke-linecap="round"/>
<path d="M8.85154 12.2387C11.7248 12.2695 15.8017 10.6249 18.3939 11.8561" stroke="black" stroke-width="2" stroke-linecap="round"/>
<path d="M14.1738 11.3389C14.2305 15.5226 16.025 20.226 15.9088 24.0988" stroke="black" stroke-width="2" stroke-linecap="round"/>
<path d="M40.7194 8.95906C37.8947 11.0601 37.5641 17.5822 36.8358 20.6489C36.6121 21.5909 36.3077 24.4019 36.0891 23.4575C35.9562 22.883 36.2939 21.8837 36.3751 21.2852" stroke="black" stroke-width="2" stroke-linecap="round"/>
<path d="M38.54 11.0117C41.6386 14.6 41.5656 20.9937 43.4174 24.925" stroke="black" stroke-width="2" stroke-linecap="round"/>
<path d="M36.2117 18.0202C39.1101 18.7554 41.0809 18.4909 43.6396 17.5182" stroke="black" stroke-width="2" stroke-linecap="round"/>
<path d="M58.7061 9.49902C59.2854 13.7012 59.7719 17.9332 60.2191 22.1639C60.4979 24.8006 60.3984 22.2243 60.4283 21.2284" stroke="black" stroke-width="2" stroke-linecap="round"/>
<path d="M58.6748 10.5566C59.6391 12.224 60.5609 13.9664 61.8693 15.418C63.5414 17.2731 64.017 16.4316 65.8905 17.1272" stroke="black" stroke-width="2" stroke-linecap="round"/>
<path d="M69.2786 9.81577C67.3176 10.7715 65.8719 14.33 64.4294 15.9996C64.2383 16.2208 63.6427 16.8599 63.8178 16.6245C64.292 15.9871 64.8186 15.3941 65.2966 14.7597C66.1107 13.6791 67.3725 10.804 68.6338 10.2322C69.1241 10.0099 68.9121 11.3215 68.94 11.8808C69.0727 14.5408 69.184 17.2024 69.3328 19.8614C69.406 21.1679 69.8078 27.738 69.9527 22.9098" stroke="black" stroke-width="2" stroke-linecap="round"/>
<path d="M73.494 10.7614C73.4022 13.8202 73.1085 22.6393 77.7189 22.7777C83.7437 22.9586 81.3945 12.2049 81.0472 9.11077" stroke="black" stroke-width="2" stroke-linecap="round"/>
<path d="M89.1826 8.37249C88.1126 7.57675 82.4864 12.5389 86.5295 14.8128C88.4944 15.9179 91.5315 17.1867 89.5814 20.0559C88.9525 20.9813 88.0823 21.6767 87.0082 21.9105C85.2783 22.287 85.7838 21.0474 85.0225 20.2008" stroke="black" stroke-width="2" stroke-linecap="round"/>
<path d="M94.6797 10.5785C97.2893 10.5903 99.619 10.2003 102.118 9.74281" stroke="black" stroke-width="2" stroke-linecap="round"/>
<path d="M94.7114 9.52051C94.8887 13.0134 94.9804 16.5033 95.0244 20.0023C95.0361 20.9381 94.4673 23.9408 96.0463 23.1965C98.6111 21.9876 101.145 20.8283 103.916 20.4001" stroke="black" stroke-width="2" stroke-linecap="round"/>
<path d="M95.5793 15.9003C95.541 15.8836 100.504 14.0767 100.933 13.943" stroke="black" stroke-width="2" stroke-linecap="round"/>
<path d="M106.5 8.81508C106.252 10.92 105.42 21.9889 109.701 21.6016C114.47 21.17 113.738 12.7107 113.326 9.79958" stroke="black" stroke-width="2" stroke-linecap="round"/>
<path d="M117.176 9.13631C116.57 12.356 116.964 15.5612 117.404 18.8C117.732 21.2179 117.949 21.5952 116.877 19.0896" stroke="black" stroke-width="2" stroke-linecap="round"/>
<path d="M116.93 10.1875C117.325 11.1399 118.415 11.953 119.184 12.5503C121.118 14.0521 121.3 13.3828 123.198 13.0533" stroke="black" stroke-width="2" stroke-linecap="round"/>
<path d="M124.509 9.97471C126.1 8.44292 121.751 13.4425 120.303 15.1151C118.615 17.0635 123.382 10.7969 125.563 9.45518C126.58 8.82961 126.149 13.1283 126.189 13.8628C126.343 16.6409 126.514 19.422 126.938 22.1731C127.268 24.3192 127.087 22.5568 127.029 21.8084" stroke="black" stroke-width="2" stroke-linecap="round"/>
<path d="M139.212 8.73828C139.157 11.9961 139.278 15.2496 139.253 18.5071C139.251 18.6868 139.201 20.5805 139.236 21.0084C139.318 21.9948 139.618 21.0467 139.906 20.898" stroke="black" stroke-width="2" stroke-linecap="round"/>
<path d="M144.471 9.95508C144.375 13.152 144.278 16.3622 144.183 19.5524C144.121 21.6217 144.173 19.8767 144.191 19.2628" stroke="black" stroke-width="2" stroke-linecap="round"/>
<path d="M144.407 12.0713C146.114 13.4415 147.364 16.0211 148.628 17.791C148.771 17.9907 150.383 20.355 151.011 20.7212C151.329 20.9062 151.252 19.8852 151.59 19.7442" stroke="black" stroke-width="2" stroke-linecap="round"/>
<path d="M151.615 6.99272C150.063 8.00038 151.309 13.739 151.327 15.2552C151.335 15.8629 150.708 21.8258 151.616 18.8734" stroke="black" stroke-width="2" stroke-linecap="round"/>
<path d="M168.933 6.45312C169.275 11.7324 169.844 27.5985 169.252 22.369" stroke="black" stroke-width="2" stroke-linecap="round"/>
<path d="M167.811 8.53809C170.623 8.62251 177.852 10.5284 174.009 14.3822C172.063 16.333 169.741 16.4505 167.609 15.2428" stroke="black" stroke-width="2" stroke-linecap="round"/>
<path d="M179.775 7.83792C178.851 12.4135 179.69 17.0039 180.126 21.6153" stroke="black" stroke-width="2" stroke-linecap="round"/>
<path d="M183.137 10.0568C180.458 9.97641 188.409 9.26436 191.088 9.23648" stroke="black" stroke-width="2" stroke-linecap="round"/>
<path d="M186.824 10.168C186.769 12.6213 186.666 15.0882 186.818 17.54C186.938 19.4654 187.232 18.9038 187.596 19.722" stroke="black" stroke-width="2" stroke-linecap="round"/>
<path d="M192.082 11.3846C192.939 9.00418 198.133 9.26862 199.545 9.71538" stroke="black" stroke-width="2" stroke-linecap="round"/>
<path d="M195.288 10.4219C195.377 13.4665 194.771 20.3408 197.055 22.1238" stroke="black" stroke-width="2" stroke-linecap="round"/>
<path d="M209.132 7.88073C208.624 4.7996 201.7 7.79382 201.795 9.38937C201.837 10.0987 204.105 11.5066 204.417 11.8185C205.605 13.0066 208.004 15.3637 206.824 17.2328C205.945 18.6261 203.644 18.0963 202.448 17.5482C201.054 16.9091 201.442 16.6106 201.752 15.7013" stroke="black" stroke-width="2" stroke-linecap="round"/>
<path d="M212.312 7.75586C212.258 9.55392 211.958 19.5246 211.962 19.393" stroke="black" stroke-width="2" stroke-linecap="round"/>
<path d="M212.908 8.19939C212.746 7.23975 216.262 8.09003 216.426 9.59636C216.655 11.6917 212.827 13.0362 211.438 13.1871C209.559 13.3913 215.811 12.6721 217.006 14.2894C218.281 16.0155 215.96 17.595 214.908 18.2118C214.338 18.5457 213.733 18.8315 213.104 18.9814C208.326 20.1204 214.471 18.4351 211.888 18.1879" stroke="black" stroke-width="2" stroke-linecap="round"/>
<path d="M221.799 9.52541C221.875 6.99257 221.472 14.7714 222.484 17.097C223.236 18.8259 224.596 19.3608 225.908 17.6949C228.3 14.6566 227.743 11.7144 228.182 8.23156" stroke="black" stroke-width="2" stroke-linecap="round"/>
<path d="M231.388 7.26953C232.401 10.5514 231.786 14.3343 231.983 17.7029C232.111 19.8825 232.16 18.7614 231.988 17.5344" stroke="black" stroke-width="2" stroke-linecap="round"/>
<path d="M232.105 10.9043C232.355 9.23266 232.987 8.51794 234.735 7.89775C235.089 7.77227 238.275 6.78992 238.346 8.17753C238.448 10.2027 233.247 12.4418 231.532 12.7727C230.103 13.0485 233.97 15.0976 234.068 15.1629C236.024 16.4679 237.983 17.8314 240.044 18.9849C241.349 19.7154 239.804 18.3012 239.577 18.0709" stroke="black" stroke-width="2" stroke-linecap="round"/>
<path d="M250.826 5.73462C248.018 7.1062 242.629 10.943 244.195 14.7795C245.43 17.8058 249.718 15.1771 251.305 14.0685" stroke="black" stroke-width="2" stroke-linecap="round"/>
<path d="M244.954 14.4525C244.585 14.1663 251.601 10.2193 251.329 13.1493C251.204 14.4949 251.226 15.8603 251.185 17.2101C251.171 17.6688 251.122 19.3182 251.165 17.8671" stroke="black" stroke-width="2" stroke-linecap="round"/>
<path d="M254.886 5.85628C254.463 9.08286 254.606 12.1978 254.798 15.438C256.103 37.3605 253.957 1.72506 254.948 18.7844C255.071 20.8922 254.999 19.1012 255.389 19.113" stroke="black" stroke-width="2" stroke-linecap="round"/>
<path d="M255.564 13.2899C257.567 11.8809 259.687 11.8812 261.976 11.3644" stroke="black" stroke-width="2" stroke-linecap="round"/>
<path d="M262.889 6.09685C261.674 6.52555 262.104 11.8383 262.093 12.9027C262.077 14.4366 262.108 15.974 262.242 17.4997C262.401 19.3048 262.266 18.9277 262.833 18.1062" stroke="black" stroke-width="2" stroke-linecap="round"/>
<path d="M280.817 8.28618C280.429 8.87458 280.716 9.55947 280.836 10.2063C281.297 12.6832 281.449 15.175 281.755 17.672C282.261 21.8124 284.083 13.2328 284.94 12.8488C286.535 12.1339 289.518 23.0503 289.487 14.9048C289.479 12.7584 289.462 10.6074 289.371 8.46297C289.316 7.16599 289.48 8.65499 289.512 8.90711" stroke="black" stroke-width="2" stroke-linecap="round"/>
<path d="M294.832 5.08203C294.792 9.53946 295.289 14.0263 295.818 18.4546C296.266 22.2096 296.426 19.0659 296.474 17.4767" stroke="black" stroke-width="2" stroke-linecap="round"/>
<path d="M296.754 8.16025C299.439 7.31606 302.151 5.97702 304.859 6.45974" stroke="black" stroke-width="2" stroke-linecap="round"/>
<path d="M300.807 7.27539C301.322 9.35003 301.722 11.4359 302.051 13.5341C302.199 14.4764 302.274 15.426 302.458 16.3643C302.49 16.5229 302.427 15.7741 302.562 15.8916" stroke="black" stroke-width="2" stroke-linecap="round"/>
<path d="M308.915 5.50488C308.874 9.2332 309.221 12.922 309.979 16.6297C310.136 17.396 310.495 19.9607 310.56 17.779" stroke="black" stroke-width="2" stroke-linecap="round"/>
<path d="M308.753 11.5417C308.342 10.2299 315.662 9.87436 316.841 9.77084" stroke="black" stroke-width="2" stroke-linecap="round"/>
<path d="M314.98 4.68066C315.245 7.48584 315.666 10.2834 316.059 13.0745C316.072 13.1691 316.48 16.0623 316.614 16.742C316.683 17.0916 316.51 16.0345 316.521 15.6793" stroke="black" stroke-width="2" stroke-linecap="round"/>
<path d="M330.524 5.25395C332.118 5.2675 339.202 3.885 339.6 4.7917" stroke="black" stroke-width="2" stroke-linecap="round"/>
<path d="M331.531 5.28418C331.498 8.16737 331.668 11.0509 331.775 13.9305C331.822 15.2031 331.88 16.9612 331.962 18.2753C332.107 20.6214 332.039 18.5856 332.145 18.379" stroke="black" stroke-width="2" stroke-linecap="round"/>
<path d="M331.32 12.3253C333.642 11.6004 336.208 11.3518 338.422 10.5248" stroke="black" stroke-width="2" stroke-linecap="round"/>
<path d="M343.409 5.64062C341.362 6.18628 343.574 11.9516 343.757 12.9431C343.861 13.5063 344.172 20.188 344.275 16.784" stroke="black" stroke-width="2" stroke-linecap="round"/>
<path d="M343.557 7.13863C344.138 7.0379 348.473 5.94051 347.833 7.88662C347.561 8.71433 343.976 11.0365 344.891 11.7167C345.924 12.4834 347.867 12.6339 349.092 13.0456C350.203 13.4194 351.254 13.7739 352.414 13.9654" stroke="black" stroke-width="2" stroke-linecap="round"/>
<path d="M353.691 4.94238C353.629 8.54259 353.744 12.1077 354.488 15.67C354.686 16.6198 354.694 17.7777 355.358 16.4848" stroke="black" stroke-width="2" stroke-linecap="round"/>
<path d="M357.727 5.06395C357.515 4.95569 360.132 4.16573 360.257 4.13307C361.439 3.82404 362.625 3.5155 363.81 3.23292" stroke="black" stroke-width="2" stroke-linecap="round"/>
<path d="M358.72 5.09375C358.969 7.82836 358.949 11.4771 359.853 14.0123C360.802 16.6716 364.876 14.3242 366.518 13.6308" stroke="black" stroke-width="2" stroke-linecap="round"/>
<path d="M358.73 9.12119C358.092 8.80346 360.039 8.54116 360.735 8.36101C362.378 7.93585 364.033 7.6266 365.701 7.31682" stroke="black" stroke-width="2" stroke-linecap="round"/>
<path d="M370.822 4.4502C370.724 7.70749 370.627 10.9432 370.53 14.1949C370.436 17.3206 370.534 14.0575 370.566 12.9719" stroke="black" stroke-width="2" stroke-linecap="round"/>
<path d="M369.785 5.42578C370.384 5.75685 371.446 7.35742 371.672 7.62656C373.81 10.1663 376.25 12.3623 378.567 14.7507" stroke="black" stroke-width="2" stroke-linecap="round"/>
<path d="M377.263 3.65458C376.369 3.17621 377.141 11.2377 377.18 11.8667C377.218 12.4976 377.212 17.7944 377.558 14.8229" stroke="black" stroke-width="2" stroke-linecap="round"/>
<path d="M381.947 2.77051C382.336 6.28048 382.753 9.79292 383.193 13.2979C383.58 16.3893 383.675 14.3535 383.604 12.6243" stroke="black" stroke-width="2" stroke-linecap="round"/>
<path d="M381.917 3.77637C385.453 3.8825 387.921 5.82636 386.362 9.59216C385.76 11.0443 384.772 12.2544 383.552 13.2352C381.852 14.6009 382.852 13.3747 382.311 12.9969" stroke="black" stroke-width="2" stroke-linecap="round"/>
<path d="M396.695 1.66472C393.761 -0.453046 389.139 4.59997 392.975 5.96473C394.127 6.37445 395.945 6.56376 396.578 7.69424C397.4 9.16289 396.311 11.3522 395.107 12.3634C393.643 13.5933 391.693 13.3513 390.427 12.0533C389.008 10.5987 390.272 10.2997 390.394 8.94147" stroke="black" stroke-width="2" stroke-linecap="round"/>
</svg>
