<svg width="166" height="55" viewBox="0 0 166 55" fill="none" xmlns="http://www.w3.org/2000/svg">
<path d="M3.69106 4.11989C2.62239 5.13864 3.49273 8.87018 3.61503 10.0029C4.13292 14.7993 4.5317 19.5094 4.75997 24.322" stroke="black" stroke-width="2" stroke-linecap="round"/>
<path d="M2.86032 6.4274C3.13275 4.60343 10.4955 6.31127 11.2325 7.87788C12.8372 11.2887 3.05831 14.6266 1.09587 15.3095" stroke="black" stroke-width="2" stroke-linecap="round"/>
<path d="M18.3811 6.41113C15.8066 8.51319 14.8576 13.55 13.8712 16.5209C13.8101 16.7049 11.5983 23.513 12.6182 20.2417" stroke="black" stroke-width="2" stroke-linecap="round"/>
<path d="M17.5771 7.55566C17.7941 12.6395 19.8184 17.8689 21.0934 22.7722" stroke="black" stroke-width="2" stroke-linecap="round"/>
<path d="M13.1079 15.9849C15.9904 15.9609 18.3827 15.1323 20.9194 13.8437" stroke="black" stroke-width="2" stroke-linecap="round"/>
<path d="M29.9315 10.1787C27.3095 7.74504 25.2323 13.1657 25.1092 15.3231C24.9356 18.3651 28.1599 18.9223 30.5123 18.3408C32.5576 17.8352 33.6188 16.4587 34.8615 14.9527" stroke="black" stroke-width="2" stroke-linecap="round"/>
<path d="M38.9431 6.51398C38.4354 9.38677 38.7163 12.3356 38.7129 15.2387C38.7125 15.567 38.6704 17.552 38.7095 18.0841C38.8086 19.4328 38.8955 18.4064 39.4312 18.554" stroke="black" stroke-width="2" stroke-linecap="round"/>
<path d="M41.6392 7.35487C41.9832 7.02691 44.307 7.00982 44.6667 6.95303C46.0561 6.73367 47.3251 6.37934 48.6565 5.97064" stroke="black" stroke-width="2" stroke-linecap="round"/>
<path d="M42.4146 7.37305C43.7467 11.2861 44.2834 15.4514 45.2294 19.4687" stroke="black" stroke-width="2" stroke-linecap="round"/>
<path d="M44.2334 12.4614C44.9382 10.9725 49.7389 10.8049 51.26 10.6894" stroke="black" stroke-width="2" stroke-linecap="round"/>
<path d="M54.104 5.3252C54.7771 6.03131 54.3501 9.75091 54.3661 10.5912C54.4128 13.0395 54.579 15.3576 54.9706 17.7623" stroke="black" stroke-width="2" stroke-linecap="round"/>
<path d="M65.3125 7.14484C64.8574 6.80978 64.7528 6.22359 64.4837 5.74542C63.2811 3.6082 61.8717 5.29051 61.5402 7.14085C61.0387 9.94081 61.6621 13.2813 63.386 15.5919C65.0249 17.7887 66.2551 16.3512 67.8323 15.3533" stroke="black" stroke-width="2" stroke-linecap="round"/>
<path d="M85.2019 2.96418C84.6922 6.16843 85.1063 9.37046 85.1008 12.5974C85.0973 14.6739 84.7983 19.8405 84.7753 20.8025" stroke="black" stroke-width="2" stroke-linecap="round"/>
<path d="M83.9819 5.26317C85.833 5.60492 94.0525 7.14144 91.8157 10.3007C89.7914 13.1596 85.0275 13.722 81.8297 14.136" stroke="black" stroke-width="2" stroke-linecap="round"/>
<path d="M97.2227 3.2524C96.1622 6.60874 95.0649 9.95414 93.9219 13.2833C93.4843 14.5576 92.6554 15.7639 92.6232 17.1108" stroke="black" stroke-width="2" stroke-linecap="round"/>
<path d="M97.186 4.80371C98.7519 9.55673 99.9789 14.3997 101.109 19.2539" stroke="black" stroke-width="2" stroke-linecap="round"/>
<path d="M93.898 12.4849C94.8724 11.2484 97.4743 11.376 98.8902 11.0523C99.9568 10.8084 102.097 10.353 102.097 10.353" stroke="black" stroke-width="2" stroke-linecap="round"/>
<path d="M103.816 3.40932C103.126 6.47632 103.954 9.69453 104.195 12.7738C104.251 13.4866 103.866 15.7852 104.285 16.2249" stroke="black" stroke-width="2" stroke-linecap="round"/>
<path d="M103.722 7.28778C104.965 6.47784 110.012 3.49503 111.404 5.18652C112.718 6.78349 108.38 10.0026 107.394 10.609C105.347 11.8684 109.518 12.8682 110.728 13.6204C111.487 14.0921 115.901 17.6793 113.629 14.8969" stroke="black" stroke-width="2" stroke-linecap="round"/>
<path d="M118.967 2.608C118.546 0.205818 117.698 7.32374 117.266 9.72399C117.182 10.1909 115.741 17.2841 116.731 14.9709" stroke="black" stroke-width="2" stroke-linecap="round"/>
<path d="M119.374 1.8418C121.379 5.06913 122 9.70138 122.979 13.3097C123.239 14.2673 124.049 17.2456 124.025 18.2495" stroke="black" stroke-width="2" stroke-linecap="round"/>
<path d="M116.445 10.6957C118.765 10.1386 121.122 9.75473 123.463 9.31146" stroke="black" stroke-width="2" stroke-linecap="round"/>
<path d="M127.849 4.37305C127.965 8.41292 129.016 20.472 129.113 16.4316" stroke="black" stroke-width="2" stroke-linecap="round"/>
<path d="M126.658 5.50773C129.491 5.39288 136.737 6.3861 136.15 10.6064C135.601 14.5541 129.859 15.7727 126.776 16.7629" stroke="black" stroke-width="2" stroke-linecap="round"/>
<path d="M140.683 3.12707C139.855 7.72402 140.487 21.6723 141.513 17.1153" stroke="black" stroke-width="2" stroke-linecap="round"/>
<path d="M150.359 4.13449C149.713 1.51887 142.64 4.43531 147.035 7.9351C148.674 9.2402 153.532 11.3992 151.366 14.3331C149.589 16.739 146.433 13.8028 145.114 12.5453" stroke="black" stroke-width="2" stroke-linecap="round"/>
<path d="M155.373 5.41853C156.682 4.06726 159.151 3.18081 160.858 3.22163" stroke="black" stroke-width="2" stroke-linecap="round"/>
<path d="M154.238 4.22754C154.963 5.90224 156.145 14.5548 157.557 14.1796C159.997 13.5307 162.457 12.7945 164.91 12.243" stroke="black" stroke-width="2" stroke-linecap="round"/>
<path d="M156.443 9.32488C158.223 7.91227 160.203 7.40085 162.325 6.74946" stroke="black" stroke-width="2" stroke-linecap="round"/>
<path d="M4.48242 35.9551C4.44209 39.8344 4.79367 43.6869 4.89464 47.5622C4.91998 48.5348 4.84183 53.3759 4.93342 49.5463" stroke="black" stroke-width="2" stroke-linecap="round"/>
<path d="M9.47705 38.0146C10.55 40.3391 11.2434 43.8329 14.0007 43.555" stroke="black" stroke-width="2" stroke-linecap="round"/>
<path d="M32.1323 35.8838C33.2192 38.2385 33.9217 41.7778 36.7149 41.4963" stroke="black" stroke-width="2" stroke-linecap="round"/>
<path d="M19.2179 36.3073C17.3034 38.4082 14.4155 39.8268 12.7213 42.0583C12.7081 42.0757 13.6355 42.0702 13.7749 42.1697C14.1773 42.4571 14.1714 43.5669 14.2286 43.9266C14.6719 46.7131 15.0389 49.49 15.3434 52.2955C15.5528 54.2239 15.5055 54.17 15.3383 52.511" stroke="black" stroke-width="2" stroke-linecap="round"/>
<path d="M41.9999 34.154C40.0604 36.2823 37.135 37.7194 35.4186 39.9799C35.4053 39.9975 36.3448 39.992 36.486 40.0928C36.8936 40.3839 36.8877 41.5081 36.9457 41.8726C37.3946 44.6954 37.7664 47.5085 38.075 50.3505C38.287 52.3041 38.2391 52.2494 38.0697 50.5688" stroke="black" stroke-width="2" stroke-linecap="round"/>
<path d="M21.1846 35.1904C22.4769 38.9045 22.7513 50.8019 22.8453 46.8705" stroke="black" stroke-width="2" stroke-linecap="round"/>
<path d="M28.9129 36.54C26.6245 37.4823 25.2036 39.3137 23.6711 41.2001C22.267 42.9286 22.2677 42.5223 23.872 42.7139C25.7967 42.9437 27.6318 43.8476 29.3655 44.656C30.6363 45.2485 31.9949 46.412 31.0449 44.7392" stroke="black" stroke-width="2" stroke-linecap="round"/>
<path d="M45.3335 33.0001C45.4014 32.9682 46.9252 41.7115 47.0268 42.4175C47.06 42.6482 47.7596 48.5148 47.3356 46.6284" stroke="black" stroke-width="2" stroke-linecap="round"/>
<path d="M53.8283 34.7554C51.8139 37.1039 49.7125 39.2521 47.3778 41.2835C45.4049 43.0002 46.5542 42.5998 48.4517 43.2493C50.3966 43.915 55.0449 45.8989 55.849 47.6081" stroke="black" stroke-width="2" stroke-linecap="round"/>
<path d="M60.9362 45.79C60.454 45.832 60.4258 46.0496 60.1606 45.7715" stroke="black" stroke-width="2" stroke-linecap="round"/>
</svg>
