<svg width="250" height="27" viewBox="0 0 250 27" fill="none" xmlns="http://www.w3.org/2000/svg">
<path d="M8.99344 7.40565C8.53429 6.87747 9.49489 8.71363 9.69995 9.38276C10.9562 13.4818 11.6839 18.3575 10.7899 22.6064C10.161 25.5954 8.19611 26.7172 5.38625 25.5426C2.56502 24.3633 2.28505 23.0414 1.44847 20.5238" stroke="black" stroke-width="2" stroke-linecap="round"/>
<path d="M16.8967 11.4667C18.833 11.0813 20.8409 10.9606 22.7977 10.7096" stroke="black" stroke-width="2" stroke-linecap="round"/>
<path d="M17.3656 10.3297C17.034 12.4236 15.0119 24.255 18.7688 23.0988C19.45 22.8892 24.3798 21.3434 22.868 20.8512" stroke="black" stroke-width="2" stroke-linecap="round"/>
<path d="M15.7138 17.2326C17.688 16.8149 19.6899 16.5419 21.642 16.0875" stroke="black" stroke-width="2" stroke-linecap="round"/>
<path d="M28.2295 11.0894C24.8513 12.8081 27.2998 24.2169 30.5408 22.644C32.8869 21.5054 33.7959 17.1079 32.9229 14.9047C32.4365 13.6772 31.7105 13.0779 30.5793 12.4883C28.5168 11.4132 29.5744 12.4942 28.897 12.6956" stroke="black" stroke-width="2" stroke-linecap="round"/>
<path d="M36.0161 11.2441C37.0055 14.3253 36.9256 17.6825 36.902 20.8797C36.8785 24.0726 37.1504 21.8835 36.9442 20.2762" stroke="black" stroke-width="2" stroke-linecap="round"/>
<path d="M36.2412 13.5986C37.614 14.2623 38.7282 15.8756 39.7346 16.9185C40.3443 17.5504 40.9324 18.2076 41.5971 18.7815C52.2805 28.0063 38.1384 15.9102 43.6211 19.5728" stroke="black" stroke-width="2" stroke-linecap="round"/>
<path d="M43.1897 9.01583C40.6752 10.7544 42.5192 19.2381 43.0977 21.4854" stroke="black" stroke-width="2" stroke-linecap="round"/>
<path d="M55.4614 6.3646C52.5588 3.51972 49.9341 9.32434 49.1206 11.5529C48.4294 13.4462 47.1634 17.2022 48.9501 18.9486C51.3537 21.2979 54.3574 17.866 55.1678 15.8311C55.5699 14.8214 55.1366 12.8697 55.0302 14.3919C54.9527 15.4997 55.7614 16.5739 56.0172 17.6232C56.5051 19.6246 57.1973 25.7938 56.84 20.1066" stroke="black" stroke-width="2" stroke-linecap="round"/>
<path d="M52.9516 14.3771C54.9637 14.3351 60.8874 13.3724 58.8798 13.232" stroke="black" stroke-width="2" stroke-linecap="round"/>
<path d="M73.6873 6.71376C72.716 7.97105 73.7643 12.7492 73.7926 14.1515C73.8198 15.5033 73.7989 18.2888 73.9087 19.7143C73.9526 20.2851 73.9835 20.867 74.1505 21.4145C74.9266 23.9599 74.2069 20.6377 75.2178 21.9701" stroke="black" stroke-width="2" stroke-linecap="round"/>
<path d="M82.5517 9.93028C81.8611 9.26796 79.6162 11.3297 79.3616 11.5348C78.993 11.8317 74.1829 16.2466 74.2672 16.3006C76.6817 17.8453 80.877 19.7884 83.6122 19.5268" stroke="black" stroke-width="2" stroke-linecap="round"/>
<path d="M89.5346 9.1198C89.4797 8.11384 89.7088 12.1993 89.7551 12.5017C90.0543 14.4568 90.1027 16.8714 91.0069 18.673C91.6134 19.8815 92.4613 16.6277 92.709 16.3393C95.1311 13.5189 98.9492 21.3933 99.5386 15.3018C99.7715 12.8944 99.4237 10.4561 99.5652 8.04159C99.6415 6.74095 99.589 6.92804 100.023 7.68883" stroke="black" stroke-width="2" stroke-linecap="round"/>
<path d="M109.74 4.90582C107.348 8.76371 105.73 13.0718 104.3 17.3664C102.88 21.6288 105 16.6358 105.541 15.4332" stroke="black" stroke-width="2" stroke-linecap="round"/>
<path d="M108.817 5.70703C110.011 7.55477 110.483 10.7347 111.115 12.7449C111.919 15.3034 112.856 17.9409 113.854 20.3428" stroke="black" stroke-width="2" stroke-linecap="round"/>
<path d="M104.83 13.2192C107.199 11.92 110.62 11.6418 113.224 10.7762" stroke="black" stroke-width="2" stroke-linecap="round"/>
<path d="M118.293 6.36914C118.539 10.3359 118.473 14.3179 118.759 18.2807C119.001 21.6266 118.588 16.1572 118.523 15.4747" stroke="black" stroke-width="2" stroke-linecap="round"/>
<path d="M118.022 10.2462C119.134 5.4188 126.137 17.784 126.676 16.4781" stroke="black" stroke-width="2" stroke-linecap="round"/>
<path d="M125.306 5.12855C124.802 5.19328 125.864 13.811 126.021 14.8453C126.337 16.9087 126.61 17.4395 126.767 15.186" stroke="black" stroke-width="2" stroke-linecap="round"/>
<path d="M143.486 4.45703C143.903 7.81221 144.016 11.1773 144.123 14.5546C144.158 15.6581 143.981 18.9491 144.194 17.8659C144.244 17.611 145.684 16.5563 145.876 16.3723C147.015 15.2793 148.254 14.2709 149.512 13.337" stroke="black" stroke-width="2" stroke-linecap="round"/>
<path d="M153.729 4.87109C154.046 8.09527 154.602 11.2775 154.986 14.4918C155.022 14.7899 155.303 17.6059 155.077 15.8408" stroke="black" stroke-width="2" stroke-linecap="round"/>
<path d="M158.497 5.80895C159.294 8.39933 159.983 11.0235 160.891 13.5791C161.554 15.4449 161.877 15.5439 162.483 13.6065C163.148 11.4822 163.123 6.12295 165.195 5.06881" stroke="black" stroke-width="2" stroke-linecap="round"/>
<path d="M169.466 4.46032C170.567 5.44689 174.556 4.09639 175.563 3.67814" stroke="black" stroke-width="2" stroke-linecap="round"/>
<path d="M169.145 4.74049C167.689 6.55019 168.125 10.3411 168.201 12.4787C168.256 14.025 168.26 15.7338 170.33 15.6317C172.172 15.5409 174.324 14.5955 176.051 13.9841" stroke="black" stroke-width="2" stroke-linecap="round"/>
<path d="M166.858 11.5287C169.174 10.8021 171.6 10.2627 173.682 8.98482" stroke="black" stroke-width="2" stroke-linecap="round"/>
<path d="M183.98 4.26665C181.352 2.5286 177.538 7.50886 181.165 9.49077C182.14 10.0238 185.917 10.9795 185.305 12.6837C184.881 13.8658 183.384 14.8272 182.218 15.0693C180.717 15.3811 180.497 14.48 179.379 13.9141" stroke="black" stroke-width="2" stroke-linecap="round"/>
<path d="M199.94 3.10254C200.387 6.8908 200.522 10.6559 200.657 14.4644C200.744 16.9321 200.988 16.5564 201.847 14.7155" stroke="black" stroke-width="2" stroke-linecap="round"/>
<path d="M200.618 10.7019C202.812 9.40898 205.872 9.31121 208.301 8.82229" stroke="black" stroke-width="2" stroke-linecap="round"/>
<path d="M207.735 3.94962C207.417 4.31709 207.684 5.29559 207.721 5.59337C208.039 8.1539 208.38 10.7071 208.627 13.2763C208.672 13.746 208.426 18.3141 209.516 17.3664" stroke="black" stroke-width="2" stroke-linecap="round"/>
<path d="M212.804 4.90841C214.519 4.15361 216.78 4.1126 218.621 3.80459" stroke="black" stroke-width="2" stroke-linecap="round"/>
<path d="M213.126 4.62835C212.568 6.06418 212.457 7.65008 212.405 9.17654C212.354 10.6513 211.92 14.0707 213.154 15.2708C214.771 16.8437 218.506 13.7763 219.773 13.2497" stroke="black" stroke-width="2" stroke-linecap="round"/>
<path d="M212.342 11.5217C214.448 9.90225 217.02 9.53413 219.487 8.69822" stroke="black" stroke-width="2" stroke-linecap="round"/>
<path d="M223.494 3.23828C224.726 5.34072 224.608 8.03576 224.621 10.3996C224.629 11.8191 224.597 12.6653 224.533 14.0522C224.517 14.4202 224.494 14.7879 224.473 15.1556C224.472 15.1779 224.479 15.0666 224.478 15.0888" stroke="black" stroke-width="2" stroke-linecap="round"/>
<path d="M223.242 6.84568C223.603 5.16451 227.145 5.28532 228.328 5.62368C231.71 6.59062 226.865 9.80767 225.864 10.6206C223.897 12.2188 224.568 12.7719 226.843 13.4247C228.089 13.7822 230.263 14.2809 231.155 14.6492" stroke="black" stroke-width="2" stroke-linecap="round"/>
<path d="M233.436 3.6314C235.038 2.52347 238.767 0.988278 240.498 2.01039" stroke="black" stroke-width="2" stroke-linecap="round"/>
<path d="M233.177 3.00879C233.497 6.18971 233.602 9.49179 234.233 12.6322C234.81 15.5037 235.922 15.8753 238.499 14.9947C238.899 14.8581 242.921 12.8913 241.782 13.8816" stroke="black" stroke-width="2" stroke-linecap="round"/>
<path d="M234.882 8.86822C236.873 8.50465 238.783 8.02762 240.72 7.46377" stroke="black" stroke-width="2" stroke-linecap="round"/>
<path d="M248.075 14.6244C247.8 14.5704 247.882 14.5129 247.795 14.3027" stroke="black" stroke-width="2" stroke-linecap="round"/>
</svg>
