<svg width="241" height="26" viewBox="0 0 241 26" fill="none" xmlns="http://www.w3.org/2000/svg">
<path d="M1.98615 9.68635C1.11929 11.1833 1.82541 13.7388 2.00205 15.2875C2.37482 18.556 2.60583 21.6893 2.49194 24.9469" stroke="black" stroke-width="2" stroke-linecap="round"/>
<path d="M13.8543 11.6268C17.3314 11.5224 21.9356 10.7042 24.9023 12.7059" stroke="black" stroke-width="2" stroke-linecap="round"/>
<path d="M21.466 11.8933C20.7271 15.9082 22.6712 19.7716 23.8349 23.4083" stroke="black" stroke-width="2" stroke-linecap="round"/>
<path d="M27.7664 10.0345C27.7188 11.397 27.2058 21.1006 28.4174 21.143" stroke="black" stroke-width="2" stroke-linecap="round"/>
<path d="M28.2045 17.3247C29.8293 16.3486 31.448 15.5449 33.1454 14.726" stroke="black" stroke-width="2" stroke-linecap="round"/>
<path d="M32.9443 10.5625C32.8096 14.4173 32.8024 19.7023 34.5849 23.0913" stroke="black" stroke-width="2" stroke-linecap="round"/>
<path d="M38.5288 9.37109C38.431 13.4519 38.5758 17.4813 39.1435 21.5176" stroke="black" stroke-width="2" stroke-linecap="round"/>
<path d="M43.7437 8.86133C43.6552 12.6757 43.9032 24.1168 44.0365 20.3037" stroke="black" stroke-width="2" stroke-linecap="round"/>
<path d="M43.9923 11.6411C44.2856 9.90607 46.6063 14.022 47.6906 15.4079C48.1958 16.0535 50.5709 19.8598 51.6843 19.5314" stroke="black" stroke-width="2" stroke-linecap="round"/>
<path d="M51.3549 9.12722C50.9953 12.3895 51.9485 16.0441 52.5022 19.2523C52.5945 19.7875 52.7322 21.5288 53.3778 20.6301" stroke="black" stroke-width="2" stroke-linecap="round"/>
<path d="M58.0391 6.24316C58.394 9.61189 58.654 12.9798 58.898 16.3581C59.0278 18.1558 59.0729 20.1655 59.9289 21.5521" stroke="black" stroke-width="2" stroke-linecap="round"/>
<path d="M66.2697 8.60935C66.0961 8.96581 65.745 9.02964 65.4018 9.21412C63.8138 10.0675 61.7284 11.4085 60.9733 13.1202C59.5072 16.4439 65.2194 17.9262 67.3272 17.9999" stroke="black" stroke-width="2" stroke-linecap="round"/>
<path d="M78.2249 9.47406C82.1753 8.53794 86.7875 8.95935 90.486 7.86854" stroke="black" stroke-width="2" stroke-linecap="round"/>
<path d="M85.4067 7.69043C85.6111 12.3053 86.4753 16.7958 87.3035 21.3178" stroke="black" stroke-width="2" stroke-linecap="round"/>
<path d="M92.4575 9.63281C92.4672 11.2817 92.7096 12.8986 92.8133 14.5423C92.9234 16.2872 92.3938 19.1398 93.2177 20.7531C93.3478 21.0079 93.3648 20.1984 93.4724 19.9333C93.9223 18.8237 94.3435 18.2019 95.1849 17.2809C96.2715 16.0914 97.7598 15.1438 99.0759 14.2715" stroke="black" stroke-width="2" stroke-linecap="round"/>
<path d="M98.8802 10.1957C98.628 9.92528 98.7273 9.97652 98.7476 10.7561C98.8054 12.9749 98.9663 15.206 99.1362 17.4184C99.2439 18.8208 99.1967 20.6343 100.183 21.4291" stroke="black" stroke-width="2" stroke-linecap="round"/>
<path d="M104.346 9.03061C103.633 9.00569 104.146 20.737 104.573 21.9216" stroke="black" stroke-width="2" stroke-linecap="round"/>
<path d="M115.122 11.1031C114.608 10.6075 113.998 10.3542 113.261 10.4541C110.376 10.8455 114.935 15.5634 115.468 16.2759C116.283 17.3646 118.701 20.5252 115.725 20.7864C113.199 21.0081 111.581 19.7068 109.782 18.375" stroke="black" stroke-width="2" stroke-linecap="round"/>
<path d="M129.092 7.08471C129.721 6.69671 129.485 8.50975 129.639 9.23215C130.077 11.2874 130.328 14.5131 131.903 16.1107C133.927 18.1626 134.667 11.5697 137.021 14.6321C137.987 15.8885 141.334 20.5602 142.152 16.5632C142.477 14.9787 142.76 9.31914 141.573 8.87715" stroke="black" stroke-width="2" stroke-linecap="round"/>
<path d="M149.866 4.42015C148.685 7.39407 147.855 10.4929 147.246 13.633C147.118 14.293 146.397 19.5523 147.166 15.928C147.397 14.8367 147.859 8.83518 149.046 8.45983C150.708 7.93483 154.837 17.0369 155.487 18.1777" stroke="black" stroke-width="2" stroke-linecap="round"/>
<path d="M146.814 14.1454C146.863 12.7205 151.173 11.8975 152.326 11.6259" stroke="black" stroke-width="2" stroke-linecap="round"/>
<path d="M162.744 4.5316C160.096 4.79891 154.776 8.99939 159.253 10.6439C160.744 11.1915 164.529 11.6529 164.719 13.792C165.017 17.1702 160.548 15.2401 159.342 14.5834" stroke="black" stroke-width="2" stroke-linecap="round"/>
<path d="M179.157 3.85214C178.438 6.96683 178.786 10.6663 178.959 13.8277C179.051 15.5028 179.222 18.2549 180.436 15.7628" stroke="black" stroke-width="2" stroke-linecap="round"/>
<path d="M185.917 4.42689C185.538 4.93064 185.695 6.03899 185.693 6.52855C185.687 8.72996 185.754 10.9584 185.537 13.1529C185.472 13.8167 185.224 11.8483 185.192 11.182C185.15 10.3177 184.826 8.40439 185.356 7.57149C186.072 6.44596 190.02 12.8148 190.353 13.3213C190.991 14.2909 191.637 15.6247 192.504 16.4289C193.095 16.9763 192.986 15.2364 193 15.1843" stroke="black" stroke-width="2" stroke-linecap="round"/>
<path d="M192.702 4.3252C192.583 7.7257 192.591 11.4118 193.363 14.5191" stroke="black" stroke-width="2" stroke-linecap="round"/>
<path d="M207.231 2.7383C206.545 5.56664 207.042 8.71594 206.77 11.6122C206.673 12.6567 206.358 15.7865 206.51 14.7485C206.969 11.62 206.45 7.9947 207.416 4.98611C207.706 4.08556 208.824 6.3029 209.262 7.14131C210.332 9.18908 211.283 11.2822 212.572 13.2088C213.384 14.4225 215.198 17.5294 215.621 14.8975" stroke="black" stroke-width="2" stroke-linecap="round"/>
<path d="M216.082 1.69081C215.697 1.67736 215.424 10.7581 215.408 11.273C215.363 12.6991 214.565 17.5016 216.636 14.9322" stroke="black" stroke-width="2" stroke-linecap="round"/>
<path d="M218.803 1.44727C220.597 3.64888 221.213 6.19752 223.318 8.04663" stroke="black" stroke-width="2" stroke-linecap="round"/>
<path d="M230.293 2.52739C227.572 3.81597 225.289 5.75055 222.688 7.23394C222.314 7.44711 222.957 6.88738 223.137 7.87117C223.519 9.96708 223.253 12.2171 223.438 14.342C223.465 14.65 223.58 17.7804 224.039 16.5479" stroke="black" stroke-width="2" stroke-linecap="round"/>
<path d="M239.352 5.21732C237.786 2.07438 235.381 2.99294 233.571 5.73093C232.295 7.66135 231.051 10.6491 231.999 12.9839C233.261 16.0924 237.403 14.4127 239.71 14.3835" stroke="black" stroke-width="2" stroke-linecap="round"/>
</svg>
