<svg width="165" height="24" viewBox="0 0 165 24" fill="none" xmlns="http://www.w3.org/2000/svg">
<path d="M1.15856 9.2498C1.15127 9.03234 1.09964 8.84322 1.06141 8.63164C0.868641 7.56489 1.57175 10.7479 1.6585 11.8285C1.85209 14.2398 1.71262 16.6604 1.73057 19.0751C1.73467 19.627 1.75351 21.7637 1.89425 22.5589C1.94315 22.8353 1.82613 21.7256 2.10613 21.7442" stroke="black" stroke-width="2" stroke-linecap="round"/>
<path d="M2.54992 9.69721C2.006 9.07604 3.42247 11.0999 3.89184 11.7792C5.08285 13.5028 5.63438 14.3255 7.54964 14.6461" stroke="black" stroke-width="2" stroke-linecap="round"/>
<path d="M12.0974 10.3304C11.0496 11.2704 10.0192 12.226 9.00619 13.2037C8.70187 13.4975 8.39437 13.7881 8.09888 14.0907C7.57595 14.6263 8.10614 14.2049 8.33984 14.0278C10.4013 12.4657 12.0964 10.9941 13.4052 8.75953C13.5385 8.53195 13.9252 14.4476 13.9576 15.0119C14.093 17.3724 14.2159 19.7682 14.6321 22.1012C14.8753 23.4645 14.9162 21.3874 14.9304 21.1738" stroke="black" stroke-width="2" stroke-linecap="round"/>
<path d="M26.4072 8.79202C23.4181 8.99064 19.6282 13.2278 23.4929 15.5447C26.4149 17.2964 29.913 13.2614 28.2689 10.4743C26.6443 7.72034 24.3129 9.48114 23.0604 11.0564" stroke="black" stroke-width="2" stroke-linecap="round"/>
<path d="M37.1101 8.08141C33.5829 8.82143 32.8543 15.1345 35.8797 17.1163C38.1021 18.5722 42.205 17.0233 40.9104 13.8585C39.7435 11.0057 37.1438 10.3048 34.8945 9.35527" stroke="black" stroke-width="2" stroke-linecap="round"/>
<path d="M46.3978 7.27681C45.313 10.2763 45.7037 13.4188 46.0607 16.5288C46.1181 17.0287 46.3109 19.3024 46.4252 17.5791" stroke="black" stroke-width="2" stroke-linecap="round"/>
<path d="M46.3286 8.33691C48.6112 10.3196 50.4166 12.8918 52.4292 15.1348C52.4917 15.2045 54.2447 17.2623 54.9159 17.5097C55.1913 17.6112 55.1201 16.9177 55.3609 16.7499" stroke="black" stroke-width="2" stroke-linecap="round"/>
<path d="M54.4592 3.54873C54.0454 6.9602 54.6036 10.5122 54.8768 13.9163C54.982 15.2265 55.0439 16.5414 55.2083 17.8454C55.2251 17.9782 55.2248 17.357 55.3129 17.4577" stroke="black" stroke-width="2" stroke-linecap="round"/>
<path d="M72.4033 5.91895C72.4615 7.656 72.9764 19.0989 73.6576 19.1441" stroke="black" stroke-width="2" stroke-linecap="round"/>
<path d="M78.7915 5.9873C78.718 9.52298 78.8006 13.0673 78.798 16.6039C78.7956 19.9777 78.9827 15.4361 78.9361 14.5214" stroke="black" stroke-width="2" stroke-linecap="round"/>
<path d="M79.4517 6.74121C82.1116 9.86184 84.858 13.2588 87.7298 15.8146" stroke="black" stroke-width="2" stroke-linecap="round"/>
<path d="M87.8665 3.03677C87.0244 6.93957 86.9901 10.8768 87.0038 14.8586C87.0077 15.9912 87.108 17.1247 87.0548 18.2561C87.0485 18.391 87.0167 17.8983 86.8818 17.8894" stroke="black" stroke-width="2" stroke-linecap="round"/>
<path d="M109.234 4.79751C106.635 5.59109 99.3692 8.64418 104.182 11.0533C105.58 11.753 110.482 13.276 109.537 15.71C108.833 17.5226 106.232 17.755 104.66 17.5375C104.066 17.4553 103.471 17.2857 102.939 17.009C99.9537 15.4588 103.552 16.9525 101.788 15.3147" stroke="black" stroke-width="2" stroke-linecap="round"/>
<path d="M113.762 6.16356C116.022 5.2968 118.17 5.03509 120.575 5.19449" stroke="black" stroke-width="2" stroke-linecap="round"/>
<path d="M114.892 5.17264C114.248 6.81251 114.533 9.01226 114.525 10.7129C114.516 12.7844 113.273 19.412 116.952 18.7472C118.661 18.4384 120.261 17.5996 121.967 17.2247C122.732 17.0566 122.903 17.1374 122.299 16.6745" stroke="black" stroke-width="2" stroke-linecap="round"/>
<path d="M114.047 12.5763C116.472 11.6644 118.901 10.7636 121.33 9.86247" stroke="black" stroke-width="2" stroke-linecap="round"/>
<path d="M129.344 6.84181C126.743 8.65457 124.437 16.911 129.077 17.7165C131.35 18.111 133.41 16.0169 133.904 13.9716C134.219 12.6627 134.148 11.3953 133.402 10.2286C131.802 7.72649 129.749 9.03217 127.459 8.49275" stroke="black" stroke-width="2" stroke-linecap="round"/>
<path d="M138.326 5.30607C137.354 7.87428 137.941 13.3429 139.296 15.6709C140.09 17.0354 141.449 16.701 142.573 15.9473C146.301 13.4483 144.479 7.18167 144.478 3.58284" stroke="black" stroke-width="2" stroke-linecap="round"/>
<path d="M150.985 1.88276C150.979 1.7343 150.825 1.15969 150.799 1.71256C150.714 3.5579 150.932 5.43322 150.903 7.28409C150.858 10.1687 151.297 13.2514 151.108 16.0984C151.006 17.6424 151.39 16.8593 152.926 16.0611C156.413 14.2493 159.964 12.533 163.53 10.8838" stroke="black" stroke-width="2" stroke-linecap="round"/>
</svg>
