<svg width="91" height="18" viewBox="0 0 91 18" fill="none" xmlns="http://www.w3.org/2000/svg">
<path d="M8.03622 3.13864C4.93288 1.76344 2.98371 6.67502 2.13779 9.13563C1.55588 10.8283 0.893671 13.2362 2.04535 14.8748C4.44654 18.2913 8.69822 15.3974 11.5453 14.882" stroke="black" stroke-width="2" stroke-linecap="round"/>
<path d="M15.7453 5.79156C16.4548 2.58283 15.8932 18.2771 17.5294 15.4604" stroke="black" stroke-width="2" stroke-linecap="round"/>
<path d="M16.2129 10.5514C18.4787 8.96822 21.6035 8.50685 24.1994 7.76616" stroke="black" stroke-width="2" stroke-linecap="round"/>
<path d="M23.5562 5.12793C23.5977 8.88184 24.0265 12.6454 24.346 16.396" stroke="black" stroke-width="2" stroke-linecap="round"/>
<path d="M27.7647 6.33752C29.9783 4.9654 32.4303 4.04485 34.8953 3.48138" stroke="black" stroke-width="2" stroke-linecap="round"/>
<path d="M30.5572 4.8464C28.7155 6.49769 28.8702 14.2006 30.4877 15.8839C31.2131 16.6388 33.5088 15.0438 34.1008 14.8153C35.5629 14.2509 36.8007 14.1375 38.3274 14.0552" stroke="black" stroke-width="2" stroke-linecap="round"/>
<path d="M29.9772 10.8303C30.5429 9.39891 34.8963 9.08575 36.181 8.7591" stroke="black" stroke-width="2" stroke-linecap="round"/>
<path d="M41.7417 4.04883C41.4793 7.21601 40.6782 16.8843 40.9441 13.6755" stroke="black" stroke-width="2" stroke-linecap="round"/>
<path d="M41.7452 4.04912C41.543 5.05972 44.1883 7.84212 44.5516 8.29955C46.354 10.5692 48.3052 12.4423 50.3761 14.2434" stroke="black" stroke-width="2" stroke-linecap="round"/>
<path d="M48.8769 2.96087C48.7563 2.86539 48.7959 2.88534 48.7389 3.22066C48.4167 5.11635 48.7131 7.09559 48.929 9.00973C49.0763 10.316 49.6131 13.0534 49.5203 14.1733" stroke="black" stroke-width="2" stroke-linecap="round"/>
<path d="M59.0562 2.29143C59.1198 1.96911 59.2855 1.91934 59.0096 2.41022C57.5074 5.0825 55.8362 7.58883 54.6944 10.4953C54.0892 12.0359 52.9103 15.2714 55.401 15.5214C57.425 15.7245 59.2774 13.9346 60.8414 12.7423" stroke="black" stroke-width="2" stroke-linecap="round"/>
<path d="M54.9407 11.1549C55.7059 9.69033 58.9294 9.483 60.2901 9.16744C61.4314 8.90275 64.2678 7.44863 63.6492 9.44577C63.1742 10.9795 63.4344 16.4893 62.841 17.0006" stroke="black" stroke-width="2" stroke-linecap="round"/>
<path d="M67.772 1.89746C68.4271 5.02717 68.5303 8.17294 68.6299 11.3534C68.6512 12.0326 68.6735 13.503 68.7769 14.2836C68.9466 15.5634 68.9606 14.5292 69.3174 14.4467" stroke="black" stroke-width="2" stroke-linecap="round"/>
<path d="M68.3572 2.80728C70.7767 3.22118 74.6543 4.17943 76.0531 6.47061C79.296 11.7826 69.3461 13.8159 66.7084 14.735" stroke="black" stroke-width="2" stroke-linecap="round"/>
<path d="M81.7209 3.20965C80.9381 5.80366 79.8291 17.4421 85.3053 14.9402C88.7115 13.3841 89.5793 9.43281 89.8389 5.97379C90.1305 2.08909 89.8151 5.11778 89.9012 2.9114C89.9093 2.70264 89.9486 3.32602 89.9644 3.53414" stroke="black" stroke-width="2" stroke-linecap="round"/>
</svg>
