<svg width="229" height="24" viewBox="0 0 229 24" fill="none" xmlns="http://www.w3.org/2000/svg">
<path d="M3.14116 10.2031C2.91537 10.1827 6.98728 10.0508 7.51413 10.0354C10.1144 9.95957 10.8216 10.2378 8.93221 12.7464C6.65382 15.7715 3.84189 18.3678 1.48736 21.3306C-0.368937 23.6665 5.72282 22.0606 6.48485 21.9605C8.83713 21.6517 11.2285 21.4031 13.5612 20.9582C14.3123 20.8149 13.1601 20.8097 13.1033 20.8046" stroke="black" stroke-width="2" stroke-linecap="round"/>
<path d="M18.1467 9.88913C20.9309 9.32725 23.7182 9.0795 26.5511 9.15719" stroke="black" stroke-width="2" stroke-linecap="round"/>
<path d="M18.7642 9.64746C18.7165 10.9253 18.3962 22.1545 19.3442 21.9427C21.0726 21.5564 22.7374 20.6132 24.4836 20.1721C25.628 19.883 26.9325 19.635 27.4454 19.0657" stroke="black" stroke-width="2" stroke-linecap="round"/>
<path d="M18.5811 14.9912C20.3974 13.9431 22.9353 13.5966 24.9442 13.7776" stroke="black" stroke-width="2" stroke-linecap="round"/>
<path d="M32.002 8.15918C31.9543 11.3839 32.0067 14.5971 32.1576 17.8187C32.2024 18.7748 31.9425 20.1893 32.7898 19.2488" stroke="black" stroke-width="2" stroke-linecap="round"/>
<path d="M32.2441 8.77637C34.7708 12.0418 37.2037 15.3832 39.6906 18.679" stroke="black" stroke-width="2" stroke-linecap="round"/>
<path d="M38.3384 7.24121C38.8494 10.5084 39.3704 13.7732 39.804 17.0518C39.9244 17.9626 40.1532 20.1546 40.3345 18.1419" stroke="black" stroke-width="2" stroke-linecap="round"/>
<path d="M63.1977 5.01052C61.775 6.52978 60.5713 8.03843 59.5347 9.85901C58.4416 11.779 56.2977 15.2092 56.9692 17.5858C57.9857 21.1837 63.2925 16.9518 64.6029 15.858" stroke="black" stroke-width="2" stroke-linecap="round"/>
<path d="M59.9829 14.2512C61.3252 13.8823 64.4086 12.4808 65.8333 13.587C66.7213 14.2765 66.3733 16.1552 66.4121 17.0804C66.4304 17.5184 66.8448 20.9963 66.7267 18.7302" stroke="black" stroke-width="2" stroke-linecap="round"/>
<path d="M74.0471 6.88119C72.7799 10.006 71.118 12.8749 70.0715 16.1189C70.0449 16.2015 68.4727 20.3355 69.6801 18.9955" stroke="black" stroke-width="2" stroke-linecap="round"/>
<path d="M73.0815 7.68852C73.514 5.93991 74.7074 10.9102 75.3531 12.5918C76.1232 14.5975 77.2453 17.1582 77.7096 19.1241" stroke="black" stroke-width="2" stroke-linecap="round"/>
<path d="M69.9737 15.746C72.7951 14.1088 75.9521 13.0214 78.9662 11.7912" stroke="black" stroke-width="2" stroke-linecap="round"/>
<path d="M81.5127 6.66016C82.5408 10.2716 82.0291 14.6175 82.5693 18.0718" stroke="black" stroke-width="2" stroke-linecap="round"/>
<path d="M80.5758 10.4479C81.6542 8.70282 84.4111 8.30486 86.2536 8.39498C91.9727 8.67474 85.508 13.2905 83.673 14.2675C83.1134 14.5654 82.3437 14.6082 81.9745 15.1237C81.4167 15.9025 83.778 15.7803 84.7068 16.015C86.7215 16.5243 88.966 17.4576 90.947 17.636" stroke="black" stroke-width="2" stroke-linecap="round"/>
<path d="M93.7305 6.57031C95.1913 10.2945 94.688 14.8472 95.0145 18.7635C95.2136 21.152 95.7628 21.2973 95.2715 19.2168" stroke="black" stroke-width="2" stroke-linecap="round"/>
<path d="M93.7049 6.86587C96.435 6.3232 99.283 9.31263 99.9 11.7421C101.071 16.3529 96.664 18.6251 93.6359 20.8564" stroke="black" stroke-width="2" stroke-linecap="round"/>
<path d="M103.184 7.42136C105.421 6.99909 107.569 6.73997 109.816 6.52976" stroke="black" stroke-width="2" stroke-linecap="round"/>
<path d="M104.097 7.20645C103.559 8.43902 103.743 10.11 103.718 11.4078C103.695 12.6304 102.939 17.0932 103.841 18.1194C104.612 18.9957 109.71 15.8996 111.005 16.4651" stroke="black" stroke-width="2" stroke-linecap="round"/>
<path d="M104.182 12.872C104.369 12.4437 105.065 12.5665 105.512 12.4293C107.356 11.8632 109.131 11.1475 110.947 10.5034" stroke="black" stroke-width="2" stroke-linecap="round"/>
<path d="M114.3 6.33789C115.169 9.89574 115.426 13.6715 115.114 17.1321" stroke="black" stroke-width="2" stroke-linecap="round"/>
<path d="M115.375 7.62598C117.344 9.55638 118.79 12.1477 120.534 14.2783C121.102 14.9721 122.408 16.5568 123.314 17.209C124.508 18.0687 123.171 16.8893 123.761 17.0176" stroke="black" stroke-width="2" stroke-linecap="round"/>
<path d="M122.461 4.98883C121.557 1.1581 123.05 12.8561 123.787 16.7225" stroke="black" stroke-width="2" stroke-linecap="round"/>
<path d="M141.93 3.76406C141.442 7.3138 141.222 10.7997 141.719 14.3667C141.792 14.8893 141.902 17.179 142.585 16.3307" stroke="black" stroke-width="2" stroke-linecap="round"/>
<path d="M146.951 4.2168C146.724 7.87356 146.674 11.5387 146.557 15.2" stroke="black" stroke-width="2" stroke-linecap="round"/>
<path d="M145.772 7.38647C147.143 6.31047 150.873 12.0196 151.432 12.6942C151.817 13.1587 153.693 15.4841 154.41 16.1886C155.249 17.0134 154.613 15.5301 154.586 15.3277" stroke="black" stroke-width="2" stroke-linecap="round"/>
<path d="M153.314 3.00293C153.667 7.44425 154.038 11.8714 154.802 16.2402" stroke="black" stroke-width="2" stroke-linecap="round"/>
<path d="M169.66 3.12461C170.147 1.25399 170.313 6.93648 170.556 8.85432C170.824 10.9728 170.988 13.2173 171.657 15.2616C172.177 16.8482 172.154 15.9051 172.981 16.4165" stroke="black" stroke-width="2" stroke-linecap="round"/>
<path d="M178.241 1.92019C176.212 3.51826 174.356 5.18849 172.713 7.19676C171.715 8.41744 170.853 9.96567 169.224 10.3974C168.993 10.4586 169.672 10.7718 169.691 10.7847C170.986 11.6591 172.282 12.5297 173.583 13.3948C175.096 14.4013 176.587 15.4295 178.058 16.4969C178.443 16.7763 178.836 17.2675 178.865 16.9462" stroke="black" stroke-width="2" stroke-linecap="round"/>
<path d="M181.043 2.17279C180.826 2.2377 182.157 3.38413 182.23 3.45657C183.267 4.48678 183.99 5.03965 185.248 5.65854" stroke="black" stroke-width="2" stroke-linecap="round"/>
<path d="M190.746 1.06955C190.619 0.745545 186.326 4.51805 186.048 4.78901C185.608 5.21821 185.176 5.65721 184.768 6.11727C184.474 6.44836 183.634 7.16749 184.069 7.24695C184.469 7.31979 185.209 6.29156 185.417 6.05023C186.246 5.08538 185.821 7.78785 185.842 8.12841C185.975 10.2951 186.176 12.458 186.339 14.6225C186.523 17.0555 186.372 15.1286 186.402 14.8007" stroke="black" stroke-width="2" stroke-linecap="round"/>
<path d="M195.024 3.03383C193.267 5.52678 191.285 8.24564 192.379 11.4892C193.208 13.944 195.707 15.4603 198.176 14.2949C200.73 13.0893 202.252 10.0244 201.534 7.2659C201.161 5.8343 200.066 4.11052 198.536 3.63061C195.057 2.53947 196.618 4.6507 193.075 4.66104" stroke="black" stroke-width="2" stroke-linecap="round"/>
<path d="M204.356 3.51363C208.627 3.00877 212.86 2.1892 217.131 1.77998" stroke="black" stroke-width="2" stroke-linecap="round"/>
<path d="M210.532 2.98926C210.463 6.42774 210.424 9.85605 210.606 13.292C210.645 14.0358 210.681 14.9695 210.51 15.2464" stroke="black" stroke-width="2" stroke-linecap="round"/>
<path d="M223.638 1.41371C222.307 2.50059 220.728 3.084 219.547 4.56272C215.456 9.68476 219.446 15.0395 223.822 12.3517C226.629 10.6277 229.886 4.74381 225.589 2.86599C223.14 1.79557 221.245 3.68935 219.333 5.62137" stroke="black" stroke-width="2" stroke-linecap="round"/>
</svg>
