<svg width="327" height="28" viewBox="0 0 327 28" fill="none" xmlns="http://www.w3.org/2000/svg">
<path d="M1.63717 9.81192C0.86064 8.92326 1.36355 12.1647 1.39932 13.3443C1.53624 17.8596 1.63964 22.3784 1.75171 26.8942" stroke="black" stroke-width="2" stroke-linecap="round"/>
<path d="M21.0212 9.28367C20.6814 9.58058 20.956 10.3426 21.0096 10.6552C21.5076 13.5632 21.947 16.4695 22.2976 19.3999C22.3312 19.6804 22.7224 26.0493 23.2775 24.3296" stroke="black" stroke-width="2" stroke-linecap="round"/>
<path d="M19.0171 12.0557C22.5517 12.7222 31.6423 14.2492 27.6164 19.8193C26.4154 21.4811 24.45 22.7441 22.6379 23.6213C22.1151 23.8744 21.5614 24.0969 20.986 24.1761C19.0796 24.4385 21.1621 23.7403 20.0704 23.3879" stroke="black" stroke-width="2" stroke-linecap="round"/>
<path d="M33.8931 12.3301C33.7447 16.5068 34.4741 20.6834 34.8733 24.7472" stroke="black" stroke-width="2" stroke-linecap="round"/>
<path d="M39.1509 9.77832C39.3829 14.301 41.8153 27.6129 40.4197 23.3047" stroke="black" stroke-width="2" stroke-linecap="round"/>
<path d="M37.9683 11.1514C41.4497 12.0081 46.8043 13.5817 45.6169 18.3465C44.8842 21.2868 42.6303 22.7287 40.0577 23.2799" stroke="black" stroke-width="2" stroke-linecap="round"/>
<path d="M50.7471 10.1963C51.1925 13.3695 51.5624 16.5521 52.0025 19.7258C52.1741 20.9641 52.2866 21.6622 52.4799 22.8255C52.489 22.8801 52.4408 22.6076 52.4506 22.6621" stroke="black" stroke-width="2" stroke-linecap="round"/>
<path d="M51.7095 12.0771C54.1166 12.8541 56.8681 17.1445 58.4958 18.8913C58.7091 19.1202 61.8591 23.1916 61.9252 22.21" stroke="black" stroke-width="2" stroke-linecap="round"/>
<path d="M59.8116 10.4425C59.2699 9.73219 59.943 11.4658 59.9743 11.624C60.6564 15.0799 61.4946 18.4512 62.3114 21.8722" stroke="black" stroke-width="2" stroke-linecap="round"/>
<path d="M67.7957 5.16856C66.4108 8.05218 65.254 10.5472 65.0416 13.7015" stroke="black" stroke-width="2" stroke-linecap="round"/>
<path d="M70.0355 9.67856C73.6425 9.12812 77.8306 8.02383 81.3921 8.26365" stroke="black" stroke-width="2" stroke-linecap="round"/>
<path d="M75.8696 9.34473C75.6859 12.7499 75.7137 16.1542 75.9084 19.5592C75.937 20.0594 76.0806 22.3969 76.1997 20.6283" stroke="black" stroke-width="2" stroke-linecap="round"/>
<path d="M100.203 8.49986C97.1197 11.4992 94.4105 16.0412 95.1828 20.5616C95.9732 25.1878 101.627 20.8713 103.506 19.6327" stroke="black" stroke-width="2" stroke-linecap="round"/>
<path d="M97.9627 18.6352C99.6172 17.4776 101.484 16.5803 103.348 15.8113C105.137 15.0736 104.814 15.8284 104.738 17.2903C104.657 18.858 104.6 20.4609 104.661 22.0303C104.698 22.9843 104.704 22.8236 105.18 22.5502" stroke="black" stroke-width="2" stroke-linecap="round"/>
<path d="M108.809 10.3262C110.002 12.324 109.291 16.6628 109.407 18.9217C109.457 19.8905 109.548 22.8706 109.814 23.1747" stroke="black" stroke-width="2" stroke-linecap="round"/>
<path d="M108.621 13.119C109.741 12.0003 111.311 11.4229 112.826 12.3977C115.459 14.092 111.469 16.6979 110.547 17.9592C109.098 19.9411 115.341 21.0973 116.788 21.4621" stroke="black" stroke-width="2" stroke-linecap="round"/>
<path d="M120.89 11.4506C118.861 12.1255 117.687 13.3517 117.97 15.7221C118.406 19.3666 122.558 18.4822 123.653 15.6891C124.61 13.2485 121.65 11.7738 119.722 11.8222C118.33 11.8572 118.855 12.6738 118.882 13.4975" stroke="black" stroke-width="2" stroke-linecap="round"/>
<path d="M128.279 8.20821C127.293 7.07999 128.347 10.6698 128.386 10.9863C128.603 12.7418 128.63 14.5045 128.671 16.2703C128.699 17.4858 128.076 20.6254 129.05 19.898C130.537 18.7877 131.709 15.7099 132.49 14.0855C133.019 12.984 132.963 12.7324 133.581 14.0725C134.213 15.4409 134.765 16.8443 135.398 18.2126C135.8 19.0805 136.419 21.1348 137.272 21.7678C137.785 22.1492 137.421 20.4965 137.487 19.8599C137.861 16.2374 138.267 12.6368 138.512 9.0012C138.578 8.02307 138.275 7.01092 139.265 7.07763" stroke="black" stroke-width="2" stroke-linecap="round"/>
<path d="M153.52 9.67852C152.138 9.98744 152.766 14.1852 152.746 15.0306C152.699 17.0418 151.758 21.18 154.588 21.9015C156.776 22.4592 159.182 23.2602 160.666 20.8915C162.883 17.3509 161.946 14.1691 161.399 10.4894C161.237 9.39639 161.095 8.3874 160.848 7.31407C160.724 6.77865 160.858 8.42596 161.039 8.94697" stroke="black" stroke-width="2" stroke-linecap="round"/>
<path d="M165.045 7.38184C164.949 10.6613 165.382 13.955 165.469 17.2338C165.511 18.8119 165.44 20.4325 165.638 22.0051C165.739 22.8146 166.033 20.4153 166.131 19.606" stroke="black" stroke-width="2" stroke-linecap="round"/>
<path d="M166.037 7.14161C166.95 5.68347 171.415 9.31156 171.894 10.017C173.03 11.687 171.965 12.9967 170.36 13.8684C169.564 14.3008 168.011 14.8877 167.067 15.0407C162.673 15.7529 168.283 14.7455 165.503 14.7037" stroke="black" stroke-width="2" stroke-linecap="round"/>
<path d="M188.102 7.99738C185.999 9.49391 186.645 15.0975 186.74 17.2205C186.786 18.2608 186.477 21.1877 187.065 20.3276C187.358 19.8982 187.308 19.1223 187.387 18.6287" stroke="black" stroke-width="2" stroke-linecap="round"/>
<path d="M186.896 10.0522C187.506 8.29335 193.515 8.46456 194.72 9.28856C196.516 10.5167 189.141 13.8608 187.973 13.8922C187.243 13.9118 189.423 13.4714 190.144 13.5934C191.999 13.9077 195.05 15.9311 193.033 18.0449C191.158 20.0099 187.12 20.1435 185.261 18.4857" stroke="black" stroke-width="2" stroke-linecap="round"/>
<path d="M198.152 5.47094C198.235 4.24614 198.698 7.88992 199.25 8.98607C199.837 10.149 200.545 11.0947 201.745 11.5866" stroke="black" stroke-width="2" stroke-linecap="round"/>
<path d="M207.418 6.62896C205.474 7.70508 205.7 7.55131 203.589 8.86303C202.788 9.36027 201.999 9.87561 201.203 10.3784C200.509 10.8158 198.747 12.3766 199.086 11.6302C199.15 11.4901 200.228 10.6253 200.398 10.8731C200.601 11.1689 200.358 12.7942 200.358 13.0063C200.364 15.5981 200.768 18.1578 201.279 20.6923C201.606 22.3137 201.112 20.5657 200.906 20.0739" stroke="black" stroke-width="2" stroke-linecap="round"/>
<path d="M221.206 9.26876C221.294 7.95709 230.067 7.44268 231.407 7.12723" stroke="black" stroke-width="2" stroke-linecap="round"/>
<path d="M226.442 6.16504L225.558 19.3047" stroke="black" stroke-width="2" stroke-linecap="round"/>
<path d="M234.64 5.77344C234.339 10.2431 234.343 14.8444 234.047 19.247" stroke="black" stroke-width="2" stroke-linecap="round"/>
<path d="M234.134 13.2825C236.252 11.4321 239.979 10.9554 242.521 10.076" stroke="black" stroke-width="2" stroke-linecap="round"/>
<path d="M241.878 5.63244C240.918 7.51232 242.07 11.7031 242.264 13.6373C242.281 13.7998 243.097 18.4839 242.621 17.9388" stroke="black" stroke-width="2" stroke-linecap="round"/>
<path d="M244.693 5.82275C246.653 4.48584 250.326 4.57903 252.662 4.15946" stroke="black" stroke-width="2" stroke-linecap="round"/>
<path d="M246.279 5.6147C246.02 7.93949 244.052 18.1166 248.169 17.9983C250.265 17.9381 253.569 16.1913 254.969 16.5707" stroke="black" stroke-width="2" stroke-linecap="round"/>
<path d="M246.796 11.9344C249.324 11.0636 251.852 10.4416 254.473 9.93722" stroke="black" stroke-width="2" stroke-linecap="round"/>
<path d="M272.604 4.80499C270.568 5.55397 268.767 7.60666 267.74 9.44609C266.236 12.1407 265.941 17.6205 270.512 17.0358C273.222 16.689 277.335 13.8526 277.257 10.7623C277.207 8.76401 275.734 7.55442 274.215 6.57466C273.424 6.06456 272.559 5.63641 271.648 5.4007C265.557 3.82486 272.904 6.19749 268.48 6.20005" stroke="black" stroke-width="2" stroke-linecap="round"/>
<path d="M286.137 4.05625C283.743 3.34164 281.292 10.607 281.727 12.2542C282.851 16.5078 288.027 13.8531 289.935 12.1155" stroke="black" stroke-width="2" stroke-linecap="round"/>
<path d="M292.753 5.95424C295.245 5.30954 297.722 4.64001 300.224 4.03946" stroke="black" stroke-width="2" stroke-linecap="round"/>
<path d="M293.118 5.67748C292.698 7.88689 290.986 17.6979 294.954 17.1412C296.736 16.8913 299.24 14.9253 300.918 15.6003" stroke="black" stroke-width="2" stroke-linecap="round"/>
<path d="M292.551 12.15C294.891 10.6063 297.648 10.0376 300.2 8.94961" stroke="black" stroke-width="2" stroke-linecap="round"/>
<path d="M307.196 3.36631C305.106 5.26878 304.001 9.93214 303.061 12.4757C302.687 13.4858 300.576 18.4203 302.891 15.5458" stroke="black" stroke-width="2" stroke-linecap="round"/>
<path d="M306.331 4.88379C307.272 5.6092 308.077 8.87707 308.392 9.71828C309.291 12.1198 310.106 14.5442 310.882 16.9778" stroke="black" stroke-width="2" stroke-linecap="round"/>
<path d="M302.559 13.2069C304.659 12.2097 307.027 12.0913 309.298 11.8461" stroke="black" stroke-width="2" stroke-linecap="round"/>
<path d="M316.24 4.28896C315.468 7.85078 315.163 11.9624 316.014 15.3948" stroke="black" stroke-width="2" stroke-linecap="round"/>
<path d="M315.963 3.92285C317.953 6.7922 319.864 9.71097 322.045 12.4435C323.72 14.5413 324.317 15.2178 323.94 12.56" stroke="black" stroke-width="2" stroke-linecap="round"/>
<path d="M323.246 1C323.601 3.28661 323.733 5.56611 323.786 7.88074C323.805 8.6705 323.806 12.281 323.912 13.2847C325.151 25.0271 323.454 9.85114 324.637 14.6224" stroke="black" stroke-width="2" stroke-linecap="round"/>
</svg>
