<svg width="212" height="23" viewBox="0 0 212 23" fill="none" xmlns="http://www.w3.org/2000/svg">
<path d="M1.10183 8.24976C3.31265 8.73804 5.70354 8.22125 7.90269 7.89576C9.92437 7.59653 11.0233 7.35683 12.712 8.19244" stroke="black" stroke-width="2" stroke-linecap="round"/>
<path d="M8.02081 9.77767C7.53629 10.9992 7.8514 12.5667 7.95461 13.8071C8.18066 16.5241 8.36459 19.2433 8.58087 21.9602" stroke="black" stroke-width="2" stroke-linecap="round"/>
<path d="M17.0298 8.20257C19.2925 8.21606 21.4195 7.57716 23.5852 7.00791" stroke="black" stroke-width="2" stroke-linecap="round"/>
<path d="M17.5674 8.2373C17.508 10.1279 16.8708 20.936 18.9415 20.3527C21.5908 19.6064 23.8388 18.1712 26.6515 18.0032" stroke="black" stroke-width="2" stroke-linecap="round"/>
<path d="M16.9153 14.1334C18.7032 12.9199 20.9215 12.6785 22.7515 11.5426" stroke="black" stroke-width="2" stroke-linecap="round"/>
<path d="M34.6753 6.64633C33.2442 6.83732 27.911 11.8755 29.3159 12.9869C31.0714 14.3758 35.7909 13.0765 36.3788 15.9939C37.007 19.1115 31.6861 18.9861 30.0117 18.9102C28.6928 18.8504 29.8848 18.7597 30.6834 18.264" stroke="black" stroke-width="2" stroke-linecap="round"/>
<path d="M38.6372 7.9834C38.8044 10.7051 38.8113 13.4332 38.9022 16.1581C38.9085 16.3472 38.5977 19.7964 39.3192 18.2845" stroke="black" stroke-width="2" stroke-linecap="round"/>
<path d="M39.6328 13.4455C41.4847 12.4723 43.7611 12.2281 45.7029 11.4096" stroke="black" stroke-width="2" stroke-linecap="round"/>
<path d="M46.2851 6.58935C45.0036 9.36979 45.4828 13.3985 45.3795 16.3976C45.3631 16.8738 45.7258 19.5178 45.215 18.9362" stroke="black" stroke-width="2" stroke-linecap="round"/>
<path d="M51.392 6.92057C50.3182 8.32509 51.1797 12.047 51.2253 13.6577C51.2545 14.6891 50.8886 18.9008 51.6658 19.3545" stroke="black" stroke-width="2" stroke-linecap="round"/>
<path d="M57.0717 6.74813C56.5807 7.06901 56.7349 8.40721 56.7272 8.82515C56.6859 11.0543 56.735 13.2873 56.7734 15.5161C56.7913 16.5558 57.3652 19.496 56.7812 18.6356C56.5105 18.2369 56.69 17.4178 56.6786 16.9795" stroke="black" stroke-width="2" stroke-linecap="round"/>
<path d="M56.8208 6.46191C57.8998 7.81213 58.7693 9.28509 59.7551 10.7008C60.5463 11.837 60.5732 11.8335 61.5968 11.8999" stroke="black" stroke-width="2" stroke-linecap="round"/>
<path d="M66.0118 6.2486C64.5383 8.22708 63.0775 10.2097 61.5793 12.1694" stroke="black" stroke-width="2" stroke-linecap="round"/>
<path d="M65.3872 7.55761C66.415 6.45538 65.7834 5.68729 65.927 8.25239C66.0755 10.9059 66.2221 13.5533 66.311 16.2098C66.3506 17.3924 66.4103 18.5743 66.441 19.7572C66.5125 22.513 66.3231 20.291 66.1638 20.564" stroke="black" stroke-width="2" stroke-linecap="round"/>
<path d="M74.1971 4.8894C72.7184 8.34206 71.5286 11.9072 70.3327 15.4656C70.287 15.6014 69.2723 18.8221 69.5457 18.3537" stroke="black" stroke-width="2" stroke-linecap="round"/>
<path d="M74.1626 5.42676C74.8678 9.08438 76.3516 12.5817 77.2583 16.1991C77.4965 17.1497 78.0877 20.5749 78.5454 21.0961" stroke="black" stroke-width="2" stroke-linecap="round"/>
<path d="M70.8821 14.3915C71.1444 13.7471 72.8007 13.7928 73.2947 13.7231C74.8714 13.5007 76.2577 13.2018 77.7412 12.6767" stroke="black" stroke-width="2" stroke-linecap="round"/>
<path d="M100.695 4.17706C99.0374 7.53648 98.2702 11.3445 97.0918 14.8902C96.5746 16.4465 96.1037 18.0579 95.4541 19.5676C95.4038 19.6844 95.3939 19.8858 95.2676 19.9004C94.9491 19.9372 95.3984 19.2705 95.4191 18.9505" stroke="black" stroke-width="2" stroke-linecap="round"/>
<path d="M100.661 4.71484C102.705 9.56401 104.517 14.5055 106.457 19.3961" stroke="black" stroke-width="2" stroke-linecap="round"/>
<path d="M97.614 14.2346C97.4875 14.1607 100.099 13.3368 100.163 13.3201C101.501 12.9684 102.836 12.6849 104.204 12.5024" stroke="black" stroke-width="2" stroke-linecap="round"/>
<path d="M109.53 5.29004C109.951 9.46755 109.645 14.6609 110.844 18.3312" stroke="black" stroke-width="2" stroke-linecap="round"/>
<path d="M108.948 10.1104C110.872 8.1032 114.495 5.69178 117.48 6.19466C118.465 6.36072 116.94 7.49196 116.851 7.56349C115.653 8.5215 111.501 10.0066 111.882 12.04C112.366 14.6225 117.443 16.3424 119.581 17.5024C119.725 17.5809 119.174 17.4241 119.013 17.2407" stroke="black" stroke-width="2" stroke-linecap="round"/>
<path d="M120.23 6.79242C123.139 6.39118 126.013 5.94443 128.936 5.73711" stroke="black" stroke-width="2" stroke-linecap="round"/>
<path d="M123.689 7.55664C123.727 9.89473 124.079 12.233 124.164 14.5753C124.206 15.7345 124.216 17.2848 124.346 18.4709C124.532 20.1679 124.603 19.1892 125.055 19.7915" stroke="black" stroke-width="2" stroke-linecap="round"/>
<path d="M145.506 4.11263C145.19 7.07106 145.043 9.98772 145.142 12.9663C145.184 14.248 145.473 17.117 145.424 17.8731" stroke="black" stroke-width="2" stroke-linecap="round"/>
<path d="M145.652 6.01074C147.868 7.61254 148.95 10.2999 151.504 11.5184" stroke="black" stroke-width="2" stroke-linecap="round"/>
<path d="M155.919 5.86685C154.253 7.74961 152.7 9.71675 150.934 11.512C150.153 12.3066 150.016 12.3924 150.817 11.2345C151.923 9.63546 153.418 6.41592 155.249 5.55354C156.084 5.16051 156.252 12.3807 156.274 12.8777C156.343 14.4417 156.396 16.0099 156.51 17.5716C156.601 18.8324 156.568 18.2116 156.513 17.5118" stroke="black" stroke-width="2" stroke-linecap="round"/>
<path d="M159.448 5.55573C159.397 7.13147 159.967 19.0493 163.628 16.0235C166.174 13.9196 166.45 8.94677 166.26 5.95223C166.211 5.16963 165.837 3.25877 165.951 5.16743" stroke="black" stroke-width="2" stroke-linecap="round"/>
<path d="M175.368 1.45893C175.231 0.828349 167.554 5.42147 168.872 7.29101C170.25 9.24562 175.054 7.96838 175.263 11.4091C175.372 13.196 173.274 14.9147 171.728 15.2887C170.547 15.5742 171.538 14.404 171.575 14.1692" stroke="black" stroke-width="2" stroke-linecap="round"/>
<path d="M179.192 4.94597C181.56 4.15155 184.131 4.06385 186.571 3.53478" stroke="black" stroke-width="2" stroke-linecap="round"/>
<path d="M178.706 4.10449C178.771 6.64539 178.679 9.12272 178.486 11.6629C178.37 13.1733 177.292 17.3988 180.122 16.4925C182.043 15.8776 183.842 15.033 185.836 14.6285C186.263 14.542 187.605 14.428 186.393 14.5897" stroke="black" stroke-width="2" stroke-linecap="round"/>
<path d="M179.684 9.83632C182.201 9.19843 184.661 8.46984 187.116 7.61877" stroke="black" stroke-width="2" stroke-linecap="round"/>
<path d="M191.105 4.36831C190.626 6.15251 190.167 16.841 193.983 15.0216C196.472 13.8351 197.659 10.1743 197.312 7.61972C197.177 6.62586 196.462 5.63261 196.749 4.73412" stroke="black" stroke-width="2" stroke-linecap="round"/>
<path d="M201.172 3.13086C201.026 6.3093 201.085 9.52375 201.226 12.7015C201.3 14.3409 201.479 15.2609 200.779 13.3622" stroke="black" stroke-width="2" stroke-linecap="round"/>
<path d="M200.868 3.65137C201.603 4.27649 206.074 9.07043 206.806 7.81505" stroke="black" stroke-width="2" stroke-linecap="round"/>
<path d="M209.557 2.86501C208.166 4.20901 207.106 6.67205 205.483 7.63948C204.911 7.98056 206.041 6.42716 206.379 5.85308C206.891 4.98257 207.708 3.63739 208.304 2.75385C208.479 2.49553 208.972 1.90382 209.06 2.20299C209.659 4.25659 209.424 6.67009 209.504 8.76977C209.604 11.4017 209.764 14.0296 209.953 16.6564C209.991 17.1982 210.077 17.7399 210.057 18.2827C210.053 18.3854 210.028 18.0109 209.925 18.0042" stroke="black" stroke-width="2" stroke-linecap="round"/>
</svg>
