<svg width="207" height="24" viewBox="0 0 207 24" fill="none" xmlns="http://www.w3.org/2000/svg">
<path d="M130.722 4.46604C132.846 4.93526 135.144 4.43864 137.257 4.12586C139.2 3.83831 140.256 3.60797 141.879 4.41096" stroke="black" stroke-width="2" stroke-linecap="round"/>
<path d="M137.37 5.93446C136.904 7.10831 137.207 8.61458 137.306 9.80664C137.524 12.4176 137.7 15.0306 137.908 17.6415" stroke="black" stroke-width="2" stroke-linecap="round"/>
<path d="M146.027 4.42087C148.202 4.43383 150.246 3.81987 152.327 3.27284" stroke="black" stroke-width="2" stroke-linecap="round"/>
<path d="M146.544 4.4541C146.487 6.27085 145.875 16.6571 147.865 16.0965C150.411 15.3794 152.571 14.0002 155.274 13.8388" stroke="black" stroke-width="2" stroke-linecap="round"/>
<path d="M145.917 10.1206C147.635 8.95442 149.767 8.72242 151.526 7.63083" stroke="black" stroke-width="2" stroke-linecap="round"/>
<path d="M162.984 2.92615C161.609 3.10969 156.484 7.95118 157.834 9.01926C159.521 10.3539 164.056 9.10532 164.621 11.9088C165.225 14.9047 160.112 14.7843 158.503 14.7113C157.235 14.6539 158.381 14.5667 159.148 14.0903" stroke="black" stroke-width="2" stroke-linecap="round"/>
<path d="M166.792 4.20996C166.953 6.82541 166.959 9.44698 167.047 12.0655C167.053 12.2473 166.754 15.5618 167.447 14.1089" stroke="black" stroke-width="2" stroke-linecap="round"/>
<path d="M167.748 9.45943C169.528 8.52424 171.715 8.2896 173.581 7.50304" stroke="black" stroke-width="2" stroke-linecap="round"/>
<path d="M174.141 2.87105C172.909 5.54295 173.37 9.41435 173.271 12.2965C173.255 12.754 173.603 15.2948 173.112 14.7359" stroke="black" stroke-width="2" stroke-linecap="round"/>
<path d="M179.049 3.18908C178.017 4.53878 178.845 8.11541 178.888 9.66322C178.917 10.6544 178.565 14.7017 179.312 15.1376" stroke="black" stroke-width="2" stroke-linecap="round"/>
<path d="M184.507 3.02377C184.035 3.33213 184.183 4.61808 184.176 5.01972C184.136 7.16181 184.183 9.30767 184.22 11.4495C184.237 12.4486 184.789 15.274 184.228 14.4472C183.968 14.0641 184.14 13.277 184.129 12.8557" stroke="black" stroke-width="2" stroke-linecap="round"/>
<path d="M184.265 2.74902C185.302 4.04654 186.138 5.46199 187.085 6.82248C187.845 7.91432 187.871 7.91095 188.855 7.9747" stroke="black" stroke-width="2" stroke-linecap="round"/>
<path d="M193.097 2.54309C191.681 4.44434 190.277 6.34958 188.838 8.2328" stroke="black" stroke-width="2" stroke-linecap="round"/>
<path d="M192.497 3.80129C193.485 2.74208 192.878 2.00398 193.016 4.46895C193.159 7.01884 193.3 9.56295 193.385 12.1158C193.423 13.2522 193.48 14.388 193.51 15.5246C193.579 18.1729 193.397 16.0377 193.244 16.2999" stroke="black" stroke-width="2" stroke-linecap="round"/>
<path d="M200.963 1.23718C199.542 4.55507 198.399 7.98103 197.25 11.4006C197.206 11.5311 196.231 14.626 196.494 14.1759" stroke="black" stroke-width="2" stroke-linecap="round"/>
<path d="M200.93 1.75391C201.608 5.26875 203.034 8.62955 203.905 12.1058C204.134 13.0192 204.702 16.3107 205.142 16.8116" stroke="black" stroke-width="2" stroke-linecap="round"/>
<path d="M197.778 10.3681C198.03 9.74885 199.621 9.79281 200.096 9.72582C201.611 9.51207 202.943 9.22482 204.369 8.72025" stroke="black" stroke-width="2" stroke-linecap="round"/>
<path d="M1.44531 7.36816C1.43774 11.2978 1.74648 15.2068 1.86357 19.1326C1.89527 20.195 1.72464 24.181 2.2728 20.9609" stroke="black" stroke-width="2" stroke-linecap="round"/>
<path d="M1.81836 8.96191C4.01961 11.8569 6.01095 14.9114 8.02424 17.938C8.47855 18.621 9.36732 20.3203 10.1002 20.6419" stroke="black" stroke-width="2" stroke-linecap="round"/>
<path d="M9.27295 7.04883C9.4817 11.0536 9.52271 15.6611 10.2191 19.3528" stroke="black" stroke-width="2" stroke-linecap="round"/>
<path d="M17.8501 7.05917C17.0552 9.93995 16.4234 12.8589 15.6916 15.7559C15.3774 16.9997 15.0021 18.2281 14.7134 19.4781C14.3492 21.0544 14.9533 18.7551 14.8826 19.5226" stroke="black" stroke-width="2" stroke-linecap="round"/>
<path d="M17.7787 7.83227C17.7807 7.80973 17.7815 7.35954 17.8923 7.53948C18.8757 9.13752 19.2228 11.4686 19.7654 13.2284C20.5825 15.878 21.2389 19.1522 23.0353 21.3131" stroke="black" stroke-width="2" stroke-linecap="round"/>
<path d="M14.6281 16.64C15.5358 15.3684 18.3206 15.1297 19.739 14.7714" stroke="black" stroke-width="2" stroke-linecap="round"/>
<path d="M25.9941 16.156C24.9157 13.552 25.8144 11.1127 26.7997 8.66325C27.5318 7.15011 29.5106 6.94772 31.1155 7.5878C33.255 8.44112 33.9141 11.0162 33.2688 13.057C32.3716 15.8948 27.9658 20.9171 25.9941 16.156Z" stroke="black" stroke-width="2" stroke-linecap="round"/>
<path d="M41.7056 7.69688C40.3212 6.18417 38.4052 8.26434 37.3607 9.24618C36.7766 9.7952 34.6709 11.4365 36.2611 12.0908C37.7134 12.6884 39.3638 12.6599 40.8581 13.1352C48.2613 15.4897 36.7281 21.2701 36.0454 18.3527" stroke="black" stroke-width="2" stroke-linecap="round"/>
<path d="M46.2295 6.55371C46.2674 9.35867 46.4671 12.1224 46.8614 14.9009C46.9326 15.4024 47.2916 17.2793 47.3181 17.3112" stroke="black" stroke-width="2" stroke-linecap="round"/>
<path d="M45.6598 12.7398C47.854 12.3908 50.0435 12.0574 52.2459 11.7869" stroke="black" stroke-width="2" stroke-linecap="round"/>
<path d="M53.0016 6.39826C52.7312 6.76729 52.8857 7.58086 52.9034 7.93438C53.0278 10.4176 53.0999 12.9019 53.2135 15.3855C53.2743 16.714 53.3803 18.0327 53.5122 19.3553C53.5777 20.0131 53.5658 20.027 53.6188 19.4518" stroke="black" stroke-width="2" stroke-linecap="round"/>
<path d="M56.6816 5.95703C56.9569 8.96502 56.8052 11.9314 56.7491 14.9454C56.742 15.3281 56.9611 21.0472 56.8309 18.4476" stroke="black" stroke-width="2" stroke-linecap="round"/>
<path d="M61.9551 5.14355C62.1257 5.42076 62.2359 6.75306 62.2383 6.77256C62.5566 9.42959 62.6964 12.1024 62.8589 14.7721C62.9179 15.7419 63.2261 19.5463 62.9962 16.4166" stroke="black" stroke-width="2" stroke-linecap="round"/>
<path d="M62.0938 6.45605C63.4388 7.64277 66.3975 13.1127 68.3916 11.455" stroke="black" stroke-width="2" stroke-linecap="round"/>
<path d="M73.4384 4.64122C71.4638 5.63615 69.9021 8.38798 68.7424 10.1583C68.2682 10.8822 66.8834 11.8413 67.5068 12.4416C67.9626 12.8806 68.3076 11.4615 68.6972 10.9628" stroke="black" stroke-width="2" stroke-linecap="round"/>
<path d="M71.397 7.05281C71.9249 6.41856 72.1253 5.38951 72.7535 4.86724C73.2751 4.43366 73.6148 8.91506 73.6183 8.96142C73.8451 11.9493 74.0868 14.9309 74.3823 17.9128C74.4921 19.0198 74.4493 18.8217 74.2898 17.9765" stroke="black" stroke-width="2" stroke-linecap="round"/>
<path d="M79.953 4.46195C78.9252 7.86141 78.0956 11.3122 77.0455 14.707C76.8245 15.4212 75.549 18.5867 77.0093 16.6676" stroke="black" stroke-width="2" stroke-linecap="round"/>
<path d="M80.187 4.74316C81.6717 8.60436 83.1254 12.483 84.4564 16.4002C84.8583 17.5831 85.1901 18.7919 85.6004 19.9713C85.8083 20.5689 85.7371 19.9995 85.8167 19.818" stroke="black" stroke-width="2" stroke-linecap="round"/>
<path d="M76.8263 13.0113C79.0602 12.6665 81.2632 12.806 83.4124 12.0583" stroke="black" stroke-width="2" stroke-linecap="round"/>
<path d="M101.982 7.62829C99.6591 8.92224 98.5265 11.3767 98.512 14.032C98.494 17.328 101.371 19.0592 103.999 16.7509C105.935 15.0505 109.3 10.1903 107.409 7.49007C106.495 6.18423 104.604 6.4903 103.404 7.02877C101.567 7.85295 101.417 9.01967 100.248 10.3691" stroke="black" stroke-width="2" stroke-linecap="round"/>
<path d="M110.757 4.30566C111.119 8.45049 111.018 12.5822 111.118 16.7361C111.137 17.4901 110.613 18.8926 111.362 18.9855C111.629 19.0186 111.707 17.4765 111.728 17.3376" stroke="black" stroke-width="2" stroke-linecap="round"/>
<path d="M110.372 10.2471C111.977 8.08233 114.303 6.07465 117.142 5.84409C118.249 5.75414 117.45 6.70249 117.152 7.02635C115.478 8.84525 113.299 10.2178 111.37 11.7384C110.652 12.3046 108.718 13.56 109.592 13.8279C110.692 14.1648 112.041 14.1181 113.173 14.3914C114.762 14.7751 116.272 15.3322 117.784 15.9439C117.839 15.9663 118.659 16.319 118.908 16.3914C119.036 16.4287 118.66 16.2911 118.544 16.2237" stroke="black" stroke-width="2" stroke-linecap="round"/>
</svg>
