<svg width="73" height="85" viewBox="0 0 73 85" fill="none" xmlns="http://www.w3.org/2000/svg">
<path d="M43.0335 32.1426C45.5155 29.4724 40.9593 21.5264 39.4346 19.4229C32.8967 10.4035 21.427 2.68311 11.9068 12.4526C-1.40114 26.1091 18.3659 50.6341 27.0092 61.0734C28.7867 63.2203 47.9842 84.9498 50.9238 82.728" stroke="black" stroke-width="3" stroke-linecap="round"/>
<path d="M44.1458 35.4393C38.3524 33.2795 59.1127 -4.75226 68.0268 3.67351C71.5995 7.05048 70.6982 14.8071 70.26 18.9963C69.0175 30.8744 64.8893 42.4981 60.8161 53.6426C58.2708 60.6068 55.5708 67.5496 52.2427 74.1832C51.7842 75.0973 50.3819 77.6203 50.0253 77.8898" stroke="black" stroke-width="3" stroke-linecap="round"/>
<path d="M20.0677 10.8816C18.4447 17.8496 14.278 25.1848 11.2933 31.6124C10.4486 33.4315 2.41786 52.2937 7.75332 42.9467" stroke="black" stroke-width="3" stroke-linecap="round"/>
<path d="M27.7936 17.4556C26.4778 24.542 22.3473 31.2392 19.4701 37.7691C18.9142 39.0307 13.0158 52.0723 16.2499 49.6278" stroke="black" stroke-width="3" stroke-linecap="round"/>
<path d="M36.9555 25.0128C33.5478 34.1536 29.7109 43.1181 26.2737 52.2427C24.8708 55.9668 22.6253 58.5068 26.5039 54.9804" stroke="black" stroke-width="3" stroke-linecap="round"/>
<path d="M46.3102 25.5284C44.407 34.4803 39.7245 42.8252 36.4421 51.3004C35.0766 54.8258 29.9502 63.1764 30.8772 67.1534C30.8943 67.2271 34.2687 60.029 34.5521 59.2419" stroke="black" stroke-width="3" stroke-linecap="round"/>
<path d="M67.4635 3.33346C59.4627 23.5532 49.1939 42.6922 40.9102 62.7883C39.2535 66.8074 35.9989 72.0585 35.3861 76.4651C35.3239 76.9118 38.7013 71.3738 39.3236 70.1175" stroke="black" stroke-width="3" stroke-linecap="round"/>
<path d="M67.4587 31.6121C66.197 32.6745 65.3025 34.0555 64.4778 35.4743C60.4012 42.4881 56.9596 50.0717 53.7338 57.5024C51.4066 62.863 49.5284 68.4373 47.0271 73.7203C46.9173 73.9523 48.5265 69.6786 48.9999 68.3214" stroke="black" stroke-width="3" stroke-linecap="round"/>
</svg>
