<svg width="51" height="18" viewBox="0 0 51 18" fill="none" xmlns="http://www.w3.org/2000/svg">
<path d="M2.13477 3.66211C1.86959 6.58526 2.67151 9.49583 2.5782 12.4374C2.54427 13.5068 1.84559 16.6242 2.99684 15.1069" stroke="black" stroke-width="2" stroke-linecap="round"/>
<path d="M10.4006 3.70797C9.92051 6.9348 10.0226 9.74474 10.463 12.9551C10.6613 14.4001 10.4556 15.0404 10.1123 13.2654C9.81247 11.7153 7.75197 3.90125 9.21483 2.9005C10.7505 1.84993 17.4087 5.57544 17.5003 7.2963C17.6696 10.4765 10.2968 13.6907 8.94648 15.4705" stroke="black" stroke-width="2" stroke-linecap="round"/>
<path d="M19.2566 4.61731C21.6247 3.94089 28.7299 2.0367 26.2861 2.342C23.3977 2.70283 21.8116 3.02641 21.2396 6.0758C20.8803 7.99155 19.0187 16.064 22.7124 16.0471C26.0955 16.0317 28.6873 13.1524 28.748 10.1587" stroke="black" stroke-width="2" stroke-linecap="round"/>
<path d="M20.2107 11.5662C23.7315 9.22973 27.3743 7.20985 31.1562 5.34512" stroke="black" stroke-width="2" stroke-linecap="round"/>
<path d="M33.2902 1.98436C33.9564 -1.56737 31.141 8.88504 30.0145 12.3187C28.4593 17.0592 32.1172 8.23765 32.3891 6.78824C33.9596 -1.58415 40.8851 13.6262 40.4194 16.1091" stroke="black" stroke-width="2" stroke-linecap="round"/>
<path d="M31.2457 12.8839C30.9535 12.4567 35.2391 10.94 35.6991 10.7522C37.281 10.1065 38.4131 9.52394 39.6025 8.43382" stroke="black" stroke-width="2" stroke-linecap="round"/>
<path d="M45.9152 2.84832C44.5114 1.03484 43.9543 3.3378 42.9707 4.51082C40.9209 6.95517 42.002 7.08135 44.9308 8.09626C46.1607 8.52246 50.8572 9.80711 49.0583 11.7121C47.3321 13.5402 44.6814 12.9362 42.6901 12.022" stroke="black" stroke-width="2" stroke-linecap="round"/>
</svg>
