<svg width="58" height="18" viewBox="0 0 58 18" fill="none" xmlns="http://www.w3.org/2000/svg">
<path d="M1.16916 4.95487C0.32834 4.95487 2.85244 4.90352 3.68685 4.79994C6.70748 4.42496 9.69721 3.65978 12.6731 3.03755C13.4819 2.86843 19.6451 0.820235 19.6451 2.51465" stroke="black" stroke-width="2" stroke-linecap="round"/>
<path d="M10.9297 4.25671C11.6121 1.52711 11.5039 9.85547 11.7044 12.6619C11.7515 13.3214 13.0318 18.331 11.6269 16.4578" stroke="black" stroke-width="2" stroke-linecap="round"/>
<path d="M22.4336 4.60529C23.5741 3.46479 27.5814 2.51367 29.0571 2.51367" stroke="black" stroke-width="2" stroke-linecap="round"/>
<path d="M23.1315 4.60547C22.9117 7.79243 23.503 10.7268 23.9062 13.8628C23.9446 14.1619 24.1231 15.6067 24.2548 15.4896C25.8638 14.0594 29.825 14.0735 31.8466 13.6692" stroke="black" stroke-width="2" stroke-linecap="round"/>
<path d="M22.0859 10.1825C23.7889 8.86655 26.6125 8.67244 28.7094 8.43945" stroke="black" stroke-width="2" stroke-linecap="round"/>
<path d="M32.1953 5.30273C35.4324 6.77414 38.4191 9.56755 40.9685 12.0037C41.78 12.7791 43.1189 14.4369 41.6076 12.6234" stroke="black" stroke-width="2" stroke-linecap="round"/>
<path d="M40.9099 3.21094C40.0098 3.88605 39.5805 5.45864 39.1669 6.42584C38.2112 8.6604 37.2054 10.916 36.4362 13.2236C35.3876 16.3692 37.0939 12.5673 37.4239 11.5774" stroke="black" stroke-width="2" stroke-linecap="round"/>
<path d="M45.0938 1.81706C47.7722 1.51527 50.4627 1.39239 53.1504 1.19732C54.0607 1.13125 55.0245 0.974144 55.9392 1.00365C56.9428 1.03603 56.1532 1.33771 56.2491 1.81706" stroke="black" stroke-width="2" stroke-linecap="round"/>
<path d="M50.3223 1.81582C50.5897 1.28085 50.6098 2.97699 50.7483 3.55883C51.307 5.90531 51.6447 8.27385 52.0653 10.6471C52.1312 11.0191 53.3393 16.1023 52.4139 14.7141" stroke="black" stroke-width="2" stroke-linecap="round"/>
</svg>
