<svg width="162" height="94" viewBox="0 0 162 94" fill="none" xmlns="http://www.w3.org/2000/svg">
<path d="M15.8154 7.35059C18.3621 7.35059 20.9404 7.35059 23.4813 7.35059C24.1116 7.35059 26.9643 7.35059 26.8093 7.35059" stroke="black" stroke-width="2" stroke-linecap="round"/>
<path d="M22.8154 7.35059L24.8154 20.3506" stroke="black" stroke-width="2" stroke-linecap="round"/>
<path d="M30.8356 7.35072C30.7242 7.33042 31.1089 9.59106 31.1326 9.75429C31.4515 11.9518 31.8036 14.1424 32.1225 16.3401C32.2451 17.1851 32.8154 19.6179 32.8154 17.5178" stroke="black" stroke-width="2" stroke-linecap="round"/>
<path d="M31.8154 14.3506C33.24 11.7863 36.5877 11.3948 38.8154 10.3506" stroke="black" stroke-width="2" stroke-linecap="round"/>
<path d="M38.8154 6.35059C38.9564 9.254 39.3637 12.1278 39.9424 14.9981C40.0477 15.5205 40.55 18.5434 40.8154 18.3409" stroke="black" stroke-width="2" stroke-linecap="round"/>
<path d="M44.8169 7.35059C44.714 7.2124 50.0365 4.78509 50.8154 4.35059" stroke="black" stroke-width="2" stroke-linecap="round"/>
<path d="M45.8154 6.35059C45.8154 8.63559 45.8091 10.9053 46.0715 13.1783C46.2172 14.4397 46.1979 17.3698 47.2937 18.3297C47.5447 18.5496 50.4584 16.965 50.7974 16.8369C51.1844 16.6907 54.1858 15.5955 53.7773 15.3808" stroke="black" stroke-width="2" stroke-linecap="round"/>
<path d="M46.8154 14.3506C47.6414 13.4611 49.157 13.1999 50.1607 12.6145C51.0848 12.0754 51.8272 11.6388 52.8154 11.3506" stroke="black" stroke-width="2" stroke-linecap="round"/>
<path d="M72.9693 3.35059C71.5838 3.91332 70.4538 6.77886 69.92 8.18677C69.1306 10.2685 68.4472 13.1914 69.039 15.4607C70.1763 19.8216 74.569 15.5108 75.8154 13.7307" stroke="black" stroke-width="2" stroke-linecap="round"/>
<path d="M79.8154 4.35059C80.2269 7.0405 80.6717 9.72307 81.1221 12.4074C81.4067 14.1037 81.2527 16.6918 82.2154 18.2227C82.9177 19.3394 85.603 12.7909 85.8154 12.1957" stroke="black" stroke-width="2" stroke-linecap="round"/>
<path d="M88.3789 3.75195L90.443 13.155" stroke="black" stroke-width="2" stroke-linecap="round"/>
<path d="M91.8193 3.29372C94.1704 2.72184 96.5532 1.85495 98.929 1.45898" stroke="black" stroke-width="2" stroke-linecap="round"/>
<path d="M93.8838 3.29297C94.0851 5.83407 94.0147 8.372 94.1641 10.9122C94.232 12.0665 94.1984 14.5799 95.9988 14.1485C97.2989 13.837 98.3223 12.8293 99.4899 12.2373C99.9557 12.0012 100.901 11.4431 100.305 12.2373" stroke="black" stroke-width="2" stroke-linecap="round"/>
<path d="M94.3418 9.71447C96.4847 9.19812 98.4827 8.41966 100.534 7.65039" stroke="black" stroke-width="2" stroke-linecap="round"/>
<path d="M102.827 3.52246C102.844 6.23098 102.825 8.95953 103.171 11.6514C103.187 11.7768 103.638 13.6574 103.694 13.4097C104.267 10.8284 102.853 7.82582 102.929 5.20431C102.959 4.16763 104.281 6.12452 104.356 6.22361C105.41 7.62026 106.492 8.95423 107.669 10.2498C107.707 10.2915 109.095 11.8587 109.198 11.5749C109.364 11.1191 108.931 10.3675 108.79 9.94405" stroke="black" stroke-width="2" stroke-linecap="round"/>
<path d="M108.103 3.06445C109.277 5.41379 107.921 9.53391 109.937 11.5501" stroke="black" stroke-width="2" stroke-linecap="round"/>
<path d="M112.23 2.83474C112.767 1.36001 116.57 1 117.964 1" stroke="black" stroke-width="2" stroke-linecap="round"/>
<path d="M114.982 2.37598C115.062 6.29657 116.035 9.54319 116.996 13.2825C117.528 15.3542 117.276 14.143 117.276 12.6964" stroke="black" stroke-width="2" stroke-linecap="round"/>
<path d="M2.14648 36.7773C2.57702 40.0494 3.66412 43.1998 4.38894 46.4097C4.69196 47.7517 4.97781 48.8407 4.43991 46.8684" stroke="black" stroke-width="2" stroke-linecap="round"/>
<path d="M1 38.3828C2.88004 38.5836 10.7589 39.0105 10.3776 42.3836C10.1497 44.3991 7.70236 46.5229 6.21117 47.6457C5.09429 48.4866 4.1408 48.8237 2.83474 48.9326" stroke="black" stroke-width="2" stroke-linecap="round"/>
<path d="M13.6131 39.2999C13.305 41.4568 13.0642 44.054 14.8617 45.6961C16.9002 47.5581 18.5567 44.9611 18.5567 43.0331C18.5567 41.0687 17.7261 38.4318 15.6899 37.6945C14.3487 37.2089 13.7031 38.1938 14.0718 39.2999" stroke="black" stroke-width="2" stroke-linecap="round"/>
<path d="M21.4111 37.0069C23.3178 36.3714 25.4309 36.3374 27.374 35.6309" stroke="black" stroke-width="2" stroke-linecap="round"/>
<path d="M22.3289 36.7773C22.1548 39.0396 21.6207 45.9505 25.3868 45.8364C26.8775 45.7912 28.5901 44.9614 29.7952 44.1163C29.8697 44.0641 30.9394 43.0741 30.5852 43.4283" stroke="black" stroke-width="2" stroke-linecap="round"/>
<path d="M23.0162 41.5934C22.808 41.5041 24.4607 40.8807 24.5196 40.8544C25.4141 40.4553 26.2804 39.99 27.1443 39.5293" stroke="black" stroke-width="2" stroke-linecap="round"/>
<path d="M32.6493 36.5476C33.3047 34.1276 31.241 36.1081 30.5597 37.0062C29.0179 39.0385 31.4171 39.4603 32.9296 39.8093C34.3886 40.146 36.9231 41.253 35.7072 43.1985C34.8569 44.5589 33.1763 44.9483 31.7319 44.8039" stroke="black" stroke-width="2" stroke-linecap="round"/>
<path d="M38.1534 36.0889C37.5941 38.1662 38.2609 40.7937 38.8287 42.8162C38.8913 43.0395 39.6018 45.4435 39.0707 44.1159" stroke="black" stroke-width="2" stroke-linecap="round"/>
<path d="M37.694 38.3823C37.6653 37.7651 37.7939 36.7219 38.7387 36.9553C40.0903 37.2892 41.0587 39.8562 41.8349 40.8541C42.3472 41.5128 43.3304 42.9169 44.2557 43.0711C44.8439 43.1691 44.3802 41.5756 44.3449 41.3638" stroke="black" stroke-width="2" stroke-linecap="round"/>
<path d="M43.6571 33.7959C43.4609 36.4451 43.9416 39.089 44.2305 41.721C44.2603 41.9929 44.3955 44.3847 45.0332 43.4283" stroke="black" stroke-width="2" stroke-linecap="round"/>
<path d="M48.9321 31.0439C47.9565 32.9953 47.732 35.3448 48.0148 37.4655" stroke="black" stroke-width="2" stroke-linecap="round"/>
<path d="M49.6201 35.8596L54.895 34.7129" stroke="black" stroke-width="2" stroke-linecap="round"/>
<path d="M52.3721 34.9424L54.2068 43.4281" stroke="black" stroke-width="2" stroke-linecap="round"/>
<path d="M71.1787 29.4385C71.2873 30.6212 71.7238 41.5219 73.7524 40.9566C74.7003 40.6924 75.9046 35.2829 76.5046 35.6562C77.3088 36.1566 79.826 42.5637 81.3972 40.1921C82.7494 38.1511 81.8694 34.1599 81.2698 31.9612" stroke="black" stroke-width="2" stroke-linecap="round"/>
<path d="M87.0026 28.9795C86.5471 29.8905 86.3909 31.1432 86.1362 32.1138C85.5797 34.234 85.1044 36.3665 84.862 38.5482C84.6646 40.3246 85.2789 38.3994 85.3972 37.8984C85.8044 36.1735 85.9418 34.3999 86.34 32.6745C86.3689 32.5492 86.8878 30.1764 87.3466 30.4193C88.0193 30.7754 88.5586 33.1444 88.8628 33.7957C89.6334 35.4455 90.3928 37.1106 91.2072 38.7393C91.5699 39.4647 91.5443 39.3582 91.1307 38.8412" stroke="black" stroke-width="2" stroke-linecap="round"/>
<path d="M84.4804 36.5479C84.3239 36.4584 86.9323 35.2932 87.1815 35.1845C88.2232 34.7305 89.0982 34.2559 89.9846 33.5664" stroke="black" stroke-width="2" stroke-linecap="round"/>
<path d="M94.3418 29.209C94.3686 32.2604 94.8366 35.118 95.2082 38.1279C95.2405 38.3894 95.2802 39.0528 95.2592 38.3062C95.2267 37.1551 94.9815 36.0736 94.8005 34.9425" stroke="black" stroke-width="2" stroke-linecap="round"/>
<path d="M94.8008 32.8784C95.3841 30.6909 98.947 35.1845 99.515 35.7579C100.58 36.8329 101.222 37.7253 101.222 35.8599" stroke="black" stroke-width="2" stroke-linecap="round"/>
<path d="M100.075 28.75C100.507 29.8307 101.242 39.0638 102.598 38.6117" stroke="black" stroke-width="2" stroke-linecap="round"/>
<path d="M102.827 29.2094C103.72 28.2351 105.737 28.0678 106.955 27.7824C108.039 27.5285 109.085 27.1562 110.166 26.916" stroke="black" stroke-width="2" stroke-linecap="round"/>
<path d="M107.414 27.6035C106.675 30.1376 107.707 33.5563 108.23 36.0637C108.51 37.4053 108.79 38.9548 108.79 36.7772" stroke="black" stroke-width="2" stroke-linecap="round"/>
<path d="M120.717 26.6862C124.021 25.808 127.325 24.9243 130.668 24.2016C131.302 24.0646 131.914 23.8308 132.413 24.1634" stroke="black" stroke-width="2" stroke-linecap="round"/>
<path d="M128.514 25.3105C127.293 27.021 128.108 30.6201 128.527 32.4839C128.718 33.3356 128.913 34.4631 129.483 35.1723C130.156 36.011 130.646 34.8753 131.037 34.4842" stroke="black" stroke-width="2" stroke-linecap="round"/>
<path d="M134.248 27.3747C134.159 29.4183 133.778 31.7181 134.669 33.6434C135.857 36.211 138.339 35.3582 139.548 33.2866C140.654 31.3933 140.97 27.322 138.555 26.1897C136.455 25.2055 135.382 27.6952 135.165 29.2094" stroke="black" stroke-width="2" stroke-linecap="round"/>
<path d="M11.3205 63.3809C9.13289 63.5711 6.40991 64.8123 4.66953 66.1075C3.99741 66.6077 3.96603 67.0132 4.82242 67.2669C6.70626 67.8251 8.73204 67.7087 10.556 68.5283C13.9831 70.0683 11.7001 73.3368 8.77221 73.4082C7.29551 73.4442 4.24245 73.2453 5.12821 71.1785" stroke="black" stroke-width="2" stroke-linecap="round"/>
<path d="M17.7412 60.8584C18.24 65.3836 18.7423 69.9185 19.7543 74.3641C20.166 76.1727 19.8802 74.0339 19.8053 73.4722" stroke="black" stroke-width="2" stroke-linecap="round"/>
<path d="M17.0537 62.2347C18.4927 61.9116 22.8343 60.9954 21.9973 63.8783C21.3265 66.1889 19.316 67.0274 17.2831 67.7389" stroke="black" stroke-width="2" stroke-linecap="round"/>
<path d="M25.5391 63.152C27.5581 62.4345 29.6241 61.5093 31.7313 61.0879" stroke="black" stroke-width="2" stroke-linecap="round"/>
<path d="M26.6865 61.7754C26.9316 63.6135 27.2667 65.429 27.5912 67.2541C27.7476 68.134 27.6873 70.6309 28.7761 71.0255C30.4239 71.6229 32.9232 69.758 34.0255 68.6557" stroke="black" stroke-width="2" stroke-linecap="round"/>
<path d="M26.457 67.9675C26.5724 67.1601 28.8286 66.2387 29.4257 65.9544C30.4898 65.4477 31.599 65.0525 32.6493 64.5273" stroke="black" stroke-width="2" stroke-linecap="round"/>
<path d="M35.8594 60.6289C35.9424 62.6214 36.0321 64.6497 36.369 66.6173C36.4117 66.8667 37.1054 69.0839 36.5474 67.9679" stroke="black" stroke-width="2" stroke-linecap="round"/>
<path d="M35.8594 61.0879C37.3745 62.7954 38.9096 64.4765 40.3953 66.2099C41.0078 66.9245 41.633 68.1463 41.8223 66.8215" stroke="black" stroke-width="2" stroke-linecap="round"/>
<path d="M41.3643 58.7939C41.8803 62.0257 42.525 65.2248 43.199 68.4263" stroke="black" stroke-width="2" stroke-linecap="round"/>
<path d="M45.9512 57.418C47.059 60.3721 47.1129 63.6887 48.1044 66.7063C48.1621 66.8819 48.6344 68.8623 48.9326 67.9677" stroke="black" stroke-width="2" stroke-linecap="round"/>
<path d="M45.9512 59.2529C48.3537 59.8536 53.3631 59.6617 54.3349 62.6548C54.8578 64.2654 53.5586 65.897 52.4237 66.8595C51.7366 67.4422 51.0622 67.8649 50.2195 68.1845C48.9962 68.6485 48.4904 68.2438 47.3272 68.1973" stroke="black" stroke-width="2" stroke-linecap="round"/>
<path d="M62.6924 58.3351C65.6376 57.5988 68.4837 56.4183 71.4074 55.583" stroke="black" stroke-width="2" stroke-linecap="round"/>
<path d="M68.885 56.96C68.0961 57.7489 69.4179 62.127 69.5731 63.0758C69.6462 63.5226 70.0082 67.992 70.9491 67.051" stroke="black" stroke-width="2" stroke-linecap="round"/>
<path d="M75.7656 57.1885C75.86 60.1845 76.4809 62.9595 77.0907 65.878C77.2312 66.5503 77.371 67.6412 77.371 66.3622" stroke="black" stroke-width="2" stroke-linecap="round"/>
<path d="M80.8105 54.666C80.97 58.4284 82.3353 61.9193 82.5943 65.6745C82.7958 68.5954 82.4638 63.9557 82.4159 63.381" stroke="black" stroke-width="2" stroke-linecap="round"/>
<path d="M81.499 56.7302C81.7912 54.1009 84.559 57.9717 85.143 58.6287C86.6362 60.3085 87.3839 59.4411 88.3793 57.877" stroke="black" stroke-width="2" stroke-linecap="round"/>
<path d="M90.2138 53.29C90.0462 53.0665 89.1722 54.7143 89.1436 54.768C88.5354 55.9106 86.9061 58.1167 87.0667 59.4823C87.0745 59.5479 88.6512 56.8938 88.825 56.4881C89.4372 55.0598 89.64 53.5975 90.0864 52.1306C90.2683 51.5328 90.4385 53.3827 90.4432 53.4174C90.7748 55.8859 91.014 58.374 91.4115 60.8328C91.4986 61.3714 92.1813 62.8987 91.8702 63.432C91.8162 63.5247 91.8192 63.8917 91.8192 63.6104" stroke="black" stroke-width="2" stroke-linecap="round"/>
<path d="M93.8838 54.6657C95.9554 53.5746 98.0595 52.5651 100.152 51.5186C100.518 51.3359 100.744 51.2256 100.305 51.2256" stroke="black" stroke-width="2" stroke-linecap="round"/>
<path d="M95.4891 52.1436C95.032 54.0477 95.7296 56.5158 95.9477 58.4377C96.1241 59.9914 96.2481 62.6849 97.8334 63.5852C99.02 64.2591 102.914 61.8615 102.599 61.5466" stroke="black" stroke-width="2" stroke-linecap="round"/>
<path d="M97.0938 59.4826C97.3572 58.8241 99.4521 58.3375 100.037 58.132C101.231 57.7126 102.37 57.2651 103.515 56.7305" stroke="black" stroke-width="2" stroke-linecap="round"/>
<path d="M112.23 52.3729C111.765 50.9773 112.139 55.3804 112.625 56.7686C113.688 59.7997 115.798 58.4503 116.282 55.9277C116.673 53.8882 115.575 51.025 113.53 50.2069C111.723 49.484 111.832 51.723 112.46 52.6023" stroke="black" stroke-width="2" stroke-linecap="round"/>
<path d="M118.652 49.1621C119.811 51.7683 119.579 54.9129 120.462 57.6223C120.903 58.979 120.228 56.4202 120.207 56.3482C119.753 54.7721 119.254 53.175 119.035 51.5447C118.636 48.5808 123.039 53.7023 123.469 54.1567C123.958 54.6739 125.341 56.4484 126.272 56.1825C127.015 55.9701 125.878 53.6394 125.762 53.2903" stroke="black" stroke-width="2" stroke-linecap="round"/>
<path d="M124.386 46.4102C125.197 49.9248 125.365 53.4236 126.909 56.7306" stroke="black" stroke-width="2" stroke-linecap="round"/>
<path d="M131.954 48.244C135.115 46.7178 138.795 46.3333 142.045 45.0332" stroke="black" stroke-width="2" stroke-linecap="round"/>
<path d="M137.917 45.9512C136.519 47.9943 136.804 51.4535 137.229 53.7743C137.383 54.6121 137.555 55.6794 138.147 56.2716" stroke="black" stroke-width="2" stroke-linecap="round"/>
<path d="M141.357 43.6572C141.872 43.9878 142.141 45.1165 142.288 45.5684C142.951 47.6155 143.312 49.7159 143.638 51.8371C143.674 52.0717 144.181 56.3955 143.88 54.5892C143.477 52.1713 145.471 48.0147 148.238 48.0147" stroke="black" stroke-width="2" stroke-linecap="round"/>
<path d="M146.861 45.0332C147.348 47.9521 148.553 50.93 149.384 53.7482" stroke="black" stroke-width="2" stroke-linecap="round"/>
<path d="M151.678 42.0518L153.742 53.7482" stroke="black" stroke-width="2" stroke-linecap="round"/>
<path d="M158.329 44.1162C157.485 44.1162 155.302 43.851 154.978 44.9444C154.581 46.2842 157.933 47.3927 158.686 47.8366C160.707 49.0284 160.836 50.4481 159.093 52.0922C158.618 52.5403 157.826 53.2228 157.106 53.2134C156.08 53.2001 156.696 51.691 156.723 51.2258" stroke="black" stroke-width="2" stroke-linecap="round"/>
<path d="M52.1426 81.499C52.8727 84.7114 53.6606 87.9108 54.4105 91.1187C54.4308 91.2052 54.8947 93.5101 54.8947 92.2781" stroke="black" stroke-width="2" stroke-linecap="round"/>
<path d="M52.6016 84.4806C53.8917 82.7604 58.222 83.1089 59.8131 84.2512C61.7334 85.6299 55.4185 89.0947 54.6656 89.5516C54.3268 89.7573 53.4293 90.4204 53.8247 90.3925C55.0686 90.3049 56.2958 90.2213 57.5452 90.2141C59.3938 90.2035 61.1422 90.2894 62.922 89.7555" stroke="black" stroke-width="2" stroke-linecap="round"/>
<path d="M64.2979 81.958C65.1712 83.1225 65.2995 85.7366 65.6229 87.131C65.9481 88.5326 66.0704 89.9228 67.05 90.9024" stroke="black" stroke-width="2" stroke-linecap="round"/>
<path d="M70.9496 79.4346C70.3189 81.4167 67.3885 86.6995 70.0067 88.4044C71.5243 89.3926 74.8545 88.3575 75.3071 86.7735" stroke="black" stroke-width="2" stroke-linecap="round"/>
<path d="M69.8027 87.2326C69.9381 86.5558 72.7733 85.2413 73.3703 84.8627C73.8701 84.5458 75.2927 83.3153 75.4853 84.455C75.5932 85.093 76.6144 90.4316 77.371 89.2967" stroke="black" stroke-width="2" stroke-linecap="round"/>
<path d="M78.0586 79.6641C78.8445 81.8471 79.3731 84.0607 79.8933 86.315" stroke="black" stroke-width="2" stroke-linecap="round"/>
<path d="M79.4346 84.7097C79.4743 83 81.007 81.4631 82.5434 80.8619C83.3587 80.5429 83.8679 80.5057 84.4801 79.8936" stroke="black" stroke-width="2" stroke-linecap="round"/>
<path d="M83.1043 76.4531C82.8267 76.8001 83.6592 78.8159 83.7413 79.1033C84.2226 80.7879 84.6502 82.486 85.1174 84.1743C85.1763 84.3873 85.8564 87.4823 85.8564 86.0855" stroke="black" stroke-width="2" stroke-linecap="round"/>
<path d="M85.627 76.6828C88.4612 75.3601 91.9542 74.5458 95.03 73.9307" stroke="black" stroke-width="2" stroke-linecap="round"/>
<path d="M91.3604 75.5361C91.2072 78.6925 91.7065 81.8256 92.6218 84.85C93.0964 86.4184 93.382 86.6719 93.8832 85.1685" stroke="black" stroke-width="2" stroke-linecap="round"/>
<path d="M108.562 74.1602C109.171 76.2916 109.218 78.6465 109.695 80.8238C110.021 82.3078 110.167 82.5024 110.167 81.0404" stroke="black" stroke-width="2" stroke-linecap="round"/>
<path d="M109.478 75.766C109.374 75.35 110.244 76.1777 110.549 76.4795C111.715 77.6352 112.783 78.88 114.014 79.9706C114.648 80.5317 115.464 81.3997 116.257 81.7543C116.695 81.9506 116.367 80.8889 116.359 80.8115" stroke="black" stroke-width="2" stroke-linecap="round"/>
<path d="M114.524 73.0137C114.905 75.4023 115.508 77.7375 116.028 80.0978C116.164 80.7143 116.32 82.1679 116.818 82.4167" stroke="black" stroke-width="2" stroke-linecap="round"/>
<path d="M120.029 73.4717C119.198 74.8016 119.235 77.5331 119.494 79.0269C119.884 81.2807 121.589 82.5934 123.189 80.4029C124.485 78.6274 124.499 76.5926 122.679 75.1663C121.871 74.5328 119.111 73.2836 119.111 75.0771" stroke="black" stroke-width="2" stroke-linecap="round"/>
<path d="M126.45 70.9492C125.965 72.0396 127.211 75.0508 127.482 76.1349C127.572 76.496 128.75 81.4744 129.762 80.5434C130.718 79.6643 130.824 77.4878 131.138 76.2878C131.487 74.9561 131.986 75.382 132.782 76.2751C133.516 77.0986 134.258 78.3347 135.292 78.8233C136.608 79.4455 136.204 75.6793 136.159 75.3068C135.893 73.1223 135.001 71.125 134.579 68.9871C134.386 68.0143 134.51 67.7717 135.165 68.4265" stroke="black" stroke-width="2" stroke-linecap="round"/>
<path d="M145.715 75.995C145.266 75.965 145.425 75.8624 145.715 75.7656" stroke="black" stroke-width="2" stroke-linecap="round"/>
<path d="M151.677 73.9307C151.427 74.1308 150.867 74.16 151.448 74.16" stroke="black" stroke-width="2" stroke-linecap="round"/>
<path d="M157.87 72.325C157.402 72.325 157.596 72.2326 157.87 72.0957" stroke="black" stroke-width="2" stroke-linecap="round"/>
</svg>
