<svg width="177" height="24" viewBox="0 0 177 24" fill="none" xmlns="http://www.w3.org/2000/svg">
<path d="M4.10742 4.00293C4.28538 9.16364 5.86102 14.1479 5.94846 19.3066C5.98246 21.3129 6.06127 23.7478 6.69638 20.5723" stroke="black" stroke-width="2" stroke-linecap="round"/>
<path d="M1 5.55705C3.93056 4.09177 14.2509 0.956951 15.5557 6.36251C16.5126 10.3266 7.50695 11.4328 5.14234 11.7706" stroke="black" stroke-width="2" stroke-linecap="round"/>
<path d="M22.2297 7.10998C21.926 6.19898 31.5499 3.97308 31.5499 4.00323" stroke="black" stroke-width="2" stroke-linecap="round"/>
<path d="M24.8189 6.5918C23.0946 7.66947 25.8931 19.031 27.1202 20.4571C29.0274 22.6736 31.9919 19.9202 33.6213 18.7887C34.248 18.3535 37.2399 16.9417 36.7281 16.4298" stroke="black" stroke-width="2" stroke-linecap="round"/>
<path d="M24.8184 16.9479C24.8184 15.5364 33.0939 11.8282 34.6564 10.7344" stroke="black" stroke-width="2" stroke-linecap="round"/>
<path d="M38.7988 5.5564C40.3296 4.5614 46.0479 2.921 46.0479 1.41406" stroke="black" stroke-width="2" stroke-linecap="round"/>
<path d="M39.8342 5.03906C38.8089 6.94309 40.5338 17.5043 43.0272 18.1277C44.6021 18.5214 50.5713 12.5612 50.19 13.3237" stroke="black" stroke-width="2" stroke-linecap="round"/>
<path d="M40.3525 11.7699L48.6372 6.07422" stroke="black" stroke-width="2" stroke-linecap="round"/>
<path d="M51.7435 2.4502C51.7273 2.4502 52.2705 3.23416 52.3764 3.83097C52.9741 7.20004 53.7783 10.4676 54.6201 13.7841C55.0506 15.4797 54.5338 20.1415 55.7708 18.9045C56.1252 18.5501 55.4077 14.8743 55.3681 14.3594" stroke="black" stroke-width="2" stroke-linecap="round"/>
<path d="M53.2968 7.62786C53.87 5.33513 59.7726 2.11385 61.9554 3.34169C65.2285 5.18278 54.1826 12.706 53.1817 13.5249C52.6426 13.9661 55.2868 13.5487 55.483 13.5537C58.5621 13.6317 61.7491 15.0887 64.4581 16.4303C66.1515 17.269 71.2773 20.466 67.2772 17.4659" stroke="black" stroke-width="2" stroke-linecap="round"/>
<path d="M94.7209 4.00311C92.4723 2.69139 83.5608 8.34036 86.6089 10.2454C89.7073 12.1819 93.7083 12.1836 96.7058 14.1576C101.243 17.1455 90.5313 18.8544 89.543 19.0191" stroke="black" stroke-width="2" stroke-linecap="round"/>
<path d="M103.005 6.07449C103.132 9.13665 103.372 12.662 104.386 15.5673C105.699 19.331 109.163 19.2475 111.002 16.0851C112.912 12.8002 112.675 9.35786 111.807 5.78683C111.407 4.13796 111.358 4.208 111.807 5.5567" stroke="black" stroke-width="2" stroke-linecap="round"/>
<path d="M116.468 3.48535C115.904 8.70369 116.025 13.6197 116.87 18.789C117.275 21.2585 116.556 16.3958 116.468 15.9124" stroke="black" stroke-width="2" stroke-linecap="round"/>
<path d="M115.433 3.48545C116.338 1.44786 124.087 3.1101 122.452 5.78674C121.12 7.96584 118.995 9.7495 116.813 11.0222C115.48 11.8 115.383 11.5487 116.468 10.7345" stroke="black" stroke-width="2" stroke-linecap="round"/>
<path d="M127.341 2.96775C125.639 2.28683 128.444 6.46994 128.837 8.26074C129.607 11.7675 129.946 15.3955 130.333 18.9618C130.8 23.2722 129.67 16.425 129.412 15.3948" stroke="black" stroke-width="2" stroke-linecap="round"/>
<path d="M127.859 2.96782C127.638 1.9727 135.426 1.56429 135.799 4.92392C136.039 7.08159 133.238 9.39931 131.657 10.3607C129.007 11.9715 127.719 11.551 125.271 10.7347" stroke="black" stroke-width="2" stroke-linecap="round"/>
<path d="M140.286 7.10969C137.235 8.38124 137.964 13.0272 139.251 15.2793C141.288 18.8446 144.347 14.9049 144.601 12.2876C144.888 9.33218 143.402 6.20038 140.286 5.67138C139.21 5.48861 137.04 5.93451 138.215 7.10969" stroke="black" stroke-width="2" stroke-linecap="round"/>
<path d="M148.571 1.93228C148.571 -2.70284 149.379 11.223 150.642 15.6825C151.612 19.1038 150.125 14.7594 150.125 13.3237" stroke="black" stroke-width="2" stroke-linecap="round"/>
<path d="M149.606 3.48523C148.688 3.22289 150.264 2.31498 150.498 2.21952C152.098 1.56763 153.993 1.41406 155.705 1.41406C160.63 1.41406 152.093 7.30398 150.699 8.08783C150.221 8.35699 148.324 8.84637 149.319 9.41107C151.758 10.7957 154.163 12.2361 156.625 13.5822C159.316 15.0529 162.162 16.2996 164.795 17.8683C166.221 18.718 164.656 18.2042 164.104 17.9834" stroke="black" stroke-width="2" stroke-linecap="round"/>
<path d="M162.552 3.48584C162.71 2.06008 172.116 1.49378 173.713 1.29961C175.25 1.11264 176.383 1.04584 174.979 2.45026" stroke="black" stroke-width="2" stroke-linecap="round"/>
<path d="M169.801 2.96777C170.44 7.62279 171.814 21.6181 171.814 16.9194C171.814 16.1087 171.489 15.1685 171.354 14.3592" stroke="black" stroke-width="2" stroke-linecap="round"/>
</svg>
