<svg width="164" height="22" viewBox="0 0 164 22" fill="none" xmlns="http://www.w3.org/2000/svg">
<path d="M3.396 21.092C2.98533 21.1667 2.62133 21.036 2.304 20.7C2.248 20.644 2.192 20.5787 2.136 20.504C2.09867 20.4293 2.052 20.3547 1.996 20.28L1.912 20.056C1.76267 19.664 1.632 19.272 1.52 18.88C1.42667 18.4693 1.352 18.0587 1.296 17.648C1.24 17.368 1.212 17.1067 1.212 16.864C1.19333 16.6213 1.16533 16.3787 1.128 16.136C1.10933 15.8933 1.1 15.6507 1.1 15.408C1.1 15.296 1.1 15.184 1.1 15.072C1.1 14.9413 1.08133 14.8107 1.044 14.68V14.624C1.02533 14.4187 1.00667 14.2133 0.988 14.008C0.988 13.784 0.969333 13.5693 0.932 13.364L0.848 12.076C0.829333 11.8893 0.810667 11.712 0.792 11.544C0.773333 11.376 0.745333 11.1987 0.708 11.012C0.708 10.9373 0.698667 10.872 0.68 10.816C0.68 10.7413 0.68 10.6667 0.68 10.592C0.68 10.4427 0.68 10.2933 0.68 10.144C0.68 9.99467 0.670667 9.85467 0.652 9.724C0.633333 9.64933 0.624 9.54667 0.624 9.416V8.52C0.642667 8.25867 0.633333 7.99733 0.596 7.736C0.558667 7.47467 0.521333 7.22267 0.484 6.98L0.232 5.468C0.213333 5.43067 0.204 5.384 0.204 5.328C0.204 5.272 0.204 5.22533 0.204 5.188C0.204 5.15067 0.204 5.104 0.204 5.048C0.204 4.992 0.194667 4.94533 0.176 4.908C0.12 4.70267 0.110667 4.516 0.148 4.348C0.185333 4.16133 0.232 3.97467 0.288 3.788C0.306667 3.76933 0.334667 3.72267 0.372 3.648C0.465333 3.55467 0.549333 3.47067 0.624 3.396C0.698667 3.30267 0.792 3.228 0.904 3.172C1.016 3.13467 1.1 3.05067 1.156 2.92L1.24 2.724C1.42667 2.388 1.716 2.15467 2.108 2.024C2.12667 2.00533 2.14533 1.996 2.164 1.996C2.20133 1.996 2.22933 1.98667 2.248 1.968C2.49067 1.856 2.74267 1.84667 3.004 1.94C3.09733 1.95867 3.19067 1.98667 3.284 2.024C3.37733 2.04267 3.46133 2.07067 3.536 2.108C3.66667 2.164 3.788 2.22933 3.9 2.304C4.012 2.36 4.13333 2.416 4.264 2.472C4.6 2.64 4.936 2.808 5.272 2.976C5.608 3.12533 5.944 3.27467 6.28 3.424L7.008 3.76C7.12 3.816 7.232 3.872 7.344 3.928C7.456 3.96533 7.568 4.012 7.68 4.068L7.904 4.152C8.016 4.22667 8.128 4.30133 8.24 4.376C8.352 4.432 8.47333 4.49733 8.604 4.572C8.79067 4.66533 8.968 4.78667 9.136 4.936C9.304 5.08533 9.45333 5.23467 9.584 5.384C9.696 5.496 9.76133 5.59867 9.78 5.692C9.836 5.84133 9.892 6 9.948 6.168C10.004 6.31733 10.0413 6.46667 10.06 6.616C10.0973 6.69067 10.0973 6.77467 10.06 6.868C10.004 6.99867 9.948 7.13867 9.892 7.288C9.85467 7.41867 9.81733 7.55867 9.78 7.708C9.64933 8.06267 9.444 8.38 9.164 8.66C8.92133 8.90267 8.688 9.09867 8.464 9.248C8.37067 9.304 8.27733 9.36933 8.184 9.444C8.09067 9.5 7.99733 9.556 7.904 9.612C7.69867 9.74267 7.484 9.864 7.26 9.976C7.036 10.088 6.80267 10.1813 6.56 10.256C6.504 10.256 6.45733 10.2747 6.42 10.312C6.23333 10.3867 6.056 10.4613 5.888 10.536C5.72 10.6107 5.552 10.6947 5.384 10.788C5.216 10.8813 5.104 11.012 5.048 11.18C5.048 11.1987 5.03867 11.2173 5.02 11.236C5.02 11.236 5.02 11.2547 5.02 11.292C5.00133 11.4413 4.936 11.572 4.824 11.684C4.73067 11.796 4.63733 11.9173 4.544 12.048C4.544 12.0667 4.53467 12.076 4.516 12.076C4.49733 12.076 4.47867 12.0853 4.46 12.104L4.124 12.272C4.03067 12.3093 3.984 12.3933 3.984 12.524C3.984 12.5987 3.984 12.6827 3.984 12.776C3.984 12.8507 3.99333 12.9253 4.012 13L4.124 13.616C4.124 13.6907 4.124 13.7653 4.124 13.84C4.14267 13.896 4.14267 13.9707 4.124 14.064C4.124 14.2133 4.124 14.372 4.124 14.54C4.14267 14.708 4.16133 14.8667 4.18 15.016C4.19867 15.0907 4.208 15.1653 4.208 15.24C4.208 15.296 4.208 15.3613 4.208 15.436C4.208 15.5293 4.208 15.632 4.208 15.744C4.22667 15.8373 4.24533 15.9307 4.264 16.024C4.264 16.0427 4.264 16.0707 4.264 16.108C4.28267 16.1267 4.292 16.1547 4.292 16.192C4.27333 16.416 4.27333 16.6493 4.292 16.892C4.32933 17.116 4.35733 17.34 4.376 17.564V17.676C4.35733 17.8253 4.348 17.984 4.348 18.152C4.36667 18.3013 4.376 18.46 4.376 18.628C4.376 18.8707 4.41333 19.076 4.488 19.244C4.544 19.356 4.56267 19.468 4.544 19.58C4.52533 19.692 4.49733 19.804 4.46 19.916C4.44133 19.972 4.41333 20.028 4.376 20.084C4.35733 20.1587 4.32933 20.224 4.292 20.28C4.14267 20.5787 3.94667 20.812 3.704 20.98C3.592 21.0547 3.48933 21.092 3.396 21.092ZM3.732 8.856L3.9 8.772C4.21733 8.56667 4.53467 8.38 4.852 8.212C5.188 8.044 5.524 7.876 5.86 7.708L6.392 7.428C6.504 7.35333 6.60667 7.288 6.7 7.232C6.812 7.176 6.91467 7.11067 7.008 7.036C7.02667 7.01733 7.05467 6.97067 7.092 6.896C7.11067 6.896 7.12 6.88667 7.12 6.868C7.12 6.84933 7.11067 6.84 7.092 6.84C7.036 6.784 7.008 6.756 7.008 6.756C6.91467 6.7 6.812 6.644 6.7 6.588C6.588 6.51333 6.476 6.448 6.364 6.392C6.27067 6.35467 6.168 6.308 6.056 6.252C5.944 6.196 5.832 6.14 5.72 6.084C5.272 5.87867 4.83333 5.67333 4.404 5.468C4.27333 5.412 4.14267 5.36533 4.012 5.328C3.9 5.272 3.77867 5.216 3.648 5.16C3.648 5.16 3.61067 5.14133 3.536 5.104C3.46133 5.104 3.424 5.132 3.424 5.188C3.40533 5.26267 3.38667 5.33733 3.368 5.412C3.34933 5.468 3.33067 5.53333 3.312 5.608V6.532C3.312 6.7 3.312 6.868 3.312 7.036C3.33067 7.204 3.35867 7.36267 3.396 7.512C3.396 7.64267 3.40533 7.78267 3.424 7.932C3.44267 8.06267 3.46133 8.20267 3.48 8.352L3.564 8.8C3.60133 8.87467 3.65733 8.89333 3.732 8.856ZM15.1532 20.196C15.0412 20.196 14.9665 20.1867 14.9292 20.168C14.8358 20.1307 14.7425 20.112 14.6492 20.112C14.5745 20.1307 14.4905 20.14 14.3972 20.14C14.3785 20.14 14.3598 20.14 14.3412 20.14C14.3225 20.1587 14.3038 20.168 14.2852 20.168C14.1545 20.1867 14.0238 20.196 13.8932 20.196C13.7812 20.196 13.6692 20.1773 13.5572 20.14C13.5385 20.1213 13.5198 20.112 13.5012 20.112C13.3705 20.1307 13.2585 20.0933 13.1652 20C13.0718 19.9067 12.9785 19.8227 12.8852 19.748C12.7918 19.6547 12.7452 19.552 12.7452 19.44L12.6612 19.216C12.6052 19.0853 12.5865 18.964 12.6052 18.852C12.6238 18.8147 12.6238 18.7773 12.6052 18.74C12.6052 18.7027 12.6052 18.6653 12.6052 18.628C12.5865 18.5907 12.5772 18.5533 12.5772 18.516C12.5772 18.46 12.5678 18.4133 12.5492 18.376C12.5118 18.208 12.4838 18.04 12.4652 17.872C12.4652 17.6853 12.4745 17.508 12.4932 17.34C12.5118 17.228 12.5772 17.0413 12.6892 16.78C12.8012 16.5 12.8665 16.332 12.8852 16.276C12.9412 16.1827 12.9692 16.108 12.9692 16.052C12.9505 15.8467 12.9412 15.6413 12.9412 15.436C12.9598 15.212 12.9692 14.9973 12.9692 14.792C12.9692 14.6613 12.9972 14.5587 13.0532 14.484C13.1278 14.3533 13.1372 14.2133 13.0812 14.064L12.9972 13.756C12.8852 13.5507 12.8945 13.3733 13.0252 13.224C13.0252 13.2053 13.0252 13.196 13.0252 13.196C13.0438 13.1773 13.0532 13.1587 13.0532 13.14C13.0905 13.1027 13.0998 13.056 13.0812 13C13.0625 12.9253 13.0532 12.8693 13.0532 12.832C13.0532 12.7573 13.0625 12.6827 13.0812 12.608C13.1185 12.5147 13.1278 12.4307 13.1092 12.356C13.1092 12.356 13.0905 12.3373 13.0532 12.3C13.0345 12.2627 13.0252 12.188 13.0252 12.076C13.0438 11.964 13.0532 11.8987 13.0532 11.88V11.096C13.0718 11.0027 13.0812 10.9187 13.0812 10.844C13.0812 10.7507 13.0905 10.6573 13.1092 10.564C13.1278 10.452 13.1278 10.34 13.1092 10.228C13.1092 10.0973 13.1092 9.96667 13.1092 9.836C13.0905 9.74267 13.0718 9.64 13.0532 9.528C13.0532 9.416 13.0532 9.304 13.0532 9.192C13.0345 9.15467 13.0252 9.108 13.0252 9.052C13.0252 8.996 13.0252 8.94933 13.0252 8.912C13.0065 8.81867 12.9878 8.72533 12.9692 8.632C12.9692 8.53867 12.9692 8.44533 12.9692 8.352C12.9692 8.31467 12.9318 8.19333 12.8572 7.988C12.7825 7.764 12.7545 7.57733 12.7732 7.428C12.7918 7.39067 12.8012 7.344 12.8012 7.288C12.8012 7.232 12.7825 7.18533 12.7452 7.148C12.7078 7.12933 12.6892 7.092 12.6892 7.036V6.952C12.7452 6.728 12.7172 6.504 12.6052 6.28C12.5305 6.168 12.5025 6.056 12.5212 5.944C12.5212 5.79467 12.4558 5.68267 12.3252 5.608C12.2318 5.51467 12.1478 5.40267 12.0732 5.272C11.9985 5.14133 11.9518 5.01067 11.9332 4.88C11.9145 4.78667 11.9052 4.69333 11.9052 4.6C11.9052 4.50667 11.9052 4.42267 11.9052 4.348C11.9052 4.27333 11.9145 4.22667 11.9332 4.208C12.0078 4.13333 12.0452 4.04933 12.0452 3.956C12.0452 3.844 12.0545 3.76 12.0732 3.704C12.0918 3.68533 12.1105 3.676 12.1292 3.676C12.1478 3.676 12.1665 3.66667 12.1852 3.648C12.2598 3.62933 12.2972 3.564 12.2972 3.452C12.2598 3.37733 12.2412 3.312 12.2412 3.256C12.2225 3.18133 12.2505 3.116 12.3252 3.06C12.3625 2.98533 12.4092 2.96667 12.4652 3.004C12.5958 3.06 12.7452 3.04133 12.9132 2.948C12.9878 2.91067 13.0345 2.892 13.0532 2.892C13.1092 2.892 13.1372 2.892 13.1372 2.892C13.1558 2.87333 13.2118 2.864 13.3052 2.864C13.4172 2.88267 13.5198 2.84533 13.6132 2.752C13.7438 2.62133 13.9025 2.556 14.0892 2.556H15.8252C16.2545 2.57467 16.6838 2.57467 17.1132 2.556C17.5425 2.53733 17.9625 2.528 18.3732 2.528C18.4665 2.528 18.5412 2.528 18.5972 2.528C18.6718 2.50933 18.7465 2.49067 18.8212 2.472C18.9332 2.416 19.0638 2.388 19.2132 2.388H19.8572C20.0065 2.388 20.1372 2.388 20.2492 2.388C20.3798 2.36933 20.5105 2.35067 20.6412 2.332C20.7158 2.31333 20.7812 2.304 20.8372 2.304C20.9118 2.304 20.9865 2.304 21.0612 2.304C21.1358 2.304 21.2105 2.304 21.2852 2.304C21.3598 2.304 21.4345 2.29467 21.5092 2.276C21.6585 2.25733 21.8172 2.248 21.9852 2.248C22.1532 2.22933 22.3118 2.22 22.4612 2.22C22.5358 2.22 22.6012 2.22 22.6572 2.22C22.7318 2.20133 22.8065 2.18267 22.8812 2.164C23.0305 2.12667 23.1705 2.108 23.3012 2.108C23.4505 2.08933 23.5905 2.07067 23.7212 2.052C23.8705 2.03333 24.0105 2.01467 24.1412 1.996C24.2905 1.97733 24.4305 1.95867 24.5612 1.94C24.7292 1.94 24.8505 1.95867 24.9252 1.996C25.0372 2.07067 25.1398 2.136 25.2332 2.192C25.3452 2.248 25.4478 2.32267 25.5412 2.416C25.6158 2.49067 25.6625 2.556 25.6812 2.612C25.6998 2.68667 25.7185 2.76133 25.7372 2.836C25.7558 2.91067 25.7745 2.99467 25.7932 3.088V3.284C25.7745 3.37733 25.7558 3.48 25.7372 3.592C25.7372 3.68533 25.7278 3.788 25.7092 3.9C25.6718 3.97467 25.6252 4.04 25.5692 4.096L25.0652 4.6C24.8785 4.656 24.6918 4.69333 24.5052 4.712C24.3372 4.73067 24.1598 4.73067 23.9732 4.712H23.7772C23.6838 4.73067 23.5905 4.74 23.4972 4.74C23.4038 4.74 23.3105 4.73067 23.2172 4.712C23.1052 4.69333 22.9932 4.69333 22.8812 4.712C22.7692 4.712 22.6572 4.712 22.5452 4.712C22.4705 4.712 22.3958 4.72133 22.3212 4.74C22.2652 4.74 22.1998 4.73067 22.1252 4.712C22.0318 4.69333 21.9385 4.69333 21.8452 4.712C21.7705 4.712 21.6865 4.72133 21.5932 4.74C21.5185 4.74 21.4345 4.74933 21.3412 4.768C21.2665 4.768 21.1825 4.768 21.0892 4.768C20.8465 4.80533 20.5852 4.824 20.3052 4.824C20.0438 4.824 19.7825 4.84267 19.5212 4.88C19.3532 4.86133 19.1945 4.87067 19.0452 4.908C18.8958 4.92667 18.7372 4.94533 18.5692 4.964C18.4198 4.98267 18.2612 4.992 18.0932 4.992C17.9252 4.992 17.7665 5.01067 17.6172 5.048C17.4305 5.048 17.2438 5.076 17.0572 5.132C16.8892 5.16933 16.7118 5.19733 16.5252 5.216L16.3292 5.244C16.1985 5.244 16.0772 5.26267 15.9652 5.3C15.8532 5.31867 15.7318 5.34667 15.6012 5.384C15.5265 5.40267 15.4518 5.42133 15.3772 5.44C15.3025 5.44 15.2185 5.44933 15.1252 5.468C15.0692 5.468 15.0038 5.48667 14.9292 5.524C14.8732 5.54267 14.8452 5.59867 14.8452 5.692L14.9292 5.944C14.9478 5.98133 14.9385 6.07467 14.9012 6.224C14.8825 6.37333 14.8638 6.48533 14.8452 6.56C14.8452 6.616 14.8545 6.672 14.8732 6.728C14.8918 6.784 14.9105 6.84 14.9292 6.896C14.9852 7.04533 15.0132 7.21333 15.0132 7.4C15.0132 7.568 15.0318 7.72667 15.0692 7.876C15.0878 7.95067 15.0972 8.03467 15.0972 8.128C15.0972 8.20267 15.1065 8.28667 15.1252 8.38C15.1252 8.41733 15.1252 8.464 15.1252 8.52C15.1438 8.55733 15.1532 8.604 15.1532 8.66C15.1532 8.716 15.1438 8.75333 15.1252 8.772C15.0692 8.84667 15.0412 8.93067 15.0412 9.024C15.0412 9.11733 15.0412 9.21067 15.0412 9.304C15.1345 9.49067 15.1812 9.67733 15.1812 9.864C15.1812 10.0507 15.1812 10.2373 15.1812 10.424C15.1812 10.48 15.2278 10.4987 15.3212 10.48H15.3492C15.3865 10.4053 15.4238 10.3493 15.4612 10.312C15.5172 10.312 15.5825 10.2933 15.6572 10.256C15.7132 10.2187 15.7878 10.2 15.8812 10.2C16.0305 10.2187 16.1705 10.2187 16.3012 10.2C16.4318 10.1627 16.5625 10.1253 16.6932 10.088C17.5705 9.864 18.3918 9.57467 19.1572 9.22C19.3625 9.12667 19.5772 9.052 19.8012 8.996C20.0252 8.92133 20.2492 8.87467 20.4732 8.856H20.5572C20.7252 8.83733 20.8932 8.81867 21.0612 8.8C21.2292 8.78133 21.3972 8.772 21.5652 8.772C21.7892 8.75333 22.0038 8.72533 22.2092 8.688C22.4332 8.65067 22.6572 8.62267 22.8812 8.604C23.0118 8.56667 23.1332 8.53867 23.2452 8.52C23.3572 8.48267 23.4785 8.436 23.6092 8.38C23.8518 8.28667 24.0758 8.24 24.2812 8.24C24.4305 8.25867 24.5705 8.296 24.7012 8.352C24.8318 8.38933 24.9625 8.44533 25.0932 8.52C25.3732 8.70667 25.5132 8.98667 25.5132 9.36C25.5132 9.50933 25.4945 9.65867 25.4572 9.808C25.4385 9.95733 25.4292 10.1067 25.4292 10.256C25.4292 10.2933 25.4105 10.3307 25.3732 10.368L25.2892 10.508C25.2705 10.5827 25.2518 10.6573 25.2332 10.732C25.2145 10.8067 25.1678 10.8627 25.0932 10.9C24.9812 10.9933 24.8598 11.096 24.7292 11.208C24.6172 11.3013 24.4865 11.3667 24.3372 11.404C24.2625 11.4227 24.1878 11.4413 24.1132 11.46C24.0572 11.4787 23.9918 11.488 23.9172 11.488C23.6185 11.488 23.3105 11.5067 22.9932 11.544C22.6945 11.5813 22.3865 11.6187 22.0692 11.656C21.8265 11.6747 21.5838 11.7027 21.3412 11.74C21.1172 11.7773 20.8838 11.796 20.6412 11.796C20.4172 11.796 20.1652 11.8427 19.8852 11.936C19.6985 11.9733 19.5025 12.0107 19.2972 12.048C19.0918 12.0853 18.8865 12.1133 18.6812 12.132C18.5318 12.1507 18.3732 12.1787 18.2052 12.216C18.0558 12.2347 17.9065 12.2533 17.7572 12.272L17.2812 12.356C17.2438 12.3747 17.1878 12.384 17.1132 12.384C16.9825 12.4213 16.8518 12.4493 16.7212 12.468C16.5905 12.4867 16.4598 12.5147 16.3292 12.552C16.1985 12.5707 16.0678 12.5987 15.9372 12.636C15.8252 12.6733 15.7038 12.7107 15.5732 12.748C15.4798 12.7667 15.4052 12.804 15.3492 12.86C15.2932 12.8973 15.2465 12.9533 15.2092 13.028C15.1905 13.084 15.1905 13.14 15.2092 13.196C15.2278 13.2707 15.2185 13.3453 15.1812 13.42C15.1998 13.6067 15.2092 13.7933 15.2092 13.98C15.2278 14.1667 15.2278 14.3533 15.2092 14.54C15.2465 14.6893 15.2558 14.8387 15.2372 14.988C15.2372 15.1373 15.2278 15.2867 15.2092 15.436C15.1718 15.66 15.1812 15.8467 15.2372 15.996C15.2932 16.2387 15.2745 16.4907 15.1812 16.752C15.1438 16.864 15.1438 16.9387 15.1812 16.976C15.2185 17.032 15.2185 17.0973 15.1812 17.172V17.34C15.1625 17.4893 15.2278 17.564 15.3772 17.564H15.4332C15.5638 17.564 15.6945 17.6107 15.8252 17.704C15.9185 17.7973 16.0305 17.8253 16.1612 17.788L16.9452 17.704C17.0572 17.6853 17.1692 17.676 17.2812 17.676C17.3932 17.6573 17.5052 17.648 17.6172 17.648C17.6545 17.6293 17.7105 17.6387 17.7852 17.676C17.8785 17.732 17.9625 17.7413 18.0372 17.704C18.0745 17.6667 18.1212 17.6387 18.1772 17.62C18.2518 17.6013 18.3078 17.5733 18.3452 17.536C18.4572 17.424 18.5972 17.3867 18.7652 17.424C18.9145 17.4613 19.0358 17.452 19.1292 17.396C19.2972 17.34 19.4558 17.3213 19.6052 17.34C19.6985 17.3587 19.7918 17.3493 19.8852 17.312C19.9785 17.2747 20.0718 17.256 20.1652 17.256C20.2025 17.256 20.2305 17.2653 20.2492 17.284C20.2678 17.284 20.2865 17.2747 20.3052 17.256C20.3425 17.256 20.3798 17.2467 20.4172 17.228C20.4545 17.2093 20.4825 17.2 20.5012 17.2C20.6318 17.144 20.7532 17.1253 20.8652 17.144C20.9585 17.144 21.0052 17.144 21.0052 17.144C21.0798 17.1253 21.1452 17.1253 21.2012 17.144C21.2758 17.1627 21.3412 17.1907 21.3972 17.228C21.4905 17.2467 21.5652 17.2747 21.6212 17.312C21.6958 17.3493 21.7705 17.3773 21.8452 17.396C21.8825 17.396 21.9105 17.4053 21.9292 17.424C22.0225 17.4987 22.1345 17.564 22.2652 17.62C22.4145 17.676 22.4985 17.7413 22.5172 17.816C22.5545 17.928 22.5732 18.04 22.5732 18.152C22.5732 18.2453 22.5825 18.348 22.6012 18.46C22.6012 18.516 22.5918 18.572 22.5732 18.628C22.5732 18.684 22.5638 18.74 22.5452 18.796C22.5078 18.8707 22.4612 18.9547 22.4052 19.048C22.3678 19.1413 22.3118 19.2253 22.2372 19.3C22.1998 19.3373 22.1625 19.3747 22.1252 19.412C22.1065 19.4493 22.0785 19.4867 22.0412 19.524C21.9665 19.5987 21.8825 19.664 21.7892 19.72C21.6958 19.776 21.5932 19.804 21.4812 19.804C21.4065 19.804 21.3505 19.8133 21.3132 19.832C21.2385 19.8693 21.1638 19.888 21.0892 19.888C21.0145 19.888 20.9305 19.888 20.8372 19.888C20.7065 19.9067 20.5758 19.9253 20.4452 19.944C20.3332 19.944 20.2118 19.9347 20.0812 19.916C20.0065 19.8973 19.9412 19.8973 19.8852 19.916C19.6985 19.972 19.5118 19.9813 19.3252 19.944C19.1385 19.944 18.9518 19.9533 18.7652 19.972C18.5972 19.972 18.4292 19.972 18.2612 19.972H17.8972C17.8412 19.972 17.7945 19.9813 17.7572 20C17.6825 20.0373 17.5892 20.056 17.4772 20.056C17.3838 20.056 17.2905 20.0467 17.1972 20.028H16.9172C16.8985 20.028 16.8705 20.028 16.8332 20.028C16.7958 20.0467 16.7585 20.0467 16.7212 20.028C16.6652 20.0093 16.6092 20 16.5532 20C16.5158 20.0187 16.4692 20.0373 16.4132 20.056C16.3758 20.056 16.3385 20.056 16.3012 20.056C16.2825 20.0747 16.2545 20.084 16.2172 20.084C16.0305 20.0653 15.8532 20.0653 15.6852 20.084C15.5172 20.1213 15.3398 20.1587 15.1532 20.196ZM31.6414 20.196C31.5294 20.196 31.4548 20.1867 31.4174 20.168C31.3241 20.1307 31.2308 20.112 31.1374 20.112C31.0628 20.1307 30.9788 20.14 30.8854 20.14C30.8668 20.14 30.8481 20.14 30.8294 20.14C30.8108 20.1587 30.7921 20.168 30.7734 20.168C30.6428 20.1867 30.5121 20.196 30.3814 20.196C30.2694 20.196 30.1574 20.1773 30.0454 20.14C30.0268 20.1213 30.0081 20.112 29.9894 20.112C29.8588 20.1307 29.7468 20.0933 29.6534 20C29.5601 19.9067 29.4668 19.8227 29.3734 19.748C29.2801 19.6547 29.2334 19.552 29.2334 19.44L29.1494 19.216C29.0934 19.0853 29.0748 18.964 29.0934 18.852C29.1121 18.8147 29.1121 18.7773 29.0934 18.74C29.0934 18.7027 29.0934 18.6653 29.0934 18.628C29.0748 18.5907 29.0654 18.5533 29.0654 18.516C29.0654 18.46 29.0561 18.4133 29.0374 18.376C29.0001 18.208 28.9721 18.04 28.9534 17.872C28.9534 17.6853 28.9628 17.508 28.9814 17.34C29.0001 17.228 29.0654 17.0413 29.1774 16.78C29.2894 16.5 29.3548 16.332 29.3734 16.276C29.4294 16.1827 29.4574 16.108 29.4574 16.052C29.4388 15.8467 29.4294 15.6413 29.4294 15.436C29.4481 15.212 29.4574 14.9973 29.4574 14.792C29.4574 14.6613 29.4854 14.5587 29.5414 14.484C29.6161 14.3533 29.6254 14.2133 29.5694 14.064L29.4854 13.756C29.3734 13.5507 29.3828 13.3733 29.5134 13.224C29.5134 13.2053 29.5134 13.196 29.5134 13.196C29.5321 13.1773 29.5414 13.1587 29.5414 13.14C29.5788 13.1027 29.5881 13.056 29.5694 13C29.5508 12.9253 29.5414 12.8693 29.5414 12.832C29.5414 12.7573 29.5508 12.6827 29.5694 12.608C29.6068 12.5147 29.6161 12.4307 29.5974 12.356C29.5974 12.356 29.5788 12.3373 29.5414 12.3C29.5228 12.2627 29.5134 12.188 29.5134 12.076C29.5321 11.964 29.5414 11.8987 29.5414 11.88V11.096C29.5601 11.0027 29.5694 10.9187 29.5694 10.844C29.5694 10.7507 29.5788 10.6573 29.5974 10.564C29.6161 10.452 29.6161 10.34 29.5974 10.228C29.5974 10.0973 29.5974 9.96667 29.5974 9.836C29.5788 9.74267 29.5601 9.64 29.5414 9.528C29.5414 9.416 29.5414 9.304 29.5414 9.192C29.5228 9.15467 29.5134 9.108 29.5134 9.052C29.5134 8.996 29.5134 8.94933 29.5134 8.912C29.4948 8.81867 29.4761 8.72533 29.4574 8.632C29.4574 8.53867 29.4574 8.44533 29.4574 8.352C29.4574 8.31467 29.4201 8.19333 29.3454 7.988C29.2708 7.764 29.2428 7.57733 29.2614 7.428C29.2801 7.39067 29.2894 7.344 29.2894 7.288C29.2894 7.232 29.2708 7.18533 29.2334 7.148C29.1961 7.12933 29.1774 7.092 29.1774 7.036V6.952C29.2334 6.728 29.2054 6.504 29.0934 6.28C29.0188 6.168 28.9908 6.056 29.0094 5.944C29.0094 5.79467 28.9441 5.68267 28.8134 5.608C28.7201 5.51467 28.6361 5.40267 28.5614 5.272C28.4868 5.14133 28.4401 5.01067 28.4214 4.88C28.4028 4.78667 28.3934 4.69333 28.3934 4.6C28.3934 4.50667 28.3934 4.42267 28.3934 4.348C28.3934 4.27333 28.4028 4.22667 28.4214 4.208C28.4961 4.13333 28.5334 4.04933 28.5334 3.956C28.5334 3.844 28.5428 3.76 28.5614 3.704C28.5801 3.68533 28.5988 3.676 28.6174 3.676C28.6361 3.676 28.6548 3.66667 28.6734 3.648C28.7481 3.62933 28.7854 3.564 28.7854 3.452C28.7481 3.37733 28.7294 3.312 28.7294 3.256C28.7108 3.18133 28.7388 3.116 28.8134 3.06C28.8508 2.98533 28.8974 2.96667 28.9534 3.004C29.0841 3.06 29.2334 3.04133 29.4014 2.948C29.4761 2.91067 29.5228 2.892 29.5414 2.892C29.5974 2.892 29.6254 2.892 29.6254 2.892C29.6441 2.87333 29.7001 2.864 29.7934 2.864C29.9054 2.88267 30.0081 2.84533 30.1014 2.752C30.2321 2.62133 30.3908 2.556 30.5774 2.556H32.3134C32.7428 2.57467 33.1721 2.57467 33.6014 2.556C34.0308 2.53733 34.4508 2.528 34.8614 2.528C34.9548 2.528 35.0294 2.528 35.0854 2.528C35.1601 2.50933 35.2348 2.49067 35.3094 2.472C35.4214 2.416 35.5521 2.388 35.7014 2.388H36.3454C36.4948 2.388 36.6254 2.388 36.7374 2.388C36.8681 2.36933 36.9988 2.35067 37.1294 2.332C37.2041 2.31333 37.2694 2.304 37.3254 2.304C37.4001 2.304 37.4748 2.304 37.5494 2.304C37.6241 2.304 37.6988 2.304 37.7734 2.304C37.8481 2.304 37.9228 2.29467 37.9974 2.276C38.1468 2.25733 38.3054 2.248 38.4734 2.248C38.6414 2.22933 38.8001 2.22 38.9494 2.22C39.0241 2.22 39.0894 2.22 39.1454 2.22C39.2201 2.20133 39.2948 2.18267 39.3694 2.164C39.5188 2.12667 39.6588 2.108 39.7894 2.108C39.9388 2.08933 40.0788 2.07067 40.2094 2.052C40.3588 2.03333 40.4988 2.01467 40.6294 1.996C40.7788 1.97733 40.9188 1.95867 41.0494 1.94C41.2174 1.94 41.3388 1.95867 41.4134 1.996C41.5254 2.07067 41.6281 2.136 41.7214 2.192C41.8334 2.248 41.9361 2.32267 42.0294 2.416C42.1041 2.49067 42.1508 2.556 42.1694 2.612C42.1881 2.68667 42.2068 2.76133 42.2254 2.836C42.2441 2.91067 42.2628 2.99467 42.2814 3.088V3.284C42.2628 3.37733 42.2441 3.48 42.2254 3.592C42.2254 3.68533 42.2161 3.788 42.1974 3.9C42.1601 3.97467 42.1134 4.04 42.0574 4.096L41.5534 4.6C41.3668 4.656 41.1801 4.69333 40.9934 4.712C40.8254 4.73067 40.6481 4.73067 40.4614 4.712H40.2654C40.1721 4.73067 40.0788 4.74 39.9854 4.74C39.8921 4.74 39.7988 4.73067 39.7054 4.712C39.5934 4.69333 39.4814 4.69333 39.3694 4.712C39.2574 4.712 39.1454 4.712 39.0334 4.712C38.9588 4.712 38.8841 4.72133 38.8094 4.74C38.7534 4.74 38.6881 4.73067 38.6134 4.712C38.5201 4.69333 38.4268 4.69333 38.3334 4.712C38.2588 4.712 38.1748 4.72133 38.0814 4.74C38.0068 4.74 37.9228 4.74933 37.8294 4.768C37.7548 4.768 37.6708 4.768 37.5774 4.768C37.3348 4.80533 37.0734 4.824 36.7934 4.824C36.5321 4.824 36.2708 4.84267 36.0094 4.88C35.8414 4.86133 35.6828 4.87067 35.5334 4.908C35.3841 4.92667 35.2254 4.94533 35.0574 4.964C34.9081 4.98267 34.7494 4.992 34.5814 4.992C34.4134 4.992 34.2548 5.01067 34.1054 5.048C33.9188 5.048 33.7321 5.076 33.5454 5.132C33.3774 5.16933 33.2001 5.19733 33.0134 5.216L32.8174 5.244C32.6868 5.244 32.5654 5.26267 32.4534 5.3C32.3414 5.31867 32.2201 5.34667 32.0894 5.384C32.0148 5.40267 31.9401 5.42133 31.8654 5.44C31.7908 5.44 31.7068 5.44933 31.6134 5.468C31.5574 5.468 31.4921 5.48667 31.4174 5.524C31.3614 5.54267 31.3334 5.59867 31.3334 5.692L31.4174 5.944C31.4361 5.98133 31.4268 6.07467 31.3894 6.224C31.3708 6.37333 31.3521 6.48533 31.3334 6.56C31.3334 6.616 31.3428 6.672 31.3614 6.728C31.3801 6.784 31.3988 6.84 31.4174 6.896C31.4734 7.04533 31.5014 7.21333 31.5014 7.4C31.5014 7.568 31.5201 7.72667 31.5574 7.876C31.5761 7.95067 31.5854 8.03467 31.5854 8.128C31.5854 8.20267 31.5948 8.28667 31.6134 8.38C31.6134 8.41733 31.6134 8.464 31.6134 8.52C31.6321 8.55733 31.6414 8.604 31.6414 8.66C31.6414 8.716 31.6321 8.75333 31.6134 8.772C31.5574 8.84667 31.5294 8.93067 31.5294 9.024C31.5294 9.11733 31.5294 9.21067 31.5294 9.304C31.6228 9.49067 31.6694 9.67733 31.6694 9.864C31.6694 10.0507 31.6694 10.2373 31.6694 10.424C31.6694 10.48 31.7161 10.4987 31.8094 10.48H31.8374C31.8748 10.4053 31.9121 10.3493 31.9494 10.312C32.0054 10.312 32.0708 10.2933 32.1454 10.256C32.2014 10.2187 32.2761 10.2 32.3694 10.2C32.5188 10.2187 32.6588 10.2187 32.7894 10.2C32.9201 10.1627 33.0508 10.1253 33.1814 10.088C34.0588 9.864 34.8801 9.57467 35.6454 9.22C35.8508 9.12667 36.0654 9.052 36.2894 8.996C36.5134 8.92133 36.7374 8.87467 36.9614 8.856H37.0454C37.2134 8.83733 37.3814 8.81867 37.5494 8.8C37.7174 8.78133 37.8854 8.772 38.0534 8.772C38.2774 8.75333 38.4921 8.72533 38.6974 8.688C38.9214 8.65067 39.1454 8.62267 39.3694 8.604C39.5001 8.56667 39.6214 8.53867 39.7334 8.52C39.8454 8.48267 39.9668 8.436 40.0974 8.38C40.3401 8.28667 40.5641 8.24 40.7694 8.24C40.9188 8.25867 41.0588 8.296 41.1894 8.352C41.3201 8.38933 41.4508 8.44533 41.5814 8.52C41.8614 8.70667 42.0014 8.98667 42.0014 9.36C42.0014 9.50933 41.9828 9.65867 41.9454 9.808C41.9268 9.95733 41.9174 10.1067 41.9174 10.256C41.9174 10.2933 41.8988 10.3307 41.8614 10.368L41.7774 10.508C41.7588 10.5827 41.7401 10.6573 41.7214 10.732C41.7028 10.8067 41.6561 10.8627 41.5814 10.9C41.4694 10.9933 41.3481 11.096 41.2174 11.208C41.1054 11.3013 40.9748 11.3667 40.8254 11.404C40.7508 11.4227 40.6761 11.4413 40.6014 11.46C40.5454 11.4787 40.4801 11.488 40.4054 11.488C40.1068 11.488 39.7988 11.5067 39.4814 11.544C39.1828 11.5813 38.8748 11.6187 38.5574 11.656C38.3148 11.6747 38.0721 11.7027 37.8294 11.74C37.6054 11.7773 37.3721 11.796 37.1294 11.796C36.9054 11.796 36.6534 11.8427 36.3734 11.936C36.1868 11.9733 35.9908 12.0107 35.7854 12.048C35.5801 12.0853 35.3748 12.1133 35.1694 12.132C35.0201 12.1507 34.8614 12.1787 34.6934 12.216C34.5441 12.2347 34.3948 12.2533 34.2454 12.272L33.7694 12.356C33.7321 12.3747 33.6761 12.384 33.6014 12.384C33.4708 12.4213 33.3401 12.4493 33.2094 12.468C33.0788 12.4867 32.9481 12.5147 32.8174 12.552C32.6868 12.5707 32.5561 12.5987 32.4254 12.636C32.3134 12.6733 32.1921 12.7107 32.0614 12.748C31.9681 12.7667 31.8934 12.804 31.8374 12.86C31.7814 12.8973 31.7348 12.9533 31.6974 13.028C31.6788 13.084 31.6788 13.14 31.6974 13.196C31.7161 13.2707 31.7068 13.3453 31.6694 13.42C31.6881 13.6067 31.6974 13.7933 31.6974 13.98C31.7161 14.1667 31.7161 14.3533 31.6974 14.54C31.7348 14.6893 31.7441 14.8387 31.7254 14.988C31.7254 15.1373 31.7161 15.2867 31.6974 15.436C31.6601 15.66 31.6694 15.8467 31.7254 15.996C31.7814 16.2387 31.7628 16.4907 31.6694 16.752C31.6321 16.864 31.6321 16.9387 31.6694 16.976C31.7068 17.032 31.7068 17.0973 31.6694 17.172V17.34C31.6508 17.4893 31.7161 17.564 31.8654 17.564H31.9214C32.0521 17.564 32.1828 17.6107 32.3134 17.704C32.4068 17.7973 32.5188 17.8253 32.6494 17.788L33.4334 17.704C33.5454 17.6853 33.6574 17.676 33.7694 17.676C33.8814 17.6573 33.9934 17.648 34.1054 17.648C34.1428 17.6293 34.1988 17.6387 34.2734 17.676C34.3668 17.732 34.4508 17.7413 34.5254 17.704C34.5628 17.6667 34.6094 17.6387 34.6654 17.62C34.7401 17.6013 34.7961 17.5733 34.8334 17.536C34.9454 17.424 35.0854 17.3867 35.2534 17.424C35.4028 17.4613 35.5241 17.452 35.6174 17.396C35.7854 17.34 35.9441 17.3213 36.0934 17.34C36.1868 17.3587 36.2801 17.3493 36.3734 17.312C36.4668 17.2747 36.5601 17.256 36.6534 17.256C36.6908 17.256 36.7188 17.2653 36.7374 17.284C36.7561 17.284 36.7748 17.2747 36.7934 17.256C36.8308 17.256 36.8681 17.2467 36.9054 17.228C36.9428 17.2093 36.9708 17.2 36.9894 17.2C37.1201 17.144 37.2414 17.1253 37.3534 17.144C37.4468 17.144 37.4934 17.144 37.4934 17.144C37.5681 17.1253 37.6334 17.1253 37.6894 17.144C37.7641 17.1627 37.8294 17.1907 37.8854 17.228C37.9788 17.2467 38.0534 17.2747 38.1094 17.312C38.1841 17.3493 38.2588 17.3773 38.3334 17.396C38.3708 17.396 38.3988 17.4053 38.4174 17.424C38.5108 17.4987 38.6228 17.564 38.7534 17.62C38.9028 17.676 38.9868 17.7413 39.0054 17.816C39.0428 17.928 39.0614 18.04 39.0614 18.152C39.0614 18.2453 39.0708 18.348 39.0894 18.46C39.0894 18.516 39.0801 18.572 39.0614 18.628C39.0614 18.684 39.0521 18.74 39.0334 18.796C38.9961 18.8707 38.9494 18.9547 38.8934 19.048C38.8561 19.1413 38.8001 19.2253 38.7254 19.3C38.6881 19.3373 38.6508 19.3747 38.6134 19.412C38.5948 19.4493 38.5668 19.4867 38.5294 19.524C38.4548 19.5987 38.3708 19.664 38.2774 19.72C38.1841 19.776 38.0814 19.804 37.9694 19.804C37.8948 19.804 37.8388 19.8133 37.8014 19.832C37.7268 19.8693 37.6521 19.888 37.5774 19.888C37.5028 19.888 37.4188 19.888 37.3254 19.888C37.1948 19.9067 37.0641 19.9253 36.9334 19.944C36.8214 19.944 36.7001 19.9347 36.5694 19.916C36.4948 19.8973 36.4294 19.8973 36.3734 19.916C36.1868 19.972 36.0001 19.9813 35.8134 19.944C35.6268 19.944 35.4401 19.9533 35.2534 19.972C35.0854 19.972 34.9174 19.972 34.7494 19.972H34.3854C34.3294 19.972 34.2828 19.9813 34.2454 20C34.1708 20.0373 34.0774 20.056 33.9654 20.056C33.8721 20.056 33.7788 20.0467 33.6854 20.028H33.4054C33.3868 20.028 33.3588 20.028 33.3214 20.028C33.2841 20.0467 33.2468 20.0467 33.2094 20.028C33.1534 20.0093 33.0974 20 33.0414 20C33.0041 20.0187 32.9574 20.0373 32.9014 20.056C32.8641 20.056 32.8268 20.056 32.7894 20.056C32.7708 20.0747 32.7428 20.084 32.7054 20.084C32.5188 20.0653 32.3414 20.0653 32.1734 20.084C32.0054 20.1213 31.8281 20.1587 31.6414 20.196ZM47.151 20.56C46.7964 20.5973 46.507 20.4853 46.283 20.224C46.171 20.112 46.0684 19.9907 45.975 19.86C45.8817 19.7293 45.807 19.5893 45.751 19.44C45.6577 19.1787 45.5737 18.9173 45.499 18.656C45.4244 18.376 45.359 18.1053 45.303 17.844C45.247 17.6387 45.219 17.4427 45.219 17.256C45.2004 17.0507 45.1724 16.8547 45.135 16.668C45.1164 16.4627 45.107 16.2573 45.107 16.052C45.107 15.94 45.107 15.828 45.107 15.716C45.107 15.5853 45.0977 15.464 45.079 15.352C45.0604 15.2773 45.051 15.212 45.051 15.156C45.051 15.1 45.051 15.0347 45.051 14.96C45.051 14.6987 45.051 14.4373 45.051 14.176C45.051 13.896 45.0417 13.6253 45.023 13.364C45.023 13.2147 45.0137 13.084 44.995 12.972C44.9764 12.8413 44.939 12.7107 44.883 12.58C44.8084 12.3747 44.799 12.1507 44.855 11.908C44.855 11.852 44.8644 11.8147 44.883 11.796C44.9204 11.6653 44.939 11.5347 44.939 11.404C44.9577 11.2733 44.9577 11.1427 44.939 11.012C44.9204 10.9187 44.911 10.8253 44.911 10.732C44.911 10.6387 44.911 10.5547 44.911 10.48C44.8924 10.2747 44.883 10.0693 44.883 9.864C44.9017 9.64 44.9204 9.42533 44.939 9.22C44.9577 9.164 44.967 9.108 44.967 9.052C44.967 8.996 44.967 8.94 44.967 8.884C44.9484 8.67867 44.9484 8.48267 44.967 8.296C45.0044 8.10933 45.0324 7.92267 45.051 7.736C45.0884 7.512 45.1257 7.29733 45.163 7.092C45.2004 6.868 45.247 6.644 45.303 6.42C45.3404 6.32667 45.359 6.224 45.359 6.112C45.359 6 45.359 5.888 45.359 5.776C45.359 5.68267 45.3497 5.58933 45.331 5.496C45.331 5.40267 45.331 5.31867 45.331 5.244C45.331 5.188 45.331 5.132 45.331 5.076C45.331 5.02 45.3404 4.964 45.359 4.908C45.3777 4.852 45.387 4.796 45.387 4.74C45.387 4.684 45.3964 4.64667 45.415 4.628C45.471 4.55333 45.5177 4.488 45.555 4.432C45.5924 4.35733 45.6484 4.292 45.723 4.236C45.8164 4.18 45.9004 4.124 45.975 4.068C46.0684 4.012 46.1524 3.96533 46.227 3.928C46.3204 3.89067 46.395 3.844 46.451 3.788C46.5257 3.69467 46.6004 3.61067 46.675 3.536C46.7684 3.44267 46.843 3.34 46.899 3.228C46.9924 3.13467 47.0857 3.032 47.179 2.92C47.291 2.78933 47.4124 2.68667 47.543 2.612C47.5804 2.59333 47.6364 2.54667 47.711 2.472C47.935 2.26667 48.1964 2.136 48.495 2.08C48.551 2.06133 48.5977 2.052 48.635 2.052C48.691 2.03333 48.747 2.024 48.803 2.024L48.999 1.94C49.1484 1.884 49.279 1.912 49.391 2.024C49.4284 2.08 49.475 2.136 49.531 2.192C49.6057 2.22933 49.671 2.26667 49.727 2.304C49.8764 2.43467 50.0164 2.57467 50.147 2.724C50.2964 2.87333 50.427 3.04133 50.539 3.228C50.7257 3.52667 50.8844 3.82533 51.015 4.124C51.1644 4.42267 51.3044 4.73067 51.435 5.048L51.939 6.252C51.9577 6.364 52.0044 6.46667 52.079 6.56C52.2284 6.84 52.3404 7.12933 52.415 7.428C52.4897 7.708 52.5644 7.99733 52.639 8.296C52.6577 8.33333 52.667 8.37067 52.667 8.408C52.6857 8.44533 52.695 8.48267 52.695 8.52C52.7324 8.66933 52.7604 8.828 52.779 8.996C52.8164 9.14533 52.8257 9.29467 52.807 9.444C52.8257 9.612 52.8164 9.78 52.779 9.948C52.7604 10.0973 52.7324 10.2467 52.695 10.396C52.639 10.5827 52.5737 10.76 52.499 10.928C52.4244 11.0773 52.3404 11.236 52.247 11.404C52.2097 11.516 52.1444 11.6187 52.051 11.712C51.9577 11.8053 51.8644 11.8893 51.771 11.964C51.6217 12.0387 51.4724 12.1507 51.323 12.3C51.2857 12.3373 51.239 12.3653 51.183 12.384C51.1457 12.4027 51.1084 12.4307 51.071 12.468C50.9404 12.524 50.8004 12.5893 50.651 12.664C50.5017 12.72 50.3524 12.776 50.203 12.832C50.1844 12.832 50.175 12.8507 50.175 12.888C50.175 12.9067 50.1844 12.9253 50.203 12.944L50.959 13.476C51.0524 13.532 51.1364 13.588 51.211 13.644C51.2857 13.6813 51.3604 13.728 51.435 13.784L51.603 13.868C51.827 13.9987 52.051 14.1387 52.275 14.288C52.499 14.4373 52.7137 14.5867 52.919 14.736C53.311 14.9787 53.703 15.2307 54.095 15.492C54.487 15.7347 54.8604 16.0053 55.215 16.304C55.5324 16.5467 55.8124 16.8267 56.055 17.144C56.111 17.2 56.167 17.2653 56.223 17.34C56.279 17.396 56.3444 17.4427 56.419 17.48L56.503 17.564C56.8017 17.8253 56.9697 18.18 57.007 18.628C57.007 18.684 56.9977 18.74 56.979 18.796C56.979 18.852 56.979 18.908 56.979 18.964C56.979 19.076 56.9417 19.1693 56.867 19.244C56.7924 19.2813 56.755 19.328 56.755 19.384C56.699 19.5147 56.615 19.608 56.503 19.664C56.4097 19.7013 56.3164 19.7573 56.223 19.832C56.1857 19.8507 56.1204 19.86 56.027 19.86C55.915 19.8413 55.7937 19.8227 55.663 19.804C55.551 19.7853 55.439 19.776 55.327 19.776C55.1777 19.776 55.019 19.7107 54.851 19.58C54.739 19.4867 54.6364 19.4027 54.543 19.328C54.4497 19.2347 54.3564 19.1227 54.263 18.992C54.0204 18.656 53.703 18.348 53.311 18.068C53.1244 17.9187 52.947 17.7787 52.779 17.648C52.611 17.5173 52.4244 17.396 52.219 17.284C52.0884 17.2093 51.9577 17.1347 51.827 17.06C51.715 16.9667 51.5844 16.8827 51.435 16.808C50.9684 16.4907 50.4924 16.1827 50.007 15.884C49.5217 15.5667 49.0364 15.2493 48.551 14.932C48.4764 14.876 48.3924 14.82 48.299 14.764C48.2057 14.708 48.1124 14.652 48.019 14.596C47.9817 14.5587 47.9257 14.5213 47.851 14.484C47.7764 14.484 47.739 14.512 47.739 14.568C47.739 14.5867 47.7297 14.6053 47.711 14.624C47.711 14.624 47.711 14.6333 47.711 14.652C47.711 14.708 47.711 14.764 47.711 14.82C47.711 14.876 47.7204 14.932 47.739 14.988C47.7577 15.1373 47.767 15.2867 47.767 15.436C47.767 15.5667 47.767 15.7067 47.767 15.856C47.767 15.968 47.767 16.08 47.767 16.192C47.7857 16.2853 47.8044 16.388 47.823 16.5C47.823 16.556 47.823 16.6213 47.823 16.696C47.8417 16.752 47.851 16.808 47.851 16.864C47.8324 17.032 47.8417 17.2 47.879 17.368C47.9164 17.536 47.9444 17.704 47.963 17.872L48.131 18.6C48.1497 18.6747 48.1684 18.7587 48.187 18.852C48.2057 18.9267 48.2244 19.0107 48.243 19.104C48.2617 19.1787 48.2617 19.2533 48.243 19.328C48.243 19.384 48.2337 19.4493 48.215 19.524C48.215 19.5427 48.1964 19.5707 48.159 19.608C48.0657 19.6267 48.0004 19.692 47.963 19.804C47.907 19.9347 47.823 20.0467 47.711 20.14C47.6177 20.252 47.515 20.3547 47.403 20.448C47.3844 20.4667 47.347 20.4853 47.291 20.504C47.235 20.5227 47.1884 20.5413 47.151 20.56ZM48.243 10.76H48.299C48.5044 10.7227 48.7097 10.6853 48.915 10.648C49.139 10.592 49.3537 10.5267 49.559 10.452C49.7644 10.396 49.9417 10.2933 50.091 10.144C50.2217 10.0133 50.287 9.864 50.287 9.696C50.3057 9.56533 50.3057 9.444 50.287 9.332C50.287 9.20133 50.2684 9.07067 50.231 8.94C50.1564 8.604 50.0724 8.27733 49.979 7.96C49.8857 7.624 49.7737 7.30667 49.643 7.008L49.391 6.336C49.335 6.14933 49.2697 5.972 49.195 5.804C49.1204 5.61733 49.0364 5.44 48.943 5.272C48.9244 5.23467 48.9057 5.19733 48.887 5.16C48.8684 5.104 48.8497 5.05733 48.831 5.02L48.719 4.908C48.663 4.83333 48.5977 4.83333 48.523 4.908C48.5044 4.908 48.4764 4.92667 48.439 4.964C48.3084 5.132 48.187 5.30933 48.075 5.496C47.9817 5.68267 47.9257 5.888 47.907 6.112C47.8884 6.18667 47.8697 6.26133 47.851 6.336C47.851 6.41067 47.851 6.49467 47.851 6.588V7.792C47.8324 8.05333 47.823 8.324 47.823 8.604C47.8417 8.884 47.8324 9.15467 47.795 9.416C47.7764 9.472 47.767 9.528 47.767 9.584C47.7857 9.64 47.795 9.696 47.795 9.752C47.8137 9.864 47.823 9.976 47.823 10.088C47.823 10.1813 47.823 10.284 47.823 10.396C47.823 10.5827 47.8417 10.6947 47.879 10.732C47.935 10.7693 48.0564 10.7787 48.243 10.76ZM75.5161 21.372L75.0401 21.288C74.7975 21.2507 74.5455 21.2133 74.2841 21.176C74.0415 21.1387 73.7895 21.1107 73.5281 21.092C73.2668 21.092 73.0055 21.0173 72.7441 20.868C72.5015 20.7373 72.3335 20.532 72.2401 20.252C72.2215 20.1587 72.1935 20.0653 72.1561 19.972C72.1375 19.8787 72.1188 19.7853 72.1001 19.692C72.1001 19.468 72.1468 19.3 72.2401 19.188C72.3335 19.0947 72.4081 19.0013 72.4641 18.908C72.5388 18.8147 72.6135 18.7307 72.6881 18.656C72.7255 18.6187 72.7628 18.5907 72.8001 18.572C72.8375 18.5533 72.8748 18.5347 72.9121 18.516C73.0055 18.46 73.0988 18.4227 73.1921 18.404C73.2855 18.3667 73.3788 18.3387 73.4721 18.32C73.5095 18.3013 73.5375 18.3013 73.5561 18.32C73.5935 18.32 73.6215 18.32 73.6401 18.32C73.7335 18.3387 73.8361 18.3573 73.9481 18.376C74.0601 18.376 74.1628 18.3947 74.2561 18.432L75.4321 18.6C75.6935 18.6373 75.9268 18.6 76.1321 18.488C76.2068 18.4507 76.2721 18.4133 76.3281 18.376C76.4028 18.3387 76.4681 18.3013 76.5241 18.264C76.9348 18.0213 77.2895 17.7693 77.5881 17.508C77.8121 17.3027 78.0268 17.0973 78.2321 16.892C78.4375 16.6867 78.6241 16.4627 78.7921 16.22C78.9228 16.052 79.0068 15.884 79.0441 15.716C79.0815 15.5293 79.0908 15.3427 79.0721 15.156L78.9881 14.932C78.9695 14.8387 78.9321 14.764 78.8761 14.708C78.8201 14.652 78.7641 14.5867 78.7081 14.512C78.5961 14.4187 78.4841 14.316 78.3721 14.204C78.2788 14.092 78.1761 13.9987 78.0641 13.924C77.7841 13.7 77.5041 13.4853 77.2241 13.28C76.9628 13.0747 76.6921 12.8693 76.4121 12.664C76.3935 12.6267 76.3375 12.5893 76.2441 12.552C76.0761 12.44 75.9081 12.3187 75.7401 12.188C75.5908 12.0387 75.4415 11.8987 75.2921 11.768C75.1055 11.5813 74.9001 11.404 74.6761 11.236C74.5641 11.18 74.4615 11.0867 74.3681 10.956C74.2935 10.8627 74.1815 10.7693 74.0321 10.676C73.9015 10.6013 73.7801 10.5173 73.6681 10.424C73.5561 10.312 73.4441 10.2093 73.3321 10.116L72.9681 9.78C72.8935 9.68667 72.8095 9.60267 72.7161 9.528C72.6415 9.43467 72.5575 9.34133 72.4641 9.248C72.4268 9.15467 72.3708 9.08 72.2961 9.024C72.2401 8.968 72.1841 8.90267 72.1281 8.828C72.1095 8.79067 72.0815 8.75333 72.0441 8.716C72.0068 8.66 71.9788 8.604 71.9601 8.548C71.8481 8.324 71.7268 8.1 71.5961 7.876C71.4841 7.652 71.3815 7.41867 71.2881 7.176C71.2321 7.02667 71.1761 6.88667 71.1201 6.756C71.0828 6.60667 71.0455 6.46667 71.0081 6.336C70.9895 6.18667 70.9521 6.056 70.8961 5.944C70.8588 5.81333 70.8215 5.68267 70.7841 5.552C70.7468 5.34667 70.7001 5.15067 70.6441 4.964C70.6068 4.75867 70.5695 4.56267 70.5321 4.376L70.4761 4.152C70.4575 3.94667 70.4575 3.75067 70.4761 3.564C70.5135 3.30267 70.5695 3.06933 70.6441 2.864C70.7188 2.64 70.8401 2.46267 71.0081 2.332C71.1948 2.18267 71.3815 2.03333 71.5681 1.884C71.7548 1.73467 71.9508 1.61333 72.1561 1.52C72.1935 1.52 72.2215 1.51067 72.2401 1.492C72.4268 1.34267 72.6321 1.24 72.8561 1.184C73.0801 1.10933 73.3041 1.044 73.5281 0.987999C74.4241 0.726666 75.3481 0.530666 76.3001 0.399999H76.5801C76.7668 0.399999 76.9441 0.399999 77.1121 0.399999C77.2801 0.399999 77.4575 0.390665 77.6441 0.371999C77.8681 0.371999 78.0921 0.399999 78.3161 0.456C78.5401 0.493332 78.7548 0.558666 78.9601 0.651999C79.1095 0.726666 79.2588 0.810666 79.4081 0.903999C79.5575 0.978666 79.6975 1.06267 79.8281 1.156C79.9775 1.268 80.0708 1.38933 80.1081 1.52L80.1921 1.716C80.2855 1.884 80.3321 2.06133 80.3321 2.248C80.3508 2.416 80.3415 2.59333 80.3041 2.78C80.3041 2.836 80.2948 2.90133 80.2761 2.976C80.2761 3.032 80.2761 3.088 80.2761 3.144C80.2201 3.55467 80.0241 3.872 79.6881 4.096C79.4828 4.28267 79.2121 4.35733 78.8761 4.32C78.8015 4.28267 78.7641 4.30133 78.7641 4.376C78.7641 4.45067 78.7175 4.488 78.6241 4.488H78.4561C78.3441 4.488 78.2321 4.432 78.1201 4.32C78.0268 4.22667 77.9801 4.152 77.9801 4.096C77.9801 4.02133 78.0175 3.96533 78.0921 3.928C78.0548 3.83467 78.0175 3.75067 77.9801 3.676C77.9428 3.60133 77.9055 3.54533 77.8681 3.508C77.8121 3.41467 77.7281 3.34933 77.6161 3.312C77.5228 3.29333 77.4295 3.27467 77.3361 3.256C77.2428 3.23733 77.1495 3.21867 77.0561 3.2C76.9815 3.2 76.8975 3.2 76.8041 3.2C76.7108 3.18133 76.6175 3.16267 76.5241 3.144C76.4681 3.12533 76.3841 3.13467 76.2721 3.172C76.2161 3.19067 76.1601 3.20933 76.1041 3.228C76.0481 3.228 75.9828 3.21867 75.9081 3.2C75.8521 3.2 75.7868 3.2 75.7121 3.2C75.6561 3.2 75.5908 3.21867 75.5161 3.256L74.9841 3.34C74.6855 3.396 74.3961 3.508 74.1161 3.676C74.0601 3.69467 74.0041 3.71333 73.9481 3.732C73.8921 3.75067 73.8361 3.75067 73.7801 3.732C73.6681 3.71333 73.5748 3.74133 73.5001 3.816C73.4815 3.85333 73.4348 3.88133 73.3601 3.9C73.3041 3.9 73.2575 3.91867 73.2201 3.956C73.1455 4.03067 73.1081 4.10533 73.1081 4.18C73.1268 4.21733 73.1361 4.27333 73.1361 4.348L73.7241 6.056C73.8361 6.35467 73.9761 6.63467 74.1441 6.896C74.3308 7.13867 74.5268 7.38133 74.7321 7.624C75.0495 7.99733 75.3761 8.31467 75.7121 8.576L76.6081 9.332C76.7948 9.5 76.9908 9.65867 77.1961 9.808C77.4015 9.95733 77.5975 10.1067 77.7841 10.256C78.0641 10.4613 78.3441 10.676 78.6241 10.9C78.9041 11.1053 79.1841 11.32 79.4641 11.544C79.6881 11.7307 79.9028 11.9173 80.1081 12.104C80.3321 12.272 80.5375 12.4587 80.7241 12.664C80.8548 12.8133 80.9855 12.9627 81.1161 13.112C81.2468 13.2613 81.3588 13.4293 81.4521 13.616C81.5828 13.8213 81.6948 14.064 81.7881 14.344C81.9001 14.6987 81.9468 15.0347 81.9281 15.352C81.9095 15.3893 81.9001 15.4453 81.9001 15.52C81.9001 15.744 81.8721 15.9587 81.8161 16.164C81.7788 16.3507 81.7135 16.5467 81.6201 16.752C81.5268 16.9387 81.4241 17.1347 81.3121 17.34C81.2188 17.5267 81.1068 17.7133 80.9761 17.9C80.7895 18.1427 80.5935 18.376 80.3881 18.6C80.2015 18.8053 79.9868 19.0107 79.7441 19.216C79.6135 19.328 79.4828 19.4493 79.3521 19.58C79.2215 19.692 79.0815 19.7947 78.9321 19.888C78.8388 19.9627 78.7455 20.028 78.6521 20.084C78.5588 20.1587 78.4655 20.2333 78.3721 20.308C78.2975 20.3453 78.2228 20.392 78.1481 20.448C78.0735 20.504 77.9988 20.56 77.9241 20.616C77.8495 20.6907 77.7561 20.7467 77.6441 20.784C77.5508 20.84 77.4575 20.8867 77.3641 20.924L76.5521 21.26C76.3841 21.316 76.2161 21.3533 76.0481 21.372C75.8801 21.3907 75.7028 21.3907 75.5161 21.372ZM89.214 20.28C89.1954 20.2613 89.1674 20.252 89.13 20.252C88.9434 20.14 88.7567 20.0373 88.57 19.944C88.402 19.832 88.2434 19.7107 88.094 19.58C88.0194 19.5427 87.9727 19.5053 87.954 19.468C87.786 19.3747 87.6367 19.2627 87.506 19.132C87.3754 18.9827 87.254 18.824 87.142 18.656C87.1047 18.6187 87.0674 18.572 87.03 18.516C86.9927 18.46 86.946 18.404 86.89 18.348C86.7034 18.1613 86.554 17.9373 86.442 17.676C86.4234 17.62 86.3954 17.564 86.358 17.508C86.3207 17.452 86.2834 17.396 86.246 17.34C86.134 17.1907 86.05 17.0507 85.994 16.92C85.9567 16.7707 85.9007 16.6307 85.826 16.5C85.7514 16.3507 85.6767 16.2107 85.602 16.08C85.5834 16.0053 85.5554 15.9307 85.518 15.856C85.4807 15.7813 85.4527 15.7067 85.434 15.632C85.434 15.5387 85.406 15.436 85.35 15.324C85.2754 15.1187 85.2007 14.9133 85.126 14.708C85.07 14.484 85.014 14.26 84.958 14.036C84.9207 13.9613 84.902 13.9053 84.902 13.868C84.79 13.6253 84.706 13.3733 84.65 13.112C84.594 12.8507 84.538 12.5987 84.482 12.356L84.314 11.096C84.2954 11.0587 84.286 11.012 84.286 10.956C84.286 10.9 84.286 10.8533 84.286 10.816C84.286 10.704 84.286 10.6013 84.286 10.508C84.286 10.396 84.2674 10.284 84.23 10.172C84.1927 9.92933 84.202 9.70533 84.258 9.5C84.258 9.42533 84.258 9.36 84.258 9.304C84.2767 9.22933 84.286 9.15467 84.286 9.08C84.286 8.98667 84.286 8.89333 84.286 8.8C84.3047 8.688 84.3234 8.59467 84.342 8.52C84.3607 8.464 84.37 8.38933 84.37 8.296C84.4074 8.128 84.426 7.96933 84.426 7.82C84.4447 7.652 84.4634 7.49333 84.482 7.344C84.538 7.08267 84.566 6.83067 84.566 6.588C84.566 6.51333 84.566 6.448 84.566 6.392C84.5847 6.31733 84.6034 6.24267 84.622 6.168C84.622 6 84.6127 5.87867 84.594 5.804C84.538 5.72933 84.5287 5.62667 84.566 5.496C84.6034 5.42133 84.622 5.36533 84.622 5.328C84.6407 5.29067 84.65 5.25333 84.65 5.216C84.65 5.16 84.678 5.12267 84.734 5.104H84.93C85.0047 5.104 85.0514 5.076 85.07 5.02C85.0887 4.94533 85.154 4.88933 85.266 4.852C85.3594 4.81467 85.4434 4.78667 85.518 4.768C85.5927 4.73067 85.6674 4.684 85.742 4.628C85.798 4.59067 85.8634 4.572 85.938 4.572C86.0127 4.572 86.0874 4.58133 86.162 4.6L86.666 4.768C86.6847 4.78667 86.694 4.796 86.694 4.796C86.7127 4.796 86.7314 4.80533 86.75 4.824C86.8994 4.97333 87.0207 5.14133 87.114 5.328C87.226 5.51467 87.2914 5.72 87.31 5.944C87.31 6.01867 87.31 6.09333 87.31 6.168C87.31 6.224 87.2914 6.28933 87.254 6.364C87.2354 6.476 87.2167 6.588 87.198 6.7C87.1794 6.812 87.1607 6.93333 87.142 7.064C87.1047 7.25067 87.0767 7.43733 87.058 7.624C87.058 7.792 87.058 7.96933 87.058 8.156C87.0394 8.23067 87.03 8.30533 87.03 8.38C87.03 8.436 87.0207 8.50133 87.002 8.576C86.9834 8.8 86.974 9.024 86.974 9.248C86.974 9.472 86.9927 9.68667 87.03 9.892C87.03 9.91067 87.03 9.93867 87.03 9.976C87.0487 10.0133 87.0487 10.0507 87.03 10.088C87.03 10.2747 87.0487 10.4707 87.086 10.676C87.1234 10.8813 87.1514 11.0867 87.17 11.292C87.1887 11.4787 87.2074 11.656 87.226 11.824C87.2447 11.992 87.2727 12.16 87.31 12.328C87.3474 12.4027 87.366 12.4773 87.366 12.552C87.3847 12.6267 87.4034 12.7013 87.422 12.776C87.4967 13.1307 87.5807 13.476 87.674 13.812C87.7674 14.148 87.8887 14.484 88.038 14.82C88.1314 15.0253 88.2247 15.2027 88.318 15.352C88.4674 15.6133 88.598 15.8747 88.71 16.136C88.7847 16.2667 88.8594 16.3973 88.934 16.528C89.0087 16.64 89.0834 16.7613 89.158 16.892C89.2327 16.9853 89.3074 17.0693 89.382 17.144C89.4567 17.2187 89.5314 17.3027 89.606 17.396C89.6994 17.4893 89.8207 17.5173 89.97 17.48C90.0634 17.4427 90.1287 17.4053 90.166 17.368C90.2594 17.312 90.3434 17.256 90.418 17.2C90.5114 17.144 90.5954 17.0787 90.67 17.004C90.8754 16.7987 91.062 16.5933 91.23 16.388C91.4167 16.1827 91.5754 15.9587 91.706 15.716C91.818 15.5107 91.93 15.296 92.042 15.072C92.154 14.848 92.2567 14.624 92.35 14.4C92.462 14.1387 92.5647 13.8773 92.658 13.616C92.77 13.3547 92.8727 13.084 92.966 12.804C93.0407 12.6173 93.0967 12.4307 93.134 12.244C93.19 12.0387 93.2274 11.8427 93.246 11.656C93.2834 11.4507 93.3114 11.2453 93.33 11.04C93.3674 10.816 93.3767 10.6013 93.358 10.396C93.358 10.34 93.358 10.284 93.358 10.228C93.3767 10.172 93.386 10.116 93.386 10.06C93.4234 9.92933 93.4327 9.808 93.414 9.696C93.414 9.584 93.4047 9.472 93.386 9.36C93.3674 9.04267 93.3394 8.744 93.302 8.464C93.2834 8.16533 93.2647 7.86667 93.246 7.568C93.246 7.41867 93.2367 7.316 93.218 7.26C93.1994 7.092 93.1807 6.924 93.162 6.756C93.162 6.588 93.1434 6.42 93.106 6.252V6.028C93.106 5.84133 93.0967 5.664 93.078 5.496C93.078 5.30933 93.078 5.12267 93.078 4.936C93.078 4.78667 93.0687 4.656 93.05 4.544C93.05 4.41333 93.05 4.28267 93.05 4.152C93.05 3.984 93.078 3.844 93.134 3.732C93.19 3.63867 93.2087 3.564 93.19 3.508C93.134 3.396 93.162 3.312 93.274 3.256C93.3674 3.16267 93.4607 3.088 93.554 3.032C93.666 2.976 93.7874 2.93867 93.918 2.92C93.9554 2.90133 93.9834 2.892 94.002 2.892C94.0394 2.892 94.0674 2.88267 94.086 2.864C94.198 2.77067 94.3474 2.74267 94.534 2.78C94.5714 2.79867 94.6274 2.808 94.702 2.808C94.87 2.84533 94.9914 2.91067 95.066 3.004C95.122 3.06 95.206 3.12533 95.318 3.2C95.4674 3.27467 95.57 3.368 95.626 3.48C95.682 3.592 95.7194 3.71333 95.738 3.844C95.7754 4.03067 95.8034 4.208 95.822 4.376C95.8594 4.544 95.8687 4.72133 95.85 4.908V5.16C95.85 5.34667 95.85 5.53333 95.85 5.72C95.8687 5.888 95.8874 6.06533 95.906 6.252C95.9247 6.308 95.934 6.37333 95.934 6.448C95.934 6.504 95.934 6.56 95.934 6.616C95.934 6.728 95.934 6.84 95.934 6.952C95.9527 7.04533 95.9714 7.148 95.99 7.26C96.0087 7.29733 96.018 7.35333 96.018 7.428C95.9994 7.61467 95.9994 7.80133 96.018 7.988C96.0554 8.156 96.0834 8.33333 96.102 8.52C96.1207 8.70667 96.13 8.90267 96.13 9.108C96.1487 9.31333 96.158 9.51867 96.158 9.724C96.1767 9.74267 96.1767 9.77067 96.158 9.808C96.158 9.84533 96.158 9.88267 96.158 9.92C96.102 10.088 96.0927 10.284 96.13 10.508C96.1674 10.7507 96.158 10.984 96.102 11.208C96.0834 11.376 96.0647 11.544 96.046 11.712C96.0274 11.88 95.9994 12.0573 95.962 12.244C95.9247 12.5427 95.8594 12.8413 95.766 13.14C95.6727 13.4387 95.5794 13.7373 95.486 14.036C95.486 14.0733 95.458 14.1387 95.402 14.232C95.3274 14.3627 95.262 14.5027 95.206 14.652C95.15 14.7827 95.1034 14.9227 95.066 15.072L94.982 15.268C94.8887 15.4547 94.8047 15.6413 94.73 15.828C94.674 15.996 94.5994 16.1733 94.506 16.36C94.45 16.472 94.394 16.584 94.338 16.696C94.282 16.808 94.2167 16.9107 94.142 17.004C94.1234 17.0413 94.0954 17.0787 94.058 17.116C94.0207 17.2467 93.9647 17.368 93.89 17.48C93.8154 17.592 93.7407 17.704 93.666 17.816C93.4607 18.1333 93.218 18.432 92.938 18.712C92.6767 18.992 92.3874 19.2533 92.07 19.496L91.734 19.692C91.4727 19.8227 91.1927 19.9347 90.894 20.028C90.614 20.1213 90.3247 20.1867 90.026 20.224C89.9327 20.2427 89.83 20.2427 89.718 20.224C89.662 20.224 89.606 20.224 89.55 20.224C89.494 20.224 89.438 20.2427 89.382 20.28H89.214ZM102.435 21.092C102.024 21.1667 101.66 21.036 101.343 20.7C101.287 20.644 101.231 20.5787 101.175 20.504C101.138 20.4293 101.091 20.3547 101.035 20.28L100.951 20.056C100.802 19.664 100.671 19.272 100.559 18.88C100.466 18.4693 100.391 18.0587 100.335 17.648C100.279 17.368 100.251 17.1067 100.251 16.864C100.232 16.6213 100.204 16.3787 100.167 16.136C100.148 15.8933 100.139 15.6507 100.139 15.408C100.139 15.296 100.139 15.184 100.139 15.072C100.139 14.9413 100.12 14.8107 100.083 14.68V14.624C100.064 14.4187 100.046 14.2133 100.027 14.008C100.027 13.784 100.008 13.5693 99.9711 13.364L99.8871 12.076C99.8684 11.8893 99.8497 11.712 99.8311 11.544C99.8124 11.376 99.7844 11.1987 99.7471 11.012C99.7471 10.9373 99.7377 10.872 99.7191 10.816C99.7191 10.7413 99.7191 10.6667 99.7191 10.592C99.7191 10.4427 99.7191 10.2933 99.7191 10.144C99.7191 9.99467 99.7097 9.85467 99.6911 9.724C99.6724 9.64933 99.6631 9.54667 99.6631 9.416V8.52C99.6817 8.25867 99.6724 7.99733 99.6351 7.736C99.5977 7.47467 99.5604 7.22267 99.5231 6.98L99.2711 5.468C99.2524 5.43067 99.2431 5.384 99.2431 5.328C99.2431 5.272 99.2431 5.22533 99.2431 5.188C99.2431 5.15067 99.2431 5.104 99.2431 5.048C99.2431 4.992 99.2337 4.94533 99.2151 4.908C99.1591 4.70267 99.1497 4.516 99.1871 4.348C99.2244 4.16133 99.2711 3.97467 99.3271 3.788C99.3457 3.76933 99.3737 3.72267 99.4111 3.648C99.5044 3.55467 99.5884 3.47067 99.6631 3.396C99.7377 3.30267 99.8311 3.228 99.9431 3.172C100.055 3.13467 100.139 3.05067 100.195 2.92L100.279 2.724C100.466 2.388 100.755 2.15467 101.147 2.024C101.166 2.00533 101.184 1.996 101.203 1.996C101.24 1.996 101.268 1.98667 101.287 1.968C101.53 1.856 101.782 1.84667 102.043 1.94C102.136 1.95867 102.23 1.98667 102.323 2.024C102.416 2.04267 102.5 2.07067 102.575 2.108C102.706 2.164 102.827 2.22933 102.939 2.304C103.051 2.36 103.172 2.416 103.303 2.472C103.639 2.64 103.975 2.808 104.311 2.976C104.647 3.12533 104.983 3.27467 105.319 3.424L106.047 3.76C106.159 3.816 106.271 3.872 106.383 3.928C106.495 3.96533 106.607 4.012 106.719 4.068L106.943 4.152C107.055 4.22667 107.167 4.30133 107.279 4.376C107.391 4.432 107.512 4.49733 107.643 4.572C107.83 4.66533 108.007 4.78667 108.175 4.936C108.343 5.08533 108.492 5.23467 108.623 5.384C108.735 5.496 108.8 5.59867 108.819 5.692C108.875 5.84133 108.931 6 108.987 6.168C109.043 6.31733 109.08 6.46667 109.099 6.616C109.136 6.69067 109.136 6.77467 109.099 6.868C109.043 6.99867 108.987 7.13867 108.931 7.288C108.894 7.41867 108.856 7.55867 108.819 7.708C108.688 8.06267 108.483 8.38 108.203 8.66C107.96 8.90267 107.727 9.09867 107.503 9.248C107.41 9.304 107.316 9.36933 107.223 9.444C107.13 9.5 107.036 9.556 106.943 9.612C106.738 9.74267 106.523 9.864 106.299 9.976C106.075 10.088 105.842 10.1813 105.599 10.256C105.543 10.256 105.496 10.2747 105.459 10.312C105.272 10.3867 105.095 10.4613 104.927 10.536C104.759 10.6107 104.591 10.6947 104.423 10.788C104.255 10.8813 104.143 11.012 104.087 11.18C104.087 11.1987 104.078 11.2173 104.059 11.236C104.059 11.236 104.059 11.2547 104.059 11.292C104.04 11.4413 103.975 11.572 103.863 11.684C103.77 11.796 103.676 11.9173 103.583 12.048C103.583 12.0667 103.574 12.076 103.555 12.076C103.536 12.076 103.518 12.0853 103.499 12.104L103.163 12.272C103.07 12.3093 103.023 12.3933 103.023 12.524C103.023 12.5987 103.023 12.6827 103.023 12.776C103.023 12.8507 103.032 12.9253 103.051 13L103.163 13.616C103.163 13.6907 103.163 13.7653 103.163 13.84C103.182 13.896 103.182 13.9707 103.163 14.064C103.163 14.2133 103.163 14.372 103.163 14.54C103.182 14.708 103.2 14.8667 103.219 15.016C103.238 15.0907 103.247 15.1653 103.247 15.24C103.247 15.296 103.247 15.3613 103.247 15.436C103.247 15.5293 103.247 15.632 103.247 15.744C103.266 15.8373 103.284 15.9307 103.303 16.024C103.303 16.0427 103.303 16.0707 103.303 16.108C103.322 16.1267 103.331 16.1547 103.331 16.192C103.312 16.416 103.312 16.6493 103.331 16.892C103.368 17.116 103.396 17.34 103.415 17.564V17.676C103.396 17.8253 103.387 17.984 103.387 18.152C103.406 18.3013 103.415 18.46 103.415 18.628C103.415 18.8707 103.452 19.076 103.527 19.244C103.583 19.356 103.602 19.468 103.583 19.58C103.564 19.692 103.536 19.804 103.499 19.916C103.48 19.972 103.452 20.028 103.415 20.084C103.396 20.1587 103.368 20.224 103.331 20.28C103.182 20.5787 102.986 20.812 102.743 20.98C102.631 21.0547 102.528 21.092 102.435 21.092ZM102.771 8.856L102.939 8.772C103.256 8.56667 103.574 8.38 103.891 8.212C104.227 8.044 104.563 7.876 104.899 7.708L105.431 7.428C105.543 7.35333 105.646 7.288 105.739 7.232C105.851 7.176 105.954 7.11067 106.047 7.036C106.066 7.01733 106.094 6.97067 106.131 6.896C106.15 6.896 106.159 6.88667 106.159 6.868C106.159 6.84933 106.15 6.84 106.131 6.84C106.075 6.784 106.047 6.756 106.047 6.756C105.954 6.7 105.851 6.644 105.739 6.588C105.627 6.51333 105.515 6.448 105.403 6.392C105.31 6.35467 105.207 6.308 105.095 6.252C104.983 6.196 104.871 6.14 104.759 6.084C104.311 5.87867 103.872 5.67333 103.443 5.468C103.312 5.412 103.182 5.36533 103.051 5.328C102.939 5.272 102.818 5.216 102.687 5.16C102.687 5.16 102.65 5.14133 102.575 5.104C102.5 5.104 102.463 5.132 102.463 5.188C102.444 5.26267 102.426 5.33733 102.407 5.412C102.388 5.468 102.37 5.53333 102.351 5.608V6.532C102.351 6.7 102.351 6.868 102.351 7.036C102.37 7.204 102.398 7.36267 102.435 7.512C102.435 7.64267 102.444 7.78267 102.463 7.932C102.482 8.06267 102.5 8.20267 102.519 8.352L102.603 8.8C102.64 8.87467 102.696 8.89333 102.771 8.856ZM114.904 21.092C114.493 21.1667 114.129 21.036 113.812 20.7C113.756 20.644 113.7 20.5787 113.644 20.504C113.606 20.4293 113.56 20.3547 113.504 20.28L113.42 20.056C113.27 19.664 113.14 19.272 113.028 18.88C112.934 18.4693 112.86 18.0587 112.804 17.648C112.748 17.368 112.72 17.1067 112.72 16.864C112.701 16.6213 112.673 16.3787 112.636 16.136C112.617 15.8933 112.608 15.6507 112.608 15.408C112.608 15.296 112.608 15.184 112.608 15.072C112.608 14.9413 112.589 14.8107 112.552 14.68V14.624C112.533 14.4187 112.514 14.2133 112.496 14.008C112.496 13.784 112.477 13.5693 112.44 13.364L112.356 12.076C112.337 11.8893 112.318 11.712 112.3 11.544C112.281 11.376 112.253 11.1987 112.216 11.012C112.216 10.9373 112.206 10.872 112.188 10.816C112.188 10.7413 112.188 10.6667 112.188 10.592C112.188 10.4427 112.188 10.2933 112.188 10.144C112.188 9.99467 112.178 9.85467 112.16 9.724C112.141 9.64933 112.132 9.54667 112.132 9.416V8.52C112.15 8.25867 112.141 7.99733 112.104 7.736C112.066 7.47467 112.029 7.22267 111.992 6.98L111.74 5.468C111.721 5.43067 111.712 5.384 111.712 5.328C111.712 5.272 111.712 5.22533 111.712 5.188C111.712 5.15067 111.712 5.104 111.712 5.048C111.712 4.992 111.702 4.94533 111.684 4.908C111.628 4.70267 111.618 4.516 111.656 4.348C111.693 4.16133 111.74 3.97467 111.796 3.788C111.814 3.76933 111.842 3.72267 111.88 3.648C111.973 3.55467 112.057 3.47067 112.132 3.396C112.206 3.30267 112.3 3.228 112.412 3.172C112.524 3.13467 112.608 3.05067 112.664 2.92L112.748 2.724C112.934 2.388 113.224 2.15467 113.616 2.024C113.634 2.00533 113.653 1.996 113.672 1.996C113.709 1.996 113.737 1.98667 113.756 1.968C113.998 1.856 114.25 1.84667 114.512 1.94C114.605 1.95867 114.698 1.98667 114.792 2.024C114.885 2.04267 114.969 2.07067 115.044 2.108C115.174 2.164 115.296 2.22933 115.408 2.304C115.52 2.36 115.641 2.416 115.772 2.472C116.108 2.64 116.444 2.808 116.78 2.976C117.116 3.12533 117.452 3.27467 117.788 3.424L118.516 3.76C118.628 3.816 118.74 3.872 118.852 3.928C118.964 3.96533 119.076 4.012 119.188 4.068L119.412 4.152C119.524 4.22667 119.636 4.30133 119.748 4.376C119.86 4.432 119.981 4.49733 120.112 4.572C120.298 4.66533 120.476 4.78667 120.644 4.936C120.812 5.08533 120.961 5.23467 121.092 5.384C121.204 5.496 121.269 5.59867 121.288 5.692C121.344 5.84133 121.4 6 121.456 6.168C121.512 6.31733 121.549 6.46667 121.568 6.616C121.605 6.69067 121.605 6.77467 121.568 6.868C121.512 6.99867 121.456 7.13867 121.4 7.288C121.362 7.41867 121.325 7.55867 121.288 7.708C121.157 8.06267 120.952 8.38 120.672 8.66C120.429 8.90267 120.196 9.09867 119.972 9.248C119.878 9.304 119.785 9.36933 119.692 9.444C119.598 9.5 119.505 9.556 119.412 9.612C119.206 9.74267 118.992 9.864 118.768 9.976C118.544 10.088 118.31 10.1813 118.068 10.256C118.012 10.256 117.965 10.2747 117.928 10.312C117.741 10.3867 117.564 10.4613 117.396 10.536C117.228 10.6107 117.06 10.6947 116.892 10.788C116.724 10.8813 116.612 11.012 116.556 11.18C116.556 11.1987 116.546 11.2173 116.528 11.236C116.528 11.236 116.528 11.2547 116.528 11.292C116.509 11.4413 116.444 11.572 116.332 11.684C116.238 11.796 116.145 11.9173 116.052 12.048C116.052 12.0667 116.042 12.076 116.024 12.076C116.005 12.076 115.986 12.0853 115.968 12.104L115.632 12.272C115.538 12.3093 115.492 12.3933 115.492 12.524C115.492 12.5987 115.492 12.6827 115.492 12.776C115.492 12.8507 115.501 12.9253 115.52 13L115.632 13.616C115.632 13.6907 115.632 13.7653 115.632 13.84C115.65 13.896 115.65 13.9707 115.632 14.064C115.632 14.2133 115.632 14.372 115.632 14.54C115.65 14.708 115.669 14.8667 115.688 15.016C115.706 15.0907 115.716 15.1653 115.716 15.24C115.716 15.296 115.716 15.3613 115.716 15.436C115.716 15.5293 115.716 15.632 115.716 15.744C115.734 15.8373 115.753 15.9307 115.772 16.024C115.772 16.0427 115.772 16.0707 115.772 16.108C115.79 16.1267 115.8 16.1547 115.8 16.192C115.781 16.416 115.781 16.6493 115.8 16.892C115.837 17.116 115.865 17.34 115.884 17.564V17.676C115.865 17.8253 115.856 17.984 115.856 18.152C115.874 18.3013 115.884 18.46 115.884 18.628C115.884 18.8707 115.921 19.076 115.996 19.244C116.052 19.356 116.07 19.468 116.052 19.58C116.033 19.692 116.005 19.804 115.968 19.916C115.949 19.972 115.921 20.028 115.884 20.084C115.865 20.1587 115.837 20.224 115.8 20.28C115.65 20.5787 115.454 20.812 115.212 20.98C115.1 21.0547 114.997 21.092 114.904 21.092ZM115.24 8.856L115.408 8.772C115.725 8.56667 116.042 8.38 116.36 8.212C116.696 8.044 117.032 7.876 117.368 7.708L117.9 7.428C118.012 7.35333 118.114 7.288 118.208 7.232C118.32 7.176 118.422 7.11067 118.516 7.036C118.534 7.01733 118.562 6.97067 118.6 6.896C118.618 6.896 118.628 6.88667 118.628 6.868C118.628 6.84933 118.618 6.84 118.6 6.84C118.544 6.784 118.516 6.756 118.516 6.756C118.422 6.7 118.32 6.644 118.208 6.588C118.096 6.51333 117.984 6.448 117.872 6.392C117.778 6.35467 117.676 6.308 117.564 6.252C117.452 6.196 117.34 6.14 117.228 6.084C116.78 5.87867 116.341 5.67333 115.912 5.468C115.781 5.412 115.65 5.36533 115.52 5.328C115.408 5.272 115.286 5.216 115.156 5.16C115.156 5.16 115.118 5.14133 115.044 5.104C114.969 5.104 114.932 5.132 114.932 5.188C114.913 5.26267 114.894 5.33733 114.876 5.412C114.857 5.468 114.838 5.53333 114.82 5.608V6.532C114.82 6.7 114.82 6.868 114.82 7.036C114.838 7.204 114.866 7.36267 114.904 7.512C114.904 7.64267 114.913 7.78267 114.932 7.932C114.95 8.06267 114.969 8.20267 114.988 8.352L115.072 8.8C115.109 8.87467 115.165 8.89333 115.24 8.856ZM129.377 20.56C129.19 20.5413 129.004 20.5133 128.817 20.476C128.649 20.4573 128.481 20.4107 128.313 20.336L127.613 20.084C127.37 19.9907 127.146 19.888 126.941 19.776C126.736 19.6453 126.53 19.5147 126.325 19.384C126.232 19.2907 126.138 19.2067 126.045 19.132C125.952 19.0387 125.858 18.9547 125.765 18.88C125.616 18.7307 125.466 18.5813 125.317 18.432C125.168 18.264 125.028 18.0867 124.897 17.9L124.225 16.864C124.057 16.6027 123.908 16.332 123.777 16.052C123.646 15.7533 123.534 15.4547 123.441 15.156C123.236 14.596 123.133 14.0453 123.133 13.504V13.056C123.133 12.5893 123.161 12.132 123.217 11.684C123.254 11.3107 123.338 10.9747 123.469 10.676C123.544 10.4893 123.609 10.3027 123.665 10.116C123.721 9.92933 123.786 9.752 123.861 9.584L123.945 9.388C123.982 9.14533 124.066 8.93067 124.197 8.744C124.328 8.53867 124.44 8.34267 124.533 8.156C124.608 8.00667 124.692 7.876 124.785 7.764C124.878 7.63333 124.962 7.50267 125.037 7.372C125.074 7.316 125.121 7.26933 125.177 7.232C125.233 7.176 125.28 7.12 125.317 7.064C125.354 7.02667 125.382 6.98 125.401 6.924C125.438 6.84933 125.466 6.784 125.485 6.728C125.522 6.672 125.588 6.59733 125.681 6.504C125.793 6.448 125.896 6.31733 125.989 6.112C126.026 6.03733 126.064 5.98133 126.101 5.944C126.213 5.85067 126.306 5.73867 126.381 5.608C126.474 5.47733 126.577 5.356 126.689 5.244C126.764 5.16933 126.801 5.06667 126.801 4.936C126.801 4.84267 126.801 4.75867 126.801 4.684C126.82 4.59067 126.82 4.50667 126.801 4.432C126.782 4.33867 126.81 4.25467 126.885 4.18C126.922 4.14267 126.95 4.096 126.969 4.04C126.988 3.984 127.006 3.928 127.025 3.872C127.081 3.68533 127.23 3.52667 127.473 3.396C127.51 3.35867 127.557 3.34 127.613 3.34C127.688 3.32133 127.753 3.30267 127.809 3.284C127.94 3.228 128.089 3.21867 128.257 3.256C128.332 3.27467 128.397 3.284 128.453 3.284C128.509 3.26533 128.565 3.24667 128.621 3.228C128.696 3.19067 128.761 3.16267 128.817 3.144C128.892 3.12533 128.957 3.10667 129.013 3.088C129.274 2.99467 129.545 3.004 129.825 3.116C130.124 3.228 130.338 3.424 130.469 3.704C130.506 3.79733 130.544 3.89067 130.581 3.984C130.618 4.07733 130.646 4.17067 130.665 4.264C130.702 4.46933 130.693 4.64667 130.637 4.796C130.6 4.87067 130.581 4.91733 130.581 4.936C130.562 5.01067 130.581 5.076 130.637 5.132C130.674 5.188 130.721 5.23467 130.777 5.272C130.982 5.45867 131.178 5.64533 131.365 5.832C131.552 6 131.729 6.18667 131.897 6.392C132.046 6.54133 132.168 6.7 132.261 6.868C132.373 7.01733 132.476 7.18533 132.569 7.372C132.606 7.46533 132.653 7.568 132.709 7.68C132.765 7.77333 132.821 7.86667 132.877 7.96C132.97 8.128 133.045 8.30533 133.101 8.492C133.176 8.67867 133.25 8.86533 133.325 9.052V9.08C133.362 9.21067 133.39 9.35067 133.409 9.5C133.446 9.63067 133.502 9.77067 133.577 9.92C133.633 10.0507 133.68 10.1907 133.717 10.34C133.754 10.4707 133.792 10.6107 133.829 10.76C133.866 10.928 133.904 11.096 133.941 11.264C133.997 11.432 134.034 11.6 134.053 11.768C134.072 11.8427 134.09 11.9173 134.109 11.992C134.128 12.048 134.146 12.1133 134.165 12.188C134.202 12.356 134.24 12.524 134.277 12.692C134.314 12.86 134.342 13.028 134.361 13.196L134.445 13.392C134.482 13.504 134.52 13.6533 134.557 13.84C134.613 14.0827 134.641 14.3253 134.641 14.568C134.66 14.8107 134.66 15.0627 134.641 15.324C134.641 15.4547 134.632 15.5573 134.613 15.632C134.501 16.024 134.361 16.4253 134.193 16.836C134.118 16.9667 134.044 17.0973 133.969 17.228C133.894 17.34 133.82 17.4613 133.745 17.592L133.493 17.984C133.4 18.152 133.297 18.3013 133.185 18.432C132.998 18.7307 132.774 18.992 132.513 19.216C132.252 19.44 131.972 19.6547 131.673 19.86C131.02 20.364 130.254 20.5973 129.377 20.56ZM129.265 17.788C129.657 17.788 129.993 17.676 130.273 17.452C130.366 17.3587 130.46 17.2747 130.553 17.2C130.665 17.1067 130.758 17.0133 130.833 16.92C131.188 16.528 131.468 16.1173 131.673 15.688L131.757 15.408C131.794 15.072 131.794 14.736 131.757 14.4L131.589 13.476C131.533 13.2333 131.486 13 131.449 12.776C131.412 12.5333 131.356 12.3 131.281 12.076C131.225 11.9453 131.206 11.8427 131.225 11.768C131.244 11.6747 131.244 11.5813 131.225 11.488C131.206 11.3947 131.178 11.3013 131.141 11.208C131.085 10.9653 131.02 10.7227 130.945 10.48C130.87 10.2373 130.796 9.99467 130.721 9.752C130.702 9.696 130.684 9.64 130.665 9.584C130.646 9.528 130.628 9.472 130.609 9.416C130.478 9.15467 130.338 8.90267 130.189 8.66C130.04 8.41733 129.872 8.19333 129.685 7.988C129.592 7.876 129.489 7.77333 129.377 7.68C129.265 7.568 129.153 7.46533 129.041 7.372C129.022 7.33467 128.994 7.316 128.957 7.316C128.938 7.29733 128.91 7.27867 128.873 7.26C128.817 7.18533 128.742 7.19467 128.649 7.288C128.556 7.38133 128.453 7.484 128.341 7.596C128.248 7.708 128.154 7.82 128.061 7.932C127.968 8.06267 127.865 8.19333 127.753 8.324C127.66 8.45467 127.566 8.58533 127.473 8.716C127.342 8.884 127.221 9.052 127.109 9.22C126.997 9.388 126.885 9.556 126.773 9.724C126.381 10.3587 126.073 11.0587 125.849 11.824C125.812 11.936 125.793 12.02 125.793 12.076C125.774 12.2067 125.756 12.3373 125.737 12.468C125.737 12.5987 125.737 12.7387 125.737 12.888V13.112C125.756 13.168 125.765 13.224 125.765 13.28C125.765 13.336 125.774 13.392 125.793 13.448C125.793 13.672 125.849 13.9147 125.961 14.176C126.11 14.5493 126.278 14.9133 126.465 15.268C126.652 15.6227 126.866 15.9587 127.109 16.276C127.165 16.3507 127.221 16.4253 127.277 16.5C127.352 16.5747 127.417 16.6493 127.473 16.724C127.641 16.9107 127.818 17.0787 128.005 17.228C128.21 17.3773 128.416 17.508 128.621 17.62C128.845 17.732 129.06 17.788 129.265 17.788ZM139.71 20.56C139.355 20.5973 139.066 20.4853 138.842 20.224C138.73 20.112 138.627 19.9907 138.534 19.86C138.44 19.7293 138.366 19.5893 138.31 19.44C138.216 19.1787 138.132 18.9173 138.058 18.656C137.983 18.376 137.918 18.1053 137.862 17.844C137.806 17.6387 137.778 17.4427 137.778 17.256C137.759 17.0507 137.731 16.8547 137.694 16.668C137.675 16.4627 137.666 16.2573 137.666 16.052C137.666 15.94 137.666 15.828 137.666 15.716C137.666 15.5853 137.656 15.464 137.638 15.352C137.619 15.2773 137.61 15.212 137.61 15.156C137.61 15.1 137.61 15.0347 137.61 14.96C137.61 14.6987 137.61 14.4373 137.61 14.176C137.61 13.896 137.6 13.6253 137.582 13.364C137.582 13.2147 137.572 13.084 137.554 12.972C137.535 12.8413 137.498 12.7107 137.442 12.58C137.367 12.3747 137.358 12.1507 137.414 11.908C137.414 11.852 137.423 11.8147 137.442 11.796C137.479 11.6653 137.498 11.5347 137.498 11.404C137.516 11.2733 137.516 11.1427 137.498 11.012C137.479 10.9187 137.47 10.8253 137.47 10.732C137.47 10.6387 137.47 10.5547 137.47 10.48C137.451 10.2747 137.442 10.0693 137.442 9.864C137.46 9.64 137.479 9.42533 137.498 9.22C137.516 9.164 137.526 9.108 137.526 9.052C137.526 8.996 137.526 8.94 137.526 8.884C137.507 8.67867 137.507 8.48267 137.526 8.296C137.563 8.10933 137.591 7.92267 137.61 7.736C137.647 7.512 137.684 7.29733 137.722 7.092C137.759 6.868 137.806 6.644 137.862 6.42C137.899 6.32667 137.918 6.224 137.918 6.112C137.918 6 137.918 5.888 137.918 5.776C137.918 5.68267 137.908 5.58933 137.89 5.496C137.89 5.40267 137.89 5.31867 137.89 5.244C137.89 5.188 137.89 5.132 137.89 5.076C137.89 5.02 137.899 4.964 137.918 4.908C137.936 4.852 137.946 4.796 137.946 4.74C137.946 4.684 137.955 4.64667 137.974 4.628C138.03 4.55333 138.076 4.488 138.114 4.432C138.151 4.35733 138.207 4.292 138.282 4.236C138.375 4.18 138.459 4.124 138.534 4.068C138.627 4.012 138.711 3.96533 138.786 3.928C138.879 3.89067 138.954 3.844 139.01 3.788C139.084 3.69467 139.159 3.61067 139.234 3.536C139.327 3.44267 139.402 3.34 139.458 3.228C139.551 3.13467 139.644 3.032 139.738 2.92C139.85 2.78933 139.971 2.68667 140.102 2.612C140.139 2.59333 140.195 2.54667 140.27 2.472C140.494 2.26667 140.755 2.136 141.054 2.08C141.11 2.06133 141.156 2.052 141.194 2.052C141.25 2.03333 141.306 2.024 141.362 2.024L141.558 1.94C141.707 1.884 141.838 1.912 141.95 2.024C141.987 2.08 142.034 2.136 142.09 2.192C142.164 2.22933 142.23 2.26667 142.286 2.304C142.435 2.43467 142.575 2.57467 142.706 2.724C142.855 2.87333 142.986 3.04133 143.098 3.228C143.284 3.52667 143.443 3.82533 143.574 4.124C143.723 4.42267 143.863 4.73067 143.994 5.048L144.498 6.252C144.516 6.364 144.563 6.46667 144.638 6.56C144.787 6.84 144.899 7.12933 144.974 7.428C145.048 7.708 145.123 7.99733 145.198 8.296C145.216 8.33333 145.226 8.37067 145.226 8.408C145.244 8.44533 145.254 8.48267 145.254 8.52C145.291 8.66933 145.319 8.828 145.338 8.996C145.375 9.14533 145.384 9.29467 145.366 9.444C145.384 9.612 145.375 9.78 145.338 9.948C145.319 10.0973 145.291 10.2467 145.254 10.396C145.198 10.5827 145.132 10.76 145.058 10.928C144.983 11.0773 144.899 11.236 144.806 11.404C144.768 11.516 144.703 11.6187 144.61 11.712C144.516 11.8053 144.423 11.8893 144.33 11.964C144.18 12.0387 144.031 12.1507 143.882 12.3C143.844 12.3373 143.798 12.3653 143.742 12.384C143.704 12.4027 143.667 12.4307 143.63 12.468C143.499 12.524 143.359 12.5893 143.21 12.664C143.06 12.72 142.911 12.776 142.762 12.832C142.743 12.832 142.734 12.8507 142.734 12.888C142.734 12.9067 142.743 12.9253 142.762 12.944L143.518 13.476C143.611 13.532 143.695 13.588 143.77 13.644C143.844 13.6813 143.919 13.728 143.994 13.784L144.162 13.868C144.386 13.9987 144.61 14.1387 144.834 14.288C145.058 14.4373 145.272 14.5867 145.478 14.736C145.87 14.9787 146.262 15.2307 146.654 15.492C147.046 15.7347 147.419 16.0053 147.774 16.304C148.091 16.5467 148.371 16.8267 148.614 17.144C148.67 17.2 148.726 17.2653 148.782 17.34C148.838 17.396 148.903 17.4427 148.978 17.48L149.062 17.564C149.36 17.8253 149.528 18.18 149.566 18.628C149.566 18.684 149.556 18.74 149.538 18.796C149.538 18.852 149.538 18.908 149.538 18.964C149.538 19.076 149.5 19.1693 149.426 19.244C149.351 19.2813 149.314 19.328 149.314 19.384C149.258 19.5147 149.174 19.608 149.062 19.664C148.968 19.7013 148.875 19.7573 148.782 19.832C148.744 19.8507 148.679 19.86 148.586 19.86C148.474 19.8413 148.352 19.8227 148.222 19.804C148.11 19.7853 147.998 19.776 147.886 19.776C147.736 19.776 147.578 19.7107 147.41 19.58C147.298 19.4867 147.195 19.4027 147.102 19.328C147.008 19.2347 146.915 19.1227 146.822 18.992C146.579 18.656 146.262 18.348 145.87 18.068C145.683 17.9187 145.506 17.7787 145.338 17.648C145.17 17.5173 144.983 17.396 144.778 17.284C144.647 17.2093 144.516 17.1347 144.386 17.06C144.274 16.9667 144.143 16.8827 143.994 16.808C143.527 16.4907 143.051 16.1827 142.566 15.884C142.08 15.5667 141.595 15.2493 141.11 14.932C141.035 14.876 140.951 14.82 140.858 14.764C140.764 14.708 140.671 14.652 140.578 14.596C140.54 14.5587 140.484 14.5213 140.41 14.484C140.335 14.484 140.298 14.512 140.298 14.568C140.298 14.5867 140.288 14.6053 140.27 14.624C140.27 14.624 140.27 14.6333 140.27 14.652C140.27 14.708 140.27 14.764 140.27 14.82C140.27 14.876 140.279 14.932 140.298 14.988C140.316 15.1373 140.326 15.2867 140.326 15.436C140.326 15.5667 140.326 15.7067 140.326 15.856C140.326 15.968 140.326 16.08 140.326 16.192C140.344 16.2853 140.363 16.388 140.382 16.5C140.382 16.556 140.382 16.6213 140.382 16.696C140.4 16.752 140.41 16.808 140.41 16.864C140.391 17.032 140.4 17.2 140.438 17.368C140.475 17.536 140.503 17.704 140.522 17.872L140.69 18.6C140.708 18.6747 140.727 18.7587 140.746 18.852C140.764 18.9267 140.783 19.0107 140.802 19.104C140.82 19.1787 140.82 19.2533 140.802 19.328C140.802 19.384 140.792 19.4493 140.774 19.524C140.774 19.5427 140.755 19.5707 140.718 19.608C140.624 19.6267 140.559 19.692 140.522 19.804C140.466 19.9347 140.382 20.0467 140.27 20.14C140.176 20.252 140.074 20.3547 139.962 20.448C139.943 20.4667 139.906 20.4853 139.85 20.504C139.794 20.5227 139.747 20.5413 139.71 20.56ZM140.802 10.76H140.858C141.063 10.7227 141.268 10.6853 141.474 10.648C141.698 10.592 141.912 10.5267 142.118 10.452C142.323 10.396 142.5 10.2933 142.65 10.144C142.78 10.0133 142.846 9.864 142.846 9.696C142.864 9.56533 142.864 9.444 142.846 9.332C142.846 9.20133 142.827 9.07067 142.79 8.94C142.715 8.604 142.631 8.27733 142.538 7.96C142.444 7.624 142.332 7.30667 142.202 7.008L141.95 6.336C141.894 6.14933 141.828 5.972 141.754 5.804C141.679 5.61733 141.595 5.44 141.502 5.272C141.483 5.23467 141.464 5.19733 141.446 5.16C141.427 5.104 141.408 5.05733 141.39 5.02L141.278 4.908C141.222 4.83333 141.156 4.83333 141.082 4.908C141.063 4.908 141.035 4.92667 140.998 4.964C140.867 5.132 140.746 5.30933 140.634 5.496C140.54 5.68267 140.484 5.888 140.466 6.112C140.447 6.18667 140.428 6.26133 140.41 6.336C140.41 6.41067 140.41 6.49467 140.41 6.588V7.792C140.391 8.05333 140.382 8.324 140.382 8.604C140.4 8.884 140.391 9.15467 140.354 9.416C140.335 9.472 140.326 9.528 140.326 9.584C140.344 9.64 140.354 9.696 140.354 9.752C140.372 9.864 140.382 9.976 140.382 10.088C140.382 10.1813 140.382 10.284 140.382 10.396C140.382 10.5827 140.4 10.6947 140.438 10.732C140.494 10.7693 140.615 10.7787 140.802 10.76ZM156.281 19.972C156.244 19.9533 156.188 19.944 156.113 19.944C156.076 19.944 156.039 19.916 156.001 19.86C155.964 19.804 155.927 19.7573 155.889 19.72C155.852 19.664 155.815 19.5987 155.777 19.524C155.721 19.4493 155.675 19.4493 155.637 19.524H155.581C155.581 19.5053 155.572 19.496 155.553 19.496C155.553 19.4773 155.553 19.468 155.553 19.468C155.497 19.2067 155.413 18.964 155.301 18.74C155.245 18.5907 155.189 18.4413 155.133 18.292C155.096 18.124 155.068 17.956 155.049 17.788L154.881 16.556L154.797 15.548V15.492C154.76 15.268 154.741 15.044 154.741 14.82C154.741 14.5773 154.741 14.3347 154.741 14.092C154.723 13.9613 154.713 13.84 154.713 13.728C154.713 13.5973 154.704 13.4667 154.685 13.336C154.667 13.1867 154.648 13.0373 154.629 12.888C154.629 12.7387 154.629 12.5987 154.629 12.468L154.657 10.256V7.26C154.62 7.148 154.564 7.092 154.489 7.092C154.452 7.092 154.405 7.10133 154.349 7.12C154.312 7.12 154.275 7.12 154.237 7.12L152.977 7.456C152.809 7.512 152.641 7.568 152.473 7.624C152.305 7.66133 152.137 7.708 151.969 7.764C151.839 7.78267 151.708 7.80133 151.577 7.82C151.465 7.82 151.344 7.82 151.213 7.82C151.12 7.82 151.017 7.78267 150.905 7.708C150.775 7.652 150.663 7.57733 150.569 7.484C150.476 7.39067 150.383 7.288 150.289 7.176L150.233 7.092C150.196 6.96133 150.159 6.84 150.121 6.728C150.103 6.59733 150.103 6.46667 150.121 6.336C150.14 6.168 150.177 6.00933 150.233 5.86C150.308 5.71067 150.411 5.58 150.541 5.468C150.597 5.43067 150.644 5.384 150.681 5.328C150.737 5.272 150.793 5.216 150.849 5.16C150.924 5.12267 150.971 5.104 150.989 5.104C151.101 5.104 151.204 5.08533 151.297 5.048C151.391 4.992 151.484 4.95467 151.577 4.936C151.671 4.91733 151.764 4.89867 151.857 4.88C151.951 4.86133 152.044 4.84267 152.137 4.824C152.399 4.74933 152.66 4.684 152.921 4.628C153.183 4.55333 153.444 4.49733 153.705 4.46L155.217 4.208C155.255 4.18933 155.283 4.18 155.301 4.18C155.339 4.18 155.367 4.17067 155.385 4.152C155.497 4.11467 155.609 4.08667 155.721 4.068C155.833 4.04933 155.945 4.05867 156.057 4.096C156.095 4.11467 156.123 4.124 156.141 4.124C156.179 4.10533 156.207 4.096 156.225 4.096C156.543 4.05867 156.86 4.02133 157.177 3.984C157.495 3.94667 157.803 3.9 158.101 3.844C158.344 3.80667 158.587 3.76933 158.829 3.732C159.072 3.69467 159.315 3.66667 159.557 3.648C159.744 3.61067 159.931 3.58267 160.117 3.564C160.304 3.54533 160.491 3.52667 160.677 3.508C160.827 3.48933 160.976 3.47067 161.125 3.452C161.293 3.43333 161.452 3.41467 161.601 3.396C161.751 3.37733 161.891 3.37733 162.021 3.396C162.171 3.396 162.32 3.396 162.469 3.396C162.563 3.396 162.647 3.424 162.721 3.48C162.815 3.536 162.899 3.58267 162.973 3.62C163.048 3.676 163.151 3.76933 163.281 3.9C163.319 3.93733 163.356 4.02133 163.393 4.152C163.412 4.208 163.431 4.27333 163.449 4.348C163.468 4.404 163.487 4.46933 163.505 4.544C163.543 4.712 163.524 4.87067 163.449 5.02L163.281 5.412C163.263 5.468 163.235 5.524 163.197 5.58C163.179 5.61733 163.151 5.65467 163.113 5.692C163.076 5.72933 163.057 5.748 163.057 5.748C162.983 5.804 162.899 5.86 162.805 5.916C162.731 5.972 162.637 6.00933 162.525 6.028L161.321 6.112C161.209 6.112 161.097 6.12133 160.985 6.14C160.873 6.14 160.752 6.14933 160.621 6.168H160.481C160.183 6.18667 159.893 6.21467 159.613 6.252C159.333 6.28933 159.053 6.32667 158.773 6.364L157.653 6.532C157.597 6.532 157.56 6.54133 157.541 6.56C157.467 6.56 157.411 6.616 157.373 6.728V6.812C157.373 6.99867 157.373 7.18533 157.373 7.372C157.373 7.54 157.383 7.71733 157.401 7.904C157.457 8.16533 157.457 8.42667 157.401 8.688C157.383 8.744 157.364 8.8 157.345 8.856C157.345 8.89333 157.345 8.93067 157.345 8.968C157.364 9.192 157.345 9.43467 157.289 9.696C157.289 9.752 157.289 9.808 157.289 9.864C157.289 9.92 157.299 9.976 157.317 10.032C157.336 10.1067 157.345 10.1907 157.345 10.284C157.345 10.3773 157.345 10.4707 157.345 10.564V12.02C157.345 12.0947 157.336 12.188 157.317 12.3C157.317 12.3933 157.317 12.4867 157.317 12.58C157.317 12.6547 157.317 12.7387 157.317 12.832C157.336 12.9253 157.345 13.0187 157.345 13.112C157.345 13.2427 157.345 13.3733 157.345 13.504C157.364 13.6347 157.364 13.7747 157.345 13.924V14.792C157.345 14.8107 157.336 14.8293 157.317 14.848C157.317 14.8667 157.327 14.8947 157.345 14.932C157.364 15.1 157.373 15.2773 157.373 15.464C157.373 15.632 157.392 15.8 157.429 15.968C157.429 16.024 157.429 16.08 157.429 16.136C157.448 16.192 157.448 16.248 157.429 16.304C157.429 16.472 157.448 16.6493 157.485 16.836C157.523 17.004 157.551 17.172 157.569 17.34C157.607 17.5453 157.644 17.7507 157.681 17.956C157.737 18.1613 157.784 18.3667 157.821 18.572L157.905 18.964C157.905 19.02 157.877 19.0667 157.821 19.104C157.821 19.104 157.812 19.104 157.793 19.104C157.793 19.104 157.784 19.1133 157.765 19.132C157.672 19.1693 157.635 19.2253 157.653 19.3V19.44C157.653 19.44 157.644 19.4493 157.625 19.468C157.625 19.4867 157.616 19.496 157.597 19.496C157.504 19.496 157.429 19.5333 157.373 19.608C157.317 19.6827 157.252 19.748 157.177 19.804C157.121 19.8413 157.047 19.8787 156.953 19.916C156.711 20.0093 156.487 20.028 156.281 19.972Z" fill="black"/>
</svg>
