<svg width="80" height="110" viewBox="0 0 80 110" fill="none" xmlns="http://www.w3.org/2000/svg">
<path d="M1.71973 1C2.1016 5.55806 2.59052 10.0754 2.58307 14.6987C2.58213 15.2831 2.59493 21.8023 1.91752 18.2861" stroke="black" stroke-width="2" stroke-linecap="round"/>
<path d="M1.0521 5.15625C3.88243 4.33237 7.386 2.84714 10.4191 3.26643C13.1887 3.64929 11.2079 7.16233 10.3652 8.36966C9.0795 10.2118 5.68571 13.4568 3.24278 12.2137" stroke="black" stroke-width="2" stroke-linecap="round"/>
<path d="M15.1261 6.53519C16.3042 5.86948 23.4693 3.57603 23.4752 2.75321" stroke="black" stroke-width="2" stroke-linecap="round"/>
<path d="M15.7734 5.26055C15.7142 6.97167 14.2526 15.7761 17.0815 16.4195C18.835 16.8183 21.4437 15.6473 23.171 15.3067C23.7129 15.1999 28.0454 14.6661 25.6254 15.2529" stroke="black" stroke-width="2" stroke-linecap="round"/>
<path d="M15.7357 10.7007C18.1115 10.687 20.4383 10.0938 22.7818 10.1104" stroke="black" stroke-width="2" stroke-linecap="round"/>
<path d="M28.5743 5.67043C31.1626 5.17178 33.6702 4.11061 36.2696 3.80435" stroke="black" stroke-width="2" stroke-linecap="round"/>
<path d="M29.5394 5.03724C29.5331 5.93004 29.0628 16.6588 31.8821 15.7412C33.3755 15.2551 34.5842 14.3079 36.197 14.1179C36.9412 14.0302 38.755 14.5024 38.7626 13.4248" stroke="black" stroke-width="2" stroke-linecap="round"/>
<path d="M29.173 11.7562C31.4372 10.7054 33.8495 10.2095 36.1436 9.26259C36.8503 8.97093 37.4576 8.38617 36.8728 9.24997" stroke="black" stroke-width="2" stroke-linecap="round"/>
<path d="M43.6495 1.29589C42.4846 3.42323 44.0596 8.23646 44.1526 10.6175C44.1708 11.0815 44.1715 18.0121 44.1946 14.7434" stroke="black" stroke-width="2" stroke-linecap="round"/>
<path d="M42.6576 5.76988C43.5995 5.26472 51.2706 2.52549 50.2365 5.27223C49.0886 8.32122 46.4546 9.9512 43.4592 10.5946C43.0685 10.6786 44.0571 11.1574 44.4323 11.295C46.3491 11.9985 48.1449 12.8988 49.9626 13.8237C51.0041 14.3537 55.3586 17.2049 52.5164 14.8021" stroke="black" stroke-width="2" stroke-linecap="round"/>
<path d="M8.01278 33.5236C5.6518 32.6304 2.94705 35.7671 1.55218 37.4156C-0.82268 40.2222 6.09852 40.603 7.46391 40.9509C8.48071 41.21 10.6146 41.6105 11.1542 42.7944C11.8177 44.2501 9.95621 46.1131 8.91251 46.6557C6.55735 47.8802 3.89457 46.1181 2.78437 44.0276" stroke="black" stroke-width="2" stroke-linecap="round"/>
<path d="M14.7188 35.7025C14.3064 35.6996 11.3191 48.6504 17.1101 46.9722C20.8425 45.8905 20.4371 38.6464 20.4577 35.7431" stroke="black" stroke-width="2" stroke-linecap="round"/>
<path d="M25.04 35.7749C25.2675 39.6307 25.7265 43.4764 26.0384 47.3271C26.2415 49.8346 25.8347 46.9708 25.5225 46.0926" stroke="black" stroke-width="2" stroke-linecap="round"/>
<path d="M24.6344 35.6205C24.1082 33.8984 30.6371 34.7052 31.5333 36.1314C33.4849 39.2373 26.5462 42.0627 23.8585 41.3741" stroke="black" stroke-width="2" stroke-linecap="round"/>
<path d="M34.166 35.8412C34.2853 35.7614 35.2873 38.3704 35.3321 38.5663C35.8199 40.6964 35.8173 42.9234 35.9753 45.0726C36.0521 46.1173 35.9036 49.2156 36.284 48.2038C36.5033 47.6202 36.2161 46.8959 36.0768 46.3099" stroke="black" stroke-width="2" stroke-linecap="round"/>
<path d="M35.3064 35.8447C36.6687 33.7474 40.7095 34.7663 40.9776 37.4619C41.2971 40.6747 37.5937 42.0914 35.5716 41.3855" stroke="black" stroke-width="2" stroke-linecap="round"/>
<path d="M46.0776 35.2891C44.2403 36.9059 44.2175 41.4382 44.5836 43.7109C45.2629 47.9282 48.4565 46.0884 49.5898 43.2592C50.7234 40.4289 49.9889 36.7602 47.4083 35.1111C46.4074 34.4714 45.411 34.7827 45.1282 35.9569" stroke="black" stroke-width="2" stroke-linecap="round"/>
<path d="M54.7188 33.7036C55.0755 34.1654 55.1319 36.4867 55.1762 36.9632C55.4744 40.1712 55.421 43.4 55.5734 46.6201C55.7793 50.969 55.7978 46.8247 55.7194 45.0887" stroke="black" stroke-width="2" stroke-linecap="round"/>
<path d="M55.3199 36.9399C56.2482 36.4857 60.7288 33.9331 61.6435 35.2721C62.6454 36.7388 59.2443 38.9336 58.4396 39.3914C57.4389 39.9606 56.3773 40.2735 55.2573 40.4442C54.4149 40.5726 54.5387 40.4377 55.255 40.7628C58.3032 42.1459 60.9211 44.5477 63.7575 46.3189" stroke="black" stroke-width="2" stroke-linecap="round"/>
<path d="M64.9712 36.0577C68.1118 35.1302 72.4057 33.8284 75.2555 33.8485" stroke="black" stroke-width="2" stroke-linecap="round"/>
<path d="M70.9335 34.9593C70.0281 37.9571 71.6903 42.408 72.346 45.4026C72.6695 46.8798 72.8836 46.545 72.8922 45.3297" stroke="black" stroke-width="2" stroke-linecap="round"/>
<path d="M7.41338 62.8024C7.83658 62.8823 7.40992 63.13 7.22144 63.2645C5.77356 64.298 4.31872 65.2823 3.1125 66.6107C0.0909758 69.9385 5.08269 69.8463 7.37673 70.2901C18.0922 72.3632 2.65558 80.7804 1.07786 75.2285" stroke="black" stroke-width="2" stroke-linecap="round"/>
<path d="M14.9283 66.9908C14.8893 69.0213 15.8348 80.6325 20.1792 76.813C23.3586 74.0179 23.1884 68.9763 21.9338 65.3795" stroke="black" stroke-width="2" stroke-linecap="round"/>
<path d="M26.4609 67.5093C26.4493 70.3571 27.1066 78.8627 27.2344 76.0177" stroke="black" stroke-width="2" stroke-linecap="round"/>
<path d="M26.0767 67.4928C26.8547 65.9885 29.5954 64.5569 31.289 65.3088C33.7639 66.4077 28.8371 70.9747 27.8631 71.5531C27.7899 71.5966 26.3662 72.1815 26.5648 72.3507C27.5913 73.2258 29.2279 73.8097 30.3826 74.5336C31.2074 75.0506 37.6052 78.5125 34.1537 76.3292" stroke="black" stroke-width="2" stroke-linecap="round"/>
<path d="M36.1221 66.7876C37.1244 69.3182 38.0216 71.9003 39.0752 74.4096C39.7297 75.9686 40.1235 76.2991 40.6099 74.5427C41.208 72.3827 41.3951 68.801 42.6568 67.081" stroke="black" stroke-width="2" stroke-linecap="round"/>
<path d="M45.3812 66.4325C46.2776 66.2444 52.0546 64.328 51.5833 65.5555" stroke="black" stroke-width="2" stroke-linecap="round"/>
<path d="M45.7668 66.45C45.4905 67.6459 44.8089 75.9934 46.8961 76.0871C48.3348 76.1517 50.1204 74.8997 51.4827 74.4956C51.8668 74.3817 54.242 73.7636 53.9128 73.7488" stroke="black" stroke-width="2" stroke-linecap="round"/>
<path d="M46.3111 71.4816C44.7243 71.1433 49.4195 70.5471 50.9928 70.1511" stroke="black" stroke-width="2" stroke-linecap="round"/>
<path d="M54.7973 62.6184C53.6955 65.3151 57.7372 67.926 59.9717 67.4728" stroke="black" stroke-width="2" stroke-linecap="round"/>
<path d="M64.4069 63.0506C63.2117 62.4413 60.7903 65.8217 60.0991 66.5377C59.053 67.6211 57.5171 68.3142 59.2285 66.8624C60.147 66.0833 61.1033 75.5725 61.4473 77.0192C61.97 79.2178 62.0277 78.4887 61.8636 76.8026" stroke="black" stroke-width="2" stroke-linecap="round"/>
<path d="M7.04466 97.4428C9.71753 95.8808 6.00329 96.9108 5.05142 97.2894C3.68291 97.8338 -0.891338 100.056 1.98591 101.625C3.39092 102.392 10.2548 104.017 8.80114 106.548C7.34738 109.08 3.22107 107.653 1.12364 107.071" stroke="black" stroke-width="2" stroke-linecap="round"/>
<path d="M19.3055 96.0449C18.5435 95.1476 16.5958 95.596 15.7899 96.1785C13.6615 97.7171 13.4545 102.107 13.6378 104.466C14.1397 110.927 19.914 107.263 22.7019 104.629" stroke="black" stroke-width="2" stroke-linecap="round"/>
<path d="M25.0557 94.4453C25.4192 97.4571 25.7199 100.4 25.7416 103.516C25.7494 104.642 25.5242 108.942 26.1151 105.976" stroke="black" stroke-width="2" stroke-linecap="round"/>
<path d="M25.013 100.576C26.2302 96.8972 29.2437 94.0454 33.1941 93.4184C37.646 92.7118 31.1755 99.4253 30.0441 100.151C29.1712 100.711 28.0819 101.308 26.9977 101.301C26.4752 101.297 26.317 100.823 26.3377 100.836C29.623 102.927 32.5962 105.568 35.7882 107.804C36.9814 108.64 36.0075 107.977 35.7454 107.804" stroke="black" stroke-width="2" stroke-linecap="round"/>
<path d="M37.5903 96.816C39.51 96.4029 41.3615 95.8175 43.2231 95.0479C44.1721 94.6555 44.4551 94.1276 44.4469 95.2898" stroke="black" stroke-width="2" stroke-linecap="round"/>
<path d="M38.3719 96.8219C37.5269 98.0989 36.7704 105.854 39.1865 105.955C40.4744 106.009 45.8105 103.966 45.5162 103.828" stroke="black" stroke-width="2" stroke-linecap="round"/>
<path d="M38.6909 102.529C40.5295 101.69 42.3929 100.553 44.4116 100.287" stroke="black" stroke-width="2" stroke-linecap="round"/>
<path d="M49.0063 96.8981C48.7923 96.11 53.9243 94.4756 54.7201 94.6716" stroke="black" stroke-width="2" stroke-linecap="round"/>
<path d="M49.5264 95.7605C48.9463 97.3681 48.3363 107.643 50.364 107.159C52.1442 106.733 53.8627 106.013 55.6178 105.498C56.4375 105.258 57.5081 105.197 58.0727 104.648" stroke="black" stroke-width="2" stroke-linecap="round"/>
<path d="M50.1081 101.469L56.9617 100.377" stroke="black" stroke-width="2" stroke-linecap="round"/>
<path d="M62.7151 93.5706C61.1589 96.6785 61.4425 100.803 61.8646 104.065C62.0431 105.444 62.0994 107.458 62.1178 104.856" stroke="black" stroke-width="2" stroke-linecap="round"/>
<path d="M62.7376 94.8611C62.6647 94.3016 62.7289 95.4823 62.8106 95.6803C63.6185 97.6379 64.8028 99.4962 65.8035 101.35C66.0283 101.767 68.3267 106.611 68.3418 104.479" stroke="black" stroke-width="2" stroke-linecap="round"/>
<path d="M68.4277 92.4707C68.4277 92.4707 68.3593 102.147 68.3514 103.258C68.3304 106.228 68.3393 104.968 68.3535 102.967" stroke="black" stroke-width="2" stroke-linecap="round"/>
<path d="M78.0944 92.7446C75.7001 92.0621 74.3617 93.0759 72.6533 94.6531C70.0053 97.0978 74.397 98.0141 76.2076 98.9459C82.2637 102.063 75.3472 107.684 72.9135 103.682" stroke="black" stroke-width="2" stroke-linecap="round"/>
</svg>
