<svg width="19" height="19" viewBox="0 0 19 19" fill="none" xmlns="http://www.w3.org/2000/svg">
<path d="M7.60566 7.01743C9.21339 6.79676 11.5146 6.51106 10.3634 8.89769C9.42828 10.8363 7.55041 11.3594 6.39393 12.8463C5.91576 13.461 9.29661 13.7446 9.48593 13.7446C11.1423 13.7446 12.7721 13.3904 14.3746 13.0343" stroke="black" stroke-width="2" stroke-linecap="round"/>
<path d="M4.97327 1C2.62705 4.46348 -0.689444 10.1038 2.00663 14.2037C5.15251 18.9875 13.0241 18.2623 16.3802 14.2246C19.3215 10.6858 17.2824 5.25341 13.4136 3.319C11.1865 2.20546 8.42781 2.10583 6.01787 2.546C3.31942 3.03886 2.95669 4.02337 1.58879 5.8887" stroke="black" stroke-width="2" stroke-linecap="round"/>
</svg>
