<svg width="76" height="58" viewBox="0 0 76 58" fill="none" xmlns="http://www.w3.org/2000/svg">
<path d="M3.05762 2.10352C2.93923 3.63576 2.91956 5.16087 2.96772 6.69669C3.05659 9.53061 3.00855 12.3566 2.98454 15.1908C2.96864 17.0677 2.89217 19.1243 3.37067 20.9605C3.46091 21.3068 3.66414 21.9631 3.8977 21.4515" stroke="black" stroke-width="2" stroke-linecap="round"/>
<path d="M3.51807 3.45691C5.44882 3.39873 11.8642 2.6472 10.0972 6.44503C9.05484 8.68526 6.84981 10.0513 4.73514 11.1488C3.96632 11.5477 3.11067 11.9627 2.23197 12.0457C1.97611 12.0699 1.56226 12.0452 1.33785 11.861C1.00217 11.5855 1.35302 11.652 1.17167 11.3306" stroke="black" stroke-width="2" stroke-linecap="round"/>
<path d="M12.2236 7.39551C12.6075 8.52312 12.4885 9.98167 12.5072 11.1537C12.5365 12.9935 12.4484 14.8331 12.3355 16.6688C12.2504 18.0511 12.1713 19.4427 11.9867 20.8163C11.9233 21.2883 11.8905 21.3156 11.8831 20.9" stroke="black" stroke-width="2" stroke-linecap="round"/>
<path d="M11.7945 10.4603C12.9171 8.40743 14.0985 6.75475 16.3698 5.92321C16.9341 5.7166 17.7467 5.43587 18.3595 5.60658C19.5475 5.93749 18.3892 7.75926 18.0817 8.25719C17.2639 9.5813 16.2328 10.8097 15.1488 11.9223C14.8014 12.2788 14.4378 12.62 14.0639 12.9486C13.6475 13.3147 12.4697 13.8358 12.9137 14.7425C13.2343 15.3975 13.8027 15.91 14.3474 16.3948C15.6744 17.5759 19.3193 20.105 20.7305 21.1117C21.2199 21.4608 22.8554 22.5601 23.5588 23.2195C23.7594 23.4076 23.5371 23.2678 23.5557 23.353" stroke="black" stroke-width="2" stroke-linecap="round"/>
<path d="M26.751 4.73682C26.4709 8.53421 26.2078 12.3545 26.2758 16.1651C26.2952 17.2527 26.1199 18.9152 26.7366 19.881" stroke="black" stroke-width="2" stroke-linecap="round"/>
<path d="M31.5186 5.14551C31.8024 9.16235 31.0904 13.0504 30.8036 17.0441C30.7402 17.9261 30.7074 18.8095 30.6597 19.6923C30.6499 19.8742 30.6695 18.8729 30.6715 18.6961" stroke="black" stroke-width="2" stroke-linecap="round"/>
<path d="M31.6104 5.25732C32.5816 6.99087 33.1975 8.85572 35.1605 9.68245C36.387 10.199 37.2443 9.31045 37.9896 8.44697" stroke="black" stroke-width="2" stroke-linecap="round"/>
<path d="M40.8876 3.84074C39.824 5.20361 38.8434 6.66591 37.9427 8.1398C37.48 8.89688 36.9968 9.66337 36.6024 10.4595C36.4932 10.68 36.5104 10.6845 36.6532 10.6098" stroke="black" stroke-width="2" stroke-linecap="round"/>
<path d="M41.041 3.35498C41.3846 4.16643 41.2967 5.31951 41.3635 6.17565C41.5819 8.97115 41.8637 11.7561 42.1741 14.5429C42.4231 16.7796 42.6484 19.0239 42.9386 21.2557C43.0338 21.9884 43.0598 21.7445 42.9433 21.2117" stroke="black" stroke-width="2" stroke-linecap="round"/>
<path d="M48.0767 3.20558C47.2912 7.37164 46.2122 11.4745 45.3556 15.6252C45.183 16.4621 44.9745 17.3143 44.8834 18.1659C44.8422 18.551 44.9936 17.8977 45.0092 17.8227" stroke="black" stroke-width="2" stroke-linecap="round"/>
<path d="M48.5088 3.854C49.338 4.95662 49.8096 6.16407 50.2627 7.46297C51.0445 9.70382 51.7807 11.9557 52.6035 14.1828C53.1128 15.5615 53.6051 16.9508 54.1509 18.3158C54.26 18.5886 54.4376 19.1458 54.6853 19.2589" stroke="black" stroke-width="2" stroke-linecap="round"/>
<path d="M45.428 14.8587L53.679 9.92338" stroke="black" stroke-width="2" stroke-linecap="round"/>
<path d="M56.7871 5.23926C56.9856 8.62019 57.5689 12.0051 58.1537 15.3376C58.4056 16.7731 58.4558 18.3995 59.0499 19.7242" stroke="black" stroke-width="2" stroke-linecap="round"/>
<path d="M57.422 9.61932C57.6205 8.17775 58.9909 6.61345 60.1156 5.7949C60.5993 5.44291 62.9721 4.0712 63.349 5.26019C63.7898 6.6503 61.9634 8.43378 61.1262 9.26867C59.9683 10.4232 58.5655 11.5657 57.0818 12.28C56.9548 12.3411 56.4538 12.6014 56.2689 12.4828C56.1817 12.427 56.438 12.3423 56.5411 12.3336C57.7736 12.2299 59.0342 13.0547 60.0599 13.6126C62.36 14.8637 64.6351 16.1752 66.9154 17.455" stroke="black" stroke-width="2" stroke-linecap="round"/>
<path d="M66.1426 1.2251C67.0346 2.60641 67.6805 4.35184 68.921 5.46741C69.721 6.18689 70.4149 6.06483 71.3605 5.89542" stroke="black" stroke-width="2" stroke-linecap="round"/>
<path d="M74.4392 1.50895C74.6618 1.41149 74.2724 1.97394 74.1237 2.16619C73.4228 3.07268 72.5632 3.88984 71.7675 4.7116C70.9948 5.50955 70.1939 6.2787 69.4246 7.08011C69.259 7.25264 69.0379 7.51354 69.22 7.16968" stroke="black" stroke-width="2" stroke-linecap="round"/>
<path d="M70.0416 6.05457C69.8511 6.0342 69.9037 6.01504 69.9851 6.16555C70.5564 7.22196 70.7509 8.57632 70.9746 9.7318C71.5882 12.9009 72.0478 16.091 72.7322 19.2479C72.846 19.773 72.896 20.7376 73.2359 21.2075C73.3955 21.428 73.4628 20.8957 73.4731 20.8651" stroke="black" stroke-width="2" stroke-linecap="round"/>
<path d="M2 37.3618C2.6371 38.0635 2.64803 39.7001 2.73315 40.5661C3.02845 43.5702 3.07019 46.6414 2.9002 49.6541C2.78606 51.677 2.5251 53.6869 2.37122 55.7066C2.28266 56.8688 2.2293 56.2667 2.16705 55.5754" stroke="black" stroke-width="2" stroke-linecap="round"/>
<path d="M1.70506 41.1841C2.55308 40.9398 4.49695 40.241 5.54371 40.3799C6.98846 40.5717 6.14345 42.1746 5.74935 42.7732C4.88931 44.0797 3.53426 45.1768 2.27302 46.1047C2.02179 46.2895 1.02444 46.8835 1.96945 46.4876C3.63497 45.7898 5.30491 45.2372 7.1105 45.0038C8.30392 44.8495 10.9272 44.4001 11.7913 45.6069C12.6369 46.7878 10.686 48.8947 9.9797 49.6372C8.35459 51.3455 6.25173 52.8551 4.07484 53.8206C3.36714 54.1345 2.35383 54.558 1.55817 54.261C0.798274 53.9774 1.1655 53.4517 1 52.9016" stroke="black" stroke-width="2" stroke-linecap="round"/>
<path d="M15 39.3618C16.4101 43.3082 16.0192 47.373 15.6764 51.3419C15.5473 52.8364 15.5394 54.3309 15.4259 55.8251C15.3175 57.2509 15.0452 55.4173 15 55.1281" stroke="black" stroke-width="2" stroke-linecap="round"/>
<path d="M14 46.6981C15.3124 45.5085 16.5855 44.2726 17.9373 43.1292C18.0306 43.0503 21.1225 40.1139 22.4573 40.3787C23.7519 40.6355 21.4859 43.6472 21.3296 43.843C20.0776 45.4112 17.7485 47.7937 15.5975 48.0115C15.1652 48.0553 14.6867 47.0108 15.1464 47.5928C16.7696 49.6476 19.8423 50.9216 21.9592 52.5037C23.378 53.5639 24.4641 54.8788 25.6992 56.1297C26.4139 56.8536 25.6499 55.6748 25.5019 55.435" stroke="black" stroke-width="2" stroke-linecap="round"/>
<path d="M33 38.3618C32.4323 41.7559 31.5432 45.0692 30.873 48.4359C30.6014 49.8003 30.4165 52.39 30 53.3618" stroke="black" stroke-width="2" stroke-linecap="round"/>
<path d="M34 39.3618C34.832 43.2849 35.8876 46.8952 37.4284 50.5922C37.8949 51.7114 38.6262 53.3618 36.9804 53.3618" stroke="black" stroke-width="2" stroke-linecap="round"/>
<path d="M31.0034 49.3618C30.9095 48.7228 32.8132 47.8374 33.1165 47.729C34.4423 47.2554 35.6591 47.3132 37 47.4958" stroke="black" stroke-width="2" stroke-linecap="round"/>
<path d="M41.1361 40.3618C41.1361 44.0348 40.7686 47.7323 41.2413 51.4024C41.2517 51.4833 41.3586 53.3341 41.9773 53.3618C42.1093 53.3677 41.6238 51.772 41.6093 51.7227" stroke="black" stroke-width="2" stroke-linecap="round"/>
<path d="M41 42.3649C41.5722 42.2772 42.8085 44.0722 43.0279 44.3381C44.3708 45.9649 45.4987 47.728 46.8595 49.3428C47.3914 49.9739 48.0073 50.8813 48.7607 51.3249C49.3098 51.6482 48.7454 49.7439 48.7217 49.6298" stroke="black" stroke-width="2" stroke-linecap="round"/>
<path d="M47 39.3618C47.8612 40.181 47.8755 42.1565 48.0495 43.1016C48.4161 45.0938 48.6368 47.0962 48.8429 49.1008C48.8623 49.2893 49.1864 52.4999 48.8429 50.9317" stroke="black" stroke-width="2" stroke-linecap="round"/>
<path d="M54 38.3618C54.1083 41.8412 54.2582 45.3441 54.5969 48.7958C54.705 49.898 54.7913 51.0233 54.955 52.1132C55.0526 52.7628 54.9621 51.9421 54.955 51.8723" stroke="black" stroke-width="2" stroke-linecap="round"/>
<path d="M53 39.3618C55.888 40.6345 61.7382 40.9464 62.8608 44.6991C63.5157 46.8883 61.7202 49.5281 60.3911 50.9962C59.4945 51.9866 58.3623 52.9265 57.0831 53.2617C55.6684 53.6324 55.3314 52.8828 54.1357 52.4937" stroke="black" stroke-width="2" stroke-linecap="round"/>
</svg>
