<svg width="172" height="30" viewBox="0 0 172 30" fill="none" xmlns="http://www.w3.org/2000/svg">
<path d="M12.0643 6C9.91598 6.93595 7.92575 8.40039 6.03262 10.1556C4.86555 11.2376 -1.16932 16.7402 1.82446 18.2921C4.97658 19.926 9.15219 19.0268 12.4851 20.1079C18.4452 22.0413 4.92472 27.7069 4.48963 28" stroke="black" stroke-width="2" stroke-linecap="round"/>
<path d="M17 11C18.1313 9.8345 21.2916 10.2069 22.8095 9.78992C23.6713 9.55318 25 8.55248 25 9.23394" stroke="black" stroke-width="2" stroke-linecap="round"/>
<path d="M20.8337 10C19.5281 13.4435 19.2898 26.8499 23.6248 28.785C25.5757 29.6558 28.3025 27.6553 29.9559 26.8167C30.5546 26.513 33.3037 24.8443 31.2494 25.539" stroke="black" stroke-width="2" stroke-linecap="round"/>
<path d="M21 22C21.8835 20.9082 26.7063 15.8965 28 17.2213" stroke="black" stroke-width="2" stroke-linecap="round"/>
<path d="M34.2483 8C34.2483 12.5192 32.8073 20.9163 36.8681 24.3763C40.213 27.2264 41.6743 19.4808 42 17.785" stroke="black" stroke-width="2" stroke-linecap="round"/>
<path d="M43 7C44.9848 6.32492 50.3307 3.21055 52 4.18836" stroke="black" stroke-width="2" stroke-linecap="round"/>
<path d="M45.2334 7C43.8962 8.57194 48.7796 27.3094 47.8912 26.9961" stroke="black" stroke-width="2" stroke-linecap="round"/>
<path d="M46 18C47.213 17.7447 54.4057 16.5801 53.982 17.1598" stroke="black" stroke-width="2" stroke-linecap="round"/>
<path d="M83.5485 6.17229C83.801 5.2886 76.157 8.63878 75.2195 9.64565C72.3639 12.7128 79.2878 14.9976 81.1384 15.8835C90.9758 20.5929 77.8661 24.6733 72.7031 24.6733" stroke="black" stroke-width="2" stroke-linecap="round"/>
<path d="M91.8418 9.3623C91.944 13.2462 92.7152 16.9424 94.4291 20.4558C96.3244 24.3412 99.0637 23.5871 99.8518 19.428C100.348 16.8082 100.156 12.9309 99.1784 10.3901C98.6174 8.9315 99.2785 10.8384 99.4974 11.2762" stroke="black" stroke-width="2" stroke-linecap="round"/>
<path d="M105.239 6.17188C106.705 10.5677 107.026 16.4082 107.649 21.0577C108.248 25.5236 108.06 23.4324 107.791 20.2071" stroke="black" stroke-width="2" stroke-linecap="round"/>
<path d="M103.963 6.17206C104.528 3.62895 116.33 6.66123 116.651 9.14922C117.053 12.2591 112.999 15.5124 110.626 16.7339C108.921 17.6116 108.311 17.2525 109.067 15.7415" stroke="black" stroke-width="2" stroke-linecap="round"/>
<path d="M119.912 4.89648C118.216 10.9532 120.182 18.7379 121.046 24.886C121.519 28.2492 120.094 22.1514 119.912 21.4836" stroke="black" stroke-width="2" stroke-linecap="round"/>
<path d="M119.912 6.81043C123.119 3.1448 128.686 6.36576 126.504 11.1344C125.74 12.8057 119.041 20.3296 119.912 15.104" stroke="black" stroke-width="2" stroke-linecap="round"/>
<path d="M133.948 7.44774C127.291 10.1104 136.653 27.1405 139.512 15.7058C140.296 12.5705 138.398 7.90092 134.869 7.23509C132.499 6.78797 131.872 9.16935 133.948 9.9996" stroke="black" stroke-width="2" stroke-linecap="round"/>
<path d="M144.154 4.25879C144.913 8.80979 145.481 13.3486 145.926 17.9396C146.181 20.5616 146.068 16.7724 146.068 16.3801" stroke="black" stroke-width="2" stroke-linecap="round"/>
<path d="M144.154 7.4481C144.606 6.47014 150.032 1.62276 150.711 3.79753C151.874 7.51926 145.771 10.7644 144.58 13.5442C144.372 14.0296 146.865 14.4312 146.99 14.4657C150.15 15.3436 153.008 16.8015 155.779 18.5416C157.934 19.8948 160.941 22.4465 156.914 19.5694" stroke="black" stroke-width="2" stroke-linecap="round"/>
<path d="M153.725 6.17209C155.697 5.22622 170.661 0.370258 170.312 1.06837" stroke="black" stroke-width="2" stroke-linecap="round"/>
<path d="M162.656 2.98242C165.58 2.98242 165.291 11.5792 165.527 13.5443C165.878 16.4681 166.838 19.7562 166.838 22.6884C166.838 23.7794 166.06 20.6393 165.846 19.5695" stroke="black" stroke-width="2" stroke-linecap="round"/>
</svg>
