<svg width="104" height="22" viewBox="0 0 104 22" fill="none" xmlns="http://www.w3.org/2000/svg">
<path d="M1.66 19.28C1.51067 19.2613 1.36133 19.224 1.212 19.168C1.06267 19.1307 0.932 19.0653 0.82 18.972C0.801333 18.9347 0.773333 18.9067 0.736 18.888C0.698667 18.8507 0.670667 18.8227 0.652 18.804C0.577333 18.692 0.512 18.5707 0.456 18.44C0.4 18.3093 0.362667 18.1787 0.344 18.048C0.325333 17.768 0.353333 17.488 0.428 17.208C0.521333 16.9093 0.586667 16.6107 0.624 16.312C0.661333 15.9947 0.68 15.6773 0.68 15.36C0.698667 14.9867 0.708 14.6133 0.708 14.24C0.708 13.8667 0.708 13.5027 0.708 13.148C0.708 13.0547 0.698667 12.9613 0.68 12.868C0.68 12.756 0.670667 12.6533 0.652 12.56C0.633333 12.4667 0.624 12.364 0.624 12.252C0.624 12.14 0.624 12.0373 0.624 11.944C0.624 11.8507 0.614667 11.7573 0.596 11.664C0.596 11.552 0.586667 11.4493 0.568 11.356C0.549333 11.2813 0.54 11.2067 0.54 11.132C0.558667 11.0573 0.558667 10.9827 0.54 10.908C0.54 10.7773 0.54 10.6467 0.54 10.516C0.54 10.3853 0.530667 10.2547 0.512 10.124C0.493333 10.1053 0.484 10.068 0.484 10.012V8.5C0.465333 8.40667 0.456 8.32267 0.456 8.248C0.456 8.15467 0.456 8.06133 0.456 7.968C0.474667 7.912 0.484 7.828 0.484 7.716V7.38C0.484 7.268 0.474667 7.16533 0.456 7.072C0.456 6.96 0.465333 6.848 0.484 6.736V6.596C0.465333 6.44667 0.456 6.30667 0.456 6.176C0.474667 6.02667 0.493333 5.88667 0.512 5.756C0.530667 5.68133 0.54 5.56 0.54 5.392C0.502667 5.28 0.484 5.196 0.484 5.14C0.465333 5.04667 0.446667 4.96267 0.428 4.888C0.428 4.79467 0.437333 4.71067 0.456 4.636C0.474667 4.468 0.437333 4.29067 0.344 4.104C0.288 4.02933 0.241333 3.95467 0.204 3.88C0.185333 3.78667 0.157333 3.70267 0.12 3.628V3.544C0.157333 3.50667 0.194667 3.50667 0.232 3.544C0.288 3.56267 0.316 3.55333 0.316 3.516C0.334667 3.47867 0.344 3.44133 0.344 3.404C0.344 3.348 0.353333 3.31067 0.372 3.292C0.390667 3.236 0.381333 3.16133 0.344 3.068C0.325333 3.012 0.353333 2.97467 0.428 2.956C0.465333 2.88133 0.530667 2.83467 0.624 2.816C0.717333 2.77867 0.773333 2.75067 0.792 2.732C0.848 2.65733 0.913333 2.62 0.988 2.62C1.06267 2.62 1.13733 2.62 1.212 2.62C1.268 2.62 1.352 2.60133 1.464 2.564C1.53867 2.54533 1.61333 2.54533 1.688 2.564C1.72533 2.58267 1.76267 2.61067 1.8 2.648C1.83733 2.66667 1.87467 2.68533 1.912 2.704C2.09867 2.77867 2.25733 2.928 2.388 3.152C2.42533 3.24533 2.46267 3.33867 2.5 3.432C2.53733 3.52533 2.54667 3.628 2.528 3.74C2.528 3.796 2.56533 3.824 2.64 3.824H2.864C2.95733 3.78667 3.05067 3.768 3.144 3.768C3.256 3.768 3.34933 3.768 3.424 3.768H4.152C4.35733 3.74933 4.56267 3.75867 4.768 3.796C4.992 3.81467 5.20667 3.84267 5.412 3.88C6.028 3.95467 6.616 4.09467 7.176 4.3C7.792 4.48667 8.37067 4.79467 8.912 5.224C9.11733 5.37333 9.34133 5.588 9.584 5.868C9.65867 5.94267 9.724 6.02667 9.78 6.12C9.85467 6.19467 9.92 6.27867 9.976 6.372C10.1813 6.68933 10.284 7.016 10.284 7.352C10.3213 7.576 10.3213 7.79067 10.284 7.996C10.284 8.164 10.2467 8.31333 10.172 8.444C10.172 8.444 10.1627 8.45333 10.144 8.472C10.144 8.472 10.144 8.48133 10.144 8.5C10.1067 8.556 10.0787 8.62133 10.06 8.696C10.06 8.77067 10.032 8.82667 9.976 8.864L9.724 9.172C9.63067 9.284 9.528 9.40533 9.416 9.536C9.32267 9.648 9.21067 9.75067 9.08 9.844L8.8 10.04C8.744 10.0587 8.688 10.0867 8.632 10.124C8.576 10.1613 8.52933 10.208 8.492 10.264C8.436 10.32 8.37067 10.3667 8.296 10.404C8.22133 10.46 8.13733 10.516 8.044 10.572C7.96933 10.6093 7.88533 10.6467 7.792 10.684C7.69867 10.7213 7.69867 10.768 7.792 10.824L7.988 10.908C8.08133 10.964 8.184 11.02 8.296 11.076C8.408 11.1133 8.51067 11.16 8.604 11.216C8.75333 11.2907 8.90267 11.384 9.052 11.496C9.22 11.5893 9.36933 11.6827 9.5 11.776L9.836 12.084C9.92933 12.1773 10.0133 12.28 10.088 12.392C10.1813 12.4853 10.2653 12.588 10.34 12.7C10.4893 12.8867 10.6107 13.092 10.704 13.316C10.816 13.54 10.8907 13.7733 10.928 14.016C10.9653 14.1467 10.984 14.2867 10.984 14.436C10.984 14.5667 10.9653 14.7067 10.928 14.856C10.8907 15.0053 10.9 15.1453 10.956 15.276C10.9747 15.332 10.9653 15.4253 10.928 15.556L10.844 15.92C10.8067 16.032 10.76 16.1347 10.704 16.228C10.6667 16.3213 10.6013 16.4147 10.508 16.508L10.172 16.956C10.06 17.0867 9.93867 17.2173 9.808 17.348C9.696 17.4787 9.56533 17.5907 9.416 17.684L9.164 17.852C9.12667 17.852 9.07067 17.8707 8.996 17.908C8.17467 18.3373 7.32533 18.5613 6.448 18.58C6.35467 18.58 6.28 18.5893 6.224 18.608C6.056 18.6267 5.87867 18.6453 5.692 18.664C5.524 18.664 5.34667 18.664 5.16 18.664C5.01067 18.664 4.852 18.6827 4.684 18.72C4.53467 18.7387 4.38533 18.748 4.236 18.748C4.16133 18.7667 4.08667 18.7853 4.012 18.804C3.93733 18.804 3.86267 18.804 3.788 18.804C3.69467 18.8227 3.592 18.8413 3.48 18.86C3.38667 18.8787 3.29333 18.9067 3.2 18.944C3.144 18.9627 3.088 18.9813 3.032 19C2.99467 19.0187 2.948 19.0467 2.892 19.084C2.70533 19.2147 2.49067 19.28 2.248 19.28H1.66ZM2.892 9.956C2.96667 9.956 3.032 9.94667 3.088 9.928C3.16267 9.90933 3.228 9.89067 3.284 9.872C3.52667 9.77867 3.76 9.69467 3.984 9.62C4.208 9.52667 4.44133 9.44267 4.684 9.368C4.964 9.27467 5.244 9.172 5.524 9.06C5.804 8.92933 6.084 8.808 6.364 8.696C6.588 8.60267 6.80267 8.48133 7.008 8.332C7.232 8.18267 7.43733 8.03333 7.624 7.884C7.66133 7.86533 7.68933 7.84667 7.708 7.828C7.72667 7.79067 7.74533 7.76267 7.764 7.744C7.80133 7.688 7.80133 7.632 7.764 7.576L7.68 7.436C7.60533 7.38 7.54 7.324 7.484 7.268C7.428 7.212 7.35333 7.156 7.26 7.1C7.18533 7.06267 7.11067 7.016 7.036 6.96C6.96133 6.904 6.87733 6.85733 6.784 6.82L6.532 6.652C6.252 6.54 5.972 6.44667 5.692 6.372C5.412 6.29733 5.12267 6.26 4.824 6.26H3.872C3.72267 6.26 3.57333 6.26933 3.424 6.288C3.27467 6.30667 3.12533 6.33467 2.976 6.372C2.92 6.372 2.836 6.39067 2.724 6.428C2.612 6.44667 2.556 6.512 2.556 6.624V7.268C2.59333 7.45467 2.59333 7.65067 2.556 7.856V8.108C2.59333 8.22 2.612 8.34133 2.612 8.472C2.612 8.584 2.612 8.70533 2.612 8.836C2.63067 9.172 2.68667 9.52667 2.78 9.9C2.78 9.93733 2.81733 9.956 2.892 9.956ZM3.116 16.424H3.228C3.35867 16.4053 3.48933 16.396 3.62 16.396C3.75067 16.3773 3.88133 16.3587 4.012 16.34C4.236 16.3027 4.46 16.2653 4.684 16.228C4.92667 16.1907 5.16 16.1627 5.384 16.144C5.81333 16.1067 6.23333 16.0507 6.644 15.976C6.812 15.9387 6.97067 15.9013 7.12 15.864C7.288 15.8267 7.44667 15.7893 7.596 15.752C7.68933 15.7147 7.77333 15.6773 7.848 15.64C7.94133 15.584 8.02533 15.5373 8.1 15.5C8.36133 15.3133 8.51067 15.0333 8.548 14.66C8.56667 14.3053 8.436 14.016 8.156 13.792C8.11867 13.7547 8.044 13.6987 7.932 13.624C7.63333 13.4187 7.316 13.2507 6.98 13.12C6.644 12.9893 6.29867 12.8867 5.944 12.812C5.776 12.7747 5.608 12.7467 5.44 12.728C5.29067 12.6907 5.132 12.6813 4.964 12.7C4.88933 12.7 4.80533 12.7093 4.712 12.728C4.63733 12.728 4.56267 12.728 4.488 12.728C4.41333 12.728 4.33867 12.7373 4.264 12.756C4.18933 12.756 4.10533 12.756 4.012 12.756C3.91867 12.756 3.816 12.756 3.704 12.756C3.61067 12.756 3.51733 12.7653 3.424 12.784H3.172C3.07867 12.8213 3.032 12.8773 3.032 12.952C3.05067 13.1013 3.06 13.26 3.06 13.428C3.06 13.596 3.06 13.7547 3.06 13.904C3.06 13.9413 3.06 13.9787 3.06 14.016C3.07867 14.0533 3.088 14.0907 3.088 14.128V14.716C3.06933 14.828 3.06 14.94 3.06 15.052C3.06 15.164 3.06 15.2667 3.06 15.36C3.06 15.4907 3.06 15.6213 3.06 15.752C3.07867 15.864 3.06933 15.9853 3.032 16.116C3.01333 16.1533 3.004 16.2187 3.004 16.312C3.004 16.3493 3.04133 16.3867 3.116 16.424ZM24.8591 21.044C24.6911 21.044 24.5418 20.9787 24.4111 20.848C24.3738 20.792 24.3364 20.736 24.2991 20.68C24.2618 20.624 24.2244 20.568 24.1871 20.512C24.0191 20.12 23.9351 19.7093 23.9351 19.28L23.8511 18.608C23.7951 18.3467 23.7484 18.0853 23.7111 17.824C23.6738 17.5627 23.6084 17.3107 23.5151 17.068L23.3471 16.592C23.3471 16.5547 23.3378 16.5173 23.3191 16.48C23.3191 16.4427 23.3098 16.4053 23.2911 16.368L22.8711 14.884C22.8524 14.8467 22.8338 14.8 22.8151 14.744C22.8151 14.688 22.7964 14.6413 22.7591 14.604C22.7031 14.492 22.6564 14.38 22.6191 14.268C22.6004 14.1373 22.5724 14.0067 22.5351 13.876C22.5164 13.7827 22.4978 13.6987 22.4791 13.624C22.4604 13.5307 22.4324 13.4373 22.3951 13.344C22.3578 13.232 22.3204 13.1667 22.2831 13.148C22.2458 13.1107 22.1618 13.1107 22.0311 13.148C21.9378 13.1667 21.8351 13.1853 21.7231 13.204C21.6298 13.204 21.5364 13.2227 21.4431 13.26C21.3684 13.2787 21.2751 13.2973 21.1631 13.316C21.0698 13.316 20.9764 13.3253 20.8831 13.344L20.4911 13.428C20.3978 13.4467 20.2951 13.4747 20.1831 13.512C20.0898 13.5307 19.9964 13.54 19.9031 13.54L19.3991 13.624C19.2498 13.6613 19.0911 13.6987 18.9231 13.736C18.7551 13.7733 18.5964 13.8107 18.4471 13.848C17.9991 13.96 17.5511 14.044 17.1031 14.1C16.9538 14.1373 16.8698 14.2027 16.8511 14.296C16.8324 14.296 16.8231 14.3053 16.8231 14.324C16.7111 14.6227 16.5804 14.9213 16.4311 15.22C16.3004 15.5 16.1604 15.7893 16.0111 16.088C15.9738 16.1627 15.9364 16.2373 15.8991 16.312C15.8804 16.368 15.8524 16.4333 15.8151 16.508C15.7964 16.5453 15.7778 16.592 15.7591 16.648C15.7404 16.6853 15.7218 16.7227 15.7031 16.76C15.5911 16.8907 15.5351 17.0493 15.5351 17.236C15.5164 17.348 15.4791 17.46 15.4231 17.572C15.3671 17.6653 15.3111 17.7587 15.2551 17.852C15.2364 17.908 15.1991 17.936 15.1431 17.936C15.0684 17.9547 14.9938 17.9827 14.9191 18.02C14.8444 18.0573 14.7604 18.0947 14.6671 18.132C14.6111 18.1507 14.5551 18.1507 14.4991 18.132C14.4618 18.1133 14.4151 18.0947 14.3591 18.076C14.3218 18.0387 14.2844 18.02 14.2471 18.02C14.0418 18.0013 13.8924 17.88 13.7991 17.656C13.6498 17.3573 13.5471 17.0587 13.4911 16.76C13.4724 16.6853 13.4724 16.62 13.4911 16.564C13.5284 16.508 13.5564 16.452 13.5751 16.396C13.6871 16.3213 13.7524 16.2373 13.7711 16.144V16.116C13.7711 15.8733 13.8178 15.6493 13.9111 15.444C14.0231 15.22 14.1164 15.0053 14.1911 14.8C14.2284 14.688 14.2751 14.576 14.3311 14.464C14.3871 14.352 14.4431 14.24 14.4991 14.128C14.5738 13.9973 14.6298 13.876 14.6671 13.764C14.7231 13.6333 14.7698 13.5027 14.8071 13.372C14.8631 13.2227 14.8631 13.0827 14.8071 12.952C14.7698 12.84 14.7511 12.7373 14.7511 12.644C14.7511 12.532 14.7604 12.42 14.7791 12.308C14.7791 12.1027 14.8538 11.9253 15.0031 11.776C15.0778 11.6827 15.1524 11.608 15.2271 11.552C15.3204 11.4773 15.4044 11.4027 15.4791 11.328C15.6471 11.16 15.7778 10.936 15.8711 10.656C15.9458 10.4133 16.0018 10.1707 16.0391 9.928C16.0951 9.66667 16.1511 9.41467 16.2071 9.172C16.2444 8.92933 16.2818 8.696 16.3191 8.472C16.3751 8.22933 16.4311 7.996 16.4871 7.772C16.5058 7.67867 16.5244 7.59467 16.5431 7.52C16.5804 7.42667 16.6084 7.34267 16.6271 7.268C16.6831 7.11867 16.7391 6.97867 16.7951 6.848C16.8511 6.69867 16.8884 6.54933 16.9071 6.4C16.9444 6.32533 16.9444 6.26 16.9071 6.204C16.8884 6.11067 16.8884 6.02667 16.9071 5.952C16.9444 5.87733 16.9724 5.80267 16.9911 5.728C17.0471 5.59733 17.0844 5.46667 17.1031 5.336C17.1404 5.20533 17.1871 5.07467 17.2431 4.944C17.3364 4.70133 17.4111 4.50533 17.4671 4.356C17.5418 4.188 17.6071 4.00133 17.6631 3.796C17.7004 3.684 17.7378 3.58133 17.7751 3.488C17.8311 3.376 17.8684 3.264 17.8871 3.152C17.9431 2.984 17.9898 2.816 18.0271 2.648C18.0644 2.46133 18.0831 2.284 18.0831 2.116C18.1204 1.96667 18.1578 1.864 18.1951 1.808C18.2884 1.62133 18.4004 1.46267 18.5311 1.332C18.6804 1.20133 18.8204 1.07067 18.9511 0.939999C19.0444 0.884 19.1378 0.846666 19.2311 0.827999C19.3244 0.790666 19.4178 0.8 19.5111 0.856C19.5858 0.893333 19.6324 0.911999 19.6511 0.911999C19.8191 0.893333 19.9591 0.930666 20.0711 1.024C20.1831 1.11733 20.2764 1.22933 20.3511 1.36C20.3884 1.39733 20.4164 1.444 20.4351 1.5C20.4538 1.556 20.4724 1.60267 20.4911 1.64C20.5844 1.78933 20.6311 1.93867 20.6311 2.088C20.6311 2.16267 20.6404 2.24667 20.6591 2.34C20.6778 2.41467 20.6964 2.49867 20.7151 2.592C20.7711 2.704 20.8551 2.76 20.9671 2.76C20.9858 2.74133 21.0044 2.74133 21.0231 2.76C21.0418 2.77867 21.0511 2.79733 21.0511 2.816C21.1444 2.928 21.1724 3.04933 21.1351 3.18C21.0978 3.32933 21.0884 3.47867 21.1071 3.628C21.1444 3.75867 21.1818 3.89867 21.2191 4.048C21.2938 4.23467 21.3684 4.42133 21.4431 4.608C21.5178 4.79467 21.5924 4.98133 21.6671 5.168C21.7604 5.37333 21.8538 5.57867 21.9471 5.784C22.0404 5.98933 22.1244 6.19467 22.1991 6.4C22.2924 6.66133 22.3858 6.92267 22.4791 7.184C22.5911 7.44533 22.7124 7.70667 22.8431 7.968L22.9271 8.276C22.9458 8.35067 22.9644 8.42533 22.9831 8.5C23.0204 8.57467 23.0484 8.64933 23.0671 8.724C23.1044 8.78 23.1324 8.836 23.1511 8.892C23.1884 8.948 23.2258 8.99467 23.2631 9.032C23.3564 9.16267 23.4124 9.30267 23.4311 9.452C23.4871 9.63867 23.5711 9.80667 23.6831 9.956C23.7204 10.012 23.7764 10.04 23.8511 10.04C24.1311 10.0027 24.4111 9.97467 24.6911 9.956C24.9711 9.91867 25.2511 9.86267 25.5311 9.788C25.7364 9.732 25.9324 9.704 26.1191 9.704C26.4738 9.704 26.8004 9.82533 27.0991 10.068C27.4538 10.348 27.6404 10.7027 27.6591 11.132C27.6591 11.2253 27.6684 11.3 27.6871 11.356C27.6871 11.4867 27.6498 11.5893 27.5751 11.664C27.5564 11.72 27.5191 11.776 27.4631 11.832C27.4258 11.888 27.3884 11.944 27.3511 12C27.3138 12.0747 27.2764 12.1307 27.2391 12.168L27.0711 12.308C27.0524 12.3453 27.0244 12.392 26.9871 12.448C26.9498 12.4853 26.9031 12.5133 26.8471 12.532C26.7724 12.5507 26.6978 12.5787 26.6231 12.616C26.5484 12.6347 26.4644 12.644 26.3711 12.644C26.0351 12.6813 25.7364 12.672 25.4751 12.616H25.0271C24.9898 12.616 24.9338 12.6347 24.8591 12.672C24.7844 12.7093 24.7471 12.756 24.7471 12.812V12.924C24.8031 13.092 24.8404 13.2693 24.8591 13.456C24.8964 13.624 24.9524 13.7827 25.0271 13.932C25.0271 14.0067 25.0458 14.0813 25.0831 14.156C25.1764 14.324 25.2511 14.5013 25.3071 14.688C25.3631 14.856 25.4098 15.0333 25.4471 15.22C25.4471 15.2573 25.4658 15.332 25.5031 15.444C25.5591 15.5747 25.6058 15.7147 25.6431 15.864C25.6804 15.9947 25.7084 16.1347 25.7271 16.284C25.7271 16.396 25.7551 16.4987 25.8111 16.592C25.8858 16.76 25.9418 16.928 25.9791 17.096C26.0164 17.264 26.0444 17.4413 26.0631 17.628C26.0818 17.6467 26.0911 17.684 26.0911 17.74C26.0911 17.7773 26.1004 17.8147 26.1191 17.852C26.2124 18.0573 26.2778 18.2813 26.3151 18.524C26.3524 18.748 26.3991 18.972 26.4551 19.196C26.4924 19.308 26.5111 19.42 26.5111 19.532C26.5298 19.6627 26.5391 19.7933 26.5391 19.924C26.5391 20.0173 26.5111 20.12 26.4551 20.232C26.3991 20.288 26.3711 20.316 26.3711 20.316C26.2591 20.3347 26.1938 20.4 26.1751 20.512L26.0911 20.68C26.0538 20.7547 25.9978 20.8013 25.9231 20.82C25.8484 20.82 25.7831 20.848 25.7271 20.904C25.6524 20.9787 25.5498 21.016 25.4191 21.016C25.3444 21.016 25.2511 21.016 25.1391 21.016C25.0458 21.016 24.9524 21.0253 24.8591 21.044ZM18.1111 10.88C18.2231 10.8613 18.3351 10.8427 18.4471 10.824C18.5778 10.8053 18.7178 10.7867 18.8671 10.768C18.9604 10.7493 19.0818 10.7307 19.2311 10.712C19.3804 10.6933 19.5204 10.6747 19.6511 10.656C19.7818 10.6187 19.9124 10.6 20.0431 10.6C20.1738 10.5813 20.3044 10.5627 20.4351 10.544C20.5471 10.5067 20.6591 10.488 20.7711 10.488C20.8831 10.4693 20.9951 10.4507 21.1071 10.432C21.2751 10.3947 21.3404 10.3013 21.3031 10.152C21.2844 10.0027 21.2471 9.85333 21.1911 9.704C21.1538 9.536 21.0698 9.396 20.9391 9.284C20.9018 9.24667 20.8831 9.19067 20.8831 9.116V9.032C20.8458 8.88267 20.7991 8.74267 20.7431 8.612C20.7058 8.46267 20.6591 8.32267 20.6031 8.192C20.5658 8.04267 20.5191 7.912 20.4631 7.8C20.4258 7.66933 20.3791 7.53867 20.3231 7.408L19.9871 6.4C19.9311 6.26933 19.8751 6.13867 19.8191 6.008C19.7818 5.87733 19.7444 5.74667 19.7071 5.616L19.6231 5.504H19.5391L19.4831 5.588C19.3898 5.868 19.2778 6.148 19.1471 6.428C19.0351 6.708 18.9324 7.00667 18.8391 7.324C18.8391 7.36133 18.8298 7.408 18.8111 7.464C18.7924 7.52 18.7738 7.576 18.7551 7.632C18.6804 7.81867 18.6058 8.024 18.5311 8.248C18.4751 8.472 18.4284 8.696 18.3911 8.92C18.3724 9.05067 18.3538 9.18133 18.3351 9.312C18.3164 9.424 18.2884 9.54533 18.2511 9.676L17.9991 10.768C17.9804 10.7867 17.9898 10.8147 18.0271 10.852C18.0644 10.8707 18.0924 10.88 18.1111 10.88ZM32.3581 19.56C32.0034 19.5973 31.7141 19.4853 31.4901 19.224C31.3781 19.112 31.2754 18.9907 31.1821 18.86C31.0887 18.7293 31.0141 18.5893 30.9581 18.44C30.8647 18.1787 30.7807 17.9173 30.7061 17.656C30.6314 17.376 30.5661 17.1053 30.5101 16.844C30.4541 16.6387 30.4261 16.4427 30.4261 16.256C30.4074 16.0507 30.3794 15.8547 30.3421 15.668C30.3234 15.4627 30.3141 15.2573 30.3141 15.052C30.3141 14.94 30.3141 14.828 30.3141 14.716C30.3141 14.5853 30.3047 14.464 30.2861 14.352C30.2674 14.2773 30.2581 14.212 30.2581 14.156C30.2581 14.1 30.2581 14.0347 30.2581 13.96C30.2581 13.6987 30.2581 13.4373 30.2581 13.176C30.2581 12.896 30.2487 12.6253 30.2301 12.364C30.2301 12.2147 30.2207 12.084 30.2021 11.972C30.1834 11.8413 30.1461 11.7107 30.0901 11.58C30.0154 11.3747 30.0061 11.1507 30.0621 10.908C30.0621 10.852 30.0714 10.8147 30.0901 10.796C30.1274 10.6653 30.1461 10.5347 30.1461 10.404C30.1647 10.2733 30.1647 10.1427 30.1461 10.012C30.1274 9.91867 30.1181 9.82533 30.1181 9.732C30.1181 9.63867 30.1181 9.55467 30.1181 9.48C30.0994 9.27467 30.0901 9.06933 30.0901 8.864C30.1087 8.64 30.1274 8.42533 30.1461 8.22C30.1647 8.164 30.1741 8.108 30.1741 8.052C30.1741 7.996 30.1741 7.94 30.1741 7.884C30.1554 7.67867 30.1554 7.48267 30.1741 7.296C30.2114 7.10933 30.2394 6.92267 30.2581 6.736C30.2954 6.512 30.3327 6.29733 30.3701 6.092C30.4074 5.868 30.4541 5.644 30.5101 5.42C30.5474 5.32667 30.5661 5.224 30.5661 5.112C30.5661 5 30.5661 4.888 30.5661 4.776C30.5661 4.68267 30.5567 4.58933 30.5381 4.496C30.5381 4.40267 30.5381 4.31867 30.5381 4.244C30.5381 4.188 30.5381 4.132 30.5381 4.076C30.5381 4.02 30.5474 3.964 30.5661 3.908C30.5847 3.852 30.5941 3.796 30.5941 3.74C30.5941 3.684 30.6034 3.64667 30.6221 3.628C30.6781 3.55333 30.7247 3.488 30.7621 3.432C30.7994 3.35733 30.8554 3.292 30.9301 3.236C31.0234 3.18 31.1074 3.124 31.1821 3.068C31.2754 3.012 31.3594 2.96533 31.4341 2.928C31.5274 2.89067 31.6021 2.844 31.6581 2.788C31.7327 2.69467 31.8074 2.61067 31.8821 2.536C31.9754 2.44267 32.0501 2.34 32.1061 2.228C32.1994 2.13467 32.2927 2.032 32.3861 1.92C32.4981 1.78933 32.6194 1.68667 32.7501 1.612C32.7874 1.59333 32.8434 1.54667 32.9181 1.472C33.1421 1.26667 33.4034 1.136 33.7021 1.08C33.7581 1.06133 33.8047 1.052 33.8421 1.052C33.8981 1.03333 33.9541 1.024 34.0101 1.024L34.2061 0.939999C34.3554 0.884 34.4861 0.912 34.5981 1.024C34.6354 1.08 34.6821 1.136 34.7381 1.192C34.8127 1.22933 34.8781 1.26667 34.9341 1.304C35.0834 1.43467 35.2234 1.57467 35.3541 1.724C35.5034 1.87333 35.6341 2.04133 35.7461 2.228C35.9327 2.52667 36.0914 2.82533 36.2221 3.124C36.3714 3.42267 36.5114 3.73067 36.6421 4.048L37.1461 5.252C37.1647 5.364 37.2114 5.46667 37.2861 5.56C37.4354 5.84 37.5474 6.12933 37.6221 6.428C37.6967 6.708 37.7714 6.99733 37.8461 7.296C37.8647 7.33333 37.8741 7.37067 37.8741 7.408C37.8927 7.44533 37.9021 7.48267 37.9021 7.52C37.9394 7.66933 37.9674 7.828 37.9861 7.996C38.0234 8.14533 38.0327 8.29467 38.0141 8.444C38.0327 8.612 38.0234 8.78 37.9861 8.948C37.9674 9.09733 37.9394 9.24667 37.9021 9.396C37.8461 9.58267 37.7807 9.76 37.7061 9.928C37.6314 10.0773 37.5474 10.236 37.4541 10.404C37.4167 10.516 37.3514 10.6187 37.2581 10.712C37.1647 10.8053 37.0714 10.8893 36.9781 10.964C36.8287 11.0387 36.6794 11.1507 36.5301 11.3C36.4927 11.3373 36.4461 11.3653 36.3901 11.384C36.3527 11.4027 36.3154 11.4307 36.2781 11.468C36.1474 11.524 36.0074 11.5893 35.8581 11.664C35.7087 11.72 35.5594 11.776 35.4101 11.832C35.3914 11.832 35.3821 11.8507 35.3821 11.888C35.3821 11.9067 35.3914 11.9253 35.4101 11.944L36.1661 12.476C36.2594 12.532 36.3434 12.588 36.4181 12.644C36.4927 12.6813 36.5674 12.728 36.6421 12.784L36.8101 12.868C37.0341 12.9987 37.2581 13.1387 37.4821 13.288C37.7061 13.4373 37.9207 13.5867 38.1261 13.736C38.5181 13.9787 38.9101 14.2307 39.3021 14.492C39.6941 14.7347 40.0674 15.0053 40.4221 15.304C40.7394 15.5467 41.0194 15.8267 41.2621 16.144C41.3181 16.2 41.3741 16.2653 41.4301 16.34C41.4861 16.396 41.5514 16.4427 41.6261 16.48L41.7101 16.564C42.0087 16.8253 42.1767 17.18 42.2141 17.628C42.2141 17.684 42.2047 17.74 42.1861 17.796C42.1861 17.852 42.1861 17.908 42.1861 17.964C42.1861 18.076 42.1487 18.1693 42.0741 18.244C41.9994 18.2813 41.9621 18.328 41.9621 18.384C41.9061 18.5147 41.8221 18.608 41.7101 18.664C41.6167 18.7013 41.5234 18.7573 41.4301 18.832C41.3927 18.8507 41.3274 18.86 41.2341 18.86C41.1221 18.8413 41.0007 18.8227 40.8701 18.804C40.7581 18.7853 40.6461 18.776 40.5341 18.776C40.3847 18.776 40.2261 18.7107 40.0581 18.58C39.9461 18.4867 39.8434 18.4027 39.7501 18.328C39.6567 18.2347 39.5634 18.1227 39.4701 17.992C39.2274 17.656 38.9101 17.348 38.5181 17.068C38.3314 16.9187 38.1541 16.7787 37.9861 16.648C37.8181 16.5173 37.6314 16.396 37.4261 16.284C37.2954 16.2093 37.1647 16.1347 37.0341 16.06C36.9221 15.9667 36.7914 15.8827 36.6421 15.808C36.1754 15.4907 35.6994 15.1827 35.2141 14.884C34.7287 14.5667 34.2434 14.2493 33.7581 13.932C33.6834 13.876 33.5994 13.82 33.5061 13.764C33.4127 13.708 33.3194 13.652 33.2261 13.596C33.1887 13.5587 33.1327 13.5213 33.0581 13.484C32.9834 13.484 32.9461 13.512 32.9461 13.568C32.9461 13.5867 32.9367 13.6053 32.9181 13.624C32.9181 13.624 32.9181 13.6333 32.9181 13.652C32.9181 13.708 32.9181 13.764 32.9181 13.82C32.9181 13.876 32.9274 13.932 32.9461 13.988C32.9647 14.1373 32.9741 14.2867 32.9741 14.436C32.9741 14.5667 32.9741 14.7067 32.9741 14.856C32.9741 14.968 32.9741 15.08 32.9741 15.192C32.9927 15.2853 33.0114 15.388 33.0301 15.5C33.0301 15.556 33.0301 15.6213 33.0301 15.696C33.0487 15.752 33.0581 15.808 33.0581 15.864C33.0394 16.032 33.0487 16.2 33.0861 16.368C33.1234 16.536 33.1514 16.704 33.1701 16.872L33.3381 17.6C33.3567 17.6747 33.3754 17.7587 33.3941 17.852C33.4127 17.9267 33.4314 18.0107 33.4501 18.104C33.4687 18.1787 33.4687 18.2533 33.4501 18.328C33.4501 18.384 33.4407 18.4493 33.4221 18.524C33.4221 18.5427 33.4034 18.5707 33.3661 18.608C33.2727 18.6267 33.2074 18.692 33.1701 18.804C33.1141 18.9347 33.0301 19.0467 32.9181 19.14C32.8247 19.252 32.7221 19.3547 32.6101 19.448C32.5914 19.4667 32.5541 19.4853 32.4981 19.504C32.4421 19.5227 32.3954 19.5413 32.3581 19.56ZM33.4501 9.76H33.5061C33.7114 9.72267 33.9167 9.68533 34.1221 9.648C34.3461 9.592 34.5607 9.52667 34.7661 9.452C34.9714 9.396 35.1487 9.29333 35.2981 9.144C35.4287 9.01333 35.4941 8.864 35.4941 8.696C35.5127 8.56533 35.5127 8.444 35.4941 8.332C35.4941 8.20133 35.4754 8.07067 35.4381 7.94C35.3634 7.604 35.2794 7.27733 35.1861 6.96C35.0927 6.624 34.9807 6.30667 34.8501 6.008L34.5981 5.336C34.5421 5.14933 34.4767 4.972 34.4021 4.804C34.3274 4.61733 34.2434 4.44 34.1501 4.272C34.1314 4.23467 34.1127 4.19733 34.0941 4.16C34.0754 4.104 34.0567 4.05733 34.0381 4.02L33.9261 3.908C33.8701 3.83333 33.8047 3.83333 33.7301 3.908C33.7114 3.908 33.6834 3.92667 33.6461 3.964C33.5154 4.132 33.3941 4.30933 33.2821 4.496C33.1887 4.68267 33.1327 4.888 33.1141 5.112C33.0954 5.18667 33.0767 5.26133 33.0581 5.336C33.0581 5.41067 33.0581 5.49467 33.0581 5.588V6.792C33.0394 7.05333 33.0301 7.324 33.0301 7.604C33.0487 7.884 33.0394 8.15467 33.0021 8.416C32.9834 8.472 32.9741 8.528 32.9741 8.584C32.9927 8.64 33.0021 8.696 33.0021 8.752C33.0207 8.864 33.0301 8.976 33.0301 9.088C33.0301 9.18133 33.0301 9.284 33.0301 9.396C33.0301 9.58267 33.0487 9.69467 33.0861 9.732C33.1421 9.76933 33.2634 9.77867 33.4501 9.76ZM46.2577 19.28C46.1083 19.2613 45.959 19.224 45.8097 19.168C45.6603 19.1307 45.5297 19.0653 45.4177 18.972C45.399 18.9347 45.371 18.9067 45.3337 18.888C45.2963 18.8507 45.2683 18.8227 45.2497 18.804C45.175 18.692 45.1097 18.5707 45.0537 18.44C44.9977 18.3093 44.9603 18.1787 44.9417 18.048C44.923 17.768 44.951 17.488 45.0257 17.208C45.119 16.9093 45.1843 16.6107 45.2217 16.312C45.259 15.9947 45.2777 15.6773 45.2777 15.36C45.2963 14.9867 45.3057 14.6133 45.3057 14.24C45.3057 13.8667 45.3057 13.5027 45.3057 13.148C45.3057 13.0547 45.2963 12.9613 45.2777 12.868C45.2777 12.756 45.2683 12.6533 45.2497 12.56C45.231 12.4667 45.2217 12.364 45.2217 12.252C45.2217 12.14 45.2217 12.0373 45.2217 11.944C45.2217 11.8507 45.2123 11.7573 45.1937 11.664C45.1937 11.552 45.1843 11.4493 45.1657 11.356C45.147 11.2813 45.1377 11.2067 45.1377 11.132C45.1563 11.0573 45.1563 10.9827 45.1377 10.908C45.1377 10.7773 45.1377 10.6467 45.1377 10.516C45.1377 10.3853 45.1283 10.2547 45.1097 10.124C45.091 10.1053 45.0817 10.068 45.0817 10.012V8.5C45.063 8.40667 45.0537 8.32267 45.0537 8.248C45.0537 8.15467 45.0537 8.06133 45.0537 7.968C45.0723 7.912 45.0817 7.828 45.0817 7.716V7.38C45.0817 7.268 45.0723 7.16533 45.0537 7.072C45.0537 6.96 45.063 6.848 45.0817 6.736V6.596C45.063 6.44667 45.0537 6.30667 45.0537 6.176C45.0723 6.02667 45.091 5.88667 45.1097 5.756C45.1283 5.68133 45.1377 5.56 45.1377 5.392C45.1003 5.28 45.0817 5.196 45.0817 5.14C45.063 5.04667 45.0443 4.96267 45.0257 4.888C45.0257 4.79467 45.035 4.71067 45.0537 4.636C45.0723 4.468 45.035 4.29067 44.9417 4.104C44.8857 4.02933 44.839 3.95467 44.8017 3.88C44.783 3.78667 44.755 3.70267 44.7177 3.628V3.544C44.755 3.50667 44.7923 3.50667 44.8297 3.544C44.8857 3.56267 44.9137 3.55333 44.9137 3.516C44.9323 3.47867 44.9417 3.44133 44.9417 3.404C44.9417 3.348 44.951 3.31067 44.9697 3.292C44.9883 3.236 44.979 3.16133 44.9417 3.068C44.923 3.012 44.951 2.97467 45.0257 2.956C45.063 2.88133 45.1283 2.83467 45.2217 2.816C45.315 2.77867 45.371 2.75067 45.3897 2.732C45.4457 2.65733 45.511 2.62 45.5857 2.62C45.6603 2.62 45.735 2.62 45.8097 2.62C45.8657 2.62 45.9497 2.60133 46.0617 2.564C46.1363 2.54533 46.211 2.54533 46.2857 2.564C46.323 2.58267 46.3603 2.61067 46.3977 2.648C46.435 2.66667 46.4723 2.68533 46.5097 2.704C46.6963 2.77867 46.855 2.928 46.9857 3.152C47.023 3.24533 47.0603 3.33867 47.0977 3.432C47.135 3.52533 47.1443 3.628 47.1257 3.74C47.1257 3.796 47.163 3.824 47.2377 3.824H47.4617C47.555 3.78667 47.6483 3.768 47.7417 3.768C47.8537 3.768 47.947 3.768 48.0217 3.768H48.7497C48.955 3.74933 49.1603 3.75867 49.3657 3.796C49.5897 3.81467 49.8043 3.84267 50.0097 3.88C50.6257 3.95467 51.2137 4.09467 51.7737 4.3C52.3897 4.48667 52.9683 4.79467 53.5097 5.224C53.715 5.37333 53.939 5.588 54.1817 5.868C54.2563 5.94267 54.3217 6.02667 54.3777 6.12C54.4523 6.19467 54.5177 6.27867 54.5737 6.372C54.779 6.68933 54.8817 7.016 54.8817 7.352C54.919 7.576 54.919 7.79067 54.8817 7.996C54.8817 8.164 54.8443 8.31333 54.7697 8.444C54.7697 8.444 54.7603 8.45333 54.7417 8.472C54.7417 8.472 54.7417 8.48133 54.7417 8.5C54.7043 8.556 54.6763 8.62133 54.6577 8.696C54.6577 8.77067 54.6297 8.82667 54.5737 8.864L54.3217 9.172C54.2283 9.284 54.1257 9.40533 54.0137 9.536C53.9203 9.648 53.8083 9.75067 53.6777 9.844L53.3977 10.04C53.3417 10.0587 53.2857 10.0867 53.2297 10.124C53.1737 10.1613 53.127 10.208 53.0897 10.264C53.0337 10.32 52.9683 10.3667 52.8937 10.404C52.819 10.46 52.735 10.516 52.6417 10.572C52.567 10.6093 52.483 10.6467 52.3897 10.684C52.2963 10.7213 52.2963 10.768 52.3897 10.824L52.5857 10.908C52.679 10.964 52.7817 11.02 52.8937 11.076C53.0057 11.1133 53.1083 11.16 53.2017 11.216C53.351 11.2907 53.5003 11.384 53.6497 11.496C53.8177 11.5893 53.967 11.6827 54.0977 11.776L54.4337 12.084C54.527 12.1773 54.611 12.28 54.6857 12.392C54.779 12.4853 54.863 12.588 54.9377 12.7C55.087 12.8867 55.2083 13.092 55.3017 13.316C55.4137 13.54 55.4883 13.7733 55.5257 14.016C55.563 14.1467 55.5817 14.2867 55.5817 14.436C55.5817 14.5667 55.563 14.7067 55.5257 14.856C55.4883 15.0053 55.4977 15.1453 55.5537 15.276C55.5723 15.332 55.563 15.4253 55.5257 15.556L55.4417 15.92C55.4043 16.032 55.3577 16.1347 55.3017 16.228C55.2643 16.3213 55.199 16.4147 55.1057 16.508L54.7697 16.956C54.6577 17.0867 54.5363 17.2173 54.4057 17.348C54.2937 17.4787 54.163 17.5907 54.0137 17.684L53.7617 17.852C53.7243 17.852 53.6683 17.8707 53.5937 17.908C52.7723 18.3373 51.923 18.5613 51.0457 18.58C50.9523 18.58 50.8777 18.5893 50.8217 18.608C50.6537 18.6267 50.4763 18.6453 50.2897 18.664C50.1217 18.664 49.9443 18.664 49.7577 18.664C49.6083 18.664 49.4497 18.6827 49.2817 18.72C49.1323 18.7387 48.983 18.748 48.8337 18.748C48.759 18.7667 48.6843 18.7853 48.6097 18.804C48.535 18.804 48.4603 18.804 48.3857 18.804C48.2923 18.8227 48.1897 18.8413 48.0777 18.86C47.9843 18.8787 47.891 18.9067 47.7977 18.944C47.7417 18.9627 47.6857 18.9813 47.6297 19C47.5923 19.0187 47.5457 19.0467 47.4897 19.084C47.303 19.2147 47.0883 19.28 46.8457 19.28H46.2577ZM47.4897 9.956C47.5643 9.956 47.6297 9.94667 47.6857 9.928C47.7603 9.90933 47.8257 9.89067 47.8817 9.872C48.1243 9.77867 48.3577 9.69467 48.5817 9.62C48.8057 9.52667 49.039 9.44267 49.2817 9.368C49.5617 9.27467 49.8417 9.172 50.1217 9.06C50.4017 8.92933 50.6817 8.808 50.9617 8.696C51.1857 8.60267 51.4003 8.48133 51.6057 8.332C51.8297 8.18267 52.035 8.03333 52.2217 7.884C52.259 7.86533 52.287 7.84667 52.3057 7.828C52.3243 7.79067 52.343 7.76267 52.3617 7.744C52.399 7.688 52.399 7.632 52.3617 7.576L52.2777 7.436C52.203 7.38 52.1377 7.324 52.0817 7.268C52.0257 7.212 51.951 7.156 51.8577 7.1C51.783 7.06267 51.7083 7.016 51.6337 6.96C51.559 6.904 51.475 6.85733 51.3817 6.82L51.1297 6.652C50.8497 6.54 50.5697 6.44667 50.2897 6.372C50.0097 6.29733 49.7203 6.26 49.4217 6.26H48.4697C48.3203 6.26 48.171 6.26933 48.0217 6.288C47.8723 6.30667 47.723 6.33467 47.5737 6.372C47.5177 6.372 47.4337 6.39067 47.3217 6.428C47.2097 6.44667 47.1537 6.512 47.1537 6.624V7.268C47.191 7.45467 47.191 7.65067 47.1537 7.856V8.108C47.191 8.22 47.2097 8.34133 47.2097 8.472C47.2097 8.584 47.2097 8.70533 47.2097 8.836C47.2283 9.172 47.2843 9.52667 47.3777 9.9C47.3777 9.93733 47.415 9.956 47.4897 9.956ZM47.7137 16.424H47.8257C47.9563 16.4053 48.087 16.396 48.2177 16.396C48.3483 16.3773 48.479 16.3587 48.6097 16.34C48.8337 16.3027 49.0577 16.2653 49.2817 16.228C49.5243 16.1907 49.7577 16.1627 49.9817 16.144C50.411 16.1067 50.831 16.0507 51.2417 15.976C51.4097 15.9387 51.5683 15.9013 51.7177 15.864C51.8857 15.8267 52.0443 15.7893 52.1937 15.752C52.287 15.7147 52.371 15.6773 52.4457 15.64C52.539 15.584 52.623 15.5373 52.6977 15.5C52.959 15.3133 53.1083 15.0333 53.1457 14.66C53.1643 14.3053 53.0337 14.016 52.7537 13.792C52.7163 13.7547 52.6417 13.6987 52.5297 13.624C52.231 13.4187 51.9137 13.2507 51.5777 13.12C51.2417 12.9893 50.8963 12.8867 50.5417 12.812C50.3737 12.7747 50.2057 12.7467 50.0377 12.728C49.8883 12.6907 49.7297 12.6813 49.5617 12.7C49.487 12.7 49.403 12.7093 49.3097 12.728C49.235 12.728 49.1603 12.728 49.0857 12.728C49.011 12.728 48.9363 12.7373 48.8617 12.756C48.787 12.756 48.703 12.756 48.6097 12.756C48.5163 12.756 48.4137 12.756 48.3017 12.756C48.2083 12.756 48.115 12.7653 48.0217 12.784H47.7697C47.6763 12.8213 47.6297 12.8773 47.6297 12.952C47.6483 13.1013 47.6577 13.26 47.6577 13.428C47.6577 13.596 47.6577 13.7547 47.6577 13.904C47.6577 13.9413 47.6577 13.9787 47.6577 14.016C47.6763 14.0533 47.6857 14.0907 47.6857 14.128V14.716C47.667 14.828 47.6577 14.94 47.6577 15.052C47.6577 15.164 47.6577 15.2667 47.6577 15.36C47.6577 15.4907 47.6577 15.6213 47.6577 15.752C47.6763 15.864 47.667 15.9853 47.6297 16.116C47.611 16.1533 47.6017 16.2187 47.6017 16.312C47.6017 16.3493 47.639 16.3867 47.7137 16.424ZM69.4568 21.044C69.2888 21.044 69.1394 20.9787 69.0088 20.848C68.9714 20.792 68.9341 20.736 68.8968 20.68C68.8594 20.624 68.8221 20.568 68.7848 20.512C68.6168 20.12 68.5328 19.7093 68.5328 19.28L68.4488 18.608C68.3928 18.3467 68.3461 18.0853 68.3088 17.824C68.2714 17.5627 68.2061 17.3107 68.1128 17.068L67.9448 16.592C67.9448 16.5547 67.9354 16.5173 67.9168 16.48C67.9168 16.4427 67.9074 16.4053 67.8888 16.368L67.4688 14.884C67.4501 14.8467 67.4314 14.8 67.4128 14.744C67.4128 14.688 67.3941 14.6413 67.3568 14.604C67.3008 14.492 67.2541 14.38 67.2168 14.268C67.1981 14.1373 67.1701 14.0067 67.1328 13.876C67.1141 13.7827 67.0954 13.6987 67.0768 13.624C67.0581 13.5307 67.0301 13.4373 66.9928 13.344C66.9554 13.232 66.9181 13.1667 66.8808 13.148C66.8434 13.1107 66.7594 13.1107 66.6288 13.148C66.5354 13.1667 66.4328 13.1853 66.3208 13.204C66.2274 13.204 66.1341 13.2227 66.0408 13.26C65.9661 13.2787 65.8728 13.2973 65.7608 13.316C65.6674 13.316 65.5741 13.3253 65.4808 13.344L65.0888 13.428C64.9954 13.4467 64.8928 13.4747 64.7808 13.512C64.6874 13.5307 64.5941 13.54 64.5008 13.54L63.9968 13.624C63.8474 13.6613 63.6888 13.6987 63.5208 13.736C63.3528 13.7733 63.1941 13.8107 63.0448 13.848C62.5968 13.96 62.1488 14.044 61.7008 14.1C61.5514 14.1373 61.4674 14.2027 61.4488 14.296C61.4301 14.296 61.4208 14.3053 61.4208 14.324C61.3088 14.6227 61.1781 14.9213 61.0288 15.22C60.8981 15.5 60.7581 15.7893 60.6088 16.088C60.5714 16.1627 60.5341 16.2373 60.4968 16.312C60.4781 16.368 60.4501 16.4333 60.4128 16.508C60.3941 16.5453 60.3754 16.592 60.3568 16.648C60.3381 16.6853 60.3194 16.7227 60.3008 16.76C60.1888 16.8907 60.1328 17.0493 60.1328 17.236C60.1141 17.348 60.0768 17.46 60.0208 17.572C59.9648 17.6653 59.9088 17.7587 59.8528 17.852C59.8341 17.908 59.7968 17.936 59.7408 17.936C59.6661 17.9547 59.5914 17.9827 59.5168 18.02C59.4421 18.0573 59.3581 18.0947 59.2648 18.132C59.2088 18.1507 59.1528 18.1507 59.0968 18.132C59.0594 18.1133 59.0128 18.0947 58.9568 18.076C58.9194 18.0387 58.8821 18.02 58.8448 18.02C58.6394 18.0013 58.4901 17.88 58.3968 17.656C58.2474 17.3573 58.1448 17.0587 58.0888 16.76C58.0701 16.6853 58.0701 16.62 58.0888 16.564C58.1261 16.508 58.1541 16.452 58.1728 16.396C58.2848 16.3213 58.3501 16.2373 58.3688 16.144V16.116C58.3688 15.8733 58.4154 15.6493 58.5088 15.444C58.6208 15.22 58.7141 15.0053 58.7888 14.8C58.8261 14.688 58.8728 14.576 58.9288 14.464C58.9848 14.352 59.0408 14.24 59.0968 14.128C59.1714 13.9973 59.2274 13.876 59.2648 13.764C59.3208 13.6333 59.3674 13.5027 59.4048 13.372C59.4608 13.2227 59.4608 13.0827 59.4048 12.952C59.3674 12.84 59.3488 12.7373 59.3488 12.644C59.3488 12.532 59.3581 12.42 59.3768 12.308C59.3768 12.1027 59.4514 11.9253 59.6008 11.776C59.6754 11.6827 59.7501 11.608 59.8248 11.552C59.9181 11.4773 60.0021 11.4027 60.0768 11.328C60.2448 11.16 60.3754 10.936 60.4688 10.656C60.5434 10.4133 60.5994 10.1707 60.6368 9.928C60.6928 9.66667 60.7488 9.41467 60.8048 9.172C60.8421 8.92933 60.8794 8.696 60.9168 8.472C60.9728 8.22933 61.0288 7.996 61.0847 7.772C61.1034 7.67867 61.1221 7.59467 61.1408 7.52C61.1781 7.42667 61.2061 7.34267 61.2248 7.268C61.2808 7.11867 61.3368 6.97867 61.3928 6.848C61.4488 6.69867 61.4861 6.54933 61.5048 6.4C61.5421 6.32533 61.5421 6.26 61.5048 6.204C61.4861 6.11067 61.4861 6.02667 61.5048 5.952C61.5421 5.87733 61.5701 5.80267 61.5888 5.728C61.6448 5.59733 61.6821 5.46667 61.7008 5.336C61.7381 5.20533 61.7848 5.07467 61.8408 4.944C61.9341 4.70133 62.0088 4.50533 62.0648 4.356C62.1394 4.188 62.2048 4.00133 62.2608 3.796C62.2981 3.684 62.3354 3.58133 62.3728 3.488C62.4288 3.376 62.4661 3.264 62.4848 3.152C62.5408 2.984 62.5874 2.816 62.6248 2.648C62.6621 2.46133 62.6808 2.284 62.6808 2.116C62.7181 1.96667 62.7554 1.864 62.7928 1.808C62.8861 1.62133 62.9981 1.46267 63.1288 1.332C63.2781 1.20133 63.4181 1.07067 63.5488 0.939999C63.6421 0.884 63.7354 0.846666 63.8288 0.827999C63.9221 0.790666 64.0154 0.8 64.1088 0.856C64.1834 0.893333 64.2301 0.911999 64.2488 0.911999C64.4168 0.893333 64.5568 0.930666 64.6688 1.024C64.7808 1.11733 64.8741 1.22933 64.9488 1.36C64.9861 1.39733 65.0141 1.444 65.0328 1.5C65.0514 1.556 65.0701 1.60267 65.0888 1.64C65.1821 1.78933 65.2288 1.93867 65.2288 2.088C65.2288 2.16267 65.2381 2.24667 65.2568 2.34C65.2754 2.41467 65.2941 2.49867 65.3128 2.592C65.3688 2.704 65.4528 2.76 65.5648 2.76C65.5834 2.74133 65.6021 2.74133 65.6208 2.76C65.6394 2.77867 65.6488 2.79733 65.6488 2.816C65.7421 2.928 65.7701 3.04933 65.7328 3.18C65.6954 3.32933 65.6861 3.47867 65.7048 3.628C65.7421 3.75867 65.7794 3.89867 65.8168 4.048C65.8914 4.23467 65.9661 4.42133 66.0408 4.608C66.1154 4.79467 66.1901 4.98133 66.2648 5.168C66.3581 5.37333 66.4514 5.57867 66.5448 5.784C66.6381 5.98933 66.7221 6.19467 66.7968 6.4C66.8901 6.66133 66.9834 6.92267 67.0768 7.184C67.1888 7.44533 67.3101 7.70667 67.4408 7.968L67.5248 8.276C67.5434 8.35067 67.5621 8.42533 67.5808 8.5C67.6181 8.57467 67.6461 8.64933 67.6648 8.724C67.7021 8.78 67.7301 8.836 67.7488 8.892C67.7861 8.948 67.8234 8.99467 67.8608 9.032C67.9541 9.16267 68.0101 9.30267 68.0288 9.452C68.0848 9.63867 68.1688 9.80667 68.2808 9.956C68.3181 10.012 68.3741 10.04 68.4488 10.04C68.7288 10.0027 69.0088 9.97467 69.2888 9.956C69.5688 9.91867 69.8488 9.86267 70.1288 9.788C70.3341 9.732 70.5301 9.704 70.7168 9.704C71.0714 9.704 71.3981 9.82533 71.6968 10.068C72.0514 10.348 72.2381 10.7027 72.2568 11.132C72.2568 11.2253 72.2661 11.3 72.2848 11.356C72.2848 11.4867 72.2474 11.5893 72.1728 11.664C72.1541 11.72 72.1168 11.776 72.0608 11.832C72.0234 11.888 71.9861 11.944 71.9488 12C71.9114 12.0747 71.8741 12.1307 71.8368 12.168L71.6688 12.308C71.6501 12.3453 71.6221 12.392 71.5848 12.448C71.5474 12.4853 71.5008 12.5133 71.4448 12.532C71.3701 12.5507 71.2954 12.5787 71.2208 12.616C71.1461 12.6347 71.0621 12.644 70.9688 12.644C70.6328 12.6813 70.3341 12.672 70.0728 12.616H69.6248C69.5874 12.616 69.5314 12.6347 69.4568 12.672C69.3821 12.7093 69.3448 12.756 69.3448 12.812V12.924C69.4008 13.092 69.4381 13.2693 69.4568 13.456C69.4941 13.624 69.5501 13.7827 69.6248 13.932C69.6248 14.0067 69.6434 14.0813 69.6808 14.156C69.7741 14.324 69.8488 14.5013 69.9048 14.688C69.9608 14.856 70.0074 15.0333 70.0448 15.22C70.0448 15.2573 70.0634 15.332 70.1008 15.444C70.1568 15.5747 70.2034 15.7147 70.2408 15.864C70.2781 15.9947 70.3061 16.1347 70.3248 16.284C70.3248 16.396 70.3528 16.4987 70.4088 16.592C70.4834 16.76 70.5394 16.928 70.5768 17.096C70.6141 17.264 70.6421 17.4413 70.6608 17.628C70.6794 17.6467 70.6888 17.684 70.6888 17.74C70.6888 17.7773 70.6981 17.8147 70.7168 17.852C70.8101 18.0573 70.8754 18.2813 70.9128 18.524C70.9501 18.748 70.9968 18.972 71.0528 19.196C71.0901 19.308 71.1087 19.42 71.1087 19.532C71.1274 19.6627 71.1368 19.7933 71.1368 19.924C71.1368 20.0173 71.1088 20.12 71.0528 20.232C70.9968 20.288 70.9688 20.316 70.9688 20.316C70.8568 20.3347 70.7914 20.4 70.7728 20.512L70.6888 20.68C70.6514 20.7547 70.5954 20.8013 70.5208 20.82C70.4461 20.82 70.3808 20.848 70.3248 20.904C70.2501 20.9787 70.1474 21.016 70.0168 21.016C69.9421 21.016 69.8488 21.016 69.7368 21.016C69.6434 21.016 69.5501 21.0253 69.4568 21.044ZM62.7088 10.88C62.8208 10.8613 62.9328 10.8427 63.0448 10.824C63.1754 10.8053 63.3154 10.7867 63.4648 10.768C63.5581 10.7493 63.6794 10.7307 63.8288 10.712C63.9781 10.6933 64.1181 10.6747 64.2488 10.656C64.3794 10.6187 64.5101 10.6 64.6408 10.6C64.7714 10.5813 64.9021 10.5627 65.0328 10.544C65.1448 10.5067 65.2568 10.488 65.3688 10.488C65.4808 10.4693 65.5928 10.4507 65.7048 10.432C65.8728 10.3947 65.9381 10.3013 65.9008 10.152C65.8821 10.0027 65.8448 9.85333 65.7888 9.704C65.7514 9.536 65.6674 9.396 65.5368 9.284C65.4994 9.24667 65.4808 9.19067 65.4808 9.116V9.032C65.4434 8.88267 65.3968 8.74267 65.3408 8.612C65.3034 8.46267 65.2568 8.32267 65.2007 8.192C65.1634 8.04267 65.1168 7.912 65.0608 7.8C65.0234 7.66933 64.9768 7.53867 64.9208 7.408L64.5848 6.4C64.5288 6.26933 64.4728 6.13867 64.4168 6.008C64.3794 5.87733 64.3421 5.74667 64.3048 5.616L64.2208 5.504H64.1368L64.0808 5.588C63.9874 5.868 63.8754 6.148 63.7448 6.428C63.6328 6.708 63.5301 7.00667 63.4368 7.324C63.4368 7.36133 63.4274 7.408 63.4088 7.464C63.3901 7.52 63.3714 7.576 63.3528 7.632C63.2781 7.81867 63.2034 8.024 63.1288 8.248C63.0728 8.472 63.0261 8.696 62.9888 8.92C62.9701 9.05067 62.9514 9.18133 62.9328 9.312C62.9141 9.424 62.8861 9.54533 62.8488 9.676L62.5968 10.768C62.5781 10.7867 62.5874 10.8147 62.6248 10.852C62.6621 10.8707 62.6901 10.88 62.7088 10.88ZM76.9557 19.56C76.6011 19.5973 76.3117 19.4853 76.0877 19.224C75.9757 19.112 75.8731 18.9907 75.7797 18.86C75.6864 18.7293 75.6117 18.5893 75.5557 18.44C75.4624 18.1787 75.3784 17.9173 75.3037 17.656C75.2291 17.376 75.1637 17.1053 75.1077 16.844C75.0517 16.6387 75.0237 16.4427 75.0237 16.256C75.0051 16.0507 74.9771 15.8547 74.9397 15.668C74.9211 15.4627 74.9117 15.2573 74.9117 15.052C74.9117 14.94 74.9117 14.828 74.9117 14.716C74.9117 14.5853 74.9024 14.464 74.8837 14.352C74.8651 14.2773 74.8557 14.212 74.8557 14.156C74.8557 14.1 74.8557 14.0347 74.8557 13.96C74.8557 13.6987 74.8557 13.4373 74.8557 13.176C74.8557 12.896 74.8464 12.6253 74.8277 12.364C74.8277 12.2147 74.8184 12.084 74.7997 11.972C74.7811 11.8413 74.7437 11.7107 74.6877 11.58C74.6131 11.3747 74.6037 11.1507 74.6597 10.908C74.6597 10.852 74.6691 10.8147 74.6877 10.796C74.7251 10.6653 74.7437 10.5347 74.7437 10.404C74.7624 10.2733 74.7624 10.1427 74.7437 10.012C74.7251 9.91867 74.7157 9.82533 74.7157 9.732C74.7157 9.63867 74.7157 9.55467 74.7157 9.48C74.6971 9.27467 74.6877 9.06933 74.6877 8.864C74.7064 8.64 74.7251 8.42533 74.7437 8.22C74.7624 8.164 74.7717 8.108 74.7717 8.052C74.7717 7.996 74.7717 7.94 74.7717 7.884C74.7531 7.67867 74.7531 7.48267 74.7717 7.296C74.8091 7.10933 74.8371 6.92267 74.8557 6.736C74.8931 6.512 74.9304 6.29733 74.9677 6.092C75.0051 5.868 75.0517 5.644 75.1077 5.42C75.1451 5.32667 75.1637 5.224 75.1637 5.112C75.1637 5 75.1637 4.888 75.1637 4.776C75.1637 4.68267 75.1544 4.58933 75.1357 4.496C75.1357 4.40267 75.1357 4.31867 75.1357 4.244C75.1357 4.188 75.1357 4.132 75.1357 4.076C75.1357 4.02 75.1451 3.964 75.1637 3.908C75.1824 3.852 75.1917 3.796 75.1917 3.74C75.1917 3.684 75.2011 3.64667 75.2197 3.628C75.2757 3.55333 75.3224 3.488 75.3597 3.432C75.3971 3.35733 75.4531 3.292 75.5277 3.236C75.6211 3.18 75.7051 3.124 75.7797 3.068C75.8731 3.012 75.9571 2.96533 76.0317 2.928C76.1251 2.89067 76.1997 2.844 76.2557 2.788C76.3304 2.69467 76.4051 2.61067 76.4797 2.536C76.5731 2.44267 76.6477 2.34 76.7037 2.228C76.7971 2.13467 76.8904 2.032 76.9837 1.92C77.0957 1.78933 77.2171 1.68667 77.3477 1.612C77.3851 1.59333 77.4411 1.54667 77.5157 1.472C77.7397 1.26667 78.0011 1.136 78.2997 1.08C78.3557 1.06133 78.4024 1.052 78.4397 1.052C78.4957 1.03333 78.5517 1.024 78.6077 1.024L78.8037 0.939999C78.9531 0.884 79.0837 0.912 79.1957 1.024C79.2331 1.08 79.2797 1.136 79.3357 1.192C79.4104 1.22933 79.4757 1.26667 79.5317 1.304C79.6811 1.43467 79.8211 1.57467 79.9517 1.724C80.1011 1.87333 80.2317 2.04133 80.3437 2.228C80.5304 2.52667 80.6891 2.82533 80.8197 3.124C80.9691 3.42267 81.1091 3.73067 81.2397 4.048L81.7437 5.252C81.7624 5.364 81.8091 5.46667 81.8837 5.56C82.0331 5.84 82.1451 6.12933 82.2197 6.428C82.2944 6.708 82.3691 6.99733 82.4437 7.296C82.4624 7.33333 82.4717 7.37067 82.4717 7.408C82.4904 7.44533 82.4997 7.48267 82.4997 7.52C82.5371 7.66933 82.5651 7.828 82.5837 7.996C82.6211 8.14533 82.6304 8.29467 82.6117 8.444C82.6304 8.612 82.6211 8.78 82.5837 8.948C82.5651 9.09733 82.5371 9.24667 82.4997 9.396C82.4437 9.58267 82.3784 9.76 82.3037 9.928C82.2291 10.0773 82.1451 10.236 82.0517 10.404C82.0144 10.516 81.9491 10.6187 81.8557 10.712C81.7624 10.8053 81.6691 10.8893 81.5757 10.964C81.4264 11.0387 81.2771 11.1507 81.1277 11.3C81.0904 11.3373 81.0437 11.3653 80.9877 11.384C80.9504 11.4027 80.9131 11.4307 80.8757 11.468C80.7451 11.524 80.6051 11.5893 80.4557 11.664C80.3064 11.72 80.1571 11.776 80.0077 11.832C79.9891 11.832 79.9797 11.8507 79.9797 11.888C79.9797 11.9067 79.9891 11.9253 80.0077 11.944L80.7637 12.476C80.8571 12.532 80.9411 12.588 81.0157 12.644C81.0904 12.6813 81.1651 12.728 81.2397 12.784L81.4077 12.868C81.6317 12.9987 81.8557 13.1387 82.0797 13.288C82.3037 13.4373 82.5184 13.5867 82.7237 13.736C83.1157 13.9787 83.5077 14.2307 83.8997 14.492C84.2917 14.7347 84.6651 15.0053 85.0197 15.304C85.3371 15.5467 85.6171 15.8267 85.8597 16.144C85.9157 16.2 85.9717 16.2653 86.0277 16.34C86.0837 16.396 86.1491 16.4427 86.2237 16.48L86.3077 16.564C86.6064 16.8253 86.7744 17.18 86.8117 17.628C86.8117 17.684 86.8024 17.74 86.7837 17.796C86.7837 17.852 86.7837 17.908 86.7837 17.964C86.7837 18.076 86.7464 18.1693 86.6717 18.244C86.5971 18.2813 86.5597 18.328 86.5597 18.384C86.5037 18.5147 86.4197 18.608 86.3077 18.664C86.2144 18.7013 86.1211 18.7573 86.0277 18.832C85.9904 18.8507 85.9251 18.86 85.8317 18.86C85.7197 18.8413 85.5984 18.8227 85.4677 18.804C85.3557 18.7853 85.2437 18.776 85.1317 18.776C84.9824 18.776 84.8237 18.7107 84.6557 18.58C84.5437 18.4867 84.4411 18.4027 84.3477 18.328C84.2544 18.2347 84.1611 18.1227 84.0677 17.992C83.8251 17.656 83.5077 17.348 83.1157 17.068C82.9291 16.9187 82.7517 16.7787 82.5837 16.648C82.4157 16.5173 82.2291 16.396 82.0237 16.284C81.8931 16.2093 81.7624 16.1347 81.6317 16.06C81.5197 15.9667 81.3891 15.8827 81.2397 15.808C80.7731 15.4907 80.2971 15.1827 79.8117 14.884C79.3264 14.5667 78.8411 14.2493 78.3557 13.932C78.2811 13.876 78.1971 13.82 78.1037 13.764C78.0104 13.708 77.9171 13.652 77.8237 13.596C77.7864 13.5587 77.7304 13.5213 77.6557 13.484C77.5811 13.484 77.5437 13.512 77.5437 13.568C77.5437 13.5867 77.5344 13.6053 77.5157 13.624C77.5157 13.624 77.5157 13.6333 77.5157 13.652C77.5157 13.708 77.5157 13.764 77.5157 13.82C77.5157 13.876 77.5251 13.932 77.5437 13.988C77.5624 14.1373 77.5717 14.2867 77.5717 14.436C77.5717 14.5667 77.5717 14.7067 77.5717 14.856C77.5717 14.968 77.5717 15.08 77.5717 15.192C77.5904 15.2853 77.6091 15.388 77.6277 15.5C77.6277 15.556 77.6277 15.6213 77.6277 15.696C77.6464 15.752 77.6557 15.808 77.6557 15.864C77.6371 16.032 77.6464 16.2 77.6837 16.368C77.7211 16.536 77.7491 16.704 77.7677 16.872L77.9357 17.6C77.9544 17.6747 77.9731 17.7587 77.9917 17.852C78.0104 17.9267 78.0291 18.0107 78.0477 18.104C78.0664 18.1787 78.0664 18.2533 78.0477 18.328C78.0477 18.384 78.0384 18.4493 78.0197 18.524C78.0197 18.5427 78.0011 18.5707 77.9637 18.608C77.8704 18.6267 77.8051 18.692 77.7677 18.804C77.7117 18.9347 77.6277 19.0467 77.5157 19.14C77.4224 19.252 77.3197 19.3547 77.2077 19.448C77.1891 19.4667 77.1517 19.4853 77.0957 19.504C77.0397 19.5227 76.9931 19.5413 76.9557 19.56ZM78.0477 9.76H78.1037C78.3091 9.72267 78.5144 9.68533 78.7197 9.648C78.9437 9.592 79.1584 9.52667 79.3637 9.452C79.5691 9.396 79.7464 9.29333 79.8957 9.144C80.0264 9.01333 80.0917 8.864 80.0917 8.696C80.1104 8.56533 80.1104 8.444 80.0917 8.332C80.0917 8.20133 80.0731 8.07067 80.0357 7.94C79.9611 7.604 79.8771 7.27733 79.7837 6.96C79.6904 6.624 79.5784 6.30667 79.4477 6.008L79.1957 5.336C79.1397 5.14933 79.0744 4.972 78.9997 4.804C78.9251 4.61733 78.8411 4.44 78.7477 4.272C78.7291 4.23467 78.7104 4.19733 78.6917 4.16C78.6731 4.104 78.6544 4.05733 78.6357 4.02L78.5237 3.908C78.4677 3.83333 78.4024 3.83333 78.3277 3.908C78.3091 3.908 78.2811 3.92667 78.2437 3.964C78.1131 4.132 77.9917 4.30933 77.8797 4.496C77.7864 4.68267 77.7304 4.888 77.7117 5.112C77.6931 5.18667 77.6744 5.26133 77.6557 5.336C77.6557 5.41067 77.6557 5.49467 77.6557 5.588V6.792C77.6371 7.05333 77.6277 7.324 77.6277 7.604C77.6464 7.884 77.6371 8.15467 77.5997 8.416C77.5811 8.472 77.5717 8.528 77.5717 8.584C77.5904 8.64 77.5997 8.696 77.5997 8.752C77.6184 8.864 77.6277 8.976 77.6277 9.088C77.6277 9.18133 77.6277 9.284 77.6277 9.396C77.6277 9.58267 77.6464 9.69467 77.6837 9.732C77.7397 9.76933 77.8611 9.77867 78.0477 9.76ZM100.765 21.044C100.597 21.044 100.448 20.9787 100.317 20.848C100.28 20.792 100.243 20.736 100.205 20.68C100.168 20.624 100.131 20.568 100.093 20.512C99.9253 20.12 99.8413 19.7093 99.8413 19.28L99.7573 18.608C99.7013 18.3467 99.6547 18.0853 99.6173 17.824C99.58 17.5627 99.5147 17.3107 99.4213 17.068L99.2533 16.592C99.2533 16.5547 99.244 16.5173 99.2253 16.48C99.2253 16.4427 99.216 16.4053 99.1973 16.368L98.7773 14.884C98.7587 14.8467 98.74 14.8 98.7213 14.744C98.7213 14.688 98.7027 14.6413 98.6653 14.604C98.6093 14.492 98.5627 14.38 98.5253 14.268C98.5067 14.1373 98.4787 14.0067 98.4413 13.876C98.4227 13.7827 98.404 13.6987 98.3853 13.624C98.3667 13.5307 98.3387 13.4373 98.3013 13.344C98.264 13.232 98.2267 13.1667 98.1893 13.148C98.152 13.1107 98.068 13.1107 97.9373 13.148C97.844 13.1667 97.7413 13.1853 97.6293 13.204C97.536 13.204 97.4427 13.2227 97.3493 13.26C97.2747 13.2787 97.1813 13.2973 97.0693 13.316C96.976 13.316 96.8827 13.3253 96.7893 13.344L96.3973 13.428C96.304 13.4467 96.2013 13.4747 96.0893 13.512C95.996 13.5307 95.9027 13.54 95.8093 13.54L95.3053 13.624C95.156 13.6613 94.9973 13.6987 94.8293 13.736C94.6613 13.7733 94.5027 13.8107 94.3533 13.848C93.9053 13.96 93.4573 14.044 93.0093 14.1C92.86 14.1373 92.776 14.2027 92.7573 14.296C92.7387 14.296 92.7293 14.3053 92.7293 14.324C92.6173 14.6227 92.4867 14.9213 92.3373 15.22C92.2067 15.5 92.0667 15.7893 91.9173 16.088C91.88 16.1627 91.8427 16.2373 91.8053 16.312C91.7867 16.368 91.7587 16.4333 91.7213 16.508C91.7027 16.5453 91.684 16.592 91.6653 16.648C91.6467 16.6853 91.628 16.7227 91.6093 16.76C91.4973 16.8907 91.4413 17.0493 91.4413 17.236C91.4227 17.348 91.3853 17.46 91.3293 17.572C91.2733 17.6653 91.2173 17.7587 91.1613 17.852C91.1427 17.908 91.1053 17.936 91.0493 17.936C90.9747 17.9547 90.9 17.9827 90.8253 18.02C90.7507 18.0573 90.6667 18.0947 90.5733 18.132C90.5173 18.1507 90.4613 18.1507 90.4053 18.132C90.368 18.1133 90.3213 18.0947 90.2653 18.076C90.228 18.0387 90.1907 18.02 90.1533 18.02C89.948 18.0013 89.7987 17.88 89.7053 17.656C89.556 17.3573 89.4533 17.0587 89.3973 16.76C89.3787 16.6853 89.3787 16.62 89.3973 16.564C89.4347 16.508 89.4627 16.452 89.4813 16.396C89.5933 16.3213 89.6587 16.2373 89.6773 16.144V16.116C89.6773 15.8733 89.724 15.6493 89.8173 15.444C89.9293 15.22 90.0227 15.0053 90.0973 14.8C90.1347 14.688 90.1813 14.576 90.2373 14.464C90.2933 14.352 90.3493 14.24 90.4053 14.128C90.48 13.9973 90.536 13.876 90.5733 13.764C90.6293 13.6333 90.676 13.5027 90.7133 13.372C90.7693 13.2227 90.7693 13.0827 90.7133 12.952C90.676 12.84 90.6573 12.7373 90.6573 12.644C90.6573 12.532 90.6667 12.42 90.6853 12.308C90.6853 12.1027 90.76 11.9253 90.9093 11.776C90.984 11.6827 91.0587 11.608 91.1333 11.552C91.2267 11.4773 91.3107 11.4027 91.3853 11.328C91.5533 11.16 91.684 10.936 91.7773 10.656C91.852 10.4133 91.908 10.1707 91.9453 9.928C92.0013 9.66667 92.0573 9.41467 92.1133 9.172C92.1507 8.92933 92.188 8.696 92.2253 8.472C92.2813 8.22933 92.3373 7.996 92.3933 7.772C92.412 7.67867 92.4307 7.59467 92.4493 7.52C92.4867 7.42667 92.5147 7.34267 92.5333 7.268C92.5893 7.11867 92.6453 6.97867 92.7013 6.848C92.7573 6.69867 92.7947 6.54933 92.8133 6.4C92.8507 6.32533 92.8507 6.26 92.8133 6.204C92.7947 6.11067 92.7947 6.02667 92.8133 5.952C92.8507 5.87733 92.8787 5.80267 92.8973 5.728C92.9533 5.59733 92.9907 5.46667 93.0093 5.336C93.0467 5.20533 93.0933 5.07467 93.1493 4.944C93.2427 4.70133 93.3173 4.50533 93.3733 4.356C93.448 4.188 93.5133 4.00133 93.5693 3.796C93.6067 3.684 93.644 3.58133 93.6813 3.488C93.7373 3.376 93.7747 3.264 93.7933 3.152C93.8493 2.984 93.896 2.816 93.9333 2.648C93.9707 2.46133 93.9893 2.284 93.9893 2.116C94.0267 1.96667 94.064 1.864 94.1013 1.808C94.1947 1.62133 94.3067 1.46267 94.4373 1.332C94.5867 1.20133 94.7267 1.07067 94.8573 0.939999C94.9507 0.884 95.044 0.846666 95.1373 0.827999C95.2307 0.790666 95.324 0.8 95.4173 0.856C95.492 0.893333 95.5387 0.911999 95.5573 0.911999C95.7253 0.893333 95.8653 0.930666 95.9773 1.024C96.0893 1.11733 96.1827 1.22933 96.2573 1.36C96.2947 1.39733 96.3227 1.444 96.3413 1.5C96.36 1.556 96.3787 1.60267 96.3973 1.64C96.4907 1.78933 96.5373 1.93867 96.5373 2.088C96.5373 2.16267 96.5467 2.24667 96.5653 2.34C96.584 2.41467 96.6027 2.49867 96.6213 2.592C96.6773 2.704 96.7613 2.76 96.8733 2.76C96.892 2.74133 96.9107 2.74133 96.9293 2.76C96.948 2.77867 96.9573 2.79733 96.9573 2.816C97.0507 2.928 97.0787 3.04933 97.0413 3.18C97.004 3.32933 96.9947 3.47867 97.0133 3.628C97.0507 3.75867 97.088 3.89867 97.1253 4.048C97.2 4.23467 97.2747 4.42133 97.3493 4.608C97.424 4.79467 97.4987 4.98133 97.5733 5.168C97.6667 5.37333 97.76 5.57867 97.8533 5.784C97.9467 5.98933 98.0307 6.19467 98.1053 6.4C98.1987 6.66133 98.292 6.92267 98.3853 7.184C98.4973 7.44533 98.6187 7.70667 98.7493 7.968L98.8333 8.276C98.852 8.35067 98.8707 8.42533 98.8893 8.5C98.9267 8.57467 98.9547 8.64933 98.9733 8.724C99.0107 8.78 99.0387 8.836 99.0573 8.892C99.0947 8.948 99.132 8.99467 99.1693 9.032C99.2627 9.16267 99.3187 9.30267 99.3373 9.452C99.3933 9.63867 99.4773 9.80667 99.5893 9.956C99.6267 10.012 99.6827 10.04 99.7573 10.04C100.037 10.0027 100.317 9.97467 100.597 9.956C100.877 9.91867 101.157 9.86267 101.437 9.788C101.643 9.732 101.839 9.704 102.025 9.704C102.38 9.704 102.707 9.82533 103.005 10.068C103.36 10.348 103.547 10.7027 103.565 11.132C103.565 11.2253 103.575 11.3 103.593 11.356C103.593 11.4867 103.556 11.5893 103.481 11.664C103.463 11.72 103.425 11.776 103.369 11.832C103.332 11.888 103.295 11.944 103.257 12C103.22 12.0747 103.183 12.1307 103.145 12.168L102.977 12.308C102.959 12.3453 102.931 12.392 102.893 12.448C102.856 12.4853 102.809 12.5133 102.753 12.532C102.679 12.5507 102.604 12.5787 102.529 12.616C102.455 12.6347 102.371 12.644 102.277 12.644C101.941 12.6813 101.643 12.672 101.381 12.616H100.933C100.896 12.616 100.84 12.6347 100.765 12.672C100.691 12.7093 100.653 12.756 100.653 12.812V12.924C100.709 13.092 100.747 13.2693 100.765 13.456C100.803 13.624 100.859 13.7827 100.933 13.932C100.933 14.0067 100.952 14.0813 100.989 14.156C101.083 14.324 101.157 14.5013 101.213 14.688C101.269 14.856 101.316 15.0333 101.353 15.22C101.353 15.2573 101.372 15.332 101.409 15.444C101.465 15.5747 101.512 15.7147 101.549 15.864C101.587 15.9947 101.615 16.1347 101.633 16.284C101.633 16.396 101.661 16.4987 101.717 16.592C101.792 16.76 101.848 16.928 101.885 17.096C101.923 17.264 101.951 17.4413 101.969 17.628C101.988 17.6467 101.997 17.684 101.997 17.74C101.997 17.7773 102.007 17.8147 102.025 17.852C102.119 18.0573 102.184 18.2813 102.221 18.524C102.259 18.748 102.305 18.972 102.361 19.196C102.399 19.308 102.417 19.42 102.417 19.532C102.436 19.6627 102.445 19.7933 102.445 19.924C102.445 20.0173 102.417 20.12 102.361 20.232C102.305 20.288 102.277 20.316 102.277 20.316C102.165 20.3347 102.1 20.4 102.081 20.512L101.997 20.68C101.96 20.7547 101.904 20.8013 101.829 20.82C101.755 20.82 101.689 20.848 101.633 20.904C101.559 20.9787 101.456 21.016 101.325 21.016C101.251 21.016 101.157 21.016 101.045 21.016C100.952 21.016 100.859 21.0253 100.765 21.044ZM94.0173 10.88C94.1293 10.8613 94.2413 10.8427 94.3533 10.824C94.484 10.8053 94.624 10.7867 94.7733 10.768C94.8667 10.7493 94.988 10.7307 95.1373 10.712C95.2867 10.6933 95.4267 10.6747 95.5573 10.656C95.688 10.6187 95.8187 10.6 95.9493 10.6C96.08 10.5813 96.2107 10.5627 96.3413 10.544C96.4533 10.5067 96.5653 10.488 96.6773 10.488C96.7893 10.4693 96.9013 10.4507 97.0133 10.432C97.1813 10.3947 97.2467 10.3013 97.2093 10.152C97.1907 10.0027 97.1533 9.85333 97.0973 9.704C97.06 9.536 96.976 9.396 96.8453 9.284C96.808 9.24667 96.7893 9.19067 96.7893 9.116V9.032C96.752 8.88267 96.7053 8.74267 96.6493 8.612C96.612 8.46267 96.5653 8.32267 96.5093 8.192C96.472 8.04267 96.4253 7.912 96.3693 7.8C96.332 7.66933 96.2853 7.53867 96.2293 7.408L95.8933 6.4C95.8373 6.26933 95.7813 6.13867 95.7253 6.008C95.688 5.87733 95.6507 5.74667 95.6133 5.616L95.5293 5.504H95.4453L95.3893 5.588C95.296 5.868 95.184 6.148 95.0533 6.428C94.9413 6.708 94.8387 7.00667 94.7453 7.324C94.7453 7.36133 94.736 7.408 94.7173 7.464C94.6987 7.52 94.68 7.576 94.6613 7.632C94.5867 7.81867 94.512 8.024 94.4373 8.248C94.3813 8.472 94.3347 8.696 94.2973 8.92C94.2787 9.05067 94.26 9.18133 94.2413 9.312C94.2227 9.424 94.1947 9.54533 94.1573 9.676L93.9053 10.768C93.8867 10.7867 93.896 10.8147 93.9333 10.852C93.9707 10.8707 93.9987 10.88 94.0173 10.88Z" fill="black"/>
</svg>
