<svg width="165" height="22" viewBox="0 0 165 22" fill="none" xmlns="http://www.w3.org/2000/svg">
<path d="M5.188 21.372L4.712 21.288C4.46933 21.2507 4.21733 21.2133 3.956 21.176C3.71333 21.1387 3.46133 21.1107 3.2 21.092C2.93867 21.092 2.67733 21.0173 2.416 20.868C2.17333 20.7373 2.00533 20.532 1.912 20.252C1.89333 20.1587 1.86533 20.0653 1.828 19.972C1.80933 19.8787 1.79067 19.7853 1.772 19.692C1.772 19.468 1.81867 19.3 1.912 19.188C2.00533 19.0947 2.08 19.0013 2.136 18.908C2.21067 18.8147 2.28533 18.7307 2.36 18.656C2.39733 18.6187 2.43467 18.5907 2.472 18.572C2.50933 18.5533 2.54667 18.5347 2.584 18.516C2.67733 18.46 2.77067 18.4227 2.864 18.404C2.95733 18.3667 3.05067 18.3387 3.144 18.32C3.18133 18.3013 3.20933 18.3013 3.228 18.32C3.26533 18.32 3.29333 18.32 3.312 18.32C3.40533 18.3387 3.508 18.3573 3.62 18.376C3.732 18.376 3.83467 18.3947 3.928 18.432L5.104 18.6C5.36533 18.6373 5.59867 18.6 5.804 18.488C5.87867 18.4507 5.944 18.4133 6 18.376C6.07467 18.3387 6.14 18.3013 6.196 18.264C6.60667 18.0213 6.96133 17.7693 7.26 17.508C7.484 17.3027 7.69867 17.0973 7.904 16.892C8.10933 16.6867 8.296 16.4627 8.464 16.22C8.59467 16.052 8.67867 15.884 8.716 15.716C8.75333 15.5293 8.76267 15.3427 8.744 15.156L8.66 14.932C8.64133 14.8387 8.604 14.764 8.548 14.708C8.492 14.652 8.436 14.5867 8.38 14.512C8.268 14.4187 8.156 14.316 8.044 14.204C7.95067 14.092 7.848 13.9987 7.736 13.924C7.456 13.7 7.176 13.4853 6.896 13.28C6.63467 13.0747 6.364 12.8693 6.084 12.664C6.06533 12.6267 6.00933 12.5893 5.916 12.552C5.748 12.44 5.58 12.3187 5.412 12.188C5.26267 12.0387 5.11333 11.8987 4.964 11.768C4.77733 11.5813 4.572 11.404 4.348 11.236C4.236 11.18 4.13333 11.0867 4.04 10.956C3.96533 10.8627 3.85333 10.7693 3.704 10.676C3.57333 10.6013 3.452 10.5173 3.34 10.424C3.228 10.312 3.116 10.2093 3.004 10.116L2.64 9.78C2.56533 9.68667 2.48133 9.60267 2.388 9.528C2.31333 9.43467 2.22933 9.34133 2.136 9.248C2.09867 9.15467 2.04267 9.08 1.968 9.024C1.912 8.968 1.856 8.90267 1.8 8.828C1.78133 8.79067 1.75333 8.75333 1.716 8.716C1.67867 8.66 1.65067 8.604 1.632 8.548C1.52 8.324 1.39867 8.1 1.268 7.876C1.156 7.652 1.05333 7.41867 0.96 7.176C0.904 7.02667 0.848 6.88667 0.792 6.756C0.754667 6.60667 0.717333 6.46667 0.68 6.336C0.661333 6.18667 0.624 6.056 0.568 5.944C0.530667 5.81333 0.493333 5.68267 0.456 5.552C0.418667 5.34667 0.372 5.15067 0.316 4.964C0.278667 4.75867 0.241333 4.56267 0.204 4.376L0.148 4.152C0.129333 3.94667 0.129333 3.75067 0.148 3.564C0.185333 3.30267 0.241333 3.06933 0.316 2.864C0.390667 2.64 0.512 2.46267 0.68 2.332C0.866667 2.18267 1.05333 2.03333 1.24 1.884C1.42667 1.73467 1.62267 1.61333 1.828 1.52C1.86533 1.52 1.89333 1.51067 1.912 1.492C2.09867 1.34267 2.304 1.24 2.528 1.184C2.752 1.10933 2.976 1.044 3.2 0.987999C4.096 0.726666 5.02 0.530666 5.972 0.399999H6.252C6.43867 0.399999 6.616 0.399999 6.784 0.399999C6.952 0.399999 7.12933 0.390665 7.316 0.371999C7.54 0.371999 7.764 0.399999 7.988 0.456C8.212 0.493332 8.42667 0.558666 8.632 0.651999C8.78133 0.726666 8.93067 0.810666 9.08 0.903999C9.22933 0.978666 9.36933 1.06267 9.5 1.156C9.64933 1.268 9.74267 1.38933 9.78 1.52L9.864 1.716C9.95733 1.884 10.004 2.06133 10.004 2.248C10.0227 2.416 10.0133 2.59333 9.976 2.78C9.976 2.836 9.96667 2.90133 9.948 2.976C9.948 3.032 9.948 3.088 9.948 3.144C9.892 3.55467 9.696 3.872 9.36 4.096C9.15467 4.28267 8.884 4.35733 8.548 4.32C8.47333 4.28267 8.436 4.30133 8.436 4.376C8.436 4.45067 8.38933 4.488 8.296 4.488H8.128C8.016 4.488 7.904 4.432 7.792 4.32C7.69867 4.22667 7.652 4.152 7.652 4.096C7.652 4.02133 7.68933 3.96533 7.764 3.928C7.72667 3.83467 7.68933 3.75067 7.652 3.676C7.61467 3.60133 7.57733 3.54533 7.54 3.508C7.484 3.41467 7.4 3.34933 7.288 3.312C7.19467 3.29333 7.10133 3.27467 7.008 3.256C6.91467 3.23733 6.82133 3.21867 6.728 3.2C6.65333 3.2 6.56933 3.2 6.476 3.2C6.38267 3.18133 6.28933 3.16267 6.196 3.144C6.14 3.12533 6.056 3.13467 5.944 3.172C5.888 3.19067 5.832 3.20933 5.776 3.228C5.72 3.228 5.65467 3.21867 5.58 3.2C5.524 3.2 5.45867 3.2 5.384 3.2C5.328 3.2 5.26267 3.21867 5.188 3.256L4.656 3.34C4.35733 3.396 4.068 3.508 3.788 3.676C3.732 3.69467 3.676 3.71333 3.62 3.732C3.564 3.75067 3.508 3.75067 3.452 3.732C3.34 3.71333 3.24667 3.74133 3.172 3.816C3.15333 3.85333 3.10667 3.88133 3.032 3.9C2.976 3.9 2.92933 3.91867 2.892 3.956C2.81733 4.03067 2.78 4.10533 2.78 4.18C2.79867 4.21733 2.808 4.27333 2.808 4.348L3.396 6.056C3.508 6.35467 3.648 6.63467 3.816 6.896C4.00267 7.13867 4.19867 7.38133 4.404 7.624C4.72133 7.99733 5.048 8.31467 5.384 8.576L6.28 9.332C6.46667 9.5 6.66267 9.65867 6.868 9.808C7.07333 9.95733 7.26933 10.1067 7.456 10.256C7.736 10.4613 8.016 10.676 8.296 10.9C8.576 11.1053 8.856 11.32 9.136 11.544C9.36 11.7307 9.57467 11.9173 9.78 12.104C10.004 12.272 10.2093 12.4587 10.396 12.664C10.5267 12.8133 10.6573 12.9627 10.788 13.112C10.9187 13.2613 11.0307 13.4293 11.124 13.616C11.2547 13.8213 11.3667 14.064 11.46 14.344C11.572 14.6987 11.6187 15.0347 11.6 15.352C11.5813 15.3893 11.572 15.4453 11.572 15.52C11.572 15.744 11.544 15.9587 11.488 16.164C11.4507 16.3507 11.3853 16.5467 11.292 16.752C11.1987 16.9387 11.096 17.1347 10.984 17.34C10.8907 17.5267 10.7787 17.7133 10.648 17.9C10.4613 18.1427 10.2653 18.376 10.06 18.6C9.87333 18.8053 9.65867 19.0107 9.416 19.216C9.28533 19.328 9.15467 19.4493 9.024 19.58C8.89333 19.692 8.75333 19.7947 8.604 19.888C8.51067 19.9627 8.41733 20.028 8.324 20.084C8.23067 20.1587 8.13733 20.2333 8.044 20.308C7.96933 20.3453 7.89467 20.392 7.82 20.448C7.74533 20.504 7.67067 20.56 7.596 20.616C7.52133 20.6907 7.428 20.7467 7.316 20.784C7.22267 20.84 7.12933 20.8867 7.036 20.924L6.224 21.26C6.056 21.316 5.888 21.3533 5.72 21.372C5.552 21.3907 5.37467 21.3907 5.188 21.372ZM16.3836 20.196C16.2716 20.196 16.197 20.1867 16.1596 20.168C16.0663 20.1307 15.973 20.112 15.8796 20.112C15.805 20.1307 15.721 20.14 15.6276 20.14C15.609 20.14 15.5903 20.14 15.5716 20.14C15.553 20.1587 15.5343 20.168 15.5156 20.168C15.385 20.1867 15.2543 20.196 15.1236 20.196C15.0116 20.196 14.8996 20.1773 14.7876 20.14C14.769 20.1213 14.7503 20.112 14.7316 20.112C14.601 20.1307 14.489 20.0933 14.3956 20C14.3023 19.9067 14.209 19.8227 14.1156 19.748C14.0223 19.6547 13.9756 19.552 13.9756 19.44L13.8916 19.216C13.8356 19.0853 13.817 18.964 13.8356 18.852C13.8543 18.8147 13.8543 18.7773 13.8356 18.74C13.8356 18.7027 13.8356 18.6653 13.8356 18.628C13.817 18.5907 13.8076 18.5533 13.8076 18.516C13.8076 18.46 13.7983 18.4133 13.7796 18.376C13.7423 18.208 13.7143 18.04 13.6956 17.872C13.6956 17.6853 13.705 17.508 13.7236 17.34C13.7423 17.228 13.8076 17.0413 13.9196 16.78C14.0316 16.5 14.097 16.332 14.1156 16.276C14.1716 16.1827 14.1996 16.108 14.1996 16.052C14.181 15.8467 14.1716 15.6413 14.1716 15.436C14.1903 15.212 14.1996 14.9973 14.1996 14.792C14.1996 14.6613 14.2276 14.5587 14.2836 14.484C14.3583 14.3533 14.3676 14.2133 14.3116 14.064L14.2276 13.756C14.1156 13.5507 14.125 13.3733 14.2556 13.224C14.2556 13.2053 14.2556 13.196 14.2556 13.196C14.2743 13.1773 14.2836 13.1587 14.2836 13.14C14.321 13.1027 14.3303 13.056 14.3116 13C14.293 12.9253 14.2836 12.8693 14.2836 12.832C14.2836 12.7573 14.293 12.6827 14.3116 12.608C14.349 12.5147 14.3583 12.4307 14.3396 12.356C14.3396 12.356 14.321 12.3373 14.2836 12.3C14.265 12.2627 14.2556 12.188 14.2556 12.076C14.2743 11.964 14.2836 11.8987 14.2836 11.88V11.096C14.3023 11.0027 14.3116 10.9187 14.3116 10.844C14.3116 10.7507 14.321 10.6573 14.3396 10.564C14.3583 10.452 14.3583 10.34 14.3396 10.228C14.3396 10.0973 14.3396 9.96667 14.3396 9.836C14.321 9.74267 14.3023 9.64 14.2836 9.528C14.2836 9.416 14.2836 9.304 14.2836 9.192C14.265 9.15467 14.2556 9.108 14.2556 9.052C14.2556 8.996 14.2556 8.94933 14.2556 8.912C14.237 8.81867 14.2183 8.72533 14.1996 8.632C14.1996 8.53867 14.1996 8.44533 14.1996 8.352C14.1996 8.31467 14.1623 8.19333 14.0876 7.988C14.013 7.764 13.985 7.57733 14.0036 7.428C14.0223 7.39067 14.0316 7.344 14.0316 7.288C14.0316 7.232 14.013 7.18533 13.9756 7.148C13.9383 7.12933 13.9196 7.092 13.9196 7.036V6.952C13.9756 6.728 13.9476 6.504 13.8356 6.28C13.761 6.168 13.733 6.056 13.7516 5.944C13.7516 5.79467 13.6863 5.68267 13.5556 5.608C13.4623 5.51467 13.3783 5.40267 13.3036 5.272C13.229 5.14133 13.1823 5.01067 13.1636 4.88C13.145 4.78667 13.1356 4.69333 13.1356 4.6C13.1356 4.50667 13.1356 4.42267 13.1356 4.348C13.1356 4.27333 13.145 4.22667 13.1636 4.208C13.2383 4.13333 13.2756 4.04933 13.2756 3.956C13.2756 3.844 13.285 3.76 13.3036 3.704C13.3223 3.68533 13.341 3.676 13.3596 3.676C13.3783 3.676 13.397 3.66667 13.4156 3.648C13.4903 3.62933 13.5276 3.564 13.5276 3.452C13.4903 3.37733 13.4716 3.312 13.4716 3.256C13.453 3.18133 13.481 3.116 13.5556 3.06C13.593 2.98533 13.6396 2.96667 13.6956 3.004C13.8263 3.06 13.9756 3.04133 14.1436 2.948C14.2183 2.91067 14.265 2.892 14.2836 2.892C14.3396 2.892 14.3676 2.892 14.3676 2.892C14.3863 2.87333 14.4423 2.864 14.5356 2.864C14.6476 2.88267 14.7503 2.84533 14.8436 2.752C14.9743 2.62133 15.133 2.556 15.3196 2.556H17.0556C17.485 2.57467 17.9143 2.57467 18.3436 2.556C18.773 2.53733 19.193 2.528 19.6036 2.528C19.697 2.528 19.7716 2.528 19.8276 2.528C19.9023 2.50933 19.977 2.49067 20.0516 2.472C20.1636 2.416 20.2943 2.388 20.4436 2.388H21.0876C21.237 2.388 21.3676 2.388 21.4796 2.388C21.6103 2.36933 21.741 2.35067 21.8716 2.332C21.9463 2.31333 22.0116 2.304 22.0676 2.304C22.1423 2.304 22.217 2.304 22.2916 2.304C22.3663 2.304 22.441 2.304 22.5156 2.304C22.5903 2.304 22.665 2.29467 22.7396 2.276C22.889 2.25733 23.0476 2.248 23.2156 2.248C23.3836 2.22933 23.5423 2.22 23.6916 2.22C23.7663 2.22 23.8316 2.22 23.8876 2.22C23.9623 2.20133 24.037 2.18267 24.1116 2.164C24.261 2.12667 24.401 2.108 24.5316 2.108C24.681 2.08933 24.821 2.07067 24.9516 2.052C25.101 2.03333 25.241 2.01467 25.3716 1.996C25.521 1.97733 25.661 1.95867 25.7916 1.94C25.9596 1.94 26.081 1.95867 26.1556 1.996C26.2676 2.07067 26.3703 2.136 26.4636 2.192C26.5756 2.248 26.6783 2.32267 26.7716 2.416C26.8463 2.49067 26.893 2.556 26.9116 2.612C26.9303 2.68667 26.949 2.76133 26.9676 2.836C26.9863 2.91067 27.005 2.99467 27.0236 3.088V3.284C27.005 3.37733 26.9863 3.48 26.9676 3.592C26.9676 3.68533 26.9583 3.788 26.9396 3.9C26.9023 3.97467 26.8556 4.04 26.7996 4.096L26.2956 4.6C26.109 4.656 25.9223 4.69333 25.7356 4.712C25.5676 4.73067 25.3903 4.73067 25.2036 4.712H25.0076C24.9143 4.73067 24.821 4.74 24.7276 4.74C24.6343 4.74 24.541 4.73067 24.4476 4.712C24.3356 4.69333 24.2236 4.69333 24.1116 4.712C23.9996 4.712 23.8876 4.712 23.7756 4.712C23.701 4.712 23.6263 4.72133 23.5516 4.74C23.4956 4.74 23.4303 4.73067 23.3556 4.712C23.2623 4.69333 23.169 4.69333 23.0756 4.712C23.001 4.712 22.917 4.72133 22.8236 4.74C22.749 4.74 22.665 4.74933 22.5716 4.768C22.497 4.768 22.413 4.768 22.3196 4.768C22.077 4.80533 21.8156 4.824 21.5356 4.824C21.2743 4.824 21.013 4.84267 20.7516 4.88C20.5836 4.86133 20.425 4.87067 20.2756 4.908C20.1263 4.92667 19.9676 4.94533 19.7996 4.964C19.6503 4.98267 19.4916 4.992 19.3236 4.992C19.1556 4.992 18.997 5.01067 18.8476 5.048C18.661 5.048 18.4743 5.076 18.2876 5.132C18.1196 5.16933 17.9423 5.19733 17.7556 5.216L17.5596 5.244C17.429 5.244 17.3076 5.26267 17.1956 5.3C17.0836 5.31867 16.9623 5.34667 16.8316 5.384C16.757 5.40267 16.6823 5.42133 16.6076 5.44C16.533 5.44 16.449 5.44933 16.3556 5.468C16.2996 5.468 16.2343 5.48667 16.1596 5.524C16.1036 5.54267 16.0756 5.59867 16.0756 5.692L16.1596 5.944C16.1783 5.98133 16.169 6.07467 16.1316 6.224C16.113 6.37333 16.0943 6.48533 16.0756 6.56C16.0756 6.616 16.085 6.672 16.1036 6.728C16.1223 6.784 16.141 6.84 16.1596 6.896C16.2156 7.04533 16.2436 7.21333 16.2436 7.4C16.2436 7.568 16.2623 7.72667 16.2996 7.876C16.3183 7.95067 16.3276 8.03467 16.3276 8.128C16.3276 8.20267 16.337 8.28667 16.3556 8.38C16.3556 8.41733 16.3556 8.464 16.3556 8.52C16.3743 8.55733 16.3836 8.604 16.3836 8.66C16.3836 8.716 16.3743 8.75333 16.3556 8.772C16.2996 8.84667 16.2716 8.93067 16.2716 9.024C16.2716 9.11733 16.2716 9.21067 16.2716 9.304C16.365 9.49067 16.4116 9.67733 16.4116 9.864C16.4116 10.0507 16.4116 10.2373 16.4116 10.424C16.4116 10.48 16.4583 10.4987 16.5516 10.48H16.5796C16.617 10.4053 16.6543 10.3493 16.6916 10.312C16.7476 10.312 16.813 10.2933 16.8876 10.256C16.9436 10.2187 17.0183 10.2 17.1116 10.2C17.261 10.2187 17.401 10.2187 17.5316 10.2C17.6623 10.1627 17.793 10.1253 17.9236 10.088C18.801 9.864 19.6223 9.57467 20.3876 9.22C20.593 9.12667 20.8076 9.052 21.0316 8.996C21.2556 8.92133 21.4796 8.87467 21.7036 8.856H21.7876C21.9556 8.83733 22.1236 8.81867 22.2916 8.8C22.4596 8.78133 22.6276 8.772 22.7956 8.772C23.0196 8.75333 23.2343 8.72533 23.4396 8.688C23.6636 8.65067 23.8876 8.62267 24.1116 8.604C24.2423 8.56667 24.3636 8.53867 24.4756 8.52C24.5876 8.48267 24.709 8.436 24.8396 8.38C25.0823 8.28667 25.3063 8.24 25.5116 8.24C25.661 8.25867 25.801 8.296 25.9316 8.352C26.0623 8.38933 26.193 8.44533 26.3236 8.52C26.6036 8.70667 26.7436 8.98667 26.7436 9.36C26.7436 9.50933 26.725 9.65867 26.6876 9.808C26.669 9.95733 26.6596 10.1067 26.6596 10.256C26.6596 10.2933 26.641 10.3307 26.6036 10.368L26.5196 10.508C26.501 10.5827 26.4823 10.6573 26.4636 10.732C26.445 10.8067 26.3983 10.8627 26.3236 10.9C26.2116 10.9933 26.0903 11.096 25.9596 11.208C25.8476 11.3013 25.717 11.3667 25.5676 11.404C25.493 11.4227 25.4183 11.4413 25.3436 11.46C25.2876 11.4787 25.2223 11.488 25.1476 11.488C24.849 11.488 24.541 11.5067 24.2236 11.544C23.925 11.5813 23.617 11.6187 23.2996 11.656C23.057 11.6747 22.8143 11.7027 22.5716 11.74C22.3476 11.7773 22.1143 11.796 21.8716 11.796C21.6476 11.796 21.3956 11.8427 21.1156 11.936C20.929 11.9733 20.733 12.0107 20.5276 12.048C20.3223 12.0853 20.117 12.1133 19.9116 12.132C19.7623 12.1507 19.6036 12.1787 19.4356 12.216C19.2863 12.2347 19.137 12.2533 18.9876 12.272L18.5116 12.356C18.4743 12.3747 18.4183 12.384 18.3436 12.384C18.213 12.4213 18.0823 12.4493 17.9516 12.468C17.821 12.4867 17.6903 12.5147 17.5596 12.552C17.429 12.5707 17.2983 12.5987 17.1676 12.636C17.0556 12.6733 16.9343 12.7107 16.8036 12.748C16.7103 12.7667 16.6356 12.804 16.5796 12.86C16.5236 12.8973 16.477 12.9533 16.4396 13.028C16.421 13.084 16.421 13.14 16.4396 13.196C16.4583 13.2707 16.449 13.3453 16.4116 13.42C16.4303 13.6067 16.4396 13.7933 16.4396 13.98C16.4583 14.1667 16.4583 14.3533 16.4396 14.54C16.477 14.6893 16.4863 14.8387 16.4676 14.988C16.4676 15.1373 16.4583 15.2867 16.4396 15.436C16.4023 15.66 16.4116 15.8467 16.4676 15.996C16.5236 16.2387 16.505 16.4907 16.4116 16.752C16.3743 16.864 16.3743 16.9387 16.4116 16.976C16.449 17.032 16.449 17.0973 16.4116 17.172V17.34C16.393 17.4893 16.4583 17.564 16.6076 17.564H16.6636C16.7943 17.564 16.925 17.6107 17.0556 17.704C17.149 17.7973 17.261 17.8253 17.3916 17.788L18.1756 17.704C18.2876 17.6853 18.3996 17.676 18.5116 17.676C18.6236 17.6573 18.7356 17.648 18.8476 17.648C18.885 17.6293 18.941 17.6387 19.0156 17.676C19.109 17.732 19.193 17.7413 19.2676 17.704C19.305 17.6667 19.3516 17.6387 19.4076 17.62C19.4823 17.6013 19.5383 17.5733 19.5756 17.536C19.6876 17.424 19.8276 17.3867 19.9956 17.424C20.145 17.4613 20.2663 17.452 20.3596 17.396C20.5276 17.34 20.6863 17.3213 20.8356 17.34C20.929 17.3587 21.0223 17.3493 21.1156 17.312C21.209 17.2747 21.3023 17.256 21.3956 17.256C21.433 17.256 21.461 17.2653 21.4796 17.284C21.4983 17.284 21.517 17.2747 21.5356 17.256C21.573 17.256 21.6103 17.2467 21.6476 17.228C21.685 17.2093 21.713 17.2 21.7316 17.2C21.8623 17.144 21.9836 17.1253 22.0956 17.144C22.189 17.144 22.2356 17.144 22.2356 17.144C22.3103 17.1253 22.3756 17.1253 22.4316 17.144C22.5063 17.1627 22.5716 17.1907 22.6276 17.228C22.721 17.2467 22.7956 17.2747 22.8516 17.312C22.9263 17.3493 23.001 17.3773 23.0756 17.396C23.113 17.396 23.141 17.4053 23.1596 17.424C23.253 17.4987 23.365 17.564 23.4956 17.62C23.645 17.676 23.729 17.7413 23.7476 17.816C23.785 17.928 23.8036 18.04 23.8036 18.152C23.8036 18.2453 23.813 18.348 23.8316 18.46C23.8316 18.516 23.8223 18.572 23.8036 18.628C23.8036 18.684 23.7943 18.74 23.7756 18.796C23.7383 18.8707 23.6916 18.9547 23.6356 19.048C23.5983 19.1413 23.5423 19.2253 23.4676 19.3C23.4303 19.3373 23.393 19.3747 23.3556 19.412C23.337 19.4493 23.309 19.4867 23.2716 19.524C23.197 19.5987 23.113 19.664 23.0196 19.72C22.9263 19.776 22.8236 19.804 22.7116 19.804C22.637 19.804 22.581 19.8133 22.5436 19.832C22.469 19.8693 22.3943 19.888 22.3196 19.888C22.245 19.888 22.161 19.888 22.0676 19.888C21.937 19.9067 21.8063 19.9253 21.6756 19.944C21.5636 19.944 21.4423 19.9347 21.3116 19.916C21.237 19.8973 21.1716 19.8973 21.1156 19.916C20.929 19.972 20.7423 19.9813 20.5556 19.944C20.369 19.944 20.1823 19.9533 19.9956 19.972C19.8276 19.972 19.6596 19.972 19.4916 19.972H19.1276C19.0716 19.972 19.025 19.9813 18.9876 20C18.913 20.0373 18.8196 20.056 18.7076 20.056C18.6143 20.056 18.521 20.0467 18.4276 20.028H18.1476C18.129 20.028 18.101 20.028 18.0636 20.028C18.0263 20.0467 17.989 20.0467 17.9516 20.028C17.8956 20.0093 17.8396 20 17.7836 20C17.7463 20.0187 17.6996 20.0373 17.6436 20.056C17.6063 20.056 17.569 20.056 17.5316 20.056C17.513 20.0747 17.485 20.084 17.4476 20.084C17.261 20.0653 17.0836 20.0653 16.9156 20.084C16.7476 20.1213 16.5703 20.1587 16.3836 20.196ZM31.6972 20.084C31.5479 20.14 31.3799 20.1213 31.1932 20.028L30.6332 19.776C30.5399 19.7387 30.4652 19.6547 30.4092 19.524L30.3252 19.356C30.2879 19.2627 30.2412 19.1973 30.1852 19.16C30.0919 19.0853 30.0266 18.9547 29.9892 18.768C29.9519 18.5813 29.9239 18.3947 29.9052 18.208C29.8866 18.0213 29.8679 17.8347 29.8492 17.648C29.8306 17.4987 29.8212 17.3493 29.8212 17.2C29.8212 17.0507 29.8212 16.9107 29.8212 16.78L29.8492 16.584C29.8866 16.4907 29.9052 16.3973 29.9052 16.304C29.9052 16.2107 29.9052 16.1267 29.9052 16.052V10.956C29.9426 10.6947 29.9612 10.4333 29.9612 10.172C29.9612 9.892 29.9612 9.62133 29.9612 9.36C29.9799 9.09867 29.9892 8.84667 29.9892 8.604C29.9892 8.34267 29.9706 8.09067 29.9332 7.848C29.9146 7.75467 29.9052 7.652 29.9052 7.54C29.9052 7.428 29.9052 7.316 29.9052 7.204C29.9052 7.036 29.9052 6.868 29.9052 6.7C29.9052 6.532 29.8866 6.364 29.8492 6.196V6.112C29.8492 5.85067 29.8306 5.59867 29.7932 5.356C29.7746 5.09467 29.7559 4.84267 29.7372 4.6C29.7186 4.45067 29.6999 4.31067 29.6812 4.18C29.6626 4.04933 29.6346 3.91867 29.5972 3.788C29.5786 3.71333 29.5692 3.63867 29.5692 3.564C29.5692 3.48933 29.5692 3.41467 29.5692 3.34C29.5692 3.20933 29.5879 3.088 29.6252 2.976C29.6626 2.84533 29.6999 2.724 29.7372 2.612C29.7559 2.57467 29.8026 2.51867 29.8772 2.444C29.9146 2.40667 29.9519 2.37867 29.9892 2.36C30.0266 2.34133 30.0546 2.32267 30.0732 2.304C30.1852 2.15467 30.3346 2.08933 30.5212 2.108C30.5586 2.12667 30.6146 2.11733 30.6892 2.08C30.7826 2.00533 30.8666 1.996 30.9412 2.052C30.9972 2.08933 31.0906 2.08933 31.2212 2.052C31.2772 2.052 31.3239 2.07067 31.3612 2.108C31.4172 2.18267 31.4919 2.23867 31.5852 2.276C31.6786 2.31333 31.7439 2.36933 31.7812 2.444C31.8372 2.5 31.8932 2.556 31.9492 2.612C31.9866 2.668 32.0239 2.724 32.0612 2.78C32.1172 2.81733 32.1452 2.87333 32.1452 2.948C32.1639 3.02267 32.1639 3.09733 32.1452 3.172C32.1452 3.228 32.1452 3.29333 32.1452 3.368C32.1452 3.536 32.1546 3.71333 32.1732 3.9C32.2106 4.068 32.2386 4.236 32.2572 4.404C32.2946 4.59067 32.3226 4.78667 32.3412 4.992C32.3599 5.17867 32.3786 5.37467 32.3972 5.58V5.86C32.4346 5.99067 32.4532 6.12133 32.4532 6.252C32.4532 6.38267 32.4626 6.51333 32.4812 6.644V6.672C32.4999 6.896 32.5186 7.12 32.5372 7.344C32.5559 7.568 32.5746 7.792 32.5932 8.016C32.6119 8.10933 32.6212 8.212 32.6212 8.324C32.6212 8.41733 32.6212 8.51067 32.6212 8.604V16.052C32.6212 16.22 32.6306 16.388 32.6492 16.556C32.6866 16.724 32.7146 16.8827 32.7332 17.032C32.7332 17.1253 32.7892 17.172 32.9012 17.172C33.0692 17.2093 33.2279 17.2093 33.3772 17.172C33.5826 17.1347 33.7786 17.116 33.9652 17.116C34.1706 17.116 34.3759 17.116 34.5812 17.116C34.7866 17.116 34.9826 17.116 35.1692 17.116C35.3746 17.0973 35.5706 17.0787 35.7572 17.06H36.0652C36.2146 17.0787 36.3452 17.0973 36.4572 17.116C36.5879 17.116 36.7186 17.116 36.8492 17.116C37.0546 17.116 37.2599 17.1253 37.4652 17.144C37.6892 17.144 37.9039 17.1533 38.1092 17.172C38.2586 17.1907 38.4079 17.2 38.5572 17.2C38.7252 17.2 38.8932 17.2 39.0612 17.2H39.2012C39.5746 17.1813 39.9106 17.2747 40.2092 17.48C40.3399 17.536 40.4332 17.6293 40.4892 17.76C40.5266 17.8347 40.5546 17.9093 40.5732 17.984C40.6106 18.04 40.6386 18.1147 40.6572 18.208C40.6759 18.2827 40.6852 18.3573 40.6852 18.432C40.7039 18.488 40.7226 18.5533 40.7412 18.628C40.7972 18.796 40.7786 18.9827 40.6852 19.188C40.6666 19.244 40.6479 19.3 40.6292 19.356C40.6106 19.412 40.5826 19.468 40.5452 19.524C40.5079 19.58 40.4612 19.6267 40.4052 19.664C40.4052 19.664 40.3679 19.6827 40.2932 19.72C40.1439 19.8507 39.9759 19.9347 39.7892 19.972C39.6212 20.0093 39.4346 20.0467 39.2292 20.084L38.9492 20.056C38.6692 19.9627 38.3892 19.9067 38.1092 19.888C38.0346 19.8693 37.9506 19.86 37.8572 19.86C37.7639 19.8413 37.6706 19.832 37.5772 19.832C37.4466 19.832 37.3159 19.832 37.1852 19.832C37.0546 19.8133 36.9146 19.7947 36.7652 19.776L36.4852 19.748C36.3172 19.7667 36.1492 19.776 35.9812 19.776C35.8132 19.7573 35.6452 19.7573 35.4772 19.776C35.4026 19.776 35.3279 19.776 35.2532 19.776C35.1786 19.7573 35.1039 19.748 35.0292 19.748C34.8799 19.748 34.7306 19.748 34.5812 19.748C34.4506 19.748 34.3106 19.7667 34.1612 19.804C34.0866 19.8227 33.9932 19.8413 33.8812 19.86C33.7879 19.86 33.6946 19.86 33.6012 19.86C33.3212 19.8787 33.0412 19.9067 32.7612 19.944C32.4812 19.9627 32.2106 20 31.9492 20.056C31.8932 20.0747 31.8092 20.084 31.6972 20.084ZM44.9244 21.064C44.9057 21.0827 44.859 21.0733 44.7844 21.036C44.7097 20.9987 44.635 20.9707 44.5604 20.952C44.5044 20.952 44.439 20.9427 44.3644 20.924C44.3084 20.924 44.2617 20.896 44.2244 20.84C44.2057 20.784 44.1497 20.728 44.0564 20.672C43.9444 20.616 43.8697 20.5133 43.8324 20.364L43.7484 20.084C43.6924 19.972 43.6924 19.86 43.7484 19.748C43.767 19.692 43.767 19.636 43.7484 19.58C43.7484 19.524 43.7577 19.468 43.7764 19.412C43.795 19.3747 43.8137 19.3373 43.8324 19.3C43.851 19.244 43.8697 19.1973 43.8884 19.16C43.8884 19.104 43.8884 19.048 43.8884 18.992C43.907 18.936 43.9164 18.88 43.9164 18.824C43.9164 18.6187 43.9164 18.404 43.9164 18.18C43.9164 17.956 43.9257 17.7413 43.9444 17.536C43.9444 17.3867 43.935 17.2373 43.9164 17.088C43.9164 16.92 43.9257 16.7613 43.9444 16.612C43.9444 16.5 43.9537 16.3973 43.9724 16.304C43.991 16.192 43.991 16.0893 43.9724 15.996C43.9724 15.9027 43.963 15.8093 43.9444 15.716C43.9444 15.6227 43.9444 15.5293 43.9444 15.436C43.9444 15.3053 43.935 15.184 43.9164 15.072C43.9164 14.96 43.8884 14.8387 43.8324 14.708C43.795 14.5587 43.7764 14.428 43.7764 14.316C43.7764 14.1107 43.7764 13.9147 43.7764 13.728C43.7764 13.5413 43.7857 13.3547 43.8044 13.168C43.8044 13.1307 43.8044 13.0933 43.8044 13.056C43.823 13.0187 43.823 12.9907 43.8044 12.972C43.7857 12.8227 43.767 12.6827 43.7484 12.552C43.7484 12.4027 43.7484 12.2627 43.7484 12.132V12.048C43.7297 11.9173 43.6737 11.796 43.5804 11.684L43.3844 11.432C43.3097 11.32 43.2724 11.2173 43.2724 11.124C43.2724 11.068 43.263 11.012 43.2444 10.956C43.2444 10.9 43.2444 10.844 43.2444 10.788C43.2257 10.6387 43.2537 10.4987 43.3284 10.368C43.403 10.256 43.4777 10.116 43.5524 9.948C43.5897 9.85467 43.5897 9.77067 43.5524 9.696C43.5337 9.62133 43.5244 9.54667 43.5244 9.472V9.22C43.5244 9.108 43.515 9.024 43.4964 8.968C43.4777 8.76267 43.459 8.55733 43.4404 8.352C43.4404 8.128 43.4217 7.92267 43.3844 7.736C43.3657 7.58667 43.3564 7.43733 43.3564 7.288C43.3564 7.13867 43.3564 6.99867 43.3564 6.868C43.3377 6.77467 43.3284 6.68133 43.3284 6.588C43.3284 6.49467 43.3097 6.40133 43.2724 6.308L43.2444 6.112C43.263 5.90667 43.235 5.692 43.1604 5.468C43.1417 5.39333 43.123 5.31867 43.1044 5.244C43.1044 5.15067 43.1137 5.06667 43.1324 4.992C43.1884 4.84267 43.207 4.684 43.1884 4.516C43.1884 4.348 43.179 4.18 43.1604 4.012C43.1417 3.86267 43.1324 3.72267 43.1324 3.592C43.1324 3.44267 43.123 3.30267 43.1044 3.172C43.0857 2.948 43.095 2.73333 43.1324 2.528C43.1884 2.304 43.2537 2.08 43.3284 1.856C43.3657 1.78133 43.403 1.73467 43.4404 1.716C43.515 1.67867 43.5804 1.64133 43.6364 1.604C43.6924 1.548 43.7484 1.50133 43.8044 1.464C43.879 1.42667 43.9164 1.408 43.9164 1.408C44.0097 1.37067 44.0937 1.34267 44.1684 1.324C44.2617 1.30533 44.3457 1.28667 44.4204 1.268C44.5884 1.212 44.7377 1.212 44.8684 1.268C45.0177 1.324 45.1577 1.39867 45.2884 1.492C45.4377 1.56667 45.559 1.67867 45.6524 1.828C45.671 1.86533 45.6897 1.912 45.7084 1.968C45.727 2.00533 45.7457 2.052 45.7644 2.108C45.7644 2.18267 45.7644 2.26667 45.7644 2.36C45.783 2.43467 45.8017 2.51867 45.8204 2.612C45.8577 2.724 45.9137 2.78 45.9884 2.78H46.0724C46.371 2.79867 46.6604 2.81733 46.9404 2.836C47.239 2.836 47.5377 2.836 47.8364 2.836H47.9484C48.0977 2.79867 48.219 2.78 48.3124 2.78C48.387 2.79867 48.4897 2.808 48.6204 2.808C48.6577 2.78933 48.7044 2.78 48.7604 2.78C48.8164 2.78 48.863 2.78 48.9004 2.78C49.0124 2.76133 49.1057 2.76133 49.1804 2.78C49.311 2.81733 49.423 2.808 49.5164 2.752C49.5724 2.71467 49.647 2.71467 49.7404 2.752C49.7777 2.77067 49.8244 2.78 49.8804 2.78C49.9364 2.78 49.983 2.78 50.0204 2.78C50.1697 2.74267 50.319 2.71467 50.4684 2.696C50.6364 2.67733 50.795 2.65867 50.9444 2.64C51.0937 2.60267 51.2337 2.57467 51.3644 2.556C51.5137 2.53733 51.6537 2.51867 51.7844 2.5C51.8217 2.48133 51.8777 2.472 51.9524 2.472C52.2324 2.49067 52.5217 2.444 52.8204 2.332C52.8764 2.31333 52.9324 2.304 52.9884 2.304C53.0444 2.28533 53.1097 2.28533 53.1844 2.304C53.259 2.32267 53.3524 2.32267 53.4644 2.304C53.6137 2.28533 53.763 2.26667 53.9124 2.248C54.0617 2.21067 54.2017 2.18267 54.3324 2.164C54.4257 2.12667 54.5097 2.09867 54.5844 2.08C54.659 2.04267 54.7337 2.03333 54.8084 2.052L55.0604 1.968C55.191 1.912 55.3217 1.93067 55.4524 2.024L55.9004 2.276C55.9377 2.29467 55.9657 2.31333 55.9844 2.332C56.0217 2.35067 56.0497 2.37867 56.0684 2.416C56.1244 2.50933 56.171 2.60267 56.2084 2.696C56.2644 2.78933 56.3017 2.892 56.3204 3.004C56.3204 3.07867 56.3297 3.144 56.3484 3.2C56.3857 3.256 56.3857 3.32133 56.3484 3.396C56.3297 3.452 56.311 3.508 56.2924 3.564C56.2737 3.62 56.255 3.676 56.2364 3.732L56.1524 3.928C56.1337 4.02133 56.0777 4.096 55.9844 4.152L55.8724 4.264C55.835 4.30133 55.7884 4.348 55.7324 4.404C55.695 4.44133 55.667 4.488 55.6484 4.544C55.6297 4.6 55.5924 4.63733 55.5364 4.656C55.4617 4.67467 55.387 4.70267 55.3124 4.74C55.2564 4.77733 55.2004 4.824 55.1444 4.88C55.0697 4.89867 54.995 4.92667 54.9204 4.964C54.8457 4.98267 54.7617 4.98267 54.6684 4.964C54.5564 4.94533 54.4164 4.98267 54.2484 5.076C54.155 5.132 54.0524 5.17867 53.9404 5.216C53.8284 5.23467 53.7164 5.26267 53.6044 5.3C53.3804 5.356 53.175 5.356 52.9884 5.3C52.9137 5.26267 52.839 5.244 52.7644 5.244C52.6897 5.244 52.615 5.23467 52.5404 5.216C52.4657 5.19733 52.391 5.17867 52.3164 5.16C52.2604 5.14133 52.1857 5.132 52.0924 5.132C52.0177 5.132 51.9524 5.132 51.8964 5.132C51.8404 5.11333 51.775 5.09467 51.7004 5.076C51.6257 5.05733 51.5044 5.048 51.3364 5.048C51.2804 5.048 51.2244 5.05733 51.1684 5.076C51.1124 5.076 51.047 5.06667 50.9724 5.048C50.8977 5.02933 50.8137 5.02933 50.7204 5.048C50.6457 5.048 50.5617 5.05733 50.4684 5.076C50.4124 5.09467 50.3564 5.11333 50.3004 5.132C50.263 5.132 50.2257 5.132 50.1884 5.132C50.0764 5.16933 49.9924 5.17867 49.9364 5.16C49.843 5.14133 49.7497 5.14133 49.6564 5.16C49.563 5.16 49.4697 5.16933 49.3764 5.188C49.339 5.188 49.2924 5.188 49.2364 5.188C49.1804 5.188 49.1337 5.17867 49.0964 5.16C48.8724 5.104 48.6577 5.15067 48.4524 5.3H48.3964C48.3217 5.37467 48.247 5.384 48.1724 5.328C47.9857 5.23467 47.8457 5.272 47.7524 5.44C47.6964 5.552 47.6124 5.58933 47.5004 5.552C47.3884 5.552 47.3137 5.53333 47.2764 5.496C47.183 5.45867 47.1084 5.48667 47.0524 5.58C47.015 5.61733 46.9777 5.636 46.9404 5.636C46.8844 5.636 46.847 5.62667 46.8284 5.608C46.7537 5.58933 46.6884 5.58933 46.6324 5.608C46.4084 5.70133 46.203 5.776 46.0164 5.832C45.9604 5.832 45.9324 5.86933 45.9324 5.944C45.9137 6.224 45.9137 6.51333 45.9324 6.812C45.951 6.88667 45.9604 6.97067 45.9604 7.064C45.9604 7.13867 45.9697 7.22267 45.9884 7.316C45.9884 7.39067 45.9884 7.46533 45.9884 7.54C46.007 7.61467 46.0257 7.68933 46.0444 7.764V7.876C46.063 8.06267 46.0817 8.24 46.1004 8.408C46.119 8.576 46.1377 8.75333 46.1564 8.94C46.1564 9.03333 46.1844 9.15467 46.2404 9.304C46.2777 9.39733 46.343 9.444 46.4364 9.444C46.4924 9.46267 46.5484 9.472 46.6044 9.472C46.6604 9.472 46.7164 9.472 46.7724 9.472H49.0404C49.1897 9.43467 49.339 9.416 49.4884 9.416C49.6564 9.416 49.815 9.416 49.9644 9.416C50.039 9.43467 50.1044 9.444 50.1604 9.444C50.235 9.42533 50.3004 9.42533 50.3564 9.444H50.6084C50.7204 9.42533 50.8324 9.416 50.9444 9.416C51.0564 9.39733 51.1777 9.37867 51.3084 9.36C51.4577 9.32267 51.5884 9.304 51.7004 9.304C51.7377 9.28533 51.7937 9.276 51.8684 9.276C52.0177 9.29467 52.1857 9.276 52.3724 9.22C52.447 9.164 52.5404 9.15467 52.6524 9.192C52.727 9.21067 52.8017 9.22 52.8764 9.22C52.951 9.20133 53.0257 9.192 53.1004 9.192C53.175 9.17333 53.2404 9.164 53.2964 9.164C53.371 9.164 53.4364 9.164 53.4924 9.164C53.7537 9.18267 54.0244 9.164 54.3044 9.108C54.4164 9.08933 54.5284 9.08 54.6404 9.08C54.7524 9.08 54.855 9.08 54.9484 9.08C54.9857 9.08 55.023 9.08933 55.0604 9.108C55.1164 9.108 55.163 9.09867 55.2004 9.08C55.3497 9.04267 55.499 9.024 55.6484 9.024C55.8164 9.00533 55.975 8.968 56.1244 8.912C56.1617 8.89333 56.2084 8.87467 56.2644 8.856C56.3204 8.83733 56.367 8.81867 56.4044 8.8C56.5164 8.744 56.6284 8.70667 56.7404 8.688C56.871 8.65067 56.9924 8.62267 57.1044 8.604C57.1604 8.58533 57.2444 8.576 57.3564 8.576H57.4404C57.515 8.59467 57.5897 8.62267 57.6644 8.66C57.739 8.69733 57.8044 8.744 57.8604 8.8C57.991 8.93067 58.1217 8.996 58.2524 8.996C58.3084 8.996 58.355 9.03333 58.3924 9.108V9.192C58.3924 9.248 58.3737 9.276 58.3364 9.276C58.3364 9.276 58.327 9.28533 58.3084 9.304C58.2897 9.304 58.2804 9.31333 58.2804 9.332C58.3177 9.36933 58.355 9.388 58.3924 9.388V9.416C58.411 9.45333 58.4017 9.51867 58.3644 9.612C58.3084 9.668 58.3084 9.73333 58.3644 9.808C58.439 9.92 58.4484 10.0227 58.3924 10.116C58.3364 10.228 58.2804 10.34 58.2244 10.452C58.1684 10.564 58.1124 10.6667 58.0564 10.76C57.9444 10.928 57.8137 11.0493 57.6644 11.124C57.5897 11.1427 57.4964 11.1707 57.3844 11.208C57.291 11.2267 57.1977 11.2453 57.1044 11.264C56.8617 11.3013 56.6097 11.3387 56.3484 11.376C56.1057 11.4133 55.8537 11.4507 55.5924 11.488C55.499 11.5067 55.4057 11.5253 55.3124 11.544C55.219 11.544 55.1257 11.5533 55.0324 11.572C54.8457 11.5907 54.659 11.6093 54.4724 11.628C54.2857 11.6467 54.099 11.6747 53.9124 11.712H53.6884C53.595 11.7307 53.4924 11.7493 53.3804 11.768C53.287 11.768 53.1937 11.768 53.1004 11.768C52.951 11.768 52.8017 11.7773 52.6524 11.796C52.503 11.796 52.3537 11.8053 52.2044 11.824C52.111 11.8427 52.0177 11.852 51.9244 11.852C51.831 11.852 51.7377 11.852 51.6444 11.852C51.4577 11.852 51.2617 11.852 51.0564 11.852C50.8697 11.8333 50.6737 11.8147 50.4684 11.796C50.2444 11.7773 50.0204 11.768 49.7964 11.768C49.591 11.768 49.3764 11.768 49.1524 11.768H48.1164C48.023 11.768 47.9577 11.7773 47.9204 11.796C47.7337 11.8147 47.5377 11.8333 47.3324 11.852C47.1457 11.852 46.9497 11.852 46.7444 11.852H46.6604C46.5297 11.8893 46.4644 11.9547 46.4644 12.048C46.4644 12.1227 46.4644 12.1973 46.4644 12.272C46.4644 12.328 46.4737 12.384 46.4924 12.44C46.5297 12.72 46.5577 13 46.5764 13.28C46.6137 13.5413 46.6324 13.8027 46.6324 14.064C46.6324 14.1947 46.6324 14.316 46.6324 14.428C46.6324 14.54 46.6417 14.6613 46.6604 14.792C46.6604 15.0907 46.6697 15.3893 46.6884 15.688C46.7257 15.9867 46.735 16.2947 46.7164 16.612C46.7164 16.7427 46.7164 16.8733 46.7164 17.004C46.735 17.1347 46.7537 17.2747 46.7724 17.424C46.791 17.5547 46.791 17.6853 46.7724 17.816C46.7724 17.928 46.7817 18.0587 46.8004 18.208C46.8004 18.2827 46.8004 18.3667 46.8004 18.46C46.819 18.5347 46.8377 18.6187 46.8564 18.712C46.875 18.768 46.875 18.824 46.8564 18.88C46.8564 18.936 46.8657 18.992 46.8844 19.048C46.8844 19.1227 46.8844 19.1973 46.8844 19.272C46.8844 19.328 46.8937 19.3933 46.9124 19.468C46.931 19.636 46.8844 19.776 46.7724 19.888C46.7537 19.944 46.7257 19.9907 46.6884 20.028C46.6697 20.084 46.651 20.1307 46.6324 20.168C46.595 20.2613 46.539 20.336 46.4644 20.392C46.3897 20.4667 46.3057 20.532 46.2124 20.588C46.1937 20.6067 46.1657 20.616 46.1284 20.616C46.091 20.6347 46.0537 20.6533 46.0164 20.672C45.9044 20.7093 45.8204 20.7467 45.7644 20.784C45.727 20.8587 45.671 20.9053 45.5964 20.924C45.5404 20.9427 45.475 20.9707 45.4004 21.008C45.3257 21.0267 45.2417 21.036 45.1484 21.036C45.0737 21.0547 44.999 21.064 44.9244 21.064ZM76.938 21.372L76.462 21.288C76.2193 21.2507 75.9673 21.2133 75.706 21.176C75.4633 21.1387 75.2113 21.1107 74.95 21.092C74.6887 21.092 74.4273 21.0173 74.166 20.868C73.9233 20.7373 73.7553 20.532 73.662 20.252C73.6433 20.1587 73.6153 20.0653 73.578 19.972C73.5593 19.8787 73.5407 19.7853 73.522 19.692C73.522 19.468 73.5687 19.3 73.662 19.188C73.7553 19.0947 73.83 19.0013 73.886 18.908C73.9607 18.8147 74.0353 18.7307 74.11 18.656C74.1473 18.6187 74.1847 18.5907 74.222 18.572C74.2593 18.5533 74.2967 18.5347 74.334 18.516C74.4273 18.46 74.5207 18.4227 74.614 18.404C74.7073 18.3667 74.8007 18.3387 74.894 18.32C74.9313 18.3013 74.9593 18.3013 74.978 18.32C75.0153 18.32 75.0433 18.32 75.062 18.32C75.1553 18.3387 75.258 18.3573 75.37 18.376C75.482 18.376 75.5847 18.3947 75.678 18.432L76.854 18.6C77.1153 18.6373 77.3487 18.6 77.554 18.488C77.6287 18.4507 77.694 18.4133 77.75 18.376C77.8247 18.3387 77.89 18.3013 77.946 18.264C78.3567 18.0213 78.7113 17.7693 79.01 17.508C79.234 17.3027 79.4487 17.0973 79.654 16.892C79.8593 16.6867 80.046 16.4627 80.214 16.22C80.3447 16.052 80.4287 15.884 80.466 15.716C80.5033 15.5293 80.5127 15.3427 80.494 15.156L80.41 14.932C80.3913 14.8387 80.354 14.764 80.298 14.708C80.242 14.652 80.186 14.5867 80.13 14.512C80.018 14.4187 79.906 14.316 79.794 14.204C79.7007 14.092 79.598 13.9987 79.486 13.924C79.206 13.7 78.926 13.4853 78.646 13.28C78.3847 13.0747 78.114 12.8693 77.834 12.664C77.8153 12.6267 77.7593 12.5893 77.666 12.552C77.498 12.44 77.33 12.3187 77.162 12.188C77.0127 12.0387 76.8633 11.8987 76.714 11.768C76.5273 11.5813 76.322 11.404 76.098 11.236C75.986 11.18 75.8833 11.0867 75.79 10.956C75.7153 10.8627 75.6033 10.7693 75.454 10.676C75.3233 10.6013 75.202 10.5173 75.09 10.424C74.978 10.312 74.866 10.2093 74.754 10.116L74.39 9.78C74.3153 9.68667 74.2313 9.60267 74.138 9.528C74.0633 9.43467 73.9793 9.34133 73.886 9.248C73.8487 9.15467 73.7927 9.08 73.718 9.024C73.662 8.968 73.606 8.90267 73.55 8.828C73.5313 8.79067 73.5033 8.75333 73.466 8.716C73.4287 8.66 73.4007 8.604 73.382 8.548C73.27 8.324 73.1487 8.1 73.018 7.876C72.906 7.652 72.8033 7.41867 72.71 7.176C72.654 7.02667 72.598 6.88667 72.542 6.756C72.5047 6.60667 72.4673 6.46667 72.43 6.336C72.4113 6.18667 72.374 6.056 72.318 5.944C72.2807 5.81333 72.2433 5.68267 72.206 5.552C72.1687 5.34667 72.122 5.15067 72.066 4.964C72.0287 4.75867 71.9913 4.56267 71.954 4.376L71.898 4.152C71.8793 3.94667 71.8793 3.75067 71.898 3.564C71.9353 3.30267 71.9913 3.06933 72.066 2.864C72.1407 2.64 72.262 2.46267 72.43 2.332C72.6167 2.18267 72.8033 2.03333 72.99 1.884C73.1767 1.73467 73.3727 1.61333 73.578 1.52C73.6153 1.52 73.6433 1.51067 73.662 1.492C73.8487 1.34267 74.054 1.24 74.278 1.184C74.502 1.10933 74.726 1.044 74.95 0.987999C75.846 0.726666 76.77 0.530666 77.722 0.399999H78.002C78.1887 0.399999 78.366 0.399999 78.534 0.399999C78.702 0.399999 78.8793 0.390665 79.066 0.371999C79.29 0.371999 79.514 0.399999 79.738 0.456C79.962 0.493332 80.1767 0.558666 80.382 0.651999C80.5313 0.726666 80.6807 0.810666 80.83 0.903999C80.9793 0.978666 81.1193 1.06267 81.25 1.156C81.3993 1.268 81.4927 1.38933 81.53 1.52L81.614 1.716C81.7073 1.884 81.754 2.06133 81.754 2.248C81.7727 2.416 81.7633 2.59333 81.726 2.78C81.726 2.836 81.7167 2.90133 81.698 2.976C81.698 3.032 81.698 3.088 81.698 3.144C81.642 3.55467 81.446 3.872 81.11 4.096C80.9047 4.28267 80.634 4.35733 80.298 4.32C80.2233 4.28267 80.186 4.30133 80.186 4.376C80.186 4.45067 80.1393 4.488 80.046 4.488H79.878C79.766 4.488 79.654 4.432 79.542 4.32C79.4487 4.22667 79.402 4.152 79.402 4.096C79.402 4.02133 79.4393 3.96533 79.514 3.928C79.4767 3.83467 79.4393 3.75067 79.402 3.676C79.3647 3.60133 79.3273 3.54533 79.29 3.508C79.234 3.41467 79.15 3.34933 79.038 3.312C78.9447 3.29333 78.8513 3.27467 78.758 3.256C78.6647 3.23733 78.5713 3.21867 78.478 3.2C78.4033 3.2 78.3193 3.2 78.226 3.2C78.1327 3.18133 78.0393 3.16267 77.946 3.144C77.89 3.12533 77.806 3.13467 77.694 3.172C77.638 3.19067 77.582 3.20933 77.526 3.228C77.47 3.228 77.4047 3.21867 77.33 3.2C77.274 3.2 77.2087 3.2 77.134 3.2C77.078 3.2 77.0127 3.21867 76.938 3.256L76.406 3.34C76.1073 3.396 75.818 3.508 75.538 3.676C75.482 3.69467 75.426 3.71333 75.37 3.732C75.314 3.75067 75.258 3.75067 75.202 3.732C75.09 3.71333 74.9967 3.74133 74.922 3.816C74.9033 3.85333 74.8567 3.88133 74.782 3.9C74.726 3.9 74.6793 3.91867 74.642 3.956C74.5673 4.03067 74.53 4.10533 74.53 4.18C74.5487 4.21733 74.558 4.27333 74.558 4.348L75.146 6.056C75.258 6.35467 75.398 6.63467 75.566 6.896C75.7527 7.13867 75.9487 7.38133 76.154 7.624C76.4713 7.99733 76.798 8.31467 77.134 8.576L78.03 9.332C78.2167 9.5 78.4127 9.65867 78.618 9.808C78.8233 9.95733 79.0193 10.1067 79.206 10.256C79.486 10.4613 79.766 10.676 80.046 10.9C80.326 11.1053 80.606 11.32 80.886 11.544C81.11 11.7307 81.3247 11.9173 81.53 12.104C81.754 12.272 81.9593 12.4587 82.146 12.664C82.2767 12.8133 82.4073 12.9627 82.538 13.112C82.6687 13.2613 82.7807 13.4293 82.874 13.616C83.0047 13.8213 83.1167 14.064 83.21 14.344C83.322 14.6987 83.3687 15.0347 83.35 15.352C83.3313 15.3893 83.322 15.4453 83.322 15.52C83.322 15.744 83.294 15.9587 83.238 16.164C83.2007 16.3507 83.1353 16.5467 83.042 16.752C82.9487 16.9387 82.846 17.1347 82.734 17.34C82.6407 17.5267 82.5287 17.7133 82.398 17.9C82.2113 18.1427 82.0153 18.376 81.81 18.6C81.6233 18.8053 81.4087 19.0107 81.166 19.216C81.0353 19.328 80.9047 19.4493 80.774 19.58C80.6433 19.692 80.5033 19.7947 80.354 19.888C80.2607 19.9627 80.1673 20.028 80.074 20.084C79.9807 20.1587 79.8873 20.2333 79.794 20.308C79.7193 20.3453 79.6447 20.392 79.57 20.448C79.4953 20.504 79.4207 20.56 79.346 20.616C79.2713 20.6907 79.178 20.7467 79.066 20.784C78.9727 20.84 78.8793 20.8867 78.786 20.924L77.974 21.26C77.806 21.316 77.638 21.3533 77.47 21.372C77.302 21.3907 77.1247 21.3907 76.938 21.372ZM90.6359 20.28C90.6172 20.2613 90.5892 20.252 90.5519 20.252C90.3652 20.14 90.1786 20.0373 89.9919 19.944C89.8239 19.832 89.6652 19.7107 89.5159 19.58C89.4412 19.5427 89.3946 19.5053 89.3759 19.468C89.2079 19.3747 89.0586 19.2627 88.9279 19.132C88.7972 18.9827 88.6759 18.824 88.5639 18.656C88.5266 18.6187 88.4892 18.572 88.4519 18.516C88.4146 18.46 88.3679 18.404 88.3119 18.348C88.1252 18.1613 87.9759 17.9373 87.8639 17.676C87.8452 17.62 87.8172 17.564 87.7799 17.508C87.7426 17.452 87.7052 17.396 87.6679 17.34C87.5559 17.1907 87.4719 17.0507 87.4159 16.92C87.3786 16.7707 87.3226 16.6307 87.2479 16.5C87.1732 16.3507 87.0986 16.2107 87.0239 16.08C87.0052 16.0053 86.9772 15.9307 86.9399 15.856C86.9026 15.7813 86.8746 15.7067 86.8559 15.632C86.8559 15.5387 86.8279 15.436 86.7719 15.324C86.6972 15.1187 86.6226 14.9133 86.5479 14.708C86.4919 14.484 86.4359 14.26 86.3799 14.036C86.3426 13.9613 86.3239 13.9053 86.3239 13.868C86.2119 13.6253 86.1279 13.3733 86.0719 13.112C86.0159 12.8507 85.9599 12.5987 85.9039 12.356L85.7359 11.096C85.7172 11.0587 85.7079 11.012 85.7079 10.956C85.7079 10.9 85.7079 10.8533 85.7079 10.816C85.7079 10.704 85.7079 10.6013 85.7079 10.508C85.7079 10.396 85.6892 10.284 85.6519 10.172C85.6146 9.92933 85.6239 9.70533 85.6799 9.5C85.6799 9.42533 85.6799 9.36 85.6799 9.304C85.6986 9.22933 85.7079 9.15467 85.7079 9.08C85.7079 8.98667 85.7079 8.89333 85.7079 8.8C85.7266 8.688 85.7452 8.59467 85.7639 8.52C85.7826 8.464 85.7919 8.38933 85.7919 8.296C85.8292 8.128 85.8479 7.96933 85.8479 7.82C85.8666 7.652 85.8852 7.49333 85.9039 7.344C85.9599 7.08267 85.9879 6.83067 85.9879 6.588C85.9879 6.51333 85.9879 6.448 85.9879 6.392C86.0066 6.31733 86.0252 6.24267 86.0439 6.168C86.0439 6 86.0346 5.87867 86.0159 5.804C85.9599 5.72933 85.9506 5.62667 85.9879 5.496C86.0252 5.42133 86.0439 5.36533 86.0439 5.328C86.0626 5.29067 86.0719 5.25333 86.0719 5.216C86.0719 5.16 86.0999 5.12267 86.1559 5.104H86.3519C86.4266 5.104 86.4732 5.076 86.4919 5.02C86.5106 4.94533 86.5759 4.88933 86.6879 4.852C86.7812 4.81467 86.8652 4.78667 86.9399 4.768C87.0146 4.73067 87.0892 4.684 87.1639 4.628C87.2199 4.59067 87.2852 4.572 87.3599 4.572C87.4346 4.572 87.5092 4.58133 87.5839 4.6L88.0879 4.768C88.1066 4.78667 88.1159 4.796 88.1159 4.796C88.1346 4.796 88.1532 4.80533 88.1719 4.824C88.3212 4.97333 88.4426 5.14133 88.5359 5.328C88.6479 5.51467 88.7132 5.72 88.7319 5.944C88.7319 6.01867 88.7319 6.09333 88.7319 6.168C88.7319 6.224 88.7132 6.28933 88.6759 6.364C88.6572 6.476 88.6386 6.588 88.6199 6.7C88.6012 6.812 88.5826 6.93333 88.5639 7.064C88.5266 7.25067 88.4986 7.43733 88.4799 7.624C88.4799 7.792 88.4799 7.96933 88.4799 8.156C88.4612 8.23067 88.4519 8.30533 88.4519 8.38C88.4519 8.436 88.4426 8.50133 88.4239 8.576C88.4052 8.8 88.3959 9.024 88.3959 9.248C88.3959 9.472 88.4146 9.68667 88.4519 9.892C88.4519 9.91067 88.4519 9.93867 88.4519 9.976C88.4706 10.0133 88.4706 10.0507 88.4519 10.088C88.4519 10.2747 88.4706 10.4707 88.5079 10.676C88.5452 10.8813 88.5732 11.0867 88.5919 11.292C88.6106 11.4787 88.6292 11.656 88.6479 11.824C88.6666 11.992 88.6946 12.16 88.7319 12.328C88.7692 12.4027 88.7879 12.4773 88.7879 12.552C88.8066 12.6267 88.8252 12.7013 88.8439 12.776C88.9186 13.1307 89.0026 13.476 89.0959 13.812C89.1892 14.148 89.3106 14.484 89.4599 14.82C89.5532 15.0253 89.6466 15.2027 89.7399 15.352C89.8892 15.6133 90.0199 15.8747 90.1319 16.136C90.2066 16.2667 90.2812 16.3973 90.3559 16.528C90.4306 16.64 90.5052 16.7613 90.5799 16.892C90.6546 16.9853 90.7292 17.0693 90.8039 17.144C90.8786 17.2187 90.9532 17.3027 91.0279 17.396C91.1212 17.4893 91.2426 17.5173 91.3919 17.48C91.4852 17.4427 91.5506 17.4053 91.5879 17.368C91.6812 17.312 91.7652 17.256 91.8399 17.2C91.9332 17.144 92.0172 17.0787 92.0919 17.004C92.2972 16.7987 92.4839 16.5933 92.6519 16.388C92.8386 16.1827 92.9972 15.9587 93.1279 15.716C93.2399 15.5107 93.3519 15.296 93.4639 15.072C93.5759 14.848 93.6786 14.624 93.7719 14.4C93.8839 14.1387 93.9866 13.8773 94.0799 13.616C94.1919 13.3547 94.2946 13.084 94.3879 12.804C94.4626 12.6173 94.5186 12.4307 94.5559 12.244C94.6119 12.0387 94.6492 11.8427 94.6679 11.656C94.7052 11.4507 94.7332 11.2453 94.7519 11.04C94.7892 10.816 94.7986 10.6013 94.7799 10.396C94.7799 10.34 94.7799 10.284 94.7799 10.228C94.7986 10.172 94.8079 10.116 94.8079 10.06C94.8452 9.92933 94.8546 9.808 94.8359 9.696C94.8359 9.584 94.8266 9.472 94.8079 9.36C94.7892 9.04267 94.7612 8.744 94.7239 8.464C94.7052 8.16533 94.6866 7.86667 94.6679 7.568C94.6679 7.41867 94.6586 7.316 94.6399 7.26C94.6212 7.092 94.6026 6.924 94.5839 6.756C94.5839 6.588 94.5652 6.42 94.5279 6.252V6.028C94.5279 5.84133 94.5186 5.664 94.4999 5.496C94.4999 5.30933 94.4999 5.12267 94.4999 4.936C94.4999 4.78667 94.4906 4.656 94.4719 4.544C94.4719 4.41333 94.4719 4.28267 94.4719 4.152C94.4719 3.984 94.4999 3.844 94.5559 3.732C94.6119 3.63867 94.6306 3.564 94.6119 3.508C94.5559 3.396 94.5839 3.312 94.6959 3.256C94.7892 3.16267 94.8826 3.088 94.9759 3.032C95.0879 2.976 95.2092 2.93867 95.3399 2.92C95.3772 2.90133 95.4052 2.892 95.4239 2.892C95.4612 2.892 95.4892 2.88267 95.5079 2.864C95.6199 2.77067 95.7692 2.74267 95.9559 2.78C95.9932 2.79867 96.0492 2.808 96.1239 2.808C96.2919 2.84533 96.4132 2.91067 96.4879 3.004C96.5439 3.06 96.6279 3.12533 96.7399 3.2C96.8892 3.27467 96.9919 3.368 97.0479 3.48C97.1039 3.592 97.1412 3.71333 97.1599 3.844C97.1972 4.03067 97.2252 4.208 97.2439 4.376C97.2812 4.544 97.2906 4.72133 97.2719 4.908V5.16C97.2719 5.34667 97.2719 5.53333 97.2719 5.72C97.2906 5.888 97.3092 6.06533 97.3279 6.252C97.3466 6.308 97.3559 6.37333 97.3559 6.448C97.3559 6.504 97.3559 6.56 97.3559 6.616C97.3559 6.728 97.3559 6.84 97.3559 6.952C97.3746 7.04533 97.3932 7.148 97.4119 7.26C97.4306 7.29733 97.4399 7.35333 97.4399 7.428C97.4212 7.61467 97.4212 7.80133 97.4399 7.988C97.4772 8.156 97.5052 8.33333 97.5239 8.52C97.5426 8.70667 97.5519 8.90267 97.5519 9.108C97.5706 9.31333 97.5799 9.51867 97.5799 9.724C97.5986 9.74267 97.5986 9.77067 97.5799 9.808C97.5799 9.84533 97.5799 9.88267 97.5799 9.92C97.5239 10.088 97.5146 10.284 97.5519 10.508C97.5892 10.7507 97.5799 10.984 97.5239 11.208C97.5052 11.376 97.4866 11.544 97.4679 11.712C97.4492 11.88 97.4212 12.0573 97.3839 12.244C97.3466 12.5427 97.2812 12.8413 97.1879 13.14C97.0946 13.4387 97.0012 13.7373 96.9079 14.036C96.9079 14.0733 96.8799 14.1387 96.8239 14.232C96.7492 14.3627 96.6839 14.5027 96.6279 14.652C96.5719 14.7827 96.5252 14.9227 96.4879 15.072L96.4039 15.268C96.3106 15.4547 96.2266 15.6413 96.1519 15.828C96.0959 15.996 96.0212 16.1733 95.9279 16.36C95.8719 16.472 95.8159 16.584 95.7599 16.696C95.7039 16.808 95.6386 16.9107 95.5639 17.004C95.5452 17.0413 95.5172 17.0787 95.4799 17.116C95.4426 17.2467 95.3866 17.368 95.3119 17.48C95.2372 17.592 95.1626 17.704 95.0879 17.816C94.8826 18.1333 94.6399 18.432 94.3599 18.712C94.0986 18.992 93.8092 19.2533 93.4919 19.496L93.1559 19.692C92.8946 19.8227 92.6146 19.9347 92.3159 20.028C92.0359 20.1213 91.7466 20.1867 91.4479 20.224C91.3546 20.2427 91.2519 20.2427 91.1399 20.224C91.0839 20.224 91.0279 20.224 90.9719 20.224C90.9159 20.224 90.8599 20.2427 90.8039 20.28H90.6359ZM103.857 21.092C103.446 21.1667 103.082 21.036 102.765 20.7C102.709 20.644 102.653 20.5787 102.597 20.504C102.56 20.4293 102.513 20.3547 102.457 20.28L102.373 20.056C102.224 19.664 102.093 19.272 101.981 18.88C101.888 18.4693 101.813 18.0587 101.757 17.648C101.701 17.368 101.673 17.1067 101.673 16.864C101.654 16.6213 101.626 16.3787 101.589 16.136C101.57 15.8933 101.561 15.6507 101.561 15.408C101.561 15.296 101.561 15.184 101.561 15.072C101.561 14.9413 101.542 14.8107 101.505 14.68V14.624C101.486 14.4187 101.468 14.2133 101.449 14.008C101.449 13.784 101.43 13.5693 101.393 13.364L101.309 12.076C101.29 11.8893 101.272 11.712 101.253 11.544C101.234 11.376 101.206 11.1987 101.169 11.012C101.169 10.9373 101.16 10.872 101.141 10.816C101.141 10.7413 101.141 10.6667 101.141 10.592C101.141 10.4427 101.141 10.2933 101.141 10.144C101.141 9.99467 101.132 9.85467 101.113 9.724C101.094 9.64933 101.085 9.54667 101.085 9.416V8.52C101.104 8.25867 101.094 7.99733 101.057 7.736C101.02 7.47467 100.982 7.22267 100.945 6.98L100.693 5.468C100.674 5.43067 100.665 5.384 100.665 5.328C100.665 5.272 100.665 5.22533 100.665 5.188C100.665 5.15067 100.665 5.104 100.665 5.048C100.665 4.992 100.656 4.94533 100.637 4.908C100.581 4.70267 100.572 4.516 100.609 4.348C100.646 4.16133 100.693 3.97467 100.749 3.788C100.768 3.76933 100.796 3.72267 100.833 3.648C100.926 3.55467 101.01 3.47067 101.085 3.396C101.16 3.30267 101.253 3.228 101.365 3.172C101.477 3.13467 101.561 3.05067 101.617 2.92L101.701 2.724C101.888 2.388 102.177 2.15467 102.569 2.024C102.588 2.00533 102.606 1.996 102.625 1.996C102.662 1.996 102.69 1.98667 102.709 1.968C102.952 1.856 103.204 1.84667 103.465 1.94C103.558 1.95867 103.652 1.98667 103.745 2.024C103.838 2.04267 103.922 2.07067 103.997 2.108C104.128 2.164 104.249 2.22933 104.361 2.304C104.473 2.36 104.594 2.416 104.725 2.472C105.061 2.64 105.397 2.808 105.733 2.976C106.069 3.12533 106.405 3.27467 106.741 3.424L107.469 3.76C107.581 3.816 107.693 3.872 107.805 3.928C107.917 3.96533 108.029 4.012 108.141 4.068L108.365 4.152C108.477 4.22667 108.589 4.30133 108.701 4.376C108.813 4.432 108.934 4.49733 109.065 4.572C109.252 4.66533 109.429 4.78667 109.597 4.936C109.765 5.08533 109.914 5.23467 110.045 5.384C110.157 5.496 110.222 5.59867 110.241 5.692C110.297 5.84133 110.353 6 110.409 6.168C110.465 6.31733 110.502 6.46667 110.521 6.616C110.558 6.69067 110.558 6.77467 110.521 6.868C110.465 6.99867 110.409 7.13867 110.353 7.288C110.316 7.41867 110.278 7.55867 110.241 7.708C110.11 8.06267 109.905 8.38 109.625 8.66C109.382 8.90267 109.149 9.09867 108.925 9.248C108.832 9.304 108.738 9.36933 108.645 9.444C108.552 9.5 108.458 9.556 108.365 9.612C108.16 9.74267 107.945 9.864 107.721 9.976C107.497 10.088 107.264 10.1813 107.021 10.256C106.965 10.256 106.918 10.2747 106.881 10.312C106.694 10.3867 106.517 10.4613 106.349 10.536C106.181 10.6107 106.013 10.6947 105.845 10.788C105.677 10.8813 105.565 11.012 105.509 11.18C105.509 11.1987 105.5 11.2173 105.481 11.236C105.481 11.236 105.481 11.2547 105.481 11.292C105.462 11.4413 105.397 11.572 105.285 11.684C105.192 11.796 105.098 11.9173 105.005 12.048C105.005 12.0667 104.996 12.076 104.977 12.076C104.958 12.076 104.94 12.0853 104.921 12.104L104.585 12.272C104.492 12.3093 104.445 12.3933 104.445 12.524C104.445 12.5987 104.445 12.6827 104.445 12.776C104.445 12.8507 104.454 12.9253 104.473 13L104.585 13.616C104.585 13.6907 104.585 13.7653 104.585 13.84C104.604 13.896 104.604 13.9707 104.585 14.064C104.585 14.2133 104.585 14.372 104.585 14.54C104.604 14.708 104.622 14.8667 104.641 15.016C104.66 15.0907 104.669 15.1653 104.669 15.24C104.669 15.296 104.669 15.3613 104.669 15.436C104.669 15.5293 104.669 15.632 104.669 15.744C104.688 15.8373 104.706 15.9307 104.725 16.024C104.725 16.0427 104.725 16.0707 104.725 16.108C104.744 16.1267 104.753 16.1547 104.753 16.192C104.734 16.416 104.734 16.6493 104.753 16.892C104.79 17.116 104.818 17.34 104.837 17.564V17.676C104.818 17.8253 104.809 17.984 104.809 18.152C104.828 18.3013 104.837 18.46 104.837 18.628C104.837 18.8707 104.874 19.076 104.949 19.244C105.005 19.356 105.024 19.468 105.005 19.58C104.986 19.692 104.958 19.804 104.921 19.916C104.902 19.972 104.874 20.028 104.837 20.084C104.818 20.1587 104.79 20.224 104.753 20.28C104.604 20.5787 104.408 20.812 104.165 20.98C104.053 21.0547 103.95 21.092 103.857 21.092ZM104.193 8.856L104.361 8.772C104.678 8.56667 104.996 8.38 105.313 8.212C105.649 8.044 105.985 7.876 106.321 7.708L106.853 7.428C106.965 7.35333 107.068 7.288 107.161 7.232C107.273 7.176 107.376 7.11067 107.469 7.036C107.488 7.01733 107.516 6.97067 107.553 6.896C107.572 6.896 107.581 6.88667 107.581 6.868C107.581 6.84933 107.572 6.84 107.553 6.84C107.497 6.784 107.469 6.756 107.469 6.756C107.376 6.7 107.273 6.644 107.161 6.588C107.049 6.51333 106.937 6.448 106.825 6.392C106.732 6.35467 106.629 6.308 106.517 6.252C106.405 6.196 106.293 6.14 106.181 6.084C105.733 5.87867 105.294 5.67333 104.865 5.468C104.734 5.412 104.604 5.36533 104.473 5.328C104.361 5.272 104.24 5.216 104.109 5.16C104.109 5.16 104.072 5.14133 103.997 5.104C103.922 5.104 103.885 5.132 103.885 5.188C103.866 5.26267 103.848 5.33733 103.829 5.412C103.81 5.468 103.792 5.53333 103.773 5.608V6.532C103.773 6.7 103.773 6.868 103.773 7.036C103.792 7.204 103.82 7.36267 103.857 7.512C103.857 7.64267 103.866 7.78267 103.885 7.932C103.904 8.06267 103.922 8.20267 103.941 8.352L104.025 8.8C104.062 8.87467 104.118 8.89333 104.193 8.856ZM116.326 21.092C115.915 21.1667 115.551 21.036 115.234 20.7C115.178 20.644 115.122 20.5787 115.066 20.504C115.028 20.4293 114.982 20.3547 114.926 20.28L114.842 20.056C114.692 19.664 114.562 19.272 114.45 18.88C114.356 18.4693 114.282 18.0587 114.226 17.648C114.17 17.368 114.142 17.1067 114.142 16.864C114.123 16.6213 114.095 16.3787 114.058 16.136C114.039 15.8933 114.03 15.6507 114.03 15.408C114.03 15.296 114.03 15.184 114.03 15.072C114.03 14.9413 114.011 14.8107 113.974 14.68V14.624C113.955 14.4187 113.936 14.2133 113.918 14.008C113.918 13.784 113.899 13.5693 113.862 13.364L113.778 12.076C113.759 11.8893 113.74 11.712 113.722 11.544C113.703 11.376 113.675 11.1987 113.638 11.012C113.638 10.9373 113.628 10.872 113.61 10.816C113.61 10.7413 113.61 10.6667 113.61 10.592C113.61 10.4427 113.61 10.2933 113.61 10.144C113.61 9.99467 113.6 9.85467 113.582 9.724C113.563 9.64933 113.554 9.54667 113.554 9.416V8.52C113.572 8.25867 113.563 7.99733 113.526 7.736C113.488 7.47467 113.451 7.22267 113.414 6.98L113.162 5.468C113.143 5.43067 113.134 5.384 113.134 5.328C113.134 5.272 113.134 5.22533 113.134 5.188C113.134 5.15067 113.134 5.104 113.134 5.048C113.134 4.992 113.124 4.94533 113.106 4.908C113.05 4.70267 113.04 4.516 113.078 4.348C113.115 4.16133 113.162 3.97467 113.218 3.788C113.236 3.76933 113.264 3.72267 113.302 3.648C113.395 3.55467 113.479 3.47067 113.554 3.396C113.628 3.30267 113.722 3.228 113.834 3.172C113.946 3.13467 114.03 3.05067 114.086 2.92L114.17 2.724C114.356 2.388 114.646 2.15467 115.038 2.024C115.056 2.00533 115.075 1.996 115.094 1.996C115.131 1.996 115.159 1.98667 115.178 1.968C115.42 1.856 115.672 1.84667 115.934 1.94C116.027 1.95867 116.12 1.98667 116.214 2.024C116.307 2.04267 116.391 2.07067 116.466 2.108C116.596 2.164 116.718 2.22933 116.83 2.304C116.942 2.36 117.063 2.416 117.194 2.472C117.53 2.64 117.866 2.808 118.202 2.976C118.538 3.12533 118.874 3.27467 119.21 3.424L119.938 3.76C120.05 3.816 120.162 3.872 120.274 3.928C120.386 3.96533 120.498 4.012 120.61 4.068L120.834 4.152C120.946 4.22667 121.058 4.30133 121.17 4.376C121.282 4.432 121.403 4.49733 121.534 4.572C121.72 4.66533 121.898 4.78667 122.066 4.936C122.234 5.08533 122.383 5.23467 122.514 5.384C122.626 5.496 122.691 5.59867 122.71 5.692C122.766 5.84133 122.822 6 122.878 6.168C122.934 6.31733 122.971 6.46667 122.99 6.616C123.027 6.69067 123.027 6.77467 122.99 6.868C122.934 6.99867 122.878 7.13867 122.822 7.288C122.784 7.41867 122.747 7.55867 122.71 7.708C122.579 8.06267 122.374 8.38 122.094 8.66C121.851 8.90267 121.618 9.09867 121.394 9.248C121.3 9.304 121.207 9.36933 121.114 9.444C121.02 9.5 120.927 9.556 120.834 9.612C120.628 9.74267 120.414 9.864 120.19 9.976C119.966 10.088 119.732 10.1813 119.49 10.256C119.434 10.256 119.387 10.2747 119.35 10.312C119.163 10.3867 118.986 10.4613 118.818 10.536C118.65 10.6107 118.482 10.6947 118.314 10.788C118.146 10.8813 118.034 11.012 117.978 11.18C117.978 11.1987 117.968 11.2173 117.95 11.236C117.95 11.236 117.95 11.2547 117.95 11.292C117.931 11.4413 117.866 11.572 117.754 11.684C117.66 11.796 117.567 11.9173 117.474 12.048C117.474 12.0667 117.464 12.076 117.446 12.076C117.427 12.076 117.408 12.0853 117.39 12.104L117.054 12.272C116.96 12.3093 116.914 12.3933 116.914 12.524C116.914 12.5987 116.914 12.6827 116.914 12.776C116.914 12.8507 116.923 12.9253 116.942 13L117.054 13.616C117.054 13.6907 117.054 13.7653 117.054 13.84C117.072 13.896 117.072 13.9707 117.054 14.064C117.054 14.2133 117.054 14.372 117.054 14.54C117.072 14.708 117.091 14.8667 117.11 15.016C117.128 15.0907 117.138 15.1653 117.138 15.24C117.138 15.296 117.138 15.3613 117.138 15.436C117.138 15.5293 117.138 15.632 117.138 15.744C117.156 15.8373 117.175 15.9307 117.194 16.024C117.194 16.0427 117.194 16.0707 117.194 16.108C117.212 16.1267 117.222 16.1547 117.222 16.192C117.203 16.416 117.203 16.6493 117.222 16.892C117.259 17.116 117.287 17.34 117.306 17.564V17.676C117.287 17.8253 117.278 17.984 117.278 18.152C117.296 18.3013 117.306 18.46 117.306 18.628C117.306 18.8707 117.343 19.076 117.418 19.244C117.474 19.356 117.492 19.468 117.474 19.58C117.455 19.692 117.427 19.804 117.39 19.916C117.371 19.972 117.343 20.028 117.306 20.084C117.287 20.1587 117.259 20.224 117.222 20.28C117.072 20.5787 116.876 20.812 116.634 20.98C116.522 21.0547 116.419 21.092 116.326 21.092ZM116.662 8.856L116.83 8.772C117.147 8.56667 117.464 8.38 117.782 8.212C118.118 8.044 118.454 7.876 118.79 7.708L119.322 7.428C119.434 7.35333 119.536 7.288 119.63 7.232C119.742 7.176 119.844 7.11067 119.938 7.036C119.956 7.01733 119.984 6.97067 120.022 6.896C120.04 6.896 120.05 6.88667 120.05 6.868C120.05 6.84933 120.04 6.84 120.022 6.84C119.966 6.784 119.938 6.756 119.938 6.756C119.844 6.7 119.742 6.644 119.63 6.588C119.518 6.51333 119.406 6.448 119.294 6.392C119.2 6.35467 119.098 6.308 118.986 6.252C118.874 6.196 118.762 6.14 118.65 6.084C118.202 5.87867 117.763 5.67333 117.334 5.468C117.203 5.412 117.072 5.36533 116.942 5.328C116.83 5.272 116.708 5.216 116.578 5.16C116.578 5.16 116.54 5.14133 116.466 5.104C116.391 5.104 116.354 5.132 116.354 5.188C116.335 5.26267 116.316 5.33733 116.298 5.412C116.279 5.468 116.26 5.53333 116.242 5.608V6.532C116.242 6.7 116.242 6.868 116.242 7.036C116.26 7.204 116.288 7.36267 116.326 7.512C116.326 7.64267 116.335 7.78267 116.354 7.932C116.372 8.06267 116.391 8.20267 116.41 8.352L116.494 8.8C116.531 8.87467 116.587 8.89333 116.662 8.856ZM130.799 20.56C130.612 20.5413 130.426 20.5133 130.239 20.476C130.071 20.4573 129.903 20.4107 129.735 20.336L129.035 20.084C128.792 19.9907 128.568 19.888 128.363 19.776C128.158 19.6453 127.952 19.5147 127.747 19.384C127.654 19.2907 127.56 19.2067 127.467 19.132C127.374 19.0387 127.28 18.9547 127.187 18.88C127.038 18.7307 126.888 18.5813 126.739 18.432C126.59 18.264 126.45 18.0867 126.319 17.9L125.647 16.864C125.479 16.6027 125.33 16.332 125.199 16.052C125.068 15.7533 124.956 15.4547 124.863 15.156C124.658 14.596 124.555 14.0453 124.555 13.504V13.056C124.555 12.5893 124.583 12.132 124.639 11.684C124.676 11.3107 124.76 10.9747 124.891 10.676C124.966 10.4893 125.031 10.3027 125.087 10.116C125.143 9.92933 125.208 9.752 125.283 9.584L125.367 9.388C125.404 9.14533 125.488 8.93067 125.619 8.744C125.75 8.53867 125.862 8.34267 125.955 8.156C126.03 8.00667 126.114 7.876 126.207 7.764C126.3 7.63333 126.384 7.50267 126.459 7.372C126.496 7.316 126.543 7.26933 126.599 7.232C126.655 7.176 126.702 7.12 126.739 7.064C126.776 7.02667 126.804 6.98 126.823 6.924C126.86 6.84933 126.888 6.784 126.907 6.728C126.944 6.672 127.01 6.59733 127.103 6.504C127.215 6.448 127.318 6.31733 127.411 6.112C127.448 6.03733 127.486 5.98133 127.523 5.944C127.635 5.85067 127.728 5.73867 127.803 5.608C127.896 5.47733 127.999 5.356 128.111 5.244C128.186 5.16933 128.223 5.06667 128.223 4.936C128.223 4.84267 128.223 4.75867 128.223 4.684C128.242 4.59067 128.242 4.50667 128.223 4.432C128.204 4.33867 128.232 4.25467 128.307 4.18C128.344 4.14267 128.372 4.096 128.391 4.04C128.41 3.984 128.428 3.928 128.447 3.872C128.503 3.68533 128.652 3.52667 128.895 3.396C128.932 3.35867 128.979 3.34 129.035 3.34C129.11 3.32133 129.175 3.30267 129.231 3.284C129.362 3.228 129.511 3.21867 129.679 3.256C129.754 3.27467 129.819 3.284 129.875 3.284C129.931 3.26533 129.987 3.24667 130.043 3.228C130.118 3.19067 130.183 3.16267 130.239 3.144C130.314 3.12533 130.379 3.10667 130.435 3.088C130.696 2.99467 130.967 3.004 131.247 3.116C131.546 3.228 131.76 3.424 131.891 3.704C131.928 3.79733 131.966 3.89067 132.003 3.984C132.04 4.07733 132.068 4.17067 132.087 4.264C132.124 4.46933 132.115 4.64667 132.059 4.796C132.022 4.87067 132.003 4.91733 132.003 4.936C131.984 5.01067 132.003 5.076 132.059 5.132C132.096 5.188 132.143 5.23467 132.199 5.272C132.404 5.45867 132.6 5.64533 132.787 5.832C132.974 6 133.151 6.18667 133.319 6.392C133.468 6.54133 133.59 6.7 133.683 6.868C133.795 7.01733 133.898 7.18533 133.991 7.372C134.028 7.46533 134.075 7.568 134.131 7.68C134.187 7.77333 134.243 7.86667 134.299 7.96C134.392 8.128 134.467 8.30533 134.523 8.492C134.598 8.67867 134.672 8.86533 134.747 9.052V9.08C134.784 9.21067 134.812 9.35067 134.831 9.5C134.868 9.63067 134.924 9.77067 134.999 9.92C135.055 10.0507 135.102 10.1907 135.139 10.34C135.176 10.4707 135.214 10.6107 135.251 10.76C135.288 10.928 135.326 11.096 135.363 11.264C135.419 11.432 135.456 11.6 135.475 11.768C135.494 11.8427 135.512 11.9173 135.531 11.992C135.55 12.048 135.568 12.1133 135.587 12.188C135.624 12.356 135.662 12.524 135.699 12.692C135.736 12.86 135.764 13.028 135.783 13.196L135.867 13.392C135.904 13.504 135.942 13.6533 135.979 13.84C136.035 14.0827 136.063 14.3253 136.063 14.568C136.082 14.8107 136.082 15.0627 136.063 15.324C136.063 15.4547 136.054 15.5573 136.035 15.632C135.923 16.024 135.783 16.4253 135.615 16.836C135.54 16.9667 135.466 17.0973 135.391 17.228C135.316 17.34 135.242 17.4613 135.167 17.592L134.915 17.984C134.822 18.152 134.719 18.3013 134.607 18.432C134.42 18.7307 134.196 18.992 133.935 19.216C133.674 19.44 133.394 19.6547 133.095 19.86C132.442 20.364 131.676 20.5973 130.799 20.56ZM130.687 17.788C131.079 17.788 131.415 17.676 131.695 17.452C131.788 17.3587 131.882 17.2747 131.975 17.2C132.087 17.1067 132.18 17.0133 132.255 16.92C132.61 16.528 132.89 16.1173 133.095 15.688L133.179 15.408C133.216 15.072 133.216 14.736 133.179 14.4L133.011 13.476C132.955 13.2333 132.908 13 132.871 12.776C132.834 12.5333 132.778 12.3 132.703 12.076C132.647 11.9453 132.628 11.8427 132.647 11.768C132.666 11.6747 132.666 11.5813 132.647 11.488C132.628 11.3947 132.6 11.3013 132.563 11.208C132.507 10.9653 132.442 10.7227 132.367 10.48C132.292 10.2373 132.218 9.99467 132.143 9.752C132.124 9.696 132.106 9.64 132.087 9.584C132.068 9.528 132.05 9.472 132.031 9.416C131.9 9.15467 131.76 8.90267 131.611 8.66C131.462 8.41733 131.294 8.19333 131.107 7.988C131.014 7.876 130.911 7.77333 130.799 7.68C130.687 7.568 130.575 7.46533 130.463 7.372C130.444 7.33467 130.416 7.316 130.379 7.316C130.36 7.29733 130.332 7.27867 130.295 7.26C130.239 7.18533 130.164 7.19467 130.071 7.288C129.978 7.38133 129.875 7.484 129.763 7.596C129.67 7.708 129.576 7.82 129.483 7.932C129.39 8.06267 129.287 8.19333 129.175 8.324C129.082 8.45467 128.988 8.58533 128.895 8.716C128.764 8.884 128.643 9.052 128.531 9.22C128.419 9.388 128.307 9.556 128.195 9.724C127.803 10.3587 127.495 11.0587 127.271 11.824C127.234 11.936 127.215 12.02 127.215 12.076C127.196 12.2067 127.178 12.3373 127.159 12.468C127.159 12.5987 127.159 12.7387 127.159 12.888V13.112C127.178 13.168 127.187 13.224 127.187 13.28C127.187 13.336 127.196 13.392 127.215 13.448C127.215 13.672 127.271 13.9147 127.383 14.176C127.532 14.5493 127.7 14.9133 127.887 15.268C128.074 15.6227 128.288 15.9587 128.531 16.276C128.587 16.3507 128.643 16.4253 128.699 16.5C128.774 16.5747 128.839 16.6493 128.895 16.724C129.063 16.9107 129.24 17.0787 129.427 17.228C129.632 17.3773 129.838 17.508 130.043 17.62C130.267 17.732 130.482 17.788 130.687 17.788ZM141.132 20.56C140.777 20.5973 140.488 20.4853 140.264 20.224C140.152 20.112 140.049 19.9907 139.956 19.86C139.862 19.7293 139.788 19.5893 139.732 19.44C139.638 19.1787 139.554 18.9173 139.48 18.656C139.405 18.376 139.34 18.1053 139.284 17.844C139.228 17.6387 139.2 17.4427 139.2 17.256C139.181 17.0507 139.153 16.8547 139.116 16.668C139.097 16.4627 139.088 16.2573 139.088 16.052C139.088 15.94 139.088 15.828 139.088 15.716C139.088 15.5853 139.078 15.464 139.06 15.352C139.041 15.2773 139.032 15.212 139.032 15.156C139.032 15.1 139.032 15.0347 139.032 14.96C139.032 14.6987 139.032 14.4373 139.032 14.176C139.032 13.896 139.022 13.6253 139.004 13.364C139.004 13.2147 138.994 13.084 138.976 12.972C138.957 12.8413 138.92 12.7107 138.864 12.58C138.789 12.3747 138.78 12.1507 138.836 11.908C138.836 11.852 138.845 11.8147 138.864 11.796C138.901 11.6653 138.92 11.5347 138.92 11.404C138.938 11.2733 138.938 11.1427 138.92 11.012C138.901 10.9187 138.892 10.8253 138.892 10.732C138.892 10.6387 138.892 10.5547 138.892 10.48C138.873 10.2747 138.864 10.0693 138.864 9.864C138.882 9.64 138.901 9.42533 138.92 9.22C138.938 9.164 138.948 9.108 138.948 9.052C138.948 8.996 138.948 8.94 138.948 8.884C138.929 8.67867 138.929 8.48267 138.948 8.296C138.985 8.10933 139.013 7.92267 139.032 7.736C139.069 7.512 139.106 7.29733 139.144 7.092C139.181 6.868 139.228 6.644 139.284 6.42C139.321 6.32667 139.34 6.224 139.34 6.112C139.34 6 139.34 5.888 139.34 5.776C139.34 5.68267 139.33 5.58933 139.312 5.496C139.312 5.40267 139.312 5.31867 139.312 5.244C139.312 5.188 139.312 5.132 139.312 5.076C139.312 5.02 139.321 4.964 139.34 4.908C139.358 4.852 139.368 4.796 139.368 4.74C139.368 4.684 139.377 4.64667 139.396 4.628C139.452 4.55333 139.498 4.488 139.535 4.432C139.573 4.35733 139.629 4.292 139.704 4.236C139.797 4.18 139.881 4.124 139.956 4.068C140.049 4.012 140.133 3.96533 140.208 3.928C140.301 3.89067 140.376 3.844 140.432 3.788C140.506 3.69467 140.581 3.61067 140.656 3.536C140.749 3.44267 140.824 3.34 140.88 3.228C140.973 3.13467 141.066 3.032 141.16 2.92C141.272 2.78933 141.393 2.68667 141.524 2.612C141.561 2.59333 141.617 2.54667 141.692 2.472C141.916 2.26667 142.177 2.136 142.476 2.08C142.532 2.06133 142.578 2.052 142.616 2.052C142.672 2.03333 142.728 2.024 142.784 2.024L142.98 1.94C143.129 1.884 143.26 1.912 143.372 2.024C143.409 2.08 143.456 2.136 143.512 2.192C143.586 2.22933 143.652 2.26667 143.708 2.304C143.857 2.43467 143.997 2.57467 144.128 2.724C144.277 2.87333 144.408 3.04133 144.52 3.228C144.706 3.52667 144.865 3.82533 144.996 4.124C145.145 4.42267 145.285 4.73067 145.416 5.048L145.919 6.252C145.938 6.364 145.985 6.46667 146.06 6.56C146.209 6.84 146.321 7.12933 146.396 7.428C146.47 7.708 146.545 7.99733 146.62 8.296C146.638 8.33333 146.648 8.37067 146.648 8.408C146.666 8.44533 146.676 8.48267 146.676 8.52C146.713 8.66933 146.741 8.828 146.76 8.996C146.797 9.14533 146.806 9.29467 146.788 9.444C146.806 9.612 146.797 9.78 146.76 9.948C146.741 10.0973 146.713 10.2467 146.676 10.396C146.62 10.5827 146.554 10.76 146.48 10.928C146.405 11.0773 146.321 11.236 146.228 11.404C146.19 11.516 146.125 11.6187 146.032 11.712C145.938 11.8053 145.845 11.8893 145.752 11.964C145.602 12.0387 145.453 12.1507 145.304 12.3C145.266 12.3373 145.22 12.3653 145.164 12.384C145.126 12.4027 145.089 12.4307 145.052 12.468C144.921 12.524 144.781 12.5893 144.632 12.664C144.482 12.72 144.333 12.776 144.184 12.832C144.165 12.832 144.156 12.8507 144.156 12.888C144.156 12.9067 144.165 12.9253 144.184 12.944L144.94 13.476C145.033 13.532 145.117 13.588 145.192 13.644C145.266 13.6813 145.341 13.728 145.416 13.784L145.584 13.868C145.808 13.9987 146.032 14.1387 146.256 14.288C146.48 14.4373 146.694 14.5867 146.9 14.736C147.292 14.9787 147.684 15.2307 148.076 15.492C148.468 15.7347 148.841 16.0053 149.196 16.304C149.513 16.5467 149.793 16.8267 150.036 17.144C150.092 17.2 150.148 17.2653 150.204 17.34C150.26 17.396 150.325 17.4427 150.4 17.48L150.484 17.564C150.782 17.8253 150.95 18.18 150.988 18.628C150.988 18.684 150.978 18.74 150.96 18.796C150.96 18.852 150.96 18.908 150.96 18.964C150.96 19.076 150.922 19.1693 150.848 19.244C150.773 19.2813 150.736 19.328 150.736 19.384C150.68 19.5147 150.596 19.608 150.484 19.664C150.39 19.7013 150.297 19.7573 150.204 19.832C150.166 19.8507 150.101 19.86 150.008 19.86C149.896 19.8413 149.774 19.8227 149.644 19.804C149.532 19.7853 149.42 19.776 149.308 19.776C149.158 19.776 149 19.7107 148.832 19.58C148.72 19.4867 148.617 19.4027 148.524 19.328C148.43 19.2347 148.337 19.1227 148.244 18.992C148.001 18.656 147.684 18.348 147.292 18.068C147.105 17.9187 146.928 17.7787 146.76 17.648C146.592 17.5173 146.405 17.396 146.2 17.284C146.069 17.2093 145.938 17.1347 145.808 17.06C145.696 16.9667 145.565 16.8827 145.416 16.808C144.949 16.4907 144.473 16.1827 143.988 15.884C143.502 15.5667 143.017 15.2493 142.532 14.932C142.457 14.876 142.373 14.82 142.28 14.764C142.186 14.708 142.093 14.652 142 14.596C141.962 14.5587 141.906 14.5213 141.832 14.484C141.757 14.484 141.72 14.512 141.72 14.568C141.72 14.5867 141.71 14.6053 141.692 14.624C141.692 14.624 141.692 14.6333 141.692 14.652C141.692 14.708 141.692 14.764 141.692 14.82C141.692 14.876 141.701 14.932 141.72 14.988C141.738 15.1373 141.748 15.2867 141.748 15.436C141.748 15.5667 141.748 15.7067 141.748 15.856C141.748 15.968 141.748 16.08 141.748 16.192C141.766 16.2853 141.785 16.388 141.803 16.5C141.803 16.556 141.803 16.6213 141.803 16.696C141.822 16.752 141.832 16.808 141.832 16.864C141.813 17.032 141.822 17.2 141.86 17.368C141.897 17.536 141.925 17.704 141.944 17.872L142.112 18.6C142.13 18.6747 142.149 18.7587 142.168 18.852C142.186 18.9267 142.205 19.0107 142.224 19.104C142.242 19.1787 142.242 19.2533 142.224 19.328C142.224 19.384 142.214 19.4493 142.196 19.524C142.196 19.5427 142.177 19.5707 142.14 19.608C142.046 19.6267 141.981 19.692 141.944 19.804C141.888 19.9347 141.804 20.0467 141.692 20.14C141.598 20.252 141.496 20.3547 141.383 20.448C141.365 20.4667 141.328 20.4853 141.272 20.504C141.216 20.5227 141.169 20.5413 141.132 20.56ZM142.224 10.76H142.28C142.485 10.7227 142.69 10.6853 142.896 10.648C143.12 10.592 143.334 10.5267 143.54 10.452C143.745 10.396 143.922 10.2933 144.072 10.144C144.202 10.0133 144.268 9.864 144.268 9.696C144.286 9.56533 144.286 9.444 144.268 9.332C144.268 9.20133 144.249 9.07067 144.212 8.94C144.137 8.604 144.053 8.27733 143.96 7.96C143.866 7.624 143.754 7.30667 143.624 7.008L143.372 6.336C143.316 6.14933 143.25 5.972 143.176 5.804C143.101 5.61733 143.017 5.44 142.924 5.272C142.905 5.23467 142.886 5.19733 142.868 5.16C142.849 5.104 142.83 5.05733 142.812 5.02L142.7 4.908C142.644 4.83333 142.578 4.83333 142.504 4.908C142.485 4.908 142.457 4.92667 142.42 4.964C142.289 5.132 142.168 5.30933 142.056 5.496C141.962 5.68267 141.906 5.888 141.888 6.112C141.869 6.18667 141.85 6.26133 141.832 6.336C141.832 6.41067 141.832 6.49467 141.832 6.588V7.792C141.813 8.05333 141.803 8.324 141.803 8.604C141.822 8.884 141.813 9.15467 141.776 9.416C141.757 9.472 141.748 9.528 141.748 9.584C141.766 9.64 141.776 9.696 141.776 9.752C141.794 9.864 141.803 9.976 141.803 10.088C141.803 10.1813 141.803 10.284 141.803 10.396C141.803 10.5827 141.822 10.6947 141.86 10.732C141.916 10.7693 142.037 10.7787 142.224 10.76ZM157.703 19.972C157.666 19.9533 157.61 19.944 157.535 19.944C157.498 19.944 157.46 19.916 157.423 19.86C157.386 19.804 157.348 19.7573 157.311 19.72C157.274 19.664 157.236 19.5987 157.199 19.524C157.143 19.4493 157.096 19.4493 157.059 19.524H157.003C157.003 19.5053 156.994 19.496 156.975 19.496C156.975 19.4773 156.975 19.468 156.975 19.468C156.919 19.2067 156.835 18.964 156.723 18.74C156.667 18.5907 156.611 18.4413 156.555 18.292C156.518 18.124 156.49 17.956 156.471 17.788L156.303 16.556L156.219 15.548V15.492C156.182 15.268 156.163 15.044 156.163 14.82C156.163 14.5773 156.163 14.3347 156.163 14.092C156.144 13.9613 156.135 13.84 156.135 13.728C156.135 13.5973 156.126 13.4667 156.107 13.336C156.088 13.1867 156.07 13.0373 156.051 12.888C156.051 12.7387 156.051 12.5987 156.051 12.468L156.079 10.256V7.26C156.042 7.148 155.986 7.092 155.911 7.092C155.874 7.092 155.827 7.10133 155.771 7.12C155.734 7.12 155.696 7.12 155.659 7.12L154.399 7.456C154.231 7.512 154.063 7.568 153.895 7.624C153.727 7.66133 153.559 7.708 153.391 7.764C153.26 7.78267 153.13 7.80133 152.999 7.82C152.887 7.82 152.766 7.82 152.635 7.82C152.542 7.82 152.439 7.78267 152.327 7.708C152.196 7.652 152.084 7.57733 151.991 7.484C151.898 7.39067 151.804 7.288 151.711 7.176L151.655 7.092C151.618 6.96133 151.58 6.84 151.543 6.728C151.524 6.59733 151.524 6.46667 151.543 6.336C151.562 6.168 151.599 6.00933 151.655 5.86C151.73 5.71067 151.832 5.58 151.963 5.468C152.019 5.43067 152.066 5.384 152.103 5.328C152.159 5.272 152.215 5.216 152.271 5.16C152.346 5.12267 152.392 5.104 152.411 5.104C152.523 5.104 152.626 5.08533 152.719 5.048C152.812 4.992 152.906 4.95467 152.999 4.936C153.092 4.91733 153.186 4.89867 153.279 4.88C153.372 4.86133 153.466 4.84267 153.559 4.824C153.82 4.74933 154.082 4.684 154.343 4.628C154.604 4.55333 154.866 4.49733 155.127 4.46L156.639 4.208C156.676 4.18933 156.704 4.18 156.723 4.18C156.76 4.18 156.788 4.17067 156.807 4.152C156.919 4.11467 157.031 4.08667 157.143 4.068C157.255 4.04933 157.367 4.05867 157.479 4.096C157.516 4.11467 157.544 4.124 157.563 4.124C157.6 4.10533 157.628 4.096 157.647 4.096C157.964 4.05867 158.282 4.02133 158.599 3.984C158.916 3.94667 159.224 3.9 159.523 3.844C159.766 3.80667 160.008 3.76933 160.251 3.732C160.494 3.69467 160.736 3.66667 160.979 3.648C161.166 3.61067 161.352 3.58267 161.539 3.564C161.726 3.54533 161.912 3.52667 162.099 3.508C162.248 3.48933 162.398 3.47067 162.547 3.452C162.715 3.43333 162.874 3.41467 163.023 3.396C163.172 3.37733 163.312 3.37733 163.443 3.396C163.592 3.396 163.742 3.396 163.891 3.396C163.984 3.396 164.068 3.424 164.143 3.48C164.236 3.536 164.32 3.58267 164.395 3.62C164.47 3.676 164.572 3.76933 164.703 3.9C164.74 3.93733 164.778 4.02133 164.815 4.152C164.834 4.208 164.852 4.27333 164.871 4.348C164.89 4.404 164.908 4.46933 164.927 4.544C164.964 4.712 164.946 4.87067 164.871 5.02L164.703 5.412C164.684 5.468 164.656 5.524 164.619 5.58C164.6 5.61733 164.572 5.65467 164.535 5.692C164.498 5.72933 164.479 5.748 164.479 5.748C164.404 5.804 164.32 5.86 164.227 5.916C164.152 5.972 164.059 6.00933 163.947 6.028L162.743 6.112C162.631 6.112 162.519 6.12133 162.407 6.14C162.295 6.14 162.174 6.14933 162.043 6.168H161.903C161.604 6.18667 161.315 6.21467 161.035 6.252C160.755 6.28933 160.475 6.32667 160.195 6.364L159.075 6.532C159.019 6.532 158.982 6.54133 158.963 6.56C158.888 6.56 158.832 6.616 158.795 6.728V6.812C158.795 6.99867 158.795 7.18533 158.795 7.372C158.795 7.54 158.804 7.71733 158.823 7.904C158.879 8.16533 158.879 8.42667 158.823 8.688C158.804 8.744 158.786 8.8 158.767 8.856C158.767 8.89333 158.767 8.93067 158.767 8.968C158.786 9.192 158.767 9.43467 158.711 9.696C158.711 9.752 158.711 9.808 158.711 9.864C158.711 9.92 158.72 9.976 158.739 10.032C158.758 10.1067 158.767 10.1907 158.767 10.284C158.767 10.3773 158.767 10.4707 158.767 10.564V12.02C158.767 12.0947 158.758 12.188 158.739 12.3C158.739 12.3933 158.739 12.4867 158.739 12.58C158.739 12.6547 158.739 12.7387 158.739 12.832C158.758 12.9253 158.767 13.0187 158.767 13.112C158.767 13.2427 158.767 13.3733 158.767 13.504C158.786 13.6347 158.786 13.7747 158.767 13.924V14.792C158.767 14.8107 158.758 14.8293 158.739 14.848C158.739 14.8667 158.748 14.8947 158.767 14.932C158.786 15.1 158.795 15.2773 158.795 15.464C158.795 15.632 158.814 15.8 158.851 15.968C158.851 16.024 158.851 16.08 158.851 16.136C158.87 16.192 158.87 16.248 158.851 16.304C158.851 16.472 158.87 16.6493 158.907 16.836C158.944 17.004 158.972 17.172 158.991 17.34C159.028 17.5453 159.066 17.7507 159.103 17.956C159.159 18.1613 159.206 18.3667 159.243 18.572L159.327 18.964C159.327 19.02 159.299 19.0667 159.243 19.104C159.243 19.104 159.234 19.104 159.215 19.104C159.215 19.104 159.206 19.1133 159.187 19.132C159.094 19.1693 159.056 19.2253 159.075 19.3V19.44C159.075 19.44 159.066 19.4493 159.047 19.468C159.047 19.4867 159.038 19.496 159.019 19.496C158.926 19.496 158.851 19.5333 158.795 19.608C158.739 19.6827 158.674 19.748 158.599 19.804C158.543 19.8413 158.468 19.8787 158.375 19.916C158.132 20.0093 157.908 20.028 157.703 19.972Z" fill="black"/>
</svg>
