<svg width="90" height="112" viewBox="0 0 90 112" fill="none" xmlns="http://www.w3.org/2000/svg">
<path d="M1.71973 1C2.1016 5.55806 2.59052 10.0754 2.58307 14.6987C2.58213 15.2831 2.59493 21.8023 1.91752 18.2861" stroke="black" stroke-width="2" stroke-linecap="round"/>
<path d="M1.0521 5.15625C3.88243 4.33237 7.386 2.84714 10.4191 3.26643C13.1887 3.64929 11.2079 7.16233 10.3652 8.36966C9.0795 10.2118 5.68571 13.4568 3.24278 12.2137" stroke="black" stroke-width="2" stroke-linecap="round"/>
<path d="M15.1261 6.53519C16.3042 5.86948 23.4693 3.57603 23.4752 2.75321" stroke="black" stroke-width="2" stroke-linecap="round"/>
<path d="M15.7734 5.26055C15.7142 6.97167 14.2526 15.7761 17.0815 16.4195C18.835 16.8183 21.4437 15.6473 23.171 15.3067C23.7129 15.1999 28.0454 14.6661 25.6254 15.2529" stroke="black" stroke-width="2" stroke-linecap="round"/>
<path d="M15.7357 10.7007C18.1115 10.687 20.4383 10.0938 22.7818 10.1104" stroke="black" stroke-width="2" stroke-linecap="round"/>
<path d="M28.5743 5.67043C31.1626 5.17178 33.6702 4.11061 36.2696 3.80435" stroke="black" stroke-width="2" stroke-linecap="round"/>
<path d="M29.5394 5.03724C29.5331 5.93004 29.0628 16.6588 31.8821 15.7412C33.3755 15.2551 34.5842 14.3079 36.197 14.1179C36.9412 14.0302 38.755 14.5024 38.7626 13.4248" stroke="black" stroke-width="2" stroke-linecap="round"/>
<path d="M29.173 11.7562C31.4372 10.7054 33.8495 10.2095 36.1436 9.26259C36.8503 8.97093 37.4576 8.38617 36.8728 9.24997" stroke="black" stroke-width="2" stroke-linecap="round"/>
<path d="M43.6495 1.29589C42.4846 3.42323 44.0596 8.23646 44.1526 10.6175C44.1708 11.0815 44.1715 18.0121 44.1946 14.7434" stroke="black" stroke-width="2" stroke-linecap="round"/>
<path d="M42.6576 5.76988C43.5995 5.26472 51.2706 2.52549 50.2365 5.27223C49.0886 8.32122 46.4546 9.9512 43.4592 10.5946C43.0685 10.6786 44.0571 11.1574 44.4323 11.295C46.3491 11.9985 48.1449 12.8988 49.9626 13.8237C51.0041 14.3537 55.3586 17.2049 52.5164 14.8021" stroke="black" stroke-width="2" stroke-linecap="round"/>
<path d="M8.01278 33.5236C5.6518 32.6304 2.94705 35.7671 1.55218 37.4156C-0.82268 40.2222 6.09852 40.603 7.46391 40.9509C8.48071 41.21 10.6146 41.6105 11.1542 42.7944C11.8177 44.2501 9.95621 46.1131 8.91251 46.6557C6.55735 47.8802 3.89457 46.1181 2.78437 44.0276" stroke="black" stroke-width="2" stroke-linecap="round"/>
<path d="M14.7188 35.7025C14.3064 35.6996 11.3191 48.6504 17.1101 46.9722C20.8425 45.8905 20.4371 38.6464 20.4577 35.7431" stroke="black" stroke-width="2" stroke-linecap="round"/>
<path d="M25.04 35.7749C25.2675 39.6307 25.7265 43.4764 26.0384 47.3271C26.2415 49.8346 25.8347 46.9708 25.5225 46.0926" stroke="black" stroke-width="2" stroke-linecap="round"/>
<path d="M24.6344 35.6205C24.1082 33.8984 30.6371 34.7052 31.5333 36.1314C33.4849 39.2373 26.5462 42.0627 23.8585 41.3741" stroke="black" stroke-width="2" stroke-linecap="round"/>
<path d="M34.166 35.8412C34.2853 35.7614 35.2873 38.3704 35.3321 38.5663C35.8199 40.6964 35.8173 42.9234 35.9753 45.0726C36.0521 46.1173 35.9036 49.2156 36.284 48.2038C36.5033 47.6202 36.2161 46.8959 36.0768 46.3099" stroke="black" stroke-width="2" stroke-linecap="round"/>
<path d="M35.3064 35.8447C36.6687 33.7474 40.7095 34.7663 40.9776 37.4619C41.2971 40.6747 37.5937 42.0914 35.5716 41.3855" stroke="black" stroke-width="2" stroke-linecap="round"/>
<path d="M46.0776 35.2891C44.2403 36.9059 44.2175 41.4382 44.5836 43.7109C45.2629 47.9282 48.4565 46.0884 49.5898 43.2592C50.7234 40.4289 49.9889 36.7602 47.4083 35.1111C46.4074 34.4714 45.411 34.7827 45.1282 35.9569" stroke="black" stroke-width="2" stroke-linecap="round"/>
<path d="M54.7188 33.7036C55.0755 34.1654 55.1319 36.4867 55.1762 36.9632C55.4744 40.1712 55.421 43.4 55.5734 46.6201C55.7793 50.969 55.7978 46.8247 55.7194 45.0887" stroke="black" stroke-width="2" stroke-linecap="round"/>
<path d="M55.3199 36.9399C56.2482 36.4857 60.7288 33.9331 61.6435 35.2721C62.6454 36.7388 59.2443 38.9336 58.4396 39.3914C57.4389 39.9606 56.3773 40.2735 55.2573 40.4442C54.4149 40.5726 54.5387 40.4377 55.255 40.7628C58.3032 42.1459 60.9211 44.5477 63.7575 46.3189" stroke="black" stroke-width="2" stroke-linecap="round"/>
<path d="M64.9712 36.0577C68.1118 35.1302 72.4057 33.8284 75.2555 33.8485" stroke="black" stroke-width="2" stroke-linecap="round"/>
<path d="M70.9335 34.9593C70.0281 37.9571 71.6903 42.408 72.346 45.4026C72.6695 46.8798 72.8836 46.545 72.8922 45.3297" stroke="black" stroke-width="2" stroke-linecap="round"/>
<path d="M1.00245 67.7149C0.879678 67.4604 6.64515 66.8748 7.30357 66.7453C9.38623 66.3358 11.4466 65.5069 13.5666 65.5219" stroke="black" stroke-width="2" stroke-linecap="round"/>
<path d="M8.3465 66.626C7.09232 70.3158 8.4712 75.01 8.81844 78.8144C8.9967 80.7675 8.86911 80.7852 8.57235 79.0817" stroke="black" stroke-width="2" stroke-linecap="round"/>
<path d="M18.3318 65.5566C18.3027 69.6768 17.5682 74.1394 18.7626 78.2071C19.4403 80.5153 20.1279 78.4476 20.3291 77.383" stroke="black" stroke-width="2" stroke-linecap="round"/>
<path d="M18.6148 69.5273C19.9808 69.0568 24.6302 66.8727 26.057 68.4377C27.0805 69.5606 23.0132 72.0089 22.3118 72.3901C21.1301 73.0323 19.7664 73.5762 18.3803 73.6378C17.7047 73.6678 18.301 73.7077 18.6664 73.8492C21.6172 74.9922 24.317 76.604 27.2645 77.7366C29.8807 78.7419 26.8737 77.7527 25.952 77.4608" stroke="black" stroke-width="2" stroke-linecap="round"/>
<path d="M34.0946 66.8079C33.4584 67.008 33.3742 67.9595 33.2401 68.4722C32.5353 71.1666 31.8316 73.8522 31.034 76.5233C29.7316 80.8853 31.671 75.4759 32.1466 74.1274" stroke="black" stroke-width="2" stroke-linecap="round"/>
<path d="M34.1025 65.6675C34.4957 65.7992 35.0476 68.108 35.1354 68.352C36.0034 70.7642 36.9744 73.1318 38.2022 75.3918C38.351 75.6657 40.6697 79.0233 39.2739 78.0957" stroke="black" stroke-width="2" stroke-linecap="round"/>
<path d="M31.7544 75.8509C31.6156 76.1592 34.7105 75.3454 35.1606 75.2109C36.385 74.845 37.5348 74.5094 38.6111 73.6856" stroke="black" stroke-width="2" stroke-linecap="round"/>
<path d="M43.2148 68.0142C43.2985 70.9947 44.0422 73.8743 44.4202 76.8322C44.5455 77.8126 44.3594 78.9318 45.4272 77.8528" stroke="black" stroke-width="2" stroke-linecap="round"/>
<path d="M48.9277 66.9126C48.9234 67.5251 48.9076 69.7558 48.9022 70.5221C48.8909 72.1216 48.8796 73.7223 48.8682 75.322C48.8552 77.1655 48.8707 74.9701 48.8764 74.17" stroke="black" stroke-width="2" stroke-linecap="round"/>
<path d="M47.7673 69.5043C48.2225 67.743 53.0649 73.913 53.6256 74.6628C54.7484 76.1645 56.0246 76.9537 55.6444 74.5775" stroke="black" stroke-width="2" stroke-linecap="round"/>
<path d="M55.9266 65.8218C55.398 66.3056 56.4094 72.1115 56.4649 73.0493C56.486 73.4068 56.8371 77.7164 56.8532 75.4326" stroke="black" stroke-width="2" stroke-linecap="round"/>
<path d="M60.3369 66.9946C61.0058 70.0499 61.148 73.0907 61.4129 76.1802C61.5711 78.0256 61.4576 79.5781 62.5465 77.2174" stroke="black" stroke-width="2" stroke-linecap="round"/>
<path d="M66.03 68.4954C66.0414 66.8809 66.0065 71.8142 65.9947 73.4784C65.9786 75.7515 65.9818 75.301 65.9946 73.4958" stroke="black" stroke-width="2" stroke-linecap="round"/>
<path d="M66.032 68.2139C66.0955 67.7266 69.0236 72.0379 69.4042 72.5405C70.2126 73.6076 71.0616 74.6773 71.9442 75.684C72.7229 76.5723 72.5127 76.1922 72.8257 75.5685" stroke="black" stroke-width="2" stroke-linecap="round"/>
<path d="M70.6133 65.9263C72.0676 65.9366 72.0671 74.3667 72.0678 75.3673C72.0697 78.2879 72.302 77.6971 72.8281 75.4148" stroke="black" stroke-width="2" stroke-linecap="round"/>
<path d="M80.2275 62.6238C80.2293 62.3622 80.1489 63.1433 80.0664 63.389C79.6454 64.644 78.9136 65.8041 78.3679 66.9956C77.7841 68.2703 74.8862 73.6751 77.0686 74.6706C79.1036 75.5989 81.8604 74.9609 83.7085 73.781C85.0283 72.9385 83.6116 72.9928 82.9555 72.9881" stroke="black" stroke-width="2" stroke-linecap="round"/>
<path d="M78.5627 71.1705C80.8915 70.6467 83.2516 69.9081 85.5904 69.4776C86.7637 69.2617 86.6745 70.7155 86.7555 71.5256C87.0059 74.028 87.2729 76.4446 88.111 78.8423C88.7354 80.6285 88.9836 79.3806 88.5697 78.3703" stroke="black" stroke-width="2" stroke-linecap="round"/>
<path d="M7.04466 99.2939C9.71753 97.7318 6.00329 98.7618 5.05142 99.1405C3.68291 99.6848 -0.891338 101.907 1.98591 103.476C3.39092 104.243 10.2548 105.868 8.80114 108.399C7.34738 110.931 3.22107 109.504 1.12364 108.922" stroke="black" stroke-width="2" stroke-linecap="round"/>
<path d="M19.3055 97.896C18.5435 96.9987 16.5958 97.4471 15.7899 98.0296C13.6615 99.5682 13.4545 103.958 13.6378 106.317C14.1397 112.778 19.914 109.114 22.7019 106.481" stroke="black" stroke-width="2" stroke-linecap="round"/>
<path d="M25.0557 96.2964C25.4192 99.3081 25.7199 102.251 25.7416 105.367C25.7494 106.493 25.5242 110.793 26.1151 107.827" stroke="black" stroke-width="2" stroke-linecap="round"/>
<path d="M25.013 102.427C26.2302 98.7483 29.2437 95.8965 33.1941 95.2695C37.646 94.5629 31.1755 101.276 30.0441 102.002C29.1712 102.562 28.0819 103.16 26.9977 103.152C26.4752 103.148 26.317 102.674 26.3377 102.687C29.623 104.778 32.5962 107.42 35.7882 109.655C36.9814 110.491 36.0075 109.829 35.7454 109.655" stroke="black" stroke-width="2" stroke-linecap="round"/>
<path d="M37.5903 98.6671C39.51 98.254 41.3615 97.6686 43.2231 96.8989C44.1721 96.5066 44.4551 95.9787 44.4469 97.1409" stroke="black" stroke-width="2" stroke-linecap="round"/>
<path d="M38.3719 98.673C37.5269 99.95 36.7704 107.705 39.1865 107.806C40.4744 107.86 45.8105 105.817 45.5162 105.679" stroke="black" stroke-width="2" stroke-linecap="round"/>
<path d="M38.6909 104.38C40.5295 103.542 42.3929 102.404 44.4116 102.139" stroke="black" stroke-width="2" stroke-linecap="round"/>
<path d="M49.0063 98.7492C48.7923 97.9611 53.9243 96.3267 54.7201 96.5226" stroke="black" stroke-width="2" stroke-linecap="round"/>
<path d="M49.5264 97.6116C48.9463 99.2192 48.3363 109.494 50.364 109.01C52.1442 108.584 53.8627 107.864 55.6178 107.349C56.4375 107.109 57.5081 107.048 58.0727 106.499" stroke="black" stroke-width="2" stroke-linecap="round"/>
<path d="M50.1081 103.32L56.9617 102.228" stroke="black" stroke-width="2" stroke-linecap="round"/>
<path d="M62.7151 95.4216C61.1589 98.5296 61.4425 102.654 61.8646 105.916C62.0431 107.295 62.0994 109.309 62.1178 106.707" stroke="black" stroke-width="2" stroke-linecap="round"/>
<path d="M62.7376 96.7122C62.6647 96.1527 62.7289 97.3334 62.8106 97.5314C63.6185 99.4889 64.8028 101.347 65.8035 103.201C66.0283 103.618 68.3267 108.463 68.3418 106.33" stroke="black" stroke-width="2" stroke-linecap="round"/>
<path d="M68.4277 94.3218C68.4277 94.3218 68.3593 103.998 68.3514 105.11C68.3304 108.079 68.3393 106.819 68.3535 104.818" stroke="black" stroke-width="2" stroke-linecap="round"/>
<path d="M78.0944 94.5957C75.7001 93.9131 74.3617 94.927 72.6533 96.5042C70.0053 98.9489 74.397 99.8651 76.2076 100.797C82.2637 103.914 75.3472 109.535 72.9135 105.533" stroke="black" stroke-width="2" stroke-linecap="round"/>
</svg>
