<svg width="91" height="91" viewBox="0 0 91 91" fill="none" xmlns="http://www.w3.org/2000/svg">
<path d="M31.6267 41.3777C28.4827 40.181 24.7608 40.5905 21.8897 42.3104C20.866 42.9247 20.3973 44.3898 21.0707 45.4363C21.735 46.4691 23.1 46.9105 24.1966 46.2553C24.4559 46.1006 24.7198 45.955 24.9928 45.8276C25.0702 45.7912 25.1475 45.7548 25.2294 45.7184C24.9018 45.8549 24.8199 45.8913 24.9837 45.823C25.1248 45.773 25.2658 45.7138 25.4069 45.6683C25.9802 45.4727 26.5717 45.3453 27.1723 45.2634L26.5671 45.3453C27.3861 45.2452 28.2051 45.2452 29.0196 45.3498L28.4144 45.2679C29.1015 45.368 29.7658 45.5364 30.4164 45.7821C30.9397 45.9823 31.7132 45.823 32.1773 45.55C32.6414 45.277 33.1009 44.731 33.2283 44.185C33.5241 42.8837 32.8325 41.8327 31.6313 41.3777H31.6267Z" fill="black"/>
<path d="M59.2776 45.095C59.3322 45.0495 59.3868 45.0086 59.4414 44.9631L58.9773 45.318C59.2321 45.1314 59.496 44.9767 59.7827 44.8493L59.2367 45.0814C59.6598 44.9039 60.0921 44.7902 60.5471 44.731L59.9419 44.8129C60.4561 44.7538 60.9611 44.7629 61.4753 44.8311L60.8701 44.7492C61.7392 44.8766 62.5673 45.1496 63.3726 45.4863L62.8266 45.2543C62.8994 45.2861 62.9722 45.318 63.045 45.3498C63.6274 45.6046 64.1643 45.7548 64.8059 45.5819C65.3337 45.4363 65.9115 45.0268 66.1709 44.5308C66.453 44.003 66.5895 43.3569 66.4029 42.77C66.2346 42.2422 65.8842 41.637 65.3519 41.405C63.8413 40.7452 62.2988 40.1992 60.6244 40.1992C59.8919 40.1992 59.1138 40.2993 58.4177 40.5268C57.5122 40.8226 56.7797 41.2594 56.0517 41.86C55.624 42.2103 55.3828 42.9474 55.3828 43.4752C55.3828 44.0349 55.6331 44.7037 56.0517 45.0905C56.4703 45.4772 57.0572 45.7866 57.6669 45.7593C58.2766 45.732 58.7908 45.4954 59.2822 45.0905L59.2776 45.095Z" fill="black"/>
<path d="M38.4471 69.7334C42.9471 71.4578 47.9566 71.2895 52.5112 69.8426C53.6487 69.4786 54.495 68.241 54.1082 67.0352C53.7397 65.8977 52.5157 65.0514 51.3009 65.4382C50.3135 65.7521 49.3125 66.0115 48.2933 66.1935C48.0704 66.2344 47.852 66.2708 47.629 66.3027C48.0749 66.239 47.1968 66.3436 47.1149 66.3527C46.6235 66.3982 46.1321 66.421 45.6407 66.4255C45.1493 66.4301 44.6442 66.4164 44.1483 66.3846C43.8389 66.3618 43.5295 66.3345 43.2246 66.2981C43.6159 66.3482 42.9653 66.2526 42.9061 66.2435C41.7959 66.0479 40.7176 65.7339 39.6665 65.3335C38.5472 64.9058 37.114 65.8067 36.8592 66.9306C36.5634 68.2364 37.255 69.2829 38.4562 69.7379L38.4471 69.7334Z" fill="black"/>
<path d="M28.6654 53.4215C30.0123 53.4215 31.1042 52.3297 31.1042 50.9827C31.1042 49.6358 30.0123 48.5439 28.6654 48.5439C27.3185 48.5439 26.2266 49.6358 26.2266 50.9827C26.2266 52.3297 27.3185 53.4215 28.6654 53.4215Z" fill="black"/>
<path d="M61.7894 52.5114C63.1363 52.5114 64.2282 51.4195 64.2282 50.0726C64.2282 48.7257 63.1363 47.6338 61.7894 47.6338C60.4425 47.6338 59.3506 48.7257 59.3506 50.0726C59.3506 51.4195 60.4425 52.5114 61.7894 52.5114Z" fill="black"/>
<path d="M85.8586 75.9713H81.2904C81.2904 63.6408 78.756 51.0054 74.3334 41.3048C72.3951 37.0506 69.4194 33.2468 66.2799 29.402C63.9367 26.531 61.5843 24.5972 58.4084 22.9365C56.6976 22.0401 54.0268 20.8981 52.2068 20.5022C49.2174 19.8516 45.1952 19.5058 41.9511 19.6195C30.2803 20.0336 19.7244 26.0578 15.0561 34.9667C12.2851 40.2492 11.4616 46.5555 10.911 52.0474C10.1148 59.9507 9.7098 67.9997 9.7098 75.9758H5.1416C5.1416 67.8495 5.5511 59.6413 6.36555 51.5924C6.9616 45.6728 7.8625 38.8569 11.0111 32.8509C16.4256 22.5133 28.5104 15.5336 41.7918 15.0604C45.4409 14.9285 49.8044 15.3107 53.185 16.0478C55.5829 16.571 58.6359 17.9087 60.5287 18.9006C64.237 20.8389 67.099 23.1913 69.8244 26.5264C73.155 30.6123 76.3263 34.6709 78.4921 39.4211C83.1741 49.695 85.8632 63.022 85.8632 75.9849L85.8586 75.9713Z" fill="black"/>
</svg>
