<svg width="91" height="91" viewBox="0 0 91 91" fill="none" xmlns="http://www.w3.org/2000/svg">
<path d="M59.3089 45.0721C59.3635 45.0266 59.4181 44.9856 59.4727 44.9401L59.0086 45.295C59.2634 45.1085 59.5273 44.9538 59.8139 44.8264L59.2679 45.0584C59.6911 44.881 60.1233 44.7672 60.5783 44.7081L59.9732 44.79C60.4873 44.7308 60.9924 44.7399 61.5065 44.8082L60.9014 44.7263C61.7704 44.8537 62.5985 45.1267 63.4039 45.4634L62.8579 45.2313C62.9307 45.2632 63.0035 45.295 63.0763 45.3269C63.6587 45.5817 64.1956 45.7318 64.8371 45.5589C65.3649 45.4133 65.9428 45.0038 66.2021 44.5079C66.4842 43.9801 66.6207 43.334 66.4342 42.747C66.2658 42.2192 65.9155 41.6141 65.3831 41.382C63.8725 40.7223 62.3301 40.1763 60.6557 40.1763C59.9231 40.1763 59.1451 40.2764 58.4489 40.5039C57.5435 40.7996 56.8109 41.2364 56.0829 41.837C55.6552 42.1874 55.4141 42.9245 55.4141 43.4523C55.4141 44.0119 55.6643 44.6808 56.0829 45.0675C56.5015 45.4543 57.0885 45.7637 57.6982 45.7364C58.3079 45.7091 58.822 45.4725 59.3134 45.0675L59.3089 45.0721Z" fill="black"/>
<path d="M48.958 65.6748C48.9352 65.7749 48.867 65.916 48.8579 66.0206C48.8397 66.2618 49.0945 65.602 48.8943 65.9296C48.8488 66.0024 48.7441 66.1435 48.7168 66.2299C48.6486 66.4574 49.0444 65.8841 48.7805 66.1571C48.7123 66.2299 48.2755 66.5712 48.2755 66.644C48.5348 66.4483 48.594 66.4028 48.4529 66.4984C48.3938 66.5393 48.3346 66.5803 48.2709 66.6167C48.189 66.6667 48.1071 66.7168 48.0207 66.7623C47.957 66.7987 47.8933 66.8305 47.825 66.8624C47.6703 66.9352 47.7386 66.9079 48.0389 66.7805C48.0298 66.7714 47.7886 66.8715 47.7613 66.8806C47.5247 66.9579 47.2881 67.008 47.047 67.0671C46.5556 67.1854 47.5702 67.0489 47.0652 67.0671C46.9651 67.0671 46.8695 67.0808 46.7694 67.0808C46.6238 67.0808 46.4737 67.0808 46.3281 67.0762C46.2416 67.0717 45.8003 67.0307 46.1916 67.0717C46.5829 67.1126 46.1233 67.0444 46.0642 67.0307C45.9186 66.9989 45.7775 66.9579 45.6365 66.9124C45.5682 66.8897 45.2406 66.8169 45.2179 66.7668C45.277 66.8942 45.5682 66.9306 45.1997 66.7486C44.9358 66.6212 44.681 66.4756 44.4307 66.3209C44.3079 66.2436 44.185 66.1617 44.0622 66.0752C44.0076 66.0388 43.6208 65.7294 43.8665 65.9342C44.1122 66.1389 43.6891 65.7749 43.6845 65.7704C43.5708 65.6703 43.4616 65.5702 43.3524 65.4701C43.134 65.2653 42.9201 65.0515 42.7108 64.8331C42.2786 64.3735 41.8736 63.8912 41.4823 63.3953C40.7407 62.4534 39.0208 62.5581 38.2518 63.3953C37.3327 64.3963 37.4601 65.6202 38.2518 66.6258C40.2538 69.1647 42.9019 71.3987 46.2553 71.6353C49.3129 71.8537 52.5934 69.9609 53.3669 66.8897C53.6581 65.734 52.9938 64.3599 51.7699 64.0823C50.5869 63.8139 49.2719 64.4372 48.9625 65.6794L48.958 65.6748Z" fill="black"/>
<path d="M34.9035 43.4388C33.4839 39.8944 30.1806 37.0324 26.1675 37.7286C22.9734 38.2837 20.7394 41.1138 19.4608 43.8938C18.9603 44.9767 19.1196 46.4054 20.2798 47.0197C21.2854 47.552 22.8733 47.3609 23.4057 46.2007C23.6969 45.5682 24.0199 44.9449 24.3976 44.3579C24.4931 44.2123 24.5887 44.0667 24.6888 43.9257C24.7388 43.8574 24.7843 43.7892 24.8389 43.7209C24.939 43.5844 24.9026 43.6299 24.7343 43.862C24.7934 43.6709 25.1119 43.4206 25.253 43.2796C25.3713 43.1567 25.8763 42.8337 25.8991 42.6926C25.8809 42.7973 25.4623 42.9929 25.8263 42.7609C25.9218 42.7017 26.0128 42.638 26.1084 42.5789C26.2221 42.5106 26.3359 42.4469 26.4542 42.3878C26.7135 42.2558 26.8227 42.3423 26.3768 42.406C26.5907 42.3741 26.8182 42.2513 27.032 42.2012C27.1276 42.1785 27.2459 42.1739 27.3369 42.1375C26.9183 42.3104 26.9183 42.1785 27.2641 42.1603C27.4006 42.1512 27.5371 42.1557 27.6781 42.1603C27.76 42.1603 27.8419 42.1694 27.9238 42.1785C27.6144 42.133 27.5462 42.1284 27.7191 42.1648C27.8465 42.2058 27.983 42.2285 28.1149 42.2649C28.1923 42.2877 28.2696 42.315 28.347 42.3423C28.5062 42.4014 28.4516 42.3787 28.1832 42.2695C28.4016 42.2695 28.7929 42.5971 28.9749 42.7199C29.3798 42.9929 29.0113 42.6972 28.984 42.7199C29.0022 42.7063 29.3434 43.0384 29.3616 43.0566C29.4845 43.1749 29.6028 43.2978 29.7165 43.4206C29.762 43.4707 30.0896 43.8301 29.8667 43.5799C29.6437 43.3296 29.9486 43.6936 29.9895 43.7528C30.0851 43.8893 30.1715 44.0303 30.258 44.1759C30.3444 44.3215 30.4218 44.4626 30.4946 44.6082C30.5583 44.7356 30.7494 45.2088 30.5219 44.6446C30.9632 45.7502 32.0643 46.6511 33.3292 46.2416C34.3985 45.8958 35.3995 44.6218 34.9263 43.4343L34.9035 43.4388Z" fill="black"/>
<path d="M31.4408 53.4035C32.7877 53.4035 33.8796 52.3116 33.8796 50.9647C33.8796 49.6178 32.7877 48.5259 31.4408 48.5259C30.0938 48.5259 29.002 49.6178 29.002 50.9647C29.002 52.3116 30.0938 53.4035 31.4408 53.4035Z" fill="black"/>
<path d="M64.5648 52.4889C65.9117 52.4889 67.0036 51.397 67.0036 50.0501C67.0036 48.7032 65.9117 47.6113 64.5648 47.6113C63.2179 47.6113 62.126 48.7032 62.126 50.0501C62.126 51.397 63.2179 52.4889 64.5648 52.4889Z" fill="black"/>
<path d="M86.9557 75.9818H82.3205C82.3205 63.6412 79.749 50.9956 75.2616 41.287C73.2949 37.0293 70.2756 33.2224 67.0901 29.3791C64.7125 26.5057 62.3256 24.5704 59.1032 22.9082C57.3673 22.0112 54.6573 20.8682 52.8107 20.472C49.7775 19.8208 45.6917 19.4702 42.4046 19.5886C30.5629 20.003 19.8521 26.0321 15.1154 34.9483C12.3039 40.2351 11.4682 46.5466 10.9096 52.0429C10.1017 59.9527 9.69082 68.0082 9.69082 75.9909H5.05566C5.05566 67.858 5.47117 59.6431 6.29755 51.5875C6.90234 45.6632 7.81644 38.8417 11.0112 32.8308C16.505 22.4847 28.767 15.4994 42.2431 15.0258C45.9456 14.8937 50.3731 15.2762 53.8032 16.0139C56.2316 16.5376 59.334 17.8764 61.25 18.8691C65.0126 20.809 67.9211 23.1633 70.6819 26.5011C74.0613 30.5904 77.2791 34.6523 79.4766 39.4064C84.2272 49.6886 86.9557 63.0265 86.9557 76V75.9818Z" fill="black"/>
</svg>
