<svg width="28" height="25" viewBox="0 0 28 25" fill="none" xmlns="http://www.w3.org/2000/svg">
<g clip-path="url(#clip0_250_655)">
<path d="M16.0527 0.247489C10.4544 -1.12913 -1.70056 3.25791 0.19955 12.8904C0.756293 15.7127 1.43016 20.5403 6.4973 23.5062C11.6242 26.5069 22.7773 23.6193 25.3363 20.0491C28.6139 15.4766 29.2998 3.50501 16.0527 0.247489Z" fill="#DA3A32"/>
<path d="M8.57114 15.2381C7.25891 15.0516 5.60298 14.6594 5.71216 12.5826C5.78371 11.2206 6.82499 10.3531 8.04261 10.2761C9.26024 10.1991 11.0915 11.0953 11.1735 12.4569C11.2977 14.519 10.0171 15.4438 8.57114 15.2381Z" fill="white"/>
<path d="M17.954 14.9591C16.8187 14.275 16.0118 13.0958 16.923 11.2263C17.5206 10.0004 19.4681 10.0379 20.6192 10.4424C21.7702 10.8469 22.1444 12.2114 21.6883 13.497C20.9978 15.4439 19.2048 15.7128 17.954 14.9591Z" fill="white"/>
</g>
<defs>
<clipPath id="clip0_250_655">
<rect width="28" height="25" fill="white"/>
</clipPath>
</defs>
</svg>
