<svg width="303" height="28" viewBox="0 0 303 28" fill="none" xmlns="http://www.w3.org/2000/svg">
<path d="M1.96344 8.33853C1.52168 8.52981 2.04787 15.5764 2.03025 16.0905C1.9373 18.8028 1.84551 21.5143 1.76181 24.2269C1.71168 25.8514 1.82522 25.9141 1.00817 25.0378" stroke="black" stroke-width="2" stroke-linecap="round"/>
<path d="M15.7456 9.42188C15.6933 13.5419 15.7053 17.6311 16.2778 21.7334C16.8058 25.5167 16.1454 20.1084 16.0982 19.192" stroke="black" stroke-width="2" stroke-linecap="round"/>
<path d="M16.6313 11.251C18.1141 13.3085 20.436 16.4397 22.9557 14.1265" stroke="black" stroke-width="2" stroke-linecap="round"/>
<path d="M26.7623 8.6527C24.8815 10.5739 23.5749 12.8163 22.4243 15.1866C21.1724 17.7656 23.2228 13.8168 23.4798 13.1937C23.6695 12.7337 25.1586 8.91465 25.726 10.8992C26.3225 12.9854 26.4101 15.3064 26.6508 17.4365C26.7009 17.879 27.0976 21.6195 27.2146 22.4276C27.525 24.5721 27.1749 21.4714 27.3948 22.3454" stroke="black" stroke-width="2" stroke-linecap="round"/>
<path d="M33.0196 8.73283C31.2652 10.221 31.214 16.0403 30.833 18.2217C30.6072 19.5142 30.3617 20.8048 30.1465 22.0995C29.9632 23.2024 30.8287 19.9834 31.1524 18.919" stroke="black" stroke-width="2" stroke-linecap="round"/>
<path d="M33.9165 9.65234C34.8845 11.5351 37.3492 26.0523 38.2517 26.0637" stroke="black" stroke-width="2" stroke-linecap="round"/>
<path d="M31.9732 19.6231C32.4646 18.2432 35.3736 17.7528 36.5505 16.9551" stroke="black" stroke-width="2" stroke-linecap="round"/>
<path d="M42.2813 8.84989C41.7351 9.71481 42.5121 15.2544 42.5656 16.3299C42.5981 16.9832 43.0103 25.4055 42.7616 21.4217" stroke="black" stroke-width="2" stroke-linecap="round"/>
<path d="M40.5794 10.6464C43.0998 11.0476 49.6648 12.7764 48.1605 16.5359C46.7039 20.1762 42.5043 21.4989 39.2066 22.4419" stroke="black" stroke-width="2" stroke-linecap="round"/>
<path d="M49.3734 8.94013C52.1441 8.53847 54.8552 7.85796 57.5733 7.22682" stroke="black" stroke-width="2" stroke-linecap="round"/>
<path d="M51.1904 8.96289C51.9428 12.7513 51.3699 23.6257 57.3466 21.4619C57.811 21.2937 61.6969 19.7488 60.9502 20.1081" stroke="black" stroke-width="2" stroke-linecap="round"/>
<path d="M51.1096 15.3226C53.4897 14.489 57.9603 14.1247 59.3326 11.7922" stroke="black" stroke-width="2" stroke-linecap="round"/>
<path d="M72.9956 9.24023C74.1272 9.25459 73.6462 11.1631 73.8208 12.3748C74.4078 16.4473 74.8506 20.5399 75.4387 24.6114C75.5359 25.2838 75.5506 22.6151 75.5575 22.0706" stroke="black" stroke-width="2" stroke-linecap="round"/>
<path d="M75.6517 14.7263C76.8309 13.6116 79.4612 13.2034 81.126 12.9784" stroke="black" stroke-width="2" stroke-linecap="round"/>
<path d="M80.2637 9.33203C80.8824 9.83671 80.6408 10.7093 80.7372 11.4081C81.1665 14.5178 81.3174 17.6443 81.5393 20.765C81.6092 21.748 82.1887 24.6262 81.7124 23.7154C81.573 23.4489 81.5779 23.1729 81.5123 22.8974" stroke="black" stroke-width="2" stroke-linecap="round"/>
<path d="M84.884 10.3C84.3558 9.6324 86.3744 9.92763 87.1053 9.67191C88.5339 9.17218 89.8424 8.40527 91.1889 7.65395" stroke="black" stroke-width="2" stroke-linecap="round"/>
<path d="M86.205 9.40759C85.7017 12.6284 85.2547 16.6253 86.163 19.8007C87.1412 23.2203 92.1011 19.6166 93.776 18.6201" stroke="black" stroke-width="2" stroke-linecap="round"/>
<path d="M84.7259 15.7494C86.9413 14.5862 89.157 13.8456 91.1317 12.1959" stroke="black" stroke-width="2" stroke-linecap="round"/>
<path d="M97.7069 7.73638C97.0926 11.9484 98.0936 16.1937 98.784 20.3925C99.1757 22.7747 99.4382 22.9625 98.78 20.7074" stroke="black" stroke-width="2" stroke-linecap="round"/>
<path d="M97.4756 13.5405C97.6151 11.8785 101.443 9.50209 103.007 10.9754C105.002 12.8558 98.7831 15.9039 97.961 16.882C97.8255 17.0432 104.174 21.2327 104.589 21.4955C105.822 22.2762 107.097 23.0555 106.085 21.4322" stroke="black" stroke-width="2" stroke-linecap="round"/>
<path d="M119.354 8.01074C121.558 11.898 122.43 16.7504 124.791 20.45C125.788 22.0128 126.388 17.9493 126.423 17.7853C127.032 14.9276 127.711 12.1407 128.424 9.31445" stroke="black" stroke-width="2" stroke-linecap="round"/>
<path d="M131.142 9.97757C133.017 8.67166 135.481 8.25197 137.537 7.33266" stroke="black" stroke-width="2" stroke-linecap="round"/>
<path d="M132.301 7.26641C132.036 10.3193 131.132 17.2068 135.299 18.1832C136.633 18.4959 140.478 16.1527 141.052 16.7207" stroke="black" stroke-width="2" stroke-linecap="round"/>
<path d="M131.073 15.4287C132.451 13.7502 137.17 14.0047 139.284 12.8069" stroke="black" stroke-width="2" stroke-linecap="round"/>
<path d="M145.254 5.61362C143.058 8.7941 143.997 13.5201 144.387 16.9552C144.687 19.6039 144.811 22.0059 145.578 18.0825" stroke="black" stroke-width="2" stroke-linecap="round"/>
<path d="M144.778 9.55836C146.687 8.75827 150.036 9.55744 148.049 12.2307C147.445 13.0433 143.712 14.1831 145.258 15.1329C147.186 16.3171 149.208 17.3587 151.143 18.54C152.971 19.6565 153.3 19.7284 152.208 17.9396" stroke="black" stroke-width="2" stroke-linecap="round"/>
<path d="M151.21 3.87207C151.632 5.79863 152.13 7.96623 153.234 9.63114C154.214 11.1078 155.574 9.65423 156.597 9.01589" stroke="black" stroke-width="2" stroke-linecap="round"/>
<path d="M160.041 5.19931C161.353 3.84978 157.006 7.37321 155.411 8.3246C153.797 9.28718 155.768 7.26704 156.168 8.91721C156.947 12.1269 156.787 15.6513 157.189 18.9308C157.511 21.5617 157.436 19.8514 157.195 18.4824" stroke="black" stroke-width="2" stroke-linecap="round"/>
<path d="M175.761 8.43369C175.805 4.94849 174.961 17.3401 177.766 18.6224C180.706 19.9662 181.802 10.7012 181.772 8.77861C181.758 7.91835 181.928 8.50403 182.042 8.91635" stroke="black" stroke-width="2" stroke-linecap="round"/>
<path d="M185.7 7.03516C185.69 7.85359 185.676 8.94388 185.665 9.81928C185.636 12.0749 185.608 14.3092 185.579 16.5621C185.535 20.0128 185.546 19.2112 185.581 16.4316" stroke="black" stroke-width="2" stroke-linecap="round"/>
<path d="M185.91 7.25491C185.224 6.48325 186.438 7.99178 186.438 7.99185C187.953 10.5 189.177 13.1528 190.456 15.7749C191.87 18.6756 192.088 18.8299 191.842 15.8354" stroke="black" stroke-width="2" stroke-linecap="round"/>
<path d="M192.996 4.99292C192.564 2.04602 191.894 10.8824 191.997 13.8459C192.042 15.1533 192.18 19.0628 192.335 17.7616C192.437 16.9071 192.357 16.0127 192.368 15.1544" stroke="black" stroke-width="2" stroke-linecap="round"/>
<path d="M199.705 6.67044C196.174 4.81943 195.448 10.1273 195.67 13.0852C195.8 14.8198 196.554 17.1895 198.259 17.8992C200.882 18.991 203.078 15.6035 204.693 14.1104" stroke="black" stroke-width="2" stroke-linecap="round"/>
<path d="M207.013 6.39752C205.783 8.44923 205.285 10.2824 205.927 12.6345C206.521 14.8151 208.475 16.9478 210.246 14.208C211.415 12.3986 211.309 10.0303 210.298 8.17798C208.329 4.56916 207.102 7.4612 205.683 9.15387" stroke="black" stroke-width="2" stroke-linecap="round"/>
<path d="M212.083 4.64453C212.819 8.46658 212.816 12.3986 213.546 16.2041C213.79 17.474 213.776 13.931 213.783 13.4381" stroke="black" stroke-width="2" stroke-linecap="round"/>
<path d="M213.888 5.57617C214.574 6.61815 215.946 9.01639 217.067 9.70631C219.424 11.1574 217.193 8.74457 219.298 8.90632" stroke="black" stroke-width="2" stroke-linecap="round"/>
<path d="M221.168 4.7598C219.34 6.61901 216.563 9.60656 216.533 11.9705" stroke="black" stroke-width="2" stroke-linecap="round"/>
<path d="M219.312 7.79983C219.89 6.77976 220.577 5.82605 221.146 4.80055C221.333 4.46335 221.21 6.31436 221.208 6.51963C221.174 9.20243 221.245 11.8611 221.482 14.5349C221.542 15.21 222.438 19.9326 221.439 17.8882" stroke="black" stroke-width="2" stroke-linecap="round"/>
<path d="M225.71 4.81738C227.362 4.83835 235.191 4.93769 235.704 4.94421" stroke="black" stroke-width="2" stroke-linecap="round"/>
<path d="M228.437 4.85156C228.444 8.68374 228.489 12.5406 228.829 16.3502C228.998 18.2448 229.093 17.5884 229.194 16.7821" stroke="black" stroke-width="2" stroke-linecap="round"/>
<path d="M225.607 12.9938C228.285 11.3111 233.382 11.7931 236.533 11.3151" stroke="black" stroke-width="2" stroke-linecap="round"/>
<path d="M241.499 6.59528C239.963 6.33534 239.183 8.99652 239.352 10.1328C239.918 13.9507 245.035 12.1014 245.585 9.19337C245.986 7.07472 244.666 4.24109 242.26 4.12236C240.152 4.01834 239.405 5.18765 238.41 6.55609" stroke="black" stroke-width="2" stroke-linecap="round"/>
<path d="M248.47 1.47168C248.416 5.77034 248.35 10.9134 248.295 15.3012C248.253 18.626 248.285 16.0307 248.305 14.511" stroke="black" stroke-width="2" stroke-linecap="round"/>
<path d="M248.393 7.59765C249.456 6.13575 250.556 5.63278 252.239 5.2751C253.154 5.0807 255.402 5.06975 254.957 5.98401C253.831 8.29336 250.732 9.64255 248.611 10.3416C248.395 10.4127 252.902 13.5019 253.435 13.8402C254.45 14.4845 256.614 16.2256 254.967 14.3383" stroke="black" stroke-width="2" stroke-linecap="round"/>
<path d="M258.407 6.14066C261.489 5.85787 264.551 4.46654 267.527 3.53034" stroke="black" stroke-width="2" stroke-linecap="round"/>
<path d="M262.052 5.27832C261.999 9.49047 261.945 13.6983 261.892 17.9137C261.867 19.8971 261.885 18.4503 261.897 17.5188" stroke="black" stroke-width="2" stroke-linecap="round"/>
<path d="M270.275 1.74808C268.7 2.11467 267.446 8.54894 266.98 9.92447C266.467 11.4376 264.359 17.133 266.544 12.8351" stroke="black" stroke-width="2" stroke-linecap="round"/>
<path d="M270.252 3.56543C271.545 7.20676 272.224 11.6997 272.828 15.411" stroke="black" stroke-width="2" stroke-linecap="round"/>
<path d="M265.606 11.6843C268.112 10.9841 270.462 11.0008 272.897 9.95943" stroke="black" stroke-width="2" stroke-linecap="round"/>
<path d="M275.704 3.63477C275.745 6.86847 276.261 10.011 276.976 13.1983C277.417 15.1655 277.508 14.8408 278.307 13.2616" stroke="black" stroke-width="2" stroke-linecap="round"/>
<path d="M275.695 4.31536C276.633 4.11019 279.995 2.81771 280.549 4.6214C281.009 6.12085 279.123 7.65101 278.181 8.3912C277.114 9.2308 274.082 10.4501 277.073 9.53264C278.563 9.07566 283.391 8.1782 283.753 10.7729C284.266 14.4521 278.556 13.6307 276.76 13.5285" stroke="black" stroke-width="2" stroke-linecap="round"/>
<path d="M285.697 3.76074C287.004 7.26225 286.475 11.1392 287.5 14.6719C288.457 17.9691 292.895 11.5831 293.789 10.5354" stroke="black" stroke-width="2" stroke-linecap="round"/>
<path d="M291.223 3.83105C290.564 3.57746 294.562 2.03286 294.753 1.97806C296.061 1.60341 298.587 0.685416 299.355 1.56201" stroke="black" stroke-width="2" stroke-linecap="round"/>
<path d="M294.101 2.95879C293.501 4.69185 293.854 14.5334 296.718 13.8596C298.393 13.4658 303.309 12.2095 301.584 12.1876" stroke="black" stroke-width="2" stroke-linecap="round"/>
<path d="M294.736 7.51044C295.328 7.00201 300.808 5.57109 301.119 5.79614" stroke="black" stroke-width="2" stroke-linecap="round"/>
</svg>
