<svg width="315" height="59" viewBox="0 0 315 59" fill="none" xmlns="http://www.w3.org/2000/svg">
<path d="M6.59199 5.92795C4.14693 8.01555 3.43764 13.2349 2.73308 16.1271C2.4837 17.1508 0.31338 26.3447 1.3999 20.7366" stroke="black" stroke-width="2" stroke-linecap="round"/>
<path d="M5.74927 7.81927C5.42401 7.67432 5.88338 8.52222 6.00846 8.85562C6.95382 11.3755 7.79837 13.9285 8.6422 16.4839C8.928 17.3494 10.2359 22.1929 10.5934 21.8621" stroke="black" stroke-width="2" stroke-linecap="round"/>
<path d="M2.34706 16.1545C2.23752 16.0752 4.42192 15.3531 4.64731 15.2815C5.62265 14.9714 6.52702 14.514 7.43215 14.0423" stroke="black" stroke-width="2" stroke-linecap="round"/>
<path d="M12.5918 10.0088C12.5635 12.0679 13.364 23.0982 17.463 21.1448C19.959 19.9553 19.7219 15.4868 19.5402 13.3355C19.5066 12.9379 18.5678 9.66009 19.4941 10.6611" stroke="black" stroke-width="2" stroke-linecap="round"/>
<path d="M22.5835 10.3965C24.9402 10.1294 27.2483 9.6111 29.5603 9.12735" stroke="black" stroke-width="2" stroke-linecap="round"/>
<path d="M25.6431 10.8994C26.1385 13.5026 26.2273 16.1391 26.5786 18.7613C26.6593 19.3637 27.4906 23.3605 26.808 20.5662" stroke="black" stroke-width="2" stroke-linecap="round"/>
<path d="M32.2205 9.99955C32.1131 12.7718 31.9907 17.1626 33.5629 19.5022C36.871 24.4251 38.9709 11.1134 38.7981 9.09977" stroke="black" stroke-width="2" stroke-linecap="round"/>
<path d="M41.1333 8.4209C41.1692 12.0055 41.8684 15.6185 42.1699 19.1946C42.4049 21.9819 42.4155 17.6353 42.3429 16.9348" stroke="black" stroke-width="2" stroke-linecap="round"/>
<path d="M41.8726 9.21875C42.9224 10.3533 43.9599 11.5301 45.1217 12.5518C45.5708 12.9468 46.6625 13.9094 47.4189 13.9665C48.6071 14.0561 47.7602 13.3113 48.6558 12.9453" stroke="black" stroke-width="2" stroke-linecap="round"/>
<path d="M49.9572 9.14707C49.4228 10.2624 46.4126 15.3872 48.9547 11.8451C49.7013 10.8048 50.2256 7.83208 50.5178 10.1309C50.9493 13.5256 50.9161 16.9558 51.4264 20.3437C51.9527 23.8378 51.5398 20.6896 51.4916 19.213" stroke="black" stroke-width="2" stroke-linecap="round"/>
<path d="M54.229 8.1582C55.1274 11.7693 54.8895 15.5585 55.3394 19.2341C55.7093 22.2565 55.4751 17.8984 55.4238 17.0564" stroke="black" stroke-width="2" stroke-linecap="round"/>
<path d="M54.9678 8.95703C56.9878 12.4861 59.1032 16.0054 61.6047 19.2207C62.4148 20.262 61.9748 18.235 61.9418 17.6943" stroke="black" stroke-width="2" stroke-linecap="round"/>
<path d="M61.206 6.88933C60.147 7.62126 60.9566 11.6259 61.0311 12.5059C61.1972 14.4657 61.3751 16.6158 61.9122 18.4627" stroke="black" stroke-width="2" stroke-linecap="round"/>
<path d="M77.3161 8.28258C76.9195 10.6931 77.4188 12.9975 77.5744 15.4126C77.6586 16.718 77.7388 19.2292 78.0224 19.8559" stroke="black" stroke-width="2" stroke-linecap="round"/>
<path d="M87.7223 7.91602C85.4466 7.82786 79.1947 13.4645 81.7935 14.1435C83.8275 14.675 88.2932 13.5815 89.4165 16.0639C90.0515 17.4673 84.0997 19.7494 82.8383 19.1873C81.8274 18.7368 82.0838 18.5274 83.0633 18.8967" stroke="black" stroke-width="2" stroke-linecap="round"/>
<path d="M92.3189 8.47973C91.7847 12.0659 91.7017 15.4115 92.2108 18.9952C92.2277 19.1137 91.7259 15.6741 91.6964 14.6135" stroke="black" stroke-width="2" stroke-linecap="round"/>
<path d="M91.431 11.5242C92.0502 11.0338 95.9012 17.877 96.3296 18.6416C96.9085 19.6745 97.6785 20.9965 96.5133 19.4184" stroke="black" stroke-width="2" stroke-linecap="round"/>
<path d="M97.3588 7.51962C96.9274 7.33848 96.7304 14.9459 96.7423 15.7062C96.7566 16.6204 96.3453 20.8971 97.3262 18.2946" stroke="black" stroke-width="2" stroke-linecap="round"/>
<path d="M102.814 5.80726C102.762 7.14488 100.014 11.7382 101.143 9.20632" stroke="black" stroke-width="2" stroke-linecap="round"/>
<path d="M103.847 8.92539C105.416 7.73972 108.031 7.85534 109.884 7.61981C110.874 7.49405 112.465 6.75091 111.962 8.08515" stroke="black" stroke-width="2" stroke-linecap="round"/>
<path d="M107.75 7.53711C108.642 11.1921 107.551 22.5842 107.697 18.8245C107.704 18.6467 107.64 20.2977 107.622 20.7673C107.599 21.3439 107.91 19.6496 108.071 19.0956" stroke="black" stroke-width="2" stroke-linecap="round"/>
<path d="M123.905 7.77821C123.069 12.1293 123.919 15.8335 124.153 20.1463C124.284 22.5818 123.901 20.2843 123.842 19.3218" stroke="black" stroke-width="2" stroke-linecap="round"/>
<path d="M123.875 8.54754C123.45 8.59163 126.245 11.0057 126.507 11.258C127.758 12.4612 128.411 13.71 129.875 12.6286" stroke="black" stroke-width="2" stroke-linecap="round"/>
<path d="M133.542 7.38191C134.923 6.10358 130.904 11.099 130.469 11.6247C129.085 13.2987 133.729 8.53227 134.495 6.49945C134.541 6.37722 134.779 5.23203 134.769 5.50512C134.691 7.52615 134.601 9.54705 134.555 11.5692C134.492 14.399 134.538 17.2002 134.741 20.0221C134.877 21.9068 134.657 18.8218 134.647 18.5859" stroke="black" stroke-width="2" stroke-linecap="round"/>
<path d="M138.213 6.02344C139.659 8.96482 141.126 10.3187 144.168 11.2574" stroke="black" stroke-width="2" stroke-linecap="round"/>
<path d="M149.372 6.07127C147.035 6.19276 144.616 8.77142 142.639 9.87292C141.427 10.5484 141.2 10.0981 141.56 10.6864C143.185 13.3404 142.519 16.8014 142.877 19.739C143.035 21.0303 143.138 20.5422 143.456 19.6973" stroke="black" stroke-width="2" stroke-linecap="round"/>
<path d="M160.457 8.03961C162.906 7.84041 167.51 8.18193 169.37 6.46058" stroke="black" stroke-width="2" stroke-linecap="round"/>
<path d="M164.374 6.26758C164.384 9.83225 165.181 15.2358 165.08 17.8409" stroke="black" stroke-width="2" stroke-linecap="round"/>
<path d="M163.707 13.5543C165.557 12.2761 168.56 11.6621 170.729 11.1322" stroke="black" stroke-width="2" stroke-linecap="round"/>
<path d="M175.918 6.32976C174.196 8.53587 173.827 11.8336 172.91 14.4237C172.781 14.7894 171.02 19.9135 171.643 17.3253" stroke="black" stroke-width="2" stroke-linecap="round"/>
<path d="M176.317 5.95996C177.794 10.0112 179.308 14.0417 180.852 18.0665" stroke="black" stroke-width="2" stroke-linecap="round"/>
<path d="M172.546 13.8961C174.029 12.0233 175.871 12.0423 178.03 11.4145" stroke="black" stroke-width="2" stroke-linecap="round"/>
<path d="M182.052 6.9522C184.429 9.77914 185.347 13.308 186.592 16.707C186.815 17.3169 187.496 19.2633 188.094 17.6632C189.523 13.8388 190.528 9.69107 191.719 5.78723" stroke="black" stroke-width="2" stroke-linecap="round"/>
<path d="M194.763 6.67473C192.746 8.31608 192.209 15.0871 194.833 16.4488C196.303 17.2114 197.968 14.9488 198.124 13.7539C198.487 10.9634 196.152 9.34049 194.319 8.19701" stroke="black" stroke-width="2" stroke-linecap="round"/>
<path d="M201.77 4.63672C201.823 7.30424 201.886 9.97096 201.93 12.6396C201.953 14.031 201.872 15.6513 202.252 17.0139C202.371 17.4404 202.704 16.2489 202.875 15.8407" stroke="black" stroke-width="2" stroke-linecap="round"/>
<path d="M201.621 8.48029C202.936 7.3278 206.434 6.67948 208.079 7.36205C209.451 7.93154 203.872 12.0739 203.326 12.4805C201.705 13.687 204.121 14.1955 205.331 14.8033C205.973 15.1257 211.053 17.9331 209.792 16.1093" stroke="black" stroke-width="2" stroke-linecap="round"/>
<path d="M212.145 5.03931C211.676 7.51276 212.295 10.0626 212.239 12.5692C212.216 13.5889 211.817 15.094 212.497 15.8292" stroke="black" stroke-width="2" stroke-linecap="round"/>
<path d="M215.13 7.46394C218.154 6.98012 221.527 5.40254 224.443 5.5155" stroke="black" stroke-width="2" stroke-linecap="round"/>
<path d="M219.388 6.85916C220.034 4.64312 219.85 11.4568 219.911 13.7643C219.936 14.709 219.916 21.0746 220.907 17.3094" stroke="black" stroke-width="2" stroke-linecap="round"/>
<path d="M227.133 5.61969C229.01 4.85277 230.995 4.33514 232.971 3.92156" stroke="black" stroke-width="2" stroke-linecap="round"/>
<path d="M227.532 5.25C227.493 7.53617 227.72 9.80886 227.651 12.0967C227.616 13.2793 227.227 14.9715 227.516 16.1539C227.591 16.4626 234.78 14.5551 235.259 14.4013" stroke="black" stroke-width="2" stroke-linecap="round"/>
<path d="M228.92 9.15323C229.791 9.12898 233.424 8.09879 233.177 8.54841" stroke="black" stroke-width="2" stroke-linecap="round"/>
<path d="M256.857 3.30752C255.101 3.57515 253.537 3.86873 252.19 5.11519C251.324 5.91666 249.273 7.92726 251.019 8.83299C252.469 9.5852 256.564 11.1482 254.789 13.6188C253.321 15.664 249.512 15.3227 248.769 13.3856" stroke="black" stroke-width="2" stroke-linecap="round"/>
<path d="M260.301 3.82583C262.6 5.01889 266.146 3.1125 267.986 4.12358" stroke="black" stroke-width="2" stroke-linecap="round"/>
<path d="M260.64 4.99396C260.684 3.84107 260.283 7.27376 260.122 8.41633C259.913 9.91037 258.587 14.9782 260.381 16.1023C262.176 17.2275 266.069 13.6729 268.013 13.3618" stroke="black" stroke-width="2" stroke-linecap="round"/>
<path d="M260.077 9.58992C262.278 9.23775 264.271 8.33749 266.315 7.52238" stroke="black" stroke-width="2" stroke-linecap="round"/>
<path d="M273.397 3.56334C272.463 5.18925 272.077 7.20561 271.477 8.96263C271.067 10.1639 270.651 11.3288 270.185 12.5047C270.109 12.6975 270.479 11.7317 270.379 11.9135" stroke="black" stroke-width="2" stroke-linecap="round"/>
<path d="M274.608 2.07129C274.78 3.83727 276.799 16.0114 276.378 15.995" stroke="black" stroke-width="2" stroke-linecap="round"/>
<path d="M270.084 9.59285C271.513 9.18602 274.376 8.92372 275.169 7.48065" stroke="black" stroke-width="2" stroke-linecap="round"/>
<path d="M286.477 3.68537C286.607 0.34641 279.082 3.70345 280.517 6.31957C281.823 8.70166 288.48 9.10688 286.971 13.0268C286.277 14.8289 283.988 16.0605 282.129 15.4905C280.601 15.0222 280.906 14.2124 280.725 13.0842" stroke="black" stroke-width="2" stroke-linecap="round"/>
<path d="M292.626 3.92366C290.703 4.86456 289.949 7.90567 290.042 9.89593C290.281 14.9987 296.77 11.232 296.931 7.59701C297.209 1.28424 288.972 3.29746 290.969 6.93843" stroke="black" stroke-width="2" stroke-linecap="round"/>
<path d="M299.647 1.50122C299.485 5.68494 299.37 9.87312 299.161 14.0547C299.058 16.1133 298.789 13.7022 298.816 13.015" stroke="black" stroke-width="2" stroke-linecap="round"/>
<path d="M299.573 3.42285C301.777 6.92853 303.985 10.4462 306.265 13.9025C307.455 15.7057 306.997 13.865 306.901 12.9436" stroke="black" stroke-width="2" stroke-linecap="round"/>
<path d="M307.363 1.03053C306.971 0.916308 306.276 10.4905 306.177 11.7609" stroke="black" stroke-width="2" stroke-linecap="round"/>
<path d="M313.05 13.1823C311.802 13.3666 310.983 17.3103 310.151 18.4582" stroke="black" stroke-width="2" stroke-linecap="round"/>
<path d="M2.34175 41.1672C1.99706 45.0439 1.83545 48.8305 2.08644 52.7247C2.2394 55.098 2.27005 57.1947 3.00333 53.8935" stroke="black" stroke-width="2" stroke-linecap="round"/>
<path d="M3.00594 43.888C5.41606 43.0566 9.28223 44.428 6.97269 47.4627C6.42137 48.1872 2.49485 50.2142 3.7892 50.1617C5.37062 50.0977 10.0255 50.1051 10.5549 52.1344C11.4931 55.7315 3.48923 54.3392 2.21968 54.2489" stroke="black" stroke-width="2" stroke-linecap="round"/>
<path d="M13.0273 43.5057C12.0955 43.7333 13.9514 52.7767 15.3253 53.7296C18.4622 55.9052 19.4544 49.4392 19.6626 47.7397C19.7075 47.3725 19.8071 41.8805 19.2057 42.9753" stroke="black" stroke-width="2" stroke-linecap="round"/>
<path d="M21.8957 43.0794C24.2265 42.7629 26.5189 42.4044 28.751 41.6345C29.656 41.3223 30.4426 40.8425 31.208 41.131" stroke="black" stroke-width="2" stroke-linecap="round"/>
<path d="M26.9062 42.8887C26.7592 46.6845 26.7451 50.4964 26.6354 54.2959C26.5699 56.5629 27.0727 59.9705 26.7844 55.9694" stroke="black" stroke-width="2" stroke-linecap="round"/>
<path d="M49.7119 42.0869C49.6389 45.5344 49.7589 48.9971 49.8237 52.4447C49.8305 52.8115 50.0891 56.8039 49.6439 54.6764" stroke="black" stroke-width="2" stroke-linecap="round"/>
<path d="M66.46 43.1553C66.3843 46.5618 66.2087 50.107 67.0876 53.4398C67.3141 54.2988 67.4878 54.3417 67.7305 53.6979" stroke="black" stroke-width="2" stroke-linecap="round"/>
<path d="M66.0894 41.8817C67.8477 43.1797 73.7894 43.2006 73.883 45.9613C74.0177 49.9376 67.1827 53.2372 64.3612 53.9871" stroke="black" stroke-width="2" stroke-linecap="round"/>
<path d="M79.4365 44.0779C77.3373 45.414 75.2081 53.7493 79.5255 52.616C81.4205 52.1185 82.4178 49.7703 82.4328 47.9949C82.4681 43.7992 79.5024 45.1114 76.8732 45.2378" stroke="black" stroke-width="2" stroke-linecap="round"/>
<path d="M100.869 41.1365C104.039 41.2593 108.007 40.0613 110.89 40.755" stroke="black" stroke-width="2" stroke-linecap="round"/>
<path d="M103.529 42.0085C102.359 45.9115 103.416 50.0738 102.763 54.038C102.51 55.5774 109.824 52.3252 110.842 51.9135" stroke="black" stroke-width="2" stroke-linecap="round"/>
<path d="M102.537 47.7429C104.26 46.8173 108.987 45.4956 110.681 46.1341" stroke="black" stroke-width="2" stroke-linecap="round"/>
<path d="M113.491 43.1643C113.066 46.0181 112.864 48.7773 113.076 51.6581C113.212 53.5034 112.895 50.8995 112.824 50.4509" stroke="black" stroke-width="2" stroke-linecap="round"/>
<path d="M112.648 45.0566C113.969 46.3696 115.052 47.7953 116.228 49.2364C116.591 49.6816 116.927 50.1565 117.353 50.5415C119.643 52.6099 116.619 49.5626 118.219 50.2757" stroke="black" stroke-width="2" stroke-linecap="round"/>
<path d="M119.36 40.6982C118.936 40.5205 119.133 46.383 119.113 47.0604C119.073 48.4391 118.775 49.8365 119.342 51.0889" stroke="black" stroke-width="2" stroke-linecap="round"/>
<path d="M124.799 39.3691C124.725 43.9925 125.531 48.677 125.243 53.2843C125.151 54.7606 124.615 55.977 123.111 56.4516C121.293 57.0252 120.885 56.1105 119.562 55.3306" stroke="black" stroke-width="2" stroke-linecap="round"/>
<path d="M128.523 42.5923C127.938 44.5993 127.028 47.0581 128.144 49.0776C129.181 50.9555 131.302 50.3883 132.217 48.7864C133.469 46.5945 132.718 41.8492 129.661 43.0213" stroke="black" stroke-width="2" stroke-linecap="round"/>
<path d="M133.742 37.0215C134.72 39.8584 135.952 41.8974 138.913 42.61" stroke="black" stroke-width="2" stroke-linecap="round"/>
<path d="M144.088 38.1918C143.31 39.3817 140.544 40.2224 139.357 41.0875C138.533 41.6888 137.613 42.5809 136.614 42.9056C136.288 43.0116 136.717 42.3609 137.11 42.7965C138.413 44.2403 138.479 48.2073 138.838 50.0903C139.059 51.2545 139.028 50.7754 139.399 49.941" stroke="black" stroke-width="2" stroke-linecap="round"/>
<path d="M155.542 40.5605C156.843 40.0939 165.53 38.0963 165.239 38.627" stroke="black" stroke-width="2" stroke-linecap="round"/>
<path d="M158.676 39.1423C158.115 42.382 158.104 45.6747 157.826 48.9449C157.664 50.8446 157.645 51.2627 157.106 49.8578" stroke="black" stroke-width="2" stroke-linecap="round"/>
<path d="M157.27 45.63C159.217 44.5157 163.626 43.567 165.429 43.6369" stroke="black" stroke-width="2" stroke-linecap="round"/>
<path d="M171.477 36.5588C169.545 39.202 168.683 42.2988 167.502 45.3209C167.221 46.0414 165.975 49.4143 165.975 49.4311" stroke="black" stroke-width="2" stroke-linecap="round"/>
<path d="M171.048 37.6968C170.654 39.1933 172.53 42.8231 172.984 44.0152C173.778 46.1002 174.647 48.1552 175.567 50.1876" stroke="black" stroke-width="2" stroke-linecap="round"/>
<path d="M167.247 46.4015C169.348 45.223 171.608 44.2463 173.899 43.5802" stroke="black" stroke-width="2" stroke-linecap="round"/>
<path d="M176.768 39.0732C177.187 42.3734 177.177 45.8616 177.767 49.1399C178.551 53.4915 182.41 47.5602 183.801 46.2733" stroke="black" stroke-width="2" stroke-linecap="round"/>
<path d="M185.326 36.7103C185.165 40.8645 184.827 45.1264 185.783 49.2148C186.01 50.1878 186.314 50.2363 187.01 49.5403C188.848 47.7034 190.451 46.7653 192.684 45.4625" stroke="black" stroke-width="2" stroke-linecap="round"/>
<path d="M203.742 38.1934C206.843 37.8527 209.933 37.4286 213.025 37.0136" stroke="black" stroke-width="2" stroke-linecap="round"/>
<path d="M206.462 37.5293C206.699 41.4185 207.42 45.2611 207.593 49.1619C207.69 51.3432 207.008 54.0373 208.631 51.0837" stroke="black" stroke-width="2" stroke-linecap="round"/>
<path d="M206.179 44.8306C208.524 44.2471 211.249 43.1027 213.555 43.192" stroke="black" stroke-width="2" stroke-linecap="round"/>
<path d="M218.345 38.7597C217.322 39.3362 216.663 40.7854 216.344 41.8467C215.606 44.3046 217.1 48.7736 220.159 45.4796C222.225 43.2557 220.416 39.6458 217.713 39.0773C216.978 38.9227 216.622 39.5788 217.148 39.8679" stroke="black" stroke-width="2" stroke-linecap="round"/>
<path d="M224.613 35.9238C224.993 39.835 225.174 43.7424 225.312 47.668C225.34 48.4487 225.256 49.312 226.256 48.6881C228.305 47.4098 230.314 45.9903 232.355 44.6908" stroke="black" stroke-width="2" stroke-linecap="round"/>
<path d="M235.004 35.9409C234.294 40.0753 234.37 43.8228 235.311 47.8836" stroke="black" stroke-width="2" stroke-linecap="round"/>
<path d="M240.798 35.3957C239.894 38.3433 239.217 41.3407 238.569 44.3537C238.288 45.6595 237.482 47.1434 238.814 46.8648" stroke="black" stroke-width="2" stroke-linecap="round"/>
<path d="M241.936 35.8242C243.02 39.8141 244.695 43.6764 246.1 47.5316" stroke="black" stroke-width="2" stroke-linecap="round"/>
<path d="M237.855 41.8243C239.247 40.2957 241.851 39.6969 243.738 38.9733" stroke="black" stroke-width="2" stroke-linecap="round"/>
<path d="M252.8 33.5517C251.459 36.089 248.386 40.8036 249.453 43.7707C250.439 46.5093 255.155 44.1777 256.286 42.9235" stroke="black" stroke-width="2" stroke-linecap="round"/>
<path d="M249.767 42.2856C250.326 41.1729 257.609 39.4892 257.503 41.3024C257.382 43.358 257.369 45.4254 257.67 47.4668C257.947 49.3394 258.065 50.2161 258.398 48.0081" stroke="black" stroke-width="2" stroke-linecap="round"/>
<path d="M259.333 33.8043C260.584 32.3593 264.869 32.0621 266.739 31.3971" stroke="black" stroke-width="2" stroke-linecap="round"/>
<path d="M261.239 34.2637C261.512 38.7413 261.471 43.1892 261.854 47.6509C261.855 47.6586 269.086 45.8525 269.646 45.7505" stroke="black" stroke-width="2" stroke-linecap="round"/>
<path d="M261.341 41.5792C262.559 40.0349 266.125 39.9112 267.964 39.5265" stroke="black" stroke-width="2" stroke-linecap="round"/>
<path d="M274.538 48.6336L274.168 48.2344" stroke="black" stroke-width="2" stroke-linecap="round"/>
</svg>
