<svg width="501" height="30" viewBox="0 0 501 30" fill="none" xmlns="http://www.w3.org/2000/svg">
<path d="M7.3878 11.3521C6.77998 11.0905 3.92175 20.4975 3.65158 21.2565C2.92583 23.2953 2.05738 25.3727 1.60895 27.5013C1.443 28.2891 2.39519 26.0918 2.69943 25.3464" stroke="black" stroke-width="2" stroke-linecap="round"/>
<path d="M7.77393 11.3848C8.9214 13.5778 9.30683 16.7454 9.8437 19.0807C10.5944 22.346 11.3398 25.6201 12.1249 28.869" stroke="black" stroke-width="2" stroke-linecap="round"/>
<path d="M1.0959 21.3206C4.48878 20.3912 7.80499 20.1512 11.3009 20.2417" stroke="black" stroke-width="2" stroke-linecap="round"/>
<path d="M16.525 13.6842C16.1141 16.04 15.2151 25.3963 17.0211 26.1736" stroke="black" stroke-width="2" stroke-linecap="round"/>
<path d="M16.3283 16.0007C17.0203 15.5372 24.2311 25.3691 25.1639 26.4749" stroke="black" stroke-width="2" stroke-linecap="round"/>
<path d="M25.218 12.0874C24.4596 11.9126 25.2813 18.5949 25.3001 19.2689C25.3644 21.5801 25.1965 23.9304 25.4004 26.2358C25.5869 28.3445 25.8263 26.4465 26.3554 26.1872" stroke="black" stroke-width="2" stroke-linecap="round"/>
<path d="M51.7569 9.24847C47.4713 13.1068 47.7727 20.6087 45.0957 24.9917" stroke="black" stroke-width="2" stroke-linecap="round"/>
<path d="M49.8247 12.4131C52.6093 16.9093 53.6009 22.4116 54.8694 27.4856" stroke="black" stroke-width="2" stroke-linecap="round"/>
<path d="M45.1859 20.007C48.3814 20.2781 51.3638 20.4202 54.5225 19.8008" stroke="black" stroke-width="2" stroke-linecap="round"/>
<path d="M63.653 10.2585C64.2273 13.7409 66.5979 20.3211 63.7663 23.3039C62.6887 24.439 61.1122 24.5283 59.6813 24.1591C57.9291 23.7069 57.7128 23.4254 57.6587 22.0644" stroke="black" stroke-width="2" stroke-linecap="round"/>
<path d="M68.8002 12.3588C68.1715 14.1491 67.8566 24.1978 71.9617 22.1682C76.289 20.0287 72.938 14.1516 74.2276 11.1553" stroke="black" stroke-width="2" stroke-linecap="round"/>
<path d="M79.3242 9.92383C79.0637 13.4987 78.9228 17.0965 78.8183 20.6793C78.727 23.8103 78.8591 22.0515 78.7854 20.1957" stroke="black" stroke-width="2" stroke-linecap="round"/>
<path d="M79.8447 11.6318C80.8393 12.5062 81.6062 13.6593 82.4534 14.6637C83.5613 15.9771 84.5229 16.4721 85.6746 17.4518" stroke="black" stroke-width="2" stroke-linecap="round"/>
<path d="M89.8421 11.4821C88.3456 13.2067 86.9254 15.005 85.3359 16.6469C83.9646 18.0634 84.2422 17.7077 85.0696 16.7352" stroke="black" stroke-width="2" stroke-linecap="round"/>
<path d="M89.0977 12.4169C89.1063 12.3688 89.2635 11.6573 89.2941 12.0637C89.4625 14.2968 89.1099 16.699 89.0267 18.9195C88.9579 20.755 88.6482 23.2319 88.9821 25.11C89.0434 25.4548 89.078 24.4157 89.1076 24.0667" stroke="black" stroke-width="2" stroke-linecap="round"/>
<path d="M92.9572 10.0823C92.3945 13.9515 92.1438 17.6915 92.5725 21.5877C92.7917 23.5798 92.6939 22.4986 92.6647 21.3736" stroke="black" stroke-width="2" stroke-linecap="round"/>
<path d="M93.4771 11.791C94.9297 13.869 96.7446 15.4266 98.7021 16.894" stroke="black" stroke-width="2" stroke-linecap="round"/>
<path d="M101.711 12.8219C100.329 13.7202 99.2384 15.3168 98.2473 16.5958C97.8198 17.1475 97.1057 17.6496 97.1002 18.3475C97.0976 18.6816 97.6382 17.926 97.9578 17.8286" stroke="black" stroke-width="2" stroke-linecap="round"/>
<path d="M101.324 13.4549C101.511 13.0068 102.18 11.8515 102.251 12.3317C102.763 15.7809 102.35 19.4477 102.498 22.9292C102.542 23.945 102.494 26.9433 102.777 25.9667C102.926 25.4528 102.528 24.6888 102.409 24.1975" stroke="black" stroke-width="2" stroke-linecap="round"/>
<path d="M109.507 11.1539C107.874 13.2499 106.928 15.689 105.938 18.1362C105.758 18.5804 104.811 20.9434 104.576 21.5522C103.659 23.9214 104.449 21.8868 104.589 22.0526" stroke="black" stroke-width="2" stroke-linecap="round"/>
<path d="M109.148 11.4561C110.081 12.1992 111.01 15.861 111.298 16.6309C112.31 19.3319 113.217 22.1408 114.003 24.8482" stroke="black" stroke-width="2" stroke-linecap="round"/>
<path d="M105.474 19.4654C105.174 18.7143 112.297 17.1816 112.665 17.0803" stroke="black" stroke-width="2" stroke-linecap="round"/>
<path d="M137.316 13.9668C133.705 10.9838 131.434 18.0746 131.483 20.5554C131.635 28.2994 139.501 23.4565 142.878 21.0941" stroke="black" stroke-width="2" stroke-linecap="round"/>
<path d="M145.336 14.8667C143.936 16.4629 143.268 18.8765 144.657 20.8069C146.954 23.9983 148.565 19.2152 148.027 17.3199C147.179 14.3327 143.155 12.3543 142.872 16.3777" stroke="black" stroke-width="2" stroke-linecap="round"/>
<path d="M152.276 11.9857C151.432 14.1696 151.565 16.8809 151.433 19.1869C151.313 21.2712 151.372 23.0259 152.046 20.0533" stroke="black" stroke-width="2" stroke-linecap="round"/>
<path d="M150.77 14.2383C150.541 12.7978 150.282 11.61 152.022 12.9415C153.02 13.7059 154.062 14.7596 155.224 15.2997C159.819 17.4351 154.027 14.4011 158.097 15.4267" stroke="black" stroke-width="2" stroke-linecap="round"/>
<path d="M160.585 13.5802C161.613 12.3351 157.628 14.8816 156.177 15.5908C155.56 15.8923 157.223 14.7006 157.766 14.2803C157.786 14.2649 158.557 13.5786 158.578 13.645C158.858 14.5174 159.634 14.6182 159.76 15.7303C160.057 18.3468 159.949 20.9999 160.216 23.6215C160.434 25.7566 160.286 25.6708 161.149 24.7349" stroke="black" stroke-width="2" stroke-linecap="round"/>
<path d="M165.129 11.2046C164.345 15.0183 165.368 19.113 165.275 22.9849C165.238 24.4961 165.069 26.4421 165.24 24.0117" stroke="black" stroke-width="2" stroke-linecap="round"/>
<path d="M164.701 12.5217C167.112 12.9785 171.332 15.0003 168.401 17.6469C167.332 18.612 164.667 20.5212 163.583 18.8428" stroke="black" stroke-width="2" stroke-linecap="round"/>
<path d="M174.155 12.1755C173.843 15.4955 172.685 19.7376 174.149 22.9159C175.456 25.7526 179.341 19.8811 180.076 18.9911" stroke="black" stroke-width="2" stroke-linecap="round"/>
<path d="M182.676 10.7536C182.334 9.93028 182.667 10.9177 182.719 11.2057C183.095 13.269 182.986 15.3498 182.955 17.4348C182.942 18.3145 182.575 23.8826 183.433 23.9429" stroke="black" stroke-width="2" stroke-linecap="round"/>
<path d="M187.345 11.418C187.47 14.1702 187.3 16.9122 187.271 19.6649C187.245 22.0718 187.246 22.4236 187.427 19.8443" stroke="black" stroke-width="2" stroke-linecap="round"/>
<path d="M187.251 12.7585C187.382 11.5871 187.724 12.0203 188.637 12.7436C189.582 13.4928 190.671 14.4652 191.73 15.0567C197.199 18.1117 189.954 13.9343 194.124 15.5992" stroke="black" stroke-width="2" stroke-linecap="round"/>
<path d="M196.801 11.0727C195.518 11.7377 194.553 12.6611 193.529 13.6872C192.22 14.9996 188.3 18.6847 190.026 18.0069C192.551 17.0152 195.346 13.4457 196.431 11.0093C196.585 10.6636 196.509 11.7623 196.538 12.1396C196.714 14.4041 197.013 16.6565 197.185 18.9215C197.311 20.5904 197.464 25.5964 197.582 23.9268" stroke="black" stroke-width="2" stroke-linecap="round"/>
<path d="M200.488 11.3313C201.692 10.0773 204.021 9.96241 205.657 9.67352" stroke="black" stroke-width="2" stroke-linecap="round"/>
<path d="M201.852 11.0905C200.755 12.6581 199.809 22.9843 202.935 22.8431C203.873 22.8008 207.364 21.2331 206.937 20.2052" stroke="black" stroke-width="2" stroke-linecap="round"/>
<path d="M201.739 17.4817C203.41 16.272 204.636 16.2441 206.572 15.8004" stroke="black" stroke-width="2" stroke-linecap="round"/>
<path d="M209.895 11.6553C210.758 14.3835 210.459 17.2781 210.724 20.0967C210.894 21.9 211.019 22.5347 210.959 20.4874" stroke="black" stroke-width="2" stroke-linecap="round"/>
<path d="M210.854 12.3965C212.288 14.4089 213.643 16.4976 215.143 18.4612C215.459 18.8738 215.761 19.3044 216.145 19.6543C218.228 21.5542 215.593 18.9058 217.086 19.5708" stroke="black" stroke-width="2" stroke-linecap="round"/>
<path d="M217.146 9.13307C216.629 11.5654 216.804 13.9882 216.968 16.4558C217.059 17.8256 217.052 19.6414 217.686 20.623" stroke="black" stroke-width="2" stroke-linecap="round"/>
<path d="M220.067 10.6858C220.147 10.2822 227.706 9.98018 228.923 9.28703" stroke="black" stroke-width="2" stroke-linecap="round"/>
<path d="M224.449 10.6573C224.049 14.3972 224.641 17.8817 225.73 21.1888" stroke="black" stroke-width="2" stroke-linecap="round"/>
<path d="M231.005 8.42285C231.029 12.4006 230.908 16.3696 230.766 20.3446C230.732 21.3093 230.583 22.9298 230.951 23.576" stroke="black" stroke-width="2" stroke-linecap="round"/>
<path d="M235.892 10.7873C235.39 8.8373 235.103 14.7408 234.875 16.7412C234.853 16.9333 234.414 22.238 234.609 19.4546" stroke="black" stroke-width="2" stroke-linecap="round"/>
<path d="M235.01 13.7565C235.513 11.7862 237.703 16.1364 237.839 16.3692C238.464 17.4413 238.994 18.5684 239.65 19.6214C240.514 21.0068 239.971 19.9642 240.643 19.8782" stroke="black" stroke-width="2" stroke-linecap="round"/>
<path d="M241.014 9.79978C240.116 9.8485 239.767 21.1642 240.213 21.1955" stroke="black" stroke-width="2" stroke-linecap="round"/>
<path d="M251.545 8.51867C251.495 6.82992 249.154 10.9877 248.42 12.5094C247.786 13.8246 245.527 17.5247 247.482 18.9367C249.251 20.2147 251.809 18.917 253.543 18.4269" stroke="black" stroke-width="2" stroke-linecap="round"/>
<path d="M247.869 17.691C248.608 16.5993 253.96 13.1865 254.543 15.3904C255.078 17.4171 254.327 20.794 255.654 21.943" stroke="black" stroke-width="2" stroke-linecap="round"/>
<path d="M309.411 8.36643C309.081 8.73733 309.302 9.70716 309.324 10.0463C309.526 13.191 309.566 16.3289 309.606 19.4789C309.617 20.4223 309.451 23.1762 309.806 22.3021C310.118 21.5339 310.035 20.472 310.105 19.6497" stroke="black" stroke-width="2" stroke-linecap="round"/>
<path d="M309.927 10.0608C311.284 11.8295 313.35 15.5758 316.086 15.0769C318.026 14.723 319.952 12.5403 320.862 10.8787C321.384 9.9268 319.083 12.1629 318.39 12.9981C317.374 14.2214 317.209 14.462 316.223 15.6204C316.017 15.8626 315.809 16.1027 315.594 16.3373C315.55 16.3857 315.732 16.1191 315.682 16.1614" stroke="black" stroke-width="2" stroke-linecap="round"/>
<path d="M320.555 9.3125C321.463 12.0504 321.263 15.642 321.538 18.4745C321.576 18.8633 321.828 21.6623 321.98 22.5652C322.075 23.1317 322.12 21.9932 322.12 21.9903" stroke="black" stroke-width="2" stroke-linecap="round"/>
<path d="M324.272 8.30664C324.86 9.09685 325.341 9.98436 326.012 10.7102C327.36 12.1673 328.26 11.7444 329.866 12.4128" stroke="black" stroke-width="2" stroke-linecap="round"/>
<path d="M334.328 6.51927C332.194 8.55601 330.018 10.6031 327.684 12.4113C327.491 12.5607 328.737 11.3822 329.097 11.1007C329.838 10.5213 329.962 14.2261 329.966 14.2557C330.245 16.0911 330.481 17.7009 330.858 19.5218C331.536 22.7888 331.741 21.124 331.765 21.1576" stroke="black" stroke-width="2" stroke-linecap="round"/>
<path d="M347.154 9.15988C350.354 9.34589 353.336 8.66339 356.263 7.47941" stroke="black" stroke-width="2" stroke-linecap="round"/>
<path d="M350.751 9.54102C350.493 13.3865 350.515 17.2421 350.519 21.094" stroke="black" stroke-width="2" stroke-linecap="round"/>
<path d="M348.423 15.9095C348.096 15.036 350.233 15.4582 351.14 15.242C352.885 14.8261 354.562 14.3115 356.259 13.7632" stroke="black" stroke-width="2" stroke-linecap="round"/>
<path d="M359.911 10.5117C360.168 13.4311 360.277 16.3341 360.306 19.2644C360.308 19.5146 360.149 23.0393 360.694 21.8417" stroke="black" stroke-width="2" stroke-linecap="round"/>
<path d="M360.169 11.2007C361.555 10.9299 365.788 10.0013 365.275 12.955C365.104 13.9399 361.383 17.111 361.932 17.4521C363.962 18.7144 367.531 18.9278 369.908 19.1799" stroke="black" stroke-width="2" stroke-linecap="round"/>
<path d="M371.568 9.76367C371.62 13.5629 371.952 17.3184 372.351 21.0936" stroke="black" stroke-width="2" stroke-linecap="round"/>
<path d="M375.528 9.85196C375.381 9.18122 381.52 8.63535 382.278 8.58293" stroke="black" stroke-width="2" stroke-linecap="round"/>
<path d="M377.233 9.37182C376.977 11.9519 374.804 21.0194 379.845 20.0872C380.422 19.9806 383.728 18.1128 382.804 19.2247" stroke="black" stroke-width="2" stroke-linecap="round"/>
<path d="M375.593 15.4821C377.809 14.3965 380.364 14.1524 382.74 13.5936" stroke="black" stroke-width="2" stroke-linecap="round"/>
<path d="M387.185 9.10323C385.991 9.36547 386.067 13.4086 385.984 14.195C385.875 15.2161 385.563 21.9721 385.629 17.5388" stroke="black" stroke-width="2" stroke-linecap="round"/>
<path d="M385.445 9.91113C386.699 10.2046 388.525 13.1703 389.035 13.8386C390.362 15.5751 391.744 17.2725 393.083 18.9907" stroke="black" stroke-width="2" stroke-linecap="round"/>
<path d="M393.281 7.76526C394.499 3.87052 392.198 16.0797 393.306 20.0072" stroke="black" stroke-width="2" stroke-linecap="round"/>
<path d="M397.638 7.23423C396.889 10.5607 397.285 14.192 397.147 17.5837C397.037 20.2937 397.149 18.0842 397.252 17.117" stroke="black" stroke-width="2" stroke-linecap="round"/>
<path d="M397.965 7.26912C400.12 8.75962 401.9 10.4619 401.993 13.3013C402.048 14.9753 401.721 16.2241 400.695 17.5742C398.986 19.8197 397.226 19.296 394.942 20.1803" stroke="black" stroke-width="2" stroke-linecap="round"/>
<path d="M410.93 6.65934C410.953 5.13265 409.003 7.12462 408.615 7.51658C405.751 10.4098 409.855 11.3764 411.784 12.8144C414.644 14.946 411.573 17.1407 409.296 17.733C408.429 17.9587 407.64 18.0431 406.768 17.8325C405.517 17.5304 406.081 17.1203 405.602 16.349" stroke="black" stroke-width="2" stroke-linecap="round"/>
<path d="M419.594 2.94642C419.17 2.48796 417.183 8.47008 416.938 9.2806" stroke="black" stroke-width="2" stroke-linecap="round"/>
<path d="M433.814 2.9874C432.857 9.37039 433.234 15.668 433.184 22.0815" stroke="black" stroke-width="2" stroke-linecap="round"/>
<path d="M432.512 14.4316C435.167 12.8004 438.359 12.2699 441.34 11.5493" stroke="black" stroke-width="2" stroke-linecap="round"/>
<path d="M440.747 6.87695C441.474 8.70323 440.888 12.3598 440.966 14.2318C441.028 15.7155 440.892 18.8683 441.601 20.1546" stroke="black" stroke-width="2" stroke-linecap="round"/>
<path d="M448.975 3.28362C448.034 6.13775 446.501 8.85165 445.368 11.6343C444.897 12.7915 443.365 17.0299 443.49 17.3439" stroke="black" stroke-width="2" stroke-linecap="round"/>
<path d="M447.441 5.79467C448.616 4.04608 450.217 10.5095 450.383 11.1063C451.022 13.401 451.496 15.7426 452.012 18.0672" stroke="black" stroke-width="2" stroke-linecap="round"/>
<path d="M444.095 14.0945C446.519 13.0704 449.036 12.4882 451.557 11.7565" stroke="black" stroke-width="2" stroke-linecap="round"/>
<path d="M456.646 6.24609C456.317 10.1317 456.613 14.4206 456.301 18.1014" stroke="black" stroke-width="2" stroke-linecap="round"/>
<path d="M456.235 7.20117C457.043 7.51522 457.715 8.89409 458.115 9.46987C459.866 11.9927 461.818 14.3093 463.678 16.7463" stroke="black" stroke-width="2" stroke-linecap="round"/>
<path d="M463.452 3.85254C463.227 8.31335 463.441 12.6734 463.978 17.1024" stroke="black" stroke-width="2" stroke-linecap="round"/>
<path d="M469.352 4.35313C469.116 7.13018 468.83 9.89531 468.482 12.6609C468.346 13.7371 468.092 15.4876 468.054 16.6228C467.972 19.0336 468.236 17.2235 468.867 17.8473" stroke="black" stroke-width="2" stroke-linecap="round"/>
<path d="M468.968 4.98093C470.031 4.74025 477.326 3.77085 474.142 7.12562C473.204 8.11368 471.899 8.31226 470.672 8.68353C470.08 8.8623 471.811 9.18178 472.416 9.30841C474.583 9.76239 478.273 10.9091 476.036 13.7606C474.203 16.0971 471.603 15.7075 469.089 15.2252" stroke="black" stroke-width="2" stroke-linecap="round"/>
<path d="M482.435 5.79324C480.892 7.12134 479.782 8.54048 479.817 10.7064C479.853 12.9629 481.596 15.4091 484.001 13.9226C485.859 12.7741 486.87 10.355 486.649 8.22331C486.548 7.25349 486.258 6.35301 485.507 5.68711C484.16 4.49417 483.631 5.84573 482.407 6.12101" stroke="black" stroke-width="2" stroke-linecap="round"/>
<path d="M492.085 1C492.094 6.62552 492.082 12.2327 492.305 17.8553" stroke="black" stroke-width="2" stroke-linecap="round"/>
<path d="M499.513 2.95107C496.811 4.02691 494.567 5.50956 492.187 7.15295C492.114 7.20293 490.081 8.68547 489.976 8.56101C488.278 6.54786 494.471 11.7668 497.095 11.9895" stroke="black" stroke-width="2" stroke-linecap="round"/>
<path d="M274.53 11.5345C271.002 12.2746 270.274 18.5876 273.299 20.5695C275.522 22.0253 279.624 20.4764 278.33 17.3116C277.163 14.4588 274.563 13.7579 272.314 12.8084" stroke="black" stroke-width="2" stroke-linecap="round"/>
<path d="M283.817 10.7299C282.732 13.7294 283.123 16.872 283.48 19.9819C283.538 20.4818 283.73 22.7556 283.845 21.0322" stroke="black" stroke-width="2" stroke-linecap="round"/>
<path d="M283.748 11.79C286.031 13.7727 287.836 16.3449 289.849 18.5879C289.911 18.6576 291.664 20.7154 292.335 20.9628C292.611 21.0643 292.54 20.3708 292.78 20.203" stroke="black" stroke-width="2" stroke-linecap="round"/>
<path d="M291.879 7.00186C291.465 10.4133 292.023 13.9653 292.296 17.3695C292.401 18.6796 292.463 19.9945 292.628 21.2985C292.644 21.4313 292.644 20.8101 292.732 20.9108" stroke="black" stroke-width="2" stroke-linecap="round"/>
</svg>
