<svg width="322" height="60" viewBox="0 0 322 60" fill="none" xmlns="http://www.w3.org/2000/svg">
<path d="M1.10205 12.9131C1.33049 17.3312 1.00967 21.8795 1.48302 26.1995" stroke="black" stroke-width="2" stroke-linecap="round"/>
<path d="M16.9843 13.4296C16.7405 12.9956 16.6051 14.3757 16.6027 14.8735C16.5895 17.5539 16.7394 20.4496 17.8078 22.9509C18.5695 24.734 20.3715 26.5263 22.2466 24.7241C25.3778 21.7146 24.5669 16.1115 25.0944 12.3045" stroke="black" stroke-width="2" stroke-linecap="round"/>
<path d="M33.072 12.9138C31.9314 12.0561 30.8721 11.6125 29.6761 12.7126C28.239 14.0344 29.4539 15.4624 30.5068 16.5555C31.3271 17.407 34.8476 20.053 33.5156 21.5726C32.8158 22.3709 31.413 22.4474 30.5042 22.4281C29.9421 22.4161 29.3594 22.3756 28.838 22.1652C26.1592 21.0839 29.703 21.9566 28.3006 20.5736" stroke="black" stroke-width="2" stroke-linecap="round"/>
<path d="M35.6874 15.2066C37.6982 13.6683 39.7387 13.1299 42.1691 12.5617" stroke="black" stroke-width="2" stroke-linecap="round"/>
<path d="M36.9141 12.8585C36.1489 15.5851 34.8359 19.0456 36.3085 21.8055C37.6468 24.3139 42.0937 21.7249 43.9622 21.072" stroke="black" stroke-width="2" stroke-linecap="round"/>
<path d="M35.7708 18.7023C35.6245 17.2955 41.7573 16.313 42.9462 16.1104" stroke="black" stroke-width="2" stroke-linecap="round"/>
<path d="M48.1999 11.2784C47.6944 14.353 47.3991 17.3302 47.4802 20.4493C47.5016 21.2722 47.9232 23.0697 47.0055 22.3513" stroke="black" stroke-width="2" stroke-linecap="round"/>
<path d="M47.5311 10.8782C49.3112 11.5222 52.6359 13.0473 53.5955 14.7137C55.4829 17.9911 47.8989 20.9324 45.9899 21.9245" stroke="black" stroke-width="2" stroke-linecap="round"/>
<path d="M65.1982 13.2877C68.3473 11.9739 71.5099 11.0357 74.8658 10.4073C75.7494 10.2418 77.1655 9.86429 77.6126 10.3853" stroke="black" stroke-width="2" stroke-linecap="round"/>
<path d="M72.3867 11.5898C72.1198 16.1841 71.8012 20.8031 71.9773 25.3557" stroke="black" stroke-width="2" stroke-linecap="round"/>
<path d="M79.2586 14.0406C77.8416 15.4274 76.6575 16.748 76.4694 18.8188C76.3655 19.9628 76.6173 21.9467 78.148 22.0487C79.8165 22.1598 81.555 20.2429 81.9276 18.7721C82.8412 15.1663 78.7761 15.0555 76.7065 13.8457" stroke="black" stroke-width="2" stroke-linecap="round"/>
<path d="M95.574 10.4728C95.2351 13.09 94.9724 15.6589 94.9759 18.3061C94.9764 18.7344 94.7695 23.7887 95.3595 21.6866" stroke="black" stroke-width="2" stroke-linecap="round"/>
<path d="M95.7717 12.0924C96.4677 12.0239 103.306 11.0151 101.16 13.8942C100.416 14.8926 98.4835 16.0003 97.4618 16.5709C96.6555 17.0213 94.5317 17.2265 95.0729 17.975C95.7414 18.8994 98.6084 19.0807 99.5559 19.2621C101.626 19.6582 103.669 20.0488 105.714 20.5523" stroke="black" stroke-width="2" stroke-linecap="round"/>
<path d="M109.34 10.8824C108.576 13.5035 108.255 16.1214 108.108 18.8456C108.047 19.9774 107.882 21.3417 108.488 22.0476" stroke="black" stroke-width="2" stroke-linecap="round"/>
<path d="M113.609 9.60425C113.358 12.4386 112.707 16.0636 112.927 18.5363" stroke="black" stroke-width="2" stroke-linecap="round"/>
<path d="M112.849 11.1507C113.652 8.58265 118.682 10.8954 118.322 13.2442C117.868 16.207 113.526 20.1865 110.572 19.961" stroke="black" stroke-width="2" stroke-linecap="round"/>
<path d="M123.204 10.0159C124.873 8.96626 126.96 8.49954 128.821 7.87797" stroke="black" stroke-width="2" stroke-linecap="round"/>
<path d="M122.541 10.286C122.153 11.8137 119.502 19.7284 121.595 20.3388C123.71 20.9553 127.598 18.5596 129.661 17.8887" stroke="black" stroke-width="2" stroke-linecap="round"/>
<path d="M119.869 15.8573C122.444 14.1751 125.242 13.5471 128.136 12.6383" stroke="black" stroke-width="2" stroke-linecap="round"/>
<path d="M142.334 9.11523C142.116 12.5615 141.961 16.0418 141.934 19.4949C141.917 21.7109 142.283 20.6861 142.512 19.3964" stroke="black" stroke-width="2" stroke-linecap="round"/>
<path d="M142.286 9.75391C142.529 9.80778 143.614 10.9387 143.621 10.9432C145.749 12.3026 147.51 11.5861 149.82 11.9335" stroke="black" stroke-width="2" stroke-linecap="round"/>
<path d="M152.296 8.91417C152.444 8.5622 151.724 9.42245 151.469 9.70665C149.748 11.6253 147.809 13.4604 146.249 15.5114C144.446 17.8803 150.255 11.1069 152.244 8.89239C152.463 8.6493 152.525 9.49867 152.548 9.82465C152.711 12.1693 152.477 14.5295 152.401 16.8725C152.391 17.2077 152.252 23.2352 153.014 20.5201" stroke="black" stroke-width="2" stroke-linecap="round"/>
<path d="M155.165 4.96191C155.057 7.77773 155.083 10.4103 158.26 10.6529" stroke="black" stroke-width="2" stroke-linecap="round"/>
<path d="M163.019 7.16616C160.964 8.00443 158.979 10.837 156.736 11.0003C156.476 11.0192 157.027 10.5059 157.279 10.4356C157.889 10.265 158.108 11.5026 158.174 11.7874C158.792 14.4574 158.962 17.265 159.277 19.9824C159.499 21.8996 159.565 21.5041 160.106 20.0991" stroke="black" stroke-width="2" stroke-linecap="round"/>
<path d="M176.507 7.10938C176.878 10.217 176.83 13.2906 176.937 16.4116C176.959 17.0338 176.981 18.2085 177.211 18.8925C177.495 19.7348 177.767 18.5739 177.887 18.445" stroke="black" stroke-width="2" stroke-linecap="round"/>
<path d="M177.415 7.82052C178.669 7.2166 180.136 6.78737 181.327 7.94102C182.891 9.45533 180.682 10.8916 179.62 11.6253C178.506 12.3945 178.283 12.2754 179.706 12.3628C181.209 12.455 182.888 12.6515 184.182 13.5067C188.579 16.4122 180.185 23.2731 177.298 17.7583" stroke="black" stroke-width="2" stroke-linecap="round"/>
<path d="M188.359 7.37305C188.202 10.804 188.135 14.2674 188.212 17.7008C188.237 18.7803 188.083 20.9969 189.348 19.6413" stroke="black" stroke-width="2" stroke-linecap="round"/>
<path d="M195.547 5.67606C195.346 8.30984 195.108 10.944 194.944 13.5803C194.827 15.4546 195.053 16.3295 195.579 17.8713" stroke="black" stroke-width="2" stroke-linecap="round"/>
<path d="M201.56 6.77716C198.544 7.5121 195.655 11.3727 194.349 12.9647" stroke="black" stroke-width="2" stroke-linecap="round"/>
<path d="M195.085 11.7367C194.793 11.6066 194.55 11.5573 194.941 11.993C196.092 13.2787 197.783 14.0824 199.264 14.9079C199.856 15.2382 202.709 17.5714 202.154 15.806" stroke="black" stroke-width="2" stroke-linecap="round"/>
<path d="M203.916 5.35218C206.669 5.47036 209.277 5.09653 211.988 4.68514" stroke="black" stroke-width="2" stroke-linecap="round"/>
<path d="M204.185 6.01465C204.221 6.77323 204.415 7.50231 204.458 8.26378C204.611 10.9247 203.391 14.4757 204.525 16.9678C205.797 19.7627 210.259 17.8886 212.288 17.5428" stroke="black" stroke-width="2" stroke-linecap="round"/>
<path d="M205.907 12.8844C207.58 11.8635 209.936 11.5877 211.819 11.0898" stroke="black" stroke-width="2" stroke-linecap="round"/>
<path d="M229.009 6.76574C233.455 6.169 237.784 5.245 242.15 4.23787" stroke="black" stroke-width="2" stroke-linecap="round"/>
<path d="M234.92 6.43164C235.408 10.0485 235.066 13.5727 234.905 17.1988C234.862 18.1657 234.878 18.8833 235.227 17.8338" stroke="black" stroke-width="2" stroke-linecap="round"/>
<path d="M245.512 6.45624C243.461 7.91612 241.08 12.545 244.117 14.4586C246.446 15.9264 248.291 12.7364 248.696 11.0154C248.898 10.1531 249.019 9.19338 248.724 8.35816C247.408 4.6322 247.016 8.7384 244.732 6.39667" stroke="black" stroke-width="2" stroke-linecap="round"/>
<path d="M268.545 3.54951C267.36 3.74827 260.004 5.27548 261.907 7.83778C262.816 9.06153 264.633 9.4741 265.861 10.2253C270.131 12.8378 261.127 13.0074 260.429 13.1974" stroke="black" stroke-width="2" stroke-linecap="round"/>
<path d="M278.337 5.58077C277.945 5.25013 277.402 4.47771 276.859 4.39834C274.838 4.1032 272.772 6.81184 271.846 8.18676C270.917 9.5645 269.293 12.613 271.7 13.5947C274.419 14.7034 278.032 13.2273 280.697 12.4991" stroke="black" stroke-width="2" stroke-linecap="round"/>
<path d="M282.336 3.64015C281.858 5.11093 280.008 15.3343 281.435 15.4433" stroke="black" stroke-width="2" stroke-linecap="round"/>
<path d="M281.873 9.70127C281.544 8.65268 286.692 7.68645 287.172 7.53898" stroke="black" stroke-width="2" stroke-linecap="round"/>
<path d="M286.802 3.98109C286.506 3.78044 286.629 4.28096 286.64 4.46784C286.749 6.22114 286.808 7.96752 286.845 9.72424C286.863 10.5701 286.604 14.5702 287.299 14.2866" stroke="black" stroke-width="2" stroke-linecap="round"/>
<path d="M292.412 3.88568C291.401 5.38621 290.014 7.29526 291.008 9.19751C292.22 11.5181 295.436 10.0609 296.667 8.61361C300.317 4.32464 291.198 2.9676 291.136 3.78825" stroke="black" stroke-width="2" stroke-linecap="round"/>
<path d="M300.779 3.56222C297.738 6.01562 299.282 11.2497 303.626 10.1613C305.292 9.74372 307.249 8.27614 306.701 6.31394C305.68 2.66378 302.273 4.63678 300.019 5.10852" stroke="black" stroke-width="2" stroke-linecap="round"/>
<path d="M310.887 1.44604C310.531 3.07486 310.305 4.68257 310.263 6.35392C310.226 7.85687 309.811 11.5842 311.038 12.7769C311.908 13.6216 319.422 7.76626 320.73 7.01057" stroke="black" stroke-width="2" stroke-linecap="round"/>
<path d="M11.7959 43.9834C11.9055 48.6561 11.679 53.8298 13.006 58.2608" stroke="black" stroke-width="2" stroke-linecap="round"/>
<path d="M18.2476 44.8594C18.5407 47.4899 20.1314 54.354 18.899 56.4105" stroke="black" stroke-width="2" stroke-linecap="round"/>
<path d="M18.4535 47.1761C18.6959 46.7716 24.7704 53.353 25.611 53.8567" stroke="black" stroke-width="2" stroke-linecap="round"/>
<path d="M25.2241 43.8587C24.9157 42.0488 26.0887 47.4383 26.2809 49.2641C26.504 51.383 26.5319 52.164 26.6583 54.0851C26.7469 55.433 26.737 54.1697 26.7543 53.9434" stroke="black" stroke-width="2" stroke-linecap="round"/>
<path d="M40.6098 45.0319C43.4734 43.7849 46.9777 43.8487 50.0314 43.5052" stroke="black" stroke-width="2" stroke-linecap="round"/>
<path d="M46.4248 44.5129C45.8827 45.2055 46.4694 47.974 46.5089 48.548C46.6832 51.0797 46.9041 53.5997 47.1429 56.1189" stroke="black" stroke-width="2" stroke-linecap="round"/>
<path d="M53.5405 43.7734C53.7172 47.7494 54.2645 51.7558 54.5533 55.7227" stroke="black" stroke-width="2" stroke-linecap="round"/>
<path d="M55.0644 49.0231C56.6503 47.7686 59.6842 47.6924 61.6149 47.2772" stroke="black" stroke-width="2" stroke-linecap="round"/>
<path d="M59.9694 43.6228C59.3936 43.5788 60.5924 55.8944 60.6144 56.1857" stroke="black" stroke-width="2" stroke-linecap="round"/>
<path d="M62.4726 44.4553C64.7399 43.6782 67.0478 42.9959 69.3665 42.4149" stroke="black" stroke-width="2" stroke-linecap="round"/>
<path d="M63.0869 44.8234C62.3367 46.6078 63.5794 54.9576 65.6993 55.4331C67.2413 55.779 70.2805 52.8597 71.8264 52.2289" stroke="black" stroke-width="2" stroke-linecap="round"/>
<path d="M63.0156 49.9511C65.0184 48.7126 67.1235 48.2838 69.2959 47.5429" stroke="black" stroke-width="2" stroke-linecap="round"/>
<path d="M88.997 41.6678C86.3009 44.2876 83.3391 49.0335 86.0505 52.7086C88.1694 55.5807 91.8763 52.1636 93.7624 50.6949" stroke="black" stroke-width="2" stroke-linecap="round"/>
<path d="M88.5603 51.5808C88.035 50.4986 95.3858 46.8267 95.4315 47.97C95.5124 49.9955 95.1028 51.7636 95.7756 53.7361" stroke="black" stroke-width="2" stroke-linecap="round"/>
<path d="M98.544 46.8885C98.7281 48.449 98.6846 51.2574 100.123 52.3568C101.929 53.7375 103.617 50.0787 103.81 48.8949C104.122 46.9744 103.248 45.0488 101.232 44.5982C98.5182 43.9914 97.9283 45.5926 96.9003 47.4047" stroke="black" stroke-width="2" stroke-linecap="round"/>
<path d="M109.586 45.165C108.604 46.4303 107.866 47.7254 108.77 49.3096C109.577 50.7215 111.264 50.8156 112.473 49.8419C113.803 48.7711 114.341 46.6022 113.259 45.1602C111.691 43.0723 109.807 44.6528 107.991 45.0432" stroke="black" stroke-width="2" stroke-linecap="round"/>
<path d="M116.109 39.5664C117.625 43.3828 117.706 47.2417 118.103 51.2698" stroke="black" stroke-width="2" stroke-linecap="round"/>
<path d="M115.718 40.499C117.715 41.1911 121.56 41.4243 122.657 43.471C124.374 46.6753 118.487 49.5692 116.533 50.8289" stroke="black" stroke-width="2" stroke-linecap="round"/>
<path d="M142.296 42.316C136.783 42.0763 137.475 52.2379 142.658 50.1869C145.92 48.8958 146.71 45.8695 144.773 43.0221C144.114 42.0529 143.205 40.994 141.949 40.7921C140.354 40.5357 140.129 42.1978 139.352 43.0537" stroke="black" stroke-width="2" stroke-linecap="round"/>
<path d="M149.78 40.9619C149.708 43.0627 149.823 45.1613 150.013 47.2543C150.16 48.8822 150.053 51.9575 151.077 53.3963C151.269 53.6667 158.056 48.5874 158.863 48.0727" stroke="black" stroke-width="2" stroke-linecap="round"/>
<path d="M162.073 39.6547C161.331 41.7071 162.768 45.3295 163.013 47.4271C163.183 48.8911 163.235 50.357 163.372 51.8219C163.442 52.5655 163.568 51.8524 163.724 51.6527" stroke="black" stroke-width="2" stroke-linecap="round"/>
<path d="M163.005 40.0475C165.928 39.9279 170.587 41.1174 168.963 45.137C167.983 47.5617 165.506 50.2956 163.085 51.3729C161.988 51.8612 162.539 50.98 162.521 50.5989" stroke="black" stroke-width="2" stroke-linecap="round"/>
<path d="M186.723 36.2662C186.217 40.0573 186.205 43.7782 186.661 47.5808C186.76 48.4035 186.925 49.7421 187.215 50.6C187.612 51.7722 187.608 50.8672 188.179 50.8162" stroke="black" stroke-width="2" stroke-linecap="round"/>
<path d="M185.891 38.7695C186.092 39.2624 186.883 39.1559 187.38 39.3467C189.397 40.1214 194.019 41.4545 194.028 44.2573C194.038 47.3963 188.512 50.4328 186.192 51.6271" stroke="black" stroke-width="2" stroke-linecap="round"/>
<path d="M201.936 34.5397C201.29 36.1899 196.694 48.2574 197.355 48.3079" stroke="black" stroke-width="2" stroke-linecap="round"/>
<path d="M201.103 37.043C203.975 40.3896 205.224 45.6259 206.876 49.6766" stroke="black" stroke-width="2" stroke-linecap="round"/>
<path d="M197.304 44.774C197.431 43.1075 203.733 42.2653 205.203 42.1686" stroke="black" stroke-width="2" stroke-linecap="round"/>
<path d="M209.593 35.124C210.907 37.5762 212.528 39.7093 214.553 41.5992" stroke="black" stroke-width="2" stroke-linecap="round"/>
<path d="M220.806 35.3387C218.239 35.9253 216.025 38.0089 213.995 39.5602C210.683 42.0916 212.88 39.1685 213.348 40.5625C214.349 43.5429 214.395 46.9706 215.048 50.0508C215.698 53.1157 215.63 51.927 215.538 49.6961" stroke="black" stroke-width="2" stroke-linecap="round"/>
<path d="M227.089 37.1024C227.745 35.9173 226.308 36.2939 225.589 36.667C221.78 38.6447 224.933 41.3405 226.851 43.252C228.466 44.861 227.801 46.1419 225.732 46.9278C223.026 47.9558 222.105 46.8578 220.713 44.958" stroke="black" stroke-width="2" stroke-linecap="round"/>
<path d="M236.025 46.1269C235.723 46.3525 235.845 46.265 235.706 46.1025" stroke="black" stroke-width="2" stroke-linecap="round"/>
</svg>
