<svg width="334" height="33" viewBox="0 0 334 33" fill="none" xmlns="http://www.w3.org/2000/svg">
<path d="M1.99756 17.5889C3.28958 22.2005 3.73234 27.0114 4.43611 31.7247" stroke="black" stroke-width="2" stroke-linecap="round"/>
<path d="M2.02368 21.5052C1.48003 20.9636 3.54271 22.3761 3.61094 22.4157C5.45436 23.4844 7.00197 24.3425 9.0813 24.7581" stroke="black" stroke-width="2" stroke-linecap="round"/>
<path d="M12.037 17.9603C9.9743 20.0401 9.08445 23.0128 7.39501 25.3627C6.37502 26.7815 9.20501 22.3722 10.1682 20.9143" stroke="black" stroke-width="2" stroke-linecap="round"/>
<path d="M11.3905 19.3159C11.4813 19.2164 11.5355 18.8928 11.6291 18.9897C12.3619 19.7481 13.0435 24.529 13.138 24.9426C13.3227 25.7504 14.1561 29.489 14.4869 30.7298C14.9114 32.3224 14.6209 29.8995 14.6204 29.8688" stroke="black" stroke-width="2" stroke-linecap="round"/>
<path d="M16.6982 19.3809C18.0166 21.2876 19.5435 25.2832 22.0495 23.0823" stroke="black" stroke-width="2" stroke-linecap="round"/>
<path d="M27.0702 18.9348C25.2163 20.2165 23.2118 21.2676 21.3821 22.5886C19.5222 23.9314 20.9763 23.0013 21.3683 23.5196C22.6189 25.1726 22.8093 28.0302 23.2164 29.9915C23.4313 31.0269 23.8275 32.7672 23.5106 30.725" stroke="black" stroke-width="2" stroke-linecap="round"/>
<path d="M39.9816 18.8029C39.562 18.8794 40.1469 19.6414 40.2736 20.0487C40.8114 21.7777 41.2909 23.5092 41.674 25.2802C42.0226 26.8912 42.252 28.5354 42.6799 30.1289C43.0627 31.5543 42.8421 30.066 42.897 29.8945" stroke="black" stroke-width="2" stroke-linecap="round"/>
<path d="M40.3404 21.9018C40.0291 21.7615 40.1048 21.5894 40.4373 21.3645C42.0696 20.2608 44.6076 19.4783 46.573 19.4325C48.8552 19.3794 43.0236 24.2994 42.4818 24.8051C40.832 26.3451 48.2434 27.9194 49.2531 28.1637C50.1798 28.388 52.4148 29.1093 50.2437 28.6939" stroke="black" stroke-width="2" stroke-linecap="round"/>
<path d="M53.9367 19.148C53.45 21.0981 53.1981 23.0447 54.0567 24.9644C55.0156 27.1082 57.9214 28.7101 58.2735 25.0823C58.5385 22.3517 56.5264 13.8701 52.8953 17.9623" stroke="black" stroke-width="2" stroke-linecap="round"/>
<path d="M61.0591 17.0938C61.6023 20.8466 62.1455 25.1888 63.5363 28.7161C64.1417 30.2516 66.7518 26.6594 67.0782 26.3054C68.0974 25.1999 68.9772 24.405 70.1453 23.5533" stroke="black" stroke-width="2" stroke-linecap="round"/>
<path d="M70.0752 16.001C71.8007 16.3352 73.3771 16.2215 75.1042 16.0474" stroke="black" stroke-width="2" stroke-linecap="round"/>
<path d="M70.0215 16.8359C70.3228 18.0609 72.6595 29.7094 73.0287 29.6264C73.9514 29.4187 75.0329 28.49 75.9218 28.121C76.7276 27.7865 78.7355 27.0685 79.1516 26.9325" stroke="black" stroke-width="2" stroke-linecap="round"/>
<path d="M72.1301 23.1227C72.5125 22.5285 74.0826 22.4737 74.6853 22.2788C75.6418 21.9694 76.376 21.6355 77.025 20.9239" stroke="black" stroke-width="2" stroke-linecap="round"/>
<path d="M92.8662 15.9463C93.5441 19.4669 94.1429 22.997 94.7742 26.5254C94.8331 26.8548 94.933 28.7004 95.3092 27.7759" stroke="black" stroke-width="2" stroke-linecap="round"/>
<path d="M93.0813 17.1272C92.3682 17.1698 93.6933 18.3976 93.7261 18.4334C95.2793 20.1278 96.6114 20.7507 98.6289 21.5717" stroke="black" stroke-width="2" stroke-linecap="round"/>
<path d="M101.874 16.5292C100.999 16.0189 98.2059 21.4977 97.8488 22.104C97.6089 22.5113 97.3776 22.9237 97.1527 23.3395C97.0951 23.4461 96.925 23.764 97.0016 23.6701C97.1359 23.5058 97.2233 23.3081 97.3288 23.124C98.3967 21.261 99.4839 19.4133 100.575 17.5635C101.066 16.7295 101.499 14.583 102.252 15.1921C102.921 15.7333 102.957 18.8101 103.033 19.3925C103.347 21.7712 103.66 24.1505 104.014 26.5237C104.034 26.6596 104.309 28.5391 104.438 28.9827C104.471 29.0942 104.488 28.6096 104.588 28.6682" stroke="black" stroke-width="2" stroke-linecap="round"/>
<path d="M108.538 17.2535C107.524 19.6725 106.825 22.7111 108.286 25.1477C109.937 27.902 113.085 24.879 114.026 23.1206C115.617 20.1467 114.297 15.4582 110.501 14.9816C108.49 14.7292 108.365 16.787 108.191 18.1064" stroke="black" stroke-width="2" stroke-linecap="round"/>
<path d="M119.168 15.3164C119.606 18.3405 120.052 21.3739 120.558 24.3869C120.615 24.7277 120.967 27.5614 121.396 25.9649" stroke="black" stroke-width="2" stroke-linecap="round"/>
<path d="M117.639 16.3838C121.393 16.6875 126.483 18.0317 123.908 22.9499C123.086 24.5208 121.112 26.8534 119.286 26.9946" stroke="black" stroke-width="2" stroke-linecap="round"/>
<path d="M128.232 15.028C130.411 14.8441 132.547 14.2405 134.718 13.9895" stroke="black" stroke-width="2" stroke-linecap="round"/>
<path d="M127.903 15.5906C127.397 16.5224 127.87 18.4357 127.949 19.3867C128.068 20.8374 127.682 26.5981 129.779 26.9133C131.877 27.2288 135.619 23.7134 137.236 24.6571" stroke="black" stroke-width="2" stroke-linecap="round"/>
<path d="M128.708 21.1863C131.014 20.7229 133.256 20.1812 135.522 19.5854" stroke="black" stroke-width="2" stroke-linecap="round"/>
<path d="M139.986 13.7471C140.762 16.809 141.102 19.869 141.265 23.0211C141.294 23.579 141.08 25.5607 142.203 25.562C144.547 25.5647 146.984 23.0533 148.794 21.9042" stroke="black" stroke-width="2" stroke-linecap="round"/>
<path d="M162.09 13.9109C163.373 16.5714 163.585 19.3931 164.176 22.2484C164.302 22.8589 164.505 23.4607 164.609 24.0758C164.629 24.1985 164.523 24.5313 164.617 24.4491C165.221 23.9183 165.69 22.3672 166.157 21.696C166.849 20.6999 167.984 18.7207 169.051 18.058C169.235 17.9437 174.239 24.2872 174.382 23.85C174.847 22.4266 173.004 11.9922 174.173 12.068" stroke="black" stroke-width="2" stroke-linecap="round"/>
<path d="M177.098 11.9648C177.404 14.8422 178.139 17.6227 178.357 20.5406C178.382 20.866 178.477 24.8416 179.269 23.485" stroke="black" stroke-width="2" stroke-linecap="round"/>
<path d="M178.154 18.1618C178.21 17.3024 185.014 17.2263 185.513 17.1798" stroke="black" stroke-width="2" stroke-linecap="round"/>
<path d="M184.727 11.2923C184.389 10.9509 184.55 12.2606 184.65 12.73C185.451 16.49 186.26 20.2511 187.113 23.9936" stroke="black" stroke-width="2" stroke-linecap="round"/>
<path d="M194.684 11.7564C192.783 13.1719 191.155 14.5759 190.685 17.0403C190.502 18.004 190.471 20.0783 190.901 20.9855C192.432 24.2115 195.709 20.4603 196.644 19.1169C198.15 16.9522 200.357 11.5559 195.879 11.2048C194.022 11.0593 193.063 12.1022 192.103 13.3582" stroke="black" stroke-width="2" stroke-linecap="round"/>
<path d="M212.592 10.3252C212.708 13.5111 213.048 16.6797 213.127 19.8705C213.162 21.2917 213.145 22.7139 213.18 24.1351C213.19 24.5251 213.177 25.6214 213.38 25.2882C214.857 22.8615 218.287 21.0483 220.532 19.3251" stroke="black" stroke-width="2" stroke-linecap="round"/>
<path d="M222.702 11.125C222.829 14.1502 223.019 17.1823 223.266 20.1998C223.3 20.6152 223.183 23.8109 224.09 22.5961" stroke="black" stroke-width="2" stroke-linecap="round"/>
<path d="M227.345 10.2968C226.812 13.1934 227.744 15.536 228.544 18.2776C228.643 18.6172 229.261 21.0902 229.277 20.8866C229.616 16.724 231.56 12.3419 232.805 8.37394" stroke="black" stroke-width="2" stroke-linecap="round"/>
<path d="M232.538 8.91479C234.455 9.23054 236.367 8.87266 238.274 8.63056" stroke="black" stroke-width="2" stroke-linecap="round"/>
<path d="M234.447 9.73669C234.222 11.4217 234.176 13.1114 234.062 14.8066C233.968 16.208 232.66 21.033 235.166 20.9208C237.238 20.828 239.201 19.8354 241.296 19.8314" stroke="black" stroke-width="2" stroke-linecap="round"/>
<path d="M234.458 16.0195C234.456 14.5728 237.809 14.153 238.825 13.8256" stroke="black" stroke-width="2" stroke-linecap="round"/>
<path d="M248.651 8.88974C247.46 8.09941 245.802 9.62082 245.027 10.3992C242.444 12.9919 245.87 13.6306 248.024 14.5671C249.46 15.1912 250.613 15.8779 250.474 17.6282C250.355 19.1216 249.375 20.4345 247.839 20.5473C246.68 20.6323 244.848 20.2829 244.846 19.005" stroke="black" stroke-width="2" stroke-linecap="round"/>
<path d="M266.969 9.52123C266.416 12.5263 266.659 15.5634 266.803 18.5968C266.833 19.2387 266.526 22.0844 267.405 20.4707" stroke="black" stroke-width="2" stroke-linecap="round"/>
<path d="M273.033 8.09416C272.445 8.98456 272.421 9.65527 272.469 10.7472C272.589 13.4193 272.938 16.0515 272.888 18.7347C272.865 19.94 272.653 21.1538 272.654 22.356C272.654 22.7016 273.375 20.7787 273.412 20.6817" stroke="black" stroke-width="2" stroke-linecap="round"/>
<path d="M272.478 8.34766C273.838 11.7471 276.141 14.5033 278.263 17.4499C278.973 18.4353 279.614 19.5299 280.405 20.4561C280.824 20.9465 280.534 20.2382 280.539 20.1115" stroke="black" stroke-width="2" stroke-linecap="round"/>
<path d="M280.745 6.45058C280.294 10.4624 280.245 14.4573 280.261 18.4916C280.272 21.1074 280.353 21.0146 280.859 18.7555" stroke="black" stroke-width="2" stroke-linecap="round"/>
<path d="M296.581 3.61626C296.041 5.89553 296.739 8.68434 296.854 10.976C297.022 14.3566 297.048 17.7437 297.059 21.1277" stroke="black" stroke-width="2" stroke-linecap="round"/>
<path d="M295.353 7.3999C297.351 5.85068 302.144 6.47878 303.366 8.85054C304.042 10.1617 303.096 11.3899 302.081 12.1616C300.064 13.6946 298.488 13.3129 296.234 13.4446" stroke="black" stroke-width="2" stroke-linecap="round"/>
<path d="M307.443 5.63717C307.282 10.2175 307.092 14.7978 306.96 19.3791C306.904 21.3468 307.134 19.7884 307.246 19.0246" stroke="black" stroke-width="2" stroke-linecap="round"/>
<path d="M307.716 5.64746C309.011 6.78515 310.034 9.07634 310.98 10.4394C312.254 12.2738 313.604 14.0392 315.016 15.7445" stroke="black" stroke-width="2" stroke-linecap="round"/>
<path d="M315.409 4.55001C314.472 4.51711 314.635 8.40163 314.588 8.89487C314.402 10.8634 314.139 12.8359 314.137 14.8169C314.135 17.4016 314.26 15.1705 314.489 15.1785" stroke="black" stroke-width="2" stroke-linecap="round"/>
<path d="M319.825 3.33866C320.09 7.82532 320.561 12.2676 321.071 16.7312C321.2 17.8606 320.805 17.0731 320.732 16.8711C320.35 15.8101 322.129 13.3507 322.509 12.5447C323.296 10.8713 324.075 9.1728 324.693 7.42762C324.775 7.19538 324.792 6.5582 324.96 6.73843C326.275 8.14875 326.823 10.7008 327.616 12.4051C328.402 14.0939 329.262 15.7465 330.036 17.4408C330.212 17.8262 330.287 16.7107 330.291 16.6752C330.787 12.7499 331.391 8.82228 331.738 4.88064C331.76 4.62789 331.878 0.357203 332.168 2.13184" stroke="black" stroke-width="2" stroke-linecap="round"/>
</svg>
