<svg width="64" height="23" viewBox="0 0 64 23" fill="none" xmlns="http://www.w3.org/2000/svg">
<path d="M3.368 20.196C3.256 20.196 3.18133 20.1867 3.144 20.168C3.05067 20.1307 2.95733 20.112 2.864 20.112C2.78933 20.1307 2.70533 20.14 2.612 20.14C2.59333 20.14 2.57467 20.14 2.556 20.14C2.53733 20.1587 2.51867 20.168 2.5 20.168C2.36933 20.1867 2.23867 20.196 2.108 20.196C1.996 20.196 1.884 20.1773 1.772 20.14C1.75333 20.1213 1.73467 20.112 1.716 20.112C1.58533 20.1307 1.47333 20.0933 1.38 20C1.28667 19.9067 1.19333 19.8227 1.1 19.748C1.00667 19.6547 0.96 19.552 0.96 19.44L0.876 19.216C0.82 19.0853 0.801333 18.964 0.82 18.852C0.838667 18.8147 0.838667 18.7773 0.82 18.74C0.82 18.7027 0.82 18.6653 0.82 18.628C0.801333 18.5907 0.792 18.5533 0.792 18.516C0.792 18.46 0.782667 18.4133 0.764 18.376C0.726667 18.208 0.698667 18.04 0.68 17.872C0.68 17.6853 0.689333 17.508 0.708 17.34C0.726667 17.228 0.792 17.0413 0.904 16.78C1.016 16.5 1.08133 16.332 1.1 16.276C1.156 16.1827 1.184 16.108 1.184 16.052C1.16533 15.8467 1.156 15.6413 1.156 15.436C1.17467 15.212 1.184 14.9973 1.184 14.792C1.184 14.6613 1.212 14.5587 1.268 14.484C1.34267 14.3533 1.352 14.2133 1.296 14.064L1.212 13.756C1.1 13.5507 1.10933 13.3733 1.24 13.224C1.24 13.2053 1.24 13.196 1.24 13.196C1.25867 13.1773 1.268 13.1587 1.268 13.14C1.30533 13.1027 1.31467 13.056 1.296 13C1.27733 12.9253 1.268 12.8693 1.268 12.832C1.268 12.7573 1.27733 12.6827 1.296 12.608C1.33333 12.5147 1.34267 12.4307 1.324 12.356C1.324 12.356 1.30533 12.3373 1.268 12.3C1.24933 12.2627 1.24 12.188 1.24 12.076C1.25867 11.964 1.268 11.8987 1.268 11.88V11.096C1.28667 11.0027 1.296 10.9187 1.296 10.844C1.296 10.7507 1.30533 10.6573 1.324 10.564C1.34267 10.452 1.34267 10.34 1.324 10.228C1.324 10.0973 1.324 9.96667 1.324 9.836C1.30533 9.74267 1.28667 9.64 1.268 9.528C1.268 9.416 1.268 9.304 1.268 9.192C1.24933 9.15467 1.24 9.108 1.24 9.052C1.24 8.996 1.24 8.94933 1.24 8.912C1.22133 8.81867 1.20267 8.72533 1.184 8.632C1.184 8.53867 1.184 8.44533 1.184 8.352C1.184 8.31467 1.14667 8.19333 1.072 7.988C0.997333 7.764 0.969333 7.57733 0.988 7.428C1.00667 7.39067 1.016 7.344 1.016 7.288C1.016 7.232 0.997333 7.18533 0.96 7.148C0.922667 7.12933 0.904 7.092 0.904 7.036V6.952C0.96 6.728 0.932 6.504 0.82 6.28C0.745333 6.168 0.717333 6.056 0.736 5.944C0.736 5.79467 0.670667 5.68267 0.54 5.608C0.446667 5.51467 0.362667 5.40267 0.288 5.272C0.213333 5.14133 0.166667 5.01067 0.148 4.88C0.129333 4.78667 0.12 4.69333 0.12 4.6C0.12 4.50667 0.12 4.42267 0.12 4.348C0.12 4.27333 0.129333 4.22667 0.148 4.208C0.222667 4.13333 0.26 4.04933 0.26 3.956C0.26 3.844 0.269333 3.76 0.288 3.704C0.306667 3.68533 0.325333 3.676 0.344 3.676C0.362667 3.676 0.381333 3.66667 0.4 3.648C0.474667 3.62933 0.512 3.564 0.512 3.452C0.474667 3.37733 0.456 3.312 0.456 3.256C0.437333 3.18133 0.465333 3.116 0.54 3.06C0.577333 2.98533 0.624 2.96667 0.68 3.004C0.810667 3.06 0.96 3.04133 1.128 2.948C1.20267 2.91067 1.24933 2.892 1.268 2.892C1.324 2.892 1.352 2.892 1.352 2.892C1.37067 2.87333 1.42667 2.864 1.52 2.864C1.632 2.88267 1.73467 2.84533 1.828 2.752C1.95867 2.62133 2.11733 2.556 2.304 2.556H4.04C4.46933 2.57467 4.89867 2.57467 5.328 2.556C5.75733 2.53733 6.17733 2.528 6.588 2.528C6.68133 2.528 6.756 2.528 6.812 2.528C6.88667 2.50933 6.96133 2.49067 7.036 2.472C7.148 2.416 7.27867 2.388 7.428 2.388H8.072C8.22133 2.388 8.352 2.388 8.464 2.388C8.59467 2.36933 8.72533 2.35067 8.856 2.332C8.93067 2.31333 8.996 2.304 9.052 2.304C9.12667 2.304 9.20133 2.304 9.276 2.304C9.35067 2.304 9.42533 2.304 9.5 2.304C9.57467 2.304 9.64933 2.29467 9.724 2.276C9.87333 2.25733 10.032 2.248 10.2 2.248C10.368 2.22933 10.5267 2.22 10.676 2.22C10.7507 2.22 10.816 2.22 10.872 2.22C10.9467 2.20133 11.0213 2.18267 11.096 2.164C11.2453 2.12667 11.3853 2.108 11.516 2.108C11.6653 2.08933 11.8053 2.07067 11.936 2.052C12.0853 2.03333 12.2253 2.01467 12.356 1.996C12.5053 1.97733 12.6453 1.95867 12.776 1.94C12.944 1.94 13.0653 1.95867 13.14 1.996C13.252 2.07067 13.3547 2.136 13.448 2.192C13.56 2.248 13.6627 2.32267 13.756 2.416C13.8307 2.49067 13.8773 2.556 13.896 2.612C13.9147 2.68667 13.9333 2.76133 13.952 2.836C13.9707 2.91067 13.9893 2.99467 14.008 3.088V3.284C13.9893 3.37733 13.9707 3.48 13.952 3.592C13.952 3.68533 13.9427 3.788 13.924 3.9C13.8867 3.97467 13.84 4.04 13.784 4.096L13.28 4.6C13.0933 4.656 12.9067 4.69333 12.72 4.712C12.552 4.73067 12.3747 4.73067 12.188 4.712H11.992C11.8987 4.73067 11.8053 4.74 11.712 4.74C11.6187 4.74 11.5253 4.73067 11.432 4.712C11.32 4.69333 11.208 4.69333 11.096 4.712C10.984 4.712 10.872 4.712 10.76 4.712C10.6853 4.712 10.6107 4.72133 10.536 4.74C10.48 4.74 10.4147 4.73067 10.34 4.712C10.2467 4.69333 10.1533 4.69333 10.06 4.712C9.98533 4.712 9.90133 4.72133 9.808 4.74C9.73333 4.74 9.64933 4.74933 9.556 4.768C9.48133 4.768 9.39733 4.768 9.304 4.768C9.06133 4.80533 8.8 4.824 8.52 4.824C8.25867 4.824 7.99733 4.84267 7.736 4.88C7.568 4.86133 7.40933 4.87067 7.26 4.908C7.11067 4.92667 6.952 4.94533 6.784 4.964C6.63467 4.98267 6.476 4.992 6.308 4.992C6.14 4.992 5.98133 5.01067 5.832 5.048C5.64533 5.048 5.45867 5.076 5.272 5.132C5.104 5.16933 4.92667 5.19733 4.74 5.216L4.544 5.244C4.41333 5.244 4.292 5.26267 4.18 5.3C4.068 5.31867 3.94667 5.34667 3.816 5.384C3.74133 5.40267 3.66667 5.42133 3.592 5.44C3.51733 5.44 3.43333 5.44933 3.34 5.468C3.284 5.468 3.21867 5.48667 3.144 5.524C3.088 5.54267 3.06 5.59867 3.06 5.692L3.144 5.944C3.16267 5.98133 3.15333 6.07467 3.116 6.224C3.09733 6.37333 3.07867 6.48533 3.06 6.56C3.06 6.616 3.06933 6.672 3.088 6.728C3.10667 6.784 3.12533 6.84 3.144 6.896C3.2 7.04533 3.228 7.21333 3.228 7.4C3.228 7.568 3.24667 7.72667 3.284 7.876C3.30267 7.95067 3.312 8.03467 3.312 8.128C3.312 8.20267 3.32133 8.28667 3.34 8.38C3.34 8.41733 3.34 8.464 3.34 8.52C3.35867 8.55733 3.368 8.604 3.368 8.66C3.368 8.716 3.35867 8.75333 3.34 8.772C3.284 8.84667 3.256 8.93067 3.256 9.024C3.256 9.11733 3.256 9.21067 3.256 9.304C3.34933 9.49067 3.396 9.67733 3.396 9.864C3.396 10.0507 3.396 10.2373 3.396 10.424C3.396 10.48 3.44267 10.4987 3.536 10.48H3.564C3.60133 10.4053 3.63867 10.3493 3.676 10.312C3.732 10.312 3.79733 10.2933 3.872 10.256C3.928 10.2187 4.00267 10.2 4.096 10.2C4.24533 10.2187 4.38533 10.2187 4.516 10.2C4.64667 10.1627 4.77733 10.1253 4.908 10.088C5.78533 9.864 6.60667 9.57467 7.372 9.22C7.57733 9.12667 7.792 9.052 8.016 8.996C8.24 8.92133 8.464 8.87467 8.688 8.856H8.772C8.94 8.83733 9.108 8.81867 9.276 8.8C9.444 8.78133 9.612 8.772 9.78 8.772C10.004 8.75333 10.2187 8.72533 10.424 8.688C10.648 8.65067 10.872 8.62267 11.096 8.604C11.2267 8.56667 11.348 8.53867 11.46 8.52C11.572 8.48267 11.6933 8.436 11.824 8.38C12.0667 8.28667 12.2907 8.24 12.496 8.24C12.6453 8.25867 12.7853 8.296 12.916 8.352C13.0467 8.38933 13.1773 8.44533 13.308 8.52C13.588 8.70667 13.728 8.98667 13.728 9.36C13.728 9.50933 13.7093 9.65867 13.672 9.808C13.6533 9.95733 13.644 10.1067 13.644 10.256C13.644 10.2933 13.6253 10.3307 13.588 10.368L13.504 10.508C13.4853 10.5827 13.4667 10.6573 13.448 10.732C13.4293 10.8067 13.3827 10.8627 13.308 10.9C13.196 10.9933 13.0747 11.096 12.944 11.208C12.832 11.3013 12.7013 11.3667 12.552 11.404C12.4773 11.4227 12.4027 11.4413 12.328 11.46C12.272 11.4787 12.2067 11.488 12.132 11.488C11.8333 11.488 11.5253 11.5067 11.208 11.544C10.9093 11.5813 10.6013 11.6187 10.284 11.656C10.0413 11.6747 9.79867 11.7027 9.556 11.74C9.332 11.7773 9.09867 11.796 8.856 11.796C8.632 11.796 8.38 11.8427 8.1 11.936C7.91333 11.9733 7.71733 12.0107 7.512 12.048C7.30667 12.0853 7.10133 12.1133 6.896 12.132C6.74667 12.1507 6.588 12.1787 6.42 12.216C6.27067 12.2347 6.12133 12.2533 5.972 12.272L5.496 12.356C5.45867 12.3747 5.40267 12.384 5.328 12.384C5.19733 12.4213 5.06667 12.4493 4.936 12.468C4.80533 12.4867 4.67467 12.5147 4.544 12.552C4.41333 12.5707 4.28267 12.5987 4.152 12.636C4.04 12.6733 3.91867 12.7107 3.788 12.748C3.69467 12.7667 3.62 12.804 3.564 12.86C3.508 12.8973 3.46133 12.9533 3.424 13.028C3.40533 13.084 3.40533 13.14 3.424 13.196C3.44267 13.2707 3.43333 13.3453 3.396 13.42C3.41467 13.6067 3.424 13.7933 3.424 13.98C3.44267 14.1667 3.44267 14.3533 3.424 14.54C3.46133 14.6893 3.47067 14.8387 3.452 14.988C3.452 15.1373 3.44267 15.2867 3.424 15.436C3.38667 15.66 3.396 15.8467 3.452 15.996C3.508 16.2387 3.48933 16.4907 3.396 16.752C3.35867 16.864 3.35867 16.9387 3.396 16.976C3.43333 17.032 3.43333 17.0973 3.396 17.172V17.34C3.37733 17.4893 3.44267 17.564 3.592 17.564H3.648C3.77867 17.564 3.90933 17.6107 4.04 17.704C4.13333 17.7973 4.24533 17.8253 4.376 17.788L5.16 17.704C5.272 17.6853 5.384 17.676 5.496 17.676C5.608 17.6573 5.72 17.648 5.832 17.648C5.86933 17.6293 5.92533 17.6387 6 17.676C6.09333 17.732 6.17733 17.7413 6.252 17.704C6.28933 17.6667 6.336 17.6387 6.392 17.62C6.46667 17.6013 6.52267 17.5733 6.56 17.536C6.672 17.424 6.812 17.3867 6.98 17.424C7.12933 17.4613 7.25067 17.452 7.344 17.396C7.512 17.34 7.67067 17.3213 7.82 17.34C7.91333 17.3587 8.00667 17.3493 8.1 17.312C8.19333 17.2747 8.28667 17.256 8.38 17.256C8.41733 17.256 8.44533 17.2653 8.464 17.284C8.48267 17.284 8.50133 17.2747 8.52 17.256C8.55733 17.256 8.59467 17.2467 8.632 17.228C8.66933 17.2093 8.69733 17.2 8.716 17.2C8.84667 17.144 8.968 17.1253 9.08 17.144C9.17333 17.144 9.22 17.144 9.22 17.144C9.29467 17.1253 9.36 17.1253 9.416 17.144C9.49067 17.1627 9.556 17.1907 9.612 17.228C9.70533 17.2467 9.78 17.2747 9.836 17.312C9.91067 17.3493 9.98533 17.3773 10.06 17.396C10.0973 17.396 10.1253 17.4053 10.144 17.424C10.2373 17.4987 10.3493 17.564 10.48 17.62C10.6293 17.676 10.7133 17.7413 10.732 17.816C10.7693 17.928 10.788 18.04 10.788 18.152C10.788 18.2453 10.7973 18.348 10.816 18.46C10.816 18.516 10.8067 18.572 10.788 18.628C10.788 18.684 10.7787 18.74 10.76 18.796C10.7227 18.8707 10.676 18.9547 10.62 19.048C10.5827 19.1413 10.5267 19.2253 10.452 19.3C10.4147 19.3373 10.3773 19.3747 10.34 19.412C10.3213 19.4493 10.2933 19.4867 10.256 19.524C10.1813 19.5987 10.0973 19.664 10.004 19.72C9.91067 19.776 9.808 19.804 9.696 19.804C9.62133 19.804 9.56533 19.8133 9.528 19.832C9.45333 19.8693 9.37867 19.888 9.304 19.888C9.22933 19.888 9.14533 19.888 9.052 19.888C8.92133 19.9067 8.79067 19.9253 8.66 19.944C8.548 19.944 8.42667 19.9347 8.296 19.916C8.22133 19.8973 8.156 19.8973 8.1 19.916C7.91333 19.972 7.72667 19.9813 7.54 19.944C7.35333 19.944 7.16667 19.9533 6.98 19.972C6.812 19.972 6.644 19.972 6.476 19.972H6.112C6.056 19.972 6.00933 19.9813 5.972 20C5.89733 20.0373 5.804 20.056 5.692 20.056C5.59867 20.056 5.50533 20.0467 5.412 20.028H5.132C5.11333 20.028 5.08533 20.028 5.048 20.028C5.01067 20.0467 4.97333 20.0467 4.936 20.028C4.88 20.0093 4.824 20 4.768 20C4.73067 20.0187 4.684 20.0373 4.628 20.056C4.59067 20.056 4.55333 20.056 4.516 20.056C4.49733 20.0747 4.46933 20.084 4.432 20.084C4.24533 20.0653 4.068 20.0653 3.9 20.084C3.732 20.1213 3.55467 20.1587 3.368 20.196ZM27.9874 21.652H27.8474C27.7914 21.652 27.7261 21.6427 27.6514 21.624C27.5954 21.624 27.5301 21.624 27.4554 21.624C27.3248 21.6427 27.2128 21.6147 27.1194 21.54C27.0448 21.484 26.9608 21.4093 26.8674 21.316C26.8301 21.2787 26.7834 21.232 26.7274 21.176C26.6901 21.1387 26.6434 21.1107 26.5874 21.092C26.5501 21.0733 26.5128 21.0267 26.4754 20.952C26.4568 20.9147 26.4288 20.868 26.3914 20.812C26.3728 20.756 26.3448 20.7 26.3074 20.644C26.2701 20.5507 26.2608 20.448 26.2794 20.336C26.2981 20.28 26.3074 20.224 26.3074 20.168C26.3261 20.1307 26.3354 20.084 26.3354 20.028C26.3354 19.8413 26.3354 19.664 26.3354 19.496C26.3354 19.3093 26.3168 19.1227 26.2794 18.936C26.2608 18.88 26.2514 18.824 26.2514 18.768C26.2514 18.6933 26.2421 18.6187 26.2234 18.544C26.2234 18.4133 26.2141 18.3107 26.1954 18.236C26.1954 18.1427 26.1861 18.0587 26.1674 17.984C26.1674 17.9093 26.1674 17.8347 26.1674 17.76C26.1488 17.6293 26.1394 17.508 26.1394 17.396C26.1394 17.284 26.1208 17.1627 26.0834 17.032V16.948C26.0834 16.7053 26.0648 16.472 26.0274 16.248C26.0088 16.0053 25.9994 15.7627 25.9994 15.52C25.9994 15.408 25.9901 15.324 25.9714 15.268C25.9528 15.1 25.9341 14.932 25.9154 14.764C25.9154 14.5773 25.9154 14.3907 25.9154 14.204C25.9154 14.036 25.9154 13.868 25.9154 13.7C25.9154 13.5133 25.8968 13.336 25.8594 13.168C25.8408 13.1307 25.8314 13.084 25.8314 13.028C25.8314 12.972 25.8314 12.9253 25.8314 12.888C25.8314 12.1227 25.8314 11.3573 25.8314 10.592C25.8314 9.82667 25.8408 9.07067 25.8594 8.324C25.8594 8.23067 25.8594 8.13733 25.8594 8.044C25.8781 7.95067 25.8874 7.85733 25.8874 7.764C25.8874 7.708 25.8874 7.652 25.8874 7.596C25.9061 7.54 25.9154 7.49333 25.9154 7.456C25.9154 7.25067 25.9154 7.04533 25.9154 6.84C25.9341 6.616 25.9528 6.40133 25.9714 6.196C26.0088 6.14 26.0088 6.06533 25.9714 5.972C25.9528 5.95333 25.9248 5.944 25.8874 5.944L25.8034 6.028C25.7661 6.084 25.7194 6.14 25.6634 6.196C25.6074 6.252 25.5608 6.308 25.5234 6.364C25.4488 6.476 25.3648 6.59733 25.2714 6.728C25.1968 6.84 25.1128 6.96133 25.0194 7.092C24.8888 7.316 24.7488 7.54933 24.5994 7.792C24.4501 8.016 24.3381 8.25867 24.2634 8.52C24.2448 8.55733 24.2261 8.604 24.2074 8.66C24.1888 8.69733 24.1701 8.73467 24.1514 8.772C24.0768 8.95867 23.9928 9.14533 23.8994 9.332C23.8248 9.5 23.7501 9.68667 23.6754 9.892C23.5634 10.1347 23.4048 10.3587 23.1994 10.564C23.1621 10.6013 23.1248 10.62 23.0874 10.62C22.9941 10.676 22.8914 10.732 22.7794 10.788C22.6674 10.8253 22.5461 10.8347 22.4154 10.816H22.2474C22.0794 10.8533 21.9394 10.816 21.8274 10.704C21.6968 10.6667 21.5848 10.6013 21.4914 10.508C21.4168 10.4147 21.3328 10.312 21.2394 10.2C21.1648 10.1067 21.0994 9.99467 21.0434 9.864C21.0061 9.73333 20.9874 9.60267 20.9874 9.472C20.9688 9.43467 20.9594 9.388 20.9594 9.332C20.9594 9.276 20.9594 9.22933 20.9594 9.192C20.9408 9.15467 20.9221 9.11733 20.9034 9.08C20.8848 9.024 20.8754 8.98667 20.8754 8.968C20.8754 8.93067 20.8568 8.87467 20.8194 8.8C20.7821 8.72533 20.7074 8.576 20.5954 8.352C20.4834 8.128 20.4274 8.02533 20.4274 8.044C20.3714 7.95067 20.3154 7.848 20.2594 7.736C20.2034 7.624 20.1381 7.52133 20.0634 7.428L19.8954 7.12C19.8581 7.12 19.8301 7.11067 19.8114 7.092L19.7834 7.12C19.7834 7.176 19.7834 7.232 19.7834 7.288C19.7834 7.344 19.7928 7.4 19.8114 7.456C19.8488 7.66133 19.8674 7.86667 19.8674 8.072C19.8674 8.27733 19.8488 8.48267 19.8114 8.688C19.8114 8.8 19.8208 8.89333 19.8394 8.968C19.8581 9.00533 19.8674 9.07067 19.8674 9.164C19.8674 9.276 19.8674 9.388 19.8674 9.5C19.8861 9.612 19.8861 9.724 19.8674 9.836C19.8488 9.92933 19.8394 10.032 19.8394 10.144C19.8581 10.2373 19.8768 10.3307 19.8954 10.424V10.704C19.8581 10.816 19.8581 10.9373 19.8954 11.068C19.9141 11.1613 19.9141 11.264 19.8954 11.376C19.8954 11.4693 19.9048 11.5627 19.9234 11.656C19.9234 11.7493 19.9048 11.8707 19.8674 12.02C19.7554 12.468 19.7834 12.8973 19.9514 13.308C19.9701 13.3827 19.9888 13.4573 20.0074 13.532C20.0261 13.588 20.0261 13.6533 20.0074 13.728C20.0074 13.784 20.0074 13.84 20.0074 13.896C20.0074 13.952 20.0168 14.008 20.0354 14.064C20.0728 14.1387 20.0914 14.2133 20.0914 14.288C20.1101 14.4933 20.1194 14.652 20.1194 14.764C20.1381 14.876 20.1568 14.96 20.1754 15.016C20.2128 15.2213 20.2501 15.436 20.2874 15.66C20.3248 15.8653 20.3621 16.0707 20.3994 16.276C20.4368 16.5187 20.4741 16.7613 20.5114 17.004C20.5674 17.228 20.5954 17.4613 20.5954 17.704C20.5954 17.7787 20.6048 17.8347 20.6234 17.872C20.6608 18.0213 20.6794 18.18 20.6794 18.348C20.6794 18.4973 20.6888 18.6467 20.7074 18.796C20.7074 19.0013 20.6608 19.16 20.5674 19.272C20.5301 19.3467 20.5114 19.3933 20.5114 19.412C20.3434 19.7667 20.0448 19.972 19.6154 20.028C19.5594 20.0467 19.5034 20.056 19.4474 20.056C19.3914 20.056 19.3354 20.056 19.2794 20.056C19.0741 20.0933 18.9248 20.056 18.8314 19.944C18.7941 19.9067 18.7568 19.888 18.7194 19.888C18.6261 19.9067 18.5328 19.8507 18.4394 19.72C18.3834 19.6267 18.2994 19.5427 18.1874 19.468C18.1314 19.412 18.0848 19.3187 18.0474 19.188C18.0288 19.1507 18.0101 19.1133 17.9914 19.076C17.9914 19.0387 17.9914 19.0013 17.9914 18.964C17.9728 18.7027 17.9448 18.4507 17.9074 18.208C17.8701 17.9467 17.8421 17.6947 17.8234 17.452L17.7954 17.172C17.7768 17.0973 17.7674 17.032 17.7674 16.976C17.7674 16.92 17.7581 16.8547 17.7394 16.78V16.612C17.6834 16.3507 17.6554 16.0893 17.6554 15.828C17.6554 15.548 17.6648 15.2773 17.6834 15.016C17.7021 14.848 17.7114 14.68 17.7114 14.512C17.7114 14.3253 17.7208 14.148 17.7394 13.98V13.336C17.7394 13.2427 17.7394 13.1493 17.7394 13.056C17.7394 12.944 17.7301 12.8413 17.7114 12.748C17.6928 12.636 17.6834 12.524 17.6834 12.412C17.6834 12.3 17.6834 12.188 17.6834 12.076V10.788C17.6648 10.6387 17.6554 10.4893 17.6554 10.34C17.6554 10.172 17.6554 10.0133 17.6554 9.864C17.6554 9.808 17.6554 9.752 17.6554 9.696C17.6554 9.62133 17.6461 9.556 17.6274 9.5C17.6274 9.40667 17.6181 9.32267 17.5994 9.248C17.5994 9.15467 17.5901 9.07067 17.5714 8.996V8.8C17.5341 8.632 17.5154 8.47333 17.5154 8.324C17.5154 8.156 17.5154 7.988 17.5154 7.82C17.5154 7.67067 17.5154 7.52133 17.5154 7.372C17.5154 7.204 17.4968 7.05467 17.4594 6.924C17.4408 6.868 17.4314 6.812 17.4314 6.756C17.4314 6.7 17.4314 6.644 17.4314 6.588C17.4314 6.45733 17.4314 6.336 17.4314 6.224C17.4314 6.09333 17.4128 5.96267 17.3754 5.832C17.3568 5.79467 17.3474 5.72933 17.3474 5.636V4.236C17.3474 4.14267 17.3474 4.05867 17.3474 3.984C17.3474 3.89067 17.3288 3.80667 17.2914 3.732C17.2354 3.54533 17.2448 3.33067 17.3194 3.088C17.3568 2.99467 17.3941 2.92933 17.4314 2.892C17.4688 2.836 17.5061 2.78 17.5434 2.724C17.5808 2.668 17.6088 2.612 17.6274 2.556C17.6648 2.5 17.6928 2.472 17.7114 2.472C17.7861 2.45333 17.8421 2.42533 17.8794 2.388C17.9354 2.35067 17.9821 2.31333 18.0194 2.276L18.1874 2.192C18.2248 2.17333 18.2808 2.164 18.3554 2.164C18.4488 2.18267 18.5421 2.20133 18.6354 2.22C18.7474 2.22 18.8501 2.22933 18.9434 2.248C19.0554 2.248 19.1394 2.29467 19.1954 2.388C19.2888 2.51867 19.3821 2.64933 19.4754 2.78C19.5688 2.91067 19.6434 3.05067 19.6994 3.2C19.7554 3.33067 19.8301 3.44267 19.9234 3.536C20.0354 3.68533 20.1474 3.83467 20.2594 3.984C20.3714 4.13333 20.4928 4.28267 20.6234 4.432C20.6794 4.488 20.7261 4.55333 20.7634 4.628C20.8194 4.70267 20.8661 4.77733 20.9034 4.852C20.9968 4.98267 21.0808 5.11333 21.1554 5.244C21.2488 5.356 21.3421 5.47733 21.4354 5.608L21.8554 6.28C21.8928 6.35467 21.9301 6.42933 21.9674 6.504C22.0048 6.56 22.0421 6.616 22.0794 6.672C22.1168 6.76533 22.1728 6.77467 22.2474 6.7C22.3221 6.60667 22.3968 6.51333 22.4714 6.42C22.5648 6.308 22.6488 6.20533 22.7234 6.112C22.8914 5.90667 23.0594 5.692 23.2274 5.468C23.3954 5.244 23.5728 5.02933 23.7594 4.824L23.9274 4.572C24.0581 4.38533 24.1794 4.208 24.2914 4.04C24.4221 3.85333 24.5434 3.66667 24.6554 3.48C24.7861 3.27467 24.8981 3.06933 24.9914 2.864C25.1034 2.65867 25.1968 2.45333 25.2714 2.248L25.6074 1.492C25.7194 1.268 25.8781 1.08133 26.0834 0.931998C26.3634 0.707999 26.6714 0.623999 27.0074 0.679998C27.1381 0.698666 27.2594 0.735999 27.3714 0.791999C27.4834 0.829333 27.5954 0.866666 27.7074 0.903999C27.8194 0.941333 27.8941 1.02533 27.9314 1.156C27.9688 1.212 27.9968 1.268 28.0154 1.324C28.0341 1.38 28.0434 1.436 28.0434 1.492C28.0621 1.62267 28.0901 1.744 28.1274 1.856C28.1648 1.94933 28.1928 2.06133 28.2114 2.192L28.2394 2.472C28.2768 2.64 28.3141 2.808 28.3514 2.976C28.4074 3.144 28.4541 3.312 28.4914 3.48V3.536C28.5101 3.72267 28.5288 3.90933 28.5474 4.096C28.5848 4.264 28.5941 4.44133 28.5754 4.628V5.272C28.5754 5.36533 28.5754 5.45867 28.5754 5.552C28.5754 5.64533 28.5661 5.73867 28.5474 5.832C28.5288 5.96267 28.5194 6.09333 28.5194 6.224C28.5194 6.336 28.5194 6.45733 28.5194 6.588C28.5008 6.66267 28.4914 6.73733 28.4914 6.812C28.4914 6.88667 28.4821 6.96133 28.4634 7.036C28.4448 7.11067 28.4354 7.18533 28.4354 7.26C28.4354 7.316 28.4354 7.39067 28.4354 7.484V8.268C28.4354 8.39867 28.4261 8.52 28.4074 8.632C28.4074 8.744 28.3981 8.86533 28.3794 8.996C28.3608 9.07067 28.3514 9.14533 28.3514 9.22C28.3514 9.276 28.3514 9.34133 28.3514 9.416V11.124C28.3514 11.2547 28.3514 11.3853 28.3514 11.516C28.3701 11.6467 28.3888 11.7773 28.4074 11.908C28.4261 12.0013 28.4354 12.104 28.4354 12.216C28.4354 12.3093 28.4354 12.4027 28.4354 12.496C28.4541 12.6267 28.4634 12.7573 28.4634 12.888C28.4634 13 28.4728 13.1307 28.4914 13.28V13.588C28.5101 13.7373 28.5194 13.896 28.5194 14.064C28.5194 14.2133 28.5194 14.3627 28.5194 14.512V14.876C28.5568 15.0067 28.5754 15.1467 28.5754 15.296C28.5754 15.4453 28.5848 15.5947 28.6034 15.744V15.94C28.6408 16.052 28.6594 16.164 28.6594 16.276C28.6594 16.388 28.6688 16.5 28.6874 16.612L28.7714 17.62C28.7901 17.6947 28.7994 17.7693 28.7994 17.844C28.8181 17.9 28.8274 17.9653 28.8274 18.04C28.8461 18.1147 28.8554 18.1893 28.8554 18.264C28.8554 18.32 28.8648 18.3853 28.8834 18.46C28.8834 18.4787 28.8834 18.5067 28.8834 18.544C28.9021 18.5813 28.9114 18.6187 28.9114 18.656C28.9114 18.7867 28.9208 18.9267 28.9394 19.076C28.9768 19.2253 29.0048 19.3747 29.0234 19.524L29.1354 20.308C29.1354 20.42 29.1261 20.4947 29.1074 20.532C29.0888 20.644 29.0421 20.7467 28.9674 20.84C28.9114 20.952 28.8648 21.0547 28.8274 21.148C28.8274 21.1667 28.8181 21.176 28.7994 21.176C28.6688 21.288 28.5381 21.3813 28.4074 21.456C28.2768 21.5493 28.1368 21.6147 27.9874 21.652ZM44.5304 21.652H44.3904C44.3344 21.652 44.2691 21.6427 44.1944 21.624C44.1384 21.624 44.0731 21.624 43.9984 21.624C43.8677 21.6427 43.7557 21.6147 43.6624 21.54C43.5877 21.484 43.5037 21.4093 43.4104 21.316C43.3731 21.2787 43.3264 21.232 43.2704 21.176C43.2331 21.1387 43.1864 21.1107 43.1304 21.092C43.0931 21.0733 43.0557 21.0267 43.0184 20.952C42.9997 20.9147 42.9717 20.868 42.9344 20.812C42.9157 20.756 42.8877 20.7 42.8504 20.644C42.8131 20.5507 42.8037 20.448 42.8224 20.336C42.8411 20.28 42.8504 20.224 42.8504 20.168C42.8691 20.1307 42.8784 20.084 42.8784 20.028C42.8784 19.8413 42.8784 19.664 42.8784 19.496C42.8784 19.3093 42.8597 19.1227 42.8224 18.936C42.8037 18.88 42.7944 18.824 42.7944 18.768C42.7944 18.6933 42.7851 18.6187 42.7664 18.544C42.7664 18.4133 42.7571 18.3107 42.7384 18.236C42.7384 18.1427 42.7291 18.0587 42.7104 17.984C42.7104 17.9093 42.7104 17.8347 42.7104 17.76C42.6917 17.6293 42.6824 17.508 42.6824 17.396C42.6824 17.284 42.6637 17.1627 42.6264 17.032V16.948C42.6264 16.7053 42.6077 16.472 42.5704 16.248C42.5517 16.0053 42.5424 15.7627 42.5424 15.52C42.5424 15.408 42.5331 15.324 42.5144 15.268C42.4957 15.1 42.4771 14.932 42.4584 14.764C42.4584 14.5773 42.4584 14.3907 42.4584 14.204C42.4584 14.036 42.4584 13.868 42.4584 13.7C42.4584 13.5133 42.4397 13.336 42.4024 13.168C42.3837 13.1307 42.3744 13.084 42.3744 13.028C42.3744 12.972 42.3744 12.9253 42.3744 12.888C42.3744 12.1227 42.3744 11.3573 42.3744 10.592C42.3744 9.82667 42.3837 9.07067 42.4024 8.324C42.4024 8.23067 42.4024 8.13733 42.4024 8.044C42.4211 7.95067 42.4304 7.85733 42.4304 7.764C42.4304 7.708 42.4304 7.652 42.4304 7.596C42.4491 7.54 42.4584 7.49333 42.4584 7.456C42.4584 7.25067 42.4584 7.04533 42.4584 6.84C42.4771 6.616 42.4957 6.40133 42.5144 6.196C42.5517 6.14 42.5517 6.06533 42.5144 5.972C42.4957 5.95333 42.4677 5.944 42.4304 5.944L42.3464 6.028C42.3091 6.084 42.2624 6.14 42.2064 6.196C42.1504 6.252 42.1037 6.308 42.0664 6.364C41.9917 6.476 41.9077 6.59733 41.8144 6.728C41.7397 6.84 41.6557 6.96133 41.5624 7.092C41.4317 7.316 41.2917 7.54933 41.1424 7.792C40.9931 8.016 40.8811 8.25867 40.8064 8.52C40.7877 8.55733 40.7691 8.604 40.7504 8.66C40.7317 8.69733 40.7131 8.73467 40.6944 8.772C40.6197 8.95867 40.5357 9.14533 40.4424 9.332C40.3677 9.5 40.2931 9.68667 40.2184 9.892C40.1064 10.1347 39.9477 10.3587 39.7424 10.564C39.7051 10.6013 39.6677 10.62 39.6304 10.62C39.5371 10.676 39.4344 10.732 39.3224 10.788C39.2104 10.8253 39.0891 10.8347 38.9584 10.816H38.7904C38.6224 10.8533 38.4824 10.816 38.3704 10.704C38.2397 10.6667 38.1277 10.6013 38.0344 10.508C37.9597 10.4147 37.8757 10.312 37.7824 10.2C37.7077 10.1067 37.6424 9.99467 37.5864 9.864C37.5491 9.73333 37.5304 9.60267 37.5304 9.472C37.5117 9.43467 37.5024 9.388 37.5024 9.332C37.5024 9.276 37.5024 9.22933 37.5024 9.192C37.4837 9.15467 37.4651 9.11733 37.4464 9.08C37.4277 9.024 37.4184 8.98667 37.4184 8.968C37.4184 8.93067 37.3997 8.87467 37.3624 8.8C37.3251 8.72533 37.2504 8.576 37.1384 8.352C37.0264 8.128 36.9704 8.02533 36.9704 8.044C36.9144 7.95067 36.8584 7.848 36.8024 7.736C36.7464 7.624 36.6811 7.52133 36.6064 7.428L36.4384 7.12C36.4011 7.12 36.3731 7.11067 36.3544 7.092L36.3264 7.12C36.3264 7.176 36.3264 7.232 36.3264 7.288C36.3264 7.344 36.3357 7.4 36.3544 7.456C36.3917 7.66133 36.4104 7.86667 36.4104 8.072C36.4104 8.27733 36.3917 8.48267 36.3544 8.688C36.3544 8.8 36.3637 8.89333 36.3824 8.968C36.4011 9.00533 36.4104 9.07067 36.4104 9.164C36.4104 9.276 36.4104 9.388 36.4104 9.5C36.4291 9.612 36.4291 9.724 36.4104 9.836C36.3917 9.92933 36.3824 10.032 36.3824 10.144C36.4011 10.2373 36.4197 10.3307 36.4384 10.424V10.704C36.4011 10.816 36.4011 10.9373 36.4384 11.068C36.4571 11.1613 36.4571 11.264 36.4384 11.376C36.4384 11.4693 36.4477 11.5627 36.4664 11.656C36.4664 11.7493 36.4477 11.8707 36.4104 12.02C36.2984 12.468 36.3264 12.8973 36.4944 13.308C36.5131 13.3827 36.5317 13.4573 36.5504 13.532C36.5691 13.588 36.5691 13.6533 36.5504 13.728C36.5504 13.784 36.5504 13.84 36.5504 13.896C36.5504 13.952 36.5597 14.008 36.5784 14.064C36.6157 14.1387 36.6344 14.2133 36.6344 14.288C36.6531 14.4933 36.6624 14.652 36.6624 14.764C36.6811 14.876 36.6997 14.96 36.7184 15.016C36.7557 15.2213 36.7931 15.436 36.8304 15.66C36.8677 15.8653 36.9051 16.0707 36.9424 16.276C36.9797 16.5187 37.0171 16.7613 37.0544 17.004C37.1104 17.228 37.1384 17.4613 37.1384 17.704C37.1384 17.7787 37.1477 17.8347 37.1664 17.872C37.2037 18.0213 37.2224 18.18 37.2224 18.348C37.2224 18.4973 37.2317 18.6467 37.2504 18.796C37.2504 19.0013 37.2037 19.16 37.1104 19.272C37.0731 19.3467 37.0544 19.3933 37.0544 19.412C36.8864 19.7667 36.5877 19.972 36.1584 20.028C36.1024 20.0467 36.0464 20.056 35.9904 20.056C35.9344 20.056 35.8784 20.056 35.8224 20.056C35.6171 20.0933 35.4677 20.056 35.3744 19.944C35.3371 19.9067 35.2997 19.888 35.2624 19.888C35.1691 19.9067 35.0757 19.8507 34.9824 19.72C34.9264 19.6267 34.8424 19.5427 34.7304 19.468C34.6744 19.412 34.6277 19.3187 34.5904 19.188C34.5717 19.1507 34.5531 19.1133 34.5344 19.076C34.5344 19.0387 34.5344 19.0013 34.5344 18.964C34.5157 18.7027 34.4877 18.4507 34.4504 18.208C34.4131 17.9467 34.3851 17.6947 34.3664 17.452L34.3384 17.172C34.3197 17.0973 34.3104 17.032 34.3104 16.976C34.3104 16.92 34.3011 16.8547 34.2824 16.78V16.612C34.2264 16.3507 34.1984 16.0893 34.1984 15.828C34.1984 15.548 34.2077 15.2773 34.2264 15.016C34.2451 14.848 34.2544 14.68 34.2544 14.512C34.2544 14.3253 34.2637 14.148 34.2824 13.98V13.336C34.2824 13.2427 34.2824 13.1493 34.2824 13.056C34.2824 12.944 34.2731 12.8413 34.2544 12.748C34.2357 12.636 34.2264 12.524 34.2264 12.412C34.2264 12.3 34.2264 12.188 34.2264 12.076V10.788C34.2077 10.6387 34.1984 10.4893 34.1984 10.34C34.1984 10.172 34.1984 10.0133 34.1984 9.864C34.1984 9.808 34.1984 9.752 34.1984 9.696C34.1984 9.62133 34.1891 9.556 34.1704 9.5C34.1704 9.40667 34.1611 9.32267 34.1424 9.248C34.1424 9.15467 34.1331 9.07067 34.1144 8.996V8.8C34.0771 8.632 34.0584 8.47333 34.0584 8.324C34.0584 8.156 34.0584 7.988 34.0584 7.82C34.0584 7.67067 34.0584 7.52133 34.0584 7.372C34.0584 7.204 34.0397 7.05467 34.0024 6.924C33.9837 6.868 33.9744 6.812 33.9744 6.756C33.9744 6.7 33.9744 6.644 33.9744 6.588C33.9744 6.45733 33.9744 6.336 33.9744 6.224C33.9744 6.09333 33.9557 5.96267 33.9184 5.832C33.8997 5.79467 33.8904 5.72933 33.8904 5.636V4.236C33.8904 4.14267 33.8904 4.05867 33.8904 3.984C33.8904 3.89067 33.8717 3.80667 33.8344 3.732C33.7784 3.54533 33.7877 3.33067 33.8624 3.088C33.8997 2.99467 33.9371 2.92933 33.9744 2.892C34.0117 2.836 34.0491 2.78 34.0864 2.724C34.1237 2.668 34.1517 2.612 34.1704 2.556C34.2077 2.5 34.2357 2.472 34.2544 2.472C34.3291 2.45333 34.3851 2.42533 34.4224 2.388C34.4784 2.35067 34.5251 2.31333 34.5624 2.276L34.7304 2.192C34.7677 2.17333 34.8237 2.164 34.8984 2.164C34.9917 2.18267 35.0851 2.20133 35.1784 2.22C35.2904 2.22 35.3931 2.22933 35.4864 2.248C35.5984 2.248 35.6824 2.29467 35.7384 2.388C35.8317 2.51867 35.9251 2.64933 36.0184 2.78C36.1117 2.91067 36.1864 3.05067 36.2424 3.2C36.2984 3.33067 36.3731 3.44267 36.4664 3.536C36.5784 3.68533 36.6904 3.83467 36.8024 3.984C36.9144 4.13333 37.0357 4.28267 37.1664 4.432C37.2224 4.488 37.2691 4.55333 37.3064 4.628C37.3624 4.70267 37.4091 4.77733 37.4464 4.852C37.5397 4.98267 37.6237 5.11333 37.6984 5.244C37.7917 5.356 37.8851 5.47733 37.9784 5.608L38.3984 6.28C38.4357 6.35467 38.4731 6.42933 38.5104 6.504C38.5477 6.56 38.5851 6.616 38.6224 6.672C38.6597 6.76533 38.7157 6.77467 38.7904 6.7C38.8651 6.60667 38.9397 6.51333 39.0144 6.42C39.1077 6.308 39.1917 6.20533 39.2664 6.112C39.4344 5.90667 39.6024 5.692 39.7704 5.468C39.9384 5.244 40.1157 5.02933 40.3024 4.824L40.4704 4.572C40.6011 4.38533 40.7224 4.208 40.8344 4.04C40.9651 3.85333 41.0864 3.66667 41.1984 3.48C41.3291 3.27467 41.4411 3.06933 41.5344 2.864C41.6464 2.65867 41.7397 2.45333 41.8144 2.248L42.1504 1.492C42.2624 1.268 42.4211 1.08133 42.6264 0.931998C42.9064 0.707999 43.2144 0.623999 43.5504 0.679998C43.6811 0.698666 43.8024 0.735999 43.9144 0.791999C44.0264 0.829333 44.1384 0.866666 44.2504 0.903999C44.3624 0.941333 44.4371 1.02533 44.4744 1.156C44.5117 1.212 44.5397 1.268 44.5584 1.324C44.5771 1.38 44.5864 1.436 44.5864 1.492C44.6051 1.62267 44.6331 1.744 44.6704 1.856C44.7077 1.94933 44.7357 2.06133 44.7544 2.192L44.7824 2.472C44.8197 2.64 44.8571 2.808 44.8944 2.976C44.9504 3.144 44.9971 3.312 45.0344 3.48V3.536C45.0531 3.72267 45.0717 3.90933 45.0904 4.096C45.1277 4.264 45.1371 4.44133 45.1184 4.628V5.272C45.1184 5.36533 45.1184 5.45867 45.1184 5.552C45.1184 5.64533 45.1091 5.73867 45.0904 5.832C45.0717 5.96267 45.0624 6.09333 45.0624 6.224C45.0624 6.336 45.0624 6.45733 45.0624 6.588C45.0437 6.66267 45.0344 6.73733 45.0344 6.812C45.0344 6.88667 45.0251 6.96133 45.0064 7.036C44.9877 7.11067 44.9784 7.18533 44.9784 7.26C44.9784 7.316 44.9784 7.39067 44.9784 7.484V8.268C44.9784 8.39867 44.9691 8.52 44.9504 8.632C44.9504 8.744 44.9411 8.86533 44.9224 8.996C44.9037 9.07067 44.8944 9.14533 44.8944 9.22C44.8944 9.276 44.8944 9.34133 44.8944 9.416V11.124C44.8944 11.2547 44.8944 11.3853 44.8944 11.516C44.9131 11.6467 44.9317 11.7773 44.9504 11.908C44.9691 12.0013 44.9784 12.104 44.9784 12.216C44.9784 12.3093 44.9784 12.4027 44.9784 12.496C44.9971 12.6267 45.0064 12.7573 45.0064 12.888C45.0064 13 45.0157 13.1307 45.0344 13.28V13.588C45.0531 13.7373 45.0624 13.896 45.0624 14.064C45.0624 14.2133 45.0624 14.3627 45.0624 14.512V14.876C45.0997 15.0067 45.1184 15.1467 45.1184 15.296C45.1184 15.4453 45.1277 15.5947 45.1464 15.744V15.94C45.1837 16.052 45.2024 16.164 45.2024 16.276C45.2024 16.388 45.2117 16.5 45.2304 16.612L45.3144 17.62C45.3331 17.6947 45.3424 17.7693 45.3424 17.844C45.3611 17.9 45.3704 17.9653 45.3704 18.04C45.3891 18.1147 45.3984 18.1893 45.3984 18.264C45.3984 18.32 45.4077 18.3853 45.4264 18.46C45.4264 18.4787 45.4264 18.5067 45.4264 18.544C45.4451 18.5813 45.4544 18.6187 45.4544 18.656C45.4544 18.7867 45.4637 18.9267 45.4824 19.076C45.5197 19.2253 45.5477 19.3747 45.5664 19.524L45.6784 20.308C45.6784 20.42 45.6691 20.4947 45.6504 20.532C45.6317 20.644 45.5851 20.7467 45.5104 20.84C45.4544 20.952 45.4077 21.0547 45.3704 21.148C45.3704 21.1667 45.3611 21.176 45.3424 21.176C45.2117 21.288 45.0811 21.3813 44.9504 21.456C44.8197 21.5493 44.6797 21.6147 44.5304 21.652ZM60.5153 22.044C60.3473 22.044 60.198 21.9787 60.0673 21.848C60.03 21.792 59.9927 21.736 59.9553 21.68C59.918 21.624 59.8807 21.568 59.8433 21.512C59.6753 21.12 59.5913 20.7093 59.5913 20.28L59.5073 19.608C59.4513 19.3467 59.4047 19.0853 59.3673 18.824C59.33 18.5627 59.2647 18.3107 59.1713 18.068L59.0033 17.592C59.0033 17.5547 58.994 17.5173 58.9753 17.48C58.9753 17.4427 58.966 17.4053 58.9473 17.368L58.5273 15.884C58.5087 15.8467 58.49 15.8 58.4713 15.744C58.4713 15.688 58.4527 15.6413 58.4153 15.604C58.3593 15.492 58.3127 15.38 58.2753 15.268C58.2567 15.1373 58.2287 15.0067 58.1913 14.876C58.1727 14.7827 58.154 14.6987 58.1353 14.624C58.1167 14.5307 58.0887 14.4373 58.0513 14.344C58.014 14.232 57.9767 14.1667 57.9393 14.148C57.902 14.1107 57.818 14.1107 57.6873 14.148C57.594 14.1667 57.4913 14.1853 57.3793 14.204C57.286 14.204 57.1927 14.2227 57.0993 14.26C57.0247 14.2787 56.9313 14.2973 56.8193 14.316C56.726 14.316 56.6327 14.3253 56.5393 14.344L56.1473 14.428C56.054 14.4467 55.9513 14.4747 55.8393 14.512C55.746 14.5307 55.6527 14.54 55.5593 14.54L55.0553 14.624C54.906 14.6613 54.7473 14.6987 54.5793 14.736C54.4113 14.7733 54.2527 14.8107 54.1033 14.848C53.6553 14.96 53.2073 15.044 52.7593 15.1C52.61 15.1373 52.526 15.2027 52.5073 15.296C52.4887 15.296 52.4793 15.3053 52.4793 15.324C52.3673 15.6227 52.2367 15.9213 52.0873 16.22C51.9567 16.5 51.8167 16.7893 51.6673 17.088C51.63 17.1627 51.5927 17.2373 51.5553 17.312C51.5367 17.368 51.5087 17.4333 51.4713 17.508C51.4527 17.5453 51.434 17.592 51.4153 17.648C51.3967 17.6853 51.378 17.7227 51.3593 17.76C51.2473 17.8907 51.1913 18.0493 51.1913 18.236C51.1727 18.348 51.1353 18.46 51.0793 18.572C51.0233 18.6653 50.9673 18.7587 50.9113 18.852C50.8927 18.908 50.8553 18.936 50.7993 18.936C50.7247 18.9547 50.65 18.9827 50.5753 19.02C50.5007 19.0573 50.4167 19.0947 50.3233 19.132C50.2673 19.1507 50.2113 19.1507 50.1553 19.132C50.118 19.1133 50.0713 19.0947 50.0153 19.076C49.978 19.0387 49.9407 19.02 49.9033 19.02C49.698 19.0013 49.5487 18.88 49.4553 18.656C49.306 18.3573 49.2033 18.0587 49.1473 17.76C49.1287 17.6853 49.1287 17.62 49.1473 17.564C49.1847 17.508 49.2127 17.452 49.2313 17.396C49.3433 17.3213 49.4087 17.2373 49.4273 17.144V17.116C49.4273 16.8733 49.474 16.6493 49.5673 16.444C49.6793 16.22 49.7727 16.0053 49.8473 15.8C49.8847 15.688 49.9313 15.576 49.9873 15.464C50.0433 15.352 50.0993 15.24 50.1553 15.128C50.23 14.9973 50.286 14.876 50.3233 14.764C50.3793 14.6333 50.426 14.5027 50.4633 14.372C50.5193 14.2227 50.5193 14.0827 50.4633 13.952C50.426 13.84 50.4073 13.7373 50.4073 13.644C50.4073 13.532 50.4167 13.42 50.4353 13.308C50.4353 13.1027 50.51 12.9253 50.6593 12.776C50.734 12.6827 50.8087 12.608 50.8833 12.552C50.9767 12.4773 51.0607 12.4027 51.1353 12.328C51.3033 12.16 51.434 11.936 51.5273 11.656C51.602 11.4133 51.658 11.1707 51.6953 10.928C51.7513 10.6667 51.8073 10.4147 51.8633 10.172C51.9007 9.92933 51.938 9.696 51.9753 9.472C52.0313 9.22933 52.0873 8.996 52.1433 8.772C52.162 8.67867 52.1807 8.59467 52.1993 8.52C52.2367 8.42667 52.2647 8.34267 52.2833 8.268C52.3393 8.11867 52.3953 7.97867 52.4513 7.848C52.5073 7.69867 52.5447 7.54933 52.5633 7.4C52.6007 7.32533 52.6007 7.26 52.5633 7.204C52.5447 7.11067 52.5447 7.02667 52.5633 6.952C52.6007 6.87733 52.6287 6.80267 52.6473 6.728C52.7033 6.59733 52.7407 6.46667 52.7593 6.336C52.7967 6.20533 52.8433 6.07467 52.8993 5.944C52.9927 5.70133 53.0673 5.50533 53.1233 5.356C53.198 5.188 53.2633 5.00133 53.3193 4.796C53.3567 4.684 53.394 4.58133 53.4313 4.488C53.4873 4.376 53.5247 4.264 53.5433 4.152C53.5993 3.984 53.646 3.816 53.6833 3.648C53.7207 3.46133 53.7393 3.284 53.7393 3.116C53.7767 2.96667 53.814 2.864 53.8513 2.808C53.9447 2.62133 54.0567 2.46267 54.1873 2.332C54.3367 2.20133 54.4767 2.07067 54.6073 1.94C54.7007 1.884 54.794 1.84667 54.8873 1.828C54.9807 1.79067 55.074 1.8 55.1673 1.856C55.242 1.89333 55.2887 1.912 55.3073 1.912C55.4753 1.89333 55.6153 1.93067 55.7273 2.024C55.8393 2.11733 55.9327 2.22933 56.0073 2.36C56.0447 2.39733 56.0727 2.444 56.0913 2.5C56.11 2.556 56.1287 2.60267 56.1473 2.64C56.2407 2.78933 56.2873 2.93867 56.2873 3.088C56.2873 3.16267 56.2967 3.24667 56.3153 3.34C56.334 3.41467 56.3527 3.49867 56.3713 3.592C56.4273 3.704 56.5113 3.76 56.6233 3.76C56.642 3.74133 56.6607 3.74133 56.6793 3.76C56.698 3.77867 56.7073 3.79733 56.7073 3.816C56.8007 3.928 56.8287 4.04933 56.7913 4.18C56.754 4.32933 56.7447 4.47867 56.7633 4.628C56.8007 4.75867 56.838 4.89867 56.8753 5.048C56.95 5.23467 57.0247 5.42133 57.0993 5.608C57.174 5.79467 57.2487 5.98133 57.3233 6.168C57.4167 6.37333 57.51 6.57867 57.6033 6.784C57.6967 6.98933 57.7807 7.19467 57.8553 7.4C57.9487 7.66133 58.042 7.92267 58.1353 8.184C58.2473 8.44533 58.3687 8.70667 58.4993 8.968L58.5833 9.276C58.602 9.35067 58.6207 9.42533 58.6393 9.5C58.6767 9.57467 58.7047 9.64933 58.7233 9.724C58.7607 9.78 58.7887 9.836 58.8073 9.892C58.8447 9.948 58.882 9.99467 58.9193 10.032C59.0127 10.1627 59.0687 10.3027 59.0873 10.452C59.1433 10.6387 59.2273 10.8067 59.3393 10.956C59.3767 11.012 59.4327 11.04 59.5073 11.04C59.7873 11.0027 60.0673 10.9747 60.3473 10.956C60.6273 10.9187 60.9073 10.8627 61.1873 10.788C61.3927 10.732 61.5887 10.704 61.7753 10.704C62.13 10.704 62.4567 10.8253 62.7553 11.068C63.11 11.348 63.2967 11.7027 63.3153 12.132C63.3153 12.2253 63.3247 12.3 63.3433 12.356C63.3433 12.4867 63.306 12.5893 63.2313 12.664C63.2127 12.72 63.1753 12.776 63.1193 12.832C63.082 12.888 63.0447 12.944 63.0073 13C62.97 13.0747 62.9327 13.1307 62.8953 13.168L62.7273 13.308C62.7087 13.3453 62.6807 13.392 62.6433 13.448C62.606 13.4853 62.5593 13.5133 62.5033 13.532C62.4287 13.5507 62.354 13.5787 62.2793 13.616C62.2047 13.6347 62.1207 13.644 62.0273 13.644C61.6913 13.6813 61.3927 13.672 61.1313 13.616H60.6833C60.646 13.616 60.59 13.6347 60.5153 13.672C60.4407 13.7093 60.4033 13.756 60.4033 13.812V13.924C60.4593 14.092 60.4967 14.2693 60.5153 14.456C60.5527 14.624 60.6087 14.7827 60.6833 14.932C60.6833 15.0067 60.702 15.0813 60.7393 15.156C60.8327 15.324 60.9073 15.5013 60.9633 15.688C61.0193 15.856 61.066 16.0333 61.1033 16.22C61.1033 16.2573 61.122 16.332 61.1593 16.444C61.2153 16.5747 61.262 16.7147 61.2993 16.864C61.3367 16.9947 61.3647 17.1347 61.3833 17.284C61.3833 17.396 61.4113 17.4987 61.4673 17.592C61.542 17.76 61.598 17.928 61.6353 18.096C61.6727 18.264 61.7007 18.4413 61.7193 18.628C61.738 18.6467 61.7473 18.684 61.7473 18.74C61.7473 18.7773 61.7567 18.8147 61.7753 18.852C61.8687 19.0573 61.934 19.2813 61.9713 19.524C62.0087 19.748 62.0553 19.972 62.1113 20.196C62.1487 20.308 62.1673 20.42 62.1673 20.532C62.186 20.6627 62.1953 20.7933 62.1953 20.924C62.1953 21.0173 62.1673 21.12 62.1113 21.232C62.0553 21.288 62.0273 21.316 62.0273 21.316C61.9153 21.3347 61.85 21.4 61.8313 21.512L61.7473 21.68C61.71 21.7547 61.654 21.8013 61.5793 21.82C61.5047 21.82 61.4393 21.848 61.3833 21.904C61.3087 21.9787 61.206 22.016 61.0753 22.016C61.0007 22.016 60.9073 22.016 60.7953 22.016C60.702 22.016 60.6087 22.0253 60.5153 22.044ZM53.7673 11.88C53.8793 11.8613 53.9913 11.8427 54.1033 11.824C54.234 11.8053 54.374 11.7867 54.5233 11.768C54.6167 11.7493 54.738 11.7307 54.8873 11.712C55.0367 11.6933 55.1767 11.6747 55.3073 11.656C55.438 11.6187 55.5687 11.6 55.6993 11.6C55.83 11.5813 55.9607 11.5627 56.0913 11.544C56.2033 11.5067 56.3153 11.488 56.4273 11.488C56.5393 11.4693 56.6513 11.4507 56.7633 11.432C56.9313 11.3947 56.9967 11.3013 56.9593 11.152C56.9407 11.0027 56.9033 10.8533 56.8473 10.704C56.81 10.536 56.726 10.396 56.5953 10.284C56.558 10.2467 56.5393 10.1907 56.5393 10.116V10.032C56.502 9.88267 56.4553 9.74267 56.3993 9.612C56.362 9.46267 56.3153 9.32267 56.2593 9.192C56.222 9.04267 56.1753 8.912 56.1193 8.8C56.082 8.66933 56.0353 8.53867 55.9793 8.408L55.6433 7.4C55.5873 7.26933 55.5313 7.13867 55.4753 7.008C55.438 6.87733 55.4007 6.74667 55.3633 6.616L55.2793 6.504H55.1953L55.1393 6.588C55.046 6.868 54.934 7.148 54.8033 7.428C54.6913 7.708 54.5887 8.00667 54.4953 8.324C54.4953 8.36133 54.486 8.408 54.4673 8.464C54.4487 8.52 54.43 8.576 54.4113 8.632C54.3367 8.81867 54.262 9.024 54.1873 9.248C54.1313 9.472 54.0847 9.696 54.0473 9.92C54.0287 10.0507 54.01 10.1813 53.9913 10.312C53.9727 10.424 53.9447 10.5453 53.9073 10.676L53.6553 11.768C53.6367 11.7867 53.646 11.8147 53.6833 11.852C53.7207 11.8707 53.7487 11.88 53.7673 11.88Z" fill="black"/>
</svg>
