<svg width="42" height="23" viewBox="0 0 42 23" fill="none" xmlns="http://www.w3.org/2000/svg">
<path d="M3.564 20.392C3.43333 20.392 3.27467 20.3453 3.088 20.252C2.99467 20.196 2.92 20.1213 2.864 20.028C2.84533 19.972 2.79867 19.972 2.724 20.028C2.668 20.0653 2.62133 20.0653 2.584 20.028C2.528 19.972 2.472 19.9347 2.416 19.916C2.34133 19.916 2.304 19.888 2.304 19.832C2.304 19.776 2.29467 19.7293 2.276 19.692C2.276 19.636 2.25733 19.5893 2.22 19.552C2.108 19.5147 2.03333 19.4213 1.996 19.272C1.97733 19.216 1.95867 19.1693 1.94 19.132C1.92133 19.076 1.89333 19.02 1.856 18.964C1.81867 18.8893 1.8 18.824 1.8 18.768C1.78133 18.712 1.76267 18.6653 1.744 18.628C1.744 18.572 1.72533 18.516 1.688 18.46C1.66933 18.3293 1.632 18.208 1.576 18.096C1.52 17.984 1.47333 17.8627 1.436 17.732C1.39867 17.6573 1.38 17.5547 1.38 17.424C1.38 17.088 1.436 16.78 1.548 16.5C1.64133 16.332 1.66933 16.164 1.632 15.996C1.61333 15.9213 1.61333 15.8467 1.632 15.772C1.66933 15.6973 1.67867 15.6227 1.66 15.548C1.64133 15.4733 1.62267 15.408 1.604 15.352C1.604 15.296 1.604 15.2307 1.604 15.156C1.58533 15.1187 1.576 15.072 1.576 15.016C1.576 14.904 1.576 14.792 1.576 14.68C1.576 14.5493 1.55733 14.4187 1.52 14.288C1.50133 14.232 1.492 14.148 1.492 14.036V13C1.47333 12.7573 1.44533 12.5147 1.408 12.272C1.37067 12.0293 1.324 11.7867 1.268 11.544C1.268 11.488 1.25867 11.432 1.24 11.376C1.24 11.32 1.24 11.264 1.24 11.208C1.24 10.7973 1.17467 10.396 1.044 10.004V9.752C1.08133 9.54667 1.06267 9.388 0.988 9.276C0.969333 9.20133 0.96 9.09867 0.96 8.968V8.94C0.96 8.75333 0.950667 8.56667 0.932 8.38C0.932 8.19333 0.941333 8.00667 0.96 7.82C0.997333 7.484 0.997333 7.12933 0.96 6.756C0.96 6.60667 0.96 6.45733 0.96 6.308C0.96 6.15867 0.950667 6.01867 0.932 5.888V5.72C0.969333 5.62667 0.988 5.54267 0.988 5.468C0.988 5.39333 0.988 5.31867 0.988 5.244C0.988 5.02 0.978667 4.80533 0.96 4.6C0.96 4.376 0.941333 4.16133 0.904 3.956C0.904 3.9 0.904 3.844 0.904 3.788C0.904 3.71333 0.894667 3.648 0.876 3.592C0.876 3.46133 0.829333 3.34933 0.736 3.256L0.54 3.088C0.353333 2.976 0.232 2.79867 0.176 2.556C0.157333 2.51867 0.148 2.49067 0.148 2.472C0.148 2.43467 0.138667 2.39733 0.12 2.36C0.0826667 2.26667 0.101333 2.18267 0.176 2.108C0.232 2.03333 0.269333 1.95867 0.288 1.884C0.288 1.828 0.297333 1.78133 0.316 1.744C0.353333 1.688 0.381333 1.632 0.4 1.576C0.418667 1.52 0.437333 1.45467 0.456 1.38C0.493333 1.324 0.521333 1.30533 0.54 1.324C0.670667 1.324 0.764 1.30533 0.82 1.268C0.950667 1.17467 1.09067 1.156 1.24 1.212C1.27733 1.23067 1.33333 1.22133 1.408 1.184C1.42667 1.184 1.436 1.17467 1.436 1.156C1.52933 1.06267 1.632 1.016 1.744 1.016C1.856 0.997333 1.97733 0.997333 2.108 1.016C2.12667 1.016 2.14533 1.02533 2.164 1.044C2.18267 1.044 2.20133 1.044 2.22 1.044C2.36933 1.08133 2.50933 1.11867 2.64 1.156C2.78933 1.17467 2.92933 1.17467 3.06 1.156C3.15333 1.156 3.24667 1.16533 3.34 1.184C3.452 1.20267 3.55467 1.212 3.648 1.212C3.72267 1.212 3.788 1.22133 3.844 1.24C3.91867 1.25867 3.984 1.27733 4.04 1.296C4.11467 1.31467 4.18 1.34267 4.236 1.38C4.292 1.39867 4.35733 1.408 4.432 1.408C4.52533 1.42667 4.6 1.44533 4.656 1.464C4.73067 1.48267 4.80533 1.51067 4.88 1.548C5.12267 1.67867 5.36533 1.8 5.608 1.912C5.72 1.968 5.82267 2.04267 5.916 2.136C6.04667 2.22933 6.15867 2.28533 6.252 2.304C6.27067 2.304 6.28933 2.31333 6.308 2.332C6.32667 2.332 6.34533 2.332 6.364 2.332C6.38267 2.35067 6.40133 2.36 6.42 2.36C6.43867 2.36 6.45733 2.36933 6.476 2.388C6.56933 2.48133 6.68133 2.556 6.812 2.612C6.96133 2.64933 7.08267 2.71467 7.176 2.808C7.21333 2.84533 7.26933 2.88267 7.344 2.92C7.49333 2.976 7.624 3.06 7.736 3.172C7.77333 3.20933 7.80133 3.228 7.82 3.228C7.89467 3.228 7.97867 3.27467 8.072 3.368L8.66 3.984C8.73467 4.05867 8.79067 4.124 8.828 4.18C8.92133 4.31067 9.024 4.432 9.136 4.544C9.248 4.656 9.36 4.768 9.472 4.88C9.50933 4.91733 9.54667 4.964 9.584 5.02C9.64 5.05733 9.67733 5.104 9.696 5.16C9.71467 5.19733 9.74267 5.23467 9.78 5.272C9.81733 5.29067 9.84533 5.31867 9.864 5.356C10.0693 5.58 10.2653 5.81333 10.452 6.056C10.6573 6.29867 10.844 6.55067 11.012 6.812C11.1053 6.94267 11.1893 7.08267 11.264 7.232C11.3387 7.38133 11.404 7.53067 11.46 7.68C11.516 7.81067 11.572 7.94133 11.628 8.072C11.7027 8.20267 11.768 8.33333 11.824 8.464C11.88 8.66933 11.9453 8.856 12.02 9.024C12.0947 9.26667 12.1693 9.5 12.244 9.724C12.3187 9.948 12.384 10.1907 12.44 10.452L12.524 10.816C12.524 10.9653 12.524 11.124 12.524 11.292C12.5427 11.4413 12.552 11.6 12.552 11.768C12.552 11.8427 12.5427 11.908 12.524 11.964C12.524 12.02 12.5053 12.0853 12.468 12.16C12.4307 12.272 12.412 12.3747 12.412 12.468C12.3933 12.6547 12.3467 12.832 12.272 13C12.216 13.168 12.1507 13.3267 12.076 13.476C11.908 13.7747 11.7587 14.0733 11.628 14.372C11.5907 14.4467 11.5533 14.5213 11.516 14.596C11.4973 14.652 11.4693 14.7173 11.432 14.792L11.264 15.128C11.1333 15.3893 10.9747 15.6507 10.788 15.912C10.62 16.1547 10.4333 16.388 10.228 16.612C10.1533 16.7053 10.06 16.7987 9.948 16.892C9.85467 16.9667 9.76133 17.0507 9.668 17.144C9.48133 17.312 9.29467 17.48 9.108 17.648C8.92133 17.7973 8.72533 17.9467 8.52 18.096C8.33333 18.2267 8.13733 18.348 7.932 18.46C7.74533 18.572 7.54 18.6653 7.316 18.74C7.204 18.7587 7.092 18.8147 6.98 18.908C6.868 18.9827 6.74667 19.0573 6.616 19.132C6.504 19.2067 6.38267 19.2907 6.252 19.384C6.196 19.4027 6.14 19.4307 6.084 19.468C6.028 19.4867 5.96267 19.5053 5.888 19.524C5.832 19.5427 5.76667 19.5613 5.692 19.58C5.636 19.5987 5.58 19.6173 5.524 19.636C5.44933 19.6547 5.37467 19.6827 5.3 19.72C5.244 19.7573 5.188 19.804 5.132 19.86C5.00133 19.9533 4.86133 20.028 4.712 20.084C4.56267 20.1587 4.41333 20.2427 4.264 20.336C4.22667 20.3547 4.16133 20.364 4.068 20.364C4.012 20.3827 3.956 20.3827 3.9 20.364C3.844 20.364 3.788 20.364 3.732 20.364V20.392H3.564ZM4.684 17.256C4.87067 17.256 5.02933 17.2187 5.16 17.144C5.30933 17.088 5.44933 17.0227 5.58 16.948C5.71067 16.8733 5.832 16.7893 5.944 16.696L6.28 16.36C6.46667 16.2107 6.63467 16.052 6.784 15.884C6.952 15.716 7.12933 15.5667 7.316 15.436C7.35333 15.3987 7.372 15.38 7.372 15.38C7.44667 15.3053 7.512 15.24 7.568 15.184C7.64267 15.1093 7.708 15.0347 7.764 14.96C7.80133 14.9227 7.848 14.876 7.904 14.82C7.96 14.764 7.99733 14.7173 8.016 14.68C8.09067 14.5493 8.19333 14.4373 8.324 14.344C8.41733 14.288 8.47333 14.232 8.492 14.176C8.52933 14.0827 8.576 13.9893 8.632 13.896C8.70667 13.8027 8.78133 13.7187 8.856 13.644C8.94933 13.532 9.04267 13.364 9.136 13.14L9.248 12.86C9.36 12.5987 9.416 12.356 9.416 12.132C9.43467 12.076 9.444 11.992 9.444 11.88C9.46267 11.6 9.444 11.3013 9.388 10.984C9.36933 10.8907 9.35067 10.7973 9.332 10.704C9.31333 10.6107 9.304 10.5267 9.304 10.452C9.28533 10.3773 9.26667 10.312 9.248 10.256C9.248 10.1813 9.22933 10.116 9.192 10.06C9.15467 9.98533 9.12667 9.91067 9.108 9.836C9.08933 9.76133 9.07067 9.68667 9.052 9.612C9.052 9.48133 9.03333 9.36933 8.996 9.276C8.95867 9.164 8.92133 9.052 8.884 8.94C8.828 8.828 8.772 8.716 8.716 8.604C8.66 8.47333 8.61333 8.34267 8.576 8.212L8.548 8.1C8.492 8.02533 8.44533 7.95067 8.408 7.876C8.38933 7.78267 8.36133 7.69867 8.324 7.624C8.24933 7.456 8.17467 7.288 8.1 7.12C8.044 6.952 7.96933 6.79333 7.876 6.644C7.78267 6.476 7.68 6.308 7.568 6.14C7.47467 5.972 7.35333 5.82267 7.204 5.692C6.77467 5.22533 6.28 4.80533 5.72 4.432C5.384 4.18933 5.048 4.03067 4.712 3.956C4.58133 3.91867 4.432 3.89067 4.264 3.872C4.096 3.83467 3.93733 3.80667 3.788 3.788C3.732 3.788 3.68533 3.80667 3.648 3.844C3.55467 3.91867 3.508 4.012 3.508 4.124C3.508 4.25467 3.49867 4.39467 3.48 4.544C3.48 4.67467 3.48 4.81467 3.48 4.964C3.51733 5.22533 3.508 5.44 3.452 5.608C3.43333 5.68267 3.41467 5.75733 3.396 5.832C3.396 5.90667 3.40533 5.99067 3.424 6.084C3.46133 6.196 3.452 6.29867 3.396 6.392C3.34 6.504 3.34 6.62533 3.396 6.756C3.47067 6.90533 3.48933 7.092 3.452 7.316C3.396 7.54 3.396 7.764 3.452 7.988C3.47067 8.06267 3.48 8.13733 3.48 8.212C3.49867 8.28667 3.49867 8.37067 3.48 8.464C3.48 8.66933 3.48933 8.87467 3.508 9.08C3.54533 9.28533 3.57333 9.49067 3.592 9.696C3.592 9.73333 3.61067 9.78933 3.648 9.864V10.312C3.648 10.3493 3.63867 10.396 3.62 10.452C3.62 10.4893 3.62933 10.5267 3.648 10.564C3.68533 10.7133 3.71333 10.872 3.732 11.04C3.76933 11.1893 3.80667 11.3387 3.844 11.488C3.844 11.5253 3.85333 11.572 3.872 11.628C3.89067 11.6653 3.9 11.712 3.9 11.768C3.9 11.8987 3.90933 12.0293 3.928 12.16C3.94667 12.2907 3.96533 12.4307 3.984 12.58C4.04 13.1027 4.124 13.6347 4.236 14.176C4.292 14.4 4.32 14.6333 4.32 14.876C4.32 14.932 4.32 14.9973 4.32 15.072C4.32 15.128 4.32933 15.184 4.348 15.24C4.38533 15.3707 4.404 15.5013 4.404 15.632C4.404 15.7627 4.404 15.8933 4.404 16.024C4.404 16.0613 4.39467 16.108 4.376 16.164C4.376 16.22 4.38533 16.2667 4.404 16.304C4.44133 16.3973 4.46 16.4907 4.46 16.584C4.46 16.6587 4.46 16.7427 4.46 16.836C4.46 16.9107 4.47867 17.004 4.516 17.116C4.516 17.2093 4.572 17.256 4.684 17.256ZM26.0075 22.044C25.8395 22.044 25.6902 21.9787 25.5595 21.848C25.5222 21.792 25.4849 21.736 25.4475 21.68C25.4102 21.624 25.3729 21.568 25.3355 21.512C25.1675 21.12 25.0835 20.7093 25.0835 20.28L24.9995 19.608C24.9435 19.3467 24.8969 19.0853 24.8595 18.824C24.8222 18.5627 24.7569 18.3107 24.6635 18.068L24.4955 17.592C24.4955 17.5547 24.4862 17.5173 24.4675 17.48C24.4675 17.4427 24.4582 17.4053 24.4395 17.368L24.0195 15.884C24.0009 15.8467 23.9822 15.8 23.9635 15.744C23.9635 15.688 23.9449 15.6413 23.9075 15.604C23.8515 15.492 23.8049 15.38 23.7675 15.268C23.7489 15.1373 23.7209 15.0067 23.6835 14.876C23.6649 14.7827 23.6462 14.6987 23.6275 14.624C23.6089 14.5307 23.5809 14.4373 23.5435 14.344C23.5062 14.232 23.4689 14.1667 23.4315 14.148C23.3942 14.1107 23.3102 14.1107 23.1795 14.148C23.0862 14.1667 22.9835 14.1853 22.8715 14.204C22.7782 14.204 22.6849 14.2227 22.5915 14.26C22.5169 14.2787 22.4235 14.2973 22.3115 14.316C22.2182 14.316 22.1249 14.3253 22.0315 14.344L21.6395 14.428C21.5462 14.4467 21.4435 14.4747 21.3315 14.512C21.2382 14.5307 21.1449 14.54 21.0515 14.54L20.5475 14.624C20.3982 14.6613 20.2395 14.6987 20.0715 14.736C19.9035 14.7733 19.7449 14.8107 19.5955 14.848C19.1475 14.96 18.6995 15.044 18.2515 15.1C18.1022 15.1373 18.0182 15.2027 17.9995 15.296C17.9809 15.296 17.9715 15.3053 17.9715 15.324C17.8595 15.6227 17.7289 15.9213 17.5795 16.22C17.4489 16.5 17.3089 16.7893 17.1595 17.088C17.1222 17.1627 17.0849 17.2373 17.0475 17.312C17.0289 17.368 17.0009 17.4333 16.9635 17.508C16.9449 17.5453 16.9262 17.592 16.9075 17.648C16.8889 17.6853 16.8702 17.7227 16.8515 17.76C16.7395 17.8907 16.6835 18.0493 16.6835 18.236C16.6649 18.348 16.6275 18.46 16.5715 18.572C16.5155 18.6653 16.4595 18.7587 16.4035 18.852C16.3849 18.908 16.3475 18.936 16.2915 18.936C16.2169 18.9547 16.1422 18.9827 16.0675 19.02C15.9929 19.0573 15.9089 19.0947 15.8155 19.132C15.7595 19.1507 15.7035 19.1507 15.6475 19.132C15.6102 19.1133 15.5635 19.0947 15.5075 19.076C15.4702 19.0387 15.4329 19.02 15.3955 19.02C15.1902 19.0013 15.0409 18.88 14.9475 18.656C14.7982 18.3573 14.6955 18.0587 14.6395 17.76C14.6209 17.6853 14.6209 17.62 14.6395 17.564C14.6769 17.508 14.7049 17.452 14.7235 17.396C14.8355 17.3213 14.9009 17.2373 14.9195 17.144V17.116C14.9195 16.8733 14.9662 16.6493 15.0595 16.444C15.1715 16.22 15.2649 16.0053 15.3395 15.8C15.3769 15.688 15.4235 15.576 15.4795 15.464C15.5355 15.352 15.5915 15.24 15.6475 15.128C15.7222 14.9973 15.7782 14.876 15.8155 14.764C15.8715 14.6333 15.9182 14.5027 15.9555 14.372C16.0115 14.2227 16.0115 14.0827 15.9555 13.952C15.9182 13.84 15.8995 13.7373 15.8995 13.644C15.8995 13.532 15.9089 13.42 15.9275 13.308C15.9275 13.1027 16.0022 12.9253 16.1515 12.776C16.2262 12.6827 16.3009 12.608 16.3755 12.552C16.4689 12.4773 16.5529 12.4027 16.6275 12.328C16.7955 12.16 16.9262 11.936 17.0195 11.656C17.0942 11.4133 17.1502 11.1707 17.1875 10.928C17.2435 10.6667 17.2995 10.4147 17.3555 10.172C17.3929 9.92933 17.4302 9.696 17.4675 9.472C17.5235 9.22933 17.5795 8.996 17.6355 8.772C17.6542 8.67867 17.6729 8.59467 17.6915 8.52C17.7289 8.42667 17.7569 8.34267 17.7755 8.268C17.8315 8.11867 17.8875 7.97867 17.9435 7.848C17.9995 7.69867 18.0369 7.54933 18.0555 7.4C18.0929 7.32533 18.0929 7.26 18.0555 7.204C18.0369 7.11067 18.0369 7.02667 18.0555 6.952C18.0929 6.87733 18.1209 6.80267 18.1395 6.728C18.1955 6.59733 18.2329 6.46667 18.2515 6.336C18.2889 6.20533 18.3355 6.07467 18.3915 5.944C18.4849 5.70133 18.5595 5.50533 18.6155 5.356C18.6902 5.188 18.7555 5.00133 18.8115 4.796C18.8489 4.684 18.8862 4.58133 18.9235 4.488C18.9795 4.376 19.0169 4.264 19.0355 4.152C19.0915 3.984 19.1382 3.816 19.1755 3.648C19.2129 3.46133 19.2315 3.284 19.2315 3.116C19.2689 2.96667 19.3062 2.864 19.3435 2.808C19.4369 2.62133 19.5489 2.46267 19.6795 2.332C19.8289 2.20133 19.9689 2.07067 20.0995 1.94C20.1929 1.884 20.2862 1.84667 20.3795 1.828C20.4729 1.79067 20.5662 1.8 20.6595 1.856C20.7342 1.89333 20.7809 1.912 20.7995 1.912C20.9675 1.89333 21.1075 1.93067 21.2195 2.024C21.3315 2.11733 21.4249 2.22933 21.4995 2.36C21.5369 2.39733 21.5649 2.444 21.5835 2.5C21.6022 2.556 21.6209 2.60267 21.6395 2.64C21.7329 2.78933 21.7795 2.93867 21.7795 3.088C21.7795 3.16267 21.7889 3.24667 21.8075 3.34C21.8262 3.41467 21.8449 3.49867 21.8635 3.592C21.9195 3.704 22.0035 3.76 22.1155 3.76C22.1342 3.74133 22.1529 3.74133 22.1715 3.76C22.1902 3.77867 22.1995 3.79733 22.1995 3.816C22.2929 3.928 22.3209 4.04933 22.2835 4.18C22.2462 4.32933 22.2369 4.47867 22.2555 4.628C22.2929 4.75867 22.3302 4.89867 22.3675 5.048C22.4422 5.23467 22.5169 5.42133 22.5915 5.608C22.6662 5.79467 22.7409 5.98133 22.8155 6.168C22.9089 6.37333 23.0022 6.57867 23.0955 6.784C23.1889 6.98933 23.2729 7.19467 23.3475 7.4C23.4409 7.66133 23.5342 7.92267 23.6275 8.184C23.7395 8.44533 23.8609 8.70667 23.9915 8.968L24.0755 9.276C24.0942 9.35067 24.1129 9.42533 24.1315 9.5C24.1689 9.57467 24.1969 9.64933 24.2155 9.724C24.2529 9.78 24.2809 9.836 24.2995 9.892C24.3369 9.948 24.3742 9.99467 24.4115 10.032C24.5049 10.1627 24.5609 10.3027 24.5795 10.452C24.6355 10.6387 24.7195 10.8067 24.8315 10.956C24.8689 11.012 24.9249 11.04 24.9995 11.04C25.2795 11.0027 25.5595 10.9747 25.8395 10.956C26.1195 10.9187 26.3995 10.8627 26.6795 10.788C26.8849 10.732 27.0809 10.704 27.2675 10.704C27.6222 10.704 27.9489 10.8253 28.2475 11.068C28.6022 11.348 28.7889 11.7027 28.8075 12.132C28.8075 12.2253 28.8169 12.3 28.8355 12.356C28.8355 12.4867 28.7982 12.5893 28.7235 12.664C28.7049 12.72 28.6675 12.776 28.6115 12.832C28.5742 12.888 28.5369 12.944 28.4995 13C28.4622 13.0747 28.4249 13.1307 28.3875 13.168L28.2195 13.308C28.2009 13.3453 28.1729 13.392 28.1355 13.448C28.0982 13.4853 28.0515 13.5133 27.9955 13.532C27.9209 13.5507 27.8462 13.5787 27.7715 13.616C27.6969 13.6347 27.6129 13.644 27.5195 13.644C27.1835 13.6813 26.8849 13.672 26.6235 13.616H26.1755C26.1382 13.616 26.0822 13.6347 26.0075 13.672C25.9329 13.7093 25.8955 13.756 25.8955 13.812V13.924C25.9515 14.092 25.9889 14.2693 26.0075 14.456C26.0449 14.624 26.1009 14.7827 26.1755 14.932C26.1755 15.0067 26.1942 15.0813 26.2315 15.156C26.3249 15.324 26.3995 15.5013 26.4555 15.688C26.5115 15.856 26.5582 16.0333 26.5955 16.22C26.5955 16.2573 26.6142 16.332 26.6515 16.444C26.7075 16.5747 26.7542 16.7147 26.7915 16.864C26.8289 16.9947 26.8569 17.1347 26.8755 17.284C26.8755 17.396 26.9035 17.4987 26.9595 17.592C27.0342 17.76 27.0902 17.928 27.1275 18.096C27.1649 18.264 27.1929 18.4413 27.2115 18.628C27.2302 18.6467 27.2395 18.684 27.2395 18.74C27.2395 18.7773 27.2489 18.8147 27.2675 18.852C27.3609 19.0573 27.4262 19.2813 27.4635 19.524C27.5009 19.748 27.5475 19.972 27.6035 20.196C27.6409 20.308 27.6595 20.42 27.6595 20.532C27.6782 20.6627 27.6875 20.7933 27.6875 20.924C27.6875 21.0173 27.6595 21.12 27.6035 21.232C27.5475 21.288 27.5195 21.316 27.5195 21.316C27.4075 21.3347 27.3422 21.4 27.3235 21.512L27.2395 21.68C27.2022 21.7547 27.1462 21.8013 27.0715 21.82C26.9969 21.82 26.9315 21.848 26.8755 21.904C26.8009 21.9787 26.6982 22.016 26.5675 22.016C26.4929 22.016 26.3995 22.016 26.2875 22.016C26.1942 22.016 26.1009 22.0253 26.0075 22.044ZM19.2595 11.88C19.3715 11.8613 19.4835 11.8427 19.5955 11.824C19.7262 11.8053 19.8662 11.7867 20.0155 11.768C20.1089 11.7493 20.2302 11.7307 20.3795 11.712C20.5289 11.6933 20.6689 11.6747 20.7995 11.656C20.9302 11.6187 21.0609 11.6 21.1915 11.6C21.3222 11.5813 21.4529 11.5627 21.5835 11.544C21.6955 11.5067 21.8075 11.488 21.9195 11.488C22.0315 11.4693 22.1435 11.4507 22.2555 11.432C22.4235 11.3947 22.4889 11.3013 22.4515 11.152C22.4329 11.0027 22.3955 10.8533 22.3395 10.704C22.3022 10.536 22.2182 10.396 22.0875 10.284C22.0502 10.2467 22.0315 10.1907 22.0315 10.116V10.032C21.9942 9.88267 21.9475 9.74267 21.8915 9.612C21.8542 9.46267 21.8075 9.32267 21.7515 9.192C21.7142 9.04267 21.6675 8.912 21.6115 8.8C21.5742 8.66933 21.5275 8.53867 21.4715 8.408L21.1355 7.4C21.0795 7.26933 21.0235 7.13867 20.9675 7.008C20.9302 6.87733 20.8929 6.74667 20.8555 6.616L20.7715 6.504H20.6875L20.6315 6.588C20.5382 6.868 20.4262 7.148 20.2955 7.428C20.1835 7.708 20.0809 8.00667 19.9875 8.324C19.9875 8.36133 19.9782 8.408 19.9595 8.464C19.9409 8.52 19.9222 8.576 19.9035 8.632C19.8289 8.81867 19.7542 9.024 19.6795 9.248C19.6235 9.472 19.5769 9.696 19.5395 9.92C19.5209 10.0507 19.5022 10.1813 19.4835 10.312C19.4649 10.424 19.4369 10.5453 19.3995 10.676L19.1475 11.768C19.1289 11.7867 19.1382 11.8147 19.1755 11.852C19.2129 11.8707 19.2409 11.88 19.2595 11.88ZM40.4649 20.252C40.4089 20.2333 40.3436 20.2147 40.2689 20.196C40.2129 20.1773 40.1569 20.1587 40.1009 20.14C39.9516 20.084 39.8023 20.0093 39.6529 19.916C39.5783 19.8787 39.5223 19.8227 39.4849 19.748C39.3543 19.5427 39.2329 19.356 39.1209 19.188C39.0089 19.0013 38.8876 18.8147 38.7569 18.628L38.5049 18.18C38.3743 17.9187 38.2436 17.6667 38.1129 17.424C37.9823 17.1627 37.8516 16.9107 37.7209 16.668C37.6836 16.5747 37.6369 16.5 37.5809 16.444C37.5436 16.3693 37.5063 16.2947 37.4689 16.22C37.3383 16.0147 37.2169 15.8093 37.1049 15.604C36.9929 15.38 36.8809 15.1653 36.7689 14.96L36.0689 13.588C35.8823 13.2147 35.6956 12.8507 35.5089 12.496C35.3223 12.1227 35.1356 11.7493 34.9489 11.376C34.9116 11.3387 34.8743 11.2827 34.8369 11.208C34.7623 11.0027 34.6689 10.8067 34.5569 10.62C34.4636 10.4333 34.3703 10.2467 34.2769 10.06C34.2023 9.92933 34.1369 9.79867 34.0809 9.668C34.0249 9.51867 33.9596 9.37867 33.8849 9.248L33.5769 8.688C33.5396 8.688 33.5116 8.67867 33.4929 8.66C33.4929 8.66 33.4836 8.66933 33.4649 8.688C33.4649 8.688 33.4649 8.69733 33.4649 8.716C33.4463 8.95867 33.4276 9.21067 33.4089 9.472C33.3903 9.73333 33.3903 9.99467 33.4089 10.256C33.4463 10.368 33.4463 10.4893 33.4089 10.62C33.3716 10.956 33.3809 11.2547 33.4369 11.516C33.4556 11.5907 33.4556 11.6653 33.4369 11.74C33.4369 11.8147 33.4276 11.8987 33.4089 11.992C33.3903 12.1227 33.3809 12.244 33.3809 12.356C33.3809 12.468 33.3716 12.5893 33.3529 12.72C33.3903 12.7947 33.4089 12.8787 33.4089 12.972C33.4089 13.0467 33.3996 13.1213 33.3809 13.196C33.3249 13.3827 33.3249 13.5787 33.3809 13.784C33.4183 13.84 33.4183 13.896 33.3809 13.952C33.3063 14.12 33.2876 14.3253 33.3249 14.568C33.3809 14.8853 33.3623 15.2307 33.2689 15.604C33.2503 15.6413 33.2409 15.7067 33.2409 15.8C33.2223 15.8747 33.2409 15.94 33.2969 15.996C33.3716 16.0333 33.3903 16.08 33.3529 16.136C33.3343 16.3787 33.3343 16.6307 33.3529 16.892C33.3529 16.892 33.3529 16.9013 33.3529 16.92C33.3529 16.92 33.3436 16.92 33.3249 16.92C33.3063 16.92 33.2969 16.9107 33.2969 16.892C33.2783 16.8733 33.2689 16.8547 33.2689 16.836C33.2316 16.7987 33.2129 16.808 33.2129 16.864C33.2129 16.9573 33.2223 17.0133 33.2409 17.032C33.2783 17.1253 33.2969 17.2187 33.2969 17.312C33.2969 17.4053 33.2969 17.4987 33.2969 17.592V18.46C33.2969 18.516 33.2876 18.572 33.2689 18.628C33.2689 18.684 33.2409 18.7307 33.1849 18.768C33.1103 18.7867 33.0729 18.852 33.0729 18.964C33.0543 19.1693 32.9796 19.3467 32.8489 19.496C32.7369 19.6453 32.6063 19.776 32.4569 19.888C32.3823 19.944 32.2889 19.9813 32.1769 20C32.0836 20 31.9903 19.9907 31.8969 19.972L31.3929 19.804C31.3556 19.804 31.3183 19.776 31.2809 19.72C31.2249 19.664 31.1689 19.608 31.1129 19.552C31.0569 19.4773 30.9916 19.412 30.9169 19.356C30.8236 19.3 30.7583 19.1973 30.7209 19.048C30.7023 18.9547 30.6743 18.852 30.6369 18.74C30.5996 18.628 30.5809 18.516 30.5809 18.404C30.5809 18.2733 30.5809 18.152 30.5809 18.04C30.5996 17.928 30.6089 17.8067 30.6089 17.676C30.6276 17.5827 30.6369 17.4987 30.6369 17.424C30.6369 17.3307 30.6463 17.2373 30.6649 17.144V6.896C30.6649 6.80267 30.6649 6.70933 30.6649 6.616C30.6836 6.52267 30.7023 6.43867 30.7209 6.364C30.7209 6.27067 30.7209 6.17733 30.7209 6.084C30.7396 5.99067 30.7489 5.89733 30.7489 5.804C30.7489 5.692 30.7489 5.58 30.7489 5.468C30.7676 5.356 30.7863 5.25333 30.8049 5.16C30.8236 5.08533 30.8329 5.02 30.8329 4.964C30.8329 4.908 30.8329 4.84267 30.8329 4.768V3.9C30.8329 3.76933 30.8423 3.65733 30.8609 3.564C30.8983 3.452 30.9263 3.34 30.9449 3.228L31.0289 3.088C31.0849 3.032 31.1316 2.948 31.1689 2.836C31.2063 2.724 31.2623 2.668 31.3369 2.668C31.3929 2.63067 31.4489 2.60267 31.5049 2.584C31.5609 2.54667 31.5983 2.49067 31.6169 2.416L31.6449 2.388C31.6636 2.388 31.6823 2.388 31.7009 2.388C31.7196 2.36933 31.7383 2.36 31.7569 2.36C31.8316 2.36 31.8876 2.34133 31.9249 2.304C31.9809 2.26667 32.0463 2.25733 32.1209 2.276C32.1956 2.29467 32.2703 2.304 32.3449 2.304C32.4196 2.304 32.4943 2.31333 32.5689 2.332C32.9796 2.40667 33.2689 2.64933 33.4369 3.06L33.6049 3.62C33.6236 3.80667 33.7076 3.984 33.8569 4.152C33.9689 4.28267 34.0809 4.42267 34.1929 4.572C34.3049 4.72133 34.4263 4.87067 34.5569 5.02C35.0423 5.636 35.4903 6.32667 35.9009 7.092C35.9383 7.16667 35.9756 7.24133 36.0129 7.316C36.0503 7.39067 36.0876 7.46533 36.1249 7.54L37.5809 10.48C37.6929 10.6853 37.7956 10.9 37.8889 11.124C38.0009 11.3293 38.1223 11.5347 38.2529 11.74C38.2903 11.8147 38.3276 11.8893 38.3649 11.964C38.4023 12.02 38.4303 12.0853 38.4489 12.16C38.5423 12.384 38.6543 12.608 38.7849 12.832C38.7849 12.832 38.7849 12.8413 38.7849 12.86C38.8036 12.86 38.8129 12.8507 38.8129 12.832C38.8316 12.832 38.8409 12.832 38.8409 12.832C38.8596 12.8133 38.8689 12.804 38.8689 12.804L38.9529 11.824V11.544C38.9716 11.4507 38.9809 11.3573 38.9809 11.264C38.9996 11.152 39.0183 11.0493 39.0369 10.956C39.0556 10.9 39.0556 10.8347 39.0369 10.76C39.0369 10.6853 39.0463 10.6107 39.0649 10.536C39.0649 10.424 39.0649 10.312 39.0649 10.2C39.0836 10.0693 39.1023 9.948 39.1209 9.836C39.1396 9.78 39.1489 9.724 39.1489 9.668C39.1489 9.59333 39.1489 9.528 39.1489 9.472V8.716H39.1209V7.96C39.1209 7.86667 39.1209 7.77333 39.1209 7.68C39.1209 7.58667 39.1023 7.49333 39.0649 7.4C39.0463 7.344 39.0369 7.26 39.0369 7.148L39.0649 6.952C39.0649 6.896 39.0556 6.84933 39.0369 6.812C39.0369 6.756 39.0369 6.7 39.0369 6.644C39.0556 6.56933 39.0463 6.49467 39.0089 6.42C38.9716 6.34533 38.9529 6.27067 38.9529 6.196C38.9716 6.12133 38.9809 6.04667 38.9809 5.972C38.9809 5.89733 38.9809 5.82267 38.9809 5.748C38.9809 5.67333 38.9436 5.636 38.8689 5.636C38.8503 5.636 38.8409 5.61733 38.8409 5.58C38.8223 5.524 38.8223 5.47733 38.8409 5.44C38.8783 5.34667 38.8969 5.244 38.8969 5.132C38.8969 5.02 38.8969 4.908 38.8969 4.796V3.984C38.8783 3.872 38.8876 3.76 38.9249 3.648C38.9623 3.536 39.0089 3.43333 39.0649 3.34L39.1769 3.172C39.2703 3.07867 39.3729 2.98533 39.4849 2.892C39.5969 2.79867 39.7089 2.70533 39.8209 2.612C39.8209 2.612 39.8583 2.59333 39.9329 2.556C40.0263 2.53733 40.1103 2.51867 40.1849 2.5C40.2783 2.48133 40.3716 2.48133 40.4649 2.5C40.5396 2.5 40.5956 2.50933 40.6329 2.528C40.7076 2.56533 40.7823 2.612 40.8569 2.668C40.9316 2.70533 41.0063 2.752 41.0809 2.808C41.1183 2.82667 41.1369 2.84533 41.1369 2.864C41.1556 2.88267 41.1743 2.90133 41.1929 2.92C41.2303 2.95733 41.2583 3.004 41.2769 3.06C41.3143 3.09733 41.3423 3.13467 41.3609 3.172C41.4543 3.24667 41.5103 3.34 41.5289 3.452C41.5663 3.54533 41.5943 3.63867 41.6129 3.732V4.908C41.6129 5.03867 41.6129 5.16933 41.6129 5.3C41.6316 5.412 41.6503 5.53333 41.6689 5.664C41.6876 5.73867 41.6969 5.81333 41.6969 5.888C41.6969 5.944 41.6969 6.00933 41.6969 6.084C41.6969 6.23333 41.6969 6.392 41.6969 6.56C41.7156 6.70933 41.7249 6.85867 41.7249 7.008V7.204C41.7249 7.33467 41.7156 7.46533 41.6969 7.596C41.6969 7.708 41.6969 7.82933 41.6969 7.96V9.192C41.6969 9.37867 41.6876 9.57467 41.6689 9.78C41.6689 9.96667 41.6783 10.1627 41.6969 10.368C41.6969 10.4427 41.6876 10.4987 41.6689 10.536C41.6503 10.7227 41.6409 10.9093 41.6409 11.096C41.6409 11.264 41.6316 11.4413 41.6129 11.628C41.6129 11.7027 41.6129 11.7867 41.6129 11.88C41.6129 11.9733 41.6036 12.0667 41.5849 12.16C41.5663 12.2347 41.5569 12.3093 41.5569 12.384C41.5756 12.4587 41.5849 12.5333 41.5849 12.608C41.6223 12.776 41.6316 12.944 41.6129 13.112C41.6129 13.28 41.6036 13.448 41.5849 13.616C41.5663 13.9147 41.5476 14.2227 41.5289 14.54C41.5289 14.8387 41.5476 15.1467 41.5849 15.464C41.5849 15.5387 41.5849 15.6227 41.5849 15.716C41.6036 15.8093 41.6129 15.9027 41.6129 15.996C41.5943 16.276 41.6036 16.5467 41.6409 16.808C41.6969 17.0693 41.7529 17.3307 41.8089 17.592C41.8463 17.7787 41.8836 17.9653 41.9209 18.152C41.9583 18.32 41.9863 18.5067 42.0049 18.712C42.0049 18.7867 41.9956 18.8333 41.9769 18.852C41.9583 18.8893 41.9396 18.936 41.9209 18.992C41.9023 19.0293 41.8929 19.0667 41.8929 19.104C41.8743 19.2533 41.8183 19.3933 41.7249 19.524C41.6503 19.6547 41.5663 19.7853 41.4729 19.916C41.2303 20.2333 40.8943 20.3453 40.4649 20.252Z" fill="black"/>
</svg>
