<svg width="115" height="75" viewBox="0 0 115 75" fill="none" xmlns="http://www.w3.org/2000/svg">
<g clip-path="url(#clip0_721_4464)">
<path d="M11.5479 2.23438C11.4154 3.94836 11.3934 5.65438 11.4473 7.37237C11.5467 10.5424 11.493 13.7036 11.4661 16.874C11.4483 18.9736 11.3628 21.2741 11.898 23.3281C11.999 23.7154 12.2263 24.4496 12.4876 23.8773" stroke="black" stroke-width="2" stroke-linecap="round"/>
<path d="M12.0623 3.74803C14.2221 3.68294 21.3985 2.84227 19.4218 7.09059C18.2558 9.59654 15.7892 11.1246 13.4237 12.3522C12.5637 12.7986 11.6066 13.2627 10.6236 13.3556C10.3374 13.3827 9.87449 13.355 9.62347 13.149C9.24797 12.8408 9.64044 12.9151 9.43758 12.5556" stroke="black" stroke-width="2" stroke-linecap="round"/>
<path d="M21.8009 8.1543C22.2304 9.41566 22.0972 11.0472 22.1181 12.3583C22.1509 14.4163 22.0523 16.4741 21.926 18.5275C21.8309 20.0738 21.7423 21.6305 21.5359 23.167C21.465 23.695 21.4282 23.7256 21.4199 23.2606" stroke="black" stroke-width="2" stroke-linecap="round"/>
<path d="M21.3217 11.5828C22.5774 9.28637 23.899 7.43767 26.4396 6.50749C27.0709 6.27637 27.9799 5.96235 28.6654 6.15331C29.9943 6.52347 28.6986 8.56132 28.3546 9.11832C27.4398 10.5995 26.2864 11.9736 25.0738 13.2181C24.6852 13.617 24.2785 13.9986 23.8603 14.3662C23.3944 14.7757 22.077 15.3586 22.5736 16.3729C22.9322 17.1055 23.5681 17.6789 24.1774 18.2212C25.6617 19.5424 29.739 22.3714 31.3176 23.4976C31.865 23.888 33.6946 25.1177 34.4814 25.8554C34.7058 26.0658 34.4571 25.9095 34.4779 26.0047" stroke="black" stroke-width="2" stroke-linecap="round"/>
<path d="M38.0514 5.17969C37.738 9.42751 37.4438 13.7009 37.5198 17.9635C37.5415 19.1802 37.3455 21.0398 38.0353 22.1202" stroke="black" stroke-width="2" stroke-linecap="round"/>
<path d="M43.3849 5.63672C43.7024 10.13 42.906 14.4792 42.5851 18.9467C42.5142 19.9333 42.4775 20.9215 42.4242 21.909C42.4132 22.1124 42.4351 20.9924 42.4374 20.7946" stroke="black" stroke-width="2" stroke-linecap="round"/>
<path d="M43.4874 5.76172C44.5738 7.70089 45.2628 9.78694 47.4586 10.7117C48.8306 11.2896 49.7897 10.2956 50.6234 9.3297" stroke="black" stroke-width="2" stroke-linecap="round"/>
<path d="M53.8645 4.17825C52.6748 5.70277 51.5779 7.33853 50.5703 8.98724C50.0527 9.83412 49.5123 10.6915 49.0711 11.5821C48.9489 11.8287 48.9681 11.8337 49.1279 11.7502" stroke="black" stroke-width="2" stroke-linecap="round"/>
<path d="M54.0356 3.63477C54.42 4.54247 54.3216 5.83232 54.3964 6.79001C54.6407 9.91709 54.9559 13.0324 55.3031 16.1497C55.5817 18.6517 55.8337 21.1623 56.1583 23.6588C56.2648 24.4783 56.2938 24.2056 56.1635 23.6095" stroke="black" stroke-width="2" stroke-linecap="round"/>
<path d="M61.9072 3.46775C61.0286 8.12797 59.8216 12.7175 58.8635 17.3606C58.6703 18.2966 58.4371 19.2499 58.3352 20.2026C58.2891 20.6334 58.4584 19.9025 58.476 19.8187" stroke="black" stroke-width="2" stroke-linecap="round"/>
<path d="M62.3903 4.19238C63.3178 5.42578 63.8453 6.77646 64.3522 8.22943C65.2267 10.7361 66.0503 13.2551 66.9706 15.7463C67.5404 17.2886 68.0911 18.8426 68.7016 20.3695C68.8237 20.6748 69.0223 21.2981 69.2994 21.4246" stroke="black" stroke-width="2" stroke-linecap="round"/>
<path d="M58.9438 16.5024L68.1735 10.9817" stroke="black" stroke-width="2" stroke-linecap="round"/>
<path d="M71.65 5.74219C71.872 9.52415 72.5245 13.3106 73.1787 17.0384C73.4604 18.6441 73.5167 20.4635 74.1812 21.9453" stroke="black" stroke-width="2" stroke-linecap="round"/>
<path d="M72.36 10.6425C72.582 9.02993 74.115 7.28007 75.3731 6.36444C75.9141 5.97069 78.5684 4.43628 78.9901 5.7663C79.4831 7.3213 77.4401 9.31632 76.5035 10.2502C75.2084 11.5417 73.6392 12.8198 71.9795 13.6187C71.8374 13.6872 71.277 13.9783 71.0701 13.8456C70.9726 13.7831 71.2593 13.6884 71.3747 13.6787C72.7533 13.5628 74.1634 14.4853 75.3108 15.1094C77.8838 16.5089 80.4287 17.976 82.9795 19.4075" stroke="black" stroke-width="2" stroke-linecap="round"/>
<path d="M82.1155 1.25195C83.1133 2.79711 83.8358 4.74958 85.2234 5.99747C86.1183 6.80229 86.8945 6.66575 87.9523 6.47624" stroke="black" stroke-width="2" stroke-linecap="round"/>
<path d="M91.3959 1.56932C91.6449 1.4603 91.2093 2.08947 91.043 2.30452C90.259 3.31853 89.2974 4.23262 88.4073 5.15185C87.543 6.04446 86.647 6.90484 85.7865 7.80131C85.6013 7.9943 85.354 8.28614 85.5576 7.9015" stroke="black" stroke-width="2" stroke-linecap="round"/>
<path d="M86.4762 6.65406C86.2632 6.63128 86.322 6.60985 86.4131 6.77821C87.0522 7.95992 87.2697 9.47494 87.5199 10.7675C88.2063 14.3125 88.7204 17.881 89.486 21.4123C89.6133 21.9997 89.6692 23.0787 90.0495 23.6044C90.228 23.851 90.3033 23.2556 90.3148 23.2213" stroke="black" stroke-width="2" stroke-linecap="round"/>
<path d="M10.1925 39.0137C10.9141 39.8008 10.9265 41.6369 11.0229 42.6084C11.3573 45.9786 11.4046 49.4241 11.2121 52.804C11.0828 55.0734 10.7872 57.3282 10.6129 59.594C10.5126 60.8979 10.4522 60.2224 10.3817 59.4469" stroke="black" stroke-width="2" stroke-linecap="round"/>
<path d="M10.0028 43.3657C10.913 43.0975 12.9995 42.3302 14.123 42.4828C15.6738 42.6934 14.7668 44.4532 14.3438 45.1105C13.4206 46.5449 11.9662 47.7495 10.6124 48.7683C10.3427 48.9712 9.2722 49.6234 10.2866 49.1887C12.0743 48.4226 13.8667 47.8158 15.8048 47.5595C17.0857 47.3902 19.9015 46.8967 20.829 48.2217C21.7366 49.5183 19.6426 51.8316 18.8845 52.6468C17.1401 54.5224 14.883 56.18 12.5464 57.2401C11.7868 57.5847 10.6991 58.0497 9.84509 57.7236C9.02945 57.4121 9.42362 56.835 9.24597 56.231" stroke="black" stroke-width="2" stroke-linecap="round"/>
<path d="M25.3274 41.4746C25.919 45.8788 25.755 50.4151 25.6112 54.8445C25.557 56.5123 25.5537 58.1802 25.5061 59.8477C25.4606 61.439 25.3464 59.3926 25.3274 59.0699" stroke="black" stroke-width="2" stroke-linecap="round"/>
<path d="M24.1937 49.2293C25.6617 47.9155 27.0857 46.5506 28.5978 45.2877C28.7021 45.2006 32.1605 41.9576 33.6535 42.2501C35.1016 42.5337 32.567 45.8599 32.3922 46.0761C30.9918 47.808 28.3866 50.4392 25.9806 50.6798C25.4971 50.7282 24.9618 49.5746 25.4761 50.2174C27.2916 52.4868 30.7285 53.8938 33.0965 55.641C34.6834 56.8119 35.8982 58.2641 37.2798 59.6456C38.0792 60.4451 37.2246 59.1432 37.0591 58.8783" stroke="black" stroke-width="2" stroke-linecap="round"/>
<path d="M45.5726 39.7705C44.8208 43.6234 43.6433 47.3846 42.7557 51.2064C42.396 52.7552 42.1511 55.695 41.5995 56.7982" stroke="black" stroke-width="2" stroke-linecap="round"/>
<path d="M46.1376 40.9053C47.0354 45.2526 48.1746 49.2534 49.8374 53.3502C50.3408 54.5905 51.1301 56.4194 49.3539 56.4194" stroke="black" stroke-width="2" stroke-linecap="round"/>
<path d="M42.5442 51.6906C42.4406 51.1723 44.5428 50.4541 44.8777 50.3662C46.3417 49.982 47.6854 50.029 49.1661 50.177" stroke="black" stroke-width="2" stroke-linecap="round"/>
<path d="M54.4639 42.2295C54.4639 46.3278 54.3169 50.4532 54.5059 54.5483C54.5101 54.6386 54.5528 56.7036 54.8002 56.7345C54.853 56.7411 54.6589 54.9607 54.6531 54.9056" stroke="black" stroke-width="2" stroke-linecap="round"/>
<path d="M53.8966 43.9324C54.5135 43.8295 55.8463 45.9332 56.0829 46.2448C57.5306 48.1513 58.7465 50.2175 60.2137 52.1098C60.787 52.8494 61.451 53.9129 62.2633 54.4327C62.8552 54.8116 62.2467 52.58 62.2212 52.4462" stroke="black" stroke-width="2" stroke-linecap="round"/>
<path d="M60.8945 40.9053C61.6019 41.7894 61.6136 43.9214 61.7564 44.9415C62.0576 47.0916 62.2388 49.2527 62.4081 51.4162C62.424 51.6196 62.6902 55.0848 62.4081 53.3922" stroke="black" stroke-width="2" stroke-linecap="round"/>
<path d="M68.2758 40.1484C68.4473 44.095 68.685 48.0684 69.2217 51.9837C69.3931 53.2339 69.5299 54.5103 69.7893 55.7466C69.944 56.4834 69.8006 55.5525 69.7893 55.4733" stroke="black" stroke-width="2" stroke-linecap="round"/>
<path d="M66.9496 40.9053C70.3174 42.2988 77.1394 42.6403 78.4485 46.7493C79.2122 49.1465 77.1184 52.0369 75.5685 53.6445C74.523 54.7289 73.2027 55.7581 71.711 56.1251C70.0613 56.531 69.6684 55.7103 68.274 55.2842" stroke="black" stroke-width="2" stroke-linecap="round"/>
<path d="M4.07554 71.5848C9.47176 74.8394 16.9344 73.5191 22.6806 72.9228C37.5404 71.3807 52.2915 69.7695 67.1814 68.8715C80.8155 68.0492 94.5219 67.6299 108.134 65.9538C116.1 64.9727 108.677 64.2028 105.398 63.7142" stroke="black" stroke-width="2" stroke-linecap="round"/>
</g>
<defs>
<clipPath id="clip0_721_4464">
<rect width="115" height="75" fill="white"/>
</clipPath>
</defs>
</svg>
