<svg width="115" height="39" viewBox="0 0 115 39" fill="none" xmlns="http://www.w3.org/2000/svg">
<path d="M11 9.8018C17.3567 9.41383 23.0694 6.6827 29.2259 5.34518C30.3719 5.09621 31.8517 4.71358 32.9468 5.26109" stroke="black" stroke-width="2" stroke-linecap="round"/>
<path d="M22.5415 7.90918C22.9208 11.5122 23.2771 15.1155 23.8554 18.6934C23.9465 19.2575 24.2358 20.9383 24.0551 20.3961" stroke="black" stroke-width="2" stroke-linecap="round"/>
<path d="M36.1648 6.20802C38.1824 5.73817 41.0757 4.53541 43.1651 4.88364" stroke="black" stroke-width="2" stroke-linecap="round"/>
<path d="M35.9735 7.53125C34.9088 9.02182 35.4258 12.2192 35.3638 13.9639C35.3308 14.8942 34.694 19.6773 36.3729 19.6608C37.6265 19.6485 38.9736 18.7391 40.0517 18.2103C41.4064 17.5459 42.7595 16.8618 44.151 16.2763C44.7797 16.0118 47.6628 14.8833 46.3793 16.4235" stroke="black" stroke-width="2" stroke-linecap="round"/>
<path d="M33.1364 13.208C35.6611 12.5634 38.2107 12.0402 40.7462 11.4422C41.8204 11.1888 42.6569 11.0442 43.7313 11.1268" stroke="black" stroke-width="2" stroke-linecap="round"/>
<path d="M48.651 6.58691C51.9819 9.51708 55.7033 12.6419 58.1108 16.4251" stroke="black" stroke-width="2" stroke-linecap="round"/>
<path d="M57.3535 6.0166C54.309 10.6314 45.9888 24.962 48.4612 20.0171" stroke="black" stroke-width="2" stroke-linecap="round"/>
<path d="M59.2458 5.26124C62.5749 4.03831 66.0551 3.03943 69.494 2.17103C69.8007 2.09359 72.9691 1.70882 72.7271 2.43486" stroke="black" stroke-width="2" stroke-linecap="round"/>
<path d="M65.2996 3.18066C65.2996 8.14569 65.6784 13.083 65.1104 18.0326C65.0026 18.9716 64.965 19.2006 64.8476 20.0612C64.8091 20.3437 64.8367 21.1466 64.6899 20.902C64.3898 20.4018 64.5428 19.4461 64.5428 18.8839" stroke="black" stroke-width="2" stroke-linecap="round"/>
<path d="M2 35.2439C3.46012 39.1375 36.4032 32.8633 39.8304 32.5735C54.1021 31.3664 69.266 29.7373 83.4467 32.5735" stroke="black" stroke-width="2" stroke-linecap="round"/>
</svg>
