<svg width="115" height="62" viewBox="0 0 115 62" fill="none" xmlns="http://www.w3.org/2000/svg">
<path d="M18.9945 1C16.9972 2.5152 14.9857 4.01979 13.1294 5.70888C12.2217 6.53481 10.4629 7.85258 10.0287 9.08288C9.75263 9.86507 11.5528 9.60097 11.805 9.58741C13.8582 9.47702 15.9948 9.15572 18.0065 9.76609C19.2639 10.1476 20.8947 11.0024 20.9705 12.5199C21.081 14.7288 18.8246 16.6598 17.1971 17.7544C15.8371 18.6691 14.2312 19.4281 12.5513 19.3415C11.0568 19.2645 10.8042 18.6733 10.4807 17.4601" stroke="black" stroke-width="2" stroke-linecap="round"/>
<path d="M25.9944 4.97266C26.4185 5.63899 26.0207 7.25833 26.0049 7.9998C25.958 10.2037 25.9451 12.4928 26.4884 14.6427C26.8034 15.889 27.2953 17.5502 28.6747 17.9746C29.8979 18.351 31.6968 18.0957 32.8791 17.6908C36.1879 16.5577 36.0213 12.3348 35.6014 9.49234C35.4362 8.37394 35.1885 7.13449 34.7395 6.08681C34.6355 5.84428 34.8433 6.60434 34.8866 6.86462" stroke="black" stroke-width="2" stroke-linecap="round"/>
<path d="M38.2922 4.78418C38.7135 8.86491 38.7725 12.9911 38.6601 17.0924C38.6393 17.8519 38.5136 19.3885 38.2922 17.8387" stroke="black" stroke-width="2" stroke-linecap="round"/>
<path d="M39.0488 6.10825C39.4592 5.42411 40.8246 5.0532 41.5714 5.25687C42.9846 5.64229 40.7146 8.16247 40.3626 8.52576C39.5265 9.38884 38.5778 9.962 37.5562 10.5649C36.6441 11.1032 38.457 10.5921 38.5863 10.5649C40.3233 10.1992 49.3261 8.99967 46.3118 13.0349C45.043 14.7335 43.0495 15.9371 41.0038 16.451C40.3424 16.6171 39.3638 16.7821 38.786 16.2723C38.3001 15.8436 38.6704 15.4933 38.6704 15.0005" stroke="black" stroke-width="2" stroke-linecap="round"/>
<path d="M45.6696 5.35136C45.4521 4.48148 55.5755 2.32422 56.8322 2.32422" stroke="black" stroke-width="2" stroke-linecap="round"/>
<path d="M51.7261 3.64844C51.294 4.21019 51.3044 5.28041 51.2426 5.93981C51.0599 7.88851 51.0157 9.8699 50.9799 11.8259C50.9733 12.1831 51.0335 16.8377 50.7802 14.811" stroke="black" stroke-width="2" stroke-linecap="round"/>
<path d="M58.7252 3.83789C59.0656 5.99388 58.9241 8.04026 58.7357 10.2075C58.637 11.3426 58.0178 14.0648 59.051 15.0215C60.4657 16.3314 62.7614 12.604 63.4551 11.7841" stroke="black" stroke-width="2" stroke-linecap="round"/>
<path d="M64.3999 3.83915C65.0809 3.70603 72.7245 2.27828 72.7245 2.70397" stroke="black" stroke-width="2" stroke-linecap="round"/>
<path d="M66.2939 2.70215C65.4629 4.96844 65.494 7.87546 65.6212 10.249C65.7111 11.9281 65.7788 15.1433 67.366 16.2507C68.625 17.1291 70.373 15.5857 71.3706 14.9158C72.4431 14.1957 73.9179 13.2017 74.491 12.0555" stroke="black" stroke-width="2" stroke-linecap="round"/>
<path d="M67.4283 8.37901C69.0218 8.26912 71.7271 7.62946 72.7258 6.29785" stroke="black" stroke-width="2" stroke-linecap="round"/>
<path d="M10 36.8176C13.0512 36.5402 16.2122 35.4777 19.219 34.862C21.1431 34.4681 23.1349 33.8351 25.0857 34.0519" stroke="black" stroke-width="2" stroke-linecap="round"/>
<path d="M19.8051 35.3086C19.8607 38.5358 20.2677 41.7681 20.8108 44.9467C21.0257 46.2048 21.3314 47.454 21.5092 48.7181C21.5901 49.2936 21.5478 49.1199 21.3136 48.8857" stroke="black" stroke-width="2" stroke-linecap="round"/>
<path d="M29.108 35.5597C29.9249 34.7428 31.7858 34.583 32.8515 34.3166C34.2811 33.9592 35.7194 33.6344 37.1537 33.2969" stroke="black" stroke-width="2" stroke-linecap="round"/>
<path d="M30.3656 35.8125C29.8144 38.1676 29.5966 40.5996 29.2621 42.9922C29.144 43.8372 28.5178 45.7963 29.332 46.5122C30.4785 47.5203 33.0889 46.3983 34.2348 45.9534C35.7889 45.3501 37.2296 44.4498 38.6628 43.6068" stroke="black" stroke-width="2" stroke-linecap="round"/>
<path d="M29.108 42.6001C32.1094 41.2928 35.0886 40.1719 38.1594 39.0801" stroke="black" stroke-width="2" stroke-linecap="round"/>
<path d="M44.4462 34.5547C46.451 38.4212 49.9308 41.1461 52.7433 44.3604" stroke="black" stroke-width="2" stroke-linecap="round"/>
<path d="M51.2332 33.2969C48.5817 36.5377 46.7702 40.3457 44.6961 43.9546C43.9746 45.21 43.1188 46.3851 42.4053 47.6422C41.7466 48.8029 43.0482 47.2821 43.1875 47.1254" stroke="black" stroke-width="2" stroke-linecap="round"/>
<path d="M53.2454 34.3041C56.1135 33.7801 58.9827 33.2665 61.8218 32.5999C62.5347 32.4326 63.2286 32.1595 63.8053 32.5441" stroke="black" stroke-width="2" stroke-linecap="round"/>
<path d="M58.7763 33.8008C57.8744 37.2082 58.261 41.1072 58.6506 44.5703C58.7067 45.0688 59.4987 48.8225 58.5249 46.875" stroke="black" stroke-width="2" stroke-linecap="round"/>
<path d="M5 61C21.8527 60.68 37.6666 58.3295 54.2836 57.2545C64.0386 56.6233 73.3961 57.2727 83 58.043" stroke="black" stroke-width="2" stroke-linecap="round"/>
</svg>
