<svg width="115" height="43" viewBox="0 0 115 43" fill="none" xmlns="http://www.w3.org/2000/svg">
<path d="M17.8166 2C14.7516 10.9681 12.1802 19.9911 9.53901 29.0766C9.53801 29.08 8.6629 31.9607 9.14484 29.8953C9.55416 28.141 10.0117 26.3973 10.4486 24.6497" stroke="black" stroke-width="2" stroke-linecap="round"/>
<path d="M15.6327 5.82031C16.4801 6.78876 16.9686 8.64847 17.4216 9.79236C18.8205 13.3241 19.9563 16.9645 21.045 20.6018C21.2395 21.2518 23.2657 28.1972 22.7278 28.1972" stroke="black" stroke-width="2" stroke-linecap="round"/>
<path d="M9.90332 24.9237C10.4232 25.7034 20.0379 18.469 21.0917 17.5557" stroke="black" stroke-width="2" stroke-linecap="round"/>
<path d="M33.9177 12.0957C33.0727 10.7013 32.2014 10.6602 31.1585 11.8986C29.2956 14.1109 28.4711 17.5946 28.9148 20.4339C30.0972 28.0015 37.2922 17.7722 38.8297 15.6432" stroke="black" stroke-width="2" stroke-linecap="round"/>
<path d="M42.3769 10.1875C39.8548 12.0557 38.5919 16.1119 39.2083 19.117C39.4836 20.4592 40.5086 22.4331 42.1646 22.2856C44.3569 22.0902 45.7991 19.6223 47.016 18.1013" stroke="black" stroke-width="2" stroke-linecap="round"/>
<path d="M48.6537 11.0053C50.9904 10.9079 53.211 10.1649 55.4001 9.38308C55.6404 9.29724 57.8109 8.62522 57.1132 8.27637" stroke="black" stroke-width="2" stroke-linecap="round"/>
<path d="M50.5629 9.64258C50.5629 11.0944 50.6668 22.2303 51.5483 21.9984C52.8766 21.6488 54.2291 20.174 55.3839 19.4666C56.0392 19.0651 58.2312 18.4573 57.9309 17.5563" stroke="black" stroke-width="2" stroke-linecap="round"/>
<path d="M49.4706 17.554C52.0689 16.9891 55.0132 15.9579 57.1115 14.2793" stroke="black" stroke-width="2" stroke-linecap="round"/>
<path d="M60.6588 7.45898C60.5409 11.4668 60.5255 15.3823 60.871 19.3751C61.0631 21.5955 60.5316 18.6844 60.3859 18.1016" stroke="black" stroke-width="2" stroke-linecap="round"/>
<path d="M60.1141 9.91406C62.2253 12.2363 64.0479 14.7977 66.2086 17.1001C67.1465 18.0994 68.0306 19.1258 68.9072 20.1777C69.6627 21.0843 69.2212 19.923 69.1195 19.4652" stroke="black" stroke-width="2" stroke-linecap="round"/>
<path d="M66.6642 9.36816C66.268 9.70776 66.6607 10.8818 66.7248 11.2481C67.0751 13.2477 67.3683 15.2589 67.7557 17.2516C68.0471 18.7502 68.8655 21.994 68.0286 18.6464" stroke="black" stroke-width="2" stroke-linecap="round"/>
<path d="M69.392 8.00602C72.609 7.0799 76.6686 4.98141 80.0346 5.82292" stroke="black" stroke-width="2" stroke-linecap="round"/>
<path d="M75.3948 5.27539C75.6276 9.69934 75.9787 14.1934 76.547 18.5863C76.7074 19.8268 77.4877 21.7883 77.2595 23.0435C77.2281 23.2164 76.2961 22.2771 76.2134 22.1945" stroke="black" stroke-width="2" stroke-linecap="round"/>
<path d="M4.12466 41C2.97923 40.1932 10.0891 40.4435 10.6659 40.424C20.7756 40.0831 30.8836 39.7208 40.9937 39.3769C58.8119 38.7707 78.2916 37.0846 96 38.6438" stroke="black" stroke-width="2" stroke-linecap="round"/>
</svg>
