<svg width="207" height="100" viewBox="0 0 207 100" fill="none" xmlns="http://www.w3.org/2000/svg">
<path d="M8.70415 85.6025C3.84614 85.6025 5.64303 60.3312 6.46977 56.1037C6.7606 54.6165 5.70687 53.094 5.77915 51.5334C5.85235 49.9529 6.5104 48.5997 6.5104 46.9632C6.5104 43.7839 6.91665 40.5016 6.91665 37.4072C6.91665 34.5691 5.77915 31.4168 5.77915 28.6822C5.77915 26.5503 6.3631 23.0718 5.2104 21.4344C4.51107 20.4411 5.77915 15.6741 5.77915 14.1405C5.77915 12.1078 6.0657 8.89427 7.60727 7.49286C9.3275 5.92904 13.4435 6.28497 15.6916 5.6463C18.9841 4.71094 21.3606 6.32069 24.426 5.78479C30.3658 4.74639 36.6796 5.83095 42.6666 5.83095C49.0623 5.83095 55.4512 5 61.7198 5C67.7691 5 73.5873 5 79.4729 5C82.5243 5 85.4758 5 88.7354 5C89.9933 5 90.9234 5.83095 92.2292 5.83095C94.0445 5.83095 95.5339 4.8122 97.1854 5.6463C98.4646 6.29237 99.2633 4.64988 100.476 5.41548C101.734 6.20994 103.505 5.83095 104.904 5.83095C107.399 5.83095 111.66 4.95009 114.004 6.01561C116.569 7.18129 120.402 7.49286 123.104 7.49286C126.091 7.49286 130.004 8.3049 132.854 7.3082C139.316 5.0488 146.916 6.66191 153.492 6.66191C160.669 6.66191 167.846 6.66191 175.023 6.66191C177.815 6.66191 180.719 5.83095 183.635 5.83095C186.54 5.83095 189.162 5.83095 191.882 5.83095C197.614 5.83095 200.292 6.80598 200.292 13.725C200.292 16.846 201.023 19.636 201.023 22.8655C201.023 25.2469 200.319 29.3751 201.185 31.5905C202.003 33.6805 202.422 38.202 201.389 40.3155C200.048 43.0575 202.021 46.74 200.86 49.8715C199.392 53.8346 200.286 60.0207 200.982 63.5822C201.929 68.425 201.754 73.2329 201.754 78.5394C201.754 81.5348 198.208 90.5882 195.173 90.5882C190.398 90.5882 185.919 92.2501 181.279 92.2501C175.764 92.2501 170.549 91.7574 165.192 91.4192C160.555 91.1265 154.037 90.8286 149.267 92.4348C146.718 93.2929 143.037 92.2501 140.167 92.2501C137.16 92.2501 134.154 92.2501 131.148 92.2501C124.049 92.2501 116.928 89.6192 109.982 91.373C102.838 93.1771 95.3273 91.4192 88.0448 91.4192C82.3703 91.4192 76.8615 93.0811 71.1854 93.0811C64.5092 93.0811 57.6845 94.743 51.1166 94.743C45.3092 94.743 37.5943 96.0158 32.1041 92.8964C27.9185 90.5182 19.6603 90.5926 15.4479 92.0655C13.4127 92.7771 11.2409 91.0663 9.80102 89.7573C8.9816 89.0123 6.83573 85.6025 7.24165 85.6025" stroke="black" stroke-linecap="round"/>
</svg>
