<svg width="84" height="31" viewBox="0 0 84 31" fill="none" xmlns="http://www.w3.org/2000/svg">
<g clip-path="url(#clip0_721_2296)">
<path d="M1 9.33243C1.01416 9.04928 1.23528 7.10068 1.71408 7.95189C3.1312 10.4712 2.93911 14.3373 2.98355 17.0921C3.02929 19.9279 3.64829 23.317 3.22157 26.1212C3.03377 27.3553 2.75023 25.0481 2.71378 24.7565" stroke="black" stroke-width="2" stroke-linecap="round"/>
<path d="M1.85742 17.0444C2.10654 16.048 7.54756 15.5182 8.45866 15.3307C10.0279 15.0076 14.8904 13.7965 16.139 15.045" stroke="black" stroke-width="2" stroke-linecap="round"/>
<path d="M15.5684 3.90513C15.6275 3.49107 16.4028 6.14453 16.4411 6.31712C17.3146 10.2477 17.6494 14.2322 17.7899 18.2501C17.9153 21.8365 17.8973 25.4648 18.4247 29.0248C18.5308 29.7409 18.7103 27.6455 18.7103 27.3268" stroke="black" stroke-width="2" stroke-linecap="round"/>
<path d="M30.7061 9.33287C28.8205 10.8414 29.6518 13.9586 30.3253 15.9341C30.7967 17.317 31.5257 19.4245 32.9912 20.0758C34.7961 20.878 35.851 17.7191 36.2442 16.5688C37.2533 13.6161 38.4079 7.50148 34.1178 6.42896C32.8726 6.11767 29.2161 6.95502 30.4205 8.76161" stroke="black" stroke-width="2" stroke-linecap="round"/>
<path d="M45.5586 3.62012C45.667 7.95458 45.9171 12.3859 46.4155 16.6957C46.5259 17.6501 46.4771 19.4158 47.1137 20.2343C47.2078 20.3553 47.0138 18.3766 46.9867 18.1873" stroke="black" stroke-width="2" stroke-linecap="round"/>
<path d="M45.5586 2.76367C46.9271 3.50057 47.1418 5.29598 47.8436 6.57208C48.6731 8.08011 49.9224 9.43432 51.1443 10.6344C53.2764 12.7284 54.0033 9.97166 54.4131 8.12718C54.7594 6.56904 55.8384 1.90374 55.4922 3.46188C54.8805 6.21448 54.3616 9.09457 54.1275 11.9039" stroke="black" stroke-width="2" stroke-linecap="round"/>
<path d="M56.6982 3.04871C56.2778 2.50811 56.8249 -0.770287 57.6186 2.28703C58.8553 7.05048 60.1043 11.8466 60.951 16.6955C61.4363 19.4749 61.7266 22.3053 62.4109 25.0423" stroke="black" stroke-width="2" stroke-linecap="round"/>
<path d="M68.4102 5.0485C68.9371 6.45358 76.3053 3.59984 77.836 3.90598" stroke="black" stroke-width="2" stroke-linecap="round"/>
<path d="M69.8371 5.04883C69.6671 8.27813 69.6551 11.3865 69.8371 14.6175C69.9513 16.6446 70.0251 22.6687 72.3126 23.6942C74.4534 24.6538 78.1613 22.2355 80.0563 21.3932C80.4165 21.2332 83.4697 20.3518 82.1192 19.9016" stroke="black" stroke-width="2" stroke-linecap="round"/>
<path d="M68.4102 14.7601C69.0281 14.1421 70.4162 14.077 71.203 13.9032C73.0366 13.4982 74.8574 13.0608 76.6617 12.5385C77.814 12.205 80.572 11.7384 81.2635 11.0469" stroke="black" stroke-width="2" stroke-linecap="round"/>
</g>
<defs>
<clipPath id="clip0_721_2296">
<rect width="84" height="31" fill="white"/>
</clipPath>
</defs>
</svg>
