<svg width="89" height="24" viewBox="0 0 89 24" fill="none" xmlns="http://www.w3.org/2000/svg">
<g clip-path="url(#clip0_721_2323)">
<path d="M10.7114 4.56941C11.8733 3.90549 14.2263 1.69732 11.3779 2.98257C9.14113 3.99185 0.821576 8.8904 5.10991 11.6943C7.3146 13.1358 15.4762 13.3068 12.6156 17.4387C10.3863 20.6588 4.43977 24.4792 1 21.4216" stroke="black" stroke-width="2" stroke-linecap="round"/>
<path d="M20.1367 6.5697C23.5369 5.91861 26.8062 4.94977 30.1338 3.99902" stroke="black" stroke-width="2" stroke-linecap="round"/>
<path d="M23.5649 6.56934C22.5642 9.82167 23.3995 14.179 23.6284 17.5502C23.6663 18.1087 24.4218 24.1599 24.4218 21.4221" stroke="black" stroke-width="2" stroke-linecap="round"/>
<path d="M39.5586 0C37.7283 4.62948 35.1404 8.92249 33.5286 13.6468C33.0625 15.0129 31.5597 18.5648 32.7034 19.7085" stroke="black" stroke-width="2" stroke-linecap="round"/>
<path d="M38.1309 1.42773C39.4643 1.89836 40.4894 4.40108 41.0982 5.56938C42.1811 7.64727 43.1992 9.77861 44.1926 11.9009C45.28 14.2239 46.5692 16.6806 47.271 19.1368" stroke="black" stroke-width="2" stroke-linecap="round"/>
<path d="M35.2751 15.9949C35.1281 15.9581 35.5444 15.8537 35.6877 15.8044C36.8036 15.4208 37.9342 15.0184 39.0042 14.5191C40.9302 13.6203 42.5548 12.2534 44.1296 10.8535" stroke="black" stroke-width="2" stroke-linecap="round"/>
<path d="M49.2715 5.42751C52.558 2.89939 57.3253 2.68594 60.9823 0.857422" stroke="black" stroke-width="2" stroke-linecap="round"/>
<path d="M54.9824 3.71289C55.0771 6.64923 55.892 9.59743 56.2678 12.5198C56.5775 14.9292 56.7823 17.3959 57.5531 19.7082" stroke="black" stroke-width="2" stroke-linecap="round"/>
<path d="M62.9805 3.99894C63.357 3.62246 63.3975 4.98098 63.5517 5.49057C64.0722 7.20957 64.3919 8.97672 64.8529 10.7113C65.4317 12.8885 66.8925 18.9773 70.1212 18.4392C73.4765 17.8799 73.8433 12.5181 73.644 10.0131C73.423 7.23474 72.6512 4.51598 70.9781 2.28516" stroke="black" stroke-width="2" stroke-linecap="round"/>
<path d="M86.6885 2.28457C86.1145 1.36618 82.0407 2.67385 81.1504 2.8717C77.2629 3.73559 83.4837 8.15046 84.2606 8.74299C86.8526 10.72 89.8861 15.1117 86.3394 17.8038C83.3932 20.0401 79.4598 19.3609 76.6914 17.423" stroke="black" stroke-width="2" stroke-linecap="round"/>
</g>
<defs>
<clipPath id="clip0_721_2323">
<rect width="89" height="24" fill="white"/>
</clipPath>
</defs>
</svg>
