<svg width="67" height="29" viewBox="0 0 67 29" fill="none" xmlns="http://www.w3.org/2000/svg">
<g clip-path="url(#clip0_721_2311)">
<path d="M11.0213 5.49265C10.7347 4.15514 9.70739 2.33902 8.57758 1.52556C7.46055 0.721294 6.03025 1.34929 5.08654 2.16029C2.50931 4.3751 1.77997 8.22685 1.38921 11.4116C0.929262 15.1601 -0.151065 26.5831 5.6578 27.391C9.22921 27.8877 13.0419 24.5946 14.7345 21.7736" stroke="black" stroke-width="2" stroke-linecap="round"/>
<path d="M23.1683 1.85742C21.8033 2.53996 21.4572 5.07799 21.1689 6.36404C20.2076 10.6528 19.5082 14.9998 18.7569 19.3285C18.7025 19.6421 18.1341 25.4896 18.3761 22.6132C18.6971 18.7964 18.6172 14.9684 19.2012 11.1722C19.5805 8.7072 19.984 5.45728 21.5815 3.41252C22.8177 1.8302 24.7186 6.19659 25.1043 6.9353C27.0901 10.7395 28.4573 14.8676 29.8489 18.9159C30.1263 19.7228 31.337 21.9662 30.5947 22.7085" stroke="black" stroke-width="2" stroke-linecap="round"/>
<path d="M23.1696 13.2822C22.5189 14.1189 28.3567 14.6202 29.1679 14.7104" stroke="black" stroke-width="2" stroke-linecap="round"/>
<path d="M33.88 1C33.3053 5.81366 33.6944 10.692 33.88 15.5196C34.0003 18.6468 34.2637 21.6719 35.0226 24.7073" stroke="black" stroke-width="2" stroke-linecap="round"/>
<path d="M35.8809 14.1392C36.1457 10.1665 40.7056 6.34822 44.4815 5.69719C46.8183 5.29431 44.9303 8.29519 44.3863 9.02955C42.7889 11.1861 40.9895 12.5566 38.3563 13.1077C37.9777 13.187 35.8938 13.1084 36.706 13.4092C39.3882 14.4026 41.7335 16.0812 44.1641 17.5509C46.3261 18.8581 48.9508 19.7544 50.9558 21.2799C52.1862 22.2161 50.2736 21.4287 49.8768 21.2799" stroke="black" stroke-width="2" stroke-linecap="round"/>
<path d="M49.875 4.14157C54.6757 5.38047 60.717 4.26569 65.5847 3.57031" stroke="black" stroke-width="2" stroke-linecap="round"/>
<path d="M57.3027 4.71289C57.3027 9.02299 58.0667 13.2196 58.4453 17.5028C58.6285 19.5766 58.8122 21.65 59.0006 23.7232C59.059 24.3655 58.7482 22.7857 58.7309 22.7076" stroke="black" stroke-width="2" stroke-linecap="round"/>
</g>
<defs>
<clipPath id="clip0_721_2311">
<rect width="67" height="29" fill="white"/>
</clipPath>
</defs>
</svg>
