<svg width="100" height="35" viewBox="0 0 100 35" fill="none" xmlns="http://www.w3.org/2000/svg">
<g clip-path="url(#clip0_714_1885)">
<path d="M2.0822 6.15636C9.33847 6.98786 16.36 6.27211 23.5606 6.02356" stroke="black" stroke-width="2" stroke-linecap="round"/>
<path d="M3.9057 4.3291C2.74885 9.80781 4.59644 15.6982 4.91007 21.1826C5.04901 23.612 5.26623 26.213 4.71004 28.6108C4.23531 30.6575 4.06469 29.1964 3.93378 28.0628" stroke="black" stroke-width="2" stroke-linecap="round"/>
<path d="M2.09832 18.9357C6.46162 20.6188 11.1025 18.1253 15.1377 16.5517C15.7604 16.3089 18.7131 15.768 17.1291 15.374" stroke="black" stroke-width="2" stroke-linecap="round"/>
<path d="M27.5854 8.75293C26.7905 12.8023 27.3686 17.3639 27.0516 21.4975C26.8276 24.4181 26.4213 27.3506 25.8686 30.2275C25.4835 32.2322 25.9758 29.8987 26.1063 29.3741" stroke="black" stroke-width="2" stroke-linecap="round"/>
<path d="M26.8475 19.0642C25.3573 18.2717 40.76 6.46498 42.0022 9.29741C43.306 12.2705 34.6863 17.8435 32.8255 18.8781C32.0073 19.3331 25.3499 21.4555 28.7587 20.7564C30.2282 20.4549 33.0624 24.5274 33.9191 25.4875C35.516 27.2769 37.4532 29.0673 38.6988 31.1378C39.0226 31.676 37.9605 30.248 37.8145 30.0053" stroke="black" stroke-width="2" stroke-linecap="round"/>
<path d="M53.6143 11.4192C52.6079 11.2976 52.4127 11.8794 52.1099 12.7923C51.046 15.9997 50.0977 19.1483 48.8046 22.2881C47.6996 24.9708 44.6115 33.1092 45.7012 30.4202C46.4005 28.6946 46.9589 26.9282 47.4763 25.1446" stroke="black" stroke-width="2" stroke-linecap="round"/>
<path d="M52.6624 11.6941C52.8673 10.5849 53.0072 10.7104 53.2645 11.9554C53.9548 15.2952 54.4336 18.6695 55.2647 21.981C55.5802 23.2382 57.2767 27.8262 56.5391 27.2697" stroke="black" stroke-width="2" stroke-linecap="round"/>
<path d="M45.299 24.7431C50.1333 23.9328 54.0883 20.9688 58.7779 20.0288" stroke="black" stroke-width="2" stroke-linecap="round"/>
<path d="M64.8275 12.8203C64.4244 17.2303 64.8754 21.8464 64.5358 26.33C64.4944 26.8764 64.4329 30.1396 64.426 29.6272C64.3908 27.025 64.2502 24.4483 64.1159 21.8496" stroke="black" stroke-width="2" stroke-linecap="round"/>
<path d="M63.0274 15.953C61.1842 12.8892 68.2245 20.8654 70.8674 23.2735C71.5984 23.9395 75.6029 29.4804 74.8366 26.0509" stroke="black" stroke-width="2" stroke-linecap="round"/>
<path d="M74.0947 10.5225C74.4335 15.4793 74.2221 20.3716 73.9919 25.3293" stroke="black" stroke-width="2" stroke-linecap="round"/>
<path d="M81.9417 6.51983C82.3688 2.961 81.9444 13.6921 81.7516 17.2712C81.5863 20.3403 80.9221 24.0058 81.3933 27.0683C81.6012 28.4197 82.7363 25.232 82.8227 24.9903" stroke="black" stroke-width="2" stroke-linecap="round"/>
<path d="M91.1787 7.9055C91.792 7.38178 89.7617 8.27936 89.6757 8.34281C87.7825 9.73966 86.098 11.597 84.5507 13.3546C83.0348 15.0763 81.5616 16.7897 79.8432 18.3181C79.3366 18.7687 80.413 18.1097 80.7379 18.0843C82.5001 17.9467 83.7196 19.3158 85.0063 20.2868C87.1703 21.9198 89.5829 23.0485 92.0689 24.0969C93.6012 24.743 98.3979 26.1274 96.7842 25.726" stroke="black" stroke-width="2" stroke-linecap="round"/>
</g>
<defs>
<clipPath id="clip0_714_1885">
<rect width="100" height="35" fill="white"/>
</clipPath>
</defs>
</svg>
