<svg width="52" height="30" viewBox="0 0 52 30" fill="none" xmlns="http://www.w3.org/2000/svg">
<g clip-path="url(#clip0_714_1901)">
<path d="M2.87223 7.80644C-1.53417 10.5831 12.353 2.66973 17.5575 2.46997" stroke="black" stroke-width="2" stroke-linecap="round"/>
<path d="M13.6812 3.44752C12.9223 4.52619 13.1382 5.88734 13.2798 7.13701C13.6726 10.6028 13.9215 14.0071 13.9603 17.5012C13.9916 20.3287 14.5665 25.4618 11.151 26.7133C7.52983 28.0401 4.28919 26.1368 1.20533 24.6467" stroke="black" stroke-width="2" stroke-linecap="round"/>
<path d="M20.8875 10.6048C21.6959 9.61888 23.9116 9.13161 25.0596 8.52189C26.3273 7.84856 27.6664 7.51274 29.0429 7.14801" stroke="black" stroke-width="2" stroke-linecap="round"/>
<path d="M24.2157 8.67627C22.9646 11.4135 22.7265 13.9617 22.6196 16.9383C22.5475 18.9467 21.6995 23.6942 23.5256 25.1964C25.7217 27.0031 31.2834 20.7262 33.0034 19.4565" stroke="black" stroke-width="2" stroke-linecap="round"/>
<path d="M22.2425 20.6117C25.8781 18.7197 28.6251 17.1615 31.5726 14.2518" stroke="black" stroke-width="2" stroke-linecap="round"/>
<path d="M36.8722 8.30664C37.8721 12.4427 37.506 16.7244 37.7366 20.9422C37.8157 22.3884 38.1865 23.6494 37.5011 24.6913" stroke="black" stroke-width="2" stroke-linecap="round"/>
<path d="M37.8434 11.6841C39.1839 9.34683 44.7168 15.8768 45.7492 16.8724C46.8133 17.8985 50.1168 21.1662 48.7177 17.6972" stroke="black" stroke-width="2" stroke-linecap="round"/>
<path d="M46.1481 3.91508C46.0755 1.86093 46.4374 2.87654 46.7673 4.32247C47.7102 8.45444 48.1986 12.6455 48.6649 16.8519C48.8644 18.6512 50.5346 26.5788 50.4268 20.6475" stroke="black" stroke-width="2" stroke-linecap="round"/>
</g>
<defs>
<clipPath id="clip0_714_1901">
<rect width="52" height="30" fill="white"/>
</clipPath>
</defs>
</svg>
